<?xml version="1.0" encoding="utf-8"?>
<!-- Generator: Fusion 360, Shaper Origin Export Add-In, Version 1.9.0  -->
<svg xmlns="http://www.w3.org/2000/svg" xmlns:xlink="http://www.w3.org/1999/xlink" xmlns:shaper="http://www.shapertools.com/namespaces/shaper" shaper:fusionaddin="version:1.9.0" width="20.6cm" height="15.6cm" version="1.1" x="0cm" y="0cm" viewBox="0 0 20.6 15.6" enable-background="new 0 0 20.6 15.6" xml:space="preserve"><path d="M-10,-7.8 L10,-7.8 10,-7.5 10.3,-7.5 10.3,7.5 10,7.5 10,7.8 -10,7.8 -10,7.5 -10.3,7.5 -10.3,-7.5 -10,-7.5 -10,-7.8z" transform="matrix(1,0,0,-1,10.3,7.8)" fill="rgb(0,0,0)" shaper:cutDepth="0.3cm" stroke-linecap="round" stroke-linejoin="round" /><path d="M-3.615,1.05 a0.18,0.18 0 1,1 0.36,0 a0.18,0.18 0 1,1 -0.36,0z" transform="matrix(1,0,0,-1,10.3,7.8)" fill="rgb(255,255,255)" stroke="rgb(0,0,0)" stroke-width="0.0010cm" stroke-linecap="round" stroke-linejoin="round" shaper:cutDepth="0.3cm" /><path d="M-3.615,-0.62 a0.18,0.18 0 1,1 0.36,0 a0.18,0.18 0 1,1 -0.36,0z" transform="matrix(1,0,0,-1,10.3,7.8)" fill="rgb(255,255,255)" stroke="rgb(0,0,0)" stroke-width="0.0010cm" stroke-linecap="round" stroke-linejoin="round" shaper:cutDepth="0.3cm" /><path d="M3.835,1.79 L3.435,1.79 3.435,1.95 3.835,1.95 3.835,1.79z" transform="matrix(1,0,0,-1,10.3,7.8)" fill="rgb(255,255,255)" stroke="rgb(0,0,0)" stroke-width="0.0010cm" stroke-linecap="round" stroke-linejoin="round" shaper:cutDepth="0.3cm" /><path d="M5.345,-1.95 L4.945,-1.95 4.945,-1.79 5.345,-1.79 5.345,-1.95z" transform="matrix(1,0,0,-1,10.3,7.8)" fill="rgb(255,255,255)" stroke="rgb(0,0,0)" stroke-width="0.0010cm" stroke-linecap="round" stroke-linejoin="round" shaper:cutDepth="0.3cm" /><path d="M5.345,1.95 L5.345,1.79 4.945,1.79 4.945,1.95 5.345,1.95z" transform="matrix(1,0,0,-1,10.3,7.8)" fill="rgb(255,255,255)" stroke="rgb(0,0,0)" stroke-width="0.0010cm" stroke-linecap="round" stroke-linejoin="round" shaper:cutDepth="0.3cm" /><path d="M3.435,-1.79 L3.835,-1.79 3.835,-1.95 3.435,-1.95 3.435,-1.79z" transform="matrix(1,0,0,-1,10.3,7.8)" fill="rgb(255,255,255)" stroke="rgb(0,0,0)" stroke-width="0.0010cm" stroke-linecap="round" stroke-linejoin="round" shaper:cutDepth="0.3cm" /><path d="M8.3,-1.5 A0.5,0.5 0 0,0 7.8,-2 L6.8,-2 A0.5,0.5 270 0,0 6.3,-1.5 L6.3,1.5 A0.5,0.5 180 0,0 6.8,2 L7.8,2 A0.5,0.5 90 0,0 8.3,1.5 L8.3,-1.5z" transform="matrix(1,0,0,-1,10.3,7.8)" fill="rgb(255,255,255)" stroke="rgb(0,0,0)" stroke-width="0.0010cm" stroke-linecap="round" stroke-linejoin="round" shaper:cutDepth="0.3cm" /></svg>