ISO-10303-21;
HEADER;
/* Generated by software containing ST-Developer
 * from STEP Tools, Inc. (www.steptools.com) 
 */

FILE_DESCRIPTION(
/* description */ (''),
/* implementation_level */ '2;1');

FILE_NAME(
/* name */ 'BOLT_BHSCS_M3_4mm.step',
/* time_stamp */ '2026-08-10T14:31:25+02:00',
/* author */ (''),
/* organization */ (''),
/* preprocessor_version */ 'ST-DEVELOPER v20.1',
/* originating_system */ 'Autodesk Translation Framework v15.8.0.0',
/* authorisation */ '');

FILE_SCHEMA (('AUTOMOTIVE_DESIGN { 1 0 10303 214 3 1 1 }'));
ENDSEC;

DATA;
#10=MECHANICAL_DESIGN_GEOMETRIC_PRESENTATION_REPRESENTATION('',(#13),#510);
#11=SHAPE_REPRESENTATION_RELATIONSHIP('SRR','None',#517,#12);
#12=ADVANCED_BREP_SHAPE_REPRESENTATION('',(#14),#509);
#13=STYLED_ITEM('',(#527),#14);
#14=MANIFOLD_SOLID_BREP('Corps1',#282);
#15=CYLINDRICAL_SURFACE('',#330,1.5);
#16=TOROIDAL_SURFACE('',#327,1.6,0.1);
#17=SPHERICAL_SURFACE('',#323,3.0056042695);
#18=FACE_BOUND('',#96,.T.);
#19=FACE_BOUND('',#105,.T.);
#20=FACE_BOUND('',#107,.T.);
#21=FACE_BOUND('',#109,.T.);
#22=(
BOUNDED_CURVE()
B_SPLINE_CURVE(2,(#429,#430,#431),.UNSPECIFIED.,.F.,.F.)
B_SPLINE_CURVE_WITH_KNOTS((3,3),(0.124274873545303,0.321867155121922),
 .UNSPECIFIED.)
CURVE()
GEOMETRIC_REPRESENTATION_ITEM()
RATIONAL_B_SPLINE_CURVE((1.46410161514695,1.69059892325815,1.46410161514695))
REPRESENTATION_ITEM('')
);
#23=(
BOUNDED_CURVE()
B_SPLINE_CURVE(2,(#439,#440,#441),.UNSPECIFIED.,.F.,.F.)
B_SPLINE_CURVE_WITH_KNOTS((3,3),(0.124274873545303,0.321867155121921),
 .UNSPECIFIED.)
CURVE()
GEOMETRIC_REPRESENTATION_ITEM()
RATIONAL_B_SPLINE_CURVE((1.46410161514695,1.69059892325815,1.46410161514695))
REPRESENTATION_ITEM('')
);
#24=(
BOUNDED_CURVE()
B_SPLINE_CURVE(2,(#447,#448,#449),.UNSPECIFIED.,.F.,.F.)
B_SPLINE_CURVE_WITH_KNOTS((3,3),(0.124274873545303,0.321867155121922),
 .UNSPECIFIED.)
CURVE()
GEOMETRIC_REPRESENTATION_ITEM()
RATIONAL_B_SPLINE_CURVE((1.46410161514695,1.69059892325815,1.46410161514695))
REPRESENTATION_ITEM('')
);
#25=(
BOUNDED_CURVE()
B_SPLINE_CURVE(2,(#456,#457,#458),.UNSPECIFIED.,.F.,.F.)
B_SPLINE_CURVE_WITH_KNOTS((3,3),(0.124274873545303,0.321867155121921),
 .UNSPECIFIED.)
CURVE()
GEOMETRIC_REPRESENTATION_ITEM()
RATIONAL_B_SPLINE_CURVE((1.46410161514695,1.69059892325815,1.46410161514695))
REPRESENTATION_ITEM('')
);
#26=(
BOUNDED_CURVE()
B_SPLINE_CURVE(2,(#465,#466,#467),.UNSPECIFIED.,.F.,.F.)
B_SPLINE_CURVE_WITH_KNOTS((3,3),(0.124274873545303,0.321867155121921),
 .UNSPECIFIED.)
CURVE()
GEOMETRIC_REPRESENTATION_ITEM()
RATIONAL_B_SPLINE_CURVE((1.46410161514695,1.69059892325815,1.46410161514695))
REPRESENTATION_ITEM('')
);
#27=(
BOUNDED_CURVE()
B_SPLINE_CURVE(2,(#487,#488,#489),.UNSPECIFIED.,.F.,.F.)
B_SPLINE_CURVE_WITH_KNOTS((3,3),(0.124274873545303,0.321867155121922),
 .UNSPECIFIED.)
CURVE()
GEOMETRIC_REPRESENTATION_ITEM()
RATIONAL_B_SPLINE_CURVE((1.46410161514695,1.69059892325815,1.46410161514695))
REPRESENTATION_ITEM('')
);
#28=LINE('',#425,#43);
#29=LINE('',#433,#44);
#30=LINE('',#435,#45);
#31=LINE('',#436,#46);
#32=LINE('',#443,#47);
#33=LINE('',#444,#48);
#34=LINE('',#451,#49);
#35=LINE('',#452,#50);
#36=LINE('',#460,#51);
#37=LINE('',#462,#52);
#38=LINE('',#463,#53);
#39=LINE('',#468,#54);
#40=LINE('',#472,#55);
#41=LINE('',#475,#56);
#42=LINE('',#506,#57);
#43=VECTOR('',#341,1.34674999999961);
#44=VECTOR('',#344,1.04);
#45=VECTOR('',#345,1.15470053837925);
#46=VECTOR('',#346,1.04);
#47=VECTOR('',#349,1.04);
#48=VECTOR('',#350,1.15470053837925);
#49=VECTOR('',#353,1.04);
#50=VECTOR('',#354,1.15470053837925);
#51=VECTOR('',#357,1.04);
#52=VECTOR('',#358,1.15470053837925);
#53=VECTOR('',#359,1.04);
#54=VECTOR('',#362,1.15470053837925);
#55=VECTOR('',#365,1.);
#56=VECTOR('',#370,1.15470053837925);
#57=VECTOR('',#417,1.5);
#58=CONICAL_SURFACE('',#298,1.34674999999961,0.7853981634);
#59=CONICAL_SURFACE('',#305,1.,1.0471975512);
#60=CONICAL_SURFACE('',#308,1.1547005384,0.7853981634);
#61=CONICAL_SURFACE('',#310,1.1547005384,0.7853981634);
#62=CONICAL_SURFACE('',#312,1.1547005384,0.7853981634);
#63=CONICAL_SURFACE('',#314,1.1547005384,0.7853981634);
#64=CONICAL_SURFACE('',#316,1.1547005384,0.7853981634);
#65=CONICAL_SURFACE('',#318,1.1547005384,0.7853981634);
#66=FACE_OUTER_BOUND('',#87,.T.);
#67=FACE_OUTER_BOUND('',#88,.T.);
#68=FACE_OUTER_BOUND('',#89,.T.);
#69=FACE_OUTER_BOUND('',#90,.T.);
#70=FACE_OUTER_BOUND('',#91,.T.);
#71=FACE_OUTER_BOUND('',#92,.T.);
#72=FACE_OUTER_BOUND('',#93,.T.);
#73=FACE_OUTER_BOUND('',#94,.T.);
#74=FACE_OUTER_BOUND('',#95,.T.);
#75=FACE_OUTER_BOUND('',#97,.T.);
#76=FACE_OUTER_BOUND('',#98,.T.);
#77=FACE_OUTER_BOUND('',#99,.T.);
#78=FACE_OUTER_BOUND('',#100,.T.);
#79=FACE_OUTER_BOUND('',#101,.T.);
#80=FACE_OUTER_BOUND('',#102,.T.);
#81=FACE_OUTER_BOUND('',#103,.T.);
#82=FACE_OUTER_BOUND('',#104,.T.);
#83=FACE_OUTER_BOUND('',#106,.T.);
#84=FACE_OUTER_BOUND('',#108,.T.);
#85=FACE_OUTER_BOUND('',#110,.T.);
#86=FACE_OUTER_BOUND('',#111,.T.);
#87=EDGE_LOOP('',(#181));
#88=EDGE_LOOP('',(#182,#183,#184,#185));
#89=EDGE_LOOP('',(#186,#187,#188,#189));
#90=EDGE_LOOP('',(#190,#191,#192,#193));
#91=EDGE_LOOP('',(#194,#195,#196,#197));
#92=EDGE_LOOP('',(#198,#199,#200,#201));
#93=EDGE_LOOP('',(#202,#203,#204,#205));
#94=EDGE_LOOP('',(#206,#207,#208));
#95=EDGE_LOOP('',(#209,#210,#211,#212,#213,#214));
#96=EDGE_LOOP('',(#215));
#97=EDGE_LOOP('',(#216,#217));
#98=EDGE_LOOP('',(#218,#219));
#99=EDGE_LOOP('',(#220,#221));
#100=EDGE_LOOP('',(#222,#223));
#101=EDGE_LOOP('',(#224,#225));
#102=EDGE_LOOP('',(#226,#227));
#103=EDGE_LOOP('',(#228,#229,#230,#231));
#104=EDGE_LOOP('',(#232));
#105=EDGE_LOOP('',(#233,#234,#235,#236,#237,#238));
#106=EDGE_LOOP('',(#239));
#107=EDGE_LOOP('',(#240));
#108=EDGE_LOOP('',(#241));
#109=EDGE_LOOP('',(#242));
#110=EDGE_LOOP('',(#243,#244,#245,#246));
#111=EDGE_LOOP('',(#247,#248,#249,#250));
#112=CIRCLE('',#297,1.19349999999922);
#113=CIRCLE('',#299,1.5);
#114=CIRCLE('',#306,0.9);
#115=CIRCLE('',#309,1.1547005384);
#116=CIRCLE('',#311,1.1547005384);
#117=CIRCLE('',#313,1.1547005384);
#118=CIRCLE('',#315,1.1547005384);
#119=CIRCLE('',#317,1.1547005384);
#120=CIRCLE('',#319,1.1547005384);
#121=CIRCLE('',#322,1.5);
#122=CIRCLE('',#324,2.85);
#123=CIRCLE('',#326,1.6);
#124=CIRCLE('',#328,0.1);
#125=CIRCLE('',#329,1.5);
#126=VERTEX_POINT('',#420);
#127=VERTEX_POINT('',#423);
#128=VERTEX_POINT('',#427);
#129=VERTEX_POINT('',#428);
#130=VERTEX_POINT('',#432);
#131=VERTEX_POINT('',#434);
#132=VERTEX_POINT('',#438);
#133=VERTEX_POINT('',#442);
#134=VERTEX_POINT('',#446);
#135=VERTEX_POINT('',#450);
#136=VERTEX_POINT('',#454);
#137=VERTEX_POINT('',#455);
#138=VERTEX_POINT('',#459);
#139=VERTEX_POINT('',#461);
#140=VERTEX_POINT('',#470);
#141=VERTEX_POINT('',#471);
#142=VERTEX_POINT('',#493);
#143=VERTEX_POINT('',#496);
#144=VERTEX_POINT('',#499);
#145=VERTEX_POINT('',#502);
#146=EDGE_CURVE('',#126,#126,#112,.T.);
#147=EDGE_CURVE('',#127,#127,#113,.T.);
#148=EDGE_CURVE('',#127,#126,#28,.T.);
#149=EDGE_CURVE('',#128,#129,#22,.T.);
#150=EDGE_CURVE('',#130,#129,#29,.T.);
#151=EDGE_CURVE('',#130,#131,#30,.T.);
#152=EDGE_CURVE('',#131,#128,#31,.T.);
#153=EDGE_CURVE('',#129,#132,#23,.T.);
#154=EDGE_CURVE('',#133,#132,#32,.T.);
#155=EDGE_CURVE('',#133,#130,#33,.T.);
#156=EDGE_CURVE('',#132,#134,#24,.F.);
#157=EDGE_CURVE('',#135,#134,#34,.T.);
#158=EDGE_CURVE('',#135,#133,#35,.T.);
#159=EDGE_CURVE('',#136,#137,#25,.T.);
#160=EDGE_CURVE('',#138,#137,#36,.T.);
#161=EDGE_CURVE('',#138,#139,#37,.T.);
#162=EDGE_CURVE('',#139,#136,#38,.T.);
#163=EDGE_CURVE('',#137,#128,#26,.T.);
#164=EDGE_CURVE('',#131,#138,#39,.T.);
#165=EDGE_CURVE('',#140,#141,#40,.T.);
#166=EDGE_CURVE('',#141,#141,#114,.F.);
#167=EDGE_CURVE('',#139,#135,#41,.T.);
#168=EDGE_CURVE('',#137,#128,#115,.T.);
#169=EDGE_CURVE('',#136,#137,#116,.T.);
#170=EDGE_CURVE('',#128,#129,#117,.T.);
#171=EDGE_CURVE('',#129,#132,#118,.T.);
#172=EDGE_CURVE('',#132,#134,#119,.T.);
#173=EDGE_CURVE('',#134,#136,#27,.T.);
#174=EDGE_CURVE('',#134,#136,#120,.T.);
#175=EDGE_CURVE('',#142,#142,#121,.T.);
#176=EDGE_CURVE('',#143,#143,#122,.T.);
#177=EDGE_CURVE('',#144,#144,#123,.T.);
#178=EDGE_CURVE('',#144,#145,#124,.T.);
#179=EDGE_CURVE('',#145,#145,#125,.T.);
#180=EDGE_CURVE('',#127,#145,#42,.T.);
#181=ORIENTED_EDGE('',*,*,#146,.T.);
#182=ORIENTED_EDGE('',*,*,#147,.F.);
#183=ORIENTED_EDGE('',*,*,#148,.T.);
#184=ORIENTED_EDGE('',*,*,#146,.F.);
#185=ORIENTED_EDGE('',*,*,#148,.F.);
#186=ORIENTED_EDGE('',*,*,#149,.T.);
#187=ORIENTED_EDGE('',*,*,#150,.F.);
#188=ORIENTED_EDGE('',*,*,#151,.T.);
#189=ORIENTED_EDGE('',*,*,#152,.T.);
#190=ORIENTED_EDGE('',*,*,#153,.T.);
#191=ORIENTED_EDGE('',*,*,#154,.F.);
#192=ORIENTED_EDGE('',*,*,#155,.T.);
#193=ORIENTED_EDGE('',*,*,#150,.T.);
#194=ORIENTED_EDGE('',*,*,#156,.T.);
#195=ORIENTED_EDGE('',*,*,#157,.F.);
#196=ORIENTED_EDGE('',*,*,#158,.T.);
#197=ORIENTED_EDGE('',*,*,#154,.T.);
#198=ORIENTED_EDGE('',*,*,#159,.T.);
#199=ORIENTED_EDGE('',*,*,#160,.F.);
#200=ORIENTED_EDGE('',*,*,#161,.T.);
#201=ORIENTED_EDGE('',*,*,#162,.T.);
#202=ORIENTED_EDGE('',*,*,#160,.T.);
#203=ORIENTED_EDGE('',*,*,#163,.T.);
#204=ORIENTED_EDGE('',*,*,#152,.F.);
#205=ORIENTED_EDGE('',*,*,#164,.T.);
#206=ORIENTED_EDGE('',*,*,#165,.T.);
#207=ORIENTED_EDGE('',*,*,#166,.T.);
#208=ORIENTED_EDGE('',*,*,#165,.F.);
#209=ORIENTED_EDGE('',*,*,#164,.F.);
#210=ORIENTED_EDGE('',*,*,#151,.F.);
#211=ORIENTED_EDGE('',*,*,#155,.F.);
#212=ORIENTED_EDGE('',*,*,#158,.F.);
#213=ORIENTED_EDGE('',*,*,#167,.F.);
#214=ORIENTED_EDGE('',*,*,#161,.F.);
#215=ORIENTED_EDGE('',*,*,#166,.F.);
#216=ORIENTED_EDGE('',*,*,#163,.F.);
#217=ORIENTED_EDGE('',*,*,#168,.T.);
#218=ORIENTED_EDGE('',*,*,#159,.F.);
#219=ORIENTED_EDGE('',*,*,#169,.T.);
#220=ORIENTED_EDGE('',*,*,#149,.F.);
#221=ORIENTED_EDGE('',*,*,#170,.T.);
#222=ORIENTED_EDGE('',*,*,#153,.F.);
#223=ORIENTED_EDGE('',*,*,#171,.T.);
#224=ORIENTED_EDGE('',*,*,#156,.F.);
#225=ORIENTED_EDGE('',*,*,#172,.T.);
#226=ORIENTED_EDGE('',*,*,#173,.F.);
#227=ORIENTED_EDGE('',*,*,#174,.T.);
#228=ORIENTED_EDGE('',*,*,#173,.T.);
#229=ORIENTED_EDGE('',*,*,#162,.F.);
#230=ORIENTED_EDGE('',*,*,#167,.T.);
#231=ORIENTED_EDGE('',*,*,#157,.T.);
#232=ORIENTED_EDGE('',*,*,#175,.T.);
#233=ORIENTED_EDGE('',*,*,#168,.F.);
#234=ORIENTED_EDGE('',*,*,#169,.F.);
#235=ORIENTED_EDGE('',*,*,#174,.F.);
#236=ORIENTED_EDGE('',*,*,#172,.F.);
#237=ORIENTED_EDGE('',*,*,#171,.F.);
#238=ORIENTED_EDGE('',*,*,#170,.F.);
#239=ORIENTED_EDGE('',*,*,#176,.T.);
#240=ORIENTED_EDGE('',*,*,#175,.F.);
#241=ORIENTED_EDGE('',*,*,#176,.F.);
#242=ORIENTED_EDGE('',*,*,#177,.T.);
#243=ORIENTED_EDGE('',*,*,#177,.F.);
#244=ORIENTED_EDGE('',*,*,#178,.T.);
#245=ORIENTED_EDGE('',*,*,#179,.T.);
#246=ORIENTED_EDGE('',*,*,#178,.F.);
#247=ORIENTED_EDGE('',*,*,#147,.T.);
#248=ORIENTED_EDGE('',*,*,#180,.T.);
#249=ORIENTED_EDGE('',*,*,#179,.F.);
#250=ORIENTED_EDGE('',*,*,#180,.F.);
#251=PLANE('',#296);
#252=PLANE('',#300);
#253=PLANE('',#301);
#254=PLANE('',#302);
#255=PLANE('',#303);
#256=PLANE('',#304);
#257=PLANE('',#307);
#258=PLANE('',#320);
#259=PLANE('',#321);
#260=PLANE('',#325);
#261=ADVANCED_FACE('',(#66),#251,.F.);
#262=ADVANCED_FACE('',(#67),#58,.T.);
#263=ADVANCED_FACE('',(#68),#252,.T.);
#264=ADVANCED_FACE('',(#69),#253,.T.);
#265=ADVANCED_FACE('',(#70),#254,.T.);
#266=ADVANCED_FACE('',(#71),#255,.T.);
#267=ADVANCED_FACE('',(#72),#256,.T.);
#268=ADVANCED_FACE('',(#73),#59,.F.);
#269=ADVANCED_FACE('',(#74,#18),#257,.F.);
#270=ADVANCED_FACE('',(#75),#60,.F.);
#271=ADVANCED_FACE('',(#76),#61,.F.);
#272=ADVANCED_FACE('',(#77),#62,.F.);
#273=ADVANCED_FACE('',(#78),#63,.F.);
#274=ADVANCED_FACE('',(#79),#64,.F.);
#275=ADVANCED_FACE('',(#80),#65,.F.);
#276=ADVANCED_FACE('',(#81),#258,.T.);
#277=ADVANCED_FACE('',(#82,#19),#259,.F.);
#278=ADVANCED_FACE('',(#83,#20),#17,.T.);
#279=ADVANCED_FACE('',(#84,#21),#260,.F.);
#280=ADVANCED_FACE('',(#85),#16,.F.);
#281=ADVANCED_FACE('',(#86),#15,.T.);
#282=CLOSED_SHELL('',(#261,#262,#263,#264,#265,#266,#267,#268,#269,#270,
#271,#272,#273,#274,#275,#276,#277,#278,#279,#280,#281));
#283=DERIVED_UNIT_ELEMENT(#285,1.);
#284=DERIVED_UNIT_ELEMENT(#512,-3.);
#285=(
MASS_UNIT()
NAMED_UNIT(*)
SI_UNIT(.KILO.,.GRAM.)
);
#286=DERIVED_UNIT((#283,#284));
#287=MEASURE_REPRESENTATION_ITEM('density measure',
POSITIVE_RATIO_MEASURE(7850.),#286);
#288=PROPERTY_DEFINITION_REPRESENTATION(#293,#290);
#289=PROPERTY_DEFINITION_REPRESENTATION(#294,#291);
#290=REPRESENTATION('material name',(#292),#509);
#291=REPRESENTATION('density',(#287),#509);
#292=DESCRIPTIVE_REPRESENTATION_ITEM('Acier','Acier');
#293=PROPERTY_DEFINITION('material property','material name',#519);
#294=PROPERTY_DEFINITION('material property','density of part',#519);
#295=AXIS2_PLACEMENT_3D('',#418,#331,#332);
#296=AXIS2_PLACEMENT_3D('',#419,#333,#334);
#297=AXIS2_PLACEMENT_3D('',#421,#335,#336);
#298=AXIS2_PLACEMENT_3D('',#422,#337,#338);
#299=AXIS2_PLACEMENT_3D('',#424,#339,#340);
#300=AXIS2_PLACEMENT_3D('',#426,#342,#343);
#301=AXIS2_PLACEMENT_3D('',#437,#347,#348);
#302=AXIS2_PLACEMENT_3D('',#445,#351,#352);
#303=AXIS2_PLACEMENT_3D('',#453,#355,#356);
#304=AXIS2_PLACEMENT_3D('',#464,#360,#361);
#305=AXIS2_PLACEMENT_3D('',#469,#363,#364);
#306=AXIS2_PLACEMENT_3D('',#473,#366,#367);
#307=AXIS2_PLACEMENT_3D('',#474,#368,#369);
#308=AXIS2_PLACEMENT_3D('',#476,#371,#372);
#309=AXIS2_PLACEMENT_3D('',#477,#373,#374);
#310=AXIS2_PLACEMENT_3D('',#478,#375,#376);
#311=AXIS2_PLACEMENT_3D('',#479,#377,#378);
#312=AXIS2_PLACEMENT_3D('',#480,#379,#380);
#313=AXIS2_PLACEMENT_3D('',#481,#381,#382);
#314=AXIS2_PLACEMENT_3D('',#482,#383,#384);
#315=AXIS2_PLACEMENT_3D('',#483,#385,#386);
#316=AXIS2_PLACEMENT_3D('',#484,#387,#388);
#317=AXIS2_PLACEMENT_3D('',#485,#389,#390);
#318=AXIS2_PLACEMENT_3D('',#486,#391,#392);
#319=AXIS2_PLACEMENT_3D('',#490,#393,#394);
#320=AXIS2_PLACEMENT_3D('',#491,#395,#396);
#321=AXIS2_PLACEMENT_3D('',#492,#397,#398);
#322=AXIS2_PLACEMENT_3D('',#494,#399,#400);
#323=AXIS2_PLACEMENT_3D('',#495,#401,#402);
#324=AXIS2_PLACEMENT_3D('',#497,#403,#404);
#325=AXIS2_PLACEMENT_3D('',#498,#405,#406);
#326=AXIS2_PLACEMENT_3D('',#500,#407,#408);
#327=AXIS2_PLACEMENT_3D('',#501,#409,#410);
#328=AXIS2_PLACEMENT_3D('',#503,#411,#412);
#329=AXIS2_PLACEMENT_3D('',#504,#413,#414);
#330=AXIS2_PLACEMENT_3D('',#505,#415,#416);
#331=DIRECTION('axis',(0.,0.,1.));
#332=DIRECTION('refdir',(1.,0.,0.));
#333=DIRECTION('center_axis',(-1.,0.,0.));
#334=DIRECTION('ref_axis',(0.,0.,1.));
#335=DIRECTION('center_axis',(1.,0.,0.));
#336=DIRECTION('ref_axis',(0.,0.,1.));
#337=DIRECTION('center_axis',(-1.,0.,0.));
#338=DIRECTION('ref_axis',(0.,0.,1.));
#339=DIRECTION('center_axis',(-1.,0.,0.));
#340=DIRECTION('ref_axis',(0.,0.,1.));
#341=DIRECTION('',(0.707106781184743,8.65956056237703E-17,0.707106781188352));
#342=DIRECTION('center_axis',(0.,-0.866025403784439,-0.5));
#343=DIRECTION('ref_axis',(0.,0.5,-0.866025403784439));
#344=DIRECTION('',(-1.,0.,0.));
#345=DIRECTION('',(0.,-0.5,0.866025403784439));
#346=DIRECTION('',(-1.,0.,0.));
#347=DIRECTION('center_axis',(0.,-0.866025403784439,0.5));
#348=DIRECTION('ref_axis',(0.,-0.5,-0.866025403784439));
#349=DIRECTION('',(-1.,0.,0.));
#350=DIRECTION('',(0.,0.5,0.866025403784439));
#351=DIRECTION('center_axis',(0.,0.,1.));
#352=DIRECTION('ref_axis',(1.,0.,0.));
#353=DIRECTION('',(-1.,0.,0.));
#354=DIRECTION('',(0.,1.,0.));
#355=DIRECTION('center_axis',(0.,0.866025403784439,-0.5));
#356=DIRECTION('ref_axis',(0.,0.5,0.866025403784439));
#357=DIRECTION('',(-1.,0.,0.));
#358=DIRECTION('',(0.,-0.5,-0.866025403784439));
#359=DIRECTION('',(-1.,0.,0.));
#360=DIRECTION('center_axis',(0.,0.,-1.));
#361=DIRECTION('ref_axis',(-1.,0.,0.));
#362=DIRECTION('',(0.,-1.,0.));
#363=DIRECTION('center_axis',(-1.,0.,0.));
#364=DIRECTION('ref_axis',(0.,0.,1.));
#365=DIRECTION('',(-0.499999999997053,-1.06057523872699E-16,-0.86602540378614));
#366=DIRECTION('center_axis',(1.,0.,0.));
#367=DIRECTION('ref_axis',(0.,0.,-1.));
#368=DIRECTION('center_axis',(1.,0.,0.));
#369=DIRECTION('ref_axis',(0.,0.,-1.));
#370=DIRECTION('',(0.,0.5,-0.866025403784439));
#371=DIRECTION('center_axis',(-1.,0.,0.));
#372=DIRECTION('ref_axis',(0.,0.,1.));
#373=DIRECTION('center_axis',(-1.,0.,0.));
#374=DIRECTION('ref_axis',(0.,0.,1.));
#375=DIRECTION('center_axis',(-1.,0.,0.));
#376=DIRECTION('ref_axis',(0.,0.,1.));
#377=DIRECTION('center_axis',(-1.,0.,0.));
#378=DIRECTION('ref_axis',(0.,0.,1.));
#379=DIRECTION('center_axis',(-1.,0.,0.));
#380=DIRECTION('ref_axis',(0.,0.,1.));
#381=DIRECTION('center_axis',(-1.,0.,0.));
#382=DIRECTION('ref_axis',(0.,0.,1.));
#383=DIRECTION('center_axis',(-1.,0.,0.));
#384=DIRECTION('ref_axis',(0.,0.,1.));
#385=DIRECTION('center_axis',(-1.,0.,0.));
#386=DIRECTION('ref_axis',(0.,0.,1.));
#387=DIRECTION('center_axis',(-1.,0.,0.));
#388=DIRECTION('ref_axis',(0.,-1.01064309961486E-15,-1.));
#389=DIRECTION('center_axis',(-1.,0.,0.));
#390=DIRECTION('ref_axis',(0.,0.,1.));
#391=DIRECTION('center_axis',(-1.,0.,0.));
#392=DIRECTION('ref_axis',(0.,0.,1.));
#393=DIRECTION('center_axis',(-1.,0.,0.));
#394=DIRECTION('ref_axis',(0.,0.,1.));
#395=DIRECTION('center_axis',(0.,0.866025403784439,0.5));
#396=DIRECTION('ref_axis',(0.,-0.5,0.866025403784439));
#397=DIRECTION('center_axis',(1.,0.,0.));
#398=DIRECTION('ref_axis',(0.,0.,-1.));
#399=DIRECTION('center_axis',(-1.,0.,0.));
#400=DIRECTION('ref_axis',(0.,0.,1.));
#401=DIRECTION('center_axis',(-7.38768596978237E-17,3.89942211623014E-20,
1.));
#402=DIRECTION('ref_axis',(-0.999999797227602,0.000636823959192981,0.));
#403=DIRECTION('center_axis',(-1.,0.,0.));
#404=DIRECTION('ref_axis',(0.,0.,1.));
#405=DIRECTION('center_axis',(-1.,0.,0.));
#406=DIRECTION('ref_axis',(0.,0.,1.));
#407=DIRECTION('center_axis',(-1.,0.,0.));
#408=DIRECTION('ref_axis',(0.,0.,1.));
#409=DIRECTION('center_axis',(-1.,0.,0.));
#410=DIRECTION('ref_axis',(0.,0.,1.));
#411=DIRECTION('center_axis',(0.,1.,-1.22464679914735E-16));
#412=DIRECTION('ref_axis',(0.,-1.22464679914735E-16,-1.));
#413=DIRECTION('center_axis',(-1.,0.,0.));
#414=DIRECTION('ref_axis',(0.,0.,1.));
#415=DIRECTION('center_axis',(1.,0.,0.));
#416=DIRECTION('ref_axis',(0.,0.,1.));
#417=DIRECTION('',(-1.,0.,0.));
#418=CARTESIAN_POINT('',(0.,0.,0.));
#419=CARTESIAN_POINT('Origin',(4.,0.,0.596749999999609));
#420=CARTESIAN_POINT('',(4.,-1.46161595478141E-16,-1.19349999999922));
#421=CARTESIAN_POINT('Origin',(4.,0.,0.));
#422=CARTESIAN_POINT('Origin',(3.84675000000039,0.,0.));
#423=CARTESIAN_POINT('',(3.69350000000078,-1.83697019872103E-16,-1.5));
#424=CARTESIAN_POINT('Origin',(3.69350000000078,0.,-2.165101E-16));
#425=CARTESIAN_POINT('',(3.84675000000039,-1.64929307675122E-16,-1.34674999999961));
#426=CARTESIAN_POINT('Origin',(-0.61,1.15470053837925,2.220446E-16));
#427=CARTESIAN_POINT('',(-1.65,0.577350269189626,1.));
#428=CARTESIAN_POINT('',(-1.65,1.15470053837925,2.168404E-16));
#429=CARTESIAN_POINT('Ctrl Pts',(-1.64999999998337,0.577350269185505,1.00000000000714));
#430=CARTESIAN_POINT('Ctrl Pts',(-1.36132486538282,0.866025403784438,0.5));
#431=CARTESIAN_POINT('Ctrl Pts',(-1.64999999998337,1.15470053838337,-7.13776844474365E-12));
#432=CARTESIAN_POINT('',(-0.61,1.15470053837925,2.168404E-16));
#433=CARTESIAN_POINT('',(-0.61,1.15470053837925,2.168404E-16));
#434=CARTESIAN_POINT('',(-0.61,0.577350269189626,1.));
#435=CARTESIAN_POINT('',(-0.61,1.15470053837925,2.171657E-16));
#436=CARTESIAN_POINT('',(-0.61,0.577350269189626,1.));
#437=CARTESIAN_POINT('Origin',(-0.61,0.577350269189626,-1.));
#438=CARTESIAN_POINT('',(-1.65,0.577350269189626,-1.));
#439=CARTESIAN_POINT('Ctrl Pts',(-1.64999999998337,1.15470053838337,7.13678265938758E-12));
#440=CARTESIAN_POINT('Ctrl Pts',(-1.36132486538282,0.866025403784439,-0.5));
#441=CARTESIAN_POINT('Ctrl Pts',(-1.64999999998337,0.577350269185506,-1.00000000000714));
#442=CARTESIAN_POINT('',(-0.61,0.577350269189626,-1.));
#443=CARTESIAN_POINT('',(-0.61,0.577350269189626,-1.));
#444=CARTESIAN_POINT('',(-0.61,0.577350269189626,-1.));
#445=CARTESIAN_POINT('Origin',(-0.61,-0.577350269189626,-1.));
#446=CARTESIAN_POINT('',(-1.65,-0.577350269189626,-1.));
#447=CARTESIAN_POINT('Ctrl Pts',(-1.64999999998337,-0.577350269197867,-1.));
#448=CARTESIAN_POINT('Ctrl Pts',(-1.36132486538282,-8.04911692853238E-16,
-1.));
#449=CARTESIAN_POINT('Ctrl Pts',(-1.64999999998337,0.577350269197865,-1.));
#450=CARTESIAN_POINT('',(-0.61,-0.577350269189626,-1.));
#451=CARTESIAN_POINT('',(-0.61,-0.577350269189626,-1.));
#452=CARTESIAN_POINT('',(-0.61,-0.577350269189626,-1.));
#453=CARTESIAN_POINT('Origin',(-0.61,-0.577350269189626,1.));
#454=CARTESIAN_POINT('',(-1.65,-1.15470053837925,-2.168404E-16));
#455=CARTESIAN_POINT('',(-1.65,-0.577350269189626,1.));
#456=CARTESIAN_POINT('Ctrl Pts',(-1.64999999998337,-1.15470053838337,-7.13663100010203E-12));
#457=CARTESIAN_POINT('Ctrl Pts',(-1.36132486538282,-0.866025403784439,0.5));
#458=CARTESIAN_POINT('Ctrl Pts',(-1.64999999998337,-0.577350269185506,1.00000000000714));
#459=CARTESIAN_POINT('',(-0.61,-0.577350269189626,1.));
#460=CARTESIAN_POINT('',(-0.61,-0.577350269189626,1.));
#461=CARTESIAN_POINT('',(-0.61,-1.15470053837925,-2.168404E-16));
#462=CARTESIAN_POINT('',(-0.61,-0.577350269189626,1.));
#463=CARTESIAN_POINT('',(-0.61,-1.15470053837925,-2.168404E-16));
#464=CARTESIAN_POINT('Origin',(-0.61,0.577350269189626,1.));
#465=CARTESIAN_POINT('Ctrl Pts',(-1.64999999998337,-0.577350269197867,1.));
#466=CARTESIAN_POINT('Ctrl Pts',(-1.36132486538282,-8.04911692853238E-16,
1.));
#467=CARTESIAN_POINT('Ctrl Pts',(-1.64999999998337,0.577350269197865,1.));
#468=CARTESIAN_POINT('',(-0.61,0.577350269189626,1.));
#469=CARTESIAN_POINT('Origin',(-0.667735026918508,0.,-1.846929E-16));
#470=CARTESIAN_POINT('',(-0.0903847577334189,0.,-1.846929E-16));
#471=CARTESIAN_POINT('',(-0.61,0.,-0.900000000000001));
#472=CARTESIAN_POINT('',(-0.667735026918508,-1.22464679914735E-16,-1.));
#473=CARTESIAN_POINT('Origin',(-0.61,0.,-2.801446E-16));
#474=CARTESIAN_POINT('Origin',(-0.61,0.,0.));
#475=CARTESIAN_POINT('',(-0.61,-1.15470053837925,-2.171657E-16));
#476=CARTESIAN_POINT('Origin',(-1.65,0.,-1.210112E-16));
#477=CARTESIAN_POINT('Origin',(-1.65,0.,-1.210112E-16));
#478=CARTESIAN_POINT('Origin',(-1.65,0.,-1.210112E-16));
#479=CARTESIAN_POINT('Origin',(-1.65,0.,-1.210112E-16));
#480=CARTESIAN_POINT('Origin',(-1.65,0.,-1.210112E-16));
#481=CARTESIAN_POINT('Origin',(-1.65,0.,-1.210112E-16));
#482=CARTESIAN_POINT('Origin',(-1.65,0.,-1.210112E-16));
#483=CARTESIAN_POINT('Origin',(-1.65,0.,-1.210112E-16));
#484=CARTESIAN_POINT('Origin',(-1.65,0.,-1.210112E-16));
#485=CARTESIAN_POINT('Origin',(-1.65,0.,-1.210112E-16));
#486=CARTESIAN_POINT('Origin',(-1.65,0.,-1.210112E-16));
#487=CARTESIAN_POINT('Ctrl Pts',(-1.64999999998337,-0.577350269185504,-1.00000000000714));
#488=CARTESIAN_POINT('Ctrl Pts',(-1.36132486538282,-0.866025403784438,-0.5));
#489=CARTESIAN_POINT('Ctrl Pts',(-1.64999999998337,-1.15470053838337,7.13765470027949E-12));
#490=CARTESIAN_POINT('Origin',(-1.65,0.,-1.210112E-16));
#491=CARTESIAN_POINT('Origin',(-0.61,-1.15470053837925,-2.220446E-16));
#492=CARTESIAN_POINT('Origin',(-1.65,0.,1.5));
#493=CARTESIAN_POINT('',(-1.65,0.,1.5));
#494=CARTESIAN_POINT('Origin',(-1.65,0.,-1.210112E-16));
#495=CARTESIAN_POINT('Origin',(0.954545454545461,0.,-7.806256E-15));
#496=CARTESIAN_POINT('',(3.913526E-16,0.,2.85));
#497=CARTESIAN_POINT('Origin',(2.168404E-16,0.,-2.220446E-16));
#498=CARTESIAN_POINT('Origin',(2.684284E-16,0.,1.6));
#499=CARTESIAN_POINT('',(1.21430643318376E-16,-1.95943487863577E-16,-1.6));
#500=CARTESIAN_POINT('Origin',(1.219727E-16,0.,-2.220446E-16));
#501=CARTESIAN_POINT('Origin',(0.1,0.,-2.168404E-16));
#502=CARTESIAN_POINT('',(0.1,-1.83697019872103E-16,-1.5));
#503=CARTESIAN_POINT('Origin',(0.1,-1.95943487863577E-16,-1.6));
#504=CARTESIAN_POINT('Origin',(0.1,0.,-2.281678E-16));
#505=CARTESIAN_POINT('Origin',(-0.090384757729336,0.,-2.165101E-16));
#506=CARTESIAN_POINT('',(-0.090384757729336,1.83697019872103E-16,-1.5));
#507=UNCERTAINTY_MEASURE_WITH_UNIT(LENGTH_MEASURE(0.01),#511,
'DISTANCE_ACCURACY_VALUE',
'Maximum model space distance between geometric entities at asserted c
onnectivities');
#508=UNCERTAINTY_MEASURE_WITH_UNIT(LENGTH_MEASURE(0.01),#511,
'DISTANCE_ACCURACY_VALUE',
'Maximum model space distance between geometric entities at asserted c
onnectivities');
#509=(
GEOMETRIC_REPRESENTATION_CONTEXT(3)
GLOBAL_UNCERTAINTY_ASSIGNED_CONTEXT((#507))
GLOBAL_UNIT_ASSIGNED_CONTEXT((#511,#513,#514))
REPRESENTATION_CONTEXT('','3D')
);
#510=(
GEOMETRIC_REPRESENTATION_CONTEXT(3)
GLOBAL_UNCERTAINTY_ASSIGNED_CONTEXT((#508))
GLOBAL_UNIT_ASSIGNED_CONTEXT((#511,#513,#514))
REPRESENTATION_CONTEXT('','3D')
);
#511=(
LENGTH_UNIT()
NAMED_UNIT(*)
SI_UNIT(.MILLI.,.METRE.)
);
#512=(
LENGTH_UNIT()
NAMED_UNIT(*)
SI_UNIT($,.METRE.)
);
#513=(
NAMED_UNIT(*)
PLANE_ANGLE_UNIT()
SI_UNIT($,.RADIAN.)
);
#514=(
NAMED_UNIT(*)
SI_UNIT($,.STERADIAN.)
SOLID_ANGLE_UNIT()
);
#515=SHAPE_DEFINITION_REPRESENTATION(#516,#517);
#516=PRODUCT_DEFINITION_SHAPE('',$,#519);
#517=SHAPE_REPRESENTATION('',(#295),#509);
#518=PRODUCT_DEFINITION_CONTEXT('part definition',#523,'design');
#519=PRODUCT_DEFINITION('101619-3-4','BOLT_BHSCS_M3_4mm v1',#520,#518);
#520=PRODUCT_DEFINITION_FORMATION('',$,#525);
#521=PRODUCT_RELATED_PRODUCT_CATEGORY('BOLT_BHSCS_M3_4mm v1',
'BOLT_BHSCS_M3_4mm v1',(#525));
#522=APPLICATION_PROTOCOL_DEFINITION('international standard',
'automotive_design',2009,#523);
#523=APPLICATION_CONTEXT(
'Core Data for Automotive Mechanical Design Process');
#524=PRODUCT_CONTEXT('part definition',#523,'mechanical');
#525=PRODUCT('101619-3-4','BOLT_BHSCS_M3_4mm v1',$,(#524));
#526=PRESENTATION_STYLE_ASSIGNMENT((#528));
#527=PRESENTATION_STYLE_ASSIGNMENT((#529));
#528=SURFACE_STYLE_USAGE(.BOTH.,#530);
#529=SURFACE_STYLE_USAGE(.BOTH.,#531);
#530=SURFACE_SIDE_STYLE('',(#532));
#531=SURFACE_SIDE_STYLE('',(#533));
#532=SURFACE_STYLE_FILL_AREA(#534);
#533=SURFACE_STYLE_FILL_AREA(#535);
#534=FILL_AREA_STYLE('Acier - Satin\X\E9',(#536));
#535=FILL_AREA_STYLE('Opaque(240,240,240)',(#537));
#536=FILL_AREA_STYLE_COLOUR('Acier - Satin\X\E9',#538);
#537=FILL_AREA_STYLE_COLOUR('Opaque(240,240,240)',#539);
#538=COLOUR_RGB('Acier - Satin\X\E9',0.627450980392157,0.627450980392157,
0.627450980392157);
#539=COLOUR_RGB('Opaque(240,240,240)',0.941176470588235,0.941176470588235,
0.941176470588235);
ENDSEC;
END-ISO-10303-21;
