ISO-10303-21;
HEADER;
/* Generated by software containing ST-Developer
 * from STEP Tools, Inc. (www.steptools.com) 
 */

FILE_DESCRIPTION(
/* description */ ('STEP AP242'),
/* implementation_level */ '2;1');

FILE_NAME(
/* name */ 'BOLT_SHCS_M1.6_8mm.step',
/* time_stamp */ '2026-08-10T14:32:47+02:00',
/* author */ (''),
/* organization */ (''),
/* preprocessor_version */ 'ST-DEVELOPER v20.1',
/* originating_system */ 'Autodesk Translation Framework v15.8.0.0',
/* authorisation */ '');

FILE_SCHEMA (('AUTOMOTIVE_DESIGN { 1 0 10303 214 3 1 1 }'));
ENDSEC;

DATA;
#10=MECHANICAL_DESIGN_GEOMETRIC_PRESENTATION_REPRESENTATION('',(#13),#756);
#11=SHAPE_REPRESENTATION_RELATIONSHIP('SRR','None',#763,#12);
#12=ADVANCED_BREP_SHAPE_REPRESENTATION('',(#14),#755);
#13=STYLED_ITEM('',(#773),#14);
#14=MANIFOLD_SOLID_BREP('Corps1',#418);
#15=FACE_BOUND('',#128,.T.);
#16=FACE_BOUND('',#130,.T.);
#17=PLANE('',#464);
#18=PLANE('',#469);
#19=PLANE('',#470);
#20=PLANE('',#475);
#21=PLANE('',#476);
#22=PLANE('',#477);
#23=PLANE('',#478);
#24=PLANE('',#479);
#25=PLANE('',#480);
#26=PLANE('',#481);
#27=PLANE('',#482);
#28=PLANE('',#483);
#29=PLANE('',#484);
#30=PLANE('',#485);
#31=PLANE('',#486);
#32=TOROIDAL_SURFACE('',#448,1.35,0.1);
#33=TOROIDAL_SURFACE('',#453,1.55,0.100000000000001);
#34=CYLINDRICAL_SURFACE('',#446,1.25);
#35=CYLINDRICAL_SURFACE('',#459,2.25);
#36=LINE('',#635,#61);
#37=LINE('',#658,#62);
#38=LINE('',#662,#63);
#39=LINE('',#671,#64);
#40=LINE('',#680,#65);
#41=LINE('',#684,#66);
#42=LINE('',#690,#67);
#43=LINE('',#719,#68);
#44=LINE('',#720,#69);
#45=LINE('',#723,#70);
#46=LINE('',#724,#71);
#47=LINE('',#727,#72);
#48=LINE('',#728,#73);
#49=LINE('',#731,#74);
#50=LINE('',#732,#75);
#51=LINE('',#735,#76);
#52=LINE('',#736,#77);
#53=LINE('',#739,#78);
#54=LINE('',#740,#79);
#55=LINE('',#742,#80);
#56=LINE('',#743,#81);
#57=LINE('',#745,#82);
#58=LINE('',#747,#83);
#59=LINE('',#749,#84);
#60=LINE('',#751,#85);
#61=VECTOR('',#495,1732.05080756889);
#62=VECTOR('',#516,1.025);
#63=VECTOR('',#521,1.25);
#64=VECTOR('',#534,1.26012315543561);
#65=VECTOR('',#545,2.09);
#66=VECTOR('',#550,2.25);
#67=VECTOR('',#557,2.25);
#68=VECTOR('',#584,1000.);
#69=VECTOR('',#585,1000.);
#70=VECTOR('',#588,1000.);
#71=VECTOR('',#589,1000.);
#72=VECTOR('',#592,1000.);
#73=VECTOR('',#593,1000.);
#74=VECTOR('',#596,1000.);
#75=VECTOR('',#597,1000.);
#76=VECTOR('',#600,1000.);
#77=VECTOR('',#601,1000.);
#78=VECTOR('',#604,1000.);
#79=VECTOR('',#605,1000.);
#80=VECTOR('',#608,1000.);
#81=VECTOR('',#609,1000.);
#82=VECTOR('',#612,1000.);
#83=VECTOR('',#615,1000.);
#84=VECTOR('',#618,1000.);
#85=VECTOR('',#621,1000.);
#86=FACE_OUTER_BOUND('',#116,.T.);
#87=FACE_OUTER_BOUND('',#117,.T.);
#88=FACE_OUTER_BOUND('',#118,.T.);
#89=FACE_OUTER_BOUND('',#119,.T.);
#90=FACE_OUTER_BOUND('',#120,.T.);
#91=FACE_OUTER_BOUND('',#121,.T.);
#92=FACE_OUTER_BOUND('',#122,.T.);
#93=FACE_OUTER_BOUND('',#123,.T.);
#94=FACE_OUTER_BOUND('',#124,.T.);
#95=FACE_OUTER_BOUND('',#125,.T.);
#96=FACE_OUTER_BOUND('',#126,.T.);
#97=FACE_OUTER_BOUND('',#127,.T.);
#98=FACE_OUTER_BOUND('',#129,.T.);
#99=FACE_OUTER_BOUND('',#131,.T.);
#100=FACE_OUTER_BOUND('',#132,.T.);
#101=FACE_OUTER_BOUND('',#133,.T.);
#102=FACE_OUTER_BOUND('',#134,.T.);
#103=FACE_OUTER_BOUND('',#135,.T.);
#104=FACE_OUTER_BOUND('',#136,.T.);
#105=FACE_OUTER_BOUND('',#137,.T.);
#106=FACE_OUTER_BOUND('',#138,.T.);
#107=FACE_OUTER_BOUND('',#139,.T.);
#108=FACE_OUTER_BOUND('',#140,.T.);
#109=FACE_OUTER_BOUND('',#141,.T.);
#110=FACE_OUTER_BOUND('',#142,.T.);
#111=FACE_OUTER_BOUND('',#143,.T.);
#112=FACE_OUTER_BOUND('',#144,.T.);
#113=FACE_OUTER_BOUND('',#145,.T.);
#114=FACE_OUTER_BOUND('',#146,.T.);
#115=FACE_OUTER_BOUND('',#147,.T.);
#116=EDGE_LOOP('',(#265,#266));
#117=EDGE_LOOP('',(#267,#268,#269,#270,#271,#272,#273,#274));
#118=EDGE_LOOP('',(#275,#276));
#119=EDGE_LOOP('',(#277,#278,#279,#280));
#120=EDGE_LOOP('',(#281,#282,#283,#284));
#121=EDGE_LOOP('',(#285,#286,#287,#288));
#122=EDGE_LOOP('',(#289,#290,#291,#292));
#123=EDGE_LOOP('',(#293,#294,#295,#296));
#124=EDGE_LOOP('',(#297,#298,#299,#300));
#125=EDGE_LOOP('',(#301,#302,#303,#304,#305));
#126=EDGE_LOOP('',(#306,#307,#308,#309,#310));
#127=EDGE_LOOP('',(#311));
#128=EDGE_LOOP('',(#312,#313,#314,#315,#316,#317));
#129=EDGE_LOOP('',(#318));
#130=EDGE_LOOP('',(#319));
#131=EDGE_LOOP('',(#320));
#132=EDGE_LOOP('',(#321,#322));
#133=EDGE_LOOP('',(#323,#324));
#134=EDGE_LOOP('',(#325,#326));
#135=EDGE_LOOP('',(#327,#328));
#136=EDGE_LOOP('',(#329,#330,#331));
#137=EDGE_LOOP('',(#332,#333,#334));
#138=EDGE_LOOP('',(#335,#336,#337));
#139=EDGE_LOOP('',(#338,#339,#340));
#140=EDGE_LOOP('',(#341,#342,#343));
#141=EDGE_LOOP('',(#344,#345,#346));
#142=EDGE_LOOP('',(#347,#348,#349,#350,#351));
#143=EDGE_LOOP('',(#352,#353,#354,#355,#356));
#144=EDGE_LOOP('',(#357,#358,#359,#360,#361));
#145=EDGE_LOOP('',(#362,#363,#364,#365,#366));
#146=EDGE_LOOP('',(#367,#368,#369,#370,#371));
#147=EDGE_LOOP('',(#372,#373,#374,#375,#376));
#148=CIRCLE('',#433,1.15470053837925);
#149=CIRCLE('',#435,1.);
#150=CIRCLE('',#436,1.);
#151=CIRCLE('',#437,1.);
#152=CIRCLE('',#438,1.);
#153=CIRCLE('',#439,1.);
#154=CIRCLE('',#440,1.);
#155=CIRCLE('',#442,1.15470053837925);
#156=CIRCLE('',#444,1.25);
#157=CIRCLE('',#445,1.025);
#158=CIRCLE('',#447,1.25);
#159=CIRCLE('',#449,1.26012315543561);
#160=CIRCLE('',#450,0.1);
#161=CIRCLE('',#452,1.46012315543561);
#162=CIRCLE('',#454,1.55);
#163=CIRCLE('',#455,0.100000000000001);
#164=CIRCLE('',#457,2.25);
#165=CIRCLE('',#458,2.09);
#166=CIRCLE('',#460,2.25);
#167=CIRCLE('',#461,2.25);
#168=CIRCLE('',#463,1.99999999999999);
#169=CIRCLE('',#465,1.15470053837925);
#170=CIRCLE('',#466,1.15470053837925);
#171=CIRCLE('',#467,1.15470053837925);
#172=CIRCLE('',#468,1.15470053837925);
#173=(
BOUNDED_CURVE()
B_SPLINE_CURVE(2,(#628,#629,#630),.UNSPECIFIED.,.F.,.F.)
B_SPLINE_CURVE_WITH_KNOTS((3,3),(-0.650970584278406,-0.328109815780672),
 .UNSPECIFIED.)
CURVE()
GEOMETRIC_REPRESENTATION_ITEM()
RATIONAL_B_SPLINE_CURVE((2.73205080756884,3.15470053837941,2.73205080756884))
REPRESENTATION_ITEM('')
);
#174=(
BOUNDED_CURVE()
B_SPLINE_CURVE(2,(#650,#651,#652),.UNSPECIFIED.,.F.,.F.)
B_SPLINE_CURVE_WITH_KNOTS((3,3),(0.328109815780672,0.65097058427841),
 .UNSPECIFIED.)
CURVE()
GEOMETRIC_REPRESENTATION_ITEM()
RATIONAL_B_SPLINE_CURVE((2.73205080756884,3.15470053837942,2.73205080756884))
REPRESENTATION_ITEM('')
);
#175=(
BOUNDED_CURVE()
B_SPLINE_CURVE(2,(#702,#703,#704),.UNSPECIFIED.,.F.,.F.)
B_SPLINE_CURVE_WITH_KNOTS((3,3),(0.328109815780664,0.650970584278396),
 .UNSPECIFIED.)
CURVE()
GEOMETRIC_REPRESENTATION_ITEM()
RATIONAL_B_SPLINE_CURVE((2.7320508075688,3.15470053837937,2.7320508075688))
REPRESENTATION_ITEM('')
);
#176=(
BOUNDED_CURVE()
B_SPLINE_CURVE(2,(#706,#707,#708),.UNSPECIFIED.,.F.,.F.)
B_SPLINE_CURVE_WITH_KNOTS((3,3),(0.328109815780667,0.650970584278397),
 .UNSPECIFIED.)
CURVE()
GEOMETRIC_REPRESENTATION_ITEM()
RATIONAL_B_SPLINE_CURVE((2.7320508075688,3.15470053837936,2.7320508075688))
REPRESENTATION_ITEM('')
);
#177=(
BOUNDED_CURVE()
B_SPLINE_CURVE(2,(#710,#711,#712),.UNSPECIFIED.,.F.,.F.)
B_SPLINE_CURVE_WITH_KNOTS((3,3),(0.328109815780666,0.650970584278399),
 .UNSPECIFIED.)
CURVE()
GEOMETRIC_REPRESENTATION_ITEM()
RATIONAL_B_SPLINE_CURVE((2.73205080756882,3.15470053837938,2.7320508075688))
REPRESENTATION_ITEM('')
);
#178=(
BOUNDED_CURVE()
B_SPLINE_CURVE(2,(#714,#715,#716),.UNSPECIFIED.,.F.,.F.)
B_SPLINE_CURVE_WITH_KNOTS((3,3),(0.328109815780664,0.650970584278397),
 .UNSPECIFIED.)
CURVE()
GEOMETRIC_REPRESENTATION_ITEM()
RATIONAL_B_SPLINE_CURVE((2.73205080756881,3.15470053837939,2.73205080756881))
REPRESENTATION_ITEM('')
);
#179=VERTEX_POINT('',#626);
#180=VERTEX_POINT('',#627);
#181=VERTEX_POINT('',#633);
#182=VERTEX_POINT('',#634);
#183=VERTEX_POINT('',#636);
#184=VERTEX_POINT('',#638);
#185=VERTEX_POINT('',#640);
#186=VERTEX_POINT('',#642);
#187=VERTEX_POINT('',#644);
#188=VERTEX_POINT('',#648);
#189=VERTEX_POINT('',#649);
#190=VERTEX_POINT('',#655);
#191=VERTEX_POINT('',#657);
#192=VERTEX_POINT('',#661);
#193=VERTEX_POINT('',#665);
#194=VERTEX_POINT('',#669);
#195=VERTEX_POINT('',#673);
#196=VERTEX_POINT('',#677);
#197=VERTEX_POINT('',#679);
#198=VERTEX_POINT('',#683);
#199=VERTEX_POINT('',#685);
#200=VERTEX_POINT('',#689);
#201=VERTEX_POINT('',#693);
#202=VERTEX_POINT('',#695);
#203=VERTEX_POINT('',#718);
#204=VERTEX_POINT('',#722);
#205=VERTEX_POINT('',#726);
#206=VERTEX_POINT('',#730);
#207=VERTEX_POINT('',#734);
#208=VERTEX_POINT('',#738);
#209=EDGE_CURVE('',#179,#180,#173,.F.);
#210=EDGE_CURVE('',#180,#179,#148,.T.);
#211=EDGE_CURVE('',#181,#182,#36,.T.);
#212=EDGE_CURVE('',#182,#183,#149,.T.);
#213=EDGE_CURVE('',#183,#184,#150,.T.);
#214=EDGE_CURVE('',#184,#185,#151,.T.);
#215=EDGE_CURVE('',#185,#186,#152,.T.);
#216=EDGE_CURVE('',#186,#187,#153,.T.);
#217=EDGE_CURVE('',#187,#182,#154,.T.);
#218=EDGE_CURVE('',#188,#189,#174,.T.);
#219=EDGE_CURVE('',#189,#188,#155,.T.);
#220=EDGE_CURVE('',#190,#190,#156,.T.);
#221=EDGE_CURVE('',#190,#191,#37,.T.);
#222=EDGE_CURVE('',#191,#191,#157,.T.);
#223=EDGE_CURVE('',#190,#192,#38,.T.);
#224=EDGE_CURVE('',#192,#192,#158,.T.);
#225=EDGE_CURVE('',#193,#193,#159,.T.);
#226=EDGE_CURVE('',#193,#192,#160,.T.);
#227=EDGE_CURVE('',#194,#194,#161,.T.);
#228=EDGE_CURVE('',#194,#193,#39,.T.);
#229=EDGE_CURVE('',#195,#195,#162,.T.);
#230=EDGE_CURVE('',#195,#194,#163,.T.);
#231=EDGE_CURVE('',#196,#196,#164,.T.);
#232=EDGE_CURVE('',#196,#197,#40,.T.);
#233=EDGE_CURVE('',#197,#197,#165,.T.);
#234=EDGE_CURVE('',#196,#198,#41,.T.);
#235=EDGE_CURVE('',#199,#198,#166,.T.);
#236=EDGE_CURVE('',#198,#199,#167,.T.);
#237=EDGE_CURVE('',#199,#200,#42,.T.);
#238=EDGE_CURVE('',#200,#200,#168,.T.);
#239=EDGE_CURVE('',#179,#201,#169,.T.);
#240=EDGE_CURVE('',#202,#180,#170,.T.);
#241=EDGE_CURVE('',#188,#202,#171,.T.);
#242=EDGE_CURVE('',#201,#189,#172,.T.);
#243=EDGE_CURVE('',#180,#202,#175,.T.);
#244=EDGE_CURVE('',#201,#179,#176,.T.);
#245=EDGE_CURVE('',#189,#201,#177,.T.);
#246=EDGE_CURVE('',#202,#188,#178,.T.);
#247=EDGE_CURVE('',#185,#203,#43,.T.);
#248=EDGE_CURVE('',#203,#186,#44,.T.);
#249=EDGE_CURVE('',#184,#204,#45,.T.);
#250=EDGE_CURVE('',#204,#185,#46,.T.);
#251=EDGE_CURVE('',#183,#205,#47,.T.);
#252=EDGE_CURVE('',#205,#184,#48,.T.);
#253=EDGE_CURVE('',#182,#206,#49,.T.);
#254=EDGE_CURVE('',#206,#183,#50,.T.);
#255=EDGE_CURVE('',#186,#207,#51,.T.);
#256=EDGE_CURVE('',#207,#187,#52,.T.);
#257=EDGE_CURVE('',#187,#208,#53,.T.);
#258=EDGE_CURVE('',#208,#182,#54,.T.);
#259=EDGE_CURVE('',#208,#180,#55,.T.);
#260=EDGE_CURVE('',#207,#202,#56,.T.);
#261=EDGE_CURVE('',#206,#179,#57,.T.);
#262=EDGE_CURVE('',#205,#201,#58,.T.);
#263=EDGE_CURVE('',#204,#189,#59,.T.);
#264=EDGE_CURVE('',#203,#188,#60,.T.);
#265=ORIENTED_EDGE('',*,*,#209,.T.);
#266=ORIENTED_EDGE('',*,*,#210,.T.);
#267=ORIENTED_EDGE('',*,*,#211,.T.);
#268=ORIENTED_EDGE('',*,*,#212,.T.);
#269=ORIENTED_EDGE('',*,*,#213,.T.);
#270=ORIENTED_EDGE('',*,*,#214,.T.);
#271=ORIENTED_EDGE('',*,*,#215,.T.);
#272=ORIENTED_EDGE('',*,*,#216,.T.);
#273=ORIENTED_EDGE('',*,*,#217,.T.);
#274=ORIENTED_EDGE('',*,*,#211,.F.);
#275=ORIENTED_EDGE('',*,*,#218,.T.);
#276=ORIENTED_EDGE('',*,*,#219,.T.);
#277=ORIENTED_EDGE('',*,*,#220,.F.);
#278=ORIENTED_EDGE('',*,*,#221,.T.);
#279=ORIENTED_EDGE('',*,*,#222,.T.);
#280=ORIENTED_EDGE('',*,*,#221,.F.);
#281=ORIENTED_EDGE('',*,*,#220,.T.);
#282=ORIENTED_EDGE('',*,*,#223,.T.);
#283=ORIENTED_EDGE('',*,*,#224,.F.);
#284=ORIENTED_EDGE('',*,*,#223,.F.);
#285=ORIENTED_EDGE('',*,*,#225,.F.);
#286=ORIENTED_EDGE('',*,*,#226,.T.);
#287=ORIENTED_EDGE('',*,*,#224,.T.);
#288=ORIENTED_EDGE('',*,*,#226,.F.);
#289=ORIENTED_EDGE('',*,*,#227,.F.);
#290=ORIENTED_EDGE('',*,*,#228,.T.);
#291=ORIENTED_EDGE('',*,*,#225,.T.);
#292=ORIENTED_EDGE('',*,*,#228,.F.);
#293=ORIENTED_EDGE('',*,*,#229,.F.);
#294=ORIENTED_EDGE('',*,*,#230,.T.);
#295=ORIENTED_EDGE('',*,*,#227,.T.);
#296=ORIENTED_EDGE('',*,*,#230,.F.);
#297=ORIENTED_EDGE('',*,*,#231,.F.);
#298=ORIENTED_EDGE('',*,*,#232,.T.);
#299=ORIENTED_EDGE('',*,*,#233,.T.);
#300=ORIENTED_EDGE('',*,*,#232,.F.);
#301=ORIENTED_EDGE('',*,*,#231,.T.);
#302=ORIENTED_EDGE('',*,*,#234,.T.);
#303=ORIENTED_EDGE('',*,*,#235,.F.);
#304=ORIENTED_EDGE('',*,*,#236,.F.);
#305=ORIENTED_EDGE('',*,*,#234,.F.);
#306=ORIENTED_EDGE('',*,*,#235,.T.);
#307=ORIENTED_EDGE('',*,*,#236,.T.);
#308=ORIENTED_EDGE('',*,*,#237,.T.);
#309=ORIENTED_EDGE('',*,*,#238,.F.);
#310=ORIENTED_EDGE('',*,*,#237,.F.);
#311=ORIENTED_EDGE('',*,*,#238,.T.);
#312=ORIENTED_EDGE('',*,*,#239,.F.);
#313=ORIENTED_EDGE('',*,*,#210,.F.);
#314=ORIENTED_EDGE('',*,*,#240,.F.);
#315=ORIENTED_EDGE('',*,*,#241,.F.);
#316=ORIENTED_EDGE('',*,*,#219,.F.);
#317=ORIENTED_EDGE('',*,*,#242,.F.);
#318=ORIENTED_EDGE('',*,*,#233,.F.);
#319=ORIENTED_EDGE('',*,*,#229,.T.);
#320=ORIENTED_EDGE('',*,*,#222,.F.);
#321=ORIENTED_EDGE('',*,*,#240,.T.);
#322=ORIENTED_EDGE('',*,*,#243,.T.);
#323=ORIENTED_EDGE('',*,*,#244,.T.);
#324=ORIENTED_EDGE('',*,*,#239,.T.);
#325=ORIENTED_EDGE('',*,*,#245,.T.);
#326=ORIENTED_EDGE('',*,*,#242,.T.);
#327=ORIENTED_EDGE('',*,*,#246,.T.);
#328=ORIENTED_EDGE('',*,*,#241,.T.);
#329=ORIENTED_EDGE('',*,*,#215,.F.);
#330=ORIENTED_EDGE('',*,*,#247,.T.);
#331=ORIENTED_EDGE('',*,*,#248,.T.);
#332=ORIENTED_EDGE('',*,*,#214,.F.);
#333=ORIENTED_EDGE('',*,*,#249,.T.);
#334=ORIENTED_EDGE('',*,*,#250,.T.);
#335=ORIENTED_EDGE('',*,*,#213,.F.);
#336=ORIENTED_EDGE('',*,*,#251,.T.);
#337=ORIENTED_EDGE('',*,*,#252,.T.);
#338=ORIENTED_EDGE('',*,*,#212,.F.);
#339=ORIENTED_EDGE('',*,*,#253,.T.);
#340=ORIENTED_EDGE('',*,*,#254,.T.);
#341=ORIENTED_EDGE('',*,*,#216,.F.);
#342=ORIENTED_EDGE('',*,*,#255,.T.);
#343=ORIENTED_EDGE('',*,*,#256,.T.);
#344=ORIENTED_EDGE('',*,*,#217,.F.);
#345=ORIENTED_EDGE('',*,*,#257,.T.);
#346=ORIENTED_EDGE('',*,*,#258,.T.);
#347=ORIENTED_EDGE('',*,*,#243,.F.);
#348=ORIENTED_EDGE('',*,*,#259,.F.);
#349=ORIENTED_EDGE('',*,*,#257,.F.);
#350=ORIENTED_EDGE('',*,*,#256,.F.);
#351=ORIENTED_EDGE('',*,*,#260,.T.);
#352=ORIENTED_EDGE('',*,*,#209,.F.);
#353=ORIENTED_EDGE('',*,*,#261,.F.);
#354=ORIENTED_EDGE('',*,*,#253,.F.);
#355=ORIENTED_EDGE('',*,*,#258,.F.);
#356=ORIENTED_EDGE('',*,*,#259,.T.);
#357=ORIENTED_EDGE('',*,*,#244,.F.);
#358=ORIENTED_EDGE('',*,*,#262,.F.);
#359=ORIENTED_EDGE('',*,*,#251,.F.);
#360=ORIENTED_EDGE('',*,*,#254,.F.);
#361=ORIENTED_EDGE('',*,*,#261,.T.);
#362=ORIENTED_EDGE('',*,*,#245,.F.);
#363=ORIENTED_EDGE('',*,*,#263,.F.);
#364=ORIENTED_EDGE('',*,*,#249,.F.);
#365=ORIENTED_EDGE('',*,*,#252,.F.);
#366=ORIENTED_EDGE('',*,*,#262,.T.);
#367=ORIENTED_EDGE('',*,*,#218,.F.);
#368=ORIENTED_EDGE('',*,*,#264,.F.);
#369=ORIENTED_EDGE('',*,*,#247,.F.);
#370=ORIENTED_EDGE('',*,*,#250,.F.);
#371=ORIENTED_EDGE('',*,*,#263,.T.);
#372=ORIENTED_EDGE('',*,*,#246,.F.);
#373=ORIENTED_EDGE('',*,*,#260,.F.);
#374=ORIENTED_EDGE('',*,*,#255,.F.);
#375=ORIENTED_EDGE('',*,*,#248,.F.);
#376=ORIENTED_EDGE('',*,*,#264,.T.);
#377=CONICAL_SURFACE('',#432,1.,1.30899693899575);
#378=CONICAL_SURFACE('',#434,1732.05080756889,1.0471975511966);
#379=CONICAL_SURFACE('',#441,1.,1.30899693899575);
#380=CONICAL_SURFACE('',#443,1.025,0.785398163397434);
#381=CONICAL_SURFACE('',#451,1.26012315543561,0.453844001521511);
#382=CONICAL_SURFACE('',#456,2.09,0.78539816339744);
#383=CONICAL_SURFACE('',#462,2.25,0.785398163397459);
#384=CONICAL_SURFACE('',#471,1.,1.30899693899575);
#385=CONICAL_SURFACE('',#472,1.,1.30899693899575);
#386=CONICAL_SURFACE('',#473,1.,1.30899693899575);
#387=CONICAL_SURFACE('',#474,1.,1.30899693899575);
#388=ADVANCED_FACE('',(#86),#377,.F.);
#389=ADVANCED_FACE('',(#87),#378,.F.);
#390=ADVANCED_FACE('',(#88),#379,.F.);
#391=ADVANCED_FACE('',(#89),#380,.T.);
#392=ADVANCED_FACE('',(#90),#34,.T.);
#393=ADVANCED_FACE('',(#91),#32,.F.);
#394=ADVANCED_FACE('',(#92),#381,.T.);
#395=ADVANCED_FACE('',(#93),#33,.F.);
#396=ADVANCED_FACE('',(#94),#382,.T.);
#397=ADVANCED_FACE('',(#95),#35,.T.);
#398=ADVANCED_FACE('',(#96),#383,.T.);
#399=ADVANCED_FACE('',(#97,#15),#17,.F.);
#400=ADVANCED_FACE('',(#98,#16),#18,.F.);
#401=ADVANCED_FACE('',(#99),#19,.F.);
#402=ADVANCED_FACE('',(#100),#384,.F.);
#403=ADVANCED_FACE('',(#101),#385,.F.);
#404=ADVANCED_FACE('',(#102),#386,.F.);
#405=ADVANCED_FACE('',(#103),#387,.F.);
#406=ADVANCED_FACE('',(#104),#20,.T.);
#407=ADVANCED_FACE('',(#105),#21,.T.);
#408=ADVANCED_FACE('',(#106),#22,.T.);
#409=ADVANCED_FACE('',(#107),#23,.T.);
#410=ADVANCED_FACE('',(#108),#24,.T.);
#411=ADVANCED_FACE('',(#109),#25,.T.);
#412=ADVANCED_FACE('',(#110),#26,.F.);
#413=ADVANCED_FACE('',(#111),#27,.F.);
#414=ADVANCED_FACE('',(#112),#28,.F.);
#415=ADVANCED_FACE('',(#113),#29,.F.);
#416=ADVANCED_FACE('',(#114),#30,.F.);
#417=ADVANCED_FACE('',(#115),#31,.F.);
#418=CLOSED_SHELL('',(#388,#389,#390,#391,#392,#393,#394,#395,#396,#397,
#398,#399,#400,#401,#402,#403,#404,#405,#406,#407,#408,#409,#410,#411,#412,
#413,#414,#415,#416,#417));
#419=DERIVED_UNIT_ELEMENT(#421,1.);
#420=DERIVED_UNIT_ELEMENT(#758,-3.);
#421=(
MASS_UNIT()
NAMED_UNIT(*)
SI_UNIT(.KILO.,.GRAM.)
);
#422=DERIVED_UNIT((#419,#420));
#423=MEASURE_REPRESENTATION_ITEM('density measure',
POSITIVE_RATIO_MEASURE(7850.),#422);
#424=PROPERTY_DEFINITION_REPRESENTATION(#429,#426);
#425=PROPERTY_DEFINITION_REPRESENTATION(#430,#427);
#426=REPRESENTATION('material name',(#428),#755);
#427=REPRESENTATION('density',(#423),#755);
#428=DESCRIPTIVE_REPRESENTATION_ITEM('Acier','Acier');
#429=PROPERTY_DEFINITION('material property','material name',#765);
#430=PROPERTY_DEFINITION('material property','density of part',#765);
#431=AXIS2_PLACEMENT_3D('',#624,#487,#488);
#432=AXIS2_PLACEMENT_3D('',#625,#489,#490);
#433=AXIS2_PLACEMENT_3D('',#631,#491,#492);
#434=AXIS2_PLACEMENT_3D('',#632,#493,#494);
#435=AXIS2_PLACEMENT_3D('',#637,#496,#497);
#436=AXIS2_PLACEMENT_3D('',#639,#498,#499);
#437=AXIS2_PLACEMENT_3D('',#641,#500,#501);
#438=AXIS2_PLACEMENT_3D('',#643,#502,#503);
#439=AXIS2_PLACEMENT_3D('',#645,#504,#505);
#440=AXIS2_PLACEMENT_3D('',#646,#506,#507);
#441=AXIS2_PLACEMENT_3D('',#647,#508,#509);
#442=AXIS2_PLACEMENT_3D('',#653,#510,#511);
#443=AXIS2_PLACEMENT_3D('',#654,#512,#513);
#444=AXIS2_PLACEMENT_3D('',#656,#514,#515);
#445=AXIS2_PLACEMENT_3D('',#659,#517,#518);
#446=AXIS2_PLACEMENT_3D('',#660,#519,#520);
#447=AXIS2_PLACEMENT_3D('',#663,#522,#523);
#448=AXIS2_PLACEMENT_3D('',#664,#524,#525);
#449=AXIS2_PLACEMENT_3D('',#666,#526,#527);
#450=AXIS2_PLACEMENT_3D('',#667,#528,#529);
#451=AXIS2_PLACEMENT_3D('',#668,#530,#531);
#452=AXIS2_PLACEMENT_3D('',#670,#532,#533);
#453=AXIS2_PLACEMENT_3D('',#672,#535,#536);
#454=AXIS2_PLACEMENT_3D('',#674,#537,#538);
#455=AXIS2_PLACEMENT_3D('',#675,#539,#540);
#456=AXIS2_PLACEMENT_3D('',#676,#541,#542);
#457=AXIS2_PLACEMENT_3D('',#678,#543,#544);
#458=AXIS2_PLACEMENT_3D('',#681,#546,#547);
#459=AXIS2_PLACEMENT_3D('',#682,#548,#549);
#460=AXIS2_PLACEMENT_3D('',#686,#551,#552);
#461=AXIS2_PLACEMENT_3D('',#687,#553,#554);
#462=AXIS2_PLACEMENT_3D('',#688,#555,#556);
#463=AXIS2_PLACEMENT_3D('',#691,#558,#559);
#464=AXIS2_PLACEMENT_3D('',#692,#560,#561);
#465=AXIS2_PLACEMENT_3D('',#694,#562,#563);
#466=AXIS2_PLACEMENT_3D('',#696,#564,#565);
#467=AXIS2_PLACEMENT_3D('',#697,#566,#567);
#468=AXIS2_PLACEMENT_3D('',#698,#568,#569);
#469=AXIS2_PLACEMENT_3D('',#699,#570,#571);
#470=AXIS2_PLACEMENT_3D('',#700,#572,#573);
#471=AXIS2_PLACEMENT_3D('',#701,#574,#575);
#472=AXIS2_PLACEMENT_3D('',#705,#576,#577);
#473=AXIS2_PLACEMENT_3D('',#709,#578,#579);
#474=AXIS2_PLACEMENT_3D('',#713,#580,#581);
#475=AXIS2_PLACEMENT_3D('',#717,#582,#583);
#476=AXIS2_PLACEMENT_3D('',#721,#586,#587);
#477=AXIS2_PLACEMENT_3D('',#725,#590,#591);
#478=AXIS2_PLACEMENT_3D('',#729,#594,#595);
#479=AXIS2_PLACEMENT_3D('',#733,#598,#599);
#480=AXIS2_PLACEMENT_3D('',#737,#602,#603);
#481=AXIS2_PLACEMENT_3D('',#741,#606,#607);
#482=AXIS2_PLACEMENT_3D('',#744,#610,#611);
#483=AXIS2_PLACEMENT_3D('',#746,#613,#614);
#484=AXIS2_PLACEMENT_3D('',#748,#616,#617);
#485=AXIS2_PLACEMENT_3D('',#750,#619,#620);
#486=AXIS2_PLACEMENT_3D('',#752,#622,#623);
#487=DIRECTION('axis',(0.,0.,1.));
#488=DIRECTION('refdir',(1.,0.,0.));
#489=DIRECTION('center_axis',(0.,0.,1.));
#490=DIRECTION('ref_axis',(-1.,7.6571373978539E-16,0.));
#491=DIRECTION('center_axis',(0.,0.,1.));
#492=DIRECTION('ref_axis',(1.,0.,0.));
#493=DIRECTION('center_axis',(0.,0.,1.));
#494=DIRECTION('ref_axis',(1.,0.,0.));
#495=DIRECTION('',(-0.86602540378444,-1.06057523872491E-16,0.499999999999998));
#496=DIRECTION('center_axis',(0.,0.,1.));
#497=DIRECTION('ref_axis',(1.,0.,0.));
#498=DIRECTION('center_axis',(0.,0.,1.));
#499=DIRECTION('ref_axis',(1.,0.,0.));
#500=DIRECTION('center_axis',(0.,0.,1.));
#501=DIRECTION('ref_axis',(1.,0.,0.));
#502=DIRECTION('center_axis',(0.,0.,1.));
#503=DIRECTION('ref_axis',(1.,0.,0.));
#504=DIRECTION('center_axis',(0.,0.,1.));
#505=DIRECTION('ref_axis',(1.,0.,0.));
#506=DIRECTION('center_axis',(0.,0.,1.));
#507=DIRECTION('ref_axis',(1.,0.,0.));
#508=DIRECTION('center_axis',(0.,0.,1.));
#509=DIRECTION('ref_axis',(1.,0.,0.));
#510=DIRECTION('center_axis',(0.,0.,1.));
#511=DIRECTION('ref_axis',(1.,0.,0.));
#512=DIRECTION('center_axis',(0.,0.,1.));
#513=DIRECTION('ref_axis',(1.,0.,0.));
#514=DIRECTION('center_axis',(0.,0.,1.));
#515=DIRECTION('ref_axis',(1.,0.,0.));
#516=DIRECTION('',(0.707106781186537,8.65956056235481E-17,-0.707106781186558));
#517=DIRECTION('center_axis',(0.,0.,1.));
#518=DIRECTION('ref_axis',(1.,0.,0.));
#519=DIRECTION('center_axis',(0.,0.,-1.));
#520=DIRECTION('ref_axis',(1.,0.,0.));
#521=DIRECTION('',(0.,0.,1.));
#522=DIRECTION('center_axis',(0.,0.,1.));
#523=DIRECTION('ref_axis',(1.,0.,0.));
#524=DIRECTION('center_axis',(0.,0.,1.));
#525=DIRECTION('ref_axis',(1.,0.,0.));
#526=DIRECTION('center_axis',(0.,0.,1.));
#527=DIRECTION('ref_axis',(1.,0.,0.));
#528=DIRECTION('center_axis',(-1.22464679914735E-16,1.,0.));
#529=DIRECTION('ref_axis',(-1.,-1.22464679914735E-16,0.));
#530=DIRECTION('center_axis',(0.,0.,1.));
#531=DIRECTION('ref_axis',(1.,0.,0.));
#532=DIRECTION('center_axis',(0.,0.,1.));
#533=DIRECTION('ref_axis',(1.,0.,0.));
#534=DIRECTION('',(0.438423632021415,5.36914097625583E-17,-0.898768445643899));
#535=DIRECTION('center_axis',(0.,0.,1.));
#536=DIRECTION('ref_axis',(1.,0.,0.));
#537=DIRECTION('center_axis',(0.,0.,1.));
#538=DIRECTION('ref_axis',(1.,0.,0.));
#539=DIRECTION('center_axis',(-1.22464679914735E-16,1.,0.));
#540=DIRECTION('ref_axis',(-1.,-1.22464679914735E-16,0.));
#541=DIRECTION('center_axis',(0.,0.,1.));
#542=DIRECTION('ref_axis',(1.,0.,0.));
#543=DIRECTION('center_axis',(0.,0.,1.));
#544=DIRECTION('ref_axis',(1.,0.,0.));
#545=DIRECTION('',(0.707106781186542,8.65956056235486E-17,-0.707106781186553));
#546=DIRECTION('center_axis',(0.,0.,1.));
#547=DIRECTION('ref_axis',(1.,0.,0.));
#548=DIRECTION('center_axis',(0.,0.,-1.));
#549=DIRECTION('ref_axis',(1.,0.,0.));
#550=DIRECTION('',(0.,0.,1.));
#551=DIRECTION('center_axis',(0.,0.,1.));
#552=DIRECTION('ref_axis',(1.,0.,0.));
#553=DIRECTION('center_axis',(0.,0.,1.));
#554=DIRECTION('ref_axis',(1.,0.,0.));
#555=DIRECTION('center_axis',(0.,0.,-1.));
#556=DIRECTION('ref_axis',(-1.,0.,0.));
#557=DIRECTION('',(-0.707106781186555,8.65956056235503E-17,0.70710678118654));
#558=DIRECTION('center_axis',(0.,0.,1.));
#559=DIRECTION('ref_axis',(1.,0.,0.));
#560=DIRECTION('center_axis',(0.,0.,-1.));
#561=DIRECTION('ref_axis',(0.,-1.,0.));
#562=DIRECTION('center_axis',(0.,0.,1.));
#563=DIRECTION('ref_axis',(1.,0.,0.));
#564=DIRECTION('center_axis',(0.,0.,1.));
#565=DIRECTION('ref_axis',(1.,0.,0.));
#566=DIRECTION('center_axis',(0.,0.,1.));
#567=DIRECTION('ref_axis',(1.,0.,0.));
#568=DIRECTION('center_axis',(0.,0.,1.));
#569=DIRECTION('ref_axis',(1.,0.,0.));
#570=DIRECTION('center_axis',(0.,0.,1.));
#571=DIRECTION('ref_axis',(1.,0.,0.));
#572=DIRECTION('center_axis',(0.,0.,1.));
#573=DIRECTION('ref_axis',(1.,0.,0.));
#574=DIRECTION('center_axis',(0.,0.,1.));
#575=DIRECTION('ref_axis',(1.,0.,0.));
#576=DIRECTION('center_axis',(0.,0.,1.));
#577=DIRECTION('ref_axis',(1.,0.,0.));
#578=DIRECTION('center_axis',(0.,0.,1.));
#579=DIRECTION('ref_axis',(1.,0.,0.));
#580=DIRECTION('center_axis',(0.,0.,1.));
#581=DIRECTION('ref_axis',(1.,0.,0.));
#582=DIRECTION('center_axis',(0.,0.,1.));
#583=DIRECTION('ref_axis',(1.,0.,0.));
#584=DIRECTION('',(-7.5115729936858E-16,1.,0.));
#585=DIRECTION('',(-0.866025403784438,0.5,0.));
#586=DIRECTION('center_axis',(0.,0.,1.));
#587=DIRECTION('ref_axis',(1.,0.,0.));
#588=DIRECTION('',(0.866025403784439,0.5,0.));
#589=DIRECTION('',(-7.5115729936858E-16,1.,0.));
#590=DIRECTION('center_axis',(0.,0.,1.));
#591=DIRECTION('ref_axis',(1.,0.,0.));
#592=DIRECTION('',(0.866025403784439,-0.5,0.));
#593=DIRECTION('',(0.866025403784439,0.5,0.));
#594=DIRECTION('center_axis',(0.,0.,1.));
#595=DIRECTION('ref_axis',(1.,0.,0.));
#596=DIRECTION('',(0.,-1.,0.));
#597=DIRECTION('',(0.866025403784439,-0.5,0.));
#598=DIRECTION('center_axis',(0.,0.,1.));
#599=DIRECTION('ref_axis',(1.,0.,0.));
#600=DIRECTION('',(-0.866025403784438,0.5,0.));
#601=DIRECTION('',(-0.866025403784439,-0.5,0.));
#602=DIRECTION('center_axis',(0.,0.,1.));
#603=DIRECTION('ref_axis',(1.,0.,0.));
#604=DIRECTION('',(-0.866025403784439,-0.5,0.));
#605=DIRECTION('',(0.,-1.,0.));
#606=DIRECTION('center_axis',(-0.5,0.866025403784439,0.));
#607=DIRECTION('ref_axis',(0.,0.,1.));
#608=DIRECTION('',(0.,0.,1.));
#609=DIRECTION('',(0.,0.,1.));
#610=DIRECTION('center_axis',(-1.,0.,0.));
#611=DIRECTION('ref_axis',(0.,0.,1.));
#612=DIRECTION('',(0.,0.,1.));
#613=DIRECTION('center_axis',(-0.5,-0.866025403784439,0.));
#614=DIRECTION('ref_axis',(-0.866025403784439,0.5,0.));
#615=DIRECTION('',(0.,0.,1.));
#616=DIRECTION('center_axis',(0.5,-0.866025403784439,0.));
#617=DIRECTION('ref_axis',(0.,0.,-1.));
#618=DIRECTION('',(0.,0.,1.));
#619=DIRECTION('center_axis',(1.,7.5115729936858E-16,0.));
#620=DIRECTION('ref_axis',(-7.5115729936858E-16,1.,0.));
#621=DIRECTION('',(0.,0.,1.));
#622=DIRECTION('center_axis',(0.5,0.866025403784438,0.));
#623=DIRECTION('ref_axis',(0.,0.,-1.));
#624=CARTESIAN_POINT('',(0.,0.,0.));
#625=CARTESIAN_POINT('Origin',(0.,0.,-0.0414518843273786));
#626=CARTESIAN_POINT('',(-1.,-0.577350269189619,1.55438839169774E-17));
#627=CARTESIAN_POINT('',(-1.,0.577350269189624,0.));
#628=CARTESIAN_POINT('Ctrl Pts',(-1.,0.577350269189773,2.11109127141749E-14));
#629=CARTESIAN_POINT('Ctrl Pts',(-1.,1.0547118733939E-15,-0.0773502691896382));
#630=CARTESIAN_POINT('Ctrl Pts',(-1.,-0.57735026918977,2.07248613748397E-14));
#631=CARTESIAN_POINT('Origin',(0.,0.,1.55438839169774E-17));
#632=CARTESIAN_POINT('Origin',(0.,0.,998.32264973081));
#633=CARTESIAN_POINT('',(0.,0.,-1.67735026918962));
#634=CARTESIAN_POINT('',(-1.,0.,-1.1));
#635=CARTESIAN_POINT('',(-1732.05080756889,-2.12115047744983E-13,998.32264973081));
#636=CARTESIAN_POINT('',(-0.5,-0.866025403784439,-1.1));
#637=CARTESIAN_POINT('Origin',(0.,0.,-1.1));
#638=CARTESIAN_POINT('',(0.500000000000001,-0.866025403784441,-1.1));
#639=CARTESIAN_POINT('Origin',(0.,0.,-1.1));
#640=CARTESIAN_POINT('',(1.,7.5115729936858E-16,-1.1));
#641=CARTESIAN_POINT('Origin',(0.,0.,-1.1));
#642=CARTESIAN_POINT('',(0.5,0.866025403784439,-1.1));
#643=CARTESIAN_POINT('Origin',(0.,0.,-1.1));
#644=CARTESIAN_POINT('',(-0.5,0.866025403784439,-1.1));
#645=CARTESIAN_POINT('Origin',(0.,0.,-1.1));
#646=CARTESIAN_POINT('Origin',(0.,0.,-1.1));
#647=CARTESIAN_POINT('Origin',(0.,0.,-0.0414518843273786));
#648=CARTESIAN_POINT('',(0.999999999999999,0.577350269189622,1.55438839169774E-17));
#649=CARTESIAN_POINT('',(0.999999999999993,-0.577350269189634,1.55438839169774E-17));
#650=CARTESIAN_POINT('Ctrl Pts',(0.999999999999999,0.577350269189772,2.08366130783314E-14));
#651=CARTESIAN_POINT('Ctrl Pts',(1.,-4.55191440096314E-15,-0.0773502691896389));
#652=CARTESIAN_POINT('Ctrl Pts',(1.,-0.577350269189784,2.26652773172879E-14));
#653=CARTESIAN_POINT('Origin',(0.,0.,1.55438839169774E-17));
#654=CARTESIAN_POINT('Origin',(0.,0.,-8.5));
#655=CARTESIAN_POINT('',(-1.25,-1.53080849893419E-16,-8.275));
#656=CARTESIAN_POINT('Origin',(0.,0.,-8.275));
#657=CARTESIAN_POINT('',(-1.025,-1.25526296912604E-16,-8.5));
#658=CARTESIAN_POINT('',(-1.025,-1.25526296912604E-16,-8.5));
#659=CARTESIAN_POINT('Origin',(0.,0.,-8.5));
#660=CARTESIAN_POINT('Origin',(0.,0.,0.));
#661=CARTESIAN_POINT('',(-1.25,1.53080849893419E-16,-3.01));
#662=CARTESIAN_POINT('',(-1.25,1.53080849893419E-16,0.));
#663=CARTESIAN_POINT('Origin',(0.,0.,-3.01));
#664=CARTESIAN_POINT('Origin',(0.,0.,-3.01));
#665=CARTESIAN_POINT('',(-1.26012315543561,-1.54320578883568E-16,-2.96615763679786));
#666=CARTESIAN_POINT('Origin',(0.,0.,-2.96615763679786));
#667=CARTESIAN_POINT('Origin',(-1.35,-1.65327317884893E-16,-3.01));
#668=CARTESIAN_POINT('Origin',(0.,0.,-2.96615763679786));
#669=CARTESIAN_POINT('',(-1.46012315543561,-1.78813514866515E-16,-2.55615763679786));
#670=CARTESIAN_POINT('Origin',(0.,0.,-2.55615763679786));
#671=CARTESIAN_POINT('',(-1.26012315543561,-1.54320578883568E-16,-2.96615763679786));
#672=CARTESIAN_POINT('Origin',(0.,0.,-2.6));
#673=CARTESIAN_POINT('',(-1.55,-1.8982025386784E-16,-2.5));
#674=CARTESIAN_POINT('Origin',(0.,0.,-2.5));
#675=CARTESIAN_POINT('Origin',(-1.55,-1.8982025386784E-16,-2.6));
#676=CARTESIAN_POINT('Origin',(0.,0.,-2.5));
#677=CARTESIAN_POINT('',(-2.25,-2.75545529808154E-16,-2.34));
#678=CARTESIAN_POINT('Origin',(0.,0.,-2.34));
#679=CARTESIAN_POINT('',(-2.09,-2.55951181021797E-16,-2.5));
#680=CARTESIAN_POINT('',(-2.09,-2.55951181021797E-16,-2.5));
#681=CARTESIAN_POINT('Origin',(0.,0.,-2.5));
#682=CARTESIAN_POINT('Origin',(0.,0.,0.));
#683=CARTESIAN_POINT('',(-2.25,2.75545529808154E-16,-0.250000000000001));
#684=CARTESIAN_POINT('',(-2.25,2.75545529808154E-16,0.));
#685=CARTESIAN_POINT('',(2.25,2.75545529808154E-16,-0.250000000000001));
#686=CARTESIAN_POINT('Origin',(0.,0.,-0.250000000000001));
#687=CARTESIAN_POINT('Origin',(0.,0.,-0.250000000000001));
#688=CARTESIAN_POINT('Origin',(0.,0.,-0.250000000000001));
#689=CARTESIAN_POINT('',(1.99999999999999,-2.4492935982947E-16,1.87350135405495E-15));
#690=CARTESIAN_POINT('',(2.25,-2.75545529808154E-16,-0.250000000000001));
#691=CARTESIAN_POINT('Origin',(0.,0.,0.));
#692=CARTESIAN_POINT('Origin',(0.,0.,0.));
#693=CARTESIAN_POINT('',(-9.97465998686664E-15,-1.15470053837925,1.55438839169774E-17));
#694=CARTESIAN_POINT('Origin',(0.,0.,1.55438839169774E-17));
#695=CARTESIAN_POINT('',(-1.0842021724855E-15,1.15470053837925,1.55438839169774E-17));
#696=CARTESIAN_POINT('Origin',(0.,0.,1.55438839169774E-17));
#697=CARTESIAN_POINT('Origin',(0.,0.,1.55438839169774E-17));
#698=CARTESIAN_POINT('Origin',(0.,0.,1.55438839169774E-17));
#699=CARTESIAN_POINT('Origin',(0.,2.09,-2.5));
#700=CARTESIAN_POINT('Origin',(0.,1.025,-8.5));
#701=CARTESIAN_POINT('Origin',(0.,0.,-0.0414518843273786));
#702=CARTESIAN_POINT('Ctrl Pts',(-1.00000000000013,0.57735026918955,2.15579195281424E-14));
#703=CARTESIAN_POINT('Ctrl Pts',(-0.500000000000001,0.866025403784437,-0.0773502691896388));
#704=CARTESIAN_POINT('Ctrl Pts',(1.28575414490183E-13,1.15470053837933,
2.10601164853153E-14));
#705=CARTESIAN_POINT('Origin',(0.,0.,-0.0414518843273786));
#706=CARTESIAN_POINT('Ctrl Pts',(1.21342031500533E-13,-1.15470053837932,
2.05013579678564E-14));
#707=CARTESIAN_POINT('Ctrl Pts',(-0.500000000000004,-0.866025403784438,
-0.0773502691896379));
#708=CARTESIAN_POINT('Ctrl Pts',(-1.00000000000013,-0.577350269189551,2.19947670963375E-14));
#709=CARTESIAN_POINT('Origin',(0.,0.,-0.0414518843273786));
#710=CARTESIAN_POINT('Ctrl Pts',(1.00000000000012,-0.577350269189554,2.00137141708012E-14));
#711=CARTESIAN_POINT('Ctrl Pts',(0.499999999999994,-0.86602540378444,-0.0773502691896391));
#712=CARTESIAN_POINT('Ctrl Pts',(-1.37190454904823E-13,-1.15470053837933,
2.21776335202331E-14));
#713=CARTESIAN_POINT('Origin',(0.,0.,-0.0414518843273786));
#714=CARTESIAN_POINT('Ctrl Pts',(-1.31257455373986E-13,1.15470053837932,
2.08366130783317E-14));
#715=CARTESIAN_POINT('Ctrl Pts',(0.499999999999999,0.866025403784436,-0.0773502691896396));
#716=CARTESIAN_POINT('Ctrl Pts',(1.00000000000013,0.577350269189548,2.07756576036998E-14));
#717=CARTESIAN_POINT('Origin',(0.,0.,-1.1));
#718=CARTESIAN_POINT('',(0.999999999999999,0.577350269189623,-1.1));
#719=CARTESIAN_POINT('',(1.,-0.577350269189629,-1.1));
#720=CARTESIAN_POINT('',(0.999999999999999,0.577350269189623,-1.1));
#721=CARTESIAN_POINT('Origin',(0.,0.,-1.1));
#722=CARTESIAN_POINT('',(1.,-0.577350269189629,-1.1));
#723=CARTESIAN_POINT('',(-6.00654602405549E-16,-1.15470053837925,-1.1));
#724=CARTESIAN_POINT('',(1.,-0.577350269189629,-1.1));
#725=CARTESIAN_POINT('Origin',(0.,0.,-1.1));
#726=CARTESIAN_POINT('',(-6.00654602405549E-16,-1.15470053837925,-1.1));
#727=CARTESIAN_POINT('',(-1.,-0.577350269189628,-1.1));
#728=CARTESIAN_POINT('',(-6.00654602405549E-16,-1.15470053837925,-1.1));
#729=CARTESIAN_POINT('Origin',(0.,0.,-1.1));
#730=CARTESIAN_POINT('',(-1.,-0.577350269189628,-1.1));
#731=CARTESIAN_POINT('',(-1.,0.577350269189624,-1.1));
#732=CARTESIAN_POINT('',(-1.,-0.577350269189628,-1.1));
#733=CARTESIAN_POINT('Origin',(0.,0.,-1.1));
#734=CARTESIAN_POINT('',(-8.21580716481174E-16,1.15470053837925,-1.1));
#735=CARTESIAN_POINT('',(0.999999999999999,0.577350269189623,-1.1));
#736=CARTESIAN_POINT('',(-8.21580716481174E-16,1.15470053837925,-1.1));
#737=CARTESIAN_POINT('Origin',(0.,0.,-1.1));
#738=CARTESIAN_POINT('',(-1.,0.577350269189624,-1.1));
#739=CARTESIAN_POINT('',(-8.21580716481174E-16,1.15470053837925,-1.1));
#740=CARTESIAN_POINT('',(-1.,0.577350269189624,-1.1));
#741=CARTESIAN_POINT('Origin',(-8.21580716481174E-16,1.15470053837925,-1.1));
#742=CARTESIAN_POINT('',(-1.,0.577350269189624,-1.1));
#743=CARTESIAN_POINT('',(-8.21580716481174E-16,1.15470053837925,-1.1));
#744=CARTESIAN_POINT('Origin',(-1.,0.577350269189624,-1.1));
#745=CARTESIAN_POINT('',(-1.,-0.577350269189628,-1.1));
#746=CARTESIAN_POINT('Origin',(-1.,-0.577350269189628,-1.1));
#747=CARTESIAN_POINT('',(-6.00654602405549E-16,-1.15470053837925,-1.1));
#748=CARTESIAN_POINT('Origin',(-6.00654602405549E-16,-1.15470053837925,
-1.1));
#749=CARTESIAN_POINT('',(1.,-0.577350269189629,-1.1));
#750=CARTESIAN_POINT('Origin',(1.,-0.577350269189629,-1.1));
#751=CARTESIAN_POINT('',(0.999999999999999,0.577350269189623,-1.1));
#752=CARTESIAN_POINT('Origin',(0.999999999999999,0.577350269189623,-1.1));
#753=UNCERTAINTY_MEASURE_WITH_UNIT(LENGTH_MEASURE(0.01),#757,
'DISTANCE_ACCURACY_VALUE',
'Maximum model space distance between geometric entities at asserted c
onnectivities');
#754=UNCERTAINTY_MEASURE_WITH_UNIT(LENGTH_MEASURE(0.01),#757,
'DISTANCE_ACCURACY_VALUE',
'Maximum model space distance between geometric entities at asserted c
onnectivities');
#755=(
GEOMETRIC_REPRESENTATION_CONTEXT(3)
GLOBAL_UNCERTAINTY_ASSIGNED_CONTEXT((#753))
GLOBAL_UNIT_ASSIGNED_CONTEXT((#757,#759,#760))
REPRESENTATION_CONTEXT('','3D')
);
#756=(
GEOMETRIC_REPRESENTATION_CONTEXT(3)
GLOBAL_UNCERTAINTY_ASSIGNED_CONTEXT((#754))
GLOBAL_UNIT_ASSIGNED_CONTEXT((#757,#759,#760))
REPRESENTATION_CONTEXT('','3D')
);
#757=(
LENGTH_UNIT()
NAMED_UNIT(*)
SI_UNIT(.MILLI.,.METRE.)
);
#758=(
LENGTH_UNIT()
NAMED_UNIT(*)
SI_UNIT($,.METRE.)
);
#759=(
NAMED_UNIT(*)
PLANE_ANGLE_UNIT()
SI_UNIT($,.RADIAN.)
);
#760=(
NAMED_UNIT(*)
SI_UNIT($,.STERADIAN.)
SOLID_ANGLE_UNIT()
);
#761=SHAPE_DEFINITION_REPRESENTATION(#762,#763);
#762=PRODUCT_DEFINITION_SHAPE('',$,#765);
#763=SHAPE_REPRESENTATION('',(#431),#755);
#764=PRODUCT_DEFINITION_CONTEXT('part definition',#769,'design');
#765=PRODUCT_DEFINITION('281647','BOLT_SHCS_M1.6_8mm v1',#766,#764);
#766=PRODUCT_DEFINITION_FORMATION('',$,#771);
#767=PRODUCT_RELATED_PRODUCT_CATEGORY('BOLT_SHCS_M1.6_8mm v1',
'BOLT_SHCS_M1.6_8mm v1',(#771));
#768=APPLICATION_PROTOCOL_DEFINITION('international standard',
'automotive_design',2009,#769);
#769=APPLICATION_CONTEXT(
'Core Data for Automotive Mechanical Design Process');
#770=PRODUCT_CONTEXT('part definition',#769,'mechanical');
#771=PRODUCT('281647','BOLT_SHCS_M1.6_8mm v1','STEP AP242',(#770));
#772=PRESENTATION_STYLE_ASSIGNMENT((#774));
#773=PRESENTATION_STYLE_ASSIGNMENT((#775));
#774=SURFACE_STYLE_USAGE(.BOTH.,#776);
#775=SURFACE_STYLE_USAGE(.BOTH.,#777);
#776=SURFACE_SIDE_STYLE('',(#778));
#777=SURFACE_SIDE_STYLE('',(#779));
#778=SURFACE_STYLE_FILL_AREA(#780);
#779=SURFACE_STYLE_FILL_AREA(#781);
#780=FILL_AREA_STYLE('Acier - Satin\X\E9',(#782));
#781=FILL_AREA_STYLE('Opaque(202,209,238)',(#783));
#782=FILL_AREA_STYLE_COLOUR('Acier - Satin\X\E9',#784);
#783=FILL_AREA_STYLE_COLOUR('Opaque(202,209,238)',#785);
#784=COLOUR_RGB('Acier - Satin\X\E9',0.627450980392157,0.627450980392157,
0.627450980392157);
#785=COLOUR_RGB('Opaque(202,209,238)',0.792156862745098,0.819607843137255,
0.933333333333333);
ENDSEC;
END-ISO-10303-21;
