ISO-10303-21;
HEADER;
/* Generated by software containing ST-Developer
 * from STEP Tools, Inc. (www.steptools.com) 
 */

FILE_DESCRIPTION(
/* description */ ('STEP AP214'),
/* implementation_level */ '2;1');

FILE_NAME(
/* name */ 'BOLT_CSK_M3_8mm.step',
/* time_stamp */ '2026-08-10T14:31:18+02:00',
/* author */ (''),
/* organization */ (''),
/* preprocessor_version */ 'ST-DEVELOPER v20.1',
/* originating_system */ 'Autodesk Translation Framework v15.8.0.0',
/* authorisation */ '');

FILE_SCHEMA (('AUTOMOTIVE_DESIGN { 1 0 10303 214 3 1 1 }'));
ENDSEC;

DATA;
#10=MECHANICAL_DESIGN_GEOMETRIC_PRESENTATION_REPRESENTATION('',(#13),#715);
#11=SHAPE_REPRESENTATION_RELATIONSHIP('SRR','None',#722,#12);
#12=ADVANCED_BREP_SHAPE_REPRESENTATION('',(#14),#714);
#13=STYLED_ITEM('',(#732),#14);
#14=MANIFOLD_SOLID_BREP('Corps1',#401);
#15=FACE_BOUND('',#76,.T.);
#16=PLANE('',#446);
#17=PLANE('',#447);
#18=PLANE('',#448);
#19=PLANE('',#449);
#20=PLANE('',#450);
#21=PLANE('',#451);
#22=PLANE('',#452);
#23=PLANE('',#453);
#24=PLANE('',#454);
#25=PLANE('',#455);
#26=PLANE('',#456);
#27=PLANE('',#457);
#28=PLANE('',#458);
#29=PLANE('',#459);
#30=PLANE('',#460);
#31=PLANE('',#461);
#32=PLANE('',#462);
#33=PLANE('',#463);
#34=PLANE('',#464);
#35=PLANE('',#465);
#36=TOROIDAL_SURFACE('',#438,1.6,0.0999999999999993);
#37=CYLINDRICAL_SURFACE('',#422,1.15470053837925);
#38=CYLINDRICAL_SURFACE('',#431,3.);
#39=CYLINDRICAL_SURFACE('',#441,1.5);
#40=FACE_OUTER_BOUND('',#67,.T.);
#41=FACE_OUTER_BOUND('',#68,.T.);
#42=FACE_OUTER_BOUND('',#69,.T.);
#43=FACE_OUTER_BOUND('',#70,.T.);
#44=FACE_OUTER_BOUND('',#71,.T.);
#45=FACE_OUTER_BOUND('',#72,.T.);
#46=FACE_OUTER_BOUND('',#73,.T.);
#47=FACE_OUTER_BOUND('',#74,.T.);
#48=FACE_OUTER_BOUND('',#75,.T.);
#49=FACE_OUTER_BOUND('',#77,.T.);
#50=FACE_OUTER_BOUND('',#78,.T.);
#51=FACE_OUTER_BOUND('',#79,.T.);
#52=FACE_OUTER_BOUND('',#80,.T.);
#53=FACE_OUTER_BOUND('',#81,.T.);
#54=FACE_OUTER_BOUND('',#82,.T.);
#55=FACE_OUTER_BOUND('',#83,.T.);
#56=FACE_OUTER_BOUND('',#84,.T.);
#57=FACE_OUTER_BOUND('',#85,.T.);
#58=FACE_OUTER_BOUND('',#86,.T.);
#59=FACE_OUTER_BOUND('',#87,.T.);
#60=FACE_OUTER_BOUND('',#88,.T.);
#61=FACE_OUTER_BOUND('',#89,.T.);
#62=FACE_OUTER_BOUND('',#90,.T.);
#63=FACE_OUTER_BOUND('',#91,.T.);
#64=FACE_OUTER_BOUND('',#92,.T.);
#65=FACE_OUTER_BOUND('',#93,.T.);
#66=FACE_OUTER_BOUND('',#94,.T.);
#67=EDGE_LOOP('',(#263,#264,#265,#266,#267,#268,#269,#270));
#68=EDGE_LOOP('',(#271,#272,#273,#274,#275,#276,#277,#278,#279,#280));
#69=EDGE_LOOP('',(#281,#282,#283,#284,#285));
#70=EDGE_LOOP('',(#286,#287,#288,#289,#290,#291));
#71=EDGE_LOOP('',(#292,#293,#294,#295,#296));
#72=EDGE_LOOP('',(#297,#298,#299,#300,#301));
#73=EDGE_LOOP('',(#302,#303,#304,#305,#306));
#74=EDGE_LOOP('',(#307));
#75=EDGE_LOOP('',(#308));
#76=EDGE_LOOP('',(#309));
#77=EDGE_LOOP('',(#310,#311));
#78=EDGE_LOOP('',(#312,#313));
#79=EDGE_LOOP('',(#314,#315));
#80=EDGE_LOOP('',(#316,#317));
#81=EDGE_LOOP('',(#318,#319,#320));
#82=EDGE_LOOP('',(#321,#322));
#83=EDGE_LOOP('',(#323,#324,#325));
#84=EDGE_LOOP('',(#326,#327,#328));
#85=EDGE_LOOP('',(#329,#330,#331));
#86=EDGE_LOOP('',(#332,#333,#334));
#87=EDGE_LOOP('',(#335,#336,#337));
#88=EDGE_LOOP('',(#338,#339,#340));
#89=EDGE_LOOP('',(#341,#342,#343,#344,#345));
#90=EDGE_LOOP('',(#346,#347,#348,#349,#350));
#91=EDGE_LOOP('',(#351,#352,#353,#354,#355));
#92=EDGE_LOOP('',(#356,#357,#358,#359,#360));
#93=EDGE_LOOP('',(#361,#362,#363,#364,#365));
#94=EDGE_LOOP('',(#366,#367,#368,#369,#370));
#95=CIRCLE('',#416,1.);
#96=CIRCLE('',#417,1.);
#97=CIRCLE('',#418,1.);
#98=CIRCLE('',#419,1.);
#99=CIRCLE('',#420,1.);
#100=CIRCLE('',#421,1.);
#101=CIRCLE('',#423,1.15470053837925);
#102=CIRCLE('',#424,1.15470053837925);
#103=CIRCLE('',#425,1.15470053837925);
#104=CIRCLE('',#426,1.15470053837925);
#105=CIRCLE('',#427,1.15470053837925);
#106=CIRCLE('',#428,1.15470053837925);
#107=CIRCLE('',#429,1.15470053837925);
#108=CIRCLE('',#430,1.15470053837925);
#109=CIRCLE('',#432,3.);
#110=CIRCLE('',#433,3.);
#111=CIRCLE('',#434,3.);
#112=CIRCLE('',#436,1.52928932188135);
#113=CIRCLE('',#437,1.52928932188135);
#114=CIRCLE('',#439,1.5);
#115=CIRCLE('',#440,0.0999999999999993);
#116=CIRCLE('',#442,1.5);
#117=CIRCLE('',#443,1.5);
#118=CIRCLE('',#445,1.25);
#119=LINE('',#604,#149);
#120=LINE('',#627,#150);
#121=LINE('',#640,#151);
#122=LINE('',#644,#152);
#123=LINE('',#657,#153);
#124=LINE('',#660,#154);
#125=LINE('',#665,#155);
#126=LINE('',#667,#156);
#127=LINE('',#669,#157);
#128=LINE('',#671,#158);
#129=LINE('',#673,#159);
#130=LINE('',#675,#160);
#131=LINE('',#678,#161);
#132=LINE('',#679,#162);
#133=LINE('',#682,#163);
#134=LINE('',#683,#164);
#135=LINE('',#686,#165);
#136=LINE('',#687,#166);
#137=LINE('',#690,#167);
#138=LINE('',#691,#168);
#139=LINE('',#694,#169);
#140=LINE('',#695,#170);
#141=LINE('',#698,#171);
#142=LINE('',#699,#172);
#143=LINE('',#701,#173);
#144=LINE('',#702,#174);
#145=LINE('',#704,#175);
#146=LINE('',#706,#176);
#147=LINE('',#708,#177);
#148=LINE('',#710,#178);
#149=VECTOR('',#470,1732.05080756888);
#150=VECTOR('',#493,1.15470053837925);
#151=VECTOR('',#508,3.);
#152=VECTOR('',#513,1.52928932188135);
#153=VECTOR('',#530,1.5);
#154=VECTOR('',#533,1.25);
#155=VECTOR('',#542,1000.);
#156=VECTOR('',#545,1000.);
#157=VECTOR('',#548,1000.);
#158=VECTOR('',#551,1000.);
#159=VECTOR('',#554,1000.);
#160=VECTOR('',#557,1000.);
#161=VECTOR('',#560,1000.);
#162=VECTOR('',#561,1000.);
#163=VECTOR('',#564,1000.);
#164=VECTOR('',#565,1000.);
#165=VECTOR('',#568,1000.);
#166=VECTOR('',#569,1000.);
#167=VECTOR('',#572,1000.);
#168=VECTOR('',#573,1000.);
#169=VECTOR('',#576,1000.);
#170=VECTOR('',#577,1000.);
#171=VECTOR('',#580,1000.);
#172=VECTOR('',#581,1000.);
#173=VECTOR('',#584,1000.);
#174=VECTOR('',#585,1000.);
#175=VECTOR('',#588,1000.);
#176=VECTOR('',#591,1000.);
#177=VECTOR('',#594,1000.);
#178=VECTOR('',#597,1000.);
#179=VERTEX_POINT('',#602);
#180=VERTEX_POINT('',#603);
#181=VERTEX_POINT('',#605);
#182=VERTEX_POINT('',#607);
#183=VERTEX_POINT('',#609);
#184=VERTEX_POINT('',#611);
#185=VERTEX_POINT('',#613);
#186=VERTEX_POINT('',#617);
#187=VERTEX_POINT('',#618);
#188=VERTEX_POINT('',#620);
#189=VERTEX_POINT('',#622);
#190=VERTEX_POINT('',#624);
#191=VERTEX_POINT('',#626);
#192=VERTEX_POINT('',#629);
#193=VERTEX_POINT('',#631);
#194=VERTEX_POINT('',#635);
#195=VERTEX_POINT('',#636);
#196=VERTEX_POINT('',#639);
#197=VERTEX_POINT('',#643);
#198=VERTEX_POINT('',#645);
#199=VERTEX_POINT('',#649);
#200=VERTEX_POINT('',#653);
#201=VERTEX_POINT('',#654);
#202=VERTEX_POINT('',#659);
#203=VERTEX_POINT('',#677);
#204=VERTEX_POINT('',#681);
#205=VERTEX_POINT('',#685);
#206=VERTEX_POINT('',#689);
#207=VERTEX_POINT('',#693);
#208=VERTEX_POINT('',#697);
#209=EDGE_CURVE('',#179,#180,#119,.T.);
#210=EDGE_CURVE('',#180,#181,#95,.T.);
#211=EDGE_CURVE('',#181,#182,#96,.T.);
#212=EDGE_CURVE('',#182,#183,#97,.T.);
#213=EDGE_CURVE('',#183,#184,#98,.T.);
#214=EDGE_CURVE('',#184,#185,#99,.T.);
#215=EDGE_CURVE('',#185,#180,#100,.T.);
#216=EDGE_CURVE('',#186,#187,#101,.T.);
#217=EDGE_CURVE('',#188,#186,#102,.T.);
#218=EDGE_CURVE('',#189,#188,#103,.T.);
#219=EDGE_CURVE('',#190,#189,#104,.T.);
#220=EDGE_CURVE('',#190,#191,#120,.T.);
#221=EDGE_CURVE('',#191,#191,#105,.T.);
#222=EDGE_CURVE('',#192,#190,#106,.T.);
#223=EDGE_CURVE('',#193,#192,#107,.T.);
#224=EDGE_CURVE('',#187,#193,#108,.T.);
#225=EDGE_CURVE('',#194,#195,#109,.T.);
#226=EDGE_CURVE('',#195,#194,#110,.T.);
#227=EDGE_CURVE('',#195,#196,#121,.T.);
#228=EDGE_CURVE('',#196,#196,#111,.T.);
#229=EDGE_CURVE('',#194,#197,#122,.T.);
#230=EDGE_CURVE('',#198,#197,#112,.T.);
#231=EDGE_CURVE('',#197,#198,#113,.T.);
#232=EDGE_CURVE('',#199,#199,#114,.T.);
#233=EDGE_CURVE('',#199,#198,#115,.T.);
#234=EDGE_CURVE('',#200,#201,#116,.T.);
#235=EDGE_CURVE('',#201,#200,#117,.T.);
#236=EDGE_CURVE('',#201,#199,#123,.T.);
#237=EDGE_CURVE('',#200,#202,#124,.T.);
#238=EDGE_CURVE('',#202,#202,#118,.T.);
#239=EDGE_CURVE('',#193,#187,#125,.T.);
#240=EDGE_CURVE('',#187,#186,#126,.T.);
#241=EDGE_CURVE('',#186,#188,#127,.T.);
#242=EDGE_CURVE('',#188,#189,#128,.T.);
#243=EDGE_CURVE('',#189,#192,#129,.T.);
#244=EDGE_CURVE('',#192,#193,#130,.T.);
#245=EDGE_CURVE('',#183,#203,#131,.T.);
#246=EDGE_CURVE('',#203,#184,#132,.T.);
#247=EDGE_CURVE('',#182,#204,#133,.T.);
#248=EDGE_CURVE('',#204,#183,#134,.T.);
#249=EDGE_CURVE('',#181,#205,#135,.T.);
#250=EDGE_CURVE('',#205,#182,#136,.T.);
#251=EDGE_CURVE('',#180,#206,#137,.T.);
#252=EDGE_CURVE('',#206,#181,#138,.T.);
#253=EDGE_CURVE('',#184,#207,#139,.T.);
#254=EDGE_CURVE('',#207,#185,#140,.T.);
#255=EDGE_CURVE('',#185,#208,#141,.T.);
#256=EDGE_CURVE('',#208,#180,#142,.T.);
#257=EDGE_CURVE('',#208,#192,#143,.T.);
#258=EDGE_CURVE('',#207,#193,#144,.T.);
#259=EDGE_CURVE('',#206,#189,#145,.T.);
#260=EDGE_CURVE('',#205,#188,#146,.T.);
#261=EDGE_CURVE('',#204,#186,#147,.T.);
#262=EDGE_CURVE('',#203,#187,#148,.T.);
#263=ORIENTED_EDGE('',*,*,#209,.T.);
#264=ORIENTED_EDGE('',*,*,#210,.T.);
#265=ORIENTED_EDGE('',*,*,#211,.T.);
#266=ORIENTED_EDGE('',*,*,#212,.T.);
#267=ORIENTED_EDGE('',*,*,#213,.T.);
#268=ORIENTED_EDGE('',*,*,#214,.T.);
#269=ORIENTED_EDGE('',*,*,#215,.T.);
#270=ORIENTED_EDGE('',*,*,#209,.F.);
#271=ORIENTED_EDGE('',*,*,#216,.F.);
#272=ORIENTED_EDGE('',*,*,#217,.F.);
#273=ORIENTED_EDGE('',*,*,#218,.F.);
#274=ORIENTED_EDGE('',*,*,#219,.F.);
#275=ORIENTED_EDGE('',*,*,#220,.T.);
#276=ORIENTED_EDGE('',*,*,#221,.T.);
#277=ORIENTED_EDGE('',*,*,#220,.F.);
#278=ORIENTED_EDGE('',*,*,#222,.F.);
#279=ORIENTED_EDGE('',*,*,#223,.F.);
#280=ORIENTED_EDGE('',*,*,#224,.F.);
#281=ORIENTED_EDGE('',*,*,#225,.F.);
#282=ORIENTED_EDGE('',*,*,#226,.F.);
#283=ORIENTED_EDGE('',*,*,#227,.T.);
#284=ORIENTED_EDGE('',*,*,#228,.T.);
#285=ORIENTED_EDGE('',*,*,#227,.F.);
#286=ORIENTED_EDGE('',*,*,#225,.T.);
#287=ORIENTED_EDGE('',*,*,#226,.T.);
#288=ORIENTED_EDGE('',*,*,#229,.T.);
#289=ORIENTED_EDGE('',*,*,#230,.F.);
#290=ORIENTED_EDGE('',*,*,#231,.F.);
#291=ORIENTED_EDGE('',*,*,#229,.F.);
#292=ORIENTED_EDGE('',*,*,#232,.F.);
#293=ORIENTED_EDGE('',*,*,#233,.T.);
#294=ORIENTED_EDGE('',*,*,#230,.T.);
#295=ORIENTED_EDGE('',*,*,#231,.T.);
#296=ORIENTED_EDGE('',*,*,#233,.F.);
#297=ORIENTED_EDGE('',*,*,#234,.F.);
#298=ORIENTED_EDGE('',*,*,#235,.F.);
#299=ORIENTED_EDGE('',*,*,#236,.T.);
#300=ORIENTED_EDGE('',*,*,#232,.T.);
#301=ORIENTED_EDGE('',*,*,#236,.F.);
#302=ORIENTED_EDGE('',*,*,#234,.T.);
#303=ORIENTED_EDGE('',*,*,#235,.T.);
#304=ORIENTED_EDGE('',*,*,#237,.T.);
#305=ORIENTED_EDGE('',*,*,#238,.F.);
#306=ORIENTED_EDGE('',*,*,#237,.F.);
#307=ORIENTED_EDGE('',*,*,#238,.T.);
#308=ORIENTED_EDGE('',*,*,#228,.F.);
#309=ORIENTED_EDGE('',*,*,#221,.F.);
#310=ORIENTED_EDGE('',*,*,#239,.T.);
#311=ORIENTED_EDGE('',*,*,#224,.T.);
#312=ORIENTED_EDGE('',*,*,#240,.T.);
#313=ORIENTED_EDGE('',*,*,#216,.T.);
#314=ORIENTED_EDGE('',*,*,#241,.T.);
#315=ORIENTED_EDGE('',*,*,#217,.T.);
#316=ORIENTED_EDGE('',*,*,#242,.T.);
#317=ORIENTED_EDGE('',*,*,#218,.T.);
#318=ORIENTED_EDGE('',*,*,#243,.T.);
#319=ORIENTED_EDGE('',*,*,#222,.T.);
#320=ORIENTED_EDGE('',*,*,#219,.T.);
#321=ORIENTED_EDGE('',*,*,#244,.T.);
#322=ORIENTED_EDGE('',*,*,#223,.T.);
#323=ORIENTED_EDGE('',*,*,#213,.F.);
#324=ORIENTED_EDGE('',*,*,#245,.T.);
#325=ORIENTED_EDGE('',*,*,#246,.T.);
#326=ORIENTED_EDGE('',*,*,#212,.F.);
#327=ORIENTED_EDGE('',*,*,#247,.T.);
#328=ORIENTED_EDGE('',*,*,#248,.T.);
#329=ORIENTED_EDGE('',*,*,#211,.F.);
#330=ORIENTED_EDGE('',*,*,#249,.T.);
#331=ORIENTED_EDGE('',*,*,#250,.T.);
#332=ORIENTED_EDGE('',*,*,#210,.F.);
#333=ORIENTED_EDGE('',*,*,#251,.T.);
#334=ORIENTED_EDGE('',*,*,#252,.T.);
#335=ORIENTED_EDGE('',*,*,#214,.F.);
#336=ORIENTED_EDGE('',*,*,#253,.T.);
#337=ORIENTED_EDGE('',*,*,#254,.T.);
#338=ORIENTED_EDGE('',*,*,#215,.F.);
#339=ORIENTED_EDGE('',*,*,#255,.T.);
#340=ORIENTED_EDGE('',*,*,#256,.T.);
#341=ORIENTED_EDGE('',*,*,#244,.F.);
#342=ORIENTED_EDGE('',*,*,#257,.F.);
#343=ORIENTED_EDGE('',*,*,#255,.F.);
#344=ORIENTED_EDGE('',*,*,#254,.F.);
#345=ORIENTED_EDGE('',*,*,#258,.T.);
#346=ORIENTED_EDGE('',*,*,#243,.F.);
#347=ORIENTED_EDGE('',*,*,#259,.F.);
#348=ORIENTED_EDGE('',*,*,#251,.F.);
#349=ORIENTED_EDGE('',*,*,#256,.F.);
#350=ORIENTED_EDGE('',*,*,#257,.T.);
#351=ORIENTED_EDGE('',*,*,#242,.F.);
#352=ORIENTED_EDGE('',*,*,#260,.F.);
#353=ORIENTED_EDGE('',*,*,#249,.F.);
#354=ORIENTED_EDGE('',*,*,#252,.F.);
#355=ORIENTED_EDGE('',*,*,#259,.T.);
#356=ORIENTED_EDGE('',*,*,#241,.F.);
#357=ORIENTED_EDGE('',*,*,#261,.F.);
#358=ORIENTED_EDGE('',*,*,#247,.F.);
#359=ORIENTED_EDGE('',*,*,#250,.F.);
#360=ORIENTED_EDGE('',*,*,#260,.T.);
#361=ORIENTED_EDGE('',*,*,#240,.F.);
#362=ORIENTED_EDGE('',*,*,#262,.F.);
#363=ORIENTED_EDGE('',*,*,#245,.F.);
#364=ORIENTED_EDGE('',*,*,#248,.F.);
#365=ORIENTED_EDGE('',*,*,#261,.T.);
#366=ORIENTED_EDGE('',*,*,#239,.F.);
#367=ORIENTED_EDGE('',*,*,#258,.F.);
#368=ORIENTED_EDGE('',*,*,#253,.F.);
#369=ORIENTED_EDGE('',*,*,#246,.F.);
#370=ORIENTED_EDGE('',*,*,#262,.T.);
#371=CONICAL_SURFACE('',#415,1732.05080756888,1.0471975511966);
#372=CONICAL_SURFACE('',#435,1.52928932188135,0.785398163397442);
#373=CONICAL_SURFACE('',#444,1.25,0.785398163397448);
#374=ADVANCED_FACE('',(#40),#371,.F.);
#375=ADVANCED_FACE('',(#41),#37,.F.);
#376=ADVANCED_FACE('',(#42),#38,.T.);
#377=ADVANCED_FACE('',(#43),#372,.T.);
#378=ADVANCED_FACE('',(#44),#36,.F.);
#379=ADVANCED_FACE('',(#45),#39,.T.);
#380=ADVANCED_FACE('',(#46),#373,.T.);
#381=ADVANCED_FACE('',(#47),#16,.T.);
#382=ADVANCED_FACE('',(#48,#15),#17,.T.);
#383=ADVANCED_FACE('',(#49),#18,.T.);
#384=ADVANCED_FACE('',(#50),#19,.T.);
#385=ADVANCED_FACE('',(#51),#20,.T.);
#386=ADVANCED_FACE('',(#52),#21,.T.);
#387=ADVANCED_FACE('',(#53),#22,.T.);
#388=ADVANCED_FACE('',(#54),#23,.T.);
#389=ADVANCED_FACE('',(#55),#24,.T.);
#390=ADVANCED_FACE('',(#56),#25,.T.);
#391=ADVANCED_FACE('',(#57),#26,.T.);
#392=ADVANCED_FACE('',(#58),#27,.T.);
#393=ADVANCED_FACE('',(#59),#28,.T.);
#394=ADVANCED_FACE('',(#60),#29,.T.);
#395=ADVANCED_FACE('',(#61),#30,.F.);
#396=ADVANCED_FACE('',(#62),#31,.F.);
#397=ADVANCED_FACE('',(#63),#32,.F.);
#398=ADVANCED_FACE('',(#64),#33,.F.);
#399=ADVANCED_FACE('',(#65),#34,.F.);
#400=ADVANCED_FACE('',(#66),#35,.F.);
#401=CLOSED_SHELL('',(#374,#375,#376,#377,#378,#379,#380,#381,#382,#383,
#384,#385,#386,#387,#388,#389,#390,#391,#392,#393,#394,#395,#396,#397,#398,
#399,#400));
#402=DERIVED_UNIT_ELEMENT(#404,1.);
#403=DERIVED_UNIT_ELEMENT(#717,-3.);
#404=(
MASS_UNIT()
NAMED_UNIT(*)
SI_UNIT(.KILO.,.GRAM.)
);
#405=DERIVED_UNIT((#402,#403));
#406=MEASURE_REPRESENTATION_ITEM('density measure',
POSITIVE_RATIO_MEASURE(7850.),#405);
#407=PROPERTY_DEFINITION_REPRESENTATION(#412,#409);
#408=PROPERTY_DEFINITION_REPRESENTATION(#413,#410);
#409=REPRESENTATION('material name',(#411),#714);
#410=REPRESENTATION('density',(#406),#714);
#411=DESCRIPTIVE_REPRESENTATION_ITEM('Acier','Acier');
#412=PROPERTY_DEFINITION('material property','material name',#724);
#413=PROPERTY_DEFINITION('material property','density of part',#724);
#414=AXIS2_PLACEMENT_3D('',#600,#466,#467);
#415=AXIS2_PLACEMENT_3D('',#601,#468,#469);
#416=AXIS2_PLACEMENT_3D('',#606,#471,#472);
#417=AXIS2_PLACEMENT_3D('',#608,#473,#474);
#418=AXIS2_PLACEMENT_3D('',#610,#475,#476);
#419=AXIS2_PLACEMENT_3D('',#612,#477,#478);
#420=AXIS2_PLACEMENT_3D('',#614,#479,#480);
#421=AXIS2_PLACEMENT_3D('',#615,#481,#482);
#422=AXIS2_PLACEMENT_3D('',#616,#483,#484);
#423=AXIS2_PLACEMENT_3D('',#619,#485,#486);
#424=AXIS2_PLACEMENT_3D('',#621,#487,#488);
#425=AXIS2_PLACEMENT_3D('',#623,#489,#490);
#426=AXIS2_PLACEMENT_3D('',#625,#491,#492);
#427=AXIS2_PLACEMENT_3D('',#628,#494,#495);
#428=AXIS2_PLACEMENT_3D('',#630,#496,#497);
#429=AXIS2_PLACEMENT_3D('',#632,#498,#499);
#430=AXIS2_PLACEMENT_3D('',#633,#500,#501);
#431=AXIS2_PLACEMENT_3D('',#634,#502,#503);
#432=AXIS2_PLACEMENT_3D('',#637,#504,#505);
#433=AXIS2_PLACEMENT_3D('',#638,#506,#507);
#434=AXIS2_PLACEMENT_3D('',#641,#509,#510);
#435=AXIS2_PLACEMENT_3D('',#642,#511,#512);
#436=AXIS2_PLACEMENT_3D('',#646,#514,#515);
#437=AXIS2_PLACEMENT_3D('',#647,#516,#517);
#438=AXIS2_PLACEMENT_3D('',#648,#518,#519);
#439=AXIS2_PLACEMENT_3D('',#650,#520,#521);
#440=AXIS2_PLACEMENT_3D('',#651,#522,#523);
#441=AXIS2_PLACEMENT_3D('',#652,#524,#525);
#442=AXIS2_PLACEMENT_3D('',#655,#526,#527);
#443=AXIS2_PLACEMENT_3D('',#656,#528,#529);
#444=AXIS2_PLACEMENT_3D('',#658,#531,#532);
#445=AXIS2_PLACEMENT_3D('',#661,#534,#535);
#446=AXIS2_PLACEMENT_3D('',#662,#536,#537);
#447=AXIS2_PLACEMENT_3D('',#663,#538,#539);
#448=AXIS2_PLACEMENT_3D('',#664,#540,#541);
#449=AXIS2_PLACEMENT_3D('',#666,#543,#544);
#450=AXIS2_PLACEMENT_3D('',#668,#546,#547);
#451=AXIS2_PLACEMENT_3D('',#670,#549,#550);
#452=AXIS2_PLACEMENT_3D('',#672,#552,#553);
#453=AXIS2_PLACEMENT_3D('',#674,#555,#556);
#454=AXIS2_PLACEMENT_3D('',#676,#558,#559);
#455=AXIS2_PLACEMENT_3D('',#680,#562,#563);
#456=AXIS2_PLACEMENT_3D('',#684,#566,#567);
#457=AXIS2_PLACEMENT_3D('',#688,#570,#571);
#458=AXIS2_PLACEMENT_3D('',#692,#574,#575);
#459=AXIS2_PLACEMENT_3D('',#696,#578,#579);
#460=AXIS2_PLACEMENT_3D('',#700,#582,#583);
#461=AXIS2_PLACEMENT_3D('',#703,#586,#587);
#462=AXIS2_PLACEMENT_3D('',#705,#589,#590);
#463=AXIS2_PLACEMENT_3D('',#707,#592,#593);
#464=AXIS2_PLACEMENT_3D('',#709,#595,#596);
#465=AXIS2_PLACEMENT_3D('',#711,#598,#599);
#466=DIRECTION('axis',(0.,0.,1.));
#467=DIRECTION('refdir',(1.,0.,0.));
#468=DIRECTION('center_axis',(0.,0.,1.));
#469=DIRECTION('ref_axis',(1.,0.,0.));
#470=DIRECTION('',(-0.866025403784439,-1.06057523872491E-16,0.499999999999999));
#471=DIRECTION('center_axis',(0.,0.,1.));
#472=DIRECTION('ref_axis',(1.,0.,0.));
#473=DIRECTION('center_axis',(0.,0.,1.));
#474=DIRECTION('ref_axis',(1.,0.,0.));
#475=DIRECTION('center_axis',(0.,0.,1.));
#476=DIRECTION('ref_axis',(1.,0.,0.));
#477=DIRECTION('center_axis',(0.,0.,1.));
#478=DIRECTION('ref_axis',(1.,0.,0.));
#479=DIRECTION('center_axis',(0.,0.,1.));
#480=DIRECTION('ref_axis',(1.,0.,0.));
#481=DIRECTION('center_axis',(0.,0.,1.));
#482=DIRECTION('ref_axis',(1.,0.,0.));
#483=DIRECTION('center_axis',(0.,0.,1.));
#484=DIRECTION('ref_axis',(1.,0.,0.));
#485=DIRECTION('center_axis',(0.,0.,1.));
#486=DIRECTION('ref_axis',(1.,0.,0.));
#487=DIRECTION('center_axis',(0.,0.,1.));
#488=DIRECTION('ref_axis',(1.,0.,0.));
#489=DIRECTION('center_axis',(0.,0.,1.));
#490=DIRECTION('ref_axis',(1.,0.,0.));
#491=DIRECTION('center_axis',(0.,0.,1.));
#492=DIRECTION('ref_axis',(1.,0.,0.));
#493=DIRECTION('',(0.,0.,1.));
#494=DIRECTION('center_axis',(0.,0.,1.));
#495=DIRECTION('ref_axis',(1.,0.,0.));
#496=DIRECTION('center_axis',(0.,0.,1.));
#497=DIRECTION('ref_axis',(1.,0.,0.));
#498=DIRECTION('center_axis',(0.,0.,1.));
#499=DIRECTION('ref_axis',(1.,0.,0.));
#500=DIRECTION('center_axis',(0.,0.,1.));
#501=DIRECTION('ref_axis',(1.,0.,0.));
#502=DIRECTION('center_axis',(0.,0.,-1.));
#503=DIRECTION('ref_axis',(-1.,0.,0.));
#504=DIRECTION('center_axis',(0.,0.,-1.));
#505=DIRECTION('ref_axis',(-1.,0.,0.));
#506=DIRECTION('center_axis',(0.,0.,-1.));
#507=DIRECTION('ref_axis',(-1.,0.,0.));
#508=DIRECTION('',(0.,0.,1.));
#509=DIRECTION('center_axis',(0.,0.,-1.));
#510=DIRECTION('ref_axis',(-1.,0.,0.));
#511=DIRECTION('center_axis',(0.,0.,1.));
#512=DIRECTION('ref_axis',(1.,0.,0.));
#513=DIRECTION('',(0.707106781186543,8.65956056235488E-17,-0.707106781186552));
#514=DIRECTION('center_axis',(0.,0.,-1.));
#515=DIRECTION('ref_axis',(-1.,0.,0.));
#516=DIRECTION('center_axis',(0.,0.,-1.));
#517=DIRECTION('ref_axis',(-1.,0.,0.));
#518=DIRECTION('center_axis',(0.,0.,-1.));
#519=DIRECTION('ref_axis',(-1.,0.,0.));
#520=DIRECTION('center_axis',(0.,0.,-1.));
#521=DIRECTION('ref_axis',(-1.,0.,0.));
#522=DIRECTION('center_axis',(1.22464679914735E-16,1.,0.));
#523=DIRECTION('ref_axis',(1.,-1.22464679914735E-16,0.));
#524=DIRECTION('center_axis',(0.,0.,-1.));
#525=DIRECTION('ref_axis',(-1.,0.,0.));
#526=DIRECTION('center_axis',(0.,0.,-1.));
#527=DIRECTION('ref_axis',(-1.,0.,0.));
#528=DIRECTION('center_axis',(0.,0.,-1.));
#529=DIRECTION('ref_axis',(-1.,0.,0.));
#530=DIRECTION('',(0.,0.,1.));
#531=DIRECTION('center_axis',(0.,0.,1.));
#532=DIRECTION('ref_axis',(1.,0.,0.));
#533=DIRECTION('',(0.707106781186548,8.65956056235493E-17,-0.707106781186548));
#534=DIRECTION('center_axis',(0.,0.,-1.));
#535=DIRECTION('ref_axis',(-1.,0.,0.));
#536=DIRECTION('center_axis',(0.,0.,-1.));
#537=DIRECTION('ref_axis',(-1.,0.,0.));
#538=DIRECTION('center_axis',(0.,0.,1.));
#539=DIRECTION('ref_axis',(1.,0.,0.));
#540=DIRECTION('center_axis',(0.,0.,1.));
#541=DIRECTION('ref_axis',(1.,0.,0.));
#542=DIRECTION('',(0.866025403784438,-0.5,0.));
#543=DIRECTION('center_axis',(0.,0.,1.));
#544=DIRECTION('ref_axis',(1.,0.,0.));
#545=DIRECTION('',(0.,-1.,0.));
#546=DIRECTION('center_axis',(0.,0.,1.));
#547=DIRECTION('ref_axis',(1.,0.,0.));
#548=DIRECTION('',(-0.866025403784439,-0.5,0.));
#549=DIRECTION('center_axis',(0.,0.,1.));
#550=DIRECTION('ref_axis',(1.,0.,0.));
#551=DIRECTION('',(-0.866025403784438,0.5,0.));
#552=DIRECTION('center_axis',(0.,0.,1.));
#553=DIRECTION('ref_axis',(1.,0.,0.));
#554=DIRECTION('',(3.7557864968429E-16,1.,0.));
#555=DIRECTION('center_axis',(0.,0.,1.));
#556=DIRECTION('ref_axis',(1.,0.,0.));
#557=DIRECTION('',(0.866025403784438,0.5,0.));
#558=DIRECTION('center_axis',(0.,0.,1.));
#559=DIRECTION('ref_axis',(1.,0.,0.));
#560=DIRECTION('',(0.,1.,0.));
#561=DIRECTION('',(-0.866025403784439,0.5,0.));
#562=DIRECTION('center_axis',(0.,0.,1.));
#563=DIRECTION('ref_axis',(1.,0.,0.));
#564=DIRECTION('',(0.866025403784439,0.5,0.));
#565=DIRECTION('',(0.,1.,0.));
#566=DIRECTION('center_axis',(0.,0.,1.));
#567=DIRECTION('ref_axis',(1.,0.,0.));
#568=DIRECTION('',(0.866025403784438,-0.5,0.));
#569=DIRECTION('',(0.866025403784439,0.5,0.));
#570=DIRECTION('center_axis',(0.,0.,1.));
#571=DIRECTION('ref_axis',(1.,0.,0.));
#572=DIRECTION('',(-3.7557864968429E-16,-1.,0.));
#573=DIRECTION('',(0.866025403784438,-0.5,0.));
#574=DIRECTION('center_axis',(0.,0.,1.));
#575=DIRECTION('ref_axis',(1.,0.,0.));
#576=DIRECTION('',(-0.866025403784438,0.5,0.));
#577=DIRECTION('',(-0.866025403784439,-0.5,0.));
#578=DIRECTION('center_axis',(0.,0.,1.));
#579=DIRECTION('ref_axis',(1.,0.,0.));
#580=DIRECTION('',(-0.866025403784439,-0.5,0.));
#581=DIRECTION('',(-3.7557864968429E-16,-1.,0.));
#582=DIRECTION('center_axis',(-0.5,0.866025403784439,0.));
#583=DIRECTION('ref_axis',(-0.866025403784439,-0.5,0.));
#584=DIRECTION('',(0.,0.,1.));
#585=DIRECTION('',(0.,0.,1.));
#586=DIRECTION('center_axis',(-1.,3.7557864968429E-16,0.));
#587=DIRECTION('ref_axis',(-3.7557864968429E-16,-1.,0.));
#588=DIRECTION('',(0.,0.,1.));
#589=DIRECTION('center_axis',(-0.5,-0.866025403784439,0.));
#590=DIRECTION('ref_axis',(0.866025403784439,-0.5,0.));
#591=DIRECTION('',(0.,0.,1.));
#592=DIRECTION('center_axis',(0.5,-0.866025403784439,0.));
#593=DIRECTION('ref_axis',(0.866025403784439,0.5,0.));
#594=DIRECTION('',(0.,0.,1.));
#595=DIRECTION('center_axis',(1.,0.,0.));
#596=DIRECTION('ref_axis',(0.,0.,-1.));
#597=DIRECTION('',(0.,0.,1.));
#598=DIRECTION('center_axis',(0.5,0.866025403784439,0.));
#599=DIRECTION('ref_axis',(-0.866025403784439,0.5,0.));
#600=CARTESIAN_POINT('',(0.,0.,0.));
#601=CARTESIAN_POINT('Origin',(0.,0.,998.22264973081));
#602=CARTESIAN_POINT('',(0.,-4.54325806857393E-16,-1.77735026918962));
#603=CARTESIAN_POINT('',(-1.,3.7557864968429E-16,-1.2));
#604=CARTESIAN_POINT('',(-1732.05080756888,-2.12115047744982E-13,998.22264973081));
#605=CARTESIAN_POINT('',(-0.5,-0.866025403784439,-1.2));
#606=CARTESIAN_POINT('Origin',(0.,0.,-1.2));
#607=CARTESIAN_POINT('',(0.5,-0.86602540378444,-1.2));
#608=CARTESIAN_POINT('Origin',(0.,0.,-1.2));
#609=CARTESIAN_POINT('',(1.,0.,-1.2));
#610=CARTESIAN_POINT('Origin',(0.,0.,-1.2));
#611=CARTESIAN_POINT('',(0.5,0.866025403784439,-1.2));
#612=CARTESIAN_POINT('Origin',(0.,0.,-1.2));
#613=CARTESIAN_POINT('',(-0.5,0.866025403784439,-1.2));
#614=CARTESIAN_POINT('Origin',(0.,0.,-1.2));
#615=CARTESIAN_POINT('Origin',(0.,0.,-1.2));
#616=CARTESIAN_POINT('Origin',(0.,0.,-0.2));
#617=CARTESIAN_POINT('',(0.999999999999996,-0.57735026918963,-0.2));
#618=CARTESIAN_POINT('',(0.999999999999998,0.577350269189626,-0.2));
#619=CARTESIAN_POINT('Origin',(0.,0.,-0.2));
#620=CARTESIAN_POINT('',(-6.61363325216158E-15,-1.15470053837925,-0.2));
#621=CARTESIAN_POINT('Origin',(0.,0.,-0.2));
#622=CARTESIAN_POINT('',(-1.,-0.577350269189621,-0.2));
#623=CARTESIAN_POINT('Origin',(0.,0.,-0.2));
#624=CARTESIAN_POINT('',(-1.15470053837925,-1.41410031829987E-16,-0.2));
#625=CARTESIAN_POINT('Origin',(0.,0.,-0.2));
#626=CARTESIAN_POINT('',(-1.15470053837925,-1.41410031829987E-16,0.));
#627=CARTESIAN_POINT('',(-1.15470053837925,-1.41410031829987E-16,-0.2));
#628=CARTESIAN_POINT('Origin',(0.,0.,0.));
#629=CARTESIAN_POINT('',(-1.,0.577350269189625,-0.2));
#630=CARTESIAN_POINT('Origin',(0.,0.,-0.2));
#631=CARTESIAN_POINT('',(-1.30104260698261E-15,1.15470053837925,-0.2));
#632=CARTESIAN_POINT('Origin',(0.,0.,-0.2));
#633=CARTESIAN_POINT('Origin',(0.,0.,-0.2));
#634=CARTESIAN_POINT('Origin',(0.,0.,0.));
#635=CARTESIAN_POINT('',(-3.,3.67394039744206E-16,-0.158578643762677));
#636=CARTESIAN_POINT('',(3.,-3.67394039744206E-16,-0.158578643762677));
#637=CARTESIAN_POINT('Origin',(0.,0.,-0.158578643762677));
#638=CARTESIAN_POINT('Origin',(0.,0.,-0.158578643762677));
#639=CARTESIAN_POINT('',(3.,-3.67394039744206E-16,0.));
#640=CARTESIAN_POINT('',(3.,-3.67394039744206E-16,0.));
#641=CARTESIAN_POINT('Origin',(0.,0.,0.));
#642=CARTESIAN_POINT('Origin',(0.,0.,-1.62928932188135));
#643=CARTESIAN_POINT('',(-1.52928932188135,-1.87283927301222E-16,-1.62928932188135));
#644=CARTESIAN_POINT('',(-1.52928932188135,-1.87283927301222E-16,-1.62928932188135));
#645=CARTESIAN_POINT('',(1.52928932188135,1.87283927301222E-16,-1.62928932188135));
#646=CARTESIAN_POINT('Origin',(0.,0.,-1.62928932188135));
#647=CARTESIAN_POINT('Origin',(0.,0.,-1.62928932188135));
#648=CARTESIAN_POINT('Origin',(0.,0.,-1.7));
#649=CARTESIAN_POINT('',(1.5,-1.83697019872103E-16,-1.7));
#650=CARTESIAN_POINT('Origin',(0.,0.,-1.7));
#651=CARTESIAN_POINT('Origin',(1.6,-1.95943487863577E-16,-1.7));
#652=CARTESIAN_POINT('Origin',(0.,0.,0.));
#653=CARTESIAN_POINT('',(-1.5,1.83697019872103E-16,-7.75000000000001));
#654=CARTESIAN_POINT('',(1.5,-1.83697019872103E-16,-7.75000000000001));
#655=CARTESIAN_POINT('Origin',(0.,0.,-7.75000000000001));
#656=CARTESIAN_POINT('Origin',(0.,0.,-7.75000000000001));
#657=CARTESIAN_POINT('',(1.5,-1.83697019872103E-16,0.));
#658=CARTESIAN_POINT('Origin',(0.,0.,-8.00000000000001));
#659=CARTESIAN_POINT('',(-1.25,-1.53080849893419E-16,-8.00000000000001));
#660=CARTESIAN_POINT('',(-1.25,-1.53080849893419E-16,-8.00000000000001));
#661=CARTESIAN_POINT('Origin',(0.,0.,-8.00000000000001));
#662=CARTESIAN_POINT('Origin',(0.,1.25,-8.00000000000001));
#663=CARTESIAN_POINT('Origin',(0.,0.,0.));
#664=CARTESIAN_POINT('Origin',(0.,0.,-0.2));
#665=CARTESIAN_POINT('',(0.999999999999998,0.577350269189625,-0.2));
#666=CARTESIAN_POINT('Origin',(0.,0.,-0.2));
#667=CARTESIAN_POINT('',(0.999999999999998,-0.577350269189628,-0.2));
#668=CARTESIAN_POINT('Origin',(0.,0.,-0.2));
#669=CARTESIAN_POINT('',(-1.27129263545111E-15,-1.15470053837925,-0.2));
#670=CARTESIAN_POINT('Origin',(0.,0.,-0.2));
#671=CARTESIAN_POINT('',(-1.,-0.577350269189627,-0.2));
#672=CARTESIAN_POINT('Origin',(0.,0.,-0.2));
#673=CARTESIAN_POINT('',(-1.,0.577350269189625,-0.2));
#674=CARTESIAN_POINT('Origin',(0.,0.,-0.2));
#675=CARTESIAN_POINT('',(-8.40996450236892E-16,1.15470053837925,-0.2));
#676=CARTESIAN_POINT('Origin',(0.,0.,-1.2));
#677=CARTESIAN_POINT('',(0.999999999999998,0.577350269189625,-1.2));
#678=CARTESIAN_POINT('',(0.999999999999998,-0.577350269189628,-1.2));
#679=CARTESIAN_POINT('',(0.999999999999998,0.577350269189625,-1.2));
#680=CARTESIAN_POINT('Origin',(0.,0.,-1.2));
#681=CARTESIAN_POINT('',(0.999999999999998,-0.577350269189628,-1.2));
#682=CARTESIAN_POINT('',(-1.27129263545111E-15,-1.15470053837925,-1.2));
#683=CARTESIAN_POINT('',(0.999999999999998,-0.577350269189628,-1.2));
#684=CARTESIAN_POINT('Origin',(0.,0.,-1.2));
#685=CARTESIAN_POINT('',(-1.27129263545111E-15,-1.15470053837925,-1.2));
#686=CARTESIAN_POINT('',(-1.,-0.577350269189627,-1.2));
#687=CARTESIAN_POINT('',(-1.27129263545111E-15,-1.15470053837925,-1.2));
#688=CARTESIAN_POINT('Origin',(0.,0.,-1.2));
#689=CARTESIAN_POINT('',(-1.,-0.577350269189627,-1.2));
#690=CARTESIAN_POINT('',(-1.,0.577350269189625,-1.2));
#691=CARTESIAN_POINT('',(-1.,-0.577350269189627,-1.2));
#692=CARTESIAN_POINT('Origin',(0.,0.,-1.2));
#693=CARTESIAN_POINT('',(-8.40996450236892E-16,1.15470053837925,-1.2));
#694=CARTESIAN_POINT('',(0.999999999999998,0.577350269189625,-1.2));
#695=CARTESIAN_POINT('',(-8.40996450236892E-16,1.15470053837925,-1.2));
#696=CARTESIAN_POINT('Origin',(0.,0.,-1.2));
#697=CARTESIAN_POINT('',(-1.,0.577350269189625,-1.2));
#698=CARTESIAN_POINT('',(-8.40996450236892E-16,1.15470053837925,-1.2));
#699=CARTESIAN_POINT('',(-1.,0.577350269189625,-1.2));
#700=CARTESIAN_POINT('Origin',(-8.40996450236892E-16,1.15470053837925,-1.2));
#701=CARTESIAN_POINT('',(-1.,0.577350269189625,-1.2));
#702=CARTESIAN_POINT('',(-8.40996450236892E-16,1.15470053837925,-1.2));
#703=CARTESIAN_POINT('Origin',(-1.,0.577350269189625,-1.2));
#704=CARTESIAN_POINT('',(-1.,-0.577350269189627,-1.2));
#705=CARTESIAN_POINT('Origin',(-1.,-0.577350269189627,-1.2));
#706=CARTESIAN_POINT('',(-1.27129263545111E-15,-1.15470053837925,-1.2));
#707=CARTESIAN_POINT('Origin',(-1.27129263545111E-15,-1.15470053837925,
-1.2));
#708=CARTESIAN_POINT('',(0.999999999999998,-0.577350269189628,-1.2));
#709=CARTESIAN_POINT('Origin',(0.999999999999998,-0.577350269189628,-1.2));
#710=CARTESIAN_POINT('',(0.999999999999998,0.577350269189625,-1.2));
#711=CARTESIAN_POINT('Origin',(0.999999999999998,0.577350269189625,-1.2));
#712=UNCERTAINTY_MEASURE_WITH_UNIT(LENGTH_MEASURE(0.01),#716,
'DISTANCE_ACCURACY_VALUE',
'Maximum model space distance between geometric entities at asserted c
onnectivities');
#713=UNCERTAINTY_MEASURE_WITH_UNIT(LENGTH_MEASURE(0.01),#716,
'DISTANCE_ACCURACY_VALUE',
'Maximum model space distance between geometric entities at asserted c
onnectivities');
#714=(
GEOMETRIC_REPRESENTATION_CONTEXT(3)
GLOBAL_UNCERTAINTY_ASSIGNED_CONTEXT((#712))
GLOBAL_UNIT_ASSIGNED_CONTEXT((#716,#718,#719))
REPRESENTATION_CONTEXT('','3D')
);
#715=(
GEOMETRIC_REPRESENTATION_CONTEXT(3)
GLOBAL_UNCERTAINTY_ASSIGNED_CONTEXT((#713))
GLOBAL_UNIT_ASSIGNED_CONTEXT((#716,#718,#719))
REPRESENTATION_CONTEXT('','3D')
);
#716=(
LENGTH_UNIT()
NAMED_UNIT(*)
SI_UNIT(.MILLI.,.METRE.)
);
#717=(
LENGTH_UNIT()
NAMED_UNIT(*)
SI_UNIT($,.METRE.)
);
#718=(
NAMED_UNIT(*)
PLANE_ANGLE_UNIT()
SI_UNIT($,.RADIAN.)
);
#719=(
NAMED_UNIT(*)
SI_UNIT($,.STERADIAN.)
SOLID_ANGLE_UNIT()
);
#720=SHAPE_DEFINITION_REPRESENTATION(#721,#722);
#721=PRODUCT_DEFINITION_SHAPE('',$,#724);
#722=SHAPE_REPRESENTATION('',(#414),#714);
#723=PRODUCT_DEFINITION_CONTEXT('part definition',#728,'design');
#724=PRODUCT_DEFINITION('TR Fastenings Ltd-M3X8mm','BOLT_CSK_M3_8mm v1',
#725,#723);
#725=PRODUCT_DEFINITION_FORMATION('',$,#730);
#726=PRODUCT_RELATED_PRODUCT_CATEGORY('BOLT_CSK_M3_8mm v1',
'BOLT_CSK_M3_8mm v1',(#730));
#727=APPLICATION_PROTOCOL_DEFINITION('international standard',
'automotive_design',2009,#728);
#728=APPLICATION_CONTEXT(
'Core Data for Automotive Mechanical Design Process');
#729=PRODUCT_CONTEXT('part definition',#728,'mechanical');
#730=PRODUCT('TR Fastenings Ltd-M3X8mm','BOLT_CSK_M3_8mm v1',
'STEP AP214',(#729));
#731=PRESENTATION_STYLE_ASSIGNMENT((#733));
#732=PRESENTATION_STYLE_ASSIGNMENT((#734));
#733=SURFACE_STYLE_USAGE(.BOTH.,#735);
#734=SURFACE_STYLE_USAGE(.BOTH.,#736);
#735=SURFACE_SIDE_STYLE('',(#737));
#736=SURFACE_SIDE_STYLE('',(#738));
#737=SURFACE_STYLE_FILL_AREA(#739);
#738=SURFACE_STYLE_FILL_AREA(#740);
#739=FILL_AREA_STYLE('Acier - Satin\X\E9',(#741));
#740=FILL_AREA_STYLE('Opaque(202,209,238)',(#742));
#741=FILL_AREA_STYLE_COLOUR('Acier - Satin\X\E9',#743);
#742=FILL_AREA_STYLE_COLOUR('Opaque(202,209,238)',#744);
#743=COLOUR_RGB('Acier - Satin\X\E9',0.627450980392157,0.627450980392157,
0.627450980392157);
#744=COLOUR_RGB('Opaque(202,209,238)',0.792156862745098,0.819607843137255,
0.933333333333333);
ENDSEC;
END-ISO-10303-21;
