ISO-10303-21;
HEADER;
/* Generated by software containing ST-Developer
 * from STEP Tools, Inc. (www.steptools.com) 
 */

FILE_DESCRIPTION(
/* description */ (''),
/* implementation_level */ '2;1');

FILE_NAME(
/* name */ 'BOLT_BHSCS_M3_6mm.step',
/* time_stamp */ '2026-08-10T14:32:41+02:00',
/* author */ (''),
/* organization */ (''),
/* preprocessor_version */ 'ST-DEVELOPER v20.1',
/* originating_system */ 'Autodesk Translation Framework v15.8.0.0',
/* authorisation */ '');

FILE_SCHEMA (('AUTOMOTIVE_DESIGN { 1 0 10303 214 3 1 1 }'));
ENDSEC;

DATA;
#10=MECHANICAL_DESIGN_GEOMETRIC_PRESENTATION_REPRESENTATION('',(#13),#1459);
#11=SHAPE_REPRESENTATION_RELATIONSHIP('SRR','None',#1466,#12);
#12=ADVANCED_BREP_SHAPE_REPRESENTATION('',(#14),#1458);
#13=STYLED_ITEM('',(#1476),#14);
#14=MANIFOLD_SOLID_BREP('Corps1',#824);
#15=FACE_BOUND('',#165,.T.);
#16=ELLIPSE('',#846,1.42994863069264,1.25);
#17=ELLIPSE('',#847,20.8772500081125,18.25);
#18=ELLIPSE('',#848,20.8772500081118,18.2499999999994);
#19=ELLIPSE('',#849,1.42994863069264,1.25);
#20=ELLIPSE('',#853,1.42994863069264,1.25);
#21=ELLIPSE('',#854,20.8772500081125,18.25);
#22=ELLIPSE('',#855,20.8772500081118,18.2499999999994);
#23=ELLIPSE('',#856,1.42994863069264,1.25);
#24=ELLIPSE('',#862,1.42994863069264,1.25);
#25=ELLIPSE('',#863,20.8772500081125,18.25);
#26=ELLIPSE('',#864,20.8772500081118,18.2499999999994);
#27=ELLIPSE('',#865,1.42994863069264,1.25);
#28=ELLIPSE('',#874,1.42994863069264,1.25);
#29=ELLIPSE('',#875,20.8772500081125,18.25);
#30=ELLIPSE('',#876,20.8772500081118,18.2499999999994);
#31=ELLIPSE('',#877,1.42994863069264,1.25);
#32=B_SPLINE_CURVE_WITH_KNOTS('',3,(#1156,#1157,#1158,#1159,#1160,#1161),
 .UNSPECIFIED.,.F.,.F.,(4,2,4),(-0.0296761746650334,-0.0157209295778277,
0.),.UNSPECIFIED.);
#33=B_SPLINE_CURVE_WITH_KNOTS('',3,(#1165,#1166,#1167,#1168,#1169,#1170),
 .UNSPECIFIED.,.F.,.F.,(4,2,4),(0.,0.0345723412633169,0.0737603674575665),
 .UNSPECIFIED.);
#34=B_SPLINE_CURVE_WITH_KNOTS('',3,(#1215,#1216,#1217,#1218,#1219,#1220),
 .UNSPECIFIED.,.F.,.F.,(4,2,4),(-0.0296761746648997,-0.0157209295777655,
0.),.UNSPECIFIED.);
#35=B_SPLINE_CURVE_WITH_KNOTS('',3,(#1223,#1224,#1225,#1226,#1227,#1228),
 .UNSPECIFIED.,.F.,.F.,(4,2,4),(0.,0.0321954359315415,0.0685987132050095),
 .UNSPECIFIED.);
#36=B_SPLINE_CURVE_WITH_KNOTS('',3,(#1251,#1252,#1253,#1254,#1255,#1256),
 .UNSPECIFIED.,.F.,.F.,(4,2,4),(0.,0.027443459937457,0.0516987316358251),
 .UNSPECIFIED.);
#37=B_SPLINE_CURVE_WITH_KNOTS('',3,(#1260,#1261,#1262,#1263,#1264,#1265),
 .UNSPECIFIED.,.F.,.F.,(4,2,4),(-0.0485791088892511,-0.0228439522078341,
0.),.UNSPECIFIED.);
#38=B_SPLINE_CURVE_WITH_KNOTS('',3,(#1307,#1308,#1309,#1310,#1311,#1312),
 .UNSPECIFIED.,.F.,.F.,(4,2,4),(-0.0296763164701869,-0.0157210053070403,
0.),.UNSPECIFIED.);
#39=B_SPLINE_CURVE_WITH_KNOTS('',3,(#1315,#1316,#1317,#1318,#1319,#1320),
 .UNSPECIFIED.,.F.,.F.,(4,2,4),(0.,0.0321953179802677,0.0685987622724537),
 .UNSPECIFIED.);
#40=B_SPLINE_SURFACE_WITH_KNOTS('',3,1,((#1142,#1143),(#1144,#1145),(#1146,
#1147),(#1148,#1149),(#1150,#1151),(#1152,#1153)),.UNSPECIFIED.,.F.,.F.,
 .F.,(4,1,1,4),(2,2),(0.,0.285714285714286,0.571428571428571,1.),(0.,0.29871858154658),
 .UNSPECIFIED.);
#41=B_SPLINE_SURFACE_WITH_KNOTS('',3,1,((#1202,#1203),(#1204,#1205),(#1206,
#1207),(#1208,#1209),(#1210,#1211),(#1212,#1213)),.UNSPECIFIED.,.F.,.F.,
 .F.,(4,1,1,4),(2,2),(0.,0.285714285714286,0.571428571428571,1.),(0.,0.29871858154658),
 .UNSPECIFIED.);
#42=B_SPLINE_SURFACE_WITH_KNOTS('',3,1,((#1237,#1238),(#1239,#1240),(#1241,
#1242),(#1243,#1244),(#1245,#1246),(#1247,#1248)),.UNSPECIFIED.,.F.,.F.,
 .F.,(4,1,1,4),(2,2),(0.,0.285714285714286,0.571428571428571,1.),(0.,0.29871858154658),
 .UNSPECIFIED.);
#43=B_SPLINE_SURFACE_WITH_KNOTS('',3,1,((#1294,#1295),(#1296,#1297),(#1298,
#1299),(#1300,#1301),(#1302,#1303),(#1304,#1305)),.UNSPECIFIED.,.F.,.F.,
 .F.,(4,1,1,4),(2,2),(0.,0.285714285714286,0.571428571428571,1.),(0.,0.298718580897669),
 .UNSPECIFIED.);
#44=PLANE('',#843);
#45=PLANE('',#844);
#46=PLANE('',#845);
#47=PLANE('',#850);
#48=PLANE('',#851);
#49=PLANE('',#852);
#50=PLANE('',#857);
#51=PLANE('',#858);
#52=PLANE('',#859);
#53=PLANE('',#860);
#54=PLANE('',#861);
#55=PLANE('',#866);
#56=PLANE('',#867);
#57=PLANE('',#868);
#58=PLANE('',#873);
#59=PLANE('',#880);
#60=PLANE('',#881);
#61=PLANE('',#882);
#62=PLANE('',#889);
#63=PLANE('',#890);
#64=PLANE('',#903);
#65=PLANE('',#904);
#66=PLANE('',#905);
#67=PLANE('',#906);
#68=PLANE('',#907);
#69=CYLINDRICAL_SURFACE('',#841,1.5);
#70=CYLINDRICAL_SURFACE('',#869,18.25);
#71=CYLINDRICAL_SURFACE('',#871,1.25);
#72=CYLINDRICAL_SURFACE('',#878,18.2499999999994);
#73=CYLINDRICAL_SURFACE('',#883,18.25);
#74=CYLINDRICAL_SURFACE('',#885,1.25);
#75=CYLINDRICAL_SURFACE('',#887,18.2499999999994);
#76=CYLINDRICAL_SURFACE('',#891,1.25);
#77=CYLINDRICAL_SURFACE('',#893,18.25);
#78=CYLINDRICAL_SURFACE('',#895,18.2499999999994);
#79=CYLINDRICAL_SURFACE('',#897,1.25);
#80=CYLINDRICAL_SURFACE('',#899,18.25);
#81=CYLINDRICAL_SURFACE('',#901,18.2499999999994);
#82=FACE_OUTER_BOUND('',#125,.T.);
#83=FACE_OUTER_BOUND('',#126,.T.);
#84=FACE_OUTER_BOUND('',#127,.T.);
#85=FACE_OUTER_BOUND('',#128,.T.);
#86=FACE_OUTER_BOUND('',#129,.T.);
#87=FACE_OUTER_BOUND('',#130,.T.);
#88=FACE_OUTER_BOUND('',#131,.T.);
#89=FACE_OUTER_BOUND('',#132,.T.);
#90=FACE_OUTER_BOUND('',#133,.T.);
#91=FACE_OUTER_BOUND('',#134,.T.);
#92=FACE_OUTER_BOUND('',#135,.T.);
#93=FACE_OUTER_BOUND('',#136,.T.);
#94=FACE_OUTER_BOUND('',#137,.T.);
#95=FACE_OUTER_BOUND('',#138,.T.);
#96=FACE_OUTER_BOUND('',#139,.T.);
#97=FACE_OUTER_BOUND('',#140,.T.);
#98=FACE_OUTER_BOUND('',#141,.T.);
#99=FACE_OUTER_BOUND('',#142,.T.);
#100=FACE_OUTER_BOUND('',#143,.T.);
#101=FACE_OUTER_BOUND('',#144,.T.);
#102=FACE_OUTER_BOUND('',#145,.T.);
#103=FACE_OUTER_BOUND('',#146,.T.);
#104=FACE_OUTER_BOUND('',#147,.T.);
#105=FACE_OUTER_BOUND('',#148,.T.);
#106=FACE_OUTER_BOUND('',#149,.T.);
#107=FACE_OUTER_BOUND('',#150,.T.);
#108=FACE_OUTER_BOUND('',#151,.T.);
#109=FACE_OUTER_BOUND('',#152,.T.);
#110=FACE_OUTER_BOUND('',#153,.T.);
#111=FACE_OUTER_BOUND('',#154,.T.);
#112=FACE_OUTER_BOUND('',#155,.T.);
#113=FACE_OUTER_BOUND('',#156,.T.);
#114=FACE_OUTER_BOUND('',#157,.T.);
#115=FACE_OUTER_BOUND('',#158,.T.);
#116=FACE_OUTER_BOUND('',#159,.T.);
#117=FACE_OUTER_BOUND('',#160,.T.);
#118=FACE_OUTER_BOUND('',#161,.T.);
#119=FACE_OUTER_BOUND('',#162,.T.);
#120=FACE_OUTER_BOUND('',#163,.T.);
#121=FACE_OUTER_BOUND('',#164,.T.);
#122=FACE_OUTER_BOUND('',#166,.T.);
#123=FACE_OUTER_BOUND('',#167,.T.);
#124=FACE_OUTER_BOUND('',#168,.T.);
#125=EDGE_LOOP('',(#542,#543,#544,#545));
#126=EDGE_LOOP('',(#546,#547,#548,#549));
#127=EDGE_LOOP('',(#550));
#128=EDGE_LOOP('',(#551,#552,#553,#554));
#129=EDGE_LOOP('',(#555,#556,#557,#558,#559,#560));
#130=EDGE_LOOP('',(#561,#562,#563,#564,#565,#566,#567,#568,#569,#570,#571,
#572));
#131=EDGE_LOOP('',(#573,#574,#575,#576));
#132=EDGE_LOOP('',(#577,#578,#579,#580,#581,#582));
#133=EDGE_LOOP('',(#583,#584,#585,#586));
#134=EDGE_LOOP('',(#587,#588,#589,#590,#591,#592));
#135=EDGE_LOOP('',(#593,#594,#595,#596,#597,#598,#599,#600,#601,#602,#603,
#604));
#136=EDGE_LOOP('',(#605,#606,#607,#608));
#137=EDGE_LOOP('',(#609,#610,#611,#612,#613,#614));
#138=EDGE_LOOP('',(#615,#616,#617,#618));
#139=EDGE_LOOP('',(#619,#620,#621,#622));
#140=EDGE_LOOP('',(#623,#624,#625,#626,#627,#628));
#141=EDGE_LOOP('',(#629,#630,#631,#632,#633,#634,#635,#636,#637,#638,#639));
#142=EDGE_LOOP('',(#640,#641,#642,#643));
#143=EDGE_LOOP('',(#644,#645,#646,#647));
#144=EDGE_LOOP('',(#648,#649,#650,#651));
#145=EDGE_LOOP('',(#652,#653,#654,#655));
#146=EDGE_LOOP('',(#656,#657,#658,#659,#660,#661));
#147=EDGE_LOOP('',(#662,#663,#664,#665,#666,#667,#668,#669,#670,#671,#672));
#148=EDGE_LOOP('',(#673,#674,#675,#676));
#149=EDGE_LOOP('',(#677,#678,#679,#680));
#150=EDGE_LOOP('',(#681,#682,#683,#684));
#151=EDGE_LOOP('',(#685,#686,#687,#688));
#152=EDGE_LOOP('',(#689,#690,#691,#692));
#153=EDGE_LOOP('',(#693,#694,#695,#696,#697,#698));
#154=EDGE_LOOP('',(#699,#700,#701,#702));
#155=EDGE_LOOP('',(#703,#704,#705,#706));
#156=EDGE_LOOP('',(#707,#708,#709,#710));
#157=EDGE_LOOP('',(#711,#712,#713,#714,#715,#716));
#158=EDGE_LOOP('',(#717,#718,#719,#720));
#159=EDGE_LOOP('',(#721,#722,#723,#724));
#160=EDGE_LOOP('',(#725,#726,#727,#728,#729,#730));
#161=EDGE_LOOP('',(#731,#732,#733,#734));
#162=EDGE_LOOP('',(#735,#736,#737,#738));
#163=EDGE_LOOP('',(#739,#740,#741,#742));
#164=EDGE_LOOP('',(#743,#744,#745,#746,#747,#748,#749,#750,#751,#752,#753,
#754,#755,#756,#757,#758,#759,#760,#761,#762,#763,#764,#765,#766));
#165=EDGE_LOOP('',(#767));
#166=EDGE_LOOP('',(#768,#769,#770,#771));
#167=EDGE_LOOP('',(#772,#773,#774,#775));
#168=EDGE_LOOP('',(#776,#777,#778,#779));
#169=LINE('',#1135,#249);
#170=LINE('',#1139,#250);
#171=LINE('',#1163,#251);
#172=LINE('',#1171,#252);
#173=LINE('',#1174,#253);
#174=LINE('',#1176,#254);
#175=LINE('',#1178,#255);
#176=LINE('',#1180,#256);
#177=LINE('',#1181,#257);
#178=LINE('',#1188,#258);
#179=LINE('',#1190,#259);
#180=LINE('',#1192,#260);
#181=LINE('',#1198,#261);
#182=LINE('',#1200,#262);
#183=LINE('',#1201,#263);
#184=LINE('',#1222,#264);
#185=LINE('',#1231,#265);
#186=LINE('',#1233,#266);
#187=LINE('',#1235,#267);
#188=LINE('',#1236,#268);
#189=LINE('',#1258,#269);
#190=LINE('',#1266,#270);
#191=LINE('',#1269,#271);
#192=LINE('',#1271,#272);
#193=LINE('',#1272,#273);
#194=LINE('',#1273,#274);
#195=LINE('',#1280,#275);
#196=LINE('',#1282,#276);
#197=LINE('',#1284,#277);
#198=LINE('',#1290,#278);
#199=LINE('',#1292,#279);
#200=LINE('',#1293,#280);
#201=LINE('',#1314,#281);
#202=LINE('',#1322,#282);
#203=LINE('',#1324,#283);
#204=LINE('',#1325,#284);
#205=LINE('',#1327,#285);
#206=LINE('',#1329,#286);
#207=LINE('',#1337,#287);
#208=LINE('',#1339,#288);
#209=LINE('',#1341,#289);
#210=LINE('',#1347,#290);
#211=LINE('',#1349,#291);
#212=LINE('',#1350,#292);
#213=LINE('',#1353,#293);
#214=LINE('',#1354,#294);
#215=LINE('',#1357,#295);
#216=LINE('',#1358,#296);
#217=LINE('',#1361,#297);
#218=LINE('',#1365,#298);
#219=LINE('',#1373,#299);
#220=LINE('',#1375,#300);
#221=LINE('',#1377,#301);
#222=LINE('',#1383,#302);
#223=LINE('',#1387,#303);
#224=LINE('',#1388,#304);
#225=LINE('',#1391,#305);
#226=LINE('',#1393,#306);
#227=LINE('',#1394,#307);
#228=LINE('',#1397,#308);
#229=LINE('',#1398,#309);
#230=LINE('',#1401,#310);
#231=LINE('',#1405,#311);
#232=LINE('',#1409,#312);
#233=LINE('',#1413,#313);
#234=LINE('',#1414,#314);
#235=LINE('',#1417,#315);
#236=LINE('',#1418,#316);
#237=LINE('',#1421,#317);
#238=LINE('',#1424,#318);
#239=LINE('',#1428,#319);
#240=LINE('',#1433,#320);
#241=LINE('',#1436,#321);
#242=LINE('',#1440,#322);
#243=LINE('',#1443,#323);
#244=LINE('',#1446,#324);
#245=LINE('',#1449,#325);
#246=LINE('',#1450,#326);
#247=LINE('',#1451,#327);
#248=LINE('',#1454,#328);
#249=VECTOR('',#914,1.45);
#250=VECTOR('',#919,1.5);
#251=VECTOR('',#924,2.32193571971758);
#252=VECTOR('',#925,2.48011070582654);
#253=VECTOR('',#928,0.027730645775552);
#254=VECTOR('',#929,0.844444444444444);
#255=VECTOR('',#930,1.15470053837925);
#256=VECTOR('',#931,0.758499700900416);
#257=VECTOR('',#932,0.582124334220858);
#258=VECTOR('',#939,0.057197945227704);
#259=VECTOR('',#940,0.2);
#260=VECTOR('',#941,0.057197945227704);
#261=VECTOR('',#946,2.32193571971758);
#262=VECTOR('',#947,0.027730645775552);
#263=VECTOR('',#948,1.15470053837925);
#264=VECTOR('',#949,2.48011070582654);
#265=VECTOR('',#952,0.582124334220857);
#266=VECTOR('',#953,0.758499700900415);
#267=VECTOR('',#954,1.15470053837925);
#268=VECTOR('',#955,0.844444444444444);
#269=VECTOR('',#956,2.48011070582654);
#270=VECTOR('',#957,2.32193571971758);
#271=VECTOR('',#960,0.027730645775552);
#272=VECTOR('',#961,0.844444444444444);
#273=VECTOR('',#962,1.15470053837925);
#274=VECTOR('',#963,0.582124334220857);
#275=VECTOR('',#970,0.057197945227704);
#276=VECTOR('',#971,0.2);
#277=VECTOR('',#972,0.057197945227704);
#278=VECTOR('',#977,2.32193571971758);
#279=VECTOR('',#978,0.027730645775552);
#280=VECTOR('',#979,1.15470053837925);
#281=VECTOR('',#980,2.48011070582654);
#282=VECTOR('',#983,0.582124334220857);
#283=VECTOR('',#984,1.15470053837925);
#284=VECTOR('',#985,0.844444444444444);
#285=VECTOR('',#988,1.15470053837925);
#286=VECTOR('',#991,1.15470053837925);
#287=VECTOR('',#1000,0.057197945227704);
#288=VECTOR('',#1001,0.2);
#289=VECTOR('',#1002,0.057197945227704);
#290=VECTOR('',#1009,0.455555555555556);
#291=VECTOR('',#1010,0.05);
#292=VECTOR('',#1011,0.427777777777778);
#293=VECTOR('',#1014,0.455555555555556);
#294=VECTOR('',#1015,0.2);
#295=VECTOR('',#1018,0.427777777777779);
#296=VECTOR('',#1019,0.049999999999999);
#297=VECTOR('',#1022,0.4);
#298=VECTOR('',#1027,0.4);
#299=VECTOR('',#1036,0.057197945227704);
#300=VECTOR('',#1037,0.2);
#301=VECTOR('',#1038,0.057197945227704);
#302=VECTOR('',#1045,0.427777777777778);
#303=VECTOR('',#1050,0.455555555555557);
#304=VECTOR('',#1051,0.05);
#305=VECTOR('',#1054,0.455555555555556);
#306=VECTOR('',#1055,0.2);
#307=VECTOR('',#1056,0.455555555555556);
#308=VECTOR('',#1059,0.427777777777779);
#309=VECTOR('',#1060,0.049999999999999);
#310=VECTOR('',#1063,0.4);
#311=VECTOR('',#1068,0.4);
#312=VECTOR('',#1073,0.427777777777778);
#313=VECTOR('',#1078,0.455555555555555);
#314=VECTOR('',#1079,0.05);
#315=VECTOR('',#1082,0.455555555555555);
#316=VECTOR('',#1083,0.2);
#317=VECTOR('',#1086,0.4);
#318=VECTOR('',#1089,0.4);
#319=VECTOR('',#1094,0.427777777777779);
#320=VECTOR('',#1101,0.4);
#321=VECTOR('',#1104,0.4);
#322=VECTOR('',#1109,0.427777777777779);
#323=VECTOR('',#1112,0.427777777777778);
#324=VECTOR('',#1117,0.049999999999999);
#325=VECTOR('',#1120,0.2);
#326=VECTOR('',#1121,0.049999999999999);
#327=VECTOR('',#1122,0.05);
#328=VECTOR('',#1127,0.455555555555557);
#329=CIRCLE('',#839,1.5);
#330=CIRCLE('',#840,1.4);
#331=CIRCLE('',#842,1.5);
#332=CIRCLE('',#870,18.25);
#333=CIRCLE('',#872,1.25);
#334=CIRCLE('',#879,18.2499999999994);
#335=CIRCLE('',#884,18.25);
#336=CIRCLE('',#886,1.25);
#337=CIRCLE('',#888,18.2499999999994);
#338=CIRCLE('',#892,1.25);
#339=CIRCLE('',#894,18.25);
#340=CIRCLE('',#896,18.2499999999994);
#341=CIRCLE('',#898,1.25);
#342=CIRCLE('',#900,18.25);
#343=CIRCLE('',#902,18.2499999999994);
#344=VERTEX_POINT('',#1132);
#345=VERTEX_POINT('',#1134);
#346=VERTEX_POINT('',#1138);
#347=VERTEX_POINT('',#1154);
#348=VERTEX_POINT('',#1155);
#349=VERTEX_POINT('',#1162);
#350=VERTEX_POINT('',#1164);
#351=VERTEX_POINT('',#1173);
#352=VERTEX_POINT('',#1175);
#353=VERTEX_POINT('',#1177);
#354=VERTEX_POINT('',#1179);
#355=VERTEX_POINT('',#1183);
#356=VERTEX_POINT('',#1185);
#357=VERTEX_POINT('',#1187);
#358=VERTEX_POINT('',#1189);
#359=VERTEX_POINT('',#1191);
#360=VERTEX_POINT('',#1193);
#361=VERTEX_POINT('',#1195);
#362=VERTEX_POINT('',#1197);
#363=VERTEX_POINT('',#1199);
#364=VERTEX_POINT('',#1214);
#365=VERTEX_POINT('',#1221);
#366=VERTEX_POINT('',#1230);
#367=VERTEX_POINT('',#1232);
#368=VERTEX_POINT('',#1234);
#369=VERTEX_POINT('',#1249);
#370=VERTEX_POINT('',#1250);
#371=VERTEX_POINT('',#1257);
#372=VERTEX_POINT('',#1259);
#373=VERTEX_POINT('',#1268);
#374=VERTEX_POINT('',#1270);
#375=VERTEX_POINT('',#1275);
#376=VERTEX_POINT('',#1277);
#377=VERTEX_POINT('',#1279);
#378=VERTEX_POINT('',#1281);
#379=VERTEX_POINT('',#1283);
#380=VERTEX_POINT('',#1285);
#381=VERTEX_POINT('',#1287);
#382=VERTEX_POINT('',#1289);
#383=VERTEX_POINT('',#1291);
#384=VERTEX_POINT('',#1306);
#385=VERTEX_POINT('',#1313);
#386=VERTEX_POINT('',#1323);
#387=VERTEX_POINT('',#1332);
#388=VERTEX_POINT('',#1334);
#389=VERTEX_POINT('',#1336);
#390=VERTEX_POINT('',#1338);
#391=VERTEX_POINT('',#1340);
#392=VERTEX_POINT('',#1342);
#393=VERTEX_POINT('',#1346);
#394=VERTEX_POINT('',#1348);
#395=VERTEX_POINT('',#1352);
#396=VERTEX_POINT('',#1356);
#397=VERTEX_POINT('',#1360);
#398=VERTEX_POINT('',#1364);
#399=VERTEX_POINT('',#1368);
#400=VERTEX_POINT('',#1370);
#401=VERTEX_POINT('',#1372);
#402=VERTEX_POINT('',#1374);
#403=VERTEX_POINT('',#1376);
#404=VERTEX_POINT('',#1378);
#405=VERTEX_POINT('',#1382);
#406=VERTEX_POINT('',#1386);
#407=VERTEX_POINT('',#1390);
#408=VERTEX_POINT('',#1392);
#409=VERTEX_POINT('',#1396);
#410=VERTEX_POINT('',#1400);
#411=VERTEX_POINT('',#1404);
#412=VERTEX_POINT('',#1408);
#413=VERTEX_POINT('',#1412);
#414=VERTEX_POINT('',#1416);
#415=VERTEX_POINT('',#1420);
#416=VERTEX_POINT('',#1422);
#417=VERTEX_POINT('',#1426);
#418=VERTEX_POINT('',#1432);
#419=VERTEX_POINT('',#1434);
#420=VERTEX_POINT('',#1438);
#421=VERTEX_POINT('',#1442);
#422=VERTEX_POINT('',#1448);
#423=EDGE_CURVE('',#344,#344,#329,.T.);
#424=EDGE_CURVE('',#344,#345,#169,.T.);
#425=EDGE_CURVE('',#345,#345,#330,.T.);
#426=EDGE_CURVE('',#344,#346,#170,.T.);
#427=EDGE_CURVE('',#346,#346,#331,.T.);
#428=EDGE_CURVE('',#347,#348,#32,.T.);
#429=EDGE_CURVE('',#348,#349,#171,.T.);
#430=EDGE_CURVE('',#349,#350,#33,.T.);
#431=EDGE_CURVE('',#350,#347,#172,.T.);
#432=EDGE_CURVE('',#351,#349,#173,.T.);
#433=EDGE_CURVE('',#352,#351,#174,.T.);
#434=EDGE_CURVE('',#353,#352,#175,.T.);
#435=EDGE_CURVE('',#353,#354,#176,.T.);
#436=EDGE_CURVE('',#350,#354,#177,.T.);
#437=EDGE_CURVE('',#355,#348,#16,.T.);
#438=EDGE_CURVE('',#356,#355,#17,.T.);
#439=EDGE_CURVE('',#357,#356,#178,.T.);
#440=EDGE_CURVE('',#358,#357,#179,.T.);
#441=EDGE_CURVE('',#359,#358,#180,.T.);
#442=EDGE_CURVE('',#360,#359,#18,.T.);
#443=EDGE_CURVE('',#361,#360,#19,.T.);
#444=EDGE_CURVE('',#362,#361,#181,.T.);
#445=EDGE_CURVE('',#362,#363,#182,.T.);
#446=EDGE_CURVE('',#363,#351,#183,.T.);
#447=EDGE_CURVE('',#361,#364,#34,.T.);
#448=EDGE_CURVE('',#364,#365,#184,.T.);
#449=EDGE_CURVE('',#365,#362,#35,.T.);
#450=EDGE_CURVE('',#366,#365,#185,.T.);
#451=EDGE_CURVE('',#367,#366,#186,.T.);
#452=EDGE_CURVE('',#368,#367,#187,.T.);
#453=EDGE_CURVE('',#368,#363,#188,.T.);
#454=EDGE_CURVE('',#369,#370,#36,.T.);
#455=EDGE_CURVE('',#370,#371,#189,.T.);
#456=EDGE_CURVE('',#371,#372,#37,.T.);
#457=EDGE_CURVE('',#372,#369,#190,.T.);
#458=EDGE_CURVE('',#373,#369,#191,.T.);
#459=EDGE_CURVE('',#374,#373,#192,.T.);
#460=EDGE_CURVE('',#367,#374,#193,.T.);
#461=EDGE_CURVE('',#370,#366,#194,.T.);
#462=EDGE_CURVE('',#375,#372,#20,.T.);
#463=EDGE_CURVE('',#376,#375,#21,.T.);
#464=EDGE_CURVE('',#377,#376,#195,.T.);
#465=EDGE_CURVE('',#378,#377,#196,.T.);
#466=EDGE_CURVE('',#379,#378,#197,.T.);
#467=EDGE_CURVE('',#380,#379,#22,.T.);
#468=EDGE_CURVE('',#381,#380,#23,.T.);
#469=EDGE_CURVE('',#382,#381,#198,.T.);
#470=EDGE_CURVE('',#382,#383,#199,.T.);
#471=EDGE_CURVE('',#383,#373,#200,.T.);
#472=EDGE_CURVE('',#381,#384,#38,.T.);
#473=EDGE_CURVE('',#384,#385,#201,.T.);
#474=EDGE_CURVE('',#385,#382,#39,.T.);
#475=EDGE_CURVE('',#354,#385,#202,.T.);
#476=EDGE_CURVE('',#386,#353,#203,.T.);
#477=EDGE_CURVE('',#386,#383,#204,.T.);
#478=EDGE_CURVE('',#352,#368,#205,.T.);
#479=EDGE_CURVE('',#374,#386,#206,.T.);
#480=EDGE_CURVE('',#387,#384,#24,.T.);
#481=EDGE_CURVE('',#388,#387,#25,.T.);
#482=EDGE_CURVE('',#389,#388,#207,.T.);
#483=EDGE_CURVE('',#390,#389,#208,.T.);
#484=EDGE_CURVE('',#391,#390,#209,.T.);
#485=EDGE_CURVE('',#392,#391,#26,.T.);
#486=EDGE_CURVE('',#347,#392,#27,.T.);
#487=EDGE_CURVE('',#393,#390,#210,.T.);
#488=EDGE_CURVE('',#394,#393,#211,.T.);
#489=EDGE_CURVE('',#394,#391,#212,.T.);
#490=EDGE_CURVE('',#395,#389,#213,.T.);
#491=EDGE_CURVE('',#393,#395,#214,.T.);
#492=EDGE_CURVE('',#388,#396,#215,.T.);
#493=EDGE_CURVE('',#395,#396,#216,.T.);
#494=EDGE_CURVE('',#387,#397,#217,.T.);
#495=EDGE_CURVE('',#396,#397,#332,.T.);
#496=EDGE_CURVE('',#380,#398,#218,.T.);
#497=EDGE_CURVE('',#397,#398,#333,.T.);
#498=EDGE_CURVE('',#399,#364,#28,.T.);
#499=EDGE_CURVE('',#400,#399,#29,.T.);
#500=EDGE_CURVE('',#401,#400,#219,.T.);
#501=EDGE_CURVE('',#402,#401,#220,.T.);
#502=EDGE_CURVE('',#403,#402,#221,.T.);
#503=EDGE_CURVE('',#404,#403,#30,.T.);
#504=EDGE_CURVE('',#371,#404,#31,.T.);
#505=EDGE_CURVE('',#405,#379,#222,.T.);
#506=EDGE_CURVE('',#398,#405,#334,.T.);
#507=EDGE_CURVE('',#406,#378,#223,.T.);
#508=EDGE_CURVE('',#405,#406,#224,.T.);
#509=EDGE_CURVE('',#407,#401,#225,.T.);
#510=EDGE_CURVE('',#408,#407,#226,.T.);
#511=EDGE_CURVE('',#408,#402,#227,.T.);
#512=EDGE_CURVE('',#400,#409,#228,.T.);
#513=EDGE_CURVE('',#407,#409,#229,.T.);
#514=EDGE_CURVE('',#399,#410,#230,.T.);
#515=EDGE_CURVE('',#409,#410,#335,.T.);
#516=EDGE_CURVE('',#360,#411,#231,.T.);
#517=EDGE_CURVE('',#410,#411,#336,.T.);
#518=EDGE_CURVE('',#412,#359,#232,.T.);
#519=EDGE_CURVE('',#411,#412,#337,.T.);
#520=EDGE_CURVE('',#413,#358,#233,.T.);
#521=EDGE_CURVE('',#412,#413,#234,.T.);
#522=EDGE_CURVE('',#414,#357,#235,.T.);
#523=EDGE_CURVE('',#413,#414,#236,.T.);
#524=EDGE_CURVE('',#392,#415,#237,.T.);
#525=EDGE_CURVE('',#416,#415,#338,.T.);
#526=EDGE_CURVE('',#355,#416,#238,.T.);
#527=EDGE_CURVE('',#417,#416,#339,.T.);
#528=EDGE_CURVE('',#356,#417,#239,.T.);
#529=EDGE_CURVE('',#415,#394,#340,.T.);
#530=EDGE_CURVE('',#404,#418,#240,.T.);
#531=EDGE_CURVE('',#419,#418,#341,.T.);
#532=EDGE_CURVE('',#375,#419,#241,.T.);
#533=EDGE_CURVE('',#420,#419,#342,.T.);
#534=EDGE_CURVE('',#376,#420,#242,.T.);
#535=EDGE_CURVE('',#421,#403,#243,.T.);
#536=EDGE_CURVE('',#418,#421,#343,.T.);
#537=EDGE_CURVE('',#414,#417,#244,.T.);
#538=EDGE_CURVE('',#406,#422,#245,.T.);
#539=EDGE_CURVE('',#422,#420,#246,.T.);
#540=EDGE_CURVE('',#421,#408,#247,.T.);
#541=EDGE_CURVE('',#422,#377,#248,.T.);
#542=ORIENTED_EDGE('',*,*,#423,.T.);
#543=ORIENTED_EDGE('',*,*,#424,.T.);
#544=ORIENTED_EDGE('',*,*,#425,.T.);
#545=ORIENTED_EDGE('',*,*,#424,.F.);
#546=ORIENTED_EDGE('',*,*,#423,.F.);
#547=ORIENTED_EDGE('',*,*,#426,.T.);
#548=ORIENTED_EDGE('',*,*,#427,.F.);
#549=ORIENTED_EDGE('',*,*,#426,.F.);
#550=ORIENTED_EDGE('',*,*,#425,.F.);
#551=ORIENTED_EDGE('',*,*,#428,.T.);
#552=ORIENTED_EDGE('',*,*,#429,.T.);
#553=ORIENTED_EDGE('',*,*,#430,.T.);
#554=ORIENTED_EDGE('',*,*,#431,.T.);
#555=ORIENTED_EDGE('',*,*,#430,.F.);
#556=ORIENTED_EDGE('',*,*,#432,.F.);
#557=ORIENTED_EDGE('',*,*,#433,.F.);
#558=ORIENTED_EDGE('',*,*,#434,.F.);
#559=ORIENTED_EDGE('',*,*,#435,.T.);
#560=ORIENTED_EDGE('',*,*,#436,.F.);
#561=ORIENTED_EDGE('',*,*,#429,.F.);
#562=ORIENTED_EDGE('',*,*,#437,.F.);
#563=ORIENTED_EDGE('',*,*,#438,.F.);
#564=ORIENTED_EDGE('',*,*,#439,.F.);
#565=ORIENTED_EDGE('',*,*,#440,.F.);
#566=ORIENTED_EDGE('',*,*,#441,.F.);
#567=ORIENTED_EDGE('',*,*,#442,.F.);
#568=ORIENTED_EDGE('',*,*,#443,.F.);
#569=ORIENTED_EDGE('',*,*,#444,.F.);
#570=ORIENTED_EDGE('',*,*,#445,.T.);
#571=ORIENTED_EDGE('',*,*,#446,.T.);
#572=ORIENTED_EDGE('',*,*,#432,.T.);
#573=ORIENTED_EDGE('',*,*,#447,.T.);
#574=ORIENTED_EDGE('',*,*,#448,.T.);
#575=ORIENTED_EDGE('',*,*,#449,.T.);
#576=ORIENTED_EDGE('',*,*,#444,.T.);
#577=ORIENTED_EDGE('',*,*,#449,.F.);
#578=ORIENTED_EDGE('',*,*,#450,.F.);
#579=ORIENTED_EDGE('',*,*,#451,.F.);
#580=ORIENTED_EDGE('',*,*,#452,.F.);
#581=ORIENTED_EDGE('',*,*,#453,.T.);
#582=ORIENTED_EDGE('',*,*,#445,.F.);
#583=ORIENTED_EDGE('',*,*,#454,.T.);
#584=ORIENTED_EDGE('',*,*,#455,.T.);
#585=ORIENTED_EDGE('',*,*,#456,.T.);
#586=ORIENTED_EDGE('',*,*,#457,.T.);
#587=ORIENTED_EDGE('',*,*,#454,.F.);
#588=ORIENTED_EDGE('',*,*,#458,.F.);
#589=ORIENTED_EDGE('',*,*,#459,.F.);
#590=ORIENTED_EDGE('',*,*,#460,.F.);
#591=ORIENTED_EDGE('',*,*,#451,.T.);
#592=ORIENTED_EDGE('',*,*,#461,.F.);
#593=ORIENTED_EDGE('',*,*,#457,.F.);
#594=ORIENTED_EDGE('',*,*,#462,.F.);
#595=ORIENTED_EDGE('',*,*,#463,.F.);
#596=ORIENTED_EDGE('',*,*,#464,.F.);
#597=ORIENTED_EDGE('',*,*,#465,.F.);
#598=ORIENTED_EDGE('',*,*,#466,.F.);
#599=ORIENTED_EDGE('',*,*,#467,.F.);
#600=ORIENTED_EDGE('',*,*,#468,.F.);
#601=ORIENTED_EDGE('',*,*,#469,.F.);
#602=ORIENTED_EDGE('',*,*,#470,.T.);
#603=ORIENTED_EDGE('',*,*,#471,.T.);
#604=ORIENTED_EDGE('',*,*,#458,.T.);
#605=ORIENTED_EDGE('',*,*,#472,.T.);
#606=ORIENTED_EDGE('',*,*,#473,.T.);
#607=ORIENTED_EDGE('',*,*,#474,.T.);
#608=ORIENTED_EDGE('',*,*,#469,.T.);
#609=ORIENTED_EDGE('',*,*,#474,.F.);
#610=ORIENTED_EDGE('',*,*,#475,.F.);
#611=ORIENTED_EDGE('',*,*,#435,.F.);
#612=ORIENTED_EDGE('',*,*,#476,.F.);
#613=ORIENTED_EDGE('',*,*,#477,.T.);
#614=ORIENTED_EDGE('',*,*,#470,.F.);
#615=ORIENTED_EDGE('',*,*,#446,.F.);
#616=ORIENTED_EDGE('',*,*,#453,.F.);
#617=ORIENTED_EDGE('',*,*,#478,.F.);
#618=ORIENTED_EDGE('',*,*,#433,.T.);
#619=ORIENTED_EDGE('',*,*,#471,.F.);
#620=ORIENTED_EDGE('',*,*,#477,.F.);
#621=ORIENTED_EDGE('',*,*,#479,.F.);
#622=ORIENTED_EDGE('',*,*,#459,.T.);
#623=ORIENTED_EDGE('',*,*,#479,.T.);
#624=ORIENTED_EDGE('',*,*,#476,.T.);
#625=ORIENTED_EDGE('',*,*,#434,.T.);
#626=ORIENTED_EDGE('',*,*,#478,.T.);
#627=ORIENTED_EDGE('',*,*,#452,.T.);
#628=ORIENTED_EDGE('',*,*,#460,.T.);
#629=ORIENTED_EDGE('',*,*,#431,.F.);
#630=ORIENTED_EDGE('',*,*,#436,.T.);
#631=ORIENTED_EDGE('',*,*,#475,.T.);
#632=ORIENTED_EDGE('',*,*,#473,.F.);
#633=ORIENTED_EDGE('',*,*,#480,.F.);
#634=ORIENTED_EDGE('',*,*,#481,.F.);
#635=ORIENTED_EDGE('',*,*,#482,.F.);
#636=ORIENTED_EDGE('',*,*,#483,.F.);
#637=ORIENTED_EDGE('',*,*,#484,.F.);
#638=ORIENTED_EDGE('',*,*,#485,.F.);
#639=ORIENTED_EDGE('',*,*,#486,.F.);
#640=ORIENTED_EDGE('',*,*,#484,.T.);
#641=ORIENTED_EDGE('',*,*,#487,.F.);
#642=ORIENTED_EDGE('',*,*,#488,.F.);
#643=ORIENTED_EDGE('',*,*,#489,.T.);
#644=ORIENTED_EDGE('',*,*,#483,.T.);
#645=ORIENTED_EDGE('',*,*,#490,.F.);
#646=ORIENTED_EDGE('',*,*,#491,.F.);
#647=ORIENTED_EDGE('',*,*,#487,.T.);
#648=ORIENTED_EDGE('',*,*,#482,.T.);
#649=ORIENTED_EDGE('',*,*,#492,.T.);
#650=ORIENTED_EDGE('',*,*,#493,.F.);
#651=ORIENTED_EDGE('',*,*,#490,.T.);
#652=ORIENTED_EDGE('',*,*,#481,.T.);
#653=ORIENTED_EDGE('',*,*,#494,.T.);
#654=ORIENTED_EDGE('',*,*,#495,.F.);
#655=ORIENTED_EDGE('',*,*,#492,.F.);
#656=ORIENTED_EDGE('',*,*,#472,.F.);
#657=ORIENTED_EDGE('',*,*,#468,.T.);
#658=ORIENTED_EDGE('',*,*,#496,.T.);
#659=ORIENTED_EDGE('',*,*,#497,.F.);
#660=ORIENTED_EDGE('',*,*,#494,.F.);
#661=ORIENTED_EDGE('',*,*,#480,.T.);
#662=ORIENTED_EDGE('',*,*,#448,.F.);
#663=ORIENTED_EDGE('',*,*,#498,.F.);
#664=ORIENTED_EDGE('',*,*,#499,.F.);
#665=ORIENTED_EDGE('',*,*,#500,.F.);
#666=ORIENTED_EDGE('',*,*,#501,.F.);
#667=ORIENTED_EDGE('',*,*,#502,.F.);
#668=ORIENTED_EDGE('',*,*,#503,.F.);
#669=ORIENTED_EDGE('',*,*,#504,.F.);
#670=ORIENTED_EDGE('',*,*,#455,.F.);
#671=ORIENTED_EDGE('',*,*,#461,.T.);
#672=ORIENTED_EDGE('',*,*,#450,.T.);
#673=ORIENTED_EDGE('',*,*,#467,.T.);
#674=ORIENTED_EDGE('',*,*,#505,.F.);
#675=ORIENTED_EDGE('',*,*,#506,.F.);
#676=ORIENTED_EDGE('',*,*,#496,.F.);
#677=ORIENTED_EDGE('',*,*,#466,.T.);
#678=ORIENTED_EDGE('',*,*,#507,.F.);
#679=ORIENTED_EDGE('',*,*,#508,.F.);
#680=ORIENTED_EDGE('',*,*,#505,.T.);
#681=ORIENTED_EDGE('',*,*,#501,.T.);
#682=ORIENTED_EDGE('',*,*,#509,.F.);
#683=ORIENTED_EDGE('',*,*,#510,.F.);
#684=ORIENTED_EDGE('',*,*,#511,.T.);
#685=ORIENTED_EDGE('',*,*,#500,.T.);
#686=ORIENTED_EDGE('',*,*,#512,.T.);
#687=ORIENTED_EDGE('',*,*,#513,.F.);
#688=ORIENTED_EDGE('',*,*,#509,.T.);
#689=ORIENTED_EDGE('',*,*,#499,.T.);
#690=ORIENTED_EDGE('',*,*,#514,.T.);
#691=ORIENTED_EDGE('',*,*,#515,.F.);
#692=ORIENTED_EDGE('',*,*,#512,.F.);
#693=ORIENTED_EDGE('',*,*,#447,.F.);
#694=ORIENTED_EDGE('',*,*,#443,.T.);
#695=ORIENTED_EDGE('',*,*,#516,.T.);
#696=ORIENTED_EDGE('',*,*,#517,.F.);
#697=ORIENTED_EDGE('',*,*,#514,.F.);
#698=ORIENTED_EDGE('',*,*,#498,.T.);
#699=ORIENTED_EDGE('',*,*,#442,.T.);
#700=ORIENTED_EDGE('',*,*,#518,.F.);
#701=ORIENTED_EDGE('',*,*,#519,.F.);
#702=ORIENTED_EDGE('',*,*,#516,.F.);
#703=ORIENTED_EDGE('',*,*,#441,.T.);
#704=ORIENTED_EDGE('',*,*,#520,.F.);
#705=ORIENTED_EDGE('',*,*,#521,.F.);
#706=ORIENTED_EDGE('',*,*,#518,.T.);
#707=ORIENTED_EDGE('',*,*,#440,.T.);
#708=ORIENTED_EDGE('',*,*,#522,.F.);
#709=ORIENTED_EDGE('',*,*,#523,.F.);
#710=ORIENTED_EDGE('',*,*,#520,.T.);
#711=ORIENTED_EDGE('',*,*,#428,.F.);
#712=ORIENTED_EDGE('',*,*,#486,.T.);
#713=ORIENTED_EDGE('',*,*,#524,.T.);
#714=ORIENTED_EDGE('',*,*,#525,.F.);
#715=ORIENTED_EDGE('',*,*,#526,.F.);
#716=ORIENTED_EDGE('',*,*,#437,.T.);
#717=ORIENTED_EDGE('',*,*,#438,.T.);
#718=ORIENTED_EDGE('',*,*,#526,.T.);
#719=ORIENTED_EDGE('',*,*,#527,.F.);
#720=ORIENTED_EDGE('',*,*,#528,.F.);
#721=ORIENTED_EDGE('',*,*,#485,.T.);
#722=ORIENTED_EDGE('',*,*,#489,.F.);
#723=ORIENTED_EDGE('',*,*,#529,.F.);
#724=ORIENTED_EDGE('',*,*,#524,.F.);
#725=ORIENTED_EDGE('',*,*,#456,.F.);
#726=ORIENTED_EDGE('',*,*,#504,.T.);
#727=ORIENTED_EDGE('',*,*,#530,.T.);
#728=ORIENTED_EDGE('',*,*,#531,.F.);
#729=ORIENTED_EDGE('',*,*,#532,.F.);
#730=ORIENTED_EDGE('',*,*,#462,.T.);
#731=ORIENTED_EDGE('',*,*,#463,.T.);
#732=ORIENTED_EDGE('',*,*,#532,.T.);
#733=ORIENTED_EDGE('',*,*,#533,.F.);
#734=ORIENTED_EDGE('',*,*,#534,.F.);
#735=ORIENTED_EDGE('',*,*,#503,.T.);
#736=ORIENTED_EDGE('',*,*,#535,.F.);
#737=ORIENTED_EDGE('',*,*,#536,.F.);
#738=ORIENTED_EDGE('',*,*,#530,.F.);
#739=ORIENTED_EDGE('',*,*,#439,.T.);
#740=ORIENTED_EDGE('',*,*,#528,.T.);
#741=ORIENTED_EDGE('',*,*,#537,.F.);
#742=ORIENTED_EDGE('',*,*,#522,.T.);
#743=ORIENTED_EDGE('',*,*,#529,.T.);
#744=ORIENTED_EDGE('',*,*,#488,.T.);
#745=ORIENTED_EDGE('',*,*,#491,.T.);
#746=ORIENTED_EDGE('',*,*,#493,.T.);
#747=ORIENTED_EDGE('',*,*,#495,.T.);
#748=ORIENTED_EDGE('',*,*,#497,.T.);
#749=ORIENTED_EDGE('',*,*,#506,.T.);
#750=ORIENTED_EDGE('',*,*,#508,.T.);
#751=ORIENTED_EDGE('',*,*,#538,.T.);
#752=ORIENTED_EDGE('',*,*,#539,.T.);
#753=ORIENTED_EDGE('',*,*,#533,.T.);
#754=ORIENTED_EDGE('',*,*,#531,.T.);
#755=ORIENTED_EDGE('',*,*,#536,.T.);
#756=ORIENTED_EDGE('',*,*,#540,.T.);
#757=ORIENTED_EDGE('',*,*,#510,.T.);
#758=ORIENTED_EDGE('',*,*,#513,.T.);
#759=ORIENTED_EDGE('',*,*,#515,.T.);
#760=ORIENTED_EDGE('',*,*,#517,.T.);
#761=ORIENTED_EDGE('',*,*,#519,.T.);
#762=ORIENTED_EDGE('',*,*,#521,.T.);
#763=ORIENTED_EDGE('',*,*,#523,.T.);
#764=ORIENTED_EDGE('',*,*,#537,.T.);
#765=ORIENTED_EDGE('',*,*,#527,.T.);
#766=ORIENTED_EDGE('',*,*,#525,.T.);
#767=ORIENTED_EDGE('',*,*,#427,.T.);
#768=ORIENTED_EDGE('',*,*,#502,.T.);
#769=ORIENTED_EDGE('',*,*,#511,.F.);
#770=ORIENTED_EDGE('',*,*,#540,.F.);
#771=ORIENTED_EDGE('',*,*,#535,.T.);
#772=ORIENTED_EDGE('',*,*,#464,.T.);
#773=ORIENTED_EDGE('',*,*,#534,.T.);
#774=ORIENTED_EDGE('',*,*,#539,.F.);
#775=ORIENTED_EDGE('',*,*,#541,.T.);
#776=ORIENTED_EDGE('',*,*,#465,.T.);
#777=ORIENTED_EDGE('',*,*,#541,.F.);
#778=ORIENTED_EDGE('',*,*,#538,.F.);
#779=ORIENTED_EDGE('',*,*,#507,.T.);
#780=CONICAL_SURFACE('',#838,1.45,0.785398163397448);
#781=ADVANCED_FACE('',(#82),#780,.T.);
#782=ADVANCED_FACE('',(#83),#69,.T.);
#783=ADVANCED_FACE('',(#84),#44,.F.);
#784=ADVANCED_FACE('',(#85),#40,.F.);
#785=ADVANCED_FACE('',(#86),#45,.F.);
#786=ADVANCED_FACE('',(#87),#46,.F.);
#787=ADVANCED_FACE('',(#88),#41,.F.);
#788=ADVANCED_FACE('',(#89),#47,.F.);
#789=ADVANCED_FACE('',(#90),#42,.F.);
#790=ADVANCED_FACE('',(#91),#48,.F.);
#791=ADVANCED_FACE('',(#92),#49,.F.);
#792=ADVANCED_FACE('',(#93),#43,.F.);
#793=ADVANCED_FACE('',(#94),#50,.F.);
#794=ADVANCED_FACE('',(#95),#51,.F.);
#795=ADVANCED_FACE('',(#96),#52,.F.);
#796=ADVANCED_FACE('',(#97),#53,.T.);
#797=ADVANCED_FACE('',(#98),#54,.F.);
#798=ADVANCED_FACE('',(#99),#55,.F.);
#799=ADVANCED_FACE('',(#100),#56,.F.);
#800=ADVANCED_FACE('',(#101),#57,.F.);
#801=ADVANCED_FACE('',(#102),#70,.T.);
#802=ADVANCED_FACE('',(#103),#71,.T.);
#803=ADVANCED_FACE('',(#104),#58,.F.);
#804=ADVANCED_FACE('',(#105),#72,.T.);
#805=ADVANCED_FACE('',(#106),#59,.F.);
#806=ADVANCED_FACE('',(#107),#60,.F.);
#807=ADVANCED_FACE('',(#108),#61,.F.);
#808=ADVANCED_FACE('',(#109),#73,.T.);
#809=ADVANCED_FACE('',(#110),#74,.T.);
#810=ADVANCED_FACE('',(#111),#75,.T.);
#811=ADVANCED_FACE('',(#112),#62,.F.);
#812=ADVANCED_FACE('',(#113),#63,.F.);
#813=ADVANCED_FACE('',(#114),#76,.T.);
#814=ADVANCED_FACE('',(#115),#77,.T.);
#815=ADVANCED_FACE('',(#116),#78,.T.);
#816=ADVANCED_FACE('',(#117),#79,.T.);
#817=ADVANCED_FACE('',(#118),#80,.T.);
#818=ADVANCED_FACE('',(#119),#81,.T.);
#819=ADVANCED_FACE('',(#120),#64,.F.);
#820=ADVANCED_FACE('',(#121,#15),#65,.T.);
#821=ADVANCED_FACE('',(#122),#66,.F.);
#822=ADVANCED_FACE('',(#123),#67,.F.);
#823=ADVANCED_FACE('',(#124),#68,.F.);
#824=CLOSED_SHELL('',(#781,#782,#783,#784,#785,#786,#787,#788,#789,#790,
#791,#792,#793,#794,#795,#796,#797,#798,#799,#800,#801,#802,#803,#804,#805,
#806,#807,#808,#809,#810,#811,#812,#813,#814,#815,#816,#817,#818,#819,#820,
#821,#822,#823));
#825=DERIVED_UNIT_ELEMENT(#827,1.);
#826=DERIVED_UNIT_ELEMENT(#1461,-3.);
#827=(
MASS_UNIT()
NAMED_UNIT(*)
SI_UNIT(.KILO.,.GRAM.)
);
#828=DERIVED_UNIT((#825,#826));
#829=MEASURE_REPRESENTATION_ITEM('density measure',
POSITIVE_RATIO_MEASURE(7850.),#828);
#830=PROPERTY_DEFINITION_REPRESENTATION(#835,#832);
#831=PROPERTY_DEFINITION_REPRESENTATION(#836,#833);
#832=REPRESENTATION('material name',(#834),#1458);
#833=REPRESENTATION('density',(#829),#1458);
#834=DESCRIPTIVE_REPRESENTATION_ITEM('Acier','Acier');
#835=PROPERTY_DEFINITION('material property','material name',#1468);
#836=PROPERTY_DEFINITION('material property','density of part',#1468);
#837=AXIS2_PLACEMENT_3D('',#1130,#908,#909);
#838=AXIS2_PLACEMENT_3D('',#1131,#910,#911);
#839=AXIS2_PLACEMENT_3D('',#1133,#912,#913);
#840=AXIS2_PLACEMENT_3D('',#1136,#915,#916);
#841=AXIS2_PLACEMENT_3D('',#1137,#917,#918);
#842=AXIS2_PLACEMENT_3D('',#1140,#920,#921);
#843=AXIS2_PLACEMENT_3D('',#1141,#922,#923);
#844=AXIS2_PLACEMENT_3D('',#1172,#926,#927);
#845=AXIS2_PLACEMENT_3D('',#1182,#933,#934);
#846=AXIS2_PLACEMENT_3D('',#1184,#935,#936);
#847=AXIS2_PLACEMENT_3D('',#1186,#937,#938);
#848=AXIS2_PLACEMENT_3D('',#1194,#942,#943);
#849=AXIS2_PLACEMENT_3D('',#1196,#944,#945);
#850=AXIS2_PLACEMENT_3D('',#1229,#950,#951);
#851=AXIS2_PLACEMENT_3D('',#1267,#958,#959);
#852=AXIS2_PLACEMENT_3D('',#1274,#964,#965);
#853=AXIS2_PLACEMENT_3D('',#1276,#966,#967);
#854=AXIS2_PLACEMENT_3D('',#1278,#968,#969);
#855=AXIS2_PLACEMENT_3D('',#1286,#973,#974);
#856=AXIS2_PLACEMENT_3D('',#1288,#975,#976);
#857=AXIS2_PLACEMENT_3D('',#1321,#981,#982);
#858=AXIS2_PLACEMENT_3D('',#1326,#986,#987);
#859=AXIS2_PLACEMENT_3D('',#1328,#989,#990);
#860=AXIS2_PLACEMENT_3D('',#1330,#992,#993);
#861=AXIS2_PLACEMENT_3D('',#1331,#994,#995);
#862=AXIS2_PLACEMENT_3D('',#1333,#996,#997);
#863=AXIS2_PLACEMENT_3D('',#1335,#998,#999);
#864=AXIS2_PLACEMENT_3D('',#1343,#1003,#1004);
#865=AXIS2_PLACEMENT_3D('',#1344,#1005,#1006);
#866=AXIS2_PLACEMENT_3D('',#1345,#1007,#1008);
#867=AXIS2_PLACEMENT_3D('',#1351,#1012,#1013);
#868=AXIS2_PLACEMENT_3D('',#1355,#1016,#1017);
#869=AXIS2_PLACEMENT_3D('',#1359,#1020,#1021);
#870=AXIS2_PLACEMENT_3D('',#1362,#1023,#1024);
#871=AXIS2_PLACEMENT_3D('',#1363,#1025,#1026);
#872=AXIS2_PLACEMENT_3D('',#1366,#1028,#1029);
#873=AXIS2_PLACEMENT_3D('',#1367,#1030,#1031);
#874=AXIS2_PLACEMENT_3D('',#1369,#1032,#1033);
#875=AXIS2_PLACEMENT_3D('',#1371,#1034,#1035);
#876=AXIS2_PLACEMENT_3D('',#1379,#1039,#1040);
#877=AXIS2_PLACEMENT_3D('',#1380,#1041,#1042);
#878=AXIS2_PLACEMENT_3D('',#1381,#1043,#1044);
#879=AXIS2_PLACEMENT_3D('',#1384,#1046,#1047);
#880=AXIS2_PLACEMENT_3D('',#1385,#1048,#1049);
#881=AXIS2_PLACEMENT_3D('',#1389,#1052,#1053);
#882=AXIS2_PLACEMENT_3D('',#1395,#1057,#1058);
#883=AXIS2_PLACEMENT_3D('',#1399,#1061,#1062);
#884=AXIS2_PLACEMENT_3D('',#1402,#1064,#1065);
#885=AXIS2_PLACEMENT_3D('',#1403,#1066,#1067);
#886=AXIS2_PLACEMENT_3D('',#1406,#1069,#1070);
#887=AXIS2_PLACEMENT_3D('',#1407,#1071,#1072);
#888=AXIS2_PLACEMENT_3D('',#1410,#1074,#1075);
#889=AXIS2_PLACEMENT_3D('',#1411,#1076,#1077);
#890=AXIS2_PLACEMENT_3D('',#1415,#1080,#1081);
#891=AXIS2_PLACEMENT_3D('',#1419,#1084,#1085);
#892=AXIS2_PLACEMENT_3D('',#1423,#1087,#1088);
#893=AXIS2_PLACEMENT_3D('',#1425,#1090,#1091);
#894=AXIS2_PLACEMENT_3D('',#1427,#1092,#1093);
#895=AXIS2_PLACEMENT_3D('',#1429,#1095,#1096);
#896=AXIS2_PLACEMENT_3D('',#1430,#1097,#1098);
#897=AXIS2_PLACEMENT_3D('',#1431,#1099,#1100);
#898=AXIS2_PLACEMENT_3D('',#1435,#1102,#1103);
#899=AXIS2_PLACEMENT_3D('',#1437,#1105,#1106);
#900=AXIS2_PLACEMENT_3D('',#1439,#1107,#1108);
#901=AXIS2_PLACEMENT_3D('',#1441,#1110,#1111);
#902=AXIS2_PLACEMENT_3D('',#1444,#1113,#1114);
#903=AXIS2_PLACEMENT_3D('',#1445,#1115,#1116);
#904=AXIS2_PLACEMENT_3D('',#1447,#1118,#1119);
#905=AXIS2_PLACEMENT_3D('',#1452,#1123,#1124);
#906=AXIS2_PLACEMENT_3D('',#1453,#1125,#1126);
#907=AXIS2_PLACEMENT_3D('',#1455,#1128,#1129);
#908=DIRECTION('axis',(0.,0.,1.));
#909=DIRECTION('refdir',(1.,0.,0.));
#910=DIRECTION('center_axis',(-1.83697E-16,1.,0.));
#911=DIRECTION('ref_axis',(-1.,-1.83697E-16,0.));
#912=DIRECTION('center_axis',(0.,-1.,0.));
#913=DIRECTION('ref_axis',(-1.,0.,0.));
#914=DIRECTION('',(-0.707106781186547,-0.707106781186548,8.65956056235493E-17));
#915=DIRECTION('center_axis',(0.,1.,0.));
#916=DIRECTION('ref_axis',(-1.,0.,0.));
#917=DIRECTION('center_axis',(1.850372E-16,-1.,0.));
#918=DIRECTION('ref_axis',(-1.,-1.850372E-16,0.));
#919=DIRECTION('',(-1.850372E-16,1.,0.));
#920=DIRECTION('center_axis',(0.,1.,0.));
#921=DIRECTION('ref_axis',(-1.,0.,0.));
#922=DIRECTION('center_axis',(0.,1.,0.));
#923=DIRECTION('ref_axis',(0.,0.,1.));
#924=DIRECTION('',(-0.658145181714418,0.365636212063565,-0.658145181714418));
#925=DIRECTION('',(0.658145181714418,-0.365636212063565,0.658145181714418));
#926=DIRECTION('center_axis',(0.5,9.912706E-17,0.866025403784439));
#927=DIRECTION('ref_axis',(0.866025403784439,0.,-0.5));
#928=DIRECTION('',(-0.780398972571708,0.433554984762062,0.450563556889581));
#929=DIRECTION('',(0.,1.,0.));
#930=DIRECTION('',(0.866025403784439,1.922963E-16,-0.499999999999999));
#931=DIRECTION('',(0.,1.,0.));
#932=DIRECTION('',(-0.834430986740808,-0.267643863786094,0.48175895481497));
#933=DIRECTION('center_axis',(-0.485642931178632,-0.874157276121538,-8.921116E-17));
#934=DIRECTION('ref_axis',(0.874157276121538,-0.485642931178632,1.605801E-16));
#935=DIRECTION('center_axis',(-0.485642931178632,-0.874157276121538,-8.921116E-17));
#936=DIRECTION('ref_axis',(-0.874157276121538,0.485642931178632,-1.605801E-16));
#937=DIRECTION('center_axis',(-0.485642931178632,-0.874157276121538,-8.921116E-17));
#938=DIRECTION('ref_axis',(-0.874157276121538,0.485642931178632,-1.605801E-16));
#939=DIRECTION('',(0.874157276121538,-0.485642931178631,0.));
#940=DIRECTION('',(0.,0.,1.));
#941=DIRECTION('',(-0.874157276121538,0.485642931178631,0.));
#942=DIRECTION('center_axis',(-0.485642931178632,-0.874157276121538,-8.921116E-17));
#943=DIRECTION('ref_axis',(-0.874157276121538,0.485642931178632,-1.329465E-16));
#944=DIRECTION('center_axis',(-0.485642931178632,-0.874157276121538,-8.921116E-17));
#945=DIRECTION('ref_axis',(-0.874157276121538,0.485642931178632,0.));
#946=DIRECTION('',(0.658145181714418,-0.365636212063565,-0.658145181714418));
#947=DIRECTION('',(0.780398972571707,-0.433554984762063,0.450563556889582));
#948=DIRECTION('',(0.,0.,1.));
#949=DIRECTION('',(-0.658145181714418,0.365636212063565,0.658145181714418));
#950=DIRECTION('center_axis',(0.5,9.912706E-17,-0.866025403784439));
#951=DIRECTION('ref_axis',(-0.866025403784439,0.,-0.5));
#952=DIRECTION('',(0.834430986740808,0.267643863786094,0.48175895481497));
#953=DIRECTION('',(0.,1.,0.));
#954=DIRECTION('',(-0.866025403784438,-1.922963E-16,-0.5));
#955=DIRECTION('',(0.,1.,0.));
#956=DIRECTION('',(-0.658145181714418,-0.365636212063565,-0.658145181714418));
#957=DIRECTION('',(0.658145181714418,0.365636212063565,0.658145181714418));
#958=DIRECTION('center_axis',(-0.5,-9.912706E-17,-0.866025403784439));
#959=DIRECTION('ref_axis',(-0.866025403784439,0.,0.5));
#960=DIRECTION('',(0.780398972571708,0.433554984762062,-0.450563556889581));
#961=DIRECTION('',(0.,1.,0.));
#962=DIRECTION('',(-0.866025403784438,-1.922963E-16,0.5));
#963=DIRECTION('',(0.834430986740807,-0.267643863786095,-0.481758954814971));
#964=DIRECTION('center_axis',(0.485642931178632,-0.874157276121538,2.973705E-17));
#965=DIRECTION('ref_axis',(-0.874157276121538,-0.485642931178632,-5.35267E-17));
#966=DIRECTION('center_axis',(0.485642931178632,-0.874157276121538,2.973705E-17));
#967=DIRECTION('ref_axis',(0.874157276121538,0.485642931178632,5.35267E-17));
#968=DIRECTION('center_axis',(0.485642931178632,-0.874157276121538,2.973705E-17));
#969=DIRECTION('ref_axis',(0.874157276121538,0.485642931178632,5.35267E-17));
#970=DIRECTION('',(-0.874157276121538,-0.485642931178631,0.));
#971=DIRECTION('',(0.,0.,-1.));
#972=DIRECTION('',(0.874157276121538,0.485642931178631,0.));
#973=DIRECTION('center_axis',(0.485642931178632,-0.874157276121538,2.973705E-17));
#974=DIRECTION('ref_axis',(0.874157276121538,0.485642931178632,2.65893E-17));
#975=DIRECTION('center_axis',(0.485642931178632,-0.874157276121538,2.973705E-17));
#976=DIRECTION('ref_axis',(0.874157276121538,0.485642931178632,1.070534E-16));
#977=DIRECTION('',(-0.658145181714418,-0.365636212063565,0.658145181714418));
#978=DIRECTION('',(-0.780398972571707,-0.433554984762061,-0.450563556889584));
#979=DIRECTION('',(0.,0.,-1.));
#980=DIRECTION('',(0.658145181714418,0.365636212063565,-0.658145181714418));
#981=DIRECTION('center_axis',(-0.5,-9.912706E-17,0.866025403784439));
#982=DIRECTION('ref_axis',(0.866025403784439,0.,0.5));
#983=DIRECTION('',(-0.834430986740807,0.267643863786095,-0.481758954814971));
#984=DIRECTION('',(0.866025403784439,1.922963E-16,0.5));
#985=DIRECTION('',(0.,1.,0.));
#986=DIRECTION('center_axis',(1.,0.,0.));
#987=DIRECTION('ref_axis',(0.,0.,-1.));
#988=DIRECTION('',(0.,0.,-1.));
#989=DIRECTION('center_axis',(-1.,0.,0.));
#990=DIRECTION('ref_axis',(0.,0.,1.));
#991=DIRECTION('',(0.,0.,1.));
#992=DIRECTION('center_axis',(0.,1.,0.));
#993=DIRECTION('ref_axis',(0.,0.,1.));
#994=DIRECTION('center_axis',(5.947411E-17,-0.874157276121538,-0.485642931178632));
#995=DIRECTION('ref_axis',(-1.070534E-16,-0.485642931178632,0.874157276121538));
#996=DIRECTION('center_axis',(5.947411E-17,-0.874157276121538,-0.485642931178632));
#997=DIRECTION('ref_axis',(1.070534E-16,0.485642931178632,-0.874157276121538));
#998=DIRECTION('center_axis',(5.947411E-17,-0.874157276121538,-0.485642931178632));
#999=DIRECTION('ref_axis',(1.070534E-16,0.485642931178632,-0.874157276121538));
#1000=DIRECTION('',(0.,-0.485642931178631,0.874157276121538));
#1001=DIRECTION('',(-1.,0.,0.));
#1002=DIRECTION('',(0.,0.485642931178631,-0.874157276121538));
#1003=DIRECTION('center_axis',(5.947411E-17,-0.874157276121538,-0.485642931178632));
#1004=DIRECTION('ref_axis',(1.063572E-16,0.485642931178632,-0.874157276121538));
#1005=DIRECTION('center_axis',(5.947411E-17,-0.874157276121538,-0.485642931178632));
#1006=DIRECTION('ref_axis',(1.605801E-16,0.485642931178632,-0.874157276121538));
#1007=DIRECTION('center_axis',(1.,0.,0.));
#1008=DIRECTION('ref_axis',(0.,0.,-1.));
#1009=DIRECTION('',(0.,1.,0.));
#1010=DIRECTION('',(0.,0.,-1.));
#1011=DIRECTION('',(0.,1.,0.));
#1012=DIRECTION('center_axis',(0.,0.,-1.));
#1013=DIRECTION('ref_axis',(-1.,0.,0.));
#1014=DIRECTION('',(0.,1.,0.));
#1015=DIRECTION('',(-1.,0.,0.));
#1016=DIRECTION('center_axis',(-1.,0.,0.));
#1017=DIRECTION('ref_axis',(0.,0.,1.));
#1018=DIRECTION('',(0.,-1.,0.));
#1019=DIRECTION('',(0.,0.,1.));
#1020=DIRECTION('center_axis',(0.,1.,0.));
#1021=DIRECTION('ref_axis',(0.,0.,-1.));
#1022=DIRECTION('',(0.,-1.,0.));
#1023=DIRECTION('center_axis',(0.,-1.,0.));
#1024=DIRECTION('ref_axis',(0.,0.,-1.));
#1025=DIRECTION('center_axis',(0.,1.,0.));
#1026=DIRECTION('ref_axis',(1.,0.,0.));
#1027=DIRECTION('',(0.,-1.,0.));
#1028=DIRECTION('center_axis',(0.,-1.,0.));
#1029=DIRECTION('ref_axis',(1.,0.,0.));
#1030=DIRECTION('center_axis',(0.,-0.874157276121538,0.485642931178632));
#1031=DIRECTION('ref_axis',(0.,-0.485642931178632,-0.874157276121538));
#1032=DIRECTION('center_axis',(0.,-0.874157276121538,0.485642931178632));
#1033=DIRECTION('ref_axis',(0.,0.485642931178632,0.874157276121538));
#1034=DIRECTION('center_axis',(0.,-0.874157276121538,0.485642931178632));
#1035=DIRECTION('ref_axis',(0.,0.485642931178632,0.874157276121538));
#1036=DIRECTION('',(0.,-0.485642931178631,-0.874157276121538));
#1037=DIRECTION('',(1.,0.,0.));
#1038=DIRECTION('',(0.,0.485642931178631,0.874157276121538));
#1039=DIRECTION('center_axis',(1.540744E-33,-0.874157276121538,0.485642931178632));
#1040=DIRECTION('ref_axis',(-2.65893E-17,0.485642931178632,0.874157276121538));
#1041=DIRECTION('center_axis',(-3.081488E-33,-0.874157276121538,0.485642931178632));
#1042=DIRECTION('ref_axis',(-5.35267E-17,0.485642931178632,0.874157276121538));
#1043=DIRECTION('center_axis',(0.,1.,0.));
#1044=DIRECTION('ref_axis',(0.997260273972603,0.,0.073972602739728));
#1045=DIRECTION('',(0.,1.,0.));
#1046=DIRECTION('center_axis',(0.,-1.,0.));
#1047=DIRECTION('ref_axis',(0.997260273972603,0.,0.073972602739728));
#1048=DIRECTION('center_axis',(0.,0.,1.));
#1049=DIRECTION('ref_axis',(1.,0.,0.));
#1050=DIRECTION('',(0.,1.,0.));
#1051=DIRECTION('',(1.,0.,0.));
#1052=DIRECTION('center_axis',(0.,0.,1.));
#1053=DIRECTION('ref_axis',(1.,0.,0.));
#1054=DIRECTION('',(0.,1.,0.));
#1055=DIRECTION('',(1.,0.,0.));
#1056=DIRECTION('',(0.,1.,0.));
#1057=DIRECTION('center_axis',(1.,0.,0.));
#1058=DIRECTION('ref_axis',(0.,0.,-1.));
#1059=DIRECTION('',(0.,-1.,0.));
#1060=DIRECTION('',(0.,0.,-1.));
#1061=DIRECTION('center_axis',(0.,1.,0.));
#1062=DIRECTION('ref_axis',(0.,0.,1.));
#1063=DIRECTION('',(0.,-1.,0.));
#1064=DIRECTION('center_axis',(0.,-1.,0.));
#1065=DIRECTION('ref_axis',(0.,0.,1.));
#1066=DIRECTION('center_axis',(0.,1.,0.));
#1067=DIRECTION('ref_axis',(-1.,0.,0.));
#1068=DIRECTION('',(0.,-1.,0.));
#1069=DIRECTION('center_axis',(0.,-1.,0.));
#1070=DIRECTION('ref_axis',(-1.,0.,0.));
#1071=DIRECTION('center_axis',(0.,1.,0.));
#1072=DIRECTION('ref_axis',(-0.997260273972603,0.,-0.073972602739728));
#1073=DIRECTION('',(0.,1.,0.));
#1074=DIRECTION('center_axis',(0.,-1.,0.));
#1075=DIRECTION('ref_axis',(-0.997260273972603,0.,-0.073972602739728));
#1076=DIRECTION('center_axis',(0.,0.,-1.));
#1077=DIRECTION('ref_axis',(-1.,0.,0.));
#1078=DIRECTION('',(0.,1.,0.));
#1079=DIRECTION('',(-1.,0.,0.));
#1080=DIRECTION('center_axis',(-1.,0.,0.));
#1081=DIRECTION('ref_axis',(0.,0.,1.));
#1082=DIRECTION('',(0.,1.,0.));
#1083=DIRECTION('',(0.,0.,1.));
#1084=DIRECTION('center_axis',(0.,1.,0.));
#1085=DIRECTION('ref_axis',(0.,0.,-1.));
#1086=DIRECTION('',(0.,-1.,0.));
#1087=DIRECTION('center_axis',(0.,-1.,0.));
#1088=DIRECTION('ref_axis',(0.,0.,-1.));
#1089=DIRECTION('',(0.,-1.,0.));
#1090=DIRECTION('center_axis',(0.,1.,0.));
#1091=DIRECTION('ref_axis',(-1.,0.,0.));
#1092=DIRECTION('center_axis',(0.,-1.,0.));
#1093=DIRECTION('ref_axis',(-1.,0.,0.));
#1094=DIRECTION('',(0.,-1.,0.));
#1095=DIRECTION('center_axis',(0.,1.,0.));
#1096=DIRECTION('ref_axis',(0.073972602739728,0.,-0.997260273972603));
#1097=DIRECTION('center_axis',(0.,-1.,0.));
#1098=DIRECTION('ref_axis',(0.073972602739728,0.,-0.997260273972603));
#1099=DIRECTION('center_axis',(0.,1.,0.));
#1100=DIRECTION('ref_axis',(0.,0.,1.));
#1101=DIRECTION('',(0.,-1.,0.));
#1102=DIRECTION('center_axis',(0.,-1.,0.));
#1103=DIRECTION('ref_axis',(0.,0.,1.));
#1104=DIRECTION('',(0.,-1.,0.));
#1105=DIRECTION('center_axis',(0.,1.,0.));
#1106=DIRECTION('ref_axis',(1.,0.,0.));
#1107=DIRECTION('center_axis',(0.,-1.,0.));
#1108=DIRECTION('ref_axis',(1.,0.,0.));
#1109=DIRECTION('',(0.,-1.,0.));
#1110=DIRECTION('center_axis',(0.,1.,0.));
#1111=DIRECTION('ref_axis',(-0.073972602739728,0.,0.997260273972603));
#1112=DIRECTION('',(0.,1.,0.));
#1113=DIRECTION('center_axis',(0.,-1.,0.));
#1114=DIRECTION('ref_axis',(-0.073972602739728,0.,0.997260273972603));
#1115=DIRECTION('center_axis',(0.,0.,1.));
#1116=DIRECTION('ref_axis',(1.,0.,0.));
#1117=DIRECTION('',(1.,0.,0.));
#1118=DIRECTION('center_axis',(0.,-1.,0.));
#1119=DIRECTION('ref_axis',(0.,0.,-1.));
#1120=DIRECTION('',(0.,0.,-1.));
#1121=DIRECTION('',(-1.,0.,0.));
#1122=DIRECTION('',(0.,0.,1.));
#1123=DIRECTION('center_axis',(-1.,0.,0.));
#1124=DIRECTION('ref_axis',(0.,0.,1.));
#1125=DIRECTION('center_axis',(0.,0.,-1.));
#1126=DIRECTION('ref_axis',(-1.,0.,0.));
#1127=DIRECTION('',(0.,1.,0.));
#1128=DIRECTION('center_axis',(1.,0.,0.));
#1129=DIRECTION('ref_axis',(0.,0.,-1.));
#1130=CARTESIAN_POINT('',(0.,0.,0.));
#1131=CARTESIAN_POINT('Origin',(1.100904E-15,-5.95,0.));
#1132=CARTESIAN_POINT('',(1.5,-5.9,1.83691E-16));
#1133=CARTESIAN_POINT('Origin',(1.091719E-15,-5.9,0.));
#1134=CARTESIAN_POINT('',(1.4,-6.,-1.714449E-16));
#1135=CARTESIAN_POINT('',(1.45,-5.95,-1.77573785876366E-16));
#1136=CARTESIAN_POINT('Origin',(1.110089E-15,-6.,0.));
#1137=CARTESIAN_POINT('Origin',(0.,4.95982E-16,0.));
#1138=CARTESIAN_POINT('',(1.5,7.715275E-16,1.83697E-16));
#1139=CARTESIAN_POINT('',(1.5,7.735378E-16,1.83697019872103E-16));
#1140=CARTESIAN_POINT('Origin',(6.695399E-34,4.923635E-16,0.));
#1141=CARTESIAN_POINT('Origin',(1.110223E-15,-6.,0.));
#1142=CARTESIAN_POINT('Ctrl Pts',(0.485742582609745,1.4143017069152,0.87425692755265));
#1143=CARTESIAN_POINT('Ctrl Pts',(2.45174453394421,0.322078400618268,2.84025887888712));
#1144=CARTESIAN_POINT('Ctrl Pts',(0.525958282810575,1.43137440983064,0.843526062304845));
#1145=CARTESIAN_POINT('Ctrl Pts',(2.49196023414504,0.339151103533716,2.80952801363931));
#1146=CARTESIAN_POINT('Ctrl Pts',(0.606259038311131,1.46444966804201,0.781600450255048));
#1147=CARTESIAN_POINT('Ctrl Pts',(2.5722609896456,0.372226361745079,2.74760240158952));
#1148=CARTESIAN_POINT('Ctrl Pts',(0.747440560286887,1.4789062949152,0.648450387653289));
#1149=CARTESIAN_POINT('Ctrl Pts',(2.71344251162136,0.386682988618275,2.61445233898776));
#1150=CARTESIAN_POINT('Ctrl Pts',(0.828160629680943,1.43991076128837,0.546066132910991));
#1151=CARTESIAN_POINT('Ctrl Pts',(2.79416258101541,0.347687454991439,2.51206808424546));
#1152=CARTESIAN_POINT('Ctrl Pts',(0.874256927552649,1.4143017069152,0.485742582609746));
#1153=CARTESIAN_POINT('Ctrl Pts',(2.84025887888712,0.322078400618268,2.45174453394421));
#1154=CARTESIAN_POINT('',(2.11801549376783,0.507483422938483,2.50652983871073));
#1155=CARTESIAN_POINT('',(2.50652983871073,0.507483422938483,2.11801549376783));
#1156=CARTESIAN_POINT('Ctrl Pts',(2.11801549376783,0.507483422938484,2.50652983871073));
#1157=CARTESIAN_POINT('Ctrl Pts',(2.17971550179157,0.529156345733731,2.46751857767928));
#1158=CARTESIAN_POINT('Ctrl Pts',(2.25493953358191,0.559918424826313,2.41282767899089));
#1159=CARTESIAN_POINT('Ctrl Pts',(2.42281887587794,0.560382945238689,2.24494778463027));
#1160=CARTESIAN_POINT('Ctrl Pts',(2.47968321440276,0.52239821422069,2.1604759754702));
#1161=CARTESIAN_POINT('Ctrl Pts',(2.50652983871073,0.507483422938484,2.11801549376783));
#1162=CARTESIAN_POINT('',(0.978359032528009,1.35646720415111,0.589844687585104));
#1163=CARTESIAN_POINT('',(2.50652983871073,0.507483422938483,2.11801549376783));
#1164=CARTESIAN_POINT('',(0.485742582609745,1.41430170691519,0.874256927552651));
#1165=CARTESIAN_POINT('Ctrl Pts',(0.978359032528009,1.35646720415111,0.589844687585105));
#1166=CARTESIAN_POINT('Ctrl Pts',(0.888424967190372,1.40643057378313,0.641768144417106));
#1167=CARTESIAN_POINT('Ctrl Pts',(0.816187834956418,1.44036000685292,0.683474272151084));
#1168=CARTESIAN_POINT('Ctrl Pts',(0.63657463937455,1.46103289746843,0.787173998970284));
#1169=CARTESIAN_POINT('Ctrl Pts',(0.557229631649727,1.43723118858564,0.832983860545846));
#1170=CARTESIAN_POINT('Ctrl Pts',(0.485742582609746,1.41430170691519,0.874256927552651));
#1171=CARTESIAN_POINT('',(0.485742582609745,1.41430170691519,0.874256927552651));
#1172=CARTESIAN_POINT('Origin',(1.,0.500000000000001,0.577350269189626));
#1173=CARTESIAN_POINT('',(1.,1.34444444444444,0.577350269189626));
#1174=CARTESIAN_POINT('',(1.,1.34444444444444,0.577350269189626));
#1175=CARTESIAN_POINT('',(1.,0.500000000000001,0.577350269189626));
#1176=CARTESIAN_POINT('',(1.,0.500000000000001,0.577350269189626));
#1177=CARTESIAN_POINT('',(-3.642919E-16,0.500000000000001,1.15470053837925));
#1178=CARTESIAN_POINT('',(-3.642919E-16,0.500000000000001,1.15470053837925));
#1179=CARTESIAN_POINT('',(-5.146676E-16,1.25849970090042,1.15470053837925));
#1180=CARTESIAN_POINT('',(-3.642919E-16,0.500000000000001,1.15470053837925));
#1181=CARTESIAN_POINT('',(0.485742582609745,1.41430170691519,0.874256927552651));
#1182=CARTESIAN_POINT('Origin',(2.7,0.400000000000001,4.95982E-16));
#1183=CARTESIAN_POINT('',(2.7,0.400000000000001,1.45));
#1184=CARTESIAN_POINT('Origin',(1.45,1.09444444444444,1.45));
#1185=CARTESIAN_POINT('',(2.65,0.427777777777779,0.100000000000001));
#1186=CARTESIAN_POINT('Origin',(-15.55,10.5388888888889,1.45));
#1187=CARTESIAN_POINT('',(2.6,0.455555555555557,0.100000000000001));
#1188=CARTESIAN_POINT('',(2.6,0.455555555555556,0.1));
#1189=CARTESIAN_POINT('',(2.6,0.455555555555557,-0.1));
#1190=CARTESIAN_POINT('',(2.6,0.455555555555557,-0.1));
#1191=CARTESIAN_POINT('',(2.65,0.427777777777779,-0.1));
#1192=CARTESIAN_POINT('',(2.65,0.427777777777779,-0.1));
#1193=CARTESIAN_POINT('',(2.7,0.400000000000001,-1.45));
#1194=CARTESIAN_POINT('Origin',(-15.5499999999994,10.5388888888885,-1.44999999999999));
#1195=CARTESIAN_POINT('',(2.50652983871073,0.507483422938483,-2.11801549376783));
#1196=CARTESIAN_POINT('Origin',(1.45,1.09444444444444,-1.45));
#1197=CARTESIAN_POINT('',(0.978359032528009,1.35646720415111,-0.589844687585104));
#1198=CARTESIAN_POINT('',(0.978359032528009,1.35646720415111,-0.589844687585104));
#1199=CARTESIAN_POINT('',(1.,1.34444444444444,-0.577350269189626));
#1200=CARTESIAN_POINT('',(0.978359032528009,1.35646720415111,-0.589844687585104));
#1201=CARTESIAN_POINT('',(1.,1.34444444444444,-0.577350269189626));
#1202=CARTESIAN_POINT('Ctrl Pts',(0.874256927552651,1.41430170691519,-0.485742582609745));
#1203=CARTESIAN_POINT('Ctrl Pts',(2.84025887888712,0.322078400618269,-2.45174453394421));
#1204=CARTESIAN_POINT('Ctrl Pts',(0.843526062304846,1.43137440983064,-0.525958282810576));
#1205=CARTESIAN_POINT('Ctrl Pts',(2.80952801363931,0.339151103533716,-2.49196023414505));
#1206=CARTESIAN_POINT('Ctrl Pts',(0.781600450255049,1.464449668042,-0.606259038311131));
#1207=CARTESIAN_POINT('Ctrl Pts',(2.74760240158952,0.37222636174508,-2.5722609896456));
#1208=CARTESIAN_POINT('Ctrl Pts',(0.64845038765329,1.4789062949152,-0.747440560286888));
#1209=CARTESIAN_POINT('Ctrl Pts',(2.61445233898776,0.386682988618278,-2.71344251162136));
#1210=CARTESIAN_POINT('Ctrl Pts',(0.546066132910992,1.43991076128836,-0.828160629680943));
#1211=CARTESIAN_POINT('Ctrl Pts',(2.51206808424546,0.347687454991439,-2.79416258101541));
#1212=CARTESIAN_POINT('Ctrl Pts',(0.485742582609747,1.41430170691519,-0.874256927552649));
#1213=CARTESIAN_POINT('Ctrl Pts',(2.45174453394422,0.322078400618269,-2.84025887888712));
#1214=CARTESIAN_POINT('',(2.11801549376783,0.507483422938483,-2.50652983871073));
#1215=CARTESIAN_POINT('Ctrl Pts',(2.50652983871073,0.507483422938483,-2.11801549376783));
#1216=CARTESIAN_POINT('Ctrl Pts',(2.46751857767928,0.529156345733732,-2.17971550179157));
#1217=CARTESIAN_POINT('Ctrl Pts',(2.4128276789909,0.55991842482631,-2.2549395335819));
#1218=CARTESIAN_POINT('Ctrl Pts',(2.24494778463019,0.560382945238696,-2.42281887587802));
#1219=CARTESIAN_POINT('Ctrl Pts',(2.16047597547003,0.522398214220631,-2.47968321440287));
#1220=CARTESIAN_POINT('Ctrl Pts',(2.11801549376783,0.507483422938483,-2.50652983871073));
#1221=CARTESIAN_POINT('',(0.485742582609746,1.41430170691519,-0.874256927552651));
#1222=CARTESIAN_POINT('',(2.11801549376783,0.507483422938483,-2.50652983871073));
#1223=CARTESIAN_POINT('Ctrl Pts',(0.485742582609748,1.41430170691519,-0.87425692755265));
#1224=CARTESIAN_POINT('Ctrl Pts',(0.575292147186103,1.44302474314518,-0.822555462338677));
#1225=CARTESIAN_POINT('Ctrl Pts',(0.647593790501437,1.46014745071356,-0.780812089100171));
#1226=CARTESIAN_POINT('Ctrl Pts',(0.827582151335127,1.43861553425915,-0.67689576052184));
#1227=CARTESIAN_POINT('Ctrl Pts',(0.906974033192069,1.39612553711552,-0.63105883616781));
#1228=CARTESIAN_POINT('Ctrl Pts',(0.978359032528009,1.35646720415111,-0.589844687585104));
#1229=CARTESIAN_POINT('Origin',(-8.673617E-17,0.500000000000001,-1.15470053837925));
#1230=CARTESIAN_POINT('',(-2.371119E-16,1.25849970090042,-1.15470053837925));
#1231=CARTESIAN_POINT('',(-2.220446E-16,1.25849970090042,-1.15470053837925));
#1232=CARTESIAN_POINT('',(-8.673617E-17,0.500000000000001,-1.15470053837925));
#1233=CARTESIAN_POINT('',(-8.673617E-17,0.500000000000001,-1.15470053837925));
#1234=CARTESIAN_POINT('',(1.,0.500000000000001,-0.577350269189626));
#1235=CARTESIAN_POINT('',(1.,0.500000000000001,-0.577350269189626));
#1236=CARTESIAN_POINT('',(1.,0.500000000000001,-0.577350269189626));
#1237=CARTESIAN_POINT('Ctrl Pts',(-2.51259188699804,0.504115618334423,-2.12407754205514));
#1238=CARTESIAN_POINT('Ctrl Pts',(-0.546589935663572,1.59633892463135,-0.158075590720667));
#1239=CARTESIAN_POINT('Ctrl Pts',(-2.48186102175024,0.52118832124987,-2.16429324225597));
#1240=CARTESIAN_POINT('Ctrl Pts',(-0.515859070415768,1.6134116275468,-0.198291290921498));
#1241=CARTESIAN_POINT('Ctrl Pts',(-2.41993540970044,0.554263579461234,-2.24459399775652));
#1242=CARTESIAN_POINT('Ctrl Pts',(-0.453933458365971,1.64648688575816,-0.278592046422054));
#1243=CARTESIAN_POINT('Ctrl Pts',(-2.28678534709868,0.568720206334431,-2.38577551973228));
#1244=CARTESIAN_POINT('Ctrl Pts',(-0.320783395764213,1.66094351263136,-0.419773568397811));
#1245=CARTESIAN_POINT('Ctrl Pts',(-2.18440109235638,0.529724672707593,-2.46649558912633));
#1246=CARTESIAN_POINT('Ctrl Pts',(-0.218399141021914,1.62194797900452,-0.500493637791865));
#1247=CARTESIAN_POINT('Ctrl Pts',(-2.12407754205514,0.504115618334422,-2.51259188699804));
#1248=CARTESIAN_POINT('Ctrl Pts',(-0.158075590720669,1.59633892463135,-0.546589935663571));
#1249=CARTESIAN_POINT('',(-0.978359032528009,1.35646720415111,-0.589844687585104));
#1250=CARTESIAN_POINT('',(-0.485742582609745,1.41430170691519,-0.874256927552651));
#1251=CARTESIAN_POINT('Ctrl Pts',(-0.978359032528009,1.35646720415111,-0.589844687585104));
#1252=CARTESIAN_POINT('Ctrl Pts',(-0.906969539397995,1.39612803366778,-0.631061430661029));
#1253=CARTESIAN_POINT('Ctrl Pts',(-0.827547547777254,1.43863500040458,-0.676915738895238));
#1254=CARTESIAN_POINT('Ctrl Pts',(-0.647554743192323,1.46013856585685,-0.780834633074544));
#1255=CARTESIAN_POINT('Ctrl Pts',(-0.575265897633003,1.4430163235971,-0.822570617525226));
#1256=CARTESIAN_POINT('Ctrl Pts',(-0.485742582609749,1.41430170691519,-0.874256927552649));
#1257=CARTESIAN_POINT('',(-2.11801549376783,0.507483422938483,-2.50652983871073));
#1258=CARTESIAN_POINT('',(-0.485742582609745,1.41430170691519,-0.874256927552651));
#1259=CARTESIAN_POINT('',(-2.50652983871073,0.507483422938483,-2.11801549376783));
#1260=CARTESIAN_POINT('Ctrl Pts',(-2.11801549376783,0.507483422938482,-2.50652983871073));
#1261=CARTESIAN_POINT('Ctrl Pts',(-2.16047603603287,0.52239823549411,-2.4796831761106));
#1262=CARTESIAN_POINT('Ctrl Pts',(-2.24494924826875,0.560383813291879,-2.42281801913097));
#1263=CARTESIAN_POINT('Ctrl Pts',(-2.41282937873505,0.559917645968216,-2.25493729511763));
#1264=CARTESIAN_POINT('Ctrl Pts',(-2.46751923188899,0.529155982283897,-2.1797144670969));
#1265=CARTESIAN_POINT('Ctrl Pts',(-2.50652983871073,0.507483422938483,-2.11801549376783));
#1266=CARTESIAN_POINT('',(-2.50652983871073,0.507483422938483,-2.11801549376783));
#1267=CARTESIAN_POINT('Origin',(-1.,0.5,-0.577350269189626));
#1268=CARTESIAN_POINT('',(-1.,1.34444444444444,-0.577350269189626));
#1269=CARTESIAN_POINT('',(-1.,1.34444444444444,-0.577350269189626));
#1270=CARTESIAN_POINT('',(-1.,0.5,-0.577350269189626));
#1271=CARTESIAN_POINT('',(-1.,0.5,-0.577350269189626));
#1272=CARTESIAN_POINT('',(-8.673617E-17,0.500000000000001,-1.15470053837925));
#1273=CARTESIAN_POINT('',(-0.485742582609745,1.41430170691519,-0.874256927552651));
#1274=CARTESIAN_POINT('Origin',(-2.7,0.400000000000001,-1.653273E-16));
#1275=CARTESIAN_POINT('',(-2.7,0.400000000000001,-1.45));
#1276=CARTESIAN_POINT('Origin',(-1.45,1.09444444444444,-1.45));
#1277=CARTESIAN_POINT('',(-2.65,0.427777777777779,-0.1));
#1278=CARTESIAN_POINT('Origin',(15.55,10.5388888888889,-1.45));
#1279=CARTESIAN_POINT('',(-2.6,0.455555555555557,-0.1));
#1280=CARTESIAN_POINT('',(-2.6,0.455555555555556,-0.1));
#1281=CARTESIAN_POINT('',(-2.6,0.455555555555557,0.1));
#1282=CARTESIAN_POINT('',(-2.6,0.455555555555557,0.1));
#1283=CARTESIAN_POINT('',(-2.65,0.427777777777779,0.1));
#1284=CARTESIAN_POINT('',(-2.65,0.427777777777779,0.1));
#1285=CARTESIAN_POINT('',(-2.7,0.400000000000001,1.45));
#1286=CARTESIAN_POINT('Origin',(15.5499999999994,10.5388888888885,1.44999999999999));
#1287=CARTESIAN_POINT('',(-2.50652983871073,0.507483422938483,2.11801549376783));
#1288=CARTESIAN_POINT('Origin',(-1.45,1.09444444444444,1.45));
#1289=CARTESIAN_POINT('',(-0.978359032528009,1.35646720415111,0.589844687585104));
#1290=CARTESIAN_POINT('',(-0.978359032528009,1.35646720415111,0.589844687585103));
#1291=CARTESIAN_POINT('',(-1.,1.34444444444444,0.577350269189626));
#1292=CARTESIAN_POINT('',(-0.978359032528009,1.35646720415111,0.589844687585104));
#1293=CARTESIAN_POINT('',(-1.,1.34444444444444,0.577350269189626));
#1294=CARTESIAN_POINT('Ctrl Pts',(-0.87425692755265,1.41430170691519,0.485742582609745));
#1295=CARTESIAN_POINT('Ctrl Pts',(-2.84025887461635,0.322078402990921,2.45174452967344));
#1296=CARTESIAN_POINT('Ctrl Pts',(-0.843526062304846,1.43137440983064,0.525958282810575));
#1297=CARTESIAN_POINT('Ctrl Pts',(-2.80952800936854,0.339151105906368,2.49196022987427));
#1298=CARTESIAN_POINT('Ctrl Pts',(-0.781600450255058,1.46444966804204,0.606259038311141));
#1299=CARTESIAN_POINT('Ctrl Pts',(-2.74760239731875,0.37222636411777,2.57226098537484));
#1300=CARTESIAN_POINT('Ctrl Pts',(-0.648450387653211,1.47890629491531,0.747440560287028));
#1301=CARTESIAN_POINT('Ctrl Pts',(-2.61445233471691,0.386682990991041,2.71344250735072));
#1302=CARTESIAN_POINT('Ctrl Pts',(-0.546066132910992,1.43991076128837,0.828160629680944));
#1303=CARTESIAN_POINT('Ctrl Pts',(-2.51206807997469,0.347687457364095,2.79416257674464));
#1304=CARTESIAN_POINT('Ctrl Pts',(-0.485742582609747,1.4143017069152,0.87425692755265));
#1305=CARTESIAN_POINT('Ctrl Pts',(-2.45174452967344,0.322078402990926,2.84025887461635));
#1306=CARTESIAN_POINT('',(-2.11801549376783,0.507483422938483,2.50652983871073));
#1307=CARTESIAN_POINT('Ctrl Pts',(-2.50652983871073,0.507483422938483,2.11801549376783));
#1308=CARTESIAN_POINT('Ctrl Pts',(-2.46751859878528,0.529156334008177,2.17971546841043));
#1309=CARTESIAN_POINT('Ctrl Pts',(-2.41282773382768,0.559918399699224,2.25493946136527));
#1310=CARTESIAN_POINT('Ctrl Pts',(-2.2449479224404,0.560382972992884,2.42281875764728));
#1311=CARTESIAN_POINT('Ctrl Pts',(-2.16047618000638,0.522398286066662,2.47968308508002));
#1312=CARTESIAN_POINT('Ctrl Pts',(-2.11801549376783,0.507483422938489,2.50652983871073));
#1313=CARTESIAN_POINT('',(-0.485742582609746,1.41430170691519,0.874256927552651));
#1314=CARTESIAN_POINT('',(-2.11801549376783,0.507483422938483,2.50652983871073));
#1315=CARTESIAN_POINT('Ctrl Pts',(-0.485742582609748,1.4143017069152,0.874256927552651));
#1316=CARTESIAN_POINT('Ctrl Pts',(-0.575291819112111,1.4430246379154,0.822555651752286));
#1317=CARTESIAN_POINT('Ctrl Pts',(-0.64759330227882,1.46014733962029,0.78081237097563));
#1318=CARTESIAN_POINT('Ctrl Pts',(-0.827581718595817,1.43861577767961,0.676896010363997));
#1319=CARTESIAN_POINT('Ctrl Pts',(-0.906973976916476,1.39612556837974,0.63105886865854));
#1320=CARTESIAN_POINT('Ctrl Pts',(-0.978359032528009,1.35646720415111,0.589844687585105));
#1321=CARTESIAN_POINT('Origin',(-3.642919E-16,0.500000000000001,1.15470053837925));
#1322=CARTESIAN_POINT('',(-4.440892E-16,1.25849970090042,1.15470053837925));
#1323=CARTESIAN_POINT('',(-1.,0.5,0.577350269189626));
#1324=CARTESIAN_POINT('',(-1.,0.5,0.577350269189626));
#1325=CARTESIAN_POINT('',(-1.,0.5,0.577350269189626));
#1326=CARTESIAN_POINT('Origin',(1.,0.500000000000001,-0.577350269189626));
#1327=CARTESIAN_POINT('',(1.,0.500000000000001,0.577350269189626));
#1328=CARTESIAN_POINT('Origin',(-1.,0.5,0.577350269189626));
#1329=CARTESIAN_POINT('',(-1.,0.5,-0.577350269189626));
#1330=CARTESIAN_POINT('Origin',(1.908196E-16,0.500000000000001,-1.734723E-16));
#1331=CARTESIAN_POINT('Origin',(-3.306546E-16,0.400000000000001,2.7));
#1332=CARTESIAN_POINT('',(-1.45,0.400000000000001,2.7));
#1333=CARTESIAN_POINT('Origin',(-1.45,1.09444444444444,1.45));
#1334=CARTESIAN_POINT('',(-0.1,0.427777777777779,2.65));
#1335=CARTESIAN_POINT('Origin',(-1.45,10.5388888888889,-15.55));
#1336=CARTESIAN_POINT('',(-0.1,0.455555555555557,2.6));
#1337=CARTESIAN_POINT('',(-0.1,0.455555555555556,2.6));
#1338=CARTESIAN_POINT('',(0.1,0.455555555555557,2.6));
#1339=CARTESIAN_POINT('',(0.1,0.455555555555557,2.6));
#1340=CARTESIAN_POINT('',(0.1,0.427777777777779,2.65));
#1341=CARTESIAN_POINT('',(0.1,0.427777777777779,2.65));
#1342=CARTESIAN_POINT('',(1.45,0.400000000000001,2.7));
#1343=CARTESIAN_POINT('Origin',(1.44999999999999,10.5388888888885,-15.5499999999994));
#1344=CARTESIAN_POINT('Origin',(1.45,1.09444444444444,1.45));
#1345=CARTESIAN_POINT('Origin',(0.1,1.9,2.6));
#1346=CARTESIAN_POINT('',(0.1,5.551115E-16,2.6));
#1347=CARTESIAN_POINT('',(0.1,6.661338E-16,2.6));
#1348=CARTESIAN_POINT('',(0.1,1.110223E-15,2.65));
#1349=CARTESIAN_POINT('',(0.1,5.551115E-16,2.65));
#1350=CARTESIAN_POINT('',(0.1,1.110223E-15,2.65));
#1351=CARTESIAN_POINT('Origin',(-0.1,1.9,2.6));
#1352=CARTESIAN_POINT('',(-0.1,5.551115E-16,2.6));
#1353=CARTESIAN_POINT('',(-0.1,6.661338E-16,2.6));
#1354=CARTESIAN_POINT('',(0.1,4.73453E-16,2.6));
#1355=CARTESIAN_POINT('Origin',(-0.1,1.9,2.7));
#1356=CARTESIAN_POINT('',(-0.1,5.551115E-16,2.65));
#1357=CARTESIAN_POINT('',(-0.1,0.42777777777778,2.65));
#1358=CARTESIAN_POINT('',(-0.1,4.163336E-16,2.6));
#1359=CARTESIAN_POINT('Origin',(-1.45,1.9,-15.55));
#1360=CARTESIAN_POINT('',(-1.45,8.326673E-16,2.7));
#1361=CARTESIAN_POINT('',(-1.45,0.400000000000001,2.7));
#1362=CARTESIAN_POINT('Origin',(-1.45,1.110223E-15,-15.55));
#1363=CARTESIAN_POINT('Origin',(-1.45,1.9,1.45));
#1364=CARTESIAN_POINT('',(-2.7,1.110223E-15,1.45));
#1365=CARTESIAN_POINT('',(-2.7,0.400000000000001,1.45));
#1366=CARTESIAN_POINT('Origin',(-1.45,1.110223E-15,1.45));
#1367=CARTESIAN_POINT('Origin',(0.,0.400000000000001,-2.7));
#1368=CARTESIAN_POINT('',(1.45,0.400000000000001,-2.7));
#1369=CARTESIAN_POINT('Origin',(1.45,1.09444444444444,-1.45));
#1370=CARTESIAN_POINT('',(0.1,0.427777777777779,-2.65));
#1371=CARTESIAN_POINT('Origin',(1.45,10.5388888888889,15.55));
#1372=CARTESIAN_POINT('',(0.1,0.455555555555557,-2.6));
#1373=CARTESIAN_POINT('',(0.1,0.455555555555556,-2.6));
#1374=CARTESIAN_POINT('',(-0.1,0.455555555555557,-2.6));
#1375=CARTESIAN_POINT('',(-0.1,0.455555555555557,-2.6));
#1376=CARTESIAN_POINT('',(-0.1,0.427777777777779,-2.65));
#1377=CARTESIAN_POINT('',(-0.1,0.427777777777779,-2.65));
#1378=CARTESIAN_POINT('',(-1.45,0.400000000000001,-2.7));
#1379=CARTESIAN_POINT('Origin',(-1.44999999999999,10.5388888888885,15.5499999999994));
#1380=CARTESIAN_POINT('Origin',(-1.45,1.09444444444444,-1.45));
#1381=CARTESIAN_POINT('Origin',(15.5499999999994,1.9,1.44999999999999));
#1382=CARTESIAN_POINT('',(-2.65,1.110223E-15,0.1));
#1383=CARTESIAN_POINT('',(-2.65,1.110223E-15,0.1));
#1384=CARTESIAN_POINT('Origin',(15.5499999999994,1.110223E-15,1.44999999999999));
#1385=CARTESIAN_POINT('Origin',(-2.6,1.9,0.1));
#1386=CARTESIAN_POINT('',(-2.6,0.,0.1));
#1387=CARTESIAN_POINT('',(-2.6,0.,0.1));
#1388=CARTESIAN_POINT('',(-2.65,-7.964832E-17,0.1));
#1389=CARTESIAN_POINT('Origin',(0.1,1.9,-2.6));
#1390=CARTESIAN_POINT('',(0.1,5.551115E-16,-2.6));
#1391=CARTESIAN_POINT('',(0.1,6.661338E-16,-2.6));
#1392=CARTESIAN_POINT('',(-0.1,5.551115E-16,-2.6));
#1393=CARTESIAN_POINT('',(-0.1,4.183439E-16,-2.6));
#1394=CARTESIAN_POINT('',(-0.1,6.661338E-16,-2.6));
#1395=CARTESIAN_POINT('Origin',(0.1,1.9,-2.7));
#1396=CARTESIAN_POINT('',(0.1,5.551115E-16,-2.65));
#1397=CARTESIAN_POINT('',(0.1,0.42777777777778,-2.65));
#1398=CARTESIAN_POINT('',(0.1,5.551115E-16,-2.6));
#1399=CARTESIAN_POINT('Origin',(1.45,1.9,15.55));
#1400=CARTESIAN_POINT('',(1.45,8.326673E-16,-2.7));
#1401=CARTESIAN_POINT('',(1.45,0.400000000000001,-2.7));
#1402=CARTESIAN_POINT('Origin',(1.45,1.110223E-15,15.55));
#1403=CARTESIAN_POINT('Origin',(1.45,1.9,-1.45));
#1404=CARTESIAN_POINT('',(2.7,1.110223E-15,-1.45));
#1405=CARTESIAN_POINT('',(2.7,0.400000000000001,-1.45));
#1406=CARTESIAN_POINT('Origin',(1.45,1.110223E-15,-1.45));
#1407=CARTESIAN_POINT('Origin',(-15.5499999999994,1.9,-1.44999999999999));
#1408=CARTESIAN_POINT('',(2.65,1.110223E-15,-0.1));
#1409=CARTESIAN_POINT('',(2.65,1.110223E-15,-0.1));
#1410=CARTESIAN_POINT('Origin',(-15.5499999999994,1.110223E-15,-1.44999999999999));
#1411=CARTESIAN_POINT('Origin',(2.6,1.9,-0.1));
#1412=CARTESIAN_POINT('',(2.6,1.110223E-15,-0.1));
#1413=CARTESIAN_POINT('',(2.6,1.110223E-15,-0.1));
#1414=CARTESIAN_POINT('',(2.65,9.714451E-16,-0.1));
#1415=CARTESIAN_POINT('Origin',(2.6,1.9,0.1));
#1416=CARTESIAN_POINT('',(2.6,1.110223E-15,0.1));
#1417=CARTESIAN_POINT('',(2.6,1.110223E-15,0.1));
#1418=CARTESIAN_POINT('',(2.6,9.714451E-16,-0.1));
#1419=CARTESIAN_POINT('Origin',(1.45,1.9,1.45));
#1420=CARTESIAN_POINT('',(1.45,1.110223E-15,2.7));
#1421=CARTESIAN_POINT('',(1.45,0.400000000000001,2.7));
#1422=CARTESIAN_POINT('',(2.7,8.326673E-16,1.45));
#1423=CARTESIAN_POINT('Origin',(1.45,1.110223E-15,1.45));
#1424=CARTESIAN_POINT('',(2.7,0.400000000000001,1.45));
#1425=CARTESIAN_POINT('Origin',(-15.55,1.9,1.45));
#1426=CARTESIAN_POINT('',(2.65,5.551115E-16,0.100000000000001));
#1427=CARTESIAN_POINT('Origin',(-15.55,1.110223E-15,1.45));
#1428=CARTESIAN_POINT('',(2.65,0.42777777777778,0.1));
#1429=CARTESIAN_POINT('Origin',(1.44999999999999,1.9,-15.5499999999994));
#1430=CARTESIAN_POINT('Origin',(1.44999999999999,1.110223E-15,-15.5499999999994));
#1431=CARTESIAN_POINT('Origin',(-1.45,1.9,-1.45));
#1432=CARTESIAN_POINT('',(-1.45,1.110223E-15,-2.7));
#1433=CARTESIAN_POINT('',(-1.45,0.400000000000001,-2.7));
#1434=CARTESIAN_POINT('',(-2.7,8.326673E-16,-1.45));
#1435=CARTESIAN_POINT('Origin',(-1.45,1.110223E-15,-1.45));
#1436=CARTESIAN_POINT('',(-2.7,0.400000000000001,-1.45));
#1437=CARTESIAN_POINT('Origin',(15.55,1.9,-1.45));
#1438=CARTESIAN_POINT('',(-2.65,5.551115E-16,-0.1));
#1439=CARTESIAN_POINT('Origin',(15.55,1.110223E-15,-1.45));
#1440=CARTESIAN_POINT('',(-2.65,0.42777777777778,-0.1));
#1441=CARTESIAN_POINT('Origin',(-1.44999999999999,1.9,15.5499999999994));
#1442=CARTESIAN_POINT('',(-0.1,1.110223E-15,-2.65));
#1443=CARTESIAN_POINT('',(-0.1,1.110223E-15,-2.65));
#1444=CARTESIAN_POINT('Origin',(-1.44999999999999,1.110223E-15,15.5499999999994));
#1445=CARTESIAN_POINT('Origin',(2.7,1.9,0.1));
#1446=CARTESIAN_POINT('',(2.6,9.530754E-16,0.1));
#1447=CARTESIAN_POINT('Origin',(2.7,9.919639E-16,0.));
#1448=CARTESIAN_POINT('',(-2.6,0.,-0.1));
#1449=CARTESIAN_POINT('',(-2.6,0.,0.1));
#1450=CARTESIAN_POINT('',(-2.6,-6.127862E-17,-0.1));
#1451=CARTESIAN_POINT('',(-0.1,4.163336E-16,-2.65));
#1452=CARTESIAN_POINT('Origin',(-0.1,1.9,-2.6));
#1453=CARTESIAN_POINT('Origin',(-2.7,1.9,-0.1));
#1454=CARTESIAN_POINT('',(-2.6,0.,-0.1));
#1455=CARTESIAN_POINT('Origin',(-2.6,1.9,-0.1));
#1456=UNCERTAINTY_MEASURE_WITH_UNIT(LENGTH_MEASURE(0.01),#1460,
'DISTANCE_ACCURACY_VALUE',
'Maximum model space distance between geometric entities at asserted c
onnectivities');
#1457=UNCERTAINTY_MEASURE_WITH_UNIT(LENGTH_MEASURE(0.01),#1460,
'DISTANCE_ACCURACY_VALUE',
'Maximum model space distance between geometric entities at asserted c
onnectivities');
#1458=(
GEOMETRIC_REPRESENTATION_CONTEXT(3)
GLOBAL_UNCERTAINTY_ASSIGNED_CONTEXT((#1456))
GLOBAL_UNIT_ASSIGNED_CONTEXT((#1460,#1462,#1463))
REPRESENTATION_CONTEXT('','3D')
);
#1459=(
GEOMETRIC_REPRESENTATION_CONTEXT(3)
GLOBAL_UNCERTAINTY_ASSIGNED_CONTEXT((#1457))
GLOBAL_UNIT_ASSIGNED_CONTEXT((#1460,#1462,#1463))
REPRESENTATION_CONTEXT('','3D')
);
#1460=(
LENGTH_UNIT()
NAMED_UNIT(*)
SI_UNIT(.MILLI.,.METRE.)
);
#1461=(
LENGTH_UNIT()
NAMED_UNIT(*)
SI_UNIT($,.METRE.)
);
#1462=(
NAMED_UNIT(*)
PLANE_ANGLE_UNIT()
SI_UNIT($,.RADIAN.)
);
#1463=(
NAMED_UNIT(*)
SI_UNIT($,.STERADIAN.)
SOLID_ANGLE_UNIT()
);
#1464=SHAPE_DEFINITION_REPRESENTATION(#1465,#1466);
#1465=PRODUCT_DEFINITION_SHAPE('',$,#1468);
#1466=SHAPE_REPRESENTATION('',(#837),#1458);
#1467=PRODUCT_DEFINITION_CONTEXT('part definition',#1472,'design');
#1468=PRODUCT_DEFINITION('100359','BOLT_BHSCS_M3_6mm v1',#1469,#1467);
#1469=PRODUCT_DEFINITION_FORMATION('',$,#1474);
#1470=PRODUCT_RELATED_PRODUCT_CATEGORY('BOLT_BHSCS_M3_6mm v1',
'BOLT_BHSCS_M3_6mm v1',(#1474));
#1471=APPLICATION_PROTOCOL_DEFINITION('international standard',
'automotive_design',2009,#1472);
#1472=APPLICATION_CONTEXT(
'Core Data for Automotive Mechanical Design Process');
#1473=PRODUCT_CONTEXT('part definition',#1472,'mechanical');
#1474=PRODUCT('100359','BOLT_BHSCS_M3_6mm v1',$,(#1473));
#1475=PRESENTATION_STYLE_ASSIGNMENT((#1477));
#1476=PRESENTATION_STYLE_ASSIGNMENT((#1478));
#1477=SURFACE_STYLE_USAGE(.BOTH.,#1479);
#1478=SURFACE_STYLE_USAGE(.BOTH.,#1480);
#1479=SURFACE_SIDE_STYLE('',(#1481));
#1480=SURFACE_SIDE_STYLE('',(#1482));
#1481=SURFACE_STYLE_FILL_AREA(#1483);
#1482=SURFACE_STYLE_FILL_AREA(#1484);
#1483=FILL_AREA_STYLE('Acier - Satin\X\E9',(#1485));
#1484=FILL_AREA_STYLE('Opaque(163,163,175)',(#1486));
#1485=FILL_AREA_STYLE_COLOUR('Acier - Satin\X\E9',#1487);
#1486=FILL_AREA_STYLE_COLOUR('Opaque(163,163,175)',#1488);
#1487=COLOUR_RGB('Acier - Satin\X\E9',0.627450980392157,0.627450980392157,
0.627450980392157);
#1488=COLOUR_RGB('Opaque(163,163,175)',0.63921568627451,0.63921568627451,
0.686274509803922);
ENDSEC;
END-ISO-10303-21;
