ISO-10303-21;
HEADER;
/* Generated by software containing ST-Developer
 * from STEP Tools, Inc. (www.steptools.com) 
 */

FILE_DESCRIPTION(
/* description */ (''),
/* implementation_level */ '2;1');

FILE_NAME(
/* name */ 'BOLT_CSK_M3_4mm.step',
/* time_stamp */ '2026-08-10T14:32:02+02:00',
/* author */ (''),
/* organization */ (''),
/* preprocessor_version */ 'ST-DEVELOPER v20.1',
/* originating_system */ 'Autodesk Translation Framework v15.8.0.0',
/* authorisation */ '');

FILE_SCHEMA (('AUTOMOTIVE_DESIGN { 1 0 10303 214 3 1 1 }'));
ENDSEC;

DATA;
#10=MECHANICAL_DESIGN_GEOMETRIC_PRESENTATION_REPRESENTATION('',(#13),#369);
#11=SHAPE_REPRESENTATION_RELATIONSHIP('SRR','None',#375,#12);
#12=ADVANCED_BREP_SHAPE_REPRESENTATION('',(#14),#368);
#13=STYLED_ITEM('',(#385),#14);
#14=MANIFOLD_SOLID_BREP('Corps1',#216);
#15=FACE_BOUND('',#51,.T.);
#16=CYLINDRICAL_SURFACE('',#238,0.0015);
#17=CYLINDRICAL_SURFACE('',#244,0.003);
#18=CIRCLE('',#236,0.0015);
#19=CIRCLE('',#237,0.00135);
#20=CIRCLE('',#239,0.0015);
#21=CIRCLE('',#243,0.003);
#22=CIRCLE('',#245,0.003);
#23=CONICAL_SURFACE('',#235,1.,0.7853981625);
#24=CONICAL_SURFACE('',#242,1.,0.7853981625);
#25=FACE_OUTER_BOUND('',#38,.T.);
#26=FACE_OUTER_BOUND('',#39,.T.);
#27=FACE_OUTER_BOUND('',#40,.T.);
#28=FACE_OUTER_BOUND('',#41,.T.);
#29=FACE_OUTER_BOUND('',#42,.T.);
#30=FACE_OUTER_BOUND('',#43,.T.);
#31=FACE_OUTER_BOUND('',#44,.T.);
#32=FACE_OUTER_BOUND('',#45,.T.);
#33=FACE_OUTER_BOUND('',#46,.T.);
#34=FACE_OUTER_BOUND('',#47,.T.);
#35=FACE_OUTER_BOUND('',#48,.T.);
#36=FACE_OUTER_BOUND('',#49,.T.);
#37=FACE_OUTER_BOUND('',#50,.T.);
#38=EDGE_LOOP('',(#140,#141,#142,#143));
#39=EDGE_LOOP('',(#144,#145,#146,#147,#148,#149));
#40=EDGE_LOOP('',(#150,#151,#152,#153));
#41=EDGE_LOOP('',(#154,#155,#156,#157));
#42=EDGE_LOOP('',(#158,#159,#160,#161));
#43=EDGE_LOOP('',(#162,#163,#164,#165));
#44=EDGE_LOOP('',(#166,#167,#168,#169));
#45=EDGE_LOOP('',(#170,#171,#172,#173));
#46=EDGE_LOOP('',(#174,#175,#176,#177));
#47=EDGE_LOOP('',(#178,#179,#180,#181));
#48=EDGE_LOOP('',(#182,#183,#184,#185));
#49=EDGE_LOOP('',(#186));
#50=EDGE_LOOP('',(#187));
#51=EDGE_LOOP('',(#188,#189,#190,#191,#192,#193));
#52=LINE('',#312,#74);
#53=LINE('',#314,#75);
#54=LINE('',#316,#76);
#55=LINE('',#317,#77);
#56=LINE('',#320,#78);
#57=LINE('',#322,#79);
#58=LINE('',#324,#80);
#59=LINE('',#326,#81);
#60=LINE('',#327,#82);
#61=LINE('',#330,#83);
#62=LINE('',#331,#84);
#63=LINE('',#334,#85);
#64=LINE('',#335,#86);
#65=LINE('',#338,#87);
#66=LINE('',#339,#88);
#67=LINE('',#344,#89);
#68=LINE('',#348,#90);
#69=LINE('',#352,#91);
#70=LINE('',#353,#92);
#71=LINE('',#355,#93);
#72=LINE('',#359,#94);
#73=LINE('',#362,#95);
#74=VECTOR('',#252,0.001154700538379);
#75=VECTOR('',#253,0.0012);
#76=VECTOR('',#254,0.001154700538379);
#77=VECTOR('',#255,0.0012);
#78=VECTOR('',#258,0.001154700538379);
#79=VECTOR('',#259,0.001154700538379);
#80=VECTOR('',#260,0.001154700538379);
#81=VECTOR('',#261,0.001154700538379);
#82=VECTOR('',#262,0.001154700538379);
#83=VECTOR('',#265,0.0012);
#84=VECTOR('',#266,0.001154700538379);
#85=VECTOR('',#269,0.001154700538379);
#86=VECTOR('',#270,0.0012);
#87=VECTOR('',#273,0.001154700538379);
#88=VECTOR('',#274,0.0012);
#89=VECTOR('',#279,1.);
#90=VECTOR('',#284,0.0015);
#91=VECTOR('',#289,0.001154700538379);
#92=VECTOR('',#290,0.0012);
#93=VECTOR('',#293,0.001154700538379);
#94=VECTOR('',#298,1.);
#95=VECTOR('',#301,0.003);
#96=VERTEX_POINT('',#310);
#97=VERTEX_POINT('',#311);
#98=VERTEX_POINT('',#313);
#99=VERTEX_POINT('',#315);
#100=VERTEX_POINT('',#319);
#101=VERTEX_POINT('',#321);
#102=VERTEX_POINT('',#323);
#103=VERTEX_POINT('',#325);
#104=VERTEX_POINT('',#329);
#105=VERTEX_POINT('',#333);
#106=VERTEX_POINT('',#337);
#107=VERTEX_POINT('',#341);
#108=VERTEX_POINT('',#343);
#109=VERTEX_POINT('',#347);
#110=VERTEX_POINT('',#351);
#111=VERTEX_POINT('',#357);
#112=VERTEX_POINT('',#361);
#113=EDGE_CURVE('',#96,#97,#52,.T.);
#114=EDGE_CURVE('',#98,#96,#53,.T.);
#115=EDGE_CURVE('',#99,#98,#54,.T.);
#116=EDGE_CURVE('',#99,#97,#55,.T.);
#117=EDGE_CURVE('',#97,#100,#56,.T.);
#118=EDGE_CURVE('',#100,#101,#57,.T.);
#119=EDGE_CURVE('',#101,#102,#58,.T.);
#120=EDGE_CURVE('',#102,#103,#59,.T.);
#121=EDGE_CURVE('',#103,#96,#60,.T.);
#122=EDGE_CURVE('',#104,#103,#61,.T.);
#123=EDGE_CURVE('',#98,#104,#62,.T.);
#124=EDGE_CURVE('',#105,#99,#63,.T.);
#125=EDGE_CURVE('',#105,#100,#64,.T.);
#126=EDGE_CURVE('',#106,#105,#65,.T.);
#127=EDGE_CURVE('',#106,#101,#66,.T.);
#128=EDGE_CURVE('',#107,#107,#18,.T.);
#129=EDGE_CURVE('',#107,#108,#67,.T.);
#130=EDGE_CURVE('',#108,#108,#19,.T.);
#131=EDGE_CURVE('',#107,#109,#68,.T.);
#132=EDGE_CURVE('',#109,#109,#20,.T.);
#133=EDGE_CURVE('',#110,#106,#69,.T.);
#134=EDGE_CURVE('',#110,#102,#70,.T.);
#135=EDGE_CURVE('',#104,#110,#71,.T.);
#136=EDGE_CURVE('',#111,#111,#21,.T.);
#137=EDGE_CURVE('',#111,#109,#72,.T.);
#138=EDGE_CURVE('',#111,#112,#73,.T.);
#139=EDGE_CURVE('',#112,#112,#22,.T.);
#140=ORIENTED_EDGE('',*,*,#113,.F.);
#141=ORIENTED_EDGE('',*,*,#114,.F.);
#142=ORIENTED_EDGE('',*,*,#115,.F.);
#143=ORIENTED_EDGE('',*,*,#116,.T.);
#144=ORIENTED_EDGE('',*,*,#117,.T.);
#145=ORIENTED_EDGE('',*,*,#118,.T.);
#146=ORIENTED_EDGE('',*,*,#119,.T.);
#147=ORIENTED_EDGE('',*,*,#120,.T.);
#148=ORIENTED_EDGE('',*,*,#121,.T.);
#149=ORIENTED_EDGE('',*,*,#113,.T.);
#150=ORIENTED_EDGE('',*,*,#121,.F.);
#151=ORIENTED_EDGE('',*,*,#122,.F.);
#152=ORIENTED_EDGE('',*,*,#123,.F.);
#153=ORIENTED_EDGE('',*,*,#114,.T.);
#154=ORIENTED_EDGE('',*,*,#117,.F.);
#155=ORIENTED_EDGE('',*,*,#116,.F.);
#156=ORIENTED_EDGE('',*,*,#124,.F.);
#157=ORIENTED_EDGE('',*,*,#125,.T.);
#158=ORIENTED_EDGE('',*,*,#118,.F.);
#159=ORIENTED_EDGE('',*,*,#125,.F.);
#160=ORIENTED_EDGE('',*,*,#126,.F.);
#161=ORIENTED_EDGE('',*,*,#127,.T.);
#162=ORIENTED_EDGE('',*,*,#128,.F.);
#163=ORIENTED_EDGE('',*,*,#129,.T.);
#164=ORIENTED_EDGE('',*,*,#130,.T.);
#165=ORIENTED_EDGE('',*,*,#129,.F.);
#166=ORIENTED_EDGE('',*,*,#128,.T.);
#167=ORIENTED_EDGE('',*,*,#131,.T.);
#168=ORIENTED_EDGE('',*,*,#132,.F.);
#169=ORIENTED_EDGE('',*,*,#131,.F.);
#170=ORIENTED_EDGE('',*,*,#119,.F.);
#171=ORIENTED_EDGE('',*,*,#127,.F.);
#172=ORIENTED_EDGE('',*,*,#133,.F.);
#173=ORIENTED_EDGE('',*,*,#134,.T.);
#174=ORIENTED_EDGE('',*,*,#120,.F.);
#175=ORIENTED_EDGE('',*,*,#134,.F.);
#176=ORIENTED_EDGE('',*,*,#135,.F.);
#177=ORIENTED_EDGE('',*,*,#122,.T.);
#178=ORIENTED_EDGE('',*,*,#136,.F.);
#179=ORIENTED_EDGE('',*,*,#137,.T.);
#180=ORIENTED_EDGE('',*,*,#132,.T.);
#181=ORIENTED_EDGE('',*,*,#137,.F.);
#182=ORIENTED_EDGE('',*,*,#136,.T.);
#183=ORIENTED_EDGE('',*,*,#138,.T.);
#184=ORIENTED_EDGE('',*,*,#139,.F.);
#185=ORIENTED_EDGE('',*,*,#138,.F.);
#186=ORIENTED_EDGE('',*,*,#130,.F.);
#187=ORIENTED_EDGE('',*,*,#139,.T.);
#188=ORIENTED_EDGE('',*,*,#124,.T.);
#189=ORIENTED_EDGE('',*,*,#115,.T.);
#190=ORIENTED_EDGE('',*,*,#123,.T.);
#191=ORIENTED_EDGE('',*,*,#135,.T.);
#192=ORIENTED_EDGE('',*,*,#133,.T.);
#193=ORIENTED_EDGE('',*,*,#126,.T.);
#194=PLANE('',#230);
#195=PLANE('',#231);
#196=PLANE('',#232);
#197=PLANE('',#233);
#198=PLANE('',#234);
#199=PLANE('',#240);
#200=PLANE('',#241);
#201=PLANE('',#246);
#202=PLANE('',#247);
#203=ADVANCED_FACE('',(#25),#194,.F.);
#204=ADVANCED_FACE('',(#26),#195,.T.);
#205=ADVANCED_FACE('',(#27),#196,.F.);
#206=ADVANCED_FACE('',(#28),#197,.F.);
#207=ADVANCED_FACE('',(#29),#198,.F.);
#208=ADVANCED_FACE('',(#30),#23,.T.);
#209=ADVANCED_FACE('',(#31),#16,.T.);
#210=ADVANCED_FACE('',(#32),#199,.F.);
#211=ADVANCED_FACE('',(#33),#200,.F.);
#212=ADVANCED_FACE('',(#34),#24,.T.);
#213=ADVANCED_FACE('',(#35),#17,.T.);
#214=ADVANCED_FACE('',(#36),#201,.T.);
#215=ADVANCED_FACE('',(#37,#15),#202,.T.);
#216=CLOSED_SHELL('',(#203,#204,#205,#206,#207,#208,#209,#210,#211,#212,
#213,#214,#215));
#217=DERIVED_UNIT_ELEMENT(#219,1.);
#218=DERIVED_UNIT_ELEMENT(#370,-3.);
#219=(
MASS_UNIT()
NAMED_UNIT(*)
SI_UNIT(.KILO.,.GRAM.)
);
#220=DERIVED_UNIT((#217,#218));
#221=MEASURE_REPRESENTATION_ITEM('density measure',
POSITIVE_RATIO_MEASURE(7850.),#220);
#222=PROPERTY_DEFINITION_REPRESENTATION(#227,#224);
#223=PROPERTY_DEFINITION_REPRESENTATION(#228,#225);
#224=REPRESENTATION('material name',(#226),#368);
#225=REPRESENTATION('density',(#221),#368);
#226=DESCRIPTIVE_REPRESENTATION_ITEM('Acier','Acier');
#227=PROPERTY_DEFINITION('material property','material name',#377);
#228=PROPERTY_DEFINITION('material property','density of part',#377);
#229=AXIS2_PLACEMENT_3D('',#308,#248,#249);
#230=AXIS2_PLACEMENT_3D('',#309,#250,#251);
#231=AXIS2_PLACEMENT_3D('',#318,#256,#257);
#232=AXIS2_PLACEMENT_3D('',#328,#263,#264);
#233=AXIS2_PLACEMENT_3D('',#332,#267,#268);
#234=AXIS2_PLACEMENT_3D('',#336,#271,#272);
#235=AXIS2_PLACEMENT_3D('',#340,#275,#276);
#236=AXIS2_PLACEMENT_3D('',#342,#277,#278);
#237=AXIS2_PLACEMENT_3D('',#345,#280,#281);
#238=AXIS2_PLACEMENT_3D('',#346,#282,#283);
#239=AXIS2_PLACEMENT_3D('',#349,#285,#286);
#240=AXIS2_PLACEMENT_3D('',#350,#287,#288);
#241=AXIS2_PLACEMENT_3D('',#354,#291,#292);
#242=AXIS2_PLACEMENT_3D('',#356,#294,#295);
#243=AXIS2_PLACEMENT_3D('',#358,#296,#297);
#244=AXIS2_PLACEMENT_3D('',#360,#299,#300);
#245=AXIS2_PLACEMENT_3D('',#363,#302,#303);
#246=AXIS2_PLACEMENT_3D('',#364,#304,#305);
#247=AXIS2_PLACEMENT_3D('',#365,#306,#307);
#248=DIRECTION('axis',(0.,0.,1.));
#249=DIRECTION('refdir',(1.,0.,0.));
#250=DIRECTION('center_axis',(1.,0.,0.));
#251=DIRECTION('ref_axis',(0.,0.,-1.));
#252=DIRECTION('',(0.,0.,-1.));
#253=DIRECTION('',(0.,-1.,0.));
#254=DIRECTION('',(0.,0.,1.));
#255=DIRECTION('',(0.,-1.,0.));
#256=DIRECTION('center_axis',(0.,1.,0.));
#257=DIRECTION('ref_axis',(0.,0.,1.));
#258=DIRECTION('',(-0.866025403782853,0.,-0.500000000002746));
#259=DIRECTION('',(-0.866025403782853,0.,0.500000000002746));
#260=DIRECTION('',(0.,0.,1.));
#261=DIRECTION('',(0.866025403782854,0.,0.500000000002745));
#262=DIRECTION('',(0.866025403782854,0.,-0.500000000002745));
#263=DIRECTION('center_axis',(0.5,-3.505401E-16,0.866025403784439));
#264=DIRECTION('ref_axis',(0.866025403784439,2.46519032881566E-32,-0.5));
#265=DIRECTION('',(0.,-1.,0.));
#266=DIRECTION('',(-0.866025403782854,0.,0.500000000002745));
#267=DIRECTION('center_axis',(0.500000000000001,3.505401E-16,-0.866025403784438));
#268=DIRECTION('ref_axis',(-0.866025403784438,2.46519032881566E-32,-0.500000000000001));
#269=DIRECTION('',(0.866025403782853,0.,0.500000000002746));
#270=DIRECTION('',(0.,-1.,0.));
#271=DIRECTION('center_axis',(-0.500000000000001,3.505401E-16,-0.866025403784438));
#272=DIRECTION('ref_axis',(-0.866025403784438,-2.46519032881566E-32,0.500000000000001));
#273=DIRECTION('',(0.866025403782854,0.,-0.500000000002745));
#274=DIRECTION('',(0.,-1.,0.));
#275=DIRECTION('center_axis',(0.,1.,0.));
#276=DIRECTION('ref_axis',(0.,0.,1.));
#277=DIRECTION('center_axis',(0.,1.,0.));
#278=DIRECTION('ref_axis',(0.,0.,1.));
#279=DIRECTION('',(8.65956055458343E-17,-0.707106781821139,0.707106780551956));
#280=DIRECTION('center_axis',(0.,1.,0.));
#281=DIRECTION('ref_axis',(0.,0.,1.));
#282=DIRECTION('center_axis',(0.,-1.,0.));
#283=DIRECTION('ref_axis',(0.,0.,1.));
#284=DIRECTION('',(0.,1.,0.));
#285=DIRECTION('center_axis',(0.,1.,0.));
#286=DIRECTION('ref_axis',(0.,0.,1.));
#287=DIRECTION('center_axis',(-1.,0.,0.));
#288=DIRECTION('ref_axis',(0.,0.,1.));
#289=DIRECTION('',(0.,0.,-1.));
#290=DIRECTION('',(0.,-1.,0.));
#291=DIRECTION('center_axis',(-0.5,-3.505401E-16,0.866025403784439));
#292=DIRECTION('ref_axis',(0.866025403784439,-2.46519032881566E-32,0.5));
#293=DIRECTION('',(-0.866025403782854,0.,-0.500000000002745));
#294=DIRECTION('center_axis',(0.,1.,0.));
#295=DIRECTION('ref_axis',(0.,0.,1.));
#296=DIRECTION('center_axis',(0.,1.,0.));
#297=DIRECTION('ref_axis',(0.,0.,1.));
#298=DIRECTION('',(8.65956055458343E-17,-0.707106781821139,0.707106780551956));
#299=DIRECTION('center_axis',(0.,-1.,0.));
#300=DIRECTION('ref_axis',(0.,0.,1.));
#301=DIRECTION('',(0.,1.,0.));
#302=DIRECTION('center_axis',(0.,1.,0.));
#303=DIRECTION('ref_axis',(0.,0.,1.));
#304=DIRECTION('center_axis',(0.,-1.,0.));
#305=DIRECTION('ref_axis',(0.,0.,-1.));
#306=DIRECTION('center_axis',(0.,1.,0.));
#307=DIRECTION('ref_axis',(0.,0.,1.));
#308=CARTESIAN_POINT('',(0.,0.,0.));
#309=CARTESIAN_POINT('Origin',(0.001,3.520875E-19,0.00057735026919));
#310=CARTESIAN_POINT('',(0.001,-0.0012,0.00057735026919));
#311=CARTESIAN_POINT('',(0.001,-0.0012,-0.00057735026919));
#312=CARTESIAN_POINT('',(0.00100000000001,-0.00120000000001,0.00057735026919));
#313=CARTESIAN_POINT('',(0.001,3.520875E-19,0.00057735026919));
#314=CARTESIAN_POINT('',(0.00100000000001,3.520875E-19,0.0005773502692));
#315=CARTESIAN_POINT('',(0.001,7.927266E-19,-0.00057735026919));
#316=CARTESIAN_POINT('',(0.00100000000001,1.000079E-14,-0.00057735026919));
#317=CARTESIAN_POINT('',(0.00100000000001,7.927266E-19,-0.0005773502692));
#318=CARTESIAN_POINT('Origin',(8.500145E-19,-0.0012,-8.500145E-19));
#319=CARTESIAN_POINT('',(1.040834E-18,-0.0012,-0.001154700538379));
#320=CARTESIAN_POINT('',(0.001000000000007,-0.00120000000001,-0.000577350269201));
#321=CARTESIAN_POINT('',(-0.001,-0.0012,-0.00057735026919));
#322=CARTESIAN_POINT('',(-1.829129E-15,-0.00120000000001,-0.001154700538382));
#323=CARTESIAN_POINT('',(-0.001,-0.0012,0.00057735026919));
#324=CARTESIAN_POINT('',(-0.00100000000001,-0.00120000000001,-0.00057735026919));
#325=CARTESIAN_POINT('',(1.040834E-18,-0.0012,0.001154700538379));
#326=CARTESIAN_POINT('',(-0.001000000000007,-0.00120000000001,0.000577350269201));
#327=CARTESIAN_POINT('',(6.831168E-15,-0.00120000000001,0.001154700538391));
#328=CARTESIAN_POINT('Origin',(1.040834E-18,1.317679E-19,0.001154700538379));
#329=CARTESIAN_POINT('',(1.040834E-18,1.317679E-19,0.001154700538379));
#330=CARTESIAN_POINT('',(1.000104E-14,1.317679E-19,0.001154700538389));
#331=CARTESIAN_POINT('',(0.001000000000007,1.000035E-14,0.000577350269201));
#332=CARTESIAN_POINT('Origin',(0.001,7.927266E-19,-0.00057735026919));
#333=CARTESIAN_POINT('',(1.040834E-18,1.013046E-18,-0.001154700538379));
#334=CARTESIAN_POINT('',(6.831168E-15,1.000101E-14,-0.001154700538391));
#335=CARTESIAN_POINT('',(1.000104E-14,1.013046E-18,-0.001154700538389));
#336=CARTESIAN_POINT('Origin',(1.040834E-18,1.013046E-18,-0.001154700538379));
#337=CARTESIAN_POINT('',(-0.001,7.927266E-19,-0.00057735026919));
#338=CARTESIAN_POINT('',(-0.001000000000007,1.000079E-14,-0.000577350269201));
#339=CARTESIAN_POINT('',(-0.00100000000001,7.927266E-19,-0.0005773502692));
#340=CARTESIAN_POINT('Origin',(0.,0.992650001792339,-2.261008E-18));
#341=CARTESIAN_POINT('',(-1.83697019863861E-19,-0.00584999999993244,-0.0014999999999327));
#342=CARTESIAN_POINT('Origin',(0.,-0.00585000000001,-1.000223E-14));
#343=CARTESIAN_POINT('',(-1.65327317891908E-19,-0.00600000000007711,-0.00135000000005732));
#344=CARTESIAN_POINT('',(-1.22464679914735E-16,0.992650001792339,-1.));
#345=CARTESIAN_POINT('Origin',(0.,-0.00600000000001,-1.000229E-14));
#346=CARTESIAN_POINT('Origin',(0.,-0.003775,-1.440558E-18));
#347=CARTESIAN_POINT('',(1.83697019872103E-19,-0.00170000000001,-0.0015));
#348=CARTESIAN_POINT('',(1.83697019872103E-19,-0.003775,-0.0015));
#349=CARTESIAN_POINT('Origin',(0.,-0.00170000000001,-1.000065E-14));
#350=CARTESIAN_POINT('Origin',(-0.001,7.927266E-19,-0.00057735026919));
#351=CARTESIAN_POINT('',(-0.001,3.520875E-19,0.00057735026919));
#352=CARTESIAN_POINT('',(-0.00100000000001,1.000035E-14,0.00057735026919));
#353=CARTESIAN_POINT('',(-0.00100000000001,3.520875E-19,0.0005773502692));
#354=CARTESIAN_POINT('Origin',(-0.001,3.520875E-19,0.00057735026919));
#355=CARTESIAN_POINT('',(-1.829129E-15,1.000013E-14,0.001154700538382));
#356=CARTESIAN_POINT('Origin',(0.,0.996800001790858,-3.625245E-19));
#357=CARTESIAN_POINT('',(-3.67394039661773E-19,-0.000199999999326792,-0.00299999999932695));
#358=CARTESIAN_POINT('Origin',(0.,-0.00020000000001,-1.000008E-14));
#359=CARTESIAN_POINT('',(-1.22464679914735E-16,0.996800001790858,-1.));
#360=CARTESIAN_POINT('Origin',(0.,-0.0001,-3.816047E-20));
#361=CARTESIAN_POINT('',(3.67394039744206E-19,1.000113186711E-14,-0.003));
#362=CARTESIAN_POINT('',(3.67394039744206E-19,-0.0001,-0.003));
#363=CARTESIAN_POINT('Origin',(0.,1.000114E-14,1.E-14));
#364=CARTESIAN_POINT('Origin',(0.,-0.006,0.000675));
#365=CARTESIAN_POINT('Origin',(0.,0.,0.0015));
#366=UNCERTAINTY_MEASURE_WITH_UNIT(LENGTH_MEASURE(1.E-5),#370,
'DISTANCE_ACCURACY_VALUE',
'Maximum model space distance between geometric entities at asserted c
onnectivities');
#367=UNCERTAINTY_MEASURE_WITH_UNIT(LENGTH_MEASURE(1.E-5),#370,
'DISTANCE_ACCURACY_VALUE',
'Maximum model space distance between geometric entities at asserted c
onnectivities');
#368=(
GEOMETRIC_REPRESENTATION_CONTEXT(3)
GLOBAL_UNCERTAINTY_ASSIGNED_CONTEXT((#366))
GLOBAL_UNIT_ASSIGNED_CONTEXT((#370,#371,#372))
REPRESENTATION_CONTEXT('','3D')
);
#369=(
GEOMETRIC_REPRESENTATION_CONTEXT(3)
GLOBAL_UNCERTAINTY_ASSIGNED_CONTEXT((#367))
GLOBAL_UNIT_ASSIGNED_CONTEXT((#370,#371,#372))
REPRESENTATION_CONTEXT('','3D')
);
#370=(
LENGTH_UNIT()
NAMED_UNIT(*)
SI_UNIT($,.METRE.)
);
#371=(
NAMED_UNIT(*)
PLANE_ANGLE_UNIT()
SI_UNIT($,.RADIAN.)
);
#372=(
NAMED_UNIT(*)
SI_UNIT($,.STERADIAN.)
SOLID_ANGLE_UNIT()
);
#373=SHAPE_DEFINITION_REPRESENTATION(#374,#375);
#374=PRODUCT_DEFINITION_SHAPE('',$,#377);
#375=SHAPE_REPRESENTATION('',(#229),#368);
#376=PRODUCT_DEFINITION_CONTEXT('part definition',#381,'design');
#377=PRODUCT_DEFINITION('101619-2 m3x4','BOLT_CSK_M3_4mm v1',#378,#376);
#378=PRODUCT_DEFINITION_FORMATION('',$,#383);
#379=PRODUCT_RELATED_PRODUCT_CATEGORY('BOLT_CSK_M3_4mm v1',
'BOLT_CSK_M3_4mm v1',(#383));
#380=APPLICATION_PROTOCOL_DEFINITION('international standard',
'automotive_design',2009,#381);
#381=APPLICATION_CONTEXT(
'Core Data for Automotive Mechanical Design Process');
#382=PRODUCT_CONTEXT('part definition',#381,'mechanical');
#383=PRODUCT('101619-2 m3x4','BOLT_CSK_M3_4mm v1',$,(#382));
#384=PRESENTATION_STYLE_ASSIGNMENT((#386));
#385=PRESENTATION_STYLE_ASSIGNMENT((#387));
#386=SURFACE_STYLE_USAGE(.BOTH.,#388);
#387=SURFACE_STYLE_USAGE(.BOTH.,#389);
#388=SURFACE_SIDE_STYLE('',(#390));
#389=SURFACE_SIDE_STYLE('',(#391));
#390=SURFACE_STYLE_FILL_AREA(#392);
#391=SURFACE_STYLE_FILL_AREA(#393);
#392=FILL_AREA_STYLE('Acier - Satin\X\E9',(#394));
#393=FILL_AREA_STYLE('Opaque(163,163,175)',(#395));
#394=FILL_AREA_STYLE_COLOUR('Acier - Satin\X\E9',#396);
#395=FILL_AREA_STYLE_COLOUR('Opaque(163,163,175)',#397);
#396=COLOUR_RGB('Acier - Satin\X\E9',0.627450980392157,0.627450980392157,
0.627450980392157);
#397=COLOUR_RGB('Opaque(163,163,175)',0.63921568627451,0.63921568627451,
0.686274509803922);
ENDSEC;
END-ISO-10303-21;
