ISO-10303-21;
HEADER;
/* Generated by software containing ST-Developer
 * from STEP Tools, Inc. (www.steptools.com) 
 */

FILE_DESCRIPTION(
/* description */ ('STEP AP242'),
/* implementation_level */ '2;1');

FILE_NAME(
/* name */ 'BOLT_BHSCS_M5_16mm.step',
/* time_stamp */ '2026-08-10T14:31:47+02:00',
/* author */ (''),
/* organization */ (''),
/* preprocessor_version */ 'ST-DEVELOPER v20.1',
/* originating_system */ 'Autodesk Translation Framework v15.8.0.0',
/* authorisation */ '');

FILE_SCHEMA (('AUTOMOTIVE_DESIGN { 1 0 10303 214 3 1 1 }'));
ENDSEC;

DATA;
#10=MECHANICAL_DESIGN_GEOMETRIC_PRESENTATION_REPRESENTATION('',(#13),#750);
#11=SHAPE_REPRESENTATION_RELATIONSHIP('SRR','None',#757,#12);
#12=ADVANCED_BREP_SHAPE_REPRESENTATION('',(#14),#749);
#13=STYLED_ITEM('',(#767),#14);
#14=MANIFOLD_SOLID_BREP('Corps1',#389);
#15=FACE_BOUND('',#114,.T.);
#16=PLANE('',#443);
#17=PLANE('',#444);
#18=PLANE('',#445);
#19=PLANE('',#446);
#20=PLANE('',#447);
#21=PLANE('',#448);
#22=PLANE('',#449);
#23=PLANE('',#450);
#24=PLANE('',#455);
#25=PLANE('',#456);
#26=PLANE('',#457);
#27=PLANE('',#458);
#28=PLANE('',#459);
#29=PLANE('',#460);
#30=TOROIDAL_SURFACE('',#435,2.7,0.200000000000001);
#31=CYLINDRICAL_SURFACE('',#433,4.75);
#32=CYLINDRICAL_SURFACE('',#439,2.5);
#33=ELLIPSE('',#415,4.11390297498132,3.21016573173919);
#34=ELLIPSE('',#416,3.66376285204358,2.60214937706045);
#35=ELLIPSE('',#418,3.66376187701996,2.60214855933289);
#36=ELLIPSE('',#419,3.66375832760649,2.60214385755106);
#37=ELLIPSE('',#421,3.6637530123387,2.60213635547405);
#38=ELLIPSE('',#422,4.1298725534855,3.2318397792017);
#39=ELLIPSE('',#425,4.11392754572184,3.21019907318668);
#40=ELLIPSE('',#426,3.66376136880804,2.60214743261707);
#41=ELLIPSE('',#428,3.66375997869631,2.602145583539);
#42=ELLIPSE('',#429,3.66375778629286,2.60214268133415);
#43=ELLIPSE('',#431,3.66376702998322,2.60215492798591);
#44=ELLIPSE('',#432,4.12984042911968,3.23179618855627);
#45=(
BOUNDED_SURFACE()
B_SPLINE_SURFACE(2,2,((#627,#628,#629,#630,#631,#632,#633,#634,#635),(#636,
#637,#638,#639,#640,#641,#642,#643,#644),(#645,#646,#647,#648,#649,#650,
#651,#652,#653)),.UNSPECIFIED.,.F.,.T.,.F.)
B_SPLINE_SURFACE_WITH_KNOTS((3,3),(3,2,2,2,3),(0.519643339546296,1.22277351664161),
(-3.14159265358979,-1.5707963267949,0.,1.5707963267949,3.14159265358979),
 .UNSPECIFIED.)
GEOMETRIC_REPRESENTATION_ITEM()
RATIONAL_B_SPLINE_SURFACE(((1.,0.707106781186548,1.,0.707106781186548,1.,
0.707106781186548,1.,0.707106781186548,1.),(0.938834897137496,0.663856522180499,
0.938834897137496,0.663856522180499,0.938834897137496,0.663856522180499,
0.938834897137496,0.663856522180499,0.938834897137496),(1.,0.707106781186548,
1.,0.707106781186548,1.,0.707106781186548,1.,0.707106781186548,1.)))
REPRESENTATION_ITEM('')
SURFACE()
);
#46=LINE('',#608,#62);
#47=LINE('',#690,#63);
#48=LINE('',#700,#64);
#49=LINE('',#703,#65);
#50=LINE('',#711,#66);
#51=LINE('',#712,#67);
#52=LINE('',#713,#68);
#53=LINE('',#715,#69);
#54=LINE('',#716,#70);
#55=LINE('',#721,#71);
#56=LINE('',#722,#72);
#57=LINE('',#727,#73);
#58=LINE('',#728,#74);
#59=LINE('',#730,#75);
#60=LINE('',#731,#76);
#61=LINE('',#736,#77);
#62=VECTOR('',#471,1.73205080756888);
#63=VECTOR('',#528,4.75);
#64=VECTOR('',#541,2.5);
#65=VECTOR('',#544,2.1);
#66=VECTOR('',#553,1000.);
#67=VECTOR('',#554,1000.);
#68=VECTOR('',#555,1000.);
#69=VECTOR('',#558,1000.);
#70=VECTOR('',#559,1000.);
#71=VECTOR('',#562,1000.);
#72=VECTOR('',#563,1000.);
#73=VECTOR('',#566,1000.);
#74=VECTOR('',#567,1000.);
#75=VECTOR('',#570,1000.);
#76=VECTOR('',#571,1000.);
#77=VECTOR('',#574,1000.);
#78=FACE_OUTER_BOUND('',#104,.T.);
#79=FACE_OUTER_BOUND('',#105,.T.);
#80=FACE_OUTER_BOUND('',#106,.T.);
#81=FACE_OUTER_BOUND('',#107,.T.);
#82=FACE_OUTER_BOUND('',#108,.T.);
#83=FACE_OUTER_BOUND('',#109,.T.);
#84=FACE_OUTER_BOUND('',#110,.T.);
#85=FACE_OUTER_BOUND('',#111,.T.);
#86=FACE_OUTER_BOUND('',#112,.T.);
#87=FACE_OUTER_BOUND('',#113,.T.);
#88=FACE_OUTER_BOUND('',#115,.T.);
#89=FACE_OUTER_BOUND('',#116,.T.);
#90=FACE_OUTER_BOUND('',#117,.T.);
#91=FACE_OUTER_BOUND('',#118,.T.);
#92=FACE_OUTER_BOUND('',#119,.T.);
#93=FACE_OUTER_BOUND('',#120,.T.);
#94=FACE_OUTER_BOUND('',#121,.T.);
#95=FACE_OUTER_BOUND('',#122,.T.);
#96=FACE_OUTER_BOUND('',#123,.T.);
#97=FACE_OUTER_BOUND('',#124,.T.);
#98=FACE_OUTER_BOUND('',#125,.T.);
#99=FACE_OUTER_BOUND('',#126,.T.);
#100=FACE_OUTER_BOUND('',#127,.T.);
#101=FACE_OUTER_BOUND('',#128,.T.);
#102=FACE_OUTER_BOUND('',#129,.T.);
#103=FACE_OUTER_BOUND('',#130,.T.);
#104=EDGE_LOOP('',(#245,#246,#247));
#105=EDGE_LOOP('',(#248,#249,#250,#251,#252,#253,#254,#255));
#106=EDGE_LOOP('',(#256,#257));
#107=EDGE_LOOP('',(#258,#259,#260,#261,#262,#263,#264,#265,#266,#267,#268,
#269,#270,#271,#272,#273,#274,#275,#276,#277,#278,#279));
#108=EDGE_LOOP('',(#280,#281,#282,#283));
#109=EDGE_LOOP('',(#284,#285,#286,#287));
#110=EDGE_LOOP('',(#288,#289,#290,#291));
#111=EDGE_LOOP('',(#292,#293,#294,#295));
#112=EDGE_LOOP('',(#296));
#113=EDGE_LOOP('',(#297));
#114=EDGE_LOOP('',(#298));
#115=EDGE_LOOP('',(#299,#300,#301,#302,#303,#304));
#116=EDGE_LOOP('',(#305,#306,#307,#308,#309,#310));
#117=EDGE_LOOP('',(#311,#312,#313,#314,#315,#316));
#118=EDGE_LOOP('',(#317,#318,#319,#320,#321,#322));
#119=EDGE_LOOP('',(#323,#324,#325,#326,#327,#328));
#120=EDGE_LOOP('',(#329,#330,#331,#332,#333,#334));
#121=EDGE_LOOP('',(#335,#336));
#122=EDGE_LOOP('',(#337,#338));
#123=EDGE_LOOP('',(#339,#340));
#124=EDGE_LOOP('',(#341,#342));
#125=EDGE_LOOP('',(#343,#344));
#126=EDGE_LOOP('',(#345,#346));
#127=EDGE_LOOP('',(#347,#348));
#128=EDGE_LOOP('',(#349,#350));
#129=EDGE_LOOP('',(#351,#352));
#130=EDGE_LOOP('',(#353,#354));
#131=CIRCLE('',#404,1.72);
#132=CIRCLE('',#405,1.72);
#133=CIRCLE('',#407,1.73205080756888);
#134=CIRCLE('',#408,1.73205080756888);
#135=CIRCLE('',#409,1.73205080756888);
#136=CIRCLE('',#410,1.73205080756888);
#137=CIRCLE('',#411,1.73205080756888);
#138=CIRCLE('',#412,1.73205080756888);
#139=CIRCLE('',#414,1.72);
#140=CIRCLE('',#417,1.72);
#141=CIRCLE('',#420,1.72);
#142=CIRCLE('',#423,5.75);
#143=CIRCLE('',#424,4.75);
#144=CIRCLE('',#427,1.72);
#145=CIRCLE('',#430,1.72);
#146=CIRCLE('',#434,4.75);
#147=CIRCLE('',#436,2.7);
#148=CIRCLE('',#437,0.200000000000001);
#149=CIRCLE('',#438,2.5);
#150=CIRCLE('',#440,2.5);
#151=CIRCLE('',#442,2.1);
#152=(
BOUNDED_CURVE()
B_SPLINE_CURVE(2,(#599,#600,#601),.UNSPECIFIED.,.F.,.F.)
B_SPLINE_CURVE_WITH_KNOTS((3,3),(-0.720143028664938,-0.349365842109631),
 .UNSPECIFIED.)
CURVE()
GEOMETRIC_REPRESENTATION_ITEM()
RATIONAL_B_SPLINE_CURVE((2.15902198992823,2.47567854845105,2.15902198992823))
REPRESENTATION_ITEM('')
);
#153=(
BOUNDED_CURVE()
B_SPLINE_CURVE(2,(#623,#624,#625),.UNSPECIFIED.,.F.,.F.)
B_SPLINE_CURVE_WITH_KNOTS((3,3),(0.349365842109631,0.720143028664939),
 .UNSPECIFIED.)
CURVE()
GEOMETRIC_REPRESENTATION_ITEM()
RATIONAL_B_SPLINE_CURVE((2.15902198992823,2.47567854845105,2.15902198992823))
REPRESENTATION_ITEM('')
);
#154=(
BOUNDED_CURVE()
B_SPLINE_CURVE(2,(#708,#709,#710),.UNSPECIFIED.,.F.,.F.)
B_SPLINE_CURVE_WITH_KNOTS((3,3),(0.34936584210963,0.720143028664937),
 .UNSPECIFIED.)
CURVE()
GEOMETRIC_REPRESENTATION_ITEM()
RATIONAL_B_SPLINE_CURVE((2.15902198992823,2.47567854845105,2.15902198992823))
REPRESENTATION_ITEM('')
);
#155=(
BOUNDED_CURVE()
B_SPLINE_CURVE(2,(#718,#719,#720),.UNSPECIFIED.,.F.,.F.)
B_SPLINE_CURVE_WITH_KNOTS((3,3),(0.349365842109631,0.720143028664938),
 .UNSPECIFIED.)
CURVE()
GEOMETRIC_REPRESENTATION_ITEM()
RATIONAL_B_SPLINE_CURVE((2.15902198992823,2.47567854845104,2.15902198992823))
REPRESENTATION_ITEM('')
);
#156=(
BOUNDED_CURVE()
B_SPLINE_CURVE(2,(#724,#725,#726),.UNSPECIFIED.,.F.,.F.)
B_SPLINE_CURVE_WITH_KNOTS((3,3),(0.34936584210963,0.720143028664937),
 .UNSPECIFIED.)
CURVE()
GEOMETRIC_REPRESENTATION_ITEM()
RATIONAL_B_SPLINE_CURVE((2.15902198992823,2.47567854845104,2.15902198992823))
REPRESENTATION_ITEM('')
);
#157=(
BOUNDED_CURVE()
B_SPLINE_CURVE(2,(#733,#734,#735),.UNSPECIFIED.,.F.,.F.)
B_SPLINE_CURVE_WITH_KNOTS((3,3),(0.349365842109631,0.720143028664937),
 .UNSPECIFIED.)
CURVE()
GEOMETRIC_REPRESENTATION_ITEM()
RATIONAL_B_SPLINE_CURVE((2.15902198992823,2.47567854845104,2.15902198992823))
REPRESENTATION_ITEM('')
);
#158=VERTEX_POINT('',#597);
#159=VERTEX_POINT('',#598);
#160=VERTEX_POINT('',#602);
#161=VERTEX_POINT('',#606);
#162=VERTEX_POINT('',#607);
#163=VERTEX_POINT('',#609);
#164=VERTEX_POINT('',#611);
#165=VERTEX_POINT('',#613);
#166=VERTEX_POINT('',#615);
#167=VERTEX_POINT('',#617);
#168=VERTEX_POINT('',#621);
#169=VERTEX_POINT('',#622);
#170=VERTEX_POINT('',#654);
#171=VERTEX_POINT('',#656);
#172=VERTEX_POINT('',#658);
#173=VERTEX_POINT('',#660);
#174=VERTEX_POINT('',#662);
#175=VERTEX_POINT('',#664);
#176=VERTEX_POINT('',#666);
#177=VERTEX_POINT('',#669);
#178=VERTEX_POINT('',#672);
#179=VERTEX_POINT('',#674);
#180=VERTEX_POINT('',#676);
#181=VERTEX_POINT('',#678);
#182=VERTEX_POINT('',#680);
#183=VERTEX_POINT('',#682);
#184=VERTEX_POINT('',#684);
#185=VERTEX_POINT('',#688);
#186=VERTEX_POINT('',#692);
#187=VERTEX_POINT('',#694);
#188=VERTEX_POINT('',#698);
#189=VERTEX_POINT('',#702);
#190=EDGE_CURVE('',#158,#159,#152,.T.);
#191=EDGE_CURVE('',#158,#160,#131,.T.);
#192=EDGE_CURVE('',#160,#159,#132,.T.);
#193=EDGE_CURVE('',#161,#162,#46,.T.);
#194=EDGE_CURVE('',#162,#163,#133,.T.);
#195=EDGE_CURVE('',#163,#164,#134,.T.);
#196=EDGE_CURVE('',#164,#165,#135,.T.);
#197=EDGE_CURVE('',#165,#166,#136,.T.);
#198=EDGE_CURVE('',#166,#167,#137,.T.);
#199=EDGE_CURVE('',#167,#162,#138,.T.);
#200=EDGE_CURVE('',#168,#169,#153,.F.);
#201=EDGE_CURVE('',#168,#169,#139,.T.);
#202=EDGE_CURVE('',#168,#170,#33,.T.);
#203=EDGE_CURVE('',#170,#171,#34,.T.);
#204=EDGE_CURVE('',#172,#171,#140,.T.);
#205=EDGE_CURVE('',#172,#173,#35,.T.);
#206=EDGE_CURVE('',#173,#174,#36,.T.);
#207=EDGE_CURVE('',#175,#174,#141,.T.);
#208=EDGE_CURVE('',#175,#176,#37,.T.);
#209=EDGE_CURVE('',#176,#159,#38,.T.);
#210=EDGE_CURVE('',#160,#177,#142,.T.);
#211=EDGE_CURVE('',#177,#177,#143,.T.);
#212=EDGE_CURVE('',#158,#178,#39,.T.);
#213=EDGE_CURVE('',#178,#179,#40,.T.);
#214=EDGE_CURVE('',#180,#179,#144,.T.);
#215=EDGE_CURVE('',#180,#181,#41,.T.);
#216=EDGE_CURVE('',#181,#182,#42,.T.);
#217=EDGE_CURVE('',#183,#182,#145,.T.);
#218=EDGE_CURVE('',#183,#184,#43,.T.);
#219=EDGE_CURVE('',#184,#169,#44,.T.);
#220=EDGE_CURVE('',#185,#185,#146,.T.);
#221=EDGE_CURVE('',#185,#177,#47,.T.);
#222=EDGE_CURVE('',#186,#186,#147,.T.);
#223=EDGE_CURVE('',#186,#187,#148,.T.);
#224=EDGE_CURVE('',#187,#187,#149,.T.);
#225=EDGE_CURVE('',#188,#188,#150,.T.);
#226=EDGE_CURVE('',#188,#187,#48,.T.);
#227=EDGE_CURVE('',#188,#189,#49,.T.);
#228=EDGE_CURVE('',#189,#189,#151,.T.);
#229=EDGE_CURVE('',#175,#174,#154,.T.);
#230=EDGE_CURVE('',#165,#173,#50,.T.);
#231=EDGE_CURVE('',#164,#165,#51,.T.);
#232=EDGE_CURVE('',#164,#176,#52,.T.);
#233=EDGE_CURVE('',#163,#164,#53,.T.);
#234=EDGE_CURVE('',#163,#178,#54,.T.);
#235=EDGE_CURVE('',#180,#179,#155,.T.);
#236=EDGE_CURVE('',#162,#163,#55,.T.);
#237=EDGE_CURVE('',#162,#181,#56,.T.);
#238=EDGE_CURVE('',#183,#182,#156,.T.);
#239=EDGE_CURVE('',#167,#162,#57,.T.);
#240=EDGE_CURVE('',#167,#184,#58,.T.);
#241=EDGE_CURVE('',#166,#167,#59,.T.);
#242=EDGE_CURVE('',#166,#170,#60,.T.);
#243=EDGE_CURVE('',#172,#171,#157,.T.);
#244=EDGE_CURVE('',#165,#166,#61,.T.);
#245=ORIENTED_EDGE('',*,*,#190,.F.);
#246=ORIENTED_EDGE('',*,*,#191,.T.);
#247=ORIENTED_EDGE('',*,*,#192,.T.);
#248=ORIENTED_EDGE('',*,*,#193,.T.);
#249=ORIENTED_EDGE('',*,*,#194,.T.);
#250=ORIENTED_EDGE('',*,*,#195,.T.);
#251=ORIENTED_EDGE('',*,*,#196,.T.);
#252=ORIENTED_EDGE('',*,*,#197,.T.);
#253=ORIENTED_EDGE('',*,*,#198,.T.);
#254=ORIENTED_EDGE('',*,*,#199,.T.);
#255=ORIENTED_EDGE('',*,*,#193,.F.);
#256=ORIENTED_EDGE('',*,*,#200,.F.);
#257=ORIENTED_EDGE('',*,*,#201,.T.);
#258=ORIENTED_EDGE('',*,*,#201,.F.);
#259=ORIENTED_EDGE('',*,*,#202,.T.);
#260=ORIENTED_EDGE('',*,*,#203,.T.);
#261=ORIENTED_EDGE('',*,*,#204,.F.);
#262=ORIENTED_EDGE('',*,*,#205,.T.);
#263=ORIENTED_EDGE('',*,*,#206,.T.);
#264=ORIENTED_EDGE('',*,*,#207,.F.);
#265=ORIENTED_EDGE('',*,*,#208,.T.);
#266=ORIENTED_EDGE('',*,*,#209,.T.);
#267=ORIENTED_EDGE('',*,*,#192,.F.);
#268=ORIENTED_EDGE('',*,*,#210,.T.);
#269=ORIENTED_EDGE('',*,*,#211,.T.);
#270=ORIENTED_EDGE('',*,*,#210,.F.);
#271=ORIENTED_EDGE('',*,*,#191,.F.);
#272=ORIENTED_EDGE('',*,*,#212,.T.);
#273=ORIENTED_EDGE('',*,*,#213,.T.);
#274=ORIENTED_EDGE('',*,*,#214,.F.);
#275=ORIENTED_EDGE('',*,*,#215,.T.);
#276=ORIENTED_EDGE('',*,*,#216,.T.);
#277=ORIENTED_EDGE('',*,*,#217,.F.);
#278=ORIENTED_EDGE('',*,*,#218,.T.);
#279=ORIENTED_EDGE('',*,*,#219,.T.);
#280=ORIENTED_EDGE('',*,*,#220,.T.);
#281=ORIENTED_EDGE('',*,*,#221,.T.);
#282=ORIENTED_EDGE('',*,*,#211,.F.);
#283=ORIENTED_EDGE('',*,*,#221,.F.);
#284=ORIENTED_EDGE('',*,*,#222,.F.);
#285=ORIENTED_EDGE('',*,*,#223,.T.);
#286=ORIENTED_EDGE('',*,*,#224,.T.);
#287=ORIENTED_EDGE('',*,*,#223,.F.);
#288=ORIENTED_EDGE('',*,*,#225,.T.);
#289=ORIENTED_EDGE('',*,*,#226,.T.);
#290=ORIENTED_EDGE('',*,*,#224,.F.);
#291=ORIENTED_EDGE('',*,*,#226,.F.);
#292=ORIENTED_EDGE('',*,*,#225,.F.);
#293=ORIENTED_EDGE('',*,*,#227,.T.);
#294=ORIENTED_EDGE('',*,*,#228,.T.);
#295=ORIENTED_EDGE('',*,*,#227,.F.);
#296=ORIENTED_EDGE('',*,*,#228,.F.);
#297=ORIENTED_EDGE('',*,*,#220,.F.);
#298=ORIENTED_EDGE('',*,*,#222,.T.);
#299=ORIENTED_EDGE('',*,*,#208,.F.);
#300=ORIENTED_EDGE('',*,*,#229,.T.);
#301=ORIENTED_EDGE('',*,*,#206,.F.);
#302=ORIENTED_EDGE('',*,*,#230,.F.);
#303=ORIENTED_EDGE('',*,*,#231,.F.);
#304=ORIENTED_EDGE('',*,*,#232,.T.);
#305=ORIENTED_EDGE('',*,*,#212,.F.);
#306=ORIENTED_EDGE('',*,*,#190,.T.);
#307=ORIENTED_EDGE('',*,*,#209,.F.);
#308=ORIENTED_EDGE('',*,*,#232,.F.);
#309=ORIENTED_EDGE('',*,*,#233,.F.);
#310=ORIENTED_EDGE('',*,*,#234,.T.);
#311=ORIENTED_EDGE('',*,*,#215,.F.);
#312=ORIENTED_EDGE('',*,*,#235,.T.);
#313=ORIENTED_EDGE('',*,*,#213,.F.);
#314=ORIENTED_EDGE('',*,*,#234,.F.);
#315=ORIENTED_EDGE('',*,*,#236,.F.);
#316=ORIENTED_EDGE('',*,*,#237,.T.);
#317=ORIENTED_EDGE('',*,*,#218,.F.);
#318=ORIENTED_EDGE('',*,*,#238,.T.);
#319=ORIENTED_EDGE('',*,*,#216,.F.);
#320=ORIENTED_EDGE('',*,*,#237,.F.);
#321=ORIENTED_EDGE('',*,*,#239,.F.);
#322=ORIENTED_EDGE('',*,*,#240,.T.);
#323=ORIENTED_EDGE('',*,*,#202,.F.);
#324=ORIENTED_EDGE('',*,*,#200,.T.);
#325=ORIENTED_EDGE('',*,*,#219,.F.);
#326=ORIENTED_EDGE('',*,*,#240,.F.);
#327=ORIENTED_EDGE('',*,*,#241,.F.);
#328=ORIENTED_EDGE('',*,*,#242,.T.);
#329=ORIENTED_EDGE('',*,*,#205,.F.);
#330=ORIENTED_EDGE('',*,*,#243,.T.);
#331=ORIENTED_EDGE('',*,*,#203,.F.);
#332=ORIENTED_EDGE('',*,*,#242,.F.);
#333=ORIENTED_EDGE('',*,*,#244,.F.);
#334=ORIENTED_EDGE('',*,*,#230,.T.);
#335=ORIENTED_EDGE('',*,*,#204,.T.);
#336=ORIENTED_EDGE('',*,*,#243,.F.);
#337=ORIENTED_EDGE('',*,*,#217,.T.);
#338=ORIENTED_EDGE('',*,*,#238,.F.);
#339=ORIENTED_EDGE('',*,*,#214,.T.);
#340=ORIENTED_EDGE('',*,*,#235,.F.);
#341=ORIENTED_EDGE('',*,*,#207,.T.);
#342=ORIENTED_EDGE('',*,*,#229,.F.);
#343=ORIENTED_EDGE('',*,*,#196,.F.);
#344=ORIENTED_EDGE('',*,*,#231,.T.);
#345=ORIENTED_EDGE('',*,*,#195,.F.);
#346=ORIENTED_EDGE('',*,*,#233,.T.);
#347=ORIENTED_EDGE('',*,*,#194,.F.);
#348=ORIENTED_EDGE('',*,*,#236,.T.);
#349=ORIENTED_EDGE('',*,*,#199,.F.);
#350=ORIENTED_EDGE('',*,*,#239,.T.);
#351=ORIENTED_EDGE('',*,*,#198,.F.);
#352=ORIENTED_EDGE('',*,*,#241,.T.);
#353=ORIENTED_EDGE('',*,*,#197,.F.);
#354=ORIENTED_EDGE('',*,*,#244,.T.);
#355=CONICAL_SURFACE('',#403,1.72,1.30899693899575);
#356=CONICAL_SURFACE('',#406,1.73205080756888,1.04719755119659);
#357=CONICAL_SURFACE('',#413,1.72,1.30899693899575);
#358=CONICAL_SURFACE('',#441,2.1,0.785398163397437);
#359=CONICAL_SURFACE('',#451,1.72,1.30899693899575);
#360=CONICAL_SURFACE('',#452,1.72,1.30899693899575);
#361=CONICAL_SURFACE('',#453,1.72,1.30899693899575);
#362=CONICAL_SURFACE('',#454,1.72,1.30899693899575);
#363=ADVANCED_FACE('',(#78),#355,.F.);
#364=ADVANCED_FACE('',(#79),#356,.F.);
#365=ADVANCED_FACE('',(#80),#357,.F.);
#366=ADVANCED_FACE('',(#81),#45,.F.);
#367=ADVANCED_FACE('',(#82),#31,.T.);
#368=ADVANCED_FACE('',(#83),#30,.F.);
#369=ADVANCED_FACE('',(#84),#32,.T.);
#370=ADVANCED_FACE('',(#85),#358,.T.);
#371=ADVANCED_FACE('',(#86),#16,.F.);
#372=ADVANCED_FACE('',(#87,#15),#17,.F.);
#373=ADVANCED_FACE('',(#88),#18,.F.);
#374=ADVANCED_FACE('',(#89),#19,.F.);
#375=ADVANCED_FACE('',(#90),#20,.F.);
#376=ADVANCED_FACE('',(#91),#21,.F.);
#377=ADVANCED_FACE('',(#92),#22,.F.);
#378=ADVANCED_FACE('',(#93),#23,.F.);
#379=ADVANCED_FACE('',(#94),#359,.F.);
#380=ADVANCED_FACE('',(#95),#360,.F.);
#381=ADVANCED_FACE('',(#96),#361,.F.);
#382=ADVANCED_FACE('',(#97),#362,.F.);
#383=ADVANCED_FACE('',(#98),#24,.F.);
#384=ADVANCED_FACE('',(#99),#25,.F.);
#385=ADVANCED_FACE('',(#100),#26,.F.);
#386=ADVANCED_FACE('',(#101),#27,.F.);
#387=ADVANCED_FACE('',(#102),#28,.F.);
#388=ADVANCED_FACE('',(#103),#29,.F.);
#389=CLOSED_SHELL('',(#363,#364,#365,#366,#367,#368,#369,#370,#371,#372,
#373,#374,#375,#376,#377,#378,#379,#380,#381,#382,#383,#384,#385,#386,#387,
#388));
#390=DERIVED_UNIT_ELEMENT(#392,1.);
#391=DERIVED_UNIT_ELEMENT(#752,-3.);
#392=(
MASS_UNIT()
NAMED_UNIT(*)
SI_UNIT(.KILO.,.GRAM.)
);
#393=DERIVED_UNIT((#390,#391));
#394=MEASURE_REPRESENTATION_ITEM('density measure',
POSITIVE_RATIO_MEASURE(7850.),#393);
#395=PROPERTY_DEFINITION_REPRESENTATION(#400,#397);
#396=PROPERTY_DEFINITION_REPRESENTATION(#401,#398);
#397=REPRESENTATION('material name',(#399),#749);
#398=REPRESENTATION('density',(#394),#749);
#399=DESCRIPTIVE_REPRESENTATION_ITEM('Acier','Acier');
#400=PROPERTY_DEFINITION('material property','material name',#759);
#401=PROPERTY_DEFINITION('material property','density of part',#759);
#402=AXIS2_PLACEMENT_3D('',#595,#461,#462);
#403=AXIS2_PLACEMENT_3D('',#596,#463,#464);
#404=AXIS2_PLACEMENT_3D('',#603,#465,#466);
#405=AXIS2_PLACEMENT_3D('',#604,#467,#468);
#406=AXIS2_PLACEMENT_3D('',#605,#469,#470);
#407=AXIS2_PLACEMENT_3D('',#610,#472,#473);
#408=AXIS2_PLACEMENT_3D('',#612,#474,#475);
#409=AXIS2_PLACEMENT_3D('',#614,#476,#477);
#410=AXIS2_PLACEMENT_3D('',#616,#478,#479);
#411=AXIS2_PLACEMENT_3D('',#618,#480,#481);
#412=AXIS2_PLACEMENT_3D('',#619,#482,#483);
#413=AXIS2_PLACEMENT_3D('',#620,#484,#485);
#414=AXIS2_PLACEMENT_3D('',#626,#486,#487);
#415=AXIS2_PLACEMENT_3D('',#655,#488,#489);
#416=AXIS2_PLACEMENT_3D('',#657,#490,#491);
#417=AXIS2_PLACEMENT_3D('',#659,#492,#493);
#418=AXIS2_PLACEMENT_3D('',#661,#494,#495);
#419=AXIS2_PLACEMENT_3D('',#663,#496,#497);
#420=AXIS2_PLACEMENT_3D('',#665,#498,#499);
#421=AXIS2_PLACEMENT_3D('',#667,#500,#501);
#422=AXIS2_PLACEMENT_3D('',#668,#502,#503);
#423=AXIS2_PLACEMENT_3D('',#670,#504,#505);
#424=AXIS2_PLACEMENT_3D('',#671,#506,#507);
#425=AXIS2_PLACEMENT_3D('',#673,#508,#509);
#426=AXIS2_PLACEMENT_3D('',#675,#510,#511);
#427=AXIS2_PLACEMENT_3D('',#677,#512,#513);
#428=AXIS2_PLACEMENT_3D('',#679,#514,#515);
#429=AXIS2_PLACEMENT_3D('',#681,#516,#517);
#430=AXIS2_PLACEMENT_3D('',#683,#518,#519);
#431=AXIS2_PLACEMENT_3D('',#685,#520,#521);
#432=AXIS2_PLACEMENT_3D('',#686,#522,#523);
#433=AXIS2_PLACEMENT_3D('',#687,#524,#525);
#434=AXIS2_PLACEMENT_3D('',#689,#526,#527);
#435=AXIS2_PLACEMENT_3D('',#691,#529,#530);
#436=AXIS2_PLACEMENT_3D('',#693,#531,#532);
#437=AXIS2_PLACEMENT_3D('',#695,#533,#534);
#438=AXIS2_PLACEMENT_3D('',#696,#535,#536);
#439=AXIS2_PLACEMENT_3D('',#697,#537,#538);
#440=AXIS2_PLACEMENT_3D('',#699,#539,#540);
#441=AXIS2_PLACEMENT_3D('',#701,#542,#543);
#442=AXIS2_PLACEMENT_3D('',#704,#545,#546);
#443=AXIS2_PLACEMENT_3D('',#705,#547,#548);
#444=AXIS2_PLACEMENT_3D('',#706,#549,#550);
#445=AXIS2_PLACEMENT_3D('',#707,#551,#552);
#446=AXIS2_PLACEMENT_3D('',#714,#556,#557);
#447=AXIS2_PLACEMENT_3D('',#717,#560,#561);
#448=AXIS2_PLACEMENT_3D('',#723,#564,#565);
#449=AXIS2_PLACEMENT_3D('',#729,#568,#569);
#450=AXIS2_PLACEMENT_3D('',#732,#572,#573);
#451=AXIS2_PLACEMENT_3D('',#737,#575,#576);
#452=AXIS2_PLACEMENT_3D('',#738,#577,#578);
#453=AXIS2_PLACEMENT_3D('',#739,#579,#580);
#454=AXIS2_PLACEMENT_3D('',#740,#581,#582);
#455=AXIS2_PLACEMENT_3D('',#741,#583,#584);
#456=AXIS2_PLACEMENT_3D('',#742,#585,#586);
#457=AXIS2_PLACEMENT_3D('',#743,#587,#588);
#458=AXIS2_PLACEMENT_3D('',#744,#589,#590);
#459=AXIS2_PLACEMENT_3D('',#745,#591,#592);
#460=AXIS2_PLACEMENT_3D('',#746,#593,#594);
#461=DIRECTION('axis',(0.,0.,1.));
#462=DIRECTION('refdir',(1.,0.,0.));
#463=DIRECTION('center_axis',(0.,0.,1.));
#464=DIRECTION('ref_axis',(-1.,-1.22464679914735E-16,0.));
#465=DIRECTION('center_axis',(0.,0.,1.));
#466=DIRECTION('ref_axis',(1.,0.,0.));
#467=DIRECTION('center_axis',(0.,0.,1.));
#468=DIRECTION('ref_axis',(1.,0.,0.));
#469=DIRECTION('center_axis',(0.,0.,1.));
#470=DIRECTION('ref_axis',(0.,-1.,0.));
#471=DIRECTION('',(-1.0605752387249E-16,0.866025403784435,0.500000000000007));
#472=DIRECTION('center_axis',(0.,0.,1.));
#473=DIRECTION('ref_axis',(0.,-1.,0.));
#474=DIRECTION('center_axis',(0.,0.,1.));
#475=DIRECTION('ref_axis',(0.,-1.,0.));
#476=DIRECTION('center_axis',(0.,0.,1.));
#477=DIRECTION('ref_axis',(0.,-1.,0.));
#478=DIRECTION('center_axis',(0.,0.,1.));
#479=DIRECTION('ref_axis',(0.,-1.,0.));
#480=DIRECTION('center_axis',(0.,0.,1.));
#481=DIRECTION('ref_axis',(0.,-1.,0.));
#482=DIRECTION('center_axis',(0.,0.,1.));
#483=DIRECTION('ref_axis',(0.,-1.,0.));
#484=DIRECTION('center_axis',(0.,0.,1.));
#485=DIRECTION('ref_axis',(1.,0.,0.));
#486=DIRECTION('center_axis',(0.,0.,1.));
#487=DIRECTION('ref_axis',(1.,0.,0.));
#488=DIRECTION('center_axis',(1.,0.,0.));
#489=DIRECTION('ref_axis',(0.,0.910753553872993,0.412950316754587));
#490=DIRECTION('center_axis',(0.500000000004338,-0.866025403781934,2.75025518783543E-11));
#491=DIRECTION('ref_axis',(0.818242314089202,0.472412420296806,-0.32757597681036));
#492=DIRECTION('center_axis',(0.,0.,1.));
#493=DIRECTION('ref_axis',(1.,0.,0.));
#494=DIRECTION('center_axis',(0.499999999991056,-0.866025403789603,5.87426298652587E-11));
#495=DIRECTION('ref_axis',(0.818242456848236,0.472412502734662,0.327575501328985));
#496=DIRECTION('center_axis',(-0.499999999988748,-0.866025403790935,7.35516962174446E-11));
#497=DIRECTION('ref_axis',(0.818242616218524,-0.472412594749834,-0.327574970542002));
#498=DIRECTION('center_axis',(0.,0.,1.));
#499=DIRECTION('ref_axis',(1.,0.,0.));
#500=DIRECTION('center_axis',(-0.500000000004343,-0.866025403781931,2.75025518771841E-11));
#501=DIRECTION('ref_axis',(0.818242758582677,-0.472412676925239,0.327574496423852));
#502=DIRECTION('center_axis',(-1.,0.,0.));
#503=DIRECTION('ref_axis',(0.,0.909018315374833,0.416756166496791));
#504=DIRECTION('center_axis',(1.22464679914735E-16,-1.,0.));
#505=DIRECTION('ref_axis',(-1.,-1.22464679914735E-16,0.));
#506=DIRECTION('center_axis',(0.,0.,1.));
#507=DIRECTION('ref_axis',(1.,0.,0.));
#508=DIRECTION('center_axis',(-1.,0.,0.));
#509=DIRECTION('ref_axis',(0.,0.910750915321677,-0.412956135976605));
#510=DIRECTION('center_axis',(-0.500000000009945,0.866025403778697,6.33263886816444E-11));
#511=DIRECTION('ref_axis',(0.818242384997721,0.47241246122937,0.327575740659242));
#512=DIRECTION('center_axis',(0.,0.,1.));
#513=DIRECTION('ref_axis',(1.,0.,0.));
#514=DIRECTION('center_axis',(-0.499999999992431,0.866025403788808,4.97161514717771E-11));
#515=DIRECTION('ref_axis',(0.818242445797328,0.472412496352736,-0.327575538136448));
#516=DIRECTION('center_axis',(0.49999999999498,0.866025403787337,3.3426178436896E-11));
#517=DIRECTION('ref_axis',(0.818242544673596,-0.472412553436024,0.327575208833229));
#518=DIRECTION('center_axis',(0.,0.,1.));
#519=DIRECTION('ref_axis',(1.,0.,0.));
#520=DIRECTION('center_axis',(0.500000000004344,0.866025403781931,2.75730712408853E-11));
#521=DIRECTION('ref_axis',(0.818242129986227,-0.472412314004884,-0.327576589963558));
#522=DIRECTION('center_axis',(1.,0.,0.));
#523=DIRECTION('ref_axis',(0.,0.909021850648613,-0.41674845535811));
#524=DIRECTION('center_axis',(0.,0.,-1.));
#525=DIRECTION('ref_axis',(1.,0.,0.));
#526=DIRECTION('center_axis',(0.,0.,1.));
#527=DIRECTION('ref_axis',(1.,0.,0.));
#528=DIRECTION('',(0.,0.,1.));
#529=DIRECTION('center_axis',(0.,0.,1.));
#530=DIRECTION('ref_axis',(1.,0.,0.));
#531=DIRECTION('center_axis',(0.,0.,1.));
#532=DIRECTION('ref_axis',(1.,0.,0.));
#533=DIRECTION('center_axis',(-1.22464679914735E-16,1.,0.));
#534=DIRECTION('ref_axis',(-1.,-1.22464679914735E-16,0.));
#535=DIRECTION('center_axis',(0.,0.,1.));
#536=DIRECTION('ref_axis',(1.,0.,0.));
#537=DIRECTION('center_axis',(0.,0.,-1.));
#538=DIRECTION('ref_axis',(1.,0.,0.));
#539=DIRECTION('center_axis',(0.,0.,1.));
#540=DIRECTION('ref_axis',(1.,0.,0.));
#541=DIRECTION('',(0.,0.,1.));
#542=DIRECTION('center_axis',(0.,0.,1.));
#543=DIRECTION('ref_axis',(1.,0.,0.));
#544=DIRECTION('',(0.70710678118654,8.65956056235483E-17,-0.707106781186556));
#545=DIRECTION('center_axis',(0.,0.,1.));
#546=DIRECTION('ref_axis',(1.,0.,0.));
#547=DIRECTION('center_axis',(0.,0.,1.));
#548=DIRECTION('ref_axis',(1.,0.,0.));
#549=DIRECTION('center_axis',(0.,0.,1.));
#550=DIRECTION('ref_axis',(1.,0.,0.));
#551=DIRECTION('center_axis',(-0.5,-0.866025403784439,0.));
#552=DIRECTION('ref_axis',(-0.866025403784439,0.5,0.));
#553=DIRECTION('',(0.,0.,1.));
#554=DIRECTION('',(0.866025403784439,-0.5,0.));
#555=DIRECTION('',(0.,0.,1.));
#556=DIRECTION('center_axis',(-1.,-1.25192883228097E-16,0.));
#557=DIRECTION('ref_axis',(-1.25192883228097E-16,1.,0.));
#558=DIRECTION('',(1.25192883228097E-16,-1.,0.));
#559=DIRECTION('',(0.,0.,1.));
#560=DIRECTION('center_axis',(-0.5,0.866025403784439,0.));
#561=DIRECTION('ref_axis',(0.,0.,1.));
#562=DIRECTION('',(-0.866025403784439,-0.5,0.));
#563=DIRECTION('',(0.,0.,1.));
#564=DIRECTION('center_axis',(0.5,0.866025403784439,0.));
#565=DIRECTION('ref_axis',(0.,0.,-1.));
#566=DIRECTION('',(-0.866025403784439,0.5,0.));
#567=DIRECTION('',(0.,0.,1.));
#568=DIRECTION('center_axis',(1.,-1.25192883228096E-16,0.));
#569=DIRECTION('ref_axis',(-1.25192883228096E-16,-1.,0.));
#570=DIRECTION('',(1.25192883228096E-16,1.,0.));
#571=DIRECTION('',(0.,0.,1.));
#572=DIRECTION('center_axis',(0.5,-0.866025403784439,0.));
#573=DIRECTION('ref_axis',(0.,0.,-1.));
#574=DIRECTION('',(0.866025403784439,0.5,0.));
#575=DIRECTION('center_axis',(0.,0.,1.));
#576=DIRECTION('ref_axis',(1.,0.,0.));
#577=DIRECTION('center_axis',(0.,0.,1.));
#578=DIRECTION('ref_axis',(1.,0.,0.));
#579=DIRECTION('center_axis',(0.,0.,1.));
#580=DIRECTION('ref_axis',(1.,0.,0.));
#581=DIRECTION('center_axis',(0.,0.,1.));
#582=DIRECTION('ref_axis',(1.,0.,0.));
#583=DIRECTION('center_axis',(0.,-1.19980138004614E-18,1.));
#584=DIRECTION('ref_axis',(0.,-1.,-1.19980138004614E-18));
#585=DIRECTION('center_axis',(0.,-1.19980138004614E-18,1.));
#586=DIRECTION('ref_axis',(0.,-1.,-1.19980138004614E-18));
#587=DIRECTION('center_axis',(0.,-1.19980138004614E-18,1.));
#588=DIRECTION('ref_axis',(0.,-1.,-1.19980138004614E-18));
#589=DIRECTION('center_axis',(0.,-1.19980138004614E-18,1.));
#590=DIRECTION('ref_axis',(0.,-1.,-1.19980138004614E-18));
#591=DIRECTION('center_axis',(0.,-1.19980138004614E-18,1.));
#592=DIRECTION('ref_axis',(0.,-1.,-1.19980138004614E-18));
#593=DIRECTION('center_axis',(0.,-1.19980138004614E-18,1.));
#594=DIRECTION('ref_axis',(0.,-1.,-1.19980138004614E-18));
#595=CARTESIAN_POINT('',(0.,0.,0.));
#596=CARTESIAN_POINT('Origin',(0.,0.,0.));
#597=CARTESIAN_POINT('',(-1.5,0.841665016500032,0.));
#598=CARTESIAN_POINT('',(-1.5,-0.841665016500032,0.));
#599=CARTESIAN_POINT('Ctrl Pts',(-1.5,0.841665016500041,1.07987244344386E-15));
#600=CARTESIAN_POINT('Ctrl Pts',(-1.5,-4.44089209850063E-16,-0.110357679022213));
#601=CARTESIAN_POINT('Ctrl Pts',(-1.5,-0.841665016500042,1.14415056507742E-15));
#602=CARTESIAN_POINT('',(-1.72,-2.10639249453345E-16,0.));
#603=CARTESIAN_POINT('Origin',(0.,0.,0.));
#604=CARTESIAN_POINT('Origin',(0.,0.,0.));
#605=CARTESIAN_POINT('Origin',(0.,-3.56793839681584E-17,-1.56));
#606=CARTESIAN_POINT('',(0.,3.08780778722875E-17,-2.56000000000001));
#607=CARTESIAN_POINT('',(-2.49366499671666E-15,1.73205080756888,-1.56));
#608=CARTESIAN_POINT('',(-2.12115047744982E-16,1.73205080756888,-1.56));
#609=CARTESIAN_POINT('',(-1.5,0.866025403784439,-1.56));
#610=CARTESIAN_POINT('Origin',(0.,-3.56793839681584E-17,-1.56));
#611=CARTESIAN_POINT('',(-1.5,-0.866025403784438,-1.56));
#612=CARTESIAN_POINT('Origin',(0.,-3.56793839681584E-17,-1.56));
#613=CARTESIAN_POINT('',(-2.05302526870934E-16,-1.73205080756888,-1.56));
#614=CARTESIAN_POINT('Origin',(0.,-3.56793839681584E-17,-1.56));
#615=CARTESIAN_POINT('',(1.5,-0.866025403784439,-1.56));
#616=CARTESIAN_POINT('Origin',(0.,-3.56793839681584E-17,-1.56));
#617=CARTESIAN_POINT('',(1.5,0.866025403784439,-1.56));
#618=CARTESIAN_POINT('Origin',(0.,-3.56793839681584E-17,-1.56));
#619=CARTESIAN_POINT('Origin',(0.,-3.56793839681584E-17,-1.56));
#620=CARTESIAN_POINT('Origin',(0.,0.,0.));
#621=CARTESIAN_POINT('',(1.5,-0.841665016500034,0.));
#622=CARTESIAN_POINT('',(1.5,0.841665016500034,0.));
#623=CARTESIAN_POINT('Ctrl Pts',(1.5,0.841665016500045,1.59409741651237E-15));
#624=CARTESIAN_POINT('Ctrl Pts',(1.5,-5.55111512312578E-17,-0.110357679022213));
#625=CARTESIAN_POINT('Ctrl Pts',(1.5,-0.841665016500046,1.59409741651237E-15));
#626=CARTESIAN_POINT('Origin',(0.,0.,0.));
#627=CARTESIAN_POINT('Ctrl Pts',(-4.75,0.,-2.55));
#628=CARTESIAN_POINT('Ctrl Pts',(-4.75,-4.75,-2.55));
#629=CARTESIAN_POINT('Ctrl Pts',(0.,-4.75,-2.55));
#630=CARTESIAN_POINT('Ctrl Pts',(4.75,-4.75,-2.55));
#631=CARTESIAN_POINT('Ctrl Pts',(4.75,0.,-2.55));
#632=CARTESIAN_POINT('Ctrl Pts',(4.75,4.75,-2.55));
#633=CARTESIAN_POINT('Ctrl Pts',(0.,4.75,-2.55));
#634=CARTESIAN_POINT('Ctrl Pts',(-4.75,4.75,-2.55));
#635=CARTESIAN_POINT('Ctrl Pts',(-4.75,0.,-2.55));
#636=CARTESIAN_POINT('Ctrl Pts',(-3.70267400370929,0.,-0.719293242651308));
#637=CARTESIAN_POINT('Ctrl Pts',(-3.70267400370929,-3.70267400370929,-0.719293242651308));
#638=CARTESIAN_POINT('Ctrl Pts',(0.,-3.70267400370929,-0.719293242651308));
#639=CARTESIAN_POINT('Ctrl Pts',(3.70267400370929,-3.70267400370929,-0.719293242651308));
#640=CARTESIAN_POINT('Ctrl Pts',(3.70267400370929,0.,-0.719293242651308));
#641=CARTESIAN_POINT('Ctrl Pts',(3.70267400370929,3.70267400370929,-0.719293242651308));
#642=CARTESIAN_POINT('Ctrl Pts',(0.,3.70267400370929,-0.719293242651308));
#643=CARTESIAN_POINT('Ctrl Pts',(-3.70267400370929,3.70267400370929,-0.719293242651308));
#644=CARTESIAN_POINT('Ctrl Pts',(-3.70267400370929,0.,-0.719293242651308));
#645=CARTESIAN_POINT('Ctrl Pts',(-1.72,0.,1.11022302462516E-15));
#646=CARTESIAN_POINT('Ctrl Pts',(-1.72,-1.72,1.11022302462516E-15));
#647=CARTESIAN_POINT('Ctrl Pts',(0.,-1.72,1.11022302462516E-15));
#648=CARTESIAN_POINT('Ctrl Pts',(1.72,-1.72,1.11022302462516E-15));
#649=CARTESIAN_POINT('Ctrl Pts',(1.72,0.,1.11022302462516E-15));
#650=CARTESIAN_POINT('Ctrl Pts',(1.72,1.72,1.11022302462516E-15));
#651=CARTESIAN_POINT('Ctrl Pts',(0.,1.72,1.11022302462516E-15));
#652=CARTESIAN_POINT('Ctrl Pts',(-1.72,1.72,1.11022302462516E-15));
#653=CARTESIAN_POINT('Ctrl Pts',(-1.72,0.,1.11022302462516E-15));
#654=CARTESIAN_POINT('',(1.5,-0.866025403784439,-0.00438711975317332));
#655=CARTESIAN_POINT('Origin',(1.5,-0.746973891060885,-3.30701785847081));
#656=CARTESIAN_POINT('',(1.47890328576568,-0.878205597426642,0.));
#657=CARTESIAN_POINT('Origin',(1.4149709476336,-0.915116950142073,-2.66169159885251));
#658=CARTESIAN_POINT('',(0.0210967142343227,-1.71987061392667,0.));
#659=CARTESIAN_POINT('Origin',(0.,0.,0.));
#660=CARTESIAN_POINT('',(-2.05302526870934E-16,-1.73205080756888,-0.00438711975329518));
#661=CARTESIAN_POINT('Origin',(0.0850299442207452,-1.68295874656527,-2.66169038102234));
#662=CARTESIAN_POINT('',(-0.0210967142343229,-1.71987061392667,0.));
#663=CARTESIAN_POINT('Origin',(-0.0850298145511043,-1.68295882147581,-2.66168545803692));
#664=CARTESIAN_POINT('',(-1.47890328576568,-0.878205597426641,0.));
#665=CARTESIAN_POINT('Origin',(0.,0.,0.));
#666=CARTESIAN_POINT('',(-1.5,-0.866025403784438,-0.00438711975317484));
#667=CARTESIAN_POINT('Origin',(-1.41497128208607,-0.915116757045852,-2.66167795486132));
#668=CARTESIAN_POINT('Origin',(-1.5,-0.746215376843961,-3.33046214162011));
#669=CARTESIAN_POINT('',(-4.75,-5.81707229594993E-16,-2.55));
#670=CARTESIAN_POINT('Origin',(0.240978966345298,2.95114119796607E-17,-5.40528088942206));
#671=CARTESIAN_POINT('Origin',(0.,0.,-2.55));
#672=CARTESIAN_POINT('',(-1.5,0.86602540378444,-0.0043871197531744));
#673=CARTESIAN_POINT('Origin',(-1.5,0.746972754511859,-3.30705390598183));
#674=CARTESIAN_POINT('',(-1.47890328576568,0.878205597426644,0.));
#675=CARTESIAN_POINT('Origin',(-1.41497096166989,0.915116942148874,-2.66168954724219));
#676=CARTESIAN_POINT('',(-0.0210967142343246,1.71987061392667,0.));
#677=CARTESIAN_POINT('Origin',(0.,0.,0.));
#678=CARTESIAN_POINT('',(-5.47564165060193E-17,1.73205080756888,-0.0043871197531744));
#679=CARTESIAN_POINT('Origin',(-0.0850289726464635,1.68295930747607,-2.66168761703825));
#680=CARTESIAN_POINT('',(0.0210967142343246,1.71987061392667,0.));
#681=CARTESIAN_POINT('Origin',(0.0850288965420786,1.68295935136464,-2.66168457672222));
#682=CARTESIAN_POINT('',(1.47890328576568,0.878205597426643,0.));
#683=CARTESIAN_POINT('Origin',(0.,0.,0.));
#684=CARTESIAN_POINT('',(1.5,0.86602540378444,-0.00438711975317505));
#685=CARTESIAN_POINT('Origin',(1.41497076235273,0.915117057114255,-2.66169739820555));
#686=CARTESIAN_POINT('Origin',(1.5,0.746216917236908,-3.33041495711832));
#687=CARTESIAN_POINT('Origin',(0.,0.,0.));
#688=CARTESIAN_POINT('',(-4.75,5.81707229594993E-16,-2.75));
#689=CARTESIAN_POINT('Origin',(0.,0.,-2.75));
#690=CARTESIAN_POINT('',(-4.75,5.81707229594993E-16,0.));
#691=CARTESIAN_POINT('Origin',(0.,0.,-2.95));
#692=CARTESIAN_POINT('',(-2.7,-3.30654635769785E-16,-2.75));
#693=CARTESIAN_POINT('Origin',(0.,0.,-2.75));
#694=CARTESIAN_POINT('',(-2.5,-3.06161699786838E-16,-2.95));
#695=CARTESIAN_POINT('Origin',(-2.7,-3.30654635769785E-16,-2.95));
#696=CARTESIAN_POINT('Origin',(0.,0.,-2.95));
#697=CARTESIAN_POINT('Origin',(0.,0.,0.));
#698=CARTESIAN_POINT('',(-2.5,3.06161699786838E-16,-18.35));
#699=CARTESIAN_POINT('Origin',(0.,0.,-18.35));
#700=CARTESIAN_POINT('',(-2.5,3.06161699786838E-16,0.));
#701=CARTESIAN_POINT('Origin',(0.,0.,-18.75));
#702=CARTESIAN_POINT('',(-2.1,-2.57175827820944E-16,-18.75));
#703=CARTESIAN_POINT('',(-2.1,-2.57175827820944E-16,-18.75));
#704=CARTESIAN_POINT('Origin',(0.,0.,-18.75));
#705=CARTESIAN_POINT('Origin',(0.,2.1,-18.75));
#706=CARTESIAN_POINT('Origin',(0.,2.7,-2.75));
#707=CARTESIAN_POINT('Origin',(-1.5,-0.866025403784438,-1.56));
#708=CARTESIAN_POINT('Ctrl Pts',(-1.47890328576569,-0.878205597426634,1.81264303006648E-15));
#709=CARTESIAN_POINT('Ctrl Pts',(-0.750000000000002,-1.29903810567666,-0.110357679022214));
#710=CARTESIAN_POINT('Ctrl Pts',(-0.021096714234316,-1.71987061392668,8.61326829889746E-16));
#711=CARTESIAN_POINT('',(-2.05302526870934E-16,-1.73205080756888,-1.56));
#712=CARTESIAN_POINT('',(-1.5,-0.866025403784438,-1.56));
#713=CARTESIAN_POINT('',(-1.5,-0.866025403784438,-1.56));
#714=CARTESIAN_POINT('Origin',(-1.5,0.86602540378444,-1.56));
#715=CARTESIAN_POINT('',(-1.5,0.86602540378444,-1.56));
#716=CARTESIAN_POINT('',(-1.5,0.86602540378444,-1.56));
#717=CARTESIAN_POINT('Origin',(-5.47564165060193E-17,1.73205080756888,-1.56));
#718=CARTESIAN_POINT('Ctrl Pts',(-0.0210967142343181,1.71987061392668,1.25985118401784E-15));
#719=CARTESIAN_POINT('Ctrl Pts',(-0.750000000000002,1.29903810567666,-0.110357679022213));
#720=CARTESIAN_POINT('Ctrl Pts',(-1.47890328576569,0.878205597426639,2.05689989227402E-15));
#721=CARTESIAN_POINT('',(-5.47564165060193E-17,1.73205080756888,-1.56));
#722=CARTESIAN_POINT('',(-5.47564165060193E-17,1.73205080756888,-1.56));
#723=CARTESIAN_POINT('Origin',(1.5,0.86602540378444,-1.56));
#724=CARTESIAN_POINT('Ctrl Pts',(1.47890328576569,0.878205597426637,2.15974488688773E-15));
#725=CARTESIAN_POINT('Ctrl Pts',(0.750000000000002,1.29903810567666,-0.110357679022213));
#726=CARTESIAN_POINT('Ctrl Pts',(0.0210967142343164,1.71987061392668,1.49125242189867E-15));
#727=CARTESIAN_POINT('',(1.5,0.86602540378444,-1.56));
#728=CARTESIAN_POINT('',(1.5,0.86602540378444,-1.56));
#729=CARTESIAN_POINT('Origin',(1.5,-0.866025403784439,-1.56));
#730=CARTESIAN_POINT('',(1.5,-0.866025403784439,-1.56));
#731=CARTESIAN_POINT('',(1.5,-0.866025403784439,-1.56));
#732=CARTESIAN_POINT('Origin',(-2.05302526870934E-16,-1.73205080756888,
-1.56));
#733=CARTESIAN_POINT('Ctrl Pts',(0.0210967142343173,-1.71987061392668,1.79978740573977E-15));
#734=CARTESIAN_POINT('Ctrl Pts',(0.750000000000003,-1.29903810567666,-0.110357679022212));
#735=CARTESIAN_POINT('Ctrl Pts',(1.47890328576569,-0.878205597426639,2.15974488688773E-15));
#736=CARTESIAN_POINT('',(-2.05302526870934E-16,-1.73205080756888,-1.56));
#737=CARTESIAN_POINT('Origin',(0.,0.,0.));
#738=CARTESIAN_POINT('Origin',(0.,0.,0.));
#739=CARTESIAN_POINT('Origin',(0.,0.,0.));
#740=CARTESIAN_POINT('Origin',(0.,0.,0.));
#741=CARTESIAN_POINT('Origin',(0.,-3.56793839681584E-17,-1.56));
#742=CARTESIAN_POINT('Origin',(0.,-3.56793839681584E-17,-1.56));
#743=CARTESIAN_POINT('Origin',(0.,-3.56793839681584E-17,-1.56));
#744=CARTESIAN_POINT('Origin',(0.,-3.56793839681584E-17,-1.56));
#745=CARTESIAN_POINT('Origin',(0.,-3.56793839681584E-17,-1.56));
#746=CARTESIAN_POINT('Origin',(0.,-3.56793839681584E-17,-1.56));
#747=UNCERTAINTY_MEASURE_WITH_UNIT(LENGTH_MEASURE(0.01),#751,
'DISTANCE_ACCURACY_VALUE',
'Maximum model space distance between geometric entities at asserted c
onnectivities');
#748=UNCERTAINTY_MEASURE_WITH_UNIT(LENGTH_MEASURE(0.01),#751,
'DISTANCE_ACCURACY_VALUE',
'Maximum model space distance between geometric entities at asserted c
onnectivities');
#749=(
GEOMETRIC_REPRESENTATION_CONTEXT(3)
GLOBAL_UNCERTAINTY_ASSIGNED_CONTEXT((#747))
GLOBAL_UNIT_ASSIGNED_CONTEXT((#751,#753,#754))
REPRESENTATION_CONTEXT('','3D')
);
#750=(
GEOMETRIC_REPRESENTATION_CONTEXT(3)
GLOBAL_UNCERTAINTY_ASSIGNED_CONTEXT((#748))
GLOBAL_UNIT_ASSIGNED_CONTEXT((#751,#753,#754))
REPRESENTATION_CONTEXT('','3D')
);
#751=(
LENGTH_UNIT()
NAMED_UNIT(*)
SI_UNIT(.MILLI.,.METRE.)
);
#752=(
LENGTH_UNIT()
NAMED_UNIT(*)
SI_UNIT($,.METRE.)
);
#753=(
NAMED_UNIT(*)
PLANE_ANGLE_UNIT()
SI_UNIT($,.RADIAN.)
);
#754=(
NAMED_UNIT(*)
SI_UNIT($,.STERADIAN.)
SOLID_ANGLE_UNIT()
);
#755=SHAPE_DEFINITION_REPRESENTATION(#756,#757);
#756=PRODUCT_DEFINITION_SHAPE('',$,#759);
#757=SHAPE_REPRESENTATION('',(#402),#749);
#758=PRODUCT_DEFINITION_CONTEXT('part definition',#763,'design');
#759=PRODUCT_DEFINITION('4839638','BOLT_BHSCS_M5_16mm v1',#760,#758);
#760=PRODUCT_DEFINITION_FORMATION('',$,#765);
#761=PRODUCT_RELATED_PRODUCT_CATEGORY('BOLT_BHSCS_M5_16mm v1',
'BOLT_BHSCS_M5_16mm v1',(#765));
#762=APPLICATION_PROTOCOL_DEFINITION('international standard',
'automotive_design',2009,#763);
#763=APPLICATION_CONTEXT(
'Core Data for Automotive Mechanical Design Process');
#764=PRODUCT_CONTEXT('part definition',#763,'mechanical');
#765=PRODUCT('4839638','BOLT_BHSCS_M5_16mm v1','STEP AP242',(#764));
#766=PRESENTATION_STYLE_ASSIGNMENT((#768));
#767=PRESENTATION_STYLE_ASSIGNMENT((#769));
#768=SURFACE_STYLE_USAGE(.BOTH.,#770);
#769=SURFACE_STYLE_USAGE(.BOTH.,#771);
#770=SURFACE_SIDE_STYLE('',(#772));
#771=SURFACE_SIDE_STYLE('',(#773));
#772=SURFACE_STYLE_FILL_AREA(#774);
#773=SURFACE_STYLE_FILL_AREA(#775);
#774=FILL_AREA_STYLE('Acier - Satin\X\E9',(#776));
#775=FILL_AREA_STYLE('Opaque(202,209,238)',(#777));
#776=FILL_AREA_STYLE_COLOUR('Acier - Satin\X\E9',#778);
#777=FILL_AREA_STYLE_COLOUR('Opaque(202,209,238)',#779);
#778=COLOUR_RGB('Acier - Satin\X\E9',0.627450980392157,0.627450980392157,
0.627450980392157);
#779=COLOUR_RGB('Opaque(202,209,238)',0.792156862745098,0.819607843137255,
0.933333333333333);
ENDSEC;
END-ISO-10303-21;
