ISO-10303-21;
HEADER;
/* Generated by software containing ST-Developer
 * from STEP Tools, Inc. (www.steptools.com) 
 */

FILE_DESCRIPTION(
/* description */ (''),
/* implementation_level */ '2;1');

FILE_NAME(
/* name */ 'MakerBeam_CUBE_CORNER_10x10x10mm.step',
/* time_stamp */ '2026-08-10T14:32:10+02:00',
/* author */ (''),
/* organization */ (''),
/* preprocessor_version */ 'ST-DEVELOPER v20.1',
/* originating_system */ 'Autodesk Translation Framework v15.8.0.0',
/* authorisation */ '');

FILE_SCHEMA (('AUTOMOTIVE_DESIGN { 1 0 10303 214 3 1 1 }'));
ENDSEC;

DATA;
#10=MECHANICAL_DESIGN_GEOMETRIC_PRESENTATION_REPRESENTATION('',(#13),#834);
#11=SHAPE_REPRESENTATION_RELATIONSHIP('SRR','None',#841,#12);
#12=ADVANCED_BREP_SHAPE_REPRESENTATION('',(#14),#833);
#13=STYLED_ITEM('',(#851),#14);
#14=MANIFOLD_SOLID_BREP('Corps1',#452);
#15=FACE_BOUND('',#121,.T.);
#16=FACE_BOUND('',#123,.T.);
#17=FACE_BOUND('',#125,.T.);
#18=FACE_BOUND('',#127,.T.);
#19=FACE_BOUND('',#129,.T.);
#20=FACE_BOUND('',#131,.T.);
#21=PLANE('',#531);
#22=PLANE('',#532);
#23=PLANE('',#533);
#24=PLANE('',#534);
#25=PLANE('',#535);
#26=PLANE('',#536);
#27=CONICAL_SURFACE('',#495,2.25,0.785398163397448);
#28=CONICAL_SURFACE('',#522,2.25,0.785398163397449);
#29=CONICAL_SURFACE('',#530,2.25,0.785398163397448);
#30=LINE('',#731,#51);
#31=LINE('',#744,#52);
#32=LINE('',#754,#53);
#33=LINE('',#773,#54);
#34=LINE('',#781,#55);
#35=LINE('',#789,#56);
#36=LINE('',#792,#57);
#37=LINE('',#801,#58);
#38=LINE('',#804,#59);
#39=LINE('',#808,#60);
#40=LINE('',#810,#61);
#41=LINE('',#812,#62);
#42=LINE('',#813,#63);
#43=LINE('',#817,#64);
#44=LINE('',#818,#65);
#45=LINE('',#819,#66);
#46=LINE('',#822,#67);
#47=LINE('',#823,#68);
#48=LINE('',#826,#69);
#49=LINE('',#827,#70);
#50=LINE('',#829,#71);
#51=VECTOR('',#575,1.5);
#52=VECTOR('',#588,3.);
#53=VECTOR('',#601,2.25);
#54=VECTOR('',#630,3.);
#55=VECTOR('',#643,3.);
#56=VECTOR('',#654,1.5);
#57=VECTOR('',#659,2.25);
#58=VECTOR('',#672,1.5);
#59=VECTOR('',#677,2.25);
#60=VECTOR('',#680,10.);
#61=VECTOR('',#681,10.);
#62=VECTOR('',#682,10.);
#63=VECTOR('',#683,10.);
#64=VECTOR('',#686,10.);
#65=VECTOR('',#687,10.);
#66=VECTOR('',#688,10.);
#67=VECTOR('',#691,10.);
#68=VECTOR('',#692,10.);
#69=VECTOR('',#695,10.);
#70=VECTOR('',#696,10.);
#71=VECTOR('',#699,10.);
#72=FACE_OUTER_BOUND('',#99,.T.);
#73=FACE_OUTER_BOUND('',#100,.T.);
#74=FACE_OUTER_BOUND('',#101,.T.);
#75=FACE_OUTER_BOUND('',#102,.T.);
#76=FACE_OUTER_BOUND('',#103,.T.);
#77=FACE_OUTER_BOUND('',#104,.T.);
#78=FACE_OUTER_BOUND('',#105,.T.);
#79=FACE_OUTER_BOUND('',#106,.T.);
#80=FACE_OUTER_BOUND('',#107,.T.);
#81=FACE_OUTER_BOUND('',#108,.T.);
#82=FACE_OUTER_BOUND('',#109,.T.);
#83=FACE_OUTER_BOUND('',#110,.T.);
#84=FACE_OUTER_BOUND('',#111,.T.);
#85=FACE_OUTER_BOUND('',#112,.T.);
#86=FACE_OUTER_BOUND('',#113,.T.);
#87=FACE_OUTER_BOUND('',#114,.T.);
#88=FACE_OUTER_BOUND('',#115,.T.);
#89=FACE_OUTER_BOUND('',#116,.T.);
#90=FACE_OUTER_BOUND('',#117,.T.);
#91=FACE_OUTER_BOUND('',#118,.T.);
#92=FACE_OUTER_BOUND('',#119,.T.);
#93=FACE_OUTER_BOUND('',#120,.T.);
#94=FACE_OUTER_BOUND('',#122,.T.);
#95=FACE_OUTER_BOUND('',#124,.T.);
#96=FACE_OUTER_BOUND('',#126,.T.);
#97=FACE_OUTER_BOUND('',#128,.T.);
#98=FACE_OUTER_BOUND('',#130,.T.);
#99=EDGE_LOOP('',(#277,#278,#279));
#100=EDGE_LOOP('',(#280,#281,#282));
#101=EDGE_LOOP('',(#283,#284,#285));
#102=EDGE_LOOP('',(#286,#287,#288));
#103=EDGE_LOOP('',(#289,#290,#291,#292));
#104=EDGE_LOOP('',(#293,#294,#295,#296,#297,#298,#299,#300,#301,#302,#303));
#105=EDGE_LOOP('',(#304,#305,#306,#307,#308,#309,#310));
#106=EDGE_LOOP('',(#311,#312,#313));
#107=EDGE_LOOP('',(#314,#315,#316));
#108=EDGE_LOOP('',(#317,#318,#319));
#109=EDGE_LOOP('',(#320,#321,#322));
#110=EDGE_LOOP('',(#323,#324,#325,#326,#327,#328,#329,#330,#331,#332));
#111=EDGE_LOOP('',(#333,#334,#335));
#112=EDGE_LOOP('',(#336,#337,#338,#339,#340,#341,#342,#343,#344,#345));
#113=EDGE_LOOP('',(#346,#347,#348));
#114=EDGE_LOOP('',(#349,#350,#351,#352));
#115=EDGE_LOOP('',(#353,#354,#355,#356,#357,#358,#359));
#116=EDGE_LOOP('',(#360,#361,#362));
#117=EDGE_LOOP('',(#363,#364,#365));
#118=EDGE_LOOP('',(#366,#367,#368,#369));
#119=EDGE_LOOP('',(#370,#371,#372,#373,#374,#375,#376));
#120=EDGE_LOOP('',(#377,#378,#379,#380));
#121=EDGE_LOOP('',(#381));
#122=EDGE_LOOP('',(#382,#383,#384,#385));
#123=EDGE_LOOP('',(#386));
#124=EDGE_LOOP('',(#387,#388,#389,#390));
#125=EDGE_LOOP('',(#391));
#126=EDGE_LOOP('',(#392,#393,#394,#395));
#127=EDGE_LOOP('',(#396));
#128=EDGE_LOOP('',(#397,#398,#399,#400));
#129=EDGE_LOOP('',(#401));
#130=EDGE_LOOP('',(#402,#403,#404,#405));
#131=EDGE_LOOP('',(#406));
#132=CIRCLE('',#469,3.);
#133=CIRCLE('',#473,3.);
#134=CIRCLE('',#476,3.);
#135=CIRCLE('',#480,3.);
#136=CIRCLE('',#483,1.5);
#137=CIRCLE('',#484,1.5);
#138=CIRCLE('',#490,3.);
#139=CIRCLE('',#498,3.);
#140=CIRCLE('',#500,3.);
#141=CIRCLE('',#503,3.);
#142=CIRCLE('',#507,3.);
#143=CIRCLE('',#510,3.);
#144=CIRCLE('',#513,3.);
#145=CIRCLE('',#515,3.);
#146=CIRCLE('',#518,3.);
#147=CIRCLE('',#520,1.5);
#148=CIRCLE('',#521,1.5);
#149=CIRCLE('',#524,3.);
#150=CIRCLE('',#526,3.);
#151=CIRCLE('',#528,1.5);
#152=CIRCLE('',#529,1.5);
#153=ELLIPSE('',#467,4.24264068711929,3.);
#154=ELLIPSE('',#468,4.24264068711929,3.);
#155=ELLIPSE('',#471,4.24264068711929,3.);
#156=ELLIPSE('',#472,4.24264068711929,3.);
#157=ELLIPSE('',#475,4.24264068711929,3.);
#158=ELLIPSE('',#477,4.24264068711929,3.);
#159=ELLIPSE('',#479,4.24264068711929,3.);
#160=ELLIPSE('',#481,4.24264068711929,3.);
#161=ELLIPSE('',#486,4.24264068711929,3.);
#162=ELLIPSE('',#487,4.24264068711929,3.);
#163=ELLIPSE('',#488,4.24264068711929,3.);
#164=ELLIPSE('',#489,4.24264068711929,3.);
#165=ELLIPSE('',#491,4.24264068711929,3.);
#166=ELLIPSE('',#492,4.24264068711929,3.);
#167=ELLIPSE('',#493,4.24264068711929,3.);
#168=ELLIPSE('',#494,4.24264068711929,3.);
#169=ELLIPSE('',#497,4.24264068711929,3.);
#170=ELLIPSE('',#501,4.24264068711929,3.);
#171=ELLIPSE('',#504,4.24264068711929,3.);
#172=ELLIPSE('',#506,4.24264068711929,3.);
#173=ELLIPSE('',#509,4.24264068711929,3.);
#174=ELLIPSE('',#511,4.24264068711929,3.);
#175=ELLIPSE('',#517,4.24264068711929,3.);
#176=VERTEX_POINT('',#704);
#177=VERTEX_POINT('',#705);
#178=VERTEX_POINT('',#707);
#179=VERTEX_POINT('',#711);
#180=VERTEX_POINT('',#712);
#181=VERTEX_POINT('',#717);
#182=VERTEX_POINT('',#719);
#183=VERTEX_POINT('',#723);
#184=VERTEX_POINT('',#728);
#185=VERTEX_POINT('',#730);
#186=VERTEX_POINT('',#734);
#187=VERTEX_POINT('',#735);
#188=VERTEX_POINT('',#737);
#189=VERTEX_POINT('',#739);
#190=VERTEX_POINT('',#741);
#191=VERTEX_POINT('',#743);
#192=VERTEX_POINT('',#746);
#193=VERTEX_POINT('',#748);
#194=VERTEX_POINT('',#750);
#195=VERTEX_POINT('',#756);
#196=VERTEX_POINT('',#760);
#197=VERTEX_POINT('',#764);
#198=VERTEX_POINT('',#772);
#199=VERTEX_POINT('',#779);
#200=VERTEX_POINT('',#786);
#201=VERTEX_POINT('',#788);
#202=VERTEX_POINT('',#798);
#203=VERTEX_POINT('',#800);
#204=VERTEX_POINT('',#806);
#205=VERTEX_POINT('',#807);
#206=VERTEX_POINT('',#809);
#207=VERTEX_POINT('',#811);
#208=VERTEX_POINT('',#815);
#209=VERTEX_POINT('',#816);
#210=VERTEX_POINT('',#821);
#211=VERTEX_POINT('',#825);
#212=EDGE_CURVE('',#176,#177,#153,.T.);
#213=EDGE_CURVE('',#178,#176,#154,.T.);
#214=EDGE_CURVE('',#177,#178,#132,.T.);
#215=EDGE_CURVE('',#179,#180,#155,.T.);
#216=EDGE_CURVE('',#177,#179,#156,.T.);
#217=EDGE_CURVE('',#180,#177,#133,.T.);
#218=EDGE_CURVE('',#180,#181,#157,.T.);
#219=EDGE_CURVE('',#182,#180,#134,.T.);
#220=EDGE_CURVE('',#181,#182,#158,.T.);
#221=EDGE_CURVE('',#182,#183,#159,.T.);
#222=EDGE_CURVE('',#178,#182,#135,.T.);
#223=EDGE_CURVE('',#183,#178,#160,.T.);
#224=EDGE_CURVE('',#184,#184,#136,.T.);
#225=EDGE_CURVE('',#184,#185,#30,.T.);
#226=EDGE_CURVE('',#185,#185,#137,.T.);
#227=EDGE_CURVE('',#186,#187,#161,.T.);
#228=EDGE_CURVE('',#188,#186,#162,.T.);
#229=EDGE_CURVE('',#189,#188,#163,.T.);
#230=EDGE_CURVE('',#190,#189,#164,.T.);
#231=EDGE_CURVE('',#190,#191,#31,.T.);
#232=EDGE_CURVE('',#191,#191,#138,.T.);
#233=EDGE_CURVE('',#192,#190,#165,.T.);
#234=EDGE_CURVE('',#193,#192,#166,.T.);
#235=EDGE_CURVE('',#194,#193,#167,.T.);
#236=EDGE_CURVE('',#187,#194,#168,.T.);
#237=EDGE_CURVE('',#185,#178,#32,.T.);
#238=EDGE_CURVE('',#195,#181,#169,.T.);
#239=EDGE_CURVE('',#195,#180,#139,.T.);
#240=EDGE_CURVE('',#180,#196,#140,.T.);
#241=EDGE_CURVE('',#179,#196,#170,.T.);
#242=EDGE_CURVE('',#197,#177,#141,.T.);
#243=EDGE_CURVE('',#197,#176,#171,.T.);
#244=EDGE_CURVE('',#192,#197,#172,.T.);
#245=EDGE_CURVE('',#193,#197,#142,.T.);
#246=EDGE_CURVE('',#183,#189,#173,.T.);
#247=EDGE_CURVE('',#188,#198,#33,.T.);
#248=EDGE_CURVE('',#198,#198,#143,.T.);
#249=EDGE_CURVE('',#186,#195,#174,.T.);
#250=EDGE_CURVE('',#187,#195,#144,.T.);
#251=EDGE_CURVE('',#199,#199,#145,.T.);
#252=EDGE_CURVE('',#199,#190,#34,.T.);
#253=EDGE_CURVE('',#196,#194,#175,.T.);
#254=EDGE_CURVE('',#196,#187,#146,.T.);
#255=EDGE_CURVE('',#200,#200,#147,.T.);
#256=EDGE_CURVE('',#200,#201,#35,.T.);
#257=EDGE_CURVE('',#201,#201,#148,.T.);
#258=EDGE_CURVE('',#200,#187,#36,.T.);
#259=EDGE_CURVE('',#177,#196,#149,.T.);
#260=EDGE_CURVE('',#196,#193,#150,.T.);
#261=EDGE_CURVE('',#202,#202,#151,.T.);
#262=EDGE_CURVE('',#202,#203,#37,.T.);
#263=EDGE_CURVE('',#203,#203,#152,.T.);
#264=EDGE_CURVE('',#203,#193,#38,.T.);
#265=EDGE_CURVE('',#204,#205,#39,.T.);
#266=EDGE_CURVE('',#206,#204,#40,.T.);
#267=EDGE_CURVE('',#207,#206,#41,.T.);
#268=EDGE_CURVE('',#205,#207,#42,.T.);
#269=EDGE_CURVE('',#208,#209,#43,.T.);
#270=EDGE_CURVE('',#209,#207,#44,.T.);
#271=EDGE_CURVE('',#208,#206,#45,.T.);
#272=EDGE_CURVE('',#209,#210,#46,.T.);
#273=EDGE_CURVE('',#210,#205,#47,.T.);
#274=EDGE_CURVE('',#210,#211,#48,.T.);
#275=EDGE_CURVE('',#204,#211,#49,.T.);
#276=EDGE_CURVE('',#211,#208,#50,.T.);
#277=ORIENTED_EDGE('',*,*,#212,.F.);
#278=ORIENTED_EDGE('',*,*,#213,.F.);
#279=ORIENTED_EDGE('',*,*,#214,.F.);
#280=ORIENTED_EDGE('',*,*,#215,.F.);
#281=ORIENTED_EDGE('',*,*,#216,.F.);
#282=ORIENTED_EDGE('',*,*,#217,.F.);
#283=ORIENTED_EDGE('',*,*,#218,.F.);
#284=ORIENTED_EDGE('',*,*,#219,.F.);
#285=ORIENTED_EDGE('',*,*,#220,.F.);
#286=ORIENTED_EDGE('',*,*,#221,.F.);
#287=ORIENTED_EDGE('',*,*,#222,.F.);
#288=ORIENTED_EDGE('',*,*,#223,.F.);
#289=ORIENTED_EDGE('',*,*,#224,.F.);
#290=ORIENTED_EDGE('',*,*,#225,.T.);
#291=ORIENTED_EDGE('',*,*,#226,.T.);
#292=ORIENTED_EDGE('',*,*,#225,.F.);
#293=ORIENTED_EDGE('',*,*,#227,.F.);
#294=ORIENTED_EDGE('',*,*,#228,.F.);
#295=ORIENTED_EDGE('',*,*,#229,.F.);
#296=ORIENTED_EDGE('',*,*,#230,.F.);
#297=ORIENTED_EDGE('',*,*,#231,.T.);
#298=ORIENTED_EDGE('',*,*,#232,.F.);
#299=ORIENTED_EDGE('',*,*,#231,.F.);
#300=ORIENTED_EDGE('',*,*,#233,.F.);
#301=ORIENTED_EDGE('',*,*,#234,.F.);
#302=ORIENTED_EDGE('',*,*,#235,.F.);
#303=ORIENTED_EDGE('',*,*,#236,.F.);
#304=ORIENTED_EDGE('',*,*,#226,.F.);
#305=ORIENTED_EDGE('',*,*,#237,.T.);
#306=ORIENTED_EDGE('',*,*,#222,.T.);
#307=ORIENTED_EDGE('',*,*,#219,.T.);
#308=ORIENTED_EDGE('',*,*,#217,.T.);
#309=ORIENTED_EDGE('',*,*,#214,.T.);
#310=ORIENTED_EDGE('',*,*,#237,.F.);
#311=ORIENTED_EDGE('',*,*,#218,.T.);
#312=ORIENTED_EDGE('',*,*,#238,.F.);
#313=ORIENTED_EDGE('',*,*,#239,.T.);
#314=ORIENTED_EDGE('',*,*,#215,.T.);
#315=ORIENTED_EDGE('',*,*,#240,.T.);
#316=ORIENTED_EDGE('',*,*,#241,.F.);
#317=ORIENTED_EDGE('',*,*,#212,.T.);
#318=ORIENTED_EDGE('',*,*,#242,.F.);
#319=ORIENTED_EDGE('',*,*,#243,.T.);
#320=ORIENTED_EDGE('',*,*,#234,.T.);
#321=ORIENTED_EDGE('',*,*,#244,.T.);
#322=ORIENTED_EDGE('',*,*,#245,.F.);
#323=ORIENTED_EDGE('',*,*,#220,.T.);
#324=ORIENTED_EDGE('',*,*,#221,.T.);
#325=ORIENTED_EDGE('',*,*,#246,.T.);
#326=ORIENTED_EDGE('',*,*,#229,.T.);
#327=ORIENTED_EDGE('',*,*,#247,.T.);
#328=ORIENTED_EDGE('',*,*,#248,.F.);
#329=ORIENTED_EDGE('',*,*,#247,.F.);
#330=ORIENTED_EDGE('',*,*,#228,.T.);
#331=ORIENTED_EDGE('',*,*,#249,.T.);
#332=ORIENTED_EDGE('',*,*,#238,.T.);
#333=ORIENTED_EDGE('',*,*,#227,.T.);
#334=ORIENTED_EDGE('',*,*,#250,.T.);
#335=ORIENTED_EDGE('',*,*,#249,.F.);
#336=ORIENTED_EDGE('',*,*,#251,.F.);
#337=ORIENTED_EDGE('',*,*,#252,.T.);
#338=ORIENTED_EDGE('',*,*,#230,.T.);
#339=ORIENTED_EDGE('',*,*,#246,.F.);
#340=ORIENTED_EDGE('',*,*,#223,.T.);
#341=ORIENTED_EDGE('',*,*,#213,.T.);
#342=ORIENTED_EDGE('',*,*,#243,.F.);
#343=ORIENTED_EDGE('',*,*,#244,.F.);
#344=ORIENTED_EDGE('',*,*,#233,.T.);
#345=ORIENTED_EDGE('',*,*,#252,.F.);
#346=ORIENTED_EDGE('',*,*,#236,.T.);
#347=ORIENTED_EDGE('',*,*,#253,.F.);
#348=ORIENTED_EDGE('',*,*,#254,.T.);
#349=ORIENTED_EDGE('',*,*,#255,.F.);
#350=ORIENTED_EDGE('',*,*,#256,.T.);
#351=ORIENTED_EDGE('',*,*,#257,.F.);
#352=ORIENTED_EDGE('',*,*,#256,.F.);
#353=ORIENTED_EDGE('',*,*,#255,.T.);
#354=ORIENTED_EDGE('',*,*,#258,.T.);
#355=ORIENTED_EDGE('',*,*,#254,.F.);
#356=ORIENTED_EDGE('',*,*,#240,.F.);
#357=ORIENTED_EDGE('',*,*,#239,.F.);
#358=ORIENTED_EDGE('',*,*,#250,.F.);
#359=ORIENTED_EDGE('',*,*,#258,.F.);
#360=ORIENTED_EDGE('',*,*,#216,.T.);
#361=ORIENTED_EDGE('',*,*,#241,.T.);
#362=ORIENTED_EDGE('',*,*,#259,.F.);
#363=ORIENTED_EDGE('',*,*,#235,.T.);
#364=ORIENTED_EDGE('',*,*,#260,.F.);
#365=ORIENTED_EDGE('',*,*,#253,.T.);
#366=ORIENTED_EDGE('',*,*,#261,.F.);
#367=ORIENTED_EDGE('',*,*,#262,.T.);
#368=ORIENTED_EDGE('',*,*,#263,.T.);
#369=ORIENTED_EDGE('',*,*,#262,.F.);
#370=ORIENTED_EDGE('',*,*,#263,.F.);
#371=ORIENTED_EDGE('',*,*,#264,.T.);
#372=ORIENTED_EDGE('',*,*,#245,.T.);
#373=ORIENTED_EDGE('',*,*,#242,.T.);
#374=ORIENTED_EDGE('',*,*,#259,.T.);
#375=ORIENTED_EDGE('',*,*,#260,.T.);
#376=ORIENTED_EDGE('',*,*,#264,.F.);
#377=ORIENTED_EDGE('',*,*,#265,.F.);
#378=ORIENTED_EDGE('',*,*,#266,.F.);
#379=ORIENTED_EDGE('',*,*,#267,.F.);
#380=ORIENTED_EDGE('',*,*,#268,.F.);
#381=ORIENTED_EDGE('',*,*,#224,.T.);
#382=ORIENTED_EDGE('',*,*,#269,.T.);
#383=ORIENTED_EDGE('',*,*,#270,.T.);
#384=ORIENTED_EDGE('',*,*,#267,.T.);
#385=ORIENTED_EDGE('',*,*,#271,.F.);
#386=ORIENTED_EDGE('',*,*,#251,.T.);
#387=ORIENTED_EDGE('',*,*,#272,.T.);
#388=ORIENTED_EDGE('',*,*,#273,.T.);
#389=ORIENTED_EDGE('',*,*,#268,.T.);
#390=ORIENTED_EDGE('',*,*,#270,.F.);
#391=ORIENTED_EDGE('',*,*,#261,.T.);
#392=ORIENTED_EDGE('',*,*,#274,.T.);
#393=ORIENTED_EDGE('',*,*,#275,.F.);
#394=ORIENTED_EDGE('',*,*,#265,.T.);
#395=ORIENTED_EDGE('',*,*,#273,.F.);
#396=ORIENTED_EDGE('',*,*,#257,.T.);
#397=ORIENTED_EDGE('',*,*,#276,.T.);
#398=ORIENTED_EDGE('',*,*,#271,.T.);
#399=ORIENTED_EDGE('',*,*,#266,.T.);
#400=ORIENTED_EDGE('',*,*,#275,.T.);
#401=ORIENTED_EDGE('',*,*,#248,.T.);
#402=ORIENTED_EDGE('',*,*,#269,.F.);
#403=ORIENTED_EDGE('',*,*,#276,.F.);
#404=ORIENTED_EDGE('',*,*,#274,.F.);
#405=ORIENTED_EDGE('',*,*,#272,.F.);
#406=ORIENTED_EDGE('',*,*,#232,.T.);
#407=CYLINDRICAL_SURFACE('',#466,3.);
#408=CYLINDRICAL_SURFACE('',#470,3.);
#409=CYLINDRICAL_SURFACE('',#474,3.);
#410=CYLINDRICAL_SURFACE('',#478,3.);
#411=CYLINDRICAL_SURFACE('',#482,1.5);
#412=CYLINDRICAL_SURFACE('',#485,3.);
#413=CYLINDRICAL_SURFACE('',#496,3.);
#414=CYLINDRICAL_SURFACE('',#499,3.);
#415=CYLINDRICAL_SURFACE('',#502,3.);
#416=CYLINDRICAL_SURFACE('',#505,3.);
#417=CYLINDRICAL_SURFACE('',#508,3.);
#418=CYLINDRICAL_SURFACE('',#512,3.);
#419=CYLINDRICAL_SURFACE('',#514,3.);
#420=CYLINDRICAL_SURFACE('',#516,3.);
#421=CYLINDRICAL_SURFACE('',#519,1.5);
#422=CYLINDRICAL_SURFACE('',#523,3.);
#423=CYLINDRICAL_SURFACE('',#525,3.);
#424=CYLINDRICAL_SURFACE('',#527,1.5);
#425=ADVANCED_FACE('',(#72),#407,.F.);
#426=ADVANCED_FACE('',(#73),#408,.F.);
#427=ADVANCED_FACE('',(#74),#409,.F.);
#428=ADVANCED_FACE('',(#75),#410,.F.);
#429=ADVANCED_FACE('',(#76),#411,.F.);
#430=ADVANCED_FACE('',(#77),#412,.F.);
#431=ADVANCED_FACE('',(#78),#27,.F.);
#432=ADVANCED_FACE('',(#79),#413,.F.);
#433=ADVANCED_FACE('',(#80),#414,.F.);
#434=ADVANCED_FACE('',(#81),#415,.F.);
#435=ADVANCED_FACE('',(#82),#416,.F.);
#436=ADVANCED_FACE('',(#83),#417,.F.);
#437=ADVANCED_FACE('',(#84),#418,.F.);
#438=ADVANCED_FACE('',(#85),#419,.F.);
#439=ADVANCED_FACE('',(#86),#420,.F.);
#440=ADVANCED_FACE('',(#87),#421,.F.);
#441=ADVANCED_FACE('',(#88),#28,.F.);
#442=ADVANCED_FACE('',(#89),#422,.F.);
#443=ADVANCED_FACE('',(#90),#423,.F.);
#444=ADVANCED_FACE('',(#91),#424,.F.);
#445=ADVANCED_FACE('',(#92),#29,.F.);
#446=ADVANCED_FACE('',(#93,#15),#21,.F.);
#447=ADVANCED_FACE('',(#94,#16),#22,.T.);
#448=ADVANCED_FACE('',(#95,#17),#23,.T.);
#449=ADVANCED_FACE('',(#96,#18),#24,.T.);
#450=ADVANCED_FACE('',(#97,#19),#25,.T.);
#451=ADVANCED_FACE('',(#98,#20),#26,.T.);
#452=CLOSED_SHELL('',(#425,#426,#427,#428,#429,#430,#431,#432,#433,#434,
#435,#436,#437,#438,#439,#440,#441,#442,#443,#444,#445,#446,#447,#448,#449,
#450,#451));
#453=DERIVED_UNIT_ELEMENT(#455,1.);
#454=DERIVED_UNIT_ELEMENT(#836,-3.);
#455=(
MASS_UNIT()
NAMED_UNIT(*)
SI_UNIT(.KILO.,.GRAM.)
);
#456=DERIVED_UNIT((#453,#454));
#457=MEASURE_REPRESENTATION_ITEM('density measure',
POSITIVE_RATIO_MEASURE(7850.),#456);
#458=PROPERTY_DEFINITION_REPRESENTATION(#463,#460);
#459=PROPERTY_DEFINITION_REPRESENTATION(#464,#461);
#460=REPRESENTATION('material name',(#462),#833);
#461=REPRESENTATION('density',(#457),#833);
#462=DESCRIPTIVE_REPRESENTATION_ITEM('Acier','Acier');
#463=PROPERTY_DEFINITION('material property','material name',#843);
#464=PROPERTY_DEFINITION('material property','density of part',#843);
#465=AXIS2_PLACEMENT_3D('',#702,#537,#538);
#466=AXIS2_PLACEMENT_3D('',#703,#539,#540);
#467=AXIS2_PLACEMENT_3D('',#706,#541,#542);
#468=AXIS2_PLACEMENT_3D('',#708,#543,#544);
#469=AXIS2_PLACEMENT_3D('',#709,#545,#546);
#470=AXIS2_PLACEMENT_3D('',#710,#547,#548);
#471=AXIS2_PLACEMENT_3D('',#713,#549,#550);
#472=AXIS2_PLACEMENT_3D('',#714,#551,#552);
#473=AXIS2_PLACEMENT_3D('',#715,#553,#554);
#474=AXIS2_PLACEMENT_3D('',#716,#555,#556);
#475=AXIS2_PLACEMENT_3D('',#718,#557,#558);
#476=AXIS2_PLACEMENT_3D('',#720,#559,#560);
#477=AXIS2_PLACEMENT_3D('',#721,#561,#562);
#478=AXIS2_PLACEMENT_3D('',#722,#563,#564);
#479=AXIS2_PLACEMENT_3D('',#724,#565,#566);
#480=AXIS2_PLACEMENT_3D('',#725,#567,#568);
#481=AXIS2_PLACEMENT_3D('',#726,#569,#570);
#482=AXIS2_PLACEMENT_3D('',#727,#571,#572);
#483=AXIS2_PLACEMENT_3D('',#729,#573,#574);
#484=AXIS2_PLACEMENT_3D('',#732,#576,#577);
#485=AXIS2_PLACEMENT_3D('',#733,#578,#579);
#486=AXIS2_PLACEMENT_3D('',#736,#580,#581);
#487=AXIS2_PLACEMENT_3D('',#738,#582,#583);
#488=AXIS2_PLACEMENT_3D('',#740,#584,#585);
#489=AXIS2_PLACEMENT_3D('',#742,#586,#587);
#490=AXIS2_PLACEMENT_3D('',#745,#589,#590);
#491=AXIS2_PLACEMENT_3D('',#747,#591,#592);
#492=AXIS2_PLACEMENT_3D('',#749,#593,#594);
#493=AXIS2_PLACEMENT_3D('',#751,#595,#596);
#494=AXIS2_PLACEMENT_3D('',#752,#597,#598);
#495=AXIS2_PLACEMENT_3D('',#753,#599,#600);
#496=AXIS2_PLACEMENT_3D('',#755,#602,#603);
#497=AXIS2_PLACEMENT_3D('',#757,#604,#605);
#498=AXIS2_PLACEMENT_3D('',#758,#606,#607);
#499=AXIS2_PLACEMENT_3D('',#759,#608,#609);
#500=AXIS2_PLACEMENT_3D('',#761,#610,#611);
#501=AXIS2_PLACEMENT_3D('',#762,#612,#613);
#502=AXIS2_PLACEMENT_3D('',#763,#614,#615);
#503=AXIS2_PLACEMENT_3D('',#765,#616,#617);
#504=AXIS2_PLACEMENT_3D('',#766,#618,#619);
#505=AXIS2_PLACEMENT_3D('',#767,#620,#621);
#506=AXIS2_PLACEMENT_3D('',#768,#622,#623);
#507=AXIS2_PLACEMENT_3D('',#769,#624,#625);
#508=AXIS2_PLACEMENT_3D('',#770,#626,#627);
#509=AXIS2_PLACEMENT_3D('',#771,#628,#629);
#510=AXIS2_PLACEMENT_3D('',#774,#631,#632);
#511=AXIS2_PLACEMENT_3D('',#775,#633,#634);
#512=AXIS2_PLACEMENT_3D('',#776,#635,#636);
#513=AXIS2_PLACEMENT_3D('',#777,#637,#638);
#514=AXIS2_PLACEMENT_3D('',#778,#639,#640);
#515=AXIS2_PLACEMENT_3D('',#780,#641,#642);
#516=AXIS2_PLACEMENT_3D('',#782,#644,#645);
#517=AXIS2_PLACEMENT_3D('',#783,#646,#647);
#518=AXIS2_PLACEMENT_3D('',#784,#648,#649);
#519=AXIS2_PLACEMENT_3D('',#785,#650,#651);
#520=AXIS2_PLACEMENT_3D('',#787,#652,#653);
#521=AXIS2_PLACEMENT_3D('',#790,#655,#656);
#522=AXIS2_PLACEMENT_3D('',#791,#657,#658);
#523=AXIS2_PLACEMENT_3D('',#793,#660,#661);
#524=AXIS2_PLACEMENT_3D('',#794,#662,#663);
#525=AXIS2_PLACEMENT_3D('',#795,#664,#665);
#526=AXIS2_PLACEMENT_3D('',#796,#666,#667);
#527=AXIS2_PLACEMENT_3D('',#797,#668,#669);
#528=AXIS2_PLACEMENT_3D('',#799,#670,#671);
#529=AXIS2_PLACEMENT_3D('',#802,#673,#674);
#530=AXIS2_PLACEMENT_3D('',#803,#675,#676);
#531=AXIS2_PLACEMENT_3D('',#805,#678,#679);
#532=AXIS2_PLACEMENT_3D('',#814,#684,#685);
#533=AXIS2_PLACEMENT_3D('',#820,#689,#690);
#534=AXIS2_PLACEMENT_3D('',#824,#693,#694);
#535=AXIS2_PLACEMENT_3D('',#828,#697,#698);
#536=AXIS2_PLACEMENT_3D('',#830,#700,#701);
#537=DIRECTION('axis',(0.,0.,1.));
#538=DIRECTION('refdir',(1.,0.,0.));
#539=DIRECTION('center_axis',(1.83697E-16,0.,1.));
#540=DIRECTION('ref_axis',(-1.,0.,1.83697E-16));
#541=DIRECTION('center_axis',(-1.30841E-16,0.707106781186548,-0.707106781186548));
#542=DIRECTION('ref_axis',(-1.298934E-16,-0.707106781186548,-0.707106781186548));
#543=DIRECTION('center_axis',(-0.707106781186548,0.,-0.707106781186548));
#544=DIRECTION('ref_axis',(-0.707106781186548,0.,0.707106781186548));
#545=DIRECTION('center_axis',(0.,0.,1.));
#546=DIRECTION('ref_axis',(-1.,0.,0.));
#547=DIRECTION('center_axis',(1.83697E-16,0.,1.));
#548=DIRECTION('ref_axis',(-1.,0.,1.83697E-16));
#549=DIRECTION('center_axis',(0.707106781186547,0.,-0.707106781186548));
#550=DIRECTION('ref_axis',(-0.707106781186548,0.,-0.707106781186547));
#551=DIRECTION('center_axis',(-1.30841E-16,0.707106781186548,-0.707106781186548));
#552=DIRECTION('ref_axis',(-1.298934E-16,-0.707106781186548,-0.707106781186548));
#553=DIRECTION('center_axis',(0.,0.,1.));
#554=DIRECTION('ref_axis',(-1.,0.,0.));
#555=DIRECTION('center_axis',(1.83697E-16,0.,1.));
#556=DIRECTION('ref_axis',(-1.,0.,1.83697E-16));
#557=DIRECTION('center_axis',(0.707106781186547,0.,-0.707106781186548));
#558=DIRECTION('ref_axis',(-0.707106781186548,0.,-0.707106781186547));
#559=DIRECTION('center_axis',(0.,0.,1.));
#560=DIRECTION('ref_axis',(-1.,0.,0.));
#561=DIRECTION('center_axis',(-1.30841E-16,-0.707106781186547,-0.707106781186548));
#562=DIRECTION('ref_axis',(1.298934E-16,-0.707106781186548,0.707106781186547));
#563=DIRECTION('center_axis',(1.83697E-16,0.,1.));
#564=DIRECTION('ref_axis',(-1.,0.,1.83697E-16));
#565=DIRECTION('center_axis',(-1.30841E-16,-0.707106781186547,-0.707106781186548));
#566=DIRECTION('ref_axis',(1.298934E-16,-0.707106781186548,0.707106781186547));
#567=DIRECTION('center_axis',(0.,0.,1.));
#568=DIRECTION('ref_axis',(-1.,0.,0.));
#569=DIRECTION('center_axis',(-0.707106781186548,0.,-0.707106781186548));
#570=DIRECTION('ref_axis',(-0.707106781186548,0.,0.707106781186548));
#571=DIRECTION('center_axis',(1.83697E-16,0.,1.));
#572=DIRECTION('ref_axis',(-1.,0.,1.83697E-16));
#573=DIRECTION('center_axis',(0.,0.,1.));
#574=DIRECTION('ref_axis',(-1.,0.,0.));
#575=DIRECTION('',(1.83697E-16,0.,1.));
#576=DIRECTION('center_axis',(0.,0.,1.));
#577=DIRECTION('ref_axis',(-1.,0.,0.));
#578=DIRECTION('center_axis',(1.83697E-16,0.,1.));
#579=DIRECTION('ref_axis',(-1.,0.,1.83697E-16));
#580=DIRECTION('center_axis',(0.707106781186548,0.,0.707106781186548));
#581=DIRECTION('ref_axis',(-0.707106781186548,0.,0.707106781186548));
#582=DIRECTION('center_axis',(1.30841E-16,-0.707106781186548,0.707106781186548));
#583=DIRECTION('ref_axis',(-1.298934E-16,-0.707106781186548,-0.707106781186548));
#584=DIRECTION('center_axis',(1.30841E-16,-0.707106781186548,0.707106781186548));
#585=DIRECTION('ref_axis',(-1.298934E-16,-0.707106781186548,-0.707106781186548));
#586=DIRECTION('center_axis',(-0.707106781186547,0.,0.707106781186548));
#587=DIRECTION('ref_axis',(-0.707106781186548,0.,-0.707106781186547));
#588=DIRECTION('',(1.83697E-16,0.,1.));
#589=DIRECTION('center_axis',(0.,0.,-1.));
#590=DIRECTION('ref_axis',(-1.,0.,0.));
#591=DIRECTION('center_axis',(-0.707106781186547,0.,0.707106781186548));
#592=DIRECTION('ref_axis',(-0.707106781186548,0.,-0.707106781186547));
#593=DIRECTION('center_axis',(1.30841E-16,0.707106781186547,0.707106781186548));
#594=DIRECTION('ref_axis',(1.298934E-16,-0.707106781186548,0.707106781186547));
#595=DIRECTION('center_axis',(1.30841E-16,0.707106781186547,0.707106781186548));
#596=DIRECTION('ref_axis',(1.298934E-16,-0.707106781186548,0.707106781186547));
#597=DIRECTION('center_axis',(0.707106781186548,0.,0.707106781186548));
#598=DIRECTION('ref_axis',(-0.707106781186548,0.,0.707106781186548));
#599=DIRECTION('center_axis',(1.83697E-16,0.,1.));
#600=DIRECTION('ref_axis',(-1.,0.,1.83697E-16));
#601=DIRECTION('',(0.707106781186547,8.65956056235493E-17,0.707106781186548));
#602=DIRECTION('center_axis',(-1.,0.,0.));
#603=DIRECTION('ref_axis',(0.,0.,-1.));
#604=DIRECTION('center_axis',(-0.707106781186548,-0.707106781186548,-1.298934E-16));
#605=DIRECTION('ref_axis',(0.707106781186548,-0.707106781186548,0.));
#606=DIRECTION('center_axis',(-1.,0.,0.));
#607=DIRECTION('ref_axis',(0.,0.,-1.));
#608=DIRECTION('center_axis',(-1.,0.,0.));
#609=DIRECTION('ref_axis',(0.,0.,-1.));
#610=DIRECTION('center_axis',(-1.,0.,0.));
#611=DIRECTION('ref_axis',(0.,0.,-1.));
#612=DIRECTION('center_axis',(-0.707106781186548,0.707106781186548,1.298934E-16));
#613=DIRECTION('ref_axis',(-0.707106781186548,-0.707106781186548,0.));
#614=DIRECTION('center_axis',(0.,1.,1.83697E-16));
#615=DIRECTION('ref_axis',(0.,1.83697E-16,-1.));
#616=DIRECTION('center_axis',(0.,1.,0.));
#617=DIRECTION('ref_axis',(0.,0.,-1.));
#618=DIRECTION('center_axis',(0.707106781186548,0.707106781186548,1.298934E-16));
#619=DIRECTION('ref_axis',(0.707106781186548,-0.707106781186548,0.));
#620=DIRECTION('center_axis',(0.,1.,1.83697E-16));
#621=DIRECTION('ref_axis',(0.,1.83697E-16,-1.));
#622=DIRECTION('center_axis',(0.707106781186548,0.707106781186548,1.298934E-16));
#623=DIRECTION('ref_axis',(0.707106781186548,-0.707106781186548,0.));
#624=DIRECTION('center_axis',(0.,1.,0.));
#625=DIRECTION('ref_axis',(0.,0.,-1.));
#626=DIRECTION('center_axis',(0.,1.,1.83697E-16));
#627=DIRECTION('ref_axis',(0.,1.83697E-16,-1.));
#628=DIRECTION('center_axis',(0.707106781186548,-0.707106781186548,-1.298934E-16));
#629=DIRECTION('ref_axis',(-0.707106781186548,-0.707106781186548,0.));
#630=DIRECTION('',(0.,1.,1.83697E-16));
#631=DIRECTION('center_axis',(0.,-1.,0.));
#632=DIRECTION('ref_axis',(0.,0.,-1.));
#633=DIRECTION('center_axis',(-0.707106781186548,-0.707106781186548,-1.298934E-16));
#634=DIRECTION('ref_axis',(0.707106781186548,-0.707106781186548,0.));
#635=DIRECTION('center_axis',(-1.,0.,0.));
#636=DIRECTION('ref_axis',(0.,0.,-1.));
#637=DIRECTION('center_axis',(-1.,0.,0.));
#638=DIRECTION('ref_axis',(0.,0.,-1.));
#639=DIRECTION('center_axis',(-1.,0.,0.));
#640=DIRECTION('ref_axis',(0.,0.,-1.));
#641=DIRECTION('center_axis',(-1.,0.,0.));
#642=DIRECTION('ref_axis',(0.,0.,-1.));
#643=DIRECTION('',(-1.,0.,0.));
#644=DIRECTION('center_axis',(-1.,0.,0.));
#645=DIRECTION('ref_axis',(0.,0.,-1.));
#646=DIRECTION('center_axis',(-0.707106781186548,0.707106781186548,1.298934E-16));
#647=DIRECTION('ref_axis',(-0.707106781186548,-0.707106781186548,0.));
#648=DIRECTION('center_axis',(-1.,0.,0.));
#649=DIRECTION('ref_axis',(0.,0.,-1.));
#650=DIRECTION('center_axis',(-1.,0.,0.));
#651=DIRECTION('ref_axis',(0.,0.,-1.));
#652=DIRECTION('center_axis',(-1.,0.,0.));
#653=DIRECTION('ref_axis',(0.,0.,-1.));
#654=DIRECTION('',(-1.,0.,0.));
#655=DIRECTION('center_axis',(1.,0.,0.));
#656=DIRECTION('ref_axis',(0.,0.,-1.));
#657=DIRECTION('center_axis',(1.,0.,0.));
#658=DIRECTION('ref_axis',(0.,0.,-1.));
#659=DIRECTION('',(0.707106781186547,-8.65956056235494E-17,0.707106781186548));
#660=DIRECTION('center_axis',(0.,1.,1.83697E-16));
#661=DIRECTION('ref_axis',(0.,1.83697E-16,-1.));
#662=DIRECTION('center_axis',(0.,1.,0.));
#663=DIRECTION('ref_axis',(0.,0.,-1.));
#664=DIRECTION('center_axis',(0.,1.,1.83697E-16));
#665=DIRECTION('ref_axis',(0.,1.83697E-16,-1.));
#666=DIRECTION('center_axis',(0.,1.,0.));
#667=DIRECTION('ref_axis',(0.,0.,-1.));
#668=DIRECTION('center_axis',(0.,1.,1.83697E-16));
#669=DIRECTION('ref_axis',(0.,1.83697E-16,-1.));
#670=DIRECTION('center_axis',(0.,1.,0.));
#671=DIRECTION('ref_axis',(0.,0.,-1.));
#672=DIRECTION('',(0.,1.,1.83697E-16));
#673=DIRECTION('center_axis',(0.,1.,0.));
#674=DIRECTION('ref_axis',(0.,0.,-1.));
#675=DIRECTION('center_axis',(0.,1.,1.83697E-16));
#676=DIRECTION('ref_axis',(0.,1.83697E-16,-1.));
#677=DIRECTION('',(8.65956056235493E-17,0.707106781186548,0.707106781186547));
#678=DIRECTION('center_axis',(0.,0.,1.));
#679=DIRECTION('ref_axis',(1.,0.,0.));
#680=DIRECTION('',(0.,-1.,0.));
#681=DIRECTION('',(-1.,0.,0.));
#682=DIRECTION('',(0.,1.,0.));
#683=DIRECTION('',(1.,0.,0.));
#684=DIRECTION('center_axis',(1.,0.,0.));
#685=DIRECTION('ref_axis',(0.,0.,-1.));
#686=DIRECTION('',(0.,-1.,0.));
#687=DIRECTION('',(0.,0.,-1.));
#688=DIRECTION('',(0.,0.,-1.));
#689=DIRECTION('center_axis',(0.,-1.,0.));
#690=DIRECTION('ref_axis',(0.,0.,-1.));
#691=DIRECTION('',(-1.,0.,0.));
#692=DIRECTION('',(0.,0.,-1.));
#693=DIRECTION('center_axis',(-1.,0.,0.));
#694=DIRECTION('ref_axis',(0.,0.,1.));
#695=DIRECTION('',(0.,1.,0.));
#696=DIRECTION('',(0.,0.,1.));
#697=DIRECTION('center_axis',(0.,1.,0.));
#698=DIRECTION('ref_axis',(0.,0.,1.));
#699=DIRECTION('',(1.,0.,0.));
#700=DIRECTION('center_axis',(0.,0.,1.));
#701=DIRECTION('ref_axis',(1.,0.,0.));
#702=CARTESIAN_POINT('',(0.,0.,0.));
#703=CARTESIAN_POINT('Origin',(1.102182E-15,0.,1.));
#704=CARTESIAN_POINT('',(2.12132034355964,-2.12132034355964,-2.12132034355964));
#705=CARTESIAN_POINT('',(0.,-3.,-3.));
#706=CARTESIAN_POINT('Origin',(9.184851E-16,0.,-9.714451E-16));
#707=CARTESIAN_POINT('',(3.,0.,-3.));
#708=CARTESIAN_POINT('Origin',(9.184851E-16,0.,0.));
#709=CARTESIAN_POINT('Origin',(3.67394E-16,0.,-3.));
#710=CARTESIAN_POINT('Origin',(1.102182E-15,0.,1.));
#711=CARTESIAN_POINT('',(-2.12132034355964,-2.12132034355964,-2.12132034355964));
#712=CARTESIAN_POINT('',(-3.,0.,-3.));
#713=CARTESIAN_POINT('Origin',(9.184851E-16,0.,1.387779E-16));
#714=CARTESIAN_POINT('Origin',(9.184851E-16,0.,-9.714451E-16));
#715=CARTESIAN_POINT('Origin',(3.67394E-16,0.,-3.));
#716=CARTESIAN_POINT('Origin',(1.102182E-15,0.,1.));
#717=CARTESIAN_POINT('',(-2.12132034355964,2.12132034355964,-2.12132034355964));
#718=CARTESIAN_POINT('Origin',(9.184851E-16,0.,1.387779E-16));
#719=CARTESIAN_POINT('',(-6.162976E-32,3.,-3.));
#720=CARTESIAN_POINT('Origin',(3.67394E-16,0.,-3.));
#721=CARTESIAN_POINT('Origin',(9.184851E-16,0.,-8.326673E-16));
#722=CARTESIAN_POINT('Origin',(1.102182E-15,0.,1.));
#723=CARTESIAN_POINT('',(2.12132034355964,2.12132034355964,-2.12132034355964));
#724=CARTESIAN_POINT('Origin',(9.184851E-16,0.,-8.326673E-16));
#725=CARTESIAN_POINT('Origin',(3.67394E-16,0.,-3.));
#726=CARTESIAN_POINT('Origin',(9.184851E-16,0.,0.));
#727=CARTESIAN_POINT('Origin',(1.83697E-16,0.,-4.));
#728=CARTESIAN_POINT('',(1.5,1.83697019872103E-16,-5.));
#729=CARTESIAN_POINT('Origin',(3.081488E-32,0.,-5.));
#730=CARTESIAN_POINT('',(1.5,1.83697019872103E-16,-4.5));
#731=CARTESIAN_POINT('',(1.5,1.83697019872103E-16,-4.));
#732=CARTESIAN_POINT('Origin',(9.184851E-17,0.,-4.5));
#733=CARTESIAN_POINT('Origin',(1.102182E-15,0.,1.));
#734=CARTESIAN_POINT('',(-2.12132034355964,2.12132034355964,2.12132034355964));
#735=CARTESIAN_POINT('',(-3.,0.,3.));
#736=CARTESIAN_POINT('Origin',(9.184851E-16,0.,0.));
#737=CARTESIAN_POINT('',(3.67394039744205E-16,3.,3.));
#738=CARTESIAN_POINT('Origin',(9.184851E-16,0.,-9.714451E-16));
#739=CARTESIAN_POINT('',(2.12132034355965,2.12132034355964,2.12132034355964));
#740=CARTESIAN_POINT('Origin',(9.184851E-16,0.,-9.714451E-16));
#741=CARTESIAN_POINT('',(3.,3.67394039744206E-16,3.));
#742=CARTESIAN_POINT('Origin',(9.184851E-16,0.,1.387779E-16));
#743=CARTESIAN_POINT('',(3.,3.67394039744206E-16,5.));
#744=CARTESIAN_POINT('',(3.,3.67394039744206E-16,1.));
#745=CARTESIAN_POINT('Origin',(1.83697E-15,0.,5.));
#746=CARTESIAN_POINT('',(2.12132034355964,-2.12132034355965,2.12132034355964));
#747=CARTESIAN_POINT('Origin',(9.184851E-16,0.,1.387779E-16));
#748=CARTESIAN_POINT('',(1.469576E-15,-3.,3.));
#749=CARTESIAN_POINT('Origin',(9.184851E-16,0.,-8.326673E-16));
#750=CARTESIAN_POINT('',(-2.12132034355964,-2.12132034355964,2.12132034355964));
#751=CARTESIAN_POINT('Origin',(9.184851E-16,0.,-8.326673E-16));
#752=CARTESIAN_POINT('Origin',(9.184851E-16,0.,0.));
#753=CARTESIAN_POINT('Origin',(2.296213E-16,0.,-3.75));
#754=CARTESIAN_POINT('',(2.25,2.75545529808154E-16,-3.75));
#755=CARTESIAN_POINT('Origin',(1.,0.,0.));
#756=CARTESIAN_POINT('',(-3.,3.,-3.67394E-16));
#757=CARTESIAN_POINT('Origin',(1.387779E-16,0.,0.));
#758=CARTESIAN_POINT('Origin',(-3.,0.,0.));
#759=CARTESIAN_POINT('Origin',(1.,0.,0.));
#760=CARTESIAN_POINT('',(-3.,-3.,-1.469576E-15));
#761=CARTESIAN_POINT('Origin',(-3.,0.,0.));
#762=CARTESIAN_POINT('Origin',(1.387779E-16,0.,0.));
#763=CARTESIAN_POINT('Origin',(0.,0.999999999999999,-7.347881E-16));
#764=CARTESIAN_POINT('',(3.,-3.,-5.554531E-16));
#765=CARTESIAN_POINT('Origin',(0.,-3.,-1.469576E-15));
#766=CARTESIAN_POINT('Origin',(1.387779E-16,0.,0.));
#767=CARTESIAN_POINT('Origin',(0.,0.999999999999999,-7.347881E-16));
#768=CARTESIAN_POINT('Origin',(1.387779E-16,0.,0.));
#769=CARTESIAN_POINT('Origin',(0.,-3.,-1.469576E-15));
#770=CARTESIAN_POINT('Origin',(0.,0.999999999999999,-7.347881E-16));
#771=CARTESIAN_POINT('Origin',(1.387779E-16,0.,0.));
#772=CARTESIAN_POINT('',(3.67394039744206E-16,5.,3.));
#773=CARTESIAN_POINT('',(3.67394039744206E-16,0.999999999999999,3.));
#774=CARTESIAN_POINT('Origin',(0.,5.,0.));
#775=CARTESIAN_POINT('Origin',(1.387779E-16,0.,0.));
#776=CARTESIAN_POINT('Origin',(1.,0.,0.));
#777=CARTESIAN_POINT('Origin',(-3.,0.,0.));
#778=CARTESIAN_POINT('Origin',(1.,0.,0.));
#779=CARTESIAN_POINT('',(5.,3.67394039744206E-16,3.));
#780=CARTESIAN_POINT('Origin',(5.,0.,0.));
#781=CARTESIAN_POINT('',(1.,3.67394039744206E-16,3.));
#782=CARTESIAN_POINT('Origin',(1.,0.,0.));
#783=CARTESIAN_POINT('Origin',(1.387779E-16,0.,0.));
#784=CARTESIAN_POINT('Origin',(-3.,0.,0.));
#785=CARTESIAN_POINT('Origin',(-4.,0.,0.));
#786=CARTESIAN_POINT('',(-4.5,1.83697019872103E-16,1.5));
#787=CARTESIAN_POINT('Origin',(-4.5,0.,0.));
#788=CARTESIAN_POINT('',(-5.,1.83697019872103E-16,1.5));
#789=CARTESIAN_POINT('',(-4.,1.83697019872103E-16,1.5));
#790=CARTESIAN_POINT('Origin',(-5.,0.,0.));
#791=CARTESIAN_POINT('Origin',(-3.75,0.,0.));
#792=CARTESIAN_POINT('',(-3.75,-2.75545529808155E-16,2.25));
#793=CARTESIAN_POINT('Origin',(0.,0.999999999999999,-7.347881E-16));
#794=CARTESIAN_POINT('Origin',(0.,-3.,-1.469576E-15));
#795=CARTESIAN_POINT('Origin',(0.,0.999999999999999,-7.347881E-16));
#796=CARTESIAN_POINT('Origin',(0.,-3.,-1.469576E-15));
#797=CARTESIAN_POINT('Origin',(0.,-4.,-1.653273E-15));
#798=CARTESIAN_POINT('',(1.83697019872103E-16,-5.,1.5));
#799=CARTESIAN_POINT('Origin',(0.,-5.,-1.83697E-15));
#800=CARTESIAN_POINT('',(1.83697019872103E-16,-4.5,1.5));
#801=CARTESIAN_POINT('',(1.83697019872103E-16,-4.,1.5));
#802=CARTESIAN_POINT('Origin',(0.,-4.5,-1.745122E-15));
#803=CARTESIAN_POINT('Origin',(0.,-3.75,-1.607349E-15));
#804=CARTESIAN_POINT('',(2.75545529808154E-16,-3.75,2.25));
#805=CARTESIAN_POINT('Origin',(-1.387779E-16,-6.308085E-17,-5.));
#806=CARTESIAN_POINT('',(-5.,5.,-5.));
#807=CARTESIAN_POINT('',(-5.,-5.,-5.));
#808=CARTESIAN_POINT('',(-5.,5.,-5.));
#809=CARTESIAN_POINT('',(5.,5.,-5.));
#810=CARTESIAN_POINT('',(5.,5.,-5.));
#811=CARTESIAN_POINT('',(5.,-5.,-5.));
#812=CARTESIAN_POINT('',(5.,-5.,-5.));
#813=CARTESIAN_POINT('',(-5.,-5.,-5.));
#814=CARTESIAN_POINT('Origin',(5.,5.,0.));
#815=CARTESIAN_POINT('',(5.,5.,5.));
#816=CARTESIAN_POINT('',(5.,-5.,5.));
#817=CARTESIAN_POINT('',(5.,5.,5.));
#818=CARTESIAN_POINT('',(5.,-5.,5.));
#819=CARTESIAN_POINT('',(5.,5.,5.));
#820=CARTESIAN_POINT('Origin',(5.,-5.,0.));
#821=CARTESIAN_POINT('',(-5.,-5.,5.));
#822=CARTESIAN_POINT('',(5.,-5.,5.));
#823=CARTESIAN_POINT('',(-5.,-5.,5.));
#824=CARTESIAN_POINT('Origin',(-5.,-5.,0.));
#825=CARTESIAN_POINT('',(-5.,5.,5.));
#826=CARTESIAN_POINT('',(-5.,-5.,5.));
#827=CARTESIAN_POINT('',(-5.,5.,-5.));
#828=CARTESIAN_POINT('Origin',(-5.,5.,0.));
#829=CARTESIAN_POINT('',(-5.,5.,5.));
#830=CARTESIAN_POINT('Origin',(0.,-7.569702E-17,5.));
#831=UNCERTAINTY_MEASURE_WITH_UNIT(LENGTH_MEASURE(0.01),#835,
'DISTANCE_ACCURACY_VALUE',
'Maximum model space distance between geometric entities at asserted c
onnectivities');
#832=UNCERTAINTY_MEASURE_WITH_UNIT(LENGTH_MEASURE(0.01),#835,
'DISTANCE_ACCURACY_VALUE',
'Maximum model space distance between geometric entities at asserted c
onnectivities');
#833=(
GEOMETRIC_REPRESENTATION_CONTEXT(3)
GLOBAL_UNCERTAINTY_ASSIGNED_CONTEXT((#831))
GLOBAL_UNIT_ASSIGNED_CONTEXT((#835,#837,#838))
REPRESENTATION_CONTEXT('','3D')
);
#834=(
GEOMETRIC_REPRESENTATION_CONTEXT(3)
GLOBAL_UNCERTAINTY_ASSIGNED_CONTEXT((#832))
GLOBAL_UNIT_ASSIGNED_CONTEXT((#835,#837,#838))
REPRESENTATION_CONTEXT('','3D')
);
#835=(
LENGTH_UNIT()
NAMED_UNIT(*)
SI_UNIT(.MILLI.,.METRE.)
);
#836=(
LENGTH_UNIT()
NAMED_UNIT(*)
SI_UNIT($,.METRE.)
);
#837=(
NAMED_UNIT(*)
PLANE_ANGLE_UNIT()
SI_UNIT($,.RADIAN.)
);
#838=(
NAMED_UNIT(*)
SI_UNIT($,.STERADIAN.)
SOLID_ANGLE_UNIT()
);
#839=SHAPE_DEFINITION_REPRESENTATION(#840,#841);
#840=PRODUCT_DEFINITION_SHAPE('',$,#843);
#841=SHAPE_REPRESENTATION('',(#465),#833);
#842=PRODUCT_DEFINITION_CONTEXT('part definition',#847,'design');
#843=PRODUCT_DEFINITION('100988','MakerBeam_CUBE_CORNER_10x10x10mm v1',
#844,#842);
#844=PRODUCT_DEFINITION_FORMATION('',$,#849);
#845=PRODUCT_RELATED_PRODUCT_CATEGORY(
'MakerBeam_CUBE_CORNER_10x10x10mm v1',
'MakerBeam_CUBE_CORNER_10x10x10mm v1',(#849));
#846=APPLICATION_PROTOCOL_DEFINITION('international standard',
'automotive_design',2009,#847);
#847=APPLICATION_CONTEXT(
'Core Data for Automotive Mechanical Design Process');
#848=PRODUCT_CONTEXT('part definition',#847,'mechanical');
#849=PRODUCT('100988','MakerBeam_CUBE_CORNER_10x10x10mm v1',$,(#848));
#850=PRESENTATION_STYLE_ASSIGNMENT((#852));
#851=PRESENTATION_STYLE_ASSIGNMENT((#853));
#852=SURFACE_STYLE_USAGE(.BOTH.,#854);
#853=SURFACE_STYLE_USAGE(.BOTH.,#855);
#854=SURFACE_SIDE_STYLE('',(#856));
#855=SURFACE_SIDE_STYLE('',(#857));
#856=SURFACE_STYLE_FILL_AREA(#858);
#857=SURFACE_STYLE_FILL_AREA(#859);
#858=FILL_AREA_STYLE('Acier - Satin\X\E9',(#860));
#859=FILL_AREA_STYLE('Opaque(63,63,63)',(#861));
#860=FILL_AREA_STYLE_COLOUR('Acier - Satin\X\E9',#862);
#861=FILL_AREA_STYLE_COLOUR('Opaque(63,63,63)',#863);
#862=COLOUR_RGB('Acier - Satin\X\E9',0.627450980392157,0.627450980392157,
0.627450980392157);
#863=COLOUR_RGB('Opaque(63,63,63)',0.250980392156863,0.250980392156863,
0.250980392156863);
ENDSEC;
END-ISO-10303-21;
