ISO-10303-21;
HEADER;
/* Generated by software containing ST-Developer
 * from STEP Tools, Inc. (www.steptools.com) 
 */

FILE_DESCRIPTION(
/* description */ (''),
/* implementation_level */ '2;1');

FILE_NAME(
/* name */ 'MakerBeam_HINGE_AXE.step',
/* time_stamp */ '2026-08-10T14:32:31+02:00',
/* author */ (''),
/* organization */ (''),
/* preprocessor_version */ 'ST-DEVELOPER v20.1',
/* originating_system */ 'Autodesk Translation Framework v15.8.0.0',
/* authorisation */ '');

FILE_SCHEMA (('AUTOMOTIVE_DESIGN { 1 0 10303 214 3 1 1 }'));
ENDSEC;

DATA;
#10=MECHANICAL_DESIGN_GEOMETRIC_PRESENTATION_REPRESENTATION('',(#13),#549);
#11=SHAPE_REPRESENTATION_RELATIONSHIP('SRR','None',#556,#12);
#12=ADVANCED_BREP_SHAPE_REPRESENTATION('',(#14),#548);
#13=STYLED_ITEM('',(#566),#14);
#14=MANIFOLD_SOLID_BREP('Corps1',#289);
#15=CYLINDRICAL_SURFACE('',#331,1.5);
#16=(
BOUNDED_SURFACE()
B_SPLINE_SURFACE(2,2,((#503,#504,#505,#506,#507,#508,#509,#510,#511),(#512,
#513,#514,#515,#516,#517,#518,#519,#520),(#521,#522,#523,#524,#525,#526,
#527,#528,#529)),.UNSPECIFIED.,.F.,.T.,.F.)
B_SPLINE_SURFACE_WITH_KNOTS((3,3),(3,2,2,2,3),(0.443248287928815,1.06506837200554),
(-3.14159265358979,-1.5707963267949,0.,1.5707963267949,3.14159265358979),
 .UNSPECIFIED.)
GEOMETRIC_REPRESENTATION_ITEM()
RATIONAL_B_SPLINE_SURFACE(((1.,0.707106781186548,1.,0.707106781186548,1.,
0.707106781186548,1.,0.707106781186548,1.),(0.952055559390583,0.673204942111433,
0.952055559390583,0.673204942111433,0.952055559390583,0.673204942111433,
0.952055559390583,0.673204942111433,0.952055559390583),(1.,0.707106781186548,
1.,0.707106781186548,1.,0.707106781186548,1.,0.707106781186548,1.)))
REPRESENTATION_ITEM('')
SURFACE()
);
#17=FACE_BOUND('',#74,.T.);
#18=FACE_BOUND('',#79,.T.);
#19=FACE_BOUND('',#82,.T.);
#20=CONICAL_SURFACE('',#313,866.0254037844,1.0471975512);
#21=CONICAL_SURFACE('',#316,1.,0.7853981634);
#22=CONICAL_SURFACE('',#318,1.,0.7853981634);
#23=CONICAL_SURFACE('',#320,1.,0.7853981634);
#24=CONICAL_SURFACE('',#324,1.,0.7853981634);
#25=CONICAL_SURFACE('',#333,1.1935,0.7853981634);
#26=CONICAL_SURFACE('',#337,1.,0.7853981634);
#27=CONICAL_SURFACE('',#338,1.,0.7853981634);
#28=CIRCLE('',#309,1.5);
#29=CIRCLE('',#310,1.5);
#30=CIRCLE('',#311,0.3);
#31=CIRCLE('',#312,1.8);
#32=CIRCLE('',#314,0.9);
#33=CIRCLE('',#317,1.1547005384);
#34=CIRCLE('',#319,1.1547005384);
#35=CIRCLE('',#321,1.1547005384);
#36=CIRCLE('',#323,2.85);
#37=CIRCLE('',#325,1.1547005384);
#38=CIRCLE('',#327,1.3);
#39=CIRCLE('',#328,1.1547005384);
#40=CIRCLE('',#329,1.1547005384);
#41=CIRCLE('',#330,3.69999999999993);
#42=CIRCLE('',#332,1.5);
#43=CIRCLE('',#334,1.1935);
#44=TOROIDAL_SURFACE('',#308,1.8,0.3);
#45=FACE_OUTER_BOUND('',#66,.T.);
#46=FACE_OUTER_BOUND('',#67,.T.);
#47=FACE_OUTER_BOUND('',#68,.T.);
#48=FACE_OUTER_BOUND('',#69,.T.);
#49=FACE_OUTER_BOUND('',#70,.T.);
#50=FACE_OUTER_BOUND('',#71,.T.);
#51=FACE_OUTER_BOUND('',#72,.T.);
#52=FACE_OUTER_BOUND('',#73,.T.);
#53=FACE_OUTER_BOUND('',#75,.T.);
#54=FACE_OUTER_BOUND('',#76,.T.);
#55=FACE_OUTER_BOUND('',#77,.T.);
#56=FACE_OUTER_BOUND('',#78,.T.);
#57=FACE_OUTER_BOUND('',#80,.T.);
#58=FACE_OUTER_BOUND('',#81,.T.);
#59=FACE_OUTER_BOUND('',#83,.T.);
#60=FACE_OUTER_BOUND('',#84,.T.);
#61=FACE_OUTER_BOUND('',#85,.T.);
#62=FACE_OUTER_BOUND('',#86,.T.);
#63=FACE_OUTER_BOUND('',#87,.T.);
#64=FACE_OUTER_BOUND('',#88,.T.);
#65=FACE_OUTER_BOUND('',#89,.T.);
#66=EDGE_LOOP('',(#184,#185,#186,#187));
#67=EDGE_LOOP('',(#188,#189,#190,#191));
#68=EDGE_LOOP('',(#192,#193,#194,#195));
#69=EDGE_LOOP('',(#196,#197,#198,#199));
#70=EDGE_LOOP('',(#200,#201,#202,#203));
#71=EDGE_LOOP('',(#204,#205,#206,#207,#208));
#72=EDGE_LOOP('',(#209,#210,#211));
#73=EDGE_LOOP('',(#212,#213,#214,#215,#216,#217));
#74=EDGE_LOOP('',(#218));
#75=EDGE_LOOP('',(#219,#220));
#76=EDGE_LOOP('',(#221,#222));
#77=EDGE_LOOP('',(#223,#224));
#78=EDGE_LOOP('',(#225));
#79=EDGE_LOOP('',(#226));
#80=EDGE_LOOP('',(#227,#228));
#81=EDGE_LOOP('',(#229));
#82=EDGE_LOOP('',(#230,#231,#232,#233,#234,#235));
#83=EDGE_LOOP('',(#236,#237,#238,#239));
#84=EDGE_LOOP('',(#240,#241,#242,#243,#244));
#85=EDGE_LOOP('',(#245,#246,#247,#248));
#86=EDGE_LOOP('',(#249));
#87=EDGE_LOOP('',(#250,#251,#252,#253));
#88=EDGE_LOOP('',(#254,#255));
#89=EDGE_LOOP('',(#256,#257));
#90=(
BOUNDED_CURVE()
B_SPLINE_CURVE(2,(#437,#438,#439),.UNSPECIFIED.,.F.,.F.)
B_SPLINE_CURVE_WITH_KNOTS((3,3),(0.124274873544321,0.321867155117133),
 .UNSPECIFIED.)
CURVE()
GEOMETRIC_REPRESENTATION_ITEM()
RATIONAL_B_SPLINE_CURVE((1.46410161514057,1.69059892324508,1.46410161514057))
REPRESENTATION_ITEM('')
);
#91=(
BOUNDED_CURVE()
B_SPLINE_CURVE(2,(#445,#446,#447),.UNSPECIFIED.,.F.,.F.)
B_SPLINE_CURVE_WITH_KNOTS((3,3),(0.124274873544321,0.321867155117133),
 .UNSPECIFIED.)
CURVE()
GEOMETRIC_REPRESENTATION_ITEM()
RATIONAL_B_SPLINE_CURVE((1.46410161514057,1.69059892324508,1.46410161514057))
REPRESENTATION_ITEM('')
);
#92=(
BOUNDED_CURVE()
B_SPLINE_CURVE(2,(#453,#454,#455),.UNSPECIFIED.,.F.,.F.)
B_SPLINE_CURVE_WITH_KNOTS((3,3),(0.124274873544321,0.321867155117133),
 .UNSPECIFIED.)
CURVE()
GEOMETRIC_REPRESENTATION_ITEM()
RATIONAL_B_SPLINE_CURVE((1.46410161514057,1.69059892324508,1.46410161514057))
REPRESENTATION_ITEM('')
);
#93=(
BOUNDED_CURVE()
B_SPLINE_CURVE(2,(#464,#465,#466),.UNSPECIFIED.,.F.,.F.)
B_SPLINE_CURVE_WITH_KNOTS((3,3),(0.124274873544321,0.321867155117133),
 .UNSPECIFIED.)
CURVE()
GEOMETRIC_REPRESENTATION_ITEM()
RATIONAL_B_SPLINE_CURVE((1.46410161514057,1.69059892324509,1.46410161514057))
REPRESENTATION_ITEM('')
);
#94=(
BOUNDED_CURVE()
B_SPLINE_CURVE(2,(#469,#470,#471),.UNSPECIFIED.,.F.,.F.)
B_SPLINE_CURVE_WITH_KNOTS((3,3),(0.124274873544321,0.321867155117133),
 .UNSPECIFIED.)
CURVE()
GEOMETRIC_REPRESENTATION_ITEM()
RATIONAL_B_SPLINE_CURVE((1.46410161514057,1.69059892324508,1.46410161514057))
REPRESENTATION_ITEM('')
);
#95=(
BOUNDED_CURVE()
B_SPLINE_CURVE(2,(#541,#542,#543),.UNSPECIFIED.,.F.,.F.)
B_SPLINE_CURVE_WITH_KNOTS((3,3),(0.124274873544321,0.321867155117133),
 .UNSPECIFIED.)
CURVE()
GEOMETRIC_REPRESENTATION_ITEM()
RATIONAL_B_SPLINE_CURVE((1.46410161514057,1.69059892324508,1.46410161514057))
REPRESENTATION_ITEM('')
);
#96=LINE('',#432,#111);
#97=LINE('',#434,#112);
#98=LINE('',#436,#113);
#99=LINE('',#443,#114);
#100=LINE('',#444,#115);
#101=LINE('',#451,#116);
#102=LINE('',#452,#117);
#103=LINE('',#459,#118);
#104=LINE('',#461,#119);
#105=LINE('',#463,#120);
#106=LINE('',#468,#121);
#107=LINE('',#483,#122);
#108=LINE('',#486,#123);
#109=LINE('',#534,#124);
#110=LINE('',#537,#125);
#111=VECTOR('',#343,1.04);
#112=VECTOR('',#344,1.15470053837925);
#113=VECTOR('',#345,1.04);
#114=VECTOR('',#348,1.04);
#115=VECTOR('',#349,1.15470053837925);
#116=VECTOR('',#352,1.04);
#117=VECTOR('',#353,1.15470053837925);
#118=VECTOR('',#356,1.04);
#119=VECTOR('',#357,1.15470053837925);
#120=VECTOR('',#358,1.04);
#121=VECTOR('',#361,1.15470053837925);
#122=VECTOR('',#374,866.0254037844);
#123=VECTOR('',#379,1.15470053837925);
#124=VECTOR('',#414,1.5);
#125=VECTOR('',#417,1.1935);
#126=VERTEX_POINT('',#430);
#127=VERTEX_POINT('',#431);
#128=VERTEX_POINT('',#433);
#129=VERTEX_POINT('',#435);
#130=VERTEX_POINT('',#441);
#131=VERTEX_POINT('',#442);
#132=VERTEX_POINT('',#449);
#133=VERTEX_POINT('',#450);
#134=VERTEX_POINT('',#457);
#135=VERTEX_POINT('',#458);
#136=VERTEX_POINT('',#460);
#137=VERTEX_POINT('',#462);
#138=VERTEX_POINT('',#473);
#139=VERTEX_POINT('',#474);
#140=VERTEX_POINT('',#477);
#141=VERTEX_POINT('',#481);
#142=VERTEX_POINT('',#482);
#143=VERTEX_POINT('',#494);
#144=VERTEX_POINT('',#499);
#145=VERTEX_POINT('',#532);
#146=VERTEX_POINT('',#536);
#147=EDGE_CURVE('',#126,#127,#96,.T.);
#148=EDGE_CURVE('',#126,#128,#97,.T.);
#149=EDGE_CURVE('',#128,#129,#98,.T.);
#150=EDGE_CURVE('',#127,#129,#90,.T.);
#151=EDGE_CURVE('',#130,#131,#99,.T.);
#152=EDGE_CURVE('',#130,#126,#100,.T.);
#153=EDGE_CURVE('',#131,#127,#91,.T.);
#154=EDGE_CURVE('',#132,#133,#101,.T.);
#155=EDGE_CURVE('',#132,#130,#102,.T.);
#156=EDGE_CURVE('',#133,#131,#92,.T.);
#157=EDGE_CURVE('',#134,#135,#103,.T.);
#158=EDGE_CURVE('',#134,#136,#104,.T.);
#159=EDGE_CURVE('',#136,#137,#105,.T.);
#160=EDGE_CURVE('',#135,#137,#93,.T.);
#161=EDGE_CURVE('',#128,#134,#106,.T.);
#162=EDGE_CURVE('',#129,#135,#94,.F.);
#163=EDGE_CURVE('',#138,#139,#28,.T.);
#164=EDGE_CURVE('',#139,#138,#29,.T.);
#165=EDGE_CURVE('',#139,#140,#30,.T.);
#166=EDGE_CURVE('',#140,#140,#31,.T.);
#167=EDGE_CURVE('',#141,#142,#107,.T.);
#168=EDGE_CURVE('',#142,#142,#32,.T.);
#169=EDGE_CURVE('',#136,#132,#108,.T.);
#170=EDGE_CURVE('',#135,#129,#33,.F.);
#171=EDGE_CURVE('',#137,#135,#34,.T.);
#172=EDGE_CURVE('',#129,#127,#35,.F.);
#173=EDGE_CURVE('',#143,#143,#36,.T.);
#174=EDGE_CURVE('',#127,#131,#37,.F.);
#175=EDGE_CURVE('',#144,#144,#38,.T.);
#176=EDGE_CURVE('',#133,#137,#39,.F.);
#177=EDGE_CURVE('',#131,#133,#40,.F.);
#178=EDGE_CURVE('',#144,#143,#41,.T.);
#179=EDGE_CURVE('',#145,#145,#42,.T.);
#180=EDGE_CURVE('',#145,#138,#109,.T.);
#181=EDGE_CURVE('',#145,#146,#110,.T.);
#182=EDGE_CURVE('',#146,#146,#43,.T.);
#183=EDGE_CURVE('',#137,#133,#95,.T.);
#184=ORIENTED_EDGE('',*,*,#147,.F.);
#185=ORIENTED_EDGE('',*,*,#148,.T.);
#186=ORIENTED_EDGE('',*,*,#149,.T.);
#187=ORIENTED_EDGE('',*,*,#150,.F.);
#188=ORIENTED_EDGE('',*,*,#151,.F.);
#189=ORIENTED_EDGE('',*,*,#152,.T.);
#190=ORIENTED_EDGE('',*,*,#147,.T.);
#191=ORIENTED_EDGE('',*,*,#153,.F.);
#192=ORIENTED_EDGE('',*,*,#154,.F.);
#193=ORIENTED_EDGE('',*,*,#155,.T.);
#194=ORIENTED_EDGE('',*,*,#151,.T.);
#195=ORIENTED_EDGE('',*,*,#156,.F.);
#196=ORIENTED_EDGE('',*,*,#157,.F.);
#197=ORIENTED_EDGE('',*,*,#158,.T.);
#198=ORIENTED_EDGE('',*,*,#159,.T.);
#199=ORIENTED_EDGE('',*,*,#160,.F.);
#200=ORIENTED_EDGE('',*,*,#149,.F.);
#201=ORIENTED_EDGE('',*,*,#161,.T.);
#202=ORIENTED_EDGE('',*,*,#157,.T.);
#203=ORIENTED_EDGE('',*,*,#162,.F.);
#204=ORIENTED_EDGE('',*,*,#163,.F.);
#205=ORIENTED_EDGE('',*,*,#164,.F.);
#206=ORIENTED_EDGE('',*,*,#165,.T.);
#207=ORIENTED_EDGE('',*,*,#166,.F.);
#208=ORIENTED_EDGE('',*,*,#165,.F.);
#209=ORIENTED_EDGE('',*,*,#167,.T.);
#210=ORIENTED_EDGE('',*,*,#168,.F.);
#211=ORIENTED_EDGE('',*,*,#167,.F.);
#212=ORIENTED_EDGE('',*,*,#161,.F.);
#213=ORIENTED_EDGE('',*,*,#148,.F.);
#214=ORIENTED_EDGE('',*,*,#152,.F.);
#215=ORIENTED_EDGE('',*,*,#155,.F.);
#216=ORIENTED_EDGE('',*,*,#169,.F.);
#217=ORIENTED_EDGE('',*,*,#158,.F.);
#218=ORIENTED_EDGE('',*,*,#168,.T.);
#219=ORIENTED_EDGE('',*,*,#170,.T.);
#220=ORIENTED_EDGE('',*,*,#162,.T.);
#221=ORIENTED_EDGE('',*,*,#171,.T.);
#222=ORIENTED_EDGE('',*,*,#160,.T.);
#223=ORIENTED_EDGE('',*,*,#172,.T.);
#224=ORIENTED_EDGE('',*,*,#150,.T.);
#225=ORIENTED_EDGE('',*,*,#173,.F.);
#226=ORIENTED_EDGE('',*,*,#166,.T.);
#227=ORIENTED_EDGE('',*,*,#174,.T.);
#228=ORIENTED_EDGE('',*,*,#153,.T.);
#229=ORIENTED_EDGE('',*,*,#175,.F.);
#230=ORIENTED_EDGE('',*,*,#170,.F.);
#231=ORIENTED_EDGE('',*,*,#171,.F.);
#232=ORIENTED_EDGE('',*,*,#176,.F.);
#233=ORIENTED_EDGE('',*,*,#177,.F.);
#234=ORIENTED_EDGE('',*,*,#174,.F.);
#235=ORIENTED_EDGE('',*,*,#172,.F.);
#236=ORIENTED_EDGE('',*,*,#175,.T.);
#237=ORIENTED_EDGE('',*,*,#178,.T.);
#238=ORIENTED_EDGE('',*,*,#173,.T.);
#239=ORIENTED_EDGE('',*,*,#178,.F.);
#240=ORIENTED_EDGE('',*,*,#179,.T.);
#241=ORIENTED_EDGE('',*,*,#180,.T.);
#242=ORIENTED_EDGE('',*,*,#163,.T.);
#243=ORIENTED_EDGE('',*,*,#164,.T.);
#244=ORIENTED_EDGE('',*,*,#180,.F.);
#245=ORIENTED_EDGE('',*,*,#179,.F.);
#246=ORIENTED_EDGE('',*,*,#181,.T.);
#247=ORIENTED_EDGE('',*,*,#182,.T.);
#248=ORIENTED_EDGE('',*,*,#181,.F.);
#249=ORIENTED_EDGE('',*,*,#182,.F.);
#250=ORIENTED_EDGE('',*,*,#159,.F.);
#251=ORIENTED_EDGE('',*,*,#169,.T.);
#252=ORIENTED_EDGE('',*,*,#154,.T.);
#253=ORIENTED_EDGE('',*,*,#183,.F.);
#254=ORIENTED_EDGE('',*,*,#177,.T.);
#255=ORIENTED_EDGE('',*,*,#156,.T.);
#256=ORIENTED_EDGE('',*,*,#176,.T.);
#257=ORIENTED_EDGE('',*,*,#183,.T.);
#258=PLANE('',#303);
#259=PLANE('',#304);
#260=PLANE('',#305);
#261=PLANE('',#306);
#262=PLANE('',#307);
#263=PLANE('',#315);
#264=PLANE('',#322);
#265=PLANE('',#326);
#266=PLANE('',#335);
#267=PLANE('',#336);
#268=ADVANCED_FACE('',(#45),#258,.T.);
#269=ADVANCED_FACE('',(#46),#259,.T.);
#270=ADVANCED_FACE('',(#47),#260,.T.);
#271=ADVANCED_FACE('',(#48),#261,.T.);
#272=ADVANCED_FACE('',(#49),#262,.T.);
#273=ADVANCED_FACE('',(#50),#44,.F.);
#274=ADVANCED_FACE('',(#51),#20,.F.);
#275=ADVANCED_FACE('',(#52,#17),#263,.F.);
#276=ADVANCED_FACE('',(#53),#21,.F.);
#277=ADVANCED_FACE('',(#54),#22,.F.);
#278=ADVANCED_FACE('',(#55),#23,.F.);
#279=ADVANCED_FACE('',(#56,#18),#264,.F.);
#280=ADVANCED_FACE('',(#57),#24,.F.);
#281=ADVANCED_FACE('',(#58,#19),#265,.F.);
#282=ADVANCED_FACE('',(#59),#16,.F.);
#283=ADVANCED_FACE('',(#60),#15,.T.);
#284=ADVANCED_FACE('',(#61),#25,.T.);
#285=ADVANCED_FACE('',(#62),#266,.F.);
#286=ADVANCED_FACE('',(#63),#267,.T.);
#287=ADVANCED_FACE('',(#64),#26,.F.);
#288=ADVANCED_FACE('',(#65),#27,.F.);
#289=CLOSED_SHELL('',(#268,#269,#270,#271,#272,#273,#274,#275,#276,#277,
#278,#279,#280,#281,#282,#283,#284,#285,#286,#287,#288));
#290=DERIVED_UNIT_ELEMENT(#292,1.);
#291=DERIVED_UNIT_ELEMENT(#551,-3.);
#292=(
MASS_UNIT()
NAMED_UNIT(*)
SI_UNIT(.KILO.,.GRAM.)
);
#293=DERIVED_UNIT((#290,#291));
#294=MEASURE_REPRESENTATION_ITEM('density measure',
POSITIVE_RATIO_MEASURE(7850.),#293);
#295=PROPERTY_DEFINITION_REPRESENTATION(#300,#297);
#296=PROPERTY_DEFINITION_REPRESENTATION(#301,#298);
#297=REPRESENTATION('material name',(#299),#548);
#298=REPRESENTATION('density',(#294),#548);
#299=DESCRIPTIVE_REPRESENTATION_ITEM('Acier','Acier');
#300=PROPERTY_DEFINITION('material property','material name',#558);
#301=PROPERTY_DEFINITION('material property','density of part',#558);
#302=AXIS2_PLACEMENT_3D('',#428,#339,#340);
#303=AXIS2_PLACEMENT_3D('',#429,#341,#342);
#304=AXIS2_PLACEMENT_3D('',#440,#346,#347);
#305=AXIS2_PLACEMENT_3D('',#448,#350,#351);
#306=AXIS2_PLACEMENT_3D('',#456,#354,#355);
#307=AXIS2_PLACEMENT_3D('',#467,#359,#360);
#308=AXIS2_PLACEMENT_3D('',#472,#362,#363);
#309=AXIS2_PLACEMENT_3D('',#475,#364,#365);
#310=AXIS2_PLACEMENT_3D('',#476,#366,#367);
#311=AXIS2_PLACEMENT_3D('',#478,#368,#369);
#312=AXIS2_PLACEMENT_3D('',#479,#370,#371);
#313=AXIS2_PLACEMENT_3D('',#480,#372,#373);
#314=AXIS2_PLACEMENT_3D('',#484,#375,#376);
#315=AXIS2_PLACEMENT_3D('',#485,#377,#378);
#316=AXIS2_PLACEMENT_3D('',#487,#380,#381);
#317=AXIS2_PLACEMENT_3D('',#488,#382,#383);
#318=AXIS2_PLACEMENT_3D('',#489,#384,#385);
#319=AXIS2_PLACEMENT_3D('',#490,#386,#387);
#320=AXIS2_PLACEMENT_3D('',#491,#388,#389);
#321=AXIS2_PLACEMENT_3D('',#492,#390,#391);
#322=AXIS2_PLACEMENT_3D('',#493,#392,#393);
#323=AXIS2_PLACEMENT_3D('',#495,#394,#395);
#324=AXIS2_PLACEMENT_3D('',#496,#396,#397);
#325=AXIS2_PLACEMENT_3D('',#497,#398,#399);
#326=AXIS2_PLACEMENT_3D('',#498,#400,#401);
#327=AXIS2_PLACEMENT_3D('',#500,#402,#403);
#328=AXIS2_PLACEMENT_3D('',#501,#404,#405);
#329=AXIS2_PLACEMENT_3D('',#502,#406,#407);
#330=AXIS2_PLACEMENT_3D('',#530,#408,#409);
#331=AXIS2_PLACEMENT_3D('',#531,#410,#411);
#332=AXIS2_PLACEMENT_3D('',#533,#412,#413);
#333=AXIS2_PLACEMENT_3D('',#535,#415,#416);
#334=AXIS2_PLACEMENT_3D('',#538,#418,#419);
#335=AXIS2_PLACEMENT_3D('',#539,#420,#421);
#336=AXIS2_PLACEMENT_3D('',#540,#422,#423);
#337=AXIS2_PLACEMENT_3D('',#544,#424,#425);
#338=AXIS2_PLACEMENT_3D('',#545,#426,#427);
#339=DIRECTION('axis',(0.,0.,1.));
#340=DIRECTION('refdir',(1.,0.,0.));
#341=DIRECTION('center_axis',(0.,-0.866025403784439,-0.5));
#342=DIRECTION('ref_axis',(0.,0.5,-0.866025403784439));
#343=DIRECTION('',(-1.,0.,0.));
#344=DIRECTION('',(0.,-0.5,0.866025403784439));
#345=DIRECTION('',(-1.,0.,0.));
#346=DIRECTION('center_axis',(0.,-0.866025403784439,0.5));
#347=DIRECTION('ref_axis',(0.,-0.5,-0.866025403784439));
#348=DIRECTION('',(-1.,0.,0.));
#349=DIRECTION('',(0.,0.5,0.866025403784439));
#350=DIRECTION('center_axis',(0.,0.,1.));
#351=DIRECTION('ref_axis',(1.,0.,0.));
#352=DIRECTION('',(-1.,0.,0.));
#353=DIRECTION('',(0.,1.,0.));
#354=DIRECTION('center_axis',(0.,0.866025403784439,-0.5));
#355=DIRECTION('ref_axis',(0.,0.5,0.866025403784439));
#356=DIRECTION('',(-1.,0.,0.));
#357=DIRECTION('',(0.,-0.5,-0.866025403784439));
#358=DIRECTION('',(-1.,0.,0.));
#359=DIRECTION('center_axis',(0.,0.,-1.));
#360=DIRECTION('ref_axis',(-1.,0.,0.));
#361=DIRECTION('',(0.,-1.,0.));
#362=DIRECTION('center_axis',(1.,0.,0.));
#363=DIRECTION('ref_axis',(0.,0.,-1.));
#364=DIRECTION('center_axis',(1.,0.,0.));
#365=DIRECTION('ref_axis',(0.,0.,-1.));
#366=DIRECTION('center_axis',(1.,0.,0.));
#367=DIRECTION('ref_axis',(0.,0.,-1.));
#368=DIRECTION('center_axis',(0.,1.,1.22464679914735E-16));
#369=DIRECTION('ref_axis',(0.,-1.22464679914735E-16,1.));
#370=DIRECTION('center_axis',(-1.,0.,0.));
#371=DIRECTION('ref_axis',(0.,0.,1.));
#372=DIRECTION('center_axis',(-1.,0.,0.));
#373=DIRECTION('ref_axis',(0.,-1.,0.));
#374=DIRECTION('',(-0.499999999997053,0.86602540378614,-1.06057523872699E-16));
#375=DIRECTION('center_axis',(1.,0.,0.));
#376=DIRECTION('ref_axis',(0.,0.,-1.));
#377=DIRECTION('center_axis',(1.,0.,0.));
#378=DIRECTION('ref_axis',(0.,0.,-1.));
#379=DIRECTION('',(0.,0.5,-0.866025403784439));
#380=DIRECTION('center_axis',(-1.,0.,0.));
#381=DIRECTION('ref_axis',(0.,-1.,0.));
#382=DIRECTION('center_axis',(1.,0.,0.));
#383=DIRECTION('ref_axis',(0.,0.,-1.));
#384=DIRECTION('center_axis',(-1.,0.,0.));
#385=DIRECTION('ref_axis',(0.,-1.,0.));
#386=DIRECTION('center_axis',(-1.,0.,0.));
#387=DIRECTION('ref_axis',(0.,-1.,0.));
#388=DIRECTION('center_axis',(-1.,0.,0.));
#389=DIRECTION('ref_axis',(0.,-1.,0.));
#390=DIRECTION('center_axis',(1.,0.,0.));
#391=DIRECTION('ref_axis',(0.,0.,-1.));
#392=DIRECTION('center_axis',(-1.,0.,0.));
#393=DIRECTION('ref_axis',(0.,0.,1.));
#394=DIRECTION('center_axis',(-1.,0.,0.));
#395=DIRECTION('ref_axis',(0.,0.,1.));
#396=DIRECTION('center_axis',(-1.,0.,0.));
#397=DIRECTION('ref_axis',(0.,-1.,0.));
#398=DIRECTION('center_axis',(1.,0.,0.));
#399=DIRECTION('ref_axis',(0.,0.,-1.));
#400=DIRECTION('center_axis',(1.,0.,0.));
#401=DIRECTION('ref_axis',(0.,0.,-1.));
#402=DIRECTION('center_axis',(1.,0.,0.));
#403=DIRECTION('ref_axis',(0.,0.,-1.));
#404=DIRECTION('center_axis',(1.,0.,0.));
#405=DIRECTION('ref_axis',(0.,0.,-1.));
#406=DIRECTION('center_axis',(1.,0.,0.));
#407=DIRECTION('ref_axis',(0.,0.,-1.));
#408=DIRECTION('center_axis',(-2.19862845448073E-14,-1.,1.22464679915513E-16));
#409=DIRECTION('ref_axis',(-3.53915299111975E-14,-1.22464679914735E-16,
-1.));
#410=DIRECTION('center_axis',(1.,0.,0.));
#411=DIRECTION('ref_axis',(0.,0.,1.));
#412=DIRECTION('center_axis',(-1.,0.,0.));
#413=DIRECTION('ref_axis',(0.,0.,1.));
#414=DIRECTION('',(-1.,0.,0.));
#415=DIRECTION('center_axis',(-1.,0.,0.));
#416=DIRECTION('ref_axis',(0.,0.,1.));
#417=DIRECTION('',(0.707106781184743,8.65956056237703E-17,0.707106781188352));
#418=DIRECTION('center_axis',(-1.,0.,0.));
#419=DIRECTION('ref_axis',(0.,0.,1.));
#420=DIRECTION('center_axis',(-1.,0.,0.));
#421=DIRECTION('ref_axis',(0.,0.,1.));
#422=DIRECTION('center_axis',(0.,0.866025403784439,0.5));
#423=DIRECTION('ref_axis',(0.,-0.5,0.866025403784439));
#424=DIRECTION('center_axis',(-1.,0.,0.));
#425=DIRECTION('ref_axis',(0.,-1.,0.));
#426=DIRECTION('center_axis',(-1.,0.,0.));
#427=DIRECTION('ref_axis',(0.,-1.,0.));
#428=CARTESIAN_POINT('',(0.,0.,0.));
#429=CARTESIAN_POINT('Origin',(-0.61,1.15470053837925,2.220446E-16));
#430=CARTESIAN_POINT('',(-0.61,1.15470053837925,2.168404E-16));
#431=CARTESIAN_POINT('',(-1.65,1.15470053837925,2.168404E-16));
#432=CARTESIAN_POINT('',(-0.61,1.15470053837925,2.168404E-16));
#433=CARTESIAN_POINT('',(-0.61,0.577350269189626,1.));
#434=CARTESIAN_POINT('',(-0.61,1.15470053837925,2.171657E-16));
#435=CARTESIAN_POINT('',(-1.65,0.577350269189626,1.));
#436=CARTESIAN_POINT('',(-0.61,0.577350269189626,1.));
#437=CARTESIAN_POINT('Ctrl Pts',(-1.64999999999893,1.15470053837948,-3.99735961888793E-13));
#438=CARTESIAN_POINT('Ctrl Pts',(-1.36132486540519,0.866025403784438,0.499999999999999));
#439=CARTESIAN_POINT('Ctrl Pts',(-1.64999999999893,0.577350269189394,1.0000000000004));
#440=CARTESIAN_POINT('Origin',(-0.61,0.577350269189626,-1.));
#441=CARTESIAN_POINT('',(-0.61,0.577350269189626,-1.));
#442=CARTESIAN_POINT('',(-1.65,0.577350269189626,-1.));
#443=CARTESIAN_POINT('',(-0.61,0.577350269189626,-1.));
#444=CARTESIAN_POINT('',(-0.61,0.577350269189626,-1.));
#445=CARTESIAN_POINT('Ctrl Pts',(-1.64999999999893,0.577350269189395,-1.0000000000004));
#446=CARTESIAN_POINT('Ctrl Pts',(-1.36132486540519,0.866025403784439,-0.5));
#447=CARTESIAN_POINT('Ctrl Pts',(-1.64999999999893,1.15470053837948,4.01138810280132E-13));
#448=CARTESIAN_POINT('Origin',(-0.61,-0.577350269189626,-1.));
#449=CARTESIAN_POINT('',(-0.61,-0.577350269189626,-1.));
#450=CARTESIAN_POINT('',(-1.65,-0.577350269189626,-1.));
#451=CARTESIAN_POINT('',(-0.61,-0.577350269189626,-1.));
#452=CARTESIAN_POINT('',(-0.61,-0.577350269189626,-1.));
#453=CARTESIAN_POINT('Ctrl Pts',(-1.64999999999893,-0.577350269190088,-1.));
#454=CARTESIAN_POINT('Ctrl Pts',(-1.36132486540519,4.16333634234434E-16,
-1.));
#455=CARTESIAN_POINT('Ctrl Pts',(-1.64999999999893,0.577350269190089,-1.));
#456=CARTESIAN_POINT('Origin',(-0.61,-0.577350269189626,1.));
#457=CARTESIAN_POINT('',(-0.61,-0.577350269189626,1.));
#458=CARTESIAN_POINT('',(-1.65,-0.577350269189626,1.));
#459=CARTESIAN_POINT('',(-0.61,-0.577350269189626,1.));
#460=CARTESIAN_POINT('',(-0.61,-1.15470053837925,-2.168404E-16));
#461=CARTESIAN_POINT('',(-0.61,-0.577350269189626,1.));
#462=CARTESIAN_POINT('',(-1.65,-1.15470053837925,-2.168404E-16));
#463=CARTESIAN_POINT('',(-0.61,-1.15470053837925,-2.168404E-16));
#464=CARTESIAN_POINT('Ctrl Pts',(-1.64999999999893,-0.577350269189395,1.0000000000004));
#465=CARTESIAN_POINT('Ctrl Pts',(-1.36132486540519,-0.866025403784438,0.500000000000001));
#466=CARTESIAN_POINT('Ctrl Pts',(-1.64999999999893,-1.15470053837948,-3.9901558028243E-13));
#467=CARTESIAN_POINT('Origin',(-0.61,0.577350269189626,1.));
#468=CARTESIAN_POINT('',(-0.61,0.577350269189626,1.));
#469=CARTESIAN_POINT('Ctrl Pts',(-1.64999999999893,-0.577350269190088,1.));
#470=CARTESIAN_POINT('Ctrl Pts',(-1.36132486540519,4.16333634234434E-16,
1.));
#471=CARTESIAN_POINT('Ctrl Pts',(-1.64999999999893,0.577350269190089,1.));
#472=CARTESIAN_POINT('Origin',(0.3,0.,0.));
#473=CARTESIAN_POINT('',(0.3,0.,-1.5));
#474=CARTESIAN_POINT('',(0.3,-1.83697019872103E-16,1.5));
#475=CARTESIAN_POINT('Origin',(0.3,0.,0.));
#476=CARTESIAN_POINT('Origin',(0.3,0.,0.));
#477=CARTESIAN_POINT('',(5.60081E-17,0.,1.8));
#478=CARTESIAN_POINT('Origin',(0.3,-2.20436423846524E-16,1.8));
#479=CARTESIAN_POINT('Origin',(-5.421011E-17,0.,0.));
#480=CARTESIAN_POINT('Origin',(-500.090384757728,5.320012E-15,0.));
#481=CARTESIAN_POINT('',(-0.0903847616792319,5.320012E-15,0.));
#482=CARTESIAN_POINT('',(-0.610000002959268,0.899999998291321,-1.1021821171402E-16));
#483=CARTESIAN_POINT('',(-500.090384757728,866.0254037844,-1.06057523872486E-13));
#484=CARTESIAN_POINT('Origin',(-0.61,-5.53447E-18,-2.213788E-17));
#485=CARTESIAN_POINT('Origin',(-0.61,0.,0.));
#486=CARTESIAN_POINT('',(-0.61,-1.15470053837925,-2.171657E-16));
#487=CARTESIAN_POINT('Origin',(-1.49529946162024,-4.91E-17,0.));
#488=CARTESIAN_POINT('Origin',(-1.65,-4.91E-17,-2.844592E-16));
#489=CARTESIAN_POINT('Origin',(-1.49529946162024,-4.91E-17,0.));
#490=CARTESIAN_POINT('Origin',(-1.65,-1.010334E-16,0.));
#491=CARTESIAN_POINT('Origin',(-1.49529946162024,-4.91E-17,0.));
#492=CARTESIAN_POINT('Origin',(-1.65,-4.91E-17,-2.844592E-16));
#493=CARTESIAN_POINT('Origin',(4.592425E-17,0.,1.5));
#494=CARTESIAN_POINT('',(0.,2.4364489102637E-14,-2.85));
#495=CARTESIAN_POINT('Origin',(0.,0.,2.407412E-32));
#496=CARTESIAN_POINT('Origin',(-1.49529946162024,-4.91E-17,0.));
#497=CARTESIAN_POINT('Origin',(-1.65,-4.91E-17,-2.844592E-16));
#498=CARTESIAN_POINT('Origin',(-1.65,0.,2.85));
#499=CARTESIAN_POINT('',(-1.65,0.,-1.3));
#500=CARTESIAN_POINT('Origin',(-1.65,0.,1.981994E-16));
#501=CARTESIAN_POINT('Origin',(-1.65,-4.91E-17,-2.844592E-16));
#502=CARTESIAN_POINT('Origin',(-1.65,-4.91E-17,-2.844592E-16));
#503=CARTESIAN_POINT('Ctrl Pts',(3.41393580072236E-14,2.47135134403933E-14,
-2.85000000000001));
#504=CARTESIAN_POINT('Ctrl Pts',(-2.85215529454784E-14,-2.85000000000003,
-2.85000000000001));
#505=CARTESIAN_POINT('Ctrl Pts',(7.22311865392545E-14,-2.85000000000003,
4.46699860826081E-14));
#506=CARTESIAN_POINT('Ctrl Pts',(1.72983926023987E-13,-2.85000000000003,
2.8500000000001));
#507=CARTESIAN_POINT('Ctrl Pts',(2.35644836976689E-13,2.47135134403932E-14,
2.8500000000001));
#508=CARTESIAN_POINT('Ctrl Pts',(2.98305747929391E-13,2.85000000000008,
2.8500000000001));
#509=CARTESIAN_POINT('Ctrl Pts',(1.97553008444659E-13,2.85000000000008,
4.46699860826037E-14));
#510=CARTESIAN_POINT('Ctrl Pts',(9.68002689599255E-14,2.85000000000008,
-2.85000000000001));
#511=CARTESIAN_POINT('Ctrl Pts',(3.41393580072236E-14,2.47135134403933E-14,
-2.85000000000001));
#512=CARTESIAN_POINT('Ctrl Pts',(-1.07403169483177,4.83274798931073E-14,
-2.34009825578849));
#513=CARTESIAN_POINT('Ctrl Pts',(-1.07403169483182,-2.34009825578852,-2.34009825578849));
#514=CARTESIAN_POINT('Ctrl Pts',(-1.07403169483174,-2.34009825578852,8.26417195861517E-14));
#515=CARTESIAN_POINT('Ctrl Pts',(-1.07403169483166,-2.34009825578852,2.34009825578865));
#516=CARTESIAN_POINT('Ctrl Pts',(-1.07403169483161,4.83274798931073E-14,
2.34009825578865));
#517=CARTESIAN_POINT('Ctrl Pts',(-1.07403169483155,2.34009825578862,2.34009825578865));
#518=CARTESIAN_POINT('Ctrl Pts',(-1.07403169483164,2.34009825578862,8.26417195861481E-14));
#519=CARTESIAN_POINT('Ctrl Pts',(-1.07403169483172,2.34009825578862,-2.34009825578849));
#520=CARTESIAN_POINT('Ctrl Pts',(-1.07403169483177,4.83274798931073E-14,
-2.34009825578849));
#521=CARTESIAN_POINT('Ctrl Pts',(-1.65000000000012,6.09908829393299E-14,
-1.29999999999977));
#522=CARTESIAN_POINT('Ctrl Pts',(-1.65000000000015,-1.29999999999981,-1.29999999999977));
#523=CARTESIAN_POINT('Ctrl Pts',(-1.6500000000001,-1.29999999999981,1.03004726651568E-13));
#524=CARTESIAN_POINT('Ctrl Pts',(-1.65000000000006,-1.29999999999981,1.29999999999998));
#525=CARTESIAN_POINT('Ctrl Pts',(-1.65000000000003,6.09908829393299E-14,
1.29999999999998));
#526=CARTESIAN_POINT('Ctrl Pts',(-1.65,1.29999999999993,1.29999999999998));
#527=CARTESIAN_POINT('Ctrl Pts',(-1.65000000000005,1.29999999999993,1.03004726651566E-13));
#528=CARTESIAN_POINT('Ctrl Pts',(-1.65000000000009,1.29999999999993,-1.29999999999977));
#529=CARTESIAN_POINT('Ctrl Pts',(-1.65000000000012,6.09908829393299E-14,
-1.29999999999977));
#530=CARTESIAN_POINT('Origin',(1.58684159472561,-1.0114930357864E-14,0.492444278256294));
#531=CARTESIAN_POINT('Origin',(-1.65,0.,1.010334E-16));
#532=CARTESIAN_POINT('',(13.6935,1.83697019872103E-16,-1.5));
#533=CARTESIAN_POINT('Origin',(13.6935,0.,-8.38485E-16));
#534=CARTESIAN_POINT('',(-1.65,1.83697019872103E-16,-1.5));
#535=CARTESIAN_POINT('Origin',(14.,0.,-8.572528E-16));
#536=CARTESIAN_POINT('',(14.,-1.46161595478237E-16,-1.1935));
#537=CARTESIAN_POINT('',(14.,-1.46161595478237E-16,-1.1935));
#538=CARTESIAN_POINT('Origin',(14.,0.,-8.572528E-16));
#539=CARTESIAN_POINT('Origin',(14.,0.,-8.572528E-16));
#540=CARTESIAN_POINT('Origin',(-0.61,-1.15470053837925,-2.220446E-16));
#541=CARTESIAN_POINT('Ctrl Pts',(-1.64999999999893,-1.15470053837948,3.99735961888793E-13));
#542=CARTESIAN_POINT('Ctrl Pts',(-1.36132486540519,-0.866025403784438,-0.499999999999999));
#543=CARTESIAN_POINT('Ctrl Pts',(-1.64999999999893,-0.577350269189394,-1.0000000000004));
#544=CARTESIAN_POINT('Origin',(-1.49529946162024,-4.91E-17,0.));
#545=CARTESIAN_POINT('Origin',(-1.49529946162024,-4.91E-17,0.));
#546=UNCERTAINTY_MEASURE_WITH_UNIT(LENGTH_MEASURE(0.01),#550,
'DISTANCE_ACCURACY_VALUE',
'Maximum model space distance between geometric entities at asserted c
onnectivities');
#547=UNCERTAINTY_MEASURE_WITH_UNIT(LENGTH_MEASURE(0.01),#550,
'DISTANCE_ACCURACY_VALUE',
'Maximum model space distance between geometric entities at asserted c
onnectivities');
#548=(
GEOMETRIC_REPRESENTATION_CONTEXT(3)
GLOBAL_UNCERTAINTY_ASSIGNED_CONTEXT((#546))
GLOBAL_UNIT_ASSIGNED_CONTEXT((#550,#552,#553))
REPRESENTATION_CONTEXT('','3D')
);
#549=(
GEOMETRIC_REPRESENTATION_CONTEXT(3)
GLOBAL_UNCERTAINTY_ASSIGNED_CONTEXT((#547))
GLOBAL_UNIT_ASSIGNED_CONTEXT((#550,#552,#553))
REPRESENTATION_CONTEXT('','3D')
);
#550=(
LENGTH_UNIT()
NAMED_UNIT(*)
SI_UNIT(.MILLI.,.METRE.)
);
#551=(
LENGTH_UNIT()
NAMED_UNIT(*)
SI_UNIT($,.METRE.)
);
#552=(
NAMED_UNIT(*)
PLANE_ANGLE_UNIT()
SI_UNIT($,.RADIAN.)
);
#553=(
NAMED_UNIT(*)
SI_UNIT($,.STERADIAN.)
SOLID_ANGLE_UNIT()
);
#554=SHAPE_DEFINITION_REPRESENTATION(#555,#556);
#555=PRODUCT_DEFINITION_SHAPE('',$,#558);
#556=SHAPE_REPRESENTATION('',(#302),#548);
#557=PRODUCT_DEFINITION_CONTEXT('part definition',#562,'design');
#558=PRODUCT_DEFINITION('101147-2-3','MakerBeam_HINGE_AXE v1',#559,#557);
#559=PRODUCT_DEFINITION_FORMATION('',$,#564);
#560=PRODUCT_RELATED_PRODUCT_CATEGORY('MakerBeam_HINGE_AXE v1',
'MakerBeam_HINGE_AXE v1',(#564));
#561=APPLICATION_PROTOCOL_DEFINITION('international standard',
'automotive_design',2009,#562);
#562=APPLICATION_CONTEXT(
'Core Data for Automotive Mechanical Design Process');
#563=PRODUCT_CONTEXT('part definition',#562,'mechanical');
#564=PRODUCT('101147-2-3','MakerBeam_HINGE_AXE v1',$,(#563));
#565=PRESENTATION_STYLE_ASSIGNMENT((#567));
#566=PRESENTATION_STYLE_ASSIGNMENT((#568));
#567=SURFACE_STYLE_USAGE(.BOTH.,#569);
#568=SURFACE_STYLE_USAGE(.BOTH.,#570);
#569=SURFACE_SIDE_STYLE('',(#571));
#570=SURFACE_SIDE_STYLE('',(#572));
#571=SURFACE_STYLE_FILL_AREA(#573);
#572=SURFACE_STYLE_FILL_AREA(#574);
#573=FILL_AREA_STYLE('Acier - Satin\X\E9',(#575));
#574=FILL_AREA_STYLE('Opaque(176,176,176)',(#576));
#575=FILL_AREA_STYLE_COLOUR('Acier - Satin\X\E9',#577);
#576=FILL_AREA_STYLE_COLOUR('Opaque(176,176,176)',#578);
#577=COLOUR_RGB('Acier - Satin\X\E9',0.627450980392157,0.627450980392157,
0.627450980392157);
#578=COLOUR_RGB('Opaque(176,176,176)',0.690196078431373,0.690196078431373,
0.690196078431373);
ENDSEC;
END-ISO-10303-21;
