ISO-10303-21;
HEADER;
/* Generated by software containing ST-Developer
 * from STEP Tools, Inc. (www.steptools.com) 
 */

FILE_DESCRIPTION(
/* description */ (''),
/* implementation_level */ '2;1');

FILE_NAME(
/* name */ 'MakerBeam_HINGE_PIECE.step',
/* time_stamp */ '2026-08-10T14:32:33+02:00',
/* author */ (''),
/* organization */ (''),
/* preprocessor_version */ 'ST-DEVELOPER v20.1',
/* originating_system */ 'Autodesk Translation Framework v15.8.0.0',
/* authorisation */ '');

FILE_SCHEMA (('AUTOMOTIVE_DESIGN { 1 0 10303 214 3 1 1 }'));
ENDSEC;

DATA;
#10=MECHANICAL_DESIGN_GEOMETRIC_PRESENTATION_REPRESENTATION('',(#13),#430);
#11=SHAPE_REPRESENTATION_RELATIONSHIP('SRR','None',#437,#12);
#12=ADVANCED_BREP_SHAPE_REPRESENTATION('',(#14),#429);
#13=STYLED_ITEM('',(#447),#14);
#14=MANIFOLD_SOLID_BREP('Corps1',#254);
#15=FACE_BOUND('',#43,.T.);
#16=FACE_BOUND('',#45,.T.);
#17=FACE_BOUND('',#51,.T.);
#18=FACE_BOUND('',#57,.T.);
#19=PLANE('',#271);
#20=PLANE('',#273);
#21=PLANE('',#278);
#22=PLANE('',#281);
#23=PLANE('',#282);
#24=PLANE('',#283);
#25=PLANE('',#286);
#26=PLANE('',#287);
#27=PLANE('',#288);
#28=FACE_OUTER_BOUND('',#41,.T.);
#29=FACE_OUTER_BOUND('',#42,.T.);
#30=FACE_OUTER_BOUND('',#44,.T.);
#31=FACE_OUTER_BOUND('',#46,.T.);
#32=FACE_OUTER_BOUND('',#47,.T.);
#33=FACE_OUTER_BOUND('',#48,.T.);
#34=FACE_OUTER_BOUND('',#49,.T.);
#35=FACE_OUTER_BOUND('',#50,.T.);
#36=FACE_OUTER_BOUND('',#52,.T.);
#37=FACE_OUTER_BOUND('',#53,.T.);
#38=FACE_OUTER_BOUND('',#54,.T.);
#39=FACE_OUTER_BOUND('',#55,.T.);
#40=FACE_OUTER_BOUND('',#56,.T.);
#41=EDGE_LOOP('',(#171,#172,#173,#174));
#42=EDGE_LOOP('',(#175,#176,#177,#178,#179,#180));
#43=EDGE_LOOP('',(#181));
#44=EDGE_LOOP('',(#182,#183,#184,#185,#186,#187,#188));
#45=EDGE_LOOP('',(#189));
#46=EDGE_LOOP('',(#190,#191,#192,#193));
#47=EDGE_LOOP('',(#194,#195,#196,#197));
#48=EDGE_LOOP('',(#198,#199,#200,#201));
#49=EDGE_LOOP('',(#202,#203,#204,#205));
#50=EDGE_LOOP('',(#206,#207,#208,#209,#210,#211,#212));
#51=EDGE_LOOP('',(#213));
#52=EDGE_LOOP('',(#214,#215,#216,#217));
#53=EDGE_LOOP('',(#218,#219,#220,#221));
#54=EDGE_LOOP('',(#222,#223,#224,#225));
#55=EDGE_LOOP('',(#226,#227,#228,#229));
#56=EDGE_LOOP('',(#230,#231,#232,#233,#234,#235));
#57=EDGE_LOOP('',(#236));
#58=LINE('',#364,#83);
#59=LINE('',#367,#84);
#60=LINE('',#370,#85);
#61=LINE('',#372,#86);
#62=LINE('',#374,#87);
#63=LINE('',#376,#88);
#64=LINE('',#377,#89);
#65=LINE('',#382,#90);
#66=LINE('',#386,#91);
#67=LINE('',#388,#92);
#68=LINE('',#389,#93);
#69=LINE('',#394,#94);
#70=LINE('',#397,#95);
#71=LINE('',#399,#96);
#72=LINE('',#403,#97);
#73=LINE('',#406,#98);
#74=LINE('',#407,#99);
#75=LINE('',#410,#100);
#76=LINE('',#411,#101);
#77=LINE('',#414,#102);
#78=LINE('',#415,#103);
#79=LINE('',#418,#104);
#80=LINE('',#422,#105);
#81=LINE('',#423,#106);
#82=LINE('',#425,#107);
#83=VECTOR('',#295,5.);
#84=VECTOR('',#298,5.);
#85=VECTOR('',#301,15.);
#86=VECTOR('',#302,10.);
#87=VECTOR('',#303,10.);
#88=VECTOR('',#304,5.);
#89=VECTOR('',#305,5.);
#90=VECTOR('',#310,3.57071421427142);
#91=VECTOR('',#313,3.);
#92=VECTOR('',#314,11.5);
#93=VECTOR('',#315,2.);
#94=VECTOR('',#320,5.);
#95=VECTOR('',#323,5.);
#96=VECTOR('',#326,3.57071421427142);
#97=VECTOR('',#331,1.5);
#98=VECTOR('',#334,3.);
#99=VECTOR('',#335,5.);
#100=VECTOR('',#338,2.);
#101=VECTOR('',#339,1.5);
#102=VECTOR('',#342,2.);
#103=VECTOR('',#343,5.);
#104=VECTOR('',#346,1.5);
#105=VECTOR('',#351,10.);
#106=VECTOR('',#352,2.);
#107=VECTOR('',#355,10.);
#108=CIRCLE('',#269,5.);
#109=CIRCLE('',#270,5.);
#110=CIRCLE('',#272,1.5);
#111=CIRCLE('',#274,3.5);
#112=CIRCLE('',#275,1.5);
#113=CIRCLE('',#277,3.5);
#114=CIRCLE('',#280,1.5);
#115=CIRCLE('',#285,1.5);
#116=VERTEX_POINT('',#360);
#117=VERTEX_POINT('',#361);
#118=VERTEX_POINT('',#363);
#119=VERTEX_POINT('',#365);
#120=VERTEX_POINT('',#369);
#121=VERTEX_POINT('',#371);
#122=VERTEX_POINT('',#373);
#123=VERTEX_POINT('',#375);
#124=VERTEX_POINT('',#378);
#125=VERTEX_POINT('',#381);
#126=VERTEX_POINT('',#383);
#127=VERTEX_POINT('',#385);
#128=VERTEX_POINT('',#387);
#129=VERTEX_POINT('',#390);
#130=VERTEX_POINT('',#393);
#131=VERTEX_POINT('',#395);
#132=VERTEX_POINT('',#401);
#133=VERTEX_POINT('',#405);
#134=VERTEX_POINT('',#409);
#135=VERTEX_POINT('',#413);
#136=VERTEX_POINT('',#417);
#137=VERTEX_POINT('',#421);
#138=EDGE_CURVE('',#116,#117,#108,.T.);
#139=EDGE_CURVE('',#116,#118,#58,.T.);
#140=EDGE_CURVE('',#119,#118,#109,.T.);
#141=EDGE_CURVE('',#117,#119,#59,.T.);
#142=EDGE_CURVE('',#116,#120,#60,.T.);
#143=EDGE_CURVE('',#120,#121,#61,.T.);
#144=EDGE_CURVE('',#121,#122,#62,.T.);
#145=EDGE_CURVE('',#122,#123,#63,.T.);
#146=EDGE_CURVE('',#123,#118,#64,.T.);
#147=EDGE_CURVE('',#124,#124,#110,.T.);
#148=EDGE_CURVE('',#125,#117,#65,.T.);
#149=EDGE_CURVE('',#126,#125,#111,.T.);
#150=EDGE_CURVE('',#127,#126,#66,.T.);
#151=EDGE_CURVE('',#127,#128,#67,.T.);
#152=EDGE_CURVE('',#120,#128,#68,.T.);
#153=EDGE_CURVE('',#129,#129,#112,.T.);
#154=EDGE_CURVE('',#130,#125,#69,.T.);
#155=EDGE_CURVE('',#130,#131,#113,.T.);
#156=EDGE_CURVE('',#131,#126,#70,.T.);
#157=EDGE_CURVE('',#119,#130,#71,.T.);
#158=EDGE_CURVE('',#132,#132,#114,.T.);
#159=EDGE_CURVE('',#132,#129,#72,.T.);
#160=EDGE_CURVE('',#131,#133,#73,.T.);
#161=EDGE_CURVE('',#133,#127,#74,.T.);
#162=EDGE_CURVE('',#134,#123,#75,.T.);
#163=EDGE_CURVE('',#133,#134,#76,.T.);
#164=EDGE_CURVE('',#122,#135,#77,.T.);
#165=EDGE_CURVE('',#135,#134,#78,.T.);
#166=EDGE_CURVE('',#124,#136,#79,.T.);
#167=EDGE_CURVE('',#136,#136,#115,.T.);
#168=EDGE_CURVE('',#128,#137,#80,.T.);
#169=EDGE_CURVE('',#121,#137,#81,.T.);
#170=EDGE_CURVE('',#137,#135,#82,.T.);
#171=ORIENTED_EDGE('',*,*,#138,.F.);
#172=ORIENTED_EDGE('',*,*,#139,.T.);
#173=ORIENTED_EDGE('',*,*,#140,.F.);
#174=ORIENTED_EDGE('',*,*,#141,.F.);
#175=ORIENTED_EDGE('',*,*,#139,.F.);
#176=ORIENTED_EDGE('',*,*,#142,.T.);
#177=ORIENTED_EDGE('',*,*,#143,.T.);
#178=ORIENTED_EDGE('',*,*,#144,.T.);
#179=ORIENTED_EDGE('',*,*,#145,.T.);
#180=ORIENTED_EDGE('',*,*,#146,.T.);
#181=ORIENTED_EDGE('',*,*,#147,.T.);
#182=ORIENTED_EDGE('',*,*,#138,.T.);
#183=ORIENTED_EDGE('',*,*,#148,.F.);
#184=ORIENTED_EDGE('',*,*,#149,.F.);
#185=ORIENTED_EDGE('',*,*,#150,.F.);
#186=ORIENTED_EDGE('',*,*,#151,.T.);
#187=ORIENTED_EDGE('',*,*,#152,.F.);
#188=ORIENTED_EDGE('',*,*,#142,.F.);
#189=ORIENTED_EDGE('',*,*,#153,.F.);
#190=ORIENTED_EDGE('',*,*,#149,.T.);
#191=ORIENTED_EDGE('',*,*,#154,.F.);
#192=ORIENTED_EDGE('',*,*,#155,.T.);
#193=ORIENTED_EDGE('',*,*,#156,.T.);
#194=ORIENTED_EDGE('',*,*,#141,.T.);
#195=ORIENTED_EDGE('',*,*,#157,.T.);
#196=ORIENTED_EDGE('',*,*,#154,.T.);
#197=ORIENTED_EDGE('',*,*,#148,.T.);
#198=ORIENTED_EDGE('',*,*,#158,.F.);
#199=ORIENTED_EDGE('',*,*,#159,.T.);
#200=ORIENTED_EDGE('',*,*,#153,.T.);
#201=ORIENTED_EDGE('',*,*,#159,.F.);
#202=ORIENTED_EDGE('',*,*,#150,.T.);
#203=ORIENTED_EDGE('',*,*,#156,.F.);
#204=ORIENTED_EDGE('',*,*,#160,.T.);
#205=ORIENTED_EDGE('',*,*,#161,.T.);
#206=ORIENTED_EDGE('',*,*,#140,.T.);
#207=ORIENTED_EDGE('',*,*,#146,.F.);
#208=ORIENTED_EDGE('',*,*,#162,.F.);
#209=ORIENTED_EDGE('',*,*,#163,.F.);
#210=ORIENTED_EDGE('',*,*,#160,.F.);
#211=ORIENTED_EDGE('',*,*,#155,.F.);
#212=ORIENTED_EDGE('',*,*,#157,.F.);
#213=ORIENTED_EDGE('',*,*,#158,.T.);
#214=ORIENTED_EDGE('',*,*,#162,.T.);
#215=ORIENTED_EDGE('',*,*,#145,.F.);
#216=ORIENTED_EDGE('',*,*,#164,.T.);
#217=ORIENTED_EDGE('',*,*,#165,.T.);
#218=ORIENTED_EDGE('',*,*,#147,.F.);
#219=ORIENTED_EDGE('',*,*,#166,.T.);
#220=ORIENTED_EDGE('',*,*,#167,.F.);
#221=ORIENTED_EDGE('',*,*,#166,.F.);
#222=ORIENTED_EDGE('',*,*,#168,.T.);
#223=ORIENTED_EDGE('',*,*,#169,.F.);
#224=ORIENTED_EDGE('',*,*,#143,.F.);
#225=ORIENTED_EDGE('',*,*,#152,.T.);
#226=ORIENTED_EDGE('',*,*,#170,.T.);
#227=ORIENTED_EDGE('',*,*,#164,.F.);
#228=ORIENTED_EDGE('',*,*,#144,.F.);
#229=ORIENTED_EDGE('',*,*,#169,.T.);
#230=ORIENTED_EDGE('',*,*,#168,.F.);
#231=ORIENTED_EDGE('',*,*,#151,.F.);
#232=ORIENTED_EDGE('',*,*,#161,.F.);
#233=ORIENTED_EDGE('',*,*,#163,.T.);
#234=ORIENTED_EDGE('',*,*,#165,.F.);
#235=ORIENTED_EDGE('',*,*,#170,.F.);
#236=ORIENTED_EDGE('',*,*,#167,.T.);
#237=CYLINDRICAL_SURFACE('',#268,5.);
#238=CYLINDRICAL_SURFACE('',#276,3.5);
#239=CYLINDRICAL_SURFACE('',#279,1.5);
#240=CYLINDRICAL_SURFACE('',#284,1.5);
#241=ADVANCED_FACE('',(#28),#237,.T.);
#242=ADVANCED_FACE('',(#29,#15),#19,.F.);
#243=ADVANCED_FACE('',(#30,#16),#20,.T.);
#244=ADVANCED_FACE('',(#31),#238,.T.);
#245=ADVANCED_FACE('',(#32),#21,.T.);
#246=ADVANCED_FACE('',(#33),#239,.F.);
#247=ADVANCED_FACE('',(#34),#22,.T.);
#248=ADVANCED_FACE('',(#35,#17),#23,.F.);
#249=ADVANCED_FACE('',(#36),#24,.T.);
#250=ADVANCED_FACE('',(#37),#240,.F.);
#251=ADVANCED_FACE('',(#38),#25,.T.);
#252=ADVANCED_FACE('',(#39),#26,.T.);
#253=ADVANCED_FACE('',(#40,#18),#27,.T.);
#254=CLOSED_SHELL('',(#241,#242,#243,#244,#245,#246,#247,#248,#249,#250,
#251,#252,#253));
#255=DERIVED_UNIT_ELEMENT(#257,1.);
#256=DERIVED_UNIT_ELEMENT(#432,-3.);
#257=(
MASS_UNIT()
NAMED_UNIT(*)
SI_UNIT(.KILO.,.GRAM.)
);
#258=DERIVED_UNIT((#255,#256));
#259=MEASURE_REPRESENTATION_ITEM('density measure',
POSITIVE_RATIO_MEASURE(7850.),#258);
#260=PROPERTY_DEFINITION_REPRESENTATION(#265,#262);
#261=PROPERTY_DEFINITION_REPRESENTATION(#266,#263);
#262=REPRESENTATION('material name',(#264),#429);
#263=REPRESENTATION('density',(#259),#429);
#264=DESCRIPTIVE_REPRESENTATION_ITEM('Acier','Acier');
#265=PROPERTY_DEFINITION('material property','material name',#439);
#266=PROPERTY_DEFINITION('material property','density of part',#439);
#267=AXIS2_PLACEMENT_3D('',#358,#289,#290);
#268=AXIS2_PLACEMENT_3D('',#359,#291,#292);
#269=AXIS2_PLACEMENT_3D('',#362,#293,#294);
#270=AXIS2_PLACEMENT_3D('',#366,#296,#297);
#271=AXIS2_PLACEMENT_3D('',#368,#299,#300);
#272=AXIS2_PLACEMENT_3D('',#379,#306,#307);
#273=AXIS2_PLACEMENT_3D('',#380,#308,#309);
#274=AXIS2_PLACEMENT_3D('',#384,#311,#312);
#275=AXIS2_PLACEMENT_3D('',#391,#316,#317);
#276=AXIS2_PLACEMENT_3D('',#392,#318,#319);
#277=AXIS2_PLACEMENT_3D('',#396,#321,#322);
#278=AXIS2_PLACEMENT_3D('',#398,#324,#325);
#279=AXIS2_PLACEMENT_3D('',#400,#327,#328);
#280=AXIS2_PLACEMENT_3D('',#402,#329,#330);
#281=AXIS2_PLACEMENT_3D('',#404,#332,#333);
#282=AXIS2_PLACEMENT_3D('',#408,#336,#337);
#283=AXIS2_PLACEMENT_3D('',#412,#340,#341);
#284=AXIS2_PLACEMENT_3D('',#416,#344,#345);
#285=AXIS2_PLACEMENT_3D('',#419,#347,#348);
#286=AXIS2_PLACEMENT_3D('',#420,#349,#350);
#287=AXIS2_PLACEMENT_3D('',#424,#353,#354);
#288=AXIS2_PLACEMENT_3D('',#426,#356,#357);
#289=DIRECTION('axis',(0.,0.,1.));
#290=DIRECTION('refdir',(1.,0.,0.));
#291=DIRECTION('center_axis',(0.,1.,0.));
#292=DIRECTION('ref_axis',(0.7,0.,0.714142842854285));
#293=DIRECTION('center_axis',(0.,1.,0.));
#294=DIRECTION('ref_axis',(0.7,0.,0.714142842854285));
#295=DIRECTION('',(0.,-1.,0.));
#296=DIRECTION('center_axis',(0.,-1.,0.));
#297=DIRECTION('ref_axis',(0.7,0.,0.714142842854285));
#298=DIRECTION('',(0.,-1.,0.));
#299=DIRECTION('center_axis',(0.,0.,1.));
#300=DIRECTION('ref_axis',(1.,0.,0.));
#301=DIRECTION('',(1.,0.,0.));
#302=DIRECTION('',(0.,-1.,0.));
#303=DIRECTION('',(-1.,0.,0.));
#304=DIRECTION('',(0.,1.,0.));
#305=DIRECTION('',(-1.,0.,0.));
#306=DIRECTION('center_axis',(0.,0.,1.));
#307=DIRECTION('ref_axis',(-1.,0.,0.));
#308=DIRECTION('center_axis',(0.,1.,0.));
#309=DIRECTION('ref_axis',(0.,0.,1.));
#310=DIRECTION('',(0.,0.,-1.));
#311=DIRECTION('center_axis',(0.,-1.,0.));
#312=DIRECTION('ref_axis',(-1.,0.,0.));
#313=DIRECTION('',(0.,0.,1.));
#314=DIRECTION('',(1.,0.,0.));
#315=DIRECTION('',(0.,0.,1.));
#316=DIRECTION('center_axis',(0.,1.,0.));
#317=DIRECTION('ref_axis',(1.,0.,0.));
#318=DIRECTION('center_axis',(0.,1.,0.));
#319=DIRECTION('ref_axis',(-1.,0.,0.));
#320=DIRECTION('',(0.,1.,0.));
#321=DIRECTION('center_axis',(0.,1.,0.));
#322=DIRECTION('ref_axis',(-1.,0.,0.));
#323=DIRECTION('',(0.,1.,0.));
#324=DIRECTION('center_axis',(-1.,0.,0.));
#325=DIRECTION('ref_axis',(0.,0.,1.));
#326=DIRECTION('',(0.,0.,1.));
#327=DIRECTION('center_axis',(0.,1.,0.));
#328=DIRECTION('ref_axis',(1.,0.,0.));
#329=DIRECTION('center_axis',(0.,1.,0.));
#330=DIRECTION('ref_axis',(1.,0.,0.));
#331=DIRECTION('',(0.,1.,0.));
#332=DIRECTION('center_axis',(1.,0.,0.));
#333=DIRECTION('ref_axis',(0.,0.,-1.));
#334=DIRECTION('',(0.,0.,-1.));
#335=DIRECTION('',(0.,1.,0.));
#336=DIRECTION('center_axis',(0.,1.,0.));
#337=DIRECTION('ref_axis',(0.,0.,1.));
#338=DIRECTION('',(0.,0.,-1.));
#339=DIRECTION('',(1.,0.,0.));
#340=DIRECTION('center_axis',(-1.,0.,0.));
#341=DIRECTION('ref_axis',(0.,0.,1.));
#342=DIRECTION('',(0.,0.,1.));
#343=DIRECTION('',(0.,1.,0.));
#344=DIRECTION('center_axis',(0.,0.,1.));
#345=DIRECTION('ref_axis',(-1.,0.,0.));
#346=DIRECTION('',(0.,0.,1.));
#347=DIRECTION('center_axis',(0.,0.,-1.));
#348=DIRECTION('ref_axis',(-1.,0.,0.));
#349=DIRECTION('center_axis',(1.,0.,0.));
#350=DIRECTION('ref_axis',(0.,0.,-1.));
#351=DIRECTION('',(0.,-1.,0.));
#352=DIRECTION('',(0.,0.,1.));
#353=DIRECTION('center_axis',(0.,-1.,0.));
#354=DIRECTION('ref_axis',(0.,0.,-1.));
#355=DIRECTION('',(-1.,0.,0.));
#356=DIRECTION('center_axis',(0.,0.,1.));
#357=DIRECTION('ref_axis',(1.,0.,0.));
#358=CARTESIAN_POINT('',(0.,0.,0.));
#359=CARTESIAN_POINT('Origin',(-10.,0.,5.));
#360=CARTESIAN_POINT('',(-10.,5.,0.));
#361=CARTESIAN_POINT('',(-13.5,5.,1.42928578572858));
#362=CARTESIAN_POINT('Origin',(-10.,5.,5.));
#363=CARTESIAN_POINT('',(-10.,0.,0.));
#364=CARTESIAN_POINT('',(-10.,5.,0.));
#365=CARTESIAN_POINT('',(-13.5,0.,1.42928578572858));
#366=CARTESIAN_POINT('Origin',(-10.,0.,5.));
#367=CARTESIAN_POINT('',(-13.5,5.,1.42928578572858));
#368=CARTESIAN_POINT('Origin',(-1.387779E-16,-6.308085E-17,0.));
#369=CARTESIAN_POINT('',(5.,5.,0.));
#370=CARTESIAN_POINT('',(-10.,5.,0.));
#371=CARTESIAN_POINT('',(5.,-5.,0.));
#372=CARTESIAN_POINT('',(5.,5.,0.));
#373=CARTESIAN_POINT('',(-5.,-5.,0.));
#374=CARTESIAN_POINT('',(5.,-5.,0.));
#375=CARTESIAN_POINT('',(-5.,0.,0.));
#376=CARTESIAN_POINT('',(-5.,-5.,0.));
#377=CARTESIAN_POINT('',(-5.,0.,0.));
#378=CARTESIAN_POINT('',(1.5,1.83697E-16,0.));
#379=CARTESIAN_POINT('Origin',(0.,0.,0.));
#380=CARTESIAN_POINT('Origin',(-5.,5.,0.));
#381=CARTESIAN_POINT('',(-13.5,5.,5.));
#382=CARTESIAN_POINT('',(-13.5,5.,5.));
#383=CARTESIAN_POINT('',(-6.5,5.,5.));
#384=CARTESIAN_POINT('Origin',(-10.,5.,5.));
#385=CARTESIAN_POINT('',(-6.5,5.,2.));
#386=CARTESIAN_POINT('',(-6.5,5.,2.));
#387=CARTESIAN_POINT('',(5.,5.,2.));
#388=CARTESIAN_POINT('',(-6.5,5.,2.));
#389=CARTESIAN_POINT('',(5.,5.,0.));
#390=CARTESIAN_POINT('',(-11.5,5.,5.));
#391=CARTESIAN_POINT('Origin',(-10.,5.,5.));
#392=CARTESIAN_POINT('Origin',(-10.,0.,5.));
#393=CARTESIAN_POINT('',(-13.5,0.,5.));
#394=CARTESIAN_POINT('',(-13.5,0.,5.));
#395=CARTESIAN_POINT('',(-6.5,0.,5.));
#396=CARTESIAN_POINT('Origin',(-10.,0.,5.));
#397=CARTESIAN_POINT('',(-6.5,0.,5.));
#398=CARTESIAN_POINT('Origin',(-13.5,0.,5.));
#399=CARTESIAN_POINT('',(-13.5,0.,1.42928578572858));
#400=CARTESIAN_POINT('Origin',(-10.,0.,5.));
#401=CARTESIAN_POINT('',(-11.5,0.,5.));
#402=CARTESIAN_POINT('Origin',(-10.,0.,5.));
#403=CARTESIAN_POINT('',(-11.5,0.,5.));
#404=CARTESIAN_POINT('Origin',(-6.5,0.,2.));
#405=CARTESIAN_POINT('',(-6.5,0.,2.));
#406=CARTESIAN_POINT('',(-6.5,0.,5.));
#407=CARTESIAN_POINT('',(-6.5,0.,2.));
#408=CARTESIAN_POINT('Origin',(-9.49186293972559,0.,1.96442987240468));
#409=CARTESIAN_POINT('',(-5.,0.,2.));
#410=CARTESIAN_POINT('',(-5.,0.,2.));
#411=CARTESIAN_POINT('',(-6.5,0.,2.));
#412=CARTESIAN_POINT('Origin',(-5.,-5.,0.));
#413=CARTESIAN_POINT('',(-5.,-5.,2.));
#414=CARTESIAN_POINT('',(-5.,-5.,0.));
#415=CARTESIAN_POINT('',(-5.,-5.,2.));
#416=CARTESIAN_POINT('Origin',(0.,0.,0.));
#417=CARTESIAN_POINT('',(1.5,1.83697E-16,2.));
#418=CARTESIAN_POINT('',(1.5,1.83697019872103E-16,0.));
#419=CARTESIAN_POINT('Origin',(0.,0.,2.));
#420=CARTESIAN_POINT('Origin',(5.,5.,0.));
#421=CARTESIAN_POINT('',(5.,-5.,2.));
#422=CARTESIAN_POINT('',(5.,5.,2.));
#423=CARTESIAN_POINT('',(5.,-5.,0.));
#424=CARTESIAN_POINT('Origin',(5.,-5.,0.));
#425=CARTESIAN_POINT('',(5.,-5.,2.));
#426=CARTESIAN_POINT('Origin',(0.,-7.569702E-17,2.));
#427=UNCERTAINTY_MEASURE_WITH_UNIT(LENGTH_MEASURE(0.01),#431,
'DISTANCE_ACCURACY_VALUE',
'Maximum model space distance between geometric entities at asserted c
onnectivities');
#428=UNCERTAINTY_MEASURE_WITH_UNIT(LENGTH_MEASURE(0.01),#431,
'DISTANCE_ACCURACY_VALUE',
'Maximum model space distance between geometric entities at asserted c
onnectivities');
#429=(
GEOMETRIC_REPRESENTATION_CONTEXT(3)
GLOBAL_UNCERTAINTY_ASSIGNED_CONTEXT((#427))
GLOBAL_UNIT_ASSIGNED_CONTEXT((#431,#433,#434))
REPRESENTATION_CONTEXT('','3D')
);
#430=(
GEOMETRIC_REPRESENTATION_CONTEXT(3)
GLOBAL_UNCERTAINTY_ASSIGNED_CONTEXT((#428))
GLOBAL_UNIT_ASSIGNED_CONTEXT((#431,#433,#434))
REPRESENTATION_CONTEXT('','3D')
);
#431=(
LENGTH_UNIT()
NAMED_UNIT(*)
SI_UNIT(.MILLI.,.METRE.)
);
#432=(
LENGTH_UNIT()
NAMED_UNIT(*)
SI_UNIT($,.METRE.)
);
#433=(
NAMED_UNIT(*)
PLANE_ANGLE_UNIT()
SI_UNIT($,.RADIAN.)
);
#434=(
NAMED_UNIT(*)
SI_UNIT($,.STERADIAN.)
SOLID_ANGLE_UNIT()
);
#435=SHAPE_DEFINITION_REPRESENTATION(#436,#437);
#436=PRODUCT_DEFINITION_SHAPE('',$,#439);
#437=SHAPE_REPRESENTATION('',(#267),#429);
#438=PRODUCT_DEFINITION_CONTEXT('part definition',#443,'design');
#439=PRODUCT_DEFINITION('101147-1-3','MakerBeam_HINGE_PIECE v1',#440,#438);
#440=PRODUCT_DEFINITION_FORMATION('',$,#445);
#441=PRODUCT_RELATED_PRODUCT_CATEGORY('MakerBeam_HINGE_PIECE v1',
'MakerBeam_HINGE_PIECE v1',(#445));
#442=APPLICATION_PROTOCOL_DEFINITION('international standard',
'automotive_design',2009,#443);
#443=APPLICATION_CONTEXT(
'Core Data for Automotive Mechanical Design Process');
#444=PRODUCT_CONTEXT('part definition',#443,'mechanical');
#445=PRODUCT('101147-1-3','MakerBeam_HINGE_PIECE v1',$,(#444));
#446=PRESENTATION_STYLE_ASSIGNMENT((#448));
#447=PRESENTATION_STYLE_ASSIGNMENT((#449));
#448=SURFACE_STYLE_USAGE(.BOTH.,#450);
#449=SURFACE_STYLE_USAGE(.BOTH.,#451);
#450=SURFACE_SIDE_STYLE('',(#452));
#451=SURFACE_SIDE_STYLE('',(#453));
#452=SURFACE_STYLE_FILL_AREA(#454);
#453=SURFACE_STYLE_FILL_AREA(#455);
#454=FILL_AREA_STYLE('Acier - Satin\X\E9',(#456));
#455=FILL_AREA_STYLE('Opaque(63,63,63)',(#457));
#456=FILL_AREA_STYLE_COLOUR('Acier - Satin\X\E9',#458);
#457=FILL_AREA_STYLE_COLOUR('Opaque(63,63,63)',#459);
#458=COLOUR_RGB('Acier - Satin\X\E9',0.627450980392157,0.627450980392157,
0.627450980392157);
#459=COLOUR_RGB('Opaque(63,63,63)',0.250980392156863,0.250980392156863,
0.250980392156863);
ENDSEC;
END-ISO-10303-21;
