ISO-10303-21;
HEADER;
/* Generated by software containing ST-Developer
 * from STEP Tools, Inc. (www.steptools.com) 
 */

FILE_DESCRIPTION(
/* description */ (''),
/* implementation_level */ '2;1');

FILE_NAME(
/* name */ 'NUT_M1.6.step',
/* time_stamp */ '2026-08-10T14:31:51+02:00',
/* author */ (''),
/* organization */ (''),
/* preprocessor_version */ 'ST-DEVELOPER v20.1',
/* originating_system */ 'Autodesk Translation Framework v15.8.0.0',
/* authorisation */ '');

FILE_SCHEMA (('AUTOMOTIVE_DESIGN { 1 0 10303 214 3 1 1 }'));
ENDSEC;

DATA;
#10=MECHANICAL_DESIGN_GEOMETRIC_PRESENTATION_REPRESENTATION('',(#13),#463);
#11=SHAPE_REPRESENTATION_RELATIONSHIP('SRR','None',#470,#12);
#12=ADVANCED_BREP_SHAPE_REPRESENTATION('',(#14),#462);
#13=STYLED_ITEM('',(#480),#14);
#14=MANIFOLD_SOLID_BREP('Corps1',#252);
#15=FACE_BOUND('',#72,.T.);
#16=FACE_BOUND('',#80,.T.);
#17=PLANE('',#271);
#18=PLANE('',#272);
#19=PLANE('',#273);
#20=PLANE('',#274);
#21=PLANE('',#287);
#22=PLANE('',#288);
#23=PLANE('',#289);
#24=PLANE('',#290);
#25=(
BOUNDED_CURVE()
B_SPLINE_CURVE(2,(#361,#362,#363),.UNSPECIFIED.,.F.,.F.)
B_SPLINE_CURVE_WITH_KNOTS((3,3),(0.0816606896261888,0.345796270817569),
 .UNSPECIFIED.)
CURVE()
GEOMETRIC_REPRESENTATION_ITEM()
RATIONAL_B_SPLINE_CURVE((1.14315498194299,1.3200016730991,1.14315498194579))
REPRESENTATION_ITEM('')
);
#26=(
BOUNDED_CURVE()
B_SPLINE_CURVE(2,(#365,#366,#367),.UNSPECIFIED.,.F.,.F.)
B_SPLINE_CURVE_WITH_KNOTS((3,3),(0.0816606896261888,0.345796270817569),
 .UNSPECIFIED.)
CURVE()
GEOMETRIC_REPRESENTATION_ITEM()
RATIONAL_B_SPLINE_CURVE((1.14315498194299,1.3200016730991,1.14315498194579))
REPRESENTATION_ITEM('')
);
#27=(
BOUNDED_CURVE()
B_SPLINE_CURVE(2,(#369,#370,#371),.UNSPECIFIED.,.F.,.F.)
B_SPLINE_CURVE_WITH_KNOTS((3,3),(0.0816606896261887,0.34579627081757),
 .UNSPECIFIED.)
CURVE()
GEOMETRIC_REPRESENTATION_ITEM()
RATIONAL_B_SPLINE_CURVE((1.14315498194299,1.3200016730991,1.14315498194579))
REPRESENTATION_ITEM('')
);
#28=(
BOUNDED_CURVE()
B_SPLINE_CURVE(2,(#376,#377,#378),.UNSPECIFIED.,.F.,.F.)
B_SPLINE_CURVE_WITH_KNOTS((3,3),(0.0816606896261888,0.34579627081757),
 .UNSPECIFIED.)
CURVE()
GEOMETRIC_REPRESENTATION_ITEM()
RATIONAL_B_SPLINE_CURVE((1.14315498194299,1.3200016730991,1.14315498194579))
REPRESENTATION_ITEM('')
);
#29=(
BOUNDED_CURVE()
B_SPLINE_CURVE(2,(#380,#381,#382),.UNSPECIFIED.,.F.,.F.)
B_SPLINE_CURVE_WITH_KNOTS((3,3),(0.0816606896261888,0.34579627081757),
 .UNSPECIFIED.)
CURVE()
GEOMETRIC_REPRESENTATION_ITEM()
RATIONAL_B_SPLINE_CURVE((1.14315498194299,1.3200016730991,1.14315498194579))
REPRESENTATION_ITEM('')
);
#30=(
BOUNDED_CURVE()
B_SPLINE_CURVE(2,(#383,#384,#385),.UNSPECIFIED.,.F.,.F.)
B_SPLINE_CURVE_WITH_KNOTS((3,3),(0.0816606896261888,0.34579627081757),
 .UNSPECIFIED.)
CURVE()
GEOMETRIC_REPRESENTATION_ITEM()
RATIONAL_B_SPLINE_CURVE((1.14315498194299,1.3200016730991,1.14315498194579))
REPRESENTATION_ITEM('')
);
#31=(
BOUNDED_CURVE()
B_SPLINE_CURVE(2,(#390,#391,#392),.UNSPECIFIED.,.F.,.F.)
B_SPLINE_CURVE_WITH_KNOTS((3,3),(0.220538324042452,0.350546824231005),
 .UNSPECIFIED.)
CURVE()
GEOMETRIC_REPRESENTATION_ITEM()
RATIONAL_B_SPLINE_CURVE((1.,1.06549544920626,1.05377107589458))
REPRESENTATION_ITEM('')
);
#32=(
BOUNDED_CURVE()
B_SPLINE_CURVE(2,(#394,#395,#396),.UNSPECIFIED.,.F.,.F.)
B_SPLINE_CURVE_WITH_KNOTS((3,3),(0.0905298238538984,0.220538324042452),
 .UNSPECIFIED.)
CURVE()
GEOMETRIC_REPRESENTATION_ITEM()
RATIONAL_B_SPLINE_CURVE((1.05377107589458,1.06549544920627,1.))
REPRESENTATION_ITEM('')
);
#33=(
BOUNDED_CURVE()
B_SPLINE_CURVE(2,(#402,#403,#404),.UNSPECIFIED.,.F.,.F.)
B_SPLINE_CURVE_WITH_KNOTS((3,3),(0.220538324042452,0.350546824231005),
 .UNSPECIFIED.)
CURVE()
GEOMETRIC_REPRESENTATION_ITEM()
RATIONAL_B_SPLINE_CURVE((1.,1.06549544920626,1.05377107589458))
REPRESENTATION_ITEM('')
);
#34=(
BOUNDED_CURVE()
B_SPLINE_CURVE(2,(#405,#406,#407),.UNSPECIFIED.,.F.,.F.)
B_SPLINE_CURVE_WITH_KNOTS((3,3),(0.0905298238538985,0.220538324042452),
 .UNSPECIFIED.)
CURVE()
GEOMETRIC_REPRESENTATION_ITEM()
RATIONAL_B_SPLINE_CURVE((1.05377107589458,1.06549544920626,1.))
REPRESENTATION_ITEM('')
);
#35=(
BOUNDED_CURVE()
B_SPLINE_CURVE(2,(#412,#413,#414),.UNSPECIFIED.,.F.,.F.)
B_SPLINE_CURVE_WITH_KNOTS((3,3),(0.220538324042452,0.350546824231005),
 .UNSPECIFIED.)
CURVE()
GEOMETRIC_REPRESENTATION_ITEM()
RATIONAL_B_SPLINE_CURVE((1.,1.06549544920626,1.05377107589458))
REPRESENTATION_ITEM('')
);
#36=(
BOUNDED_CURVE()
B_SPLINE_CURVE(2,(#415,#416,#417),.UNSPECIFIED.,.F.,.F.)
B_SPLINE_CURVE_WITH_KNOTS((3,3),(0.0905298238538984,0.220538324042452),
 .UNSPECIFIED.)
CURVE()
GEOMETRIC_REPRESENTATION_ITEM()
RATIONAL_B_SPLINE_CURVE((1.05377107589458,1.06549544920626,1.))
REPRESENTATION_ITEM('')
);
#37=(
BOUNDED_CURVE()
B_SPLINE_CURVE(2,(#422,#423,#424),.UNSPECIFIED.,.F.,.F.)
B_SPLINE_CURVE_WITH_KNOTS((3,3),(0.220538324042452,0.350546824231005),
 .UNSPECIFIED.)
CURVE()
GEOMETRIC_REPRESENTATION_ITEM()
RATIONAL_B_SPLINE_CURVE((1.,1.06549544920626,1.05377107589458))
REPRESENTATION_ITEM('')
);
#38=(
BOUNDED_CURVE()
B_SPLINE_CURVE(2,(#431,#432,#433),.UNSPECIFIED.,.F.,.F.)
B_SPLINE_CURVE_WITH_KNOTS((3,3),(0.0905298238538984,0.220538324042452),
 .UNSPECIFIED.)
CURVE()
GEOMETRIC_REPRESENTATION_ITEM()
RATIONAL_B_SPLINE_CURVE((1.05377107589458,1.06549544920626,1.))
REPRESENTATION_ITEM('')
);
#39=(
BOUNDED_CURVE()
B_SPLINE_CURVE(2,(#437,#438,#439),.UNSPECIFIED.,.F.,.F.)
B_SPLINE_CURVE_WITH_KNOTS((3,3),(0.220538324042452,0.350546824231005),
 .UNSPECIFIED.)
CURVE()
GEOMETRIC_REPRESENTATION_ITEM()
RATIONAL_B_SPLINE_CURVE((1.,1.06549544920626,1.05377107589458))
REPRESENTATION_ITEM('')
);
#40=(
BOUNDED_CURVE()
B_SPLINE_CURVE(2,(#441,#442,#443),.UNSPECIFIED.,.F.,.F.)
B_SPLINE_CURVE_WITH_KNOTS((3,3),(0.0905298238538983,0.220538324042452),
 .UNSPECIFIED.)
CURVE()
GEOMETRIC_REPRESENTATION_ITEM()
RATIONAL_B_SPLINE_CURVE((1.05377107589458,1.06549544920626,1.))
REPRESENTATION_ITEM('')
);
#41=(
BOUNDED_CURVE()
B_SPLINE_CURVE(2,(#447,#448,#449),.UNSPECIFIED.,.F.,.F.)
B_SPLINE_CURVE_WITH_KNOTS((3,3),(0.220538324042452,0.350546824231005),
 .UNSPECIFIED.)
CURVE()
GEOMETRIC_REPRESENTATION_ITEM()
RATIONAL_B_SPLINE_CURVE((1.,1.06549544920626,1.05377107589458))
REPRESENTATION_ITEM('')
);
#42=(
BOUNDED_CURVE()
B_SPLINE_CURVE(2,(#450,#451,#452),.UNSPECIFIED.,.F.,.F.)
B_SPLINE_CURVE_WITH_KNOTS((3,3),(0.0905298238538984,0.220538324042452),
 .UNSPECIFIED.)
CURVE()
GEOMETRIC_REPRESENTATION_ITEM()
RATIONAL_B_SPLINE_CURVE((1.05377107589458,1.06549544920626,1.))
REPRESENTATION_ITEM('')
);
#43=CONICAL_SURFACE('',#269,1.59049529812307,0.523598775598299);
#44=CONICAL_SURFACE('',#275,1.6,0.523598775598299);
#45=CONICAL_SURFACE('',#277,1.6,0.523598775598299);
#46=CONICAL_SURFACE('',#279,1.6,0.523598775598299);
#47=CONICAL_SURFACE('',#281,1.6,0.523598775598299);
#48=CONICAL_SURFACE('',#283,1.6,0.523598775598299);
#49=CONICAL_SURFACE('',#285,1.6,0.523598775598299);
#50=FACE_OUTER_BOUND('',#66,.T.);
#51=FACE_OUTER_BOUND('',#67,.T.);
#52=FACE_OUTER_BOUND('',#68,.T.);
#53=FACE_OUTER_BOUND('',#69,.T.);
#54=FACE_OUTER_BOUND('',#70,.T.);
#55=FACE_OUTER_BOUND('',#71,.T.);
#56=FACE_OUTER_BOUND('',#73,.T.);
#57=FACE_OUTER_BOUND('',#74,.T.);
#58=FACE_OUTER_BOUND('',#75,.T.);
#59=FACE_OUTER_BOUND('',#76,.T.);
#60=FACE_OUTER_BOUND('',#77,.T.);
#61=FACE_OUTER_BOUND('',#78,.T.);
#62=FACE_OUTER_BOUND('',#79,.T.);
#63=FACE_OUTER_BOUND('',#81,.T.);
#64=FACE_OUTER_BOUND('',#82,.T.);
#65=FACE_OUTER_BOUND('',#83,.T.);
#66=EDGE_LOOP('',(#165,#166,#167,#168));
#67=EDGE_LOOP('',(#169,#170,#171,#172,#173,#174,#175,#176,#177));
#68=EDGE_LOOP('',(#178,#179,#180,#181,#182));
#69=EDGE_LOOP('',(#183,#184,#185,#186,#187));
#70=EDGE_LOOP('',(#188,#189,#190,#191,#192));
#71=EDGE_LOOP('',(#193));
#72=EDGE_LOOP('',(#194));
#73=EDGE_LOOP('',(#195,#196,#197));
#74=EDGE_LOOP('',(#198,#199,#200));
#75=EDGE_LOOP('',(#201,#202,#203));
#76=EDGE_LOOP('',(#204,#205,#206));
#77=EDGE_LOOP('',(#207,#208,#209));
#78=EDGE_LOOP('',(#210,#211,#212));
#79=EDGE_LOOP('',(#213,#214,#215,#216,#217,#218));
#80=EDGE_LOOP('',(#219));
#81=EDGE_LOOP('',(#220,#221,#222,#223,#224));
#82=EDGE_LOOP('',(#225,#226,#227,#228,#229));
#83=EDGE_LOOP('',(#230,#231,#232,#233,#234));
#84=LINE('',#356,#92);
#85=LINE('',#373,#93);
#86=LINE('',#388,#94);
#87=LINE('',#397,#95);
#88=LINE('',#400,#96);
#89=LINE('',#410,#97);
#90=LINE('',#456,#98);
#91=LINE('',#458,#99);
#92=VECTOR('',#297,0.8);
#93=VECTOR('',#302,1.59049529812307);
#94=VECTOR('',#307,10.);
#95=VECTOR('',#308,10.);
#96=VECTOR('',#311,10.);
#97=VECTOR('',#314,10.);
#98=VECTOR('',#345,10.);
#99=VECTOR('',#348,10.);
#100=CIRCLE('',#267,0.8);
#101=CIRCLE('',#268,0.8);
#102=CIRCLE('',#270,1.59049529812307);
#103=CIRCLE('',#276,1.6);
#104=CIRCLE('',#278,1.6);
#105=CIRCLE('',#280,1.6);
#106=CIRCLE('',#282,1.6);
#107=CIRCLE('',#284,1.6);
#108=CIRCLE('',#286,1.6);
#109=VERTEX_POINT('',#353);
#110=VERTEX_POINT('',#355);
#111=VERTEX_POINT('',#359);
#112=VERTEX_POINT('',#360);
#113=VERTEX_POINT('',#364);
#114=VERTEX_POINT('',#368);
#115=VERTEX_POINT('',#372);
#116=VERTEX_POINT('',#375);
#117=VERTEX_POINT('',#379);
#118=VERTEX_POINT('',#387);
#119=VERTEX_POINT('',#389);
#120=VERTEX_POINT('',#393);
#121=VERTEX_POINT('',#399);
#122=VERTEX_POINT('',#401);
#123=VERTEX_POINT('',#409);
#124=VERTEX_POINT('',#411);
#125=VERTEX_POINT('',#420);
#126=VERTEX_POINT('',#430);
#127=VERTEX_POINT('',#436);
#128=VERTEX_POINT('',#440);
#129=VERTEX_POINT('',#446);
#130=EDGE_CURVE('',#109,#109,#100,.T.);
#131=EDGE_CURVE('',#109,#110,#84,.T.);
#132=EDGE_CURVE('',#110,#110,#101,.T.);
#133=EDGE_CURVE('',#111,#112,#25,.T.);
#134=EDGE_CURVE('',#112,#113,#26,.T.);
#135=EDGE_CURVE('',#113,#114,#27,.T.);
#136=EDGE_CURVE('',#114,#115,#85,.T.);
#137=EDGE_CURVE('',#115,#115,#102,.T.);
#138=EDGE_CURVE('',#114,#116,#28,.T.);
#139=EDGE_CURVE('',#116,#117,#29,.T.);
#140=EDGE_CURVE('',#117,#111,#30,.T.);
#141=EDGE_CURVE('',#113,#118,#86,.T.);
#142=EDGE_CURVE('',#119,#118,#31,.T.);
#143=EDGE_CURVE('',#120,#119,#32,.T.);
#144=EDGE_CURVE('',#120,#114,#87,.T.);
#145=EDGE_CURVE('',#112,#121,#88,.T.);
#146=EDGE_CURVE('',#122,#121,#33,.T.);
#147=EDGE_CURVE('',#118,#122,#34,.T.);
#148=EDGE_CURVE('',#111,#123,#89,.T.);
#149=EDGE_CURVE('',#124,#123,#35,.T.);
#150=EDGE_CURVE('',#121,#124,#36,.T.);
#151=EDGE_CURVE('',#119,#125,#103,.T.);
#152=EDGE_CURVE('',#125,#120,#37,.T.);
#153=EDGE_CURVE('',#122,#119,#104,.T.);
#154=EDGE_CURVE('',#124,#122,#105,.T.);
#155=EDGE_CURVE('',#123,#126,#38,.T.);
#156=EDGE_CURVE('',#126,#124,#106,.T.);
#157=EDGE_CURVE('',#126,#127,#39,.T.);
#158=EDGE_CURVE('',#127,#128,#40,.T.);
#159=EDGE_CURVE('',#128,#126,#107,.T.);
#160=EDGE_CURVE('',#128,#129,#41,.T.);
#161=EDGE_CURVE('',#129,#125,#42,.T.);
#162=EDGE_CURVE('',#125,#128,#108,.T.);
#163=EDGE_CURVE('',#117,#127,#90,.T.);
#164=EDGE_CURVE('',#116,#129,#91,.T.);
#165=ORIENTED_EDGE('',*,*,#130,.F.);
#166=ORIENTED_EDGE('',*,*,#131,.T.);
#167=ORIENTED_EDGE('',*,*,#132,.F.);
#168=ORIENTED_EDGE('',*,*,#131,.F.);
#169=ORIENTED_EDGE('',*,*,#133,.T.);
#170=ORIENTED_EDGE('',*,*,#134,.T.);
#171=ORIENTED_EDGE('',*,*,#135,.T.);
#172=ORIENTED_EDGE('',*,*,#136,.T.);
#173=ORIENTED_EDGE('',*,*,#137,.T.);
#174=ORIENTED_EDGE('',*,*,#136,.F.);
#175=ORIENTED_EDGE('',*,*,#138,.T.);
#176=ORIENTED_EDGE('',*,*,#139,.T.);
#177=ORIENTED_EDGE('',*,*,#140,.T.);
#178=ORIENTED_EDGE('',*,*,#135,.F.);
#179=ORIENTED_EDGE('',*,*,#141,.T.);
#180=ORIENTED_EDGE('',*,*,#142,.F.);
#181=ORIENTED_EDGE('',*,*,#143,.F.);
#182=ORIENTED_EDGE('',*,*,#144,.T.);
#183=ORIENTED_EDGE('',*,*,#134,.F.);
#184=ORIENTED_EDGE('',*,*,#145,.T.);
#185=ORIENTED_EDGE('',*,*,#146,.F.);
#186=ORIENTED_EDGE('',*,*,#147,.F.);
#187=ORIENTED_EDGE('',*,*,#141,.F.);
#188=ORIENTED_EDGE('',*,*,#133,.F.);
#189=ORIENTED_EDGE('',*,*,#148,.T.);
#190=ORIENTED_EDGE('',*,*,#149,.F.);
#191=ORIENTED_EDGE('',*,*,#150,.F.);
#192=ORIENTED_EDGE('',*,*,#145,.F.);
#193=ORIENTED_EDGE('',*,*,#137,.F.);
#194=ORIENTED_EDGE('',*,*,#130,.T.);
#195=ORIENTED_EDGE('',*,*,#143,.T.);
#196=ORIENTED_EDGE('',*,*,#151,.T.);
#197=ORIENTED_EDGE('',*,*,#152,.T.);
#198=ORIENTED_EDGE('',*,*,#147,.T.);
#199=ORIENTED_EDGE('',*,*,#153,.T.);
#200=ORIENTED_EDGE('',*,*,#142,.T.);
#201=ORIENTED_EDGE('',*,*,#150,.T.);
#202=ORIENTED_EDGE('',*,*,#154,.T.);
#203=ORIENTED_EDGE('',*,*,#146,.T.);
#204=ORIENTED_EDGE('',*,*,#149,.T.);
#205=ORIENTED_EDGE('',*,*,#155,.T.);
#206=ORIENTED_EDGE('',*,*,#156,.T.);
#207=ORIENTED_EDGE('',*,*,#157,.T.);
#208=ORIENTED_EDGE('',*,*,#158,.T.);
#209=ORIENTED_EDGE('',*,*,#159,.T.);
#210=ORIENTED_EDGE('',*,*,#160,.T.);
#211=ORIENTED_EDGE('',*,*,#161,.T.);
#212=ORIENTED_EDGE('',*,*,#162,.T.);
#213=ORIENTED_EDGE('',*,*,#151,.F.);
#214=ORIENTED_EDGE('',*,*,#153,.F.);
#215=ORIENTED_EDGE('',*,*,#154,.F.);
#216=ORIENTED_EDGE('',*,*,#156,.F.);
#217=ORIENTED_EDGE('',*,*,#159,.F.);
#218=ORIENTED_EDGE('',*,*,#162,.F.);
#219=ORIENTED_EDGE('',*,*,#132,.T.);
#220=ORIENTED_EDGE('',*,*,#140,.F.);
#221=ORIENTED_EDGE('',*,*,#163,.T.);
#222=ORIENTED_EDGE('',*,*,#157,.F.);
#223=ORIENTED_EDGE('',*,*,#155,.F.);
#224=ORIENTED_EDGE('',*,*,#148,.F.);
#225=ORIENTED_EDGE('',*,*,#139,.F.);
#226=ORIENTED_EDGE('',*,*,#164,.T.);
#227=ORIENTED_EDGE('',*,*,#160,.F.);
#228=ORIENTED_EDGE('',*,*,#158,.F.);
#229=ORIENTED_EDGE('',*,*,#163,.F.);
#230=ORIENTED_EDGE('',*,*,#138,.F.);
#231=ORIENTED_EDGE('',*,*,#144,.F.);
#232=ORIENTED_EDGE('',*,*,#152,.F.);
#233=ORIENTED_EDGE('',*,*,#161,.F.);
#234=ORIENTED_EDGE('',*,*,#164,.F.);
#235=CYLINDRICAL_SURFACE('',#266,0.8);
#236=ADVANCED_FACE('',(#50),#235,.F.);
#237=ADVANCED_FACE('',(#51),#43,.T.);
#238=ADVANCED_FACE('',(#52),#17,.T.);
#239=ADVANCED_FACE('',(#53),#18,.T.);
#240=ADVANCED_FACE('',(#54),#19,.T.);
#241=ADVANCED_FACE('',(#55,#15),#20,.T.);
#242=ADVANCED_FACE('',(#56),#44,.T.);
#243=ADVANCED_FACE('',(#57),#45,.T.);
#244=ADVANCED_FACE('',(#58),#46,.T.);
#245=ADVANCED_FACE('',(#59),#47,.T.);
#246=ADVANCED_FACE('',(#60),#48,.T.);
#247=ADVANCED_FACE('',(#61),#49,.T.);
#248=ADVANCED_FACE('',(#62,#16),#21,.T.);
#249=ADVANCED_FACE('',(#63),#22,.T.);
#250=ADVANCED_FACE('',(#64),#23,.T.);
#251=ADVANCED_FACE('',(#65),#24,.T.);
#252=CLOSED_SHELL('',(#236,#237,#238,#239,#240,#241,#242,#243,#244,#245,
#246,#247,#248,#249,#250,#251));
#253=DERIVED_UNIT_ELEMENT(#255,1.);
#254=DERIVED_UNIT_ELEMENT(#465,-3.);
#255=(
MASS_UNIT()
NAMED_UNIT(*)
SI_UNIT(.KILO.,.GRAM.)
);
#256=DERIVED_UNIT((#253,#254));
#257=MEASURE_REPRESENTATION_ITEM('density measure',
POSITIVE_RATIO_MEASURE(1000.),#256);
#258=PROPERTY_DEFINITION_REPRESENTATION(#263,#260);
#259=PROPERTY_DEFINITION_REPRESENTATION(#264,#261);
#260=REPRESENTATION('material name',(#262),#462);
#261=REPRESENTATION('density',(#257),#462);
#262=DESCRIPTIVE_REPRESENTATION_ITEM('G\X\E9n\X\E9rique','G\X\E9n\X\E9
rique');
#263=PROPERTY_DEFINITION('material property','material name',#472);
#264=PROPERTY_DEFINITION('material property','density of part',#472);
#265=AXIS2_PLACEMENT_3D('',#351,#291,#292);
#266=AXIS2_PLACEMENT_3D('',#352,#293,#294);
#267=AXIS2_PLACEMENT_3D('',#354,#295,#296);
#268=AXIS2_PLACEMENT_3D('',#357,#298,#299);
#269=AXIS2_PLACEMENT_3D('',#358,#300,#301);
#270=AXIS2_PLACEMENT_3D('',#374,#303,#304);
#271=AXIS2_PLACEMENT_3D('',#386,#305,#306);
#272=AXIS2_PLACEMENT_3D('',#398,#309,#310);
#273=AXIS2_PLACEMENT_3D('',#408,#312,#313);
#274=AXIS2_PLACEMENT_3D('',#418,#315,#316);
#275=AXIS2_PLACEMENT_3D('',#419,#317,#318);
#276=AXIS2_PLACEMENT_3D('',#421,#319,#320);
#277=AXIS2_PLACEMENT_3D('',#425,#321,#322);
#278=AXIS2_PLACEMENT_3D('',#426,#323,#324);
#279=AXIS2_PLACEMENT_3D('',#427,#325,#326);
#280=AXIS2_PLACEMENT_3D('',#428,#327,#328);
#281=AXIS2_PLACEMENT_3D('',#429,#329,#330);
#282=AXIS2_PLACEMENT_3D('',#434,#331,#332);
#283=AXIS2_PLACEMENT_3D('',#435,#333,#334);
#284=AXIS2_PLACEMENT_3D('',#444,#335,#336);
#285=AXIS2_PLACEMENT_3D('',#445,#337,#338);
#286=AXIS2_PLACEMENT_3D('',#453,#339,#340);
#287=AXIS2_PLACEMENT_3D('',#454,#341,#342);
#288=AXIS2_PLACEMENT_3D('',#455,#343,#344);
#289=AXIS2_PLACEMENT_3D('',#457,#346,#347);
#290=AXIS2_PLACEMENT_3D('',#459,#349,#350);
#291=DIRECTION('axis',(0.,0.,1.));
#292=DIRECTION('refdir',(1.,0.,0.));
#293=DIRECTION('center_axis',(0.,-1.,0.));
#294=DIRECTION('ref_axis',(-1.,0.,0.));
#295=DIRECTION('center_axis',(0.,-1.,0.));
#296=DIRECTION('ref_axis',(-1.,0.,0.));
#297=DIRECTION('',(0.,-1.,0.));
#298=DIRECTION('center_axis',(0.,1.,0.));
#299=DIRECTION('ref_axis',(-1.,0.,0.));
#300=DIRECTION('center_axis',(0.,-1.,0.));
#301=DIRECTION('ref_axis',(-1.,0.,0.));
#302=DIRECTION('',(-0.5,0.866025403784439,-6.12323399573676E-17));
#303=DIRECTION('center_axis',(0.,-1.,0.));
#304=DIRECTION('ref_axis',(-1.,0.,0.));
#305=DIRECTION('center_axis',(0.86602540378444,0.,0.499999999999998));
#306=DIRECTION('ref_axis',(0.499999999999998,0.,-0.86602540378444));
#307=DIRECTION('',(0.,-1.,0.));
#308=DIRECTION('',(0.,1.,0.));
#309=DIRECTION('center_axis',(2.55393481785317E-15,0.,1.));
#310=DIRECTION('ref_axis',(1.,0.,-2.55393481785317E-15));
#311=DIRECTION('',(0.,-1.,0.));
#312=DIRECTION('center_axis',(-0.866025403784438,0.,0.500000000000002));
#313=DIRECTION('ref_axis',(0.500000000000002,0.,0.866025403784437));
#314=DIRECTION('',(0.,-1.,0.));
#315=DIRECTION('center_axis',(0.,1.,0.));
#316=DIRECTION('ref_axis',(0.,0.,1.));
#317=DIRECTION('center_axis',(0.,1.,0.));
#318=DIRECTION('ref_axis',(1.,0.,-2.09798136933558E-15));
#319=DIRECTION('center_axis',(0.,1.,0.));
#320=DIRECTION('ref_axis',(-1.,0.,0.));
#321=DIRECTION('center_axis',(0.,1.,0.));
#322=DIRECTION('ref_axis',(-1.,0.,0.));
#323=DIRECTION('center_axis',(0.,1.,0.));
#324=DIRECTION('ref_axis',(-1.,0.,0.));
#325=DIRECTION('center_axis',(0.,1.,0.));
#326=DIRECTION('ref_axis',(-1.,0.,0.));
#327=DIRECTION('center_axis',(0.,1.,0.));
#328=DIRECTION('ref_axis',(-1.,0.,0.));
#329=DIRECTION('center_axis',(0.,1.,0.));
#330=DIRECTION('ref_axis',(-1.,0.,0.));
#331=DIRECTION('center_axis',(0.,1.,0.));
#332=DIRECTION('ref_axis',(-1.,0.,0.));
#333=DIRECTION('center_axis',(0.,1.,0.));
#334=DIRECTION('ref_axis',(-1.,0.,0.));
#335=DIRECTION('center_axis',(0.,1.,0.));
#336=DIRECTION('ref_axis',(-1.,0.,0.));
#337=DIRECTION('center_axis',(0.,1.,0.));
#338=DIRECTION('ref_axis',(-1.,0.,0.));
#339=DIRECTION('center_axis',(0.,1.,0.));
#340=DIRECTION('ref_axis',(-1.,0.,0.));
#341=DIRECTION('center_axis',(0.,-1.,0.));
#342=DIRECTION('ref_axis',(0.,0.,-1.));
#343=DIRECTION('center_axis',(-0.86602540378444,0.,-0.499999999999998));
#344=DIRECTION('ref_axis',(-0.499999999999998,0.,0.86602540378444));
#345=DIRECTION('',(0.,-1.,0.));
#346=DIRECTION('center_axis',(-2.25347189810574E-15,0.,-1.));
#347=DIRECTION('ref_axis',(-1.,0.,2.25347189810574E-15));
#348=DIRECTION('',(0.,-1.,0.));
#349=DIRECTION('center_axis',(0.866025403784437,0.,-0.500000000000002));
#350=DIRECTION('ref_axis',(-0.500000000000002,0.,-0.866025403784437));
#351=CARTESIAN_POINT('',(0.,0.,0.));
#352=CARTESIAN_POINT('Origin',(0.,0.65,0.));
#353=CARTESIAN_POINT('',(0.8,0.65,-9.79717439317883E-17));
#354=CARTESIAN_POINT('Origin',(0.,0.65,0.));
#355=CARTESIAN_POINT('',(0.8,-0.65,-9.79717439317883E-17));
#356=CARTESIAN_POINT('',(0.8,0.65,9.79717439317883E-17));
#357=CARTESIAN_POINT('Origin',(0.,-0.65,0.));
#358=CARTESIAN_POINT('Origin',(0.,0.65,0.));
#359=CARTESIAN_POINT('',(-1.8475208614068,0.204818665548564,3.97887826875173E-15));
#360=CARTESIAN_POINT('',(-0.923760430703398,0.204818665548563,1.6));
#361=CARTESIAN_POINT('Ctrl Pts',(-1.8475208614068,0.204818665548564,3.97887826875173E-15));
#362=CARTESIAN_POINT('Ctrl Pts',(-1.38564064604983,1.00481866552848,0.800000000009134));
#363=CARTESIAN_POINT('Ctrl Pts',(-0.923760430703397,0.204818665548563,1.6));
#364=CARTESIAN_POINT('',(0.923760430703405,0.204818665548564,1.6));
#365=CARTESIAN_POINT('Ctrl Pts',(-0.923760430703398,0.204818665548563,1.6));
#366=CARTESIAN_POINT('Ctrl Pts',(1.05465636224267E-11,1.00481866552848,
1.6));
#367=CARTESIAN_POINT('Ctrl Pts',(0.923760430703405,0.204818665548564,1.6));
#368=CARTESIAN_POINT('',(1.8475208614068,0.204818665548564,-4.57034355197843E-15));
#369=CARTESIAN_POINT('Ctrl Pts',(0.923760430703405,0.204818665548564,1.6));
#370=CARTESIAN_POINT('Ctrl Pts',(1.38564064606037,1.00481866552848,0.799999999990867));
#371=CARTESIAN_POINT('Ctrl Pts',(1.8475208614068,0.204818665548564,-4.57034355197843E-15));
#372=CARTESIAN_POINT('',(1.59049529812307,0.65,-1.94779497590533E-16));
#373=CARTESIAN_POINT('',(1.59049529812307,0.65,1.94779497590533E-16));
#374=CARTESIAN_POINT('Origin',(0.,0.65,0.));
#375=CARTESIAN_POINT('',(0.923760430703398,0.204818665548563,-1.6));
#376=CARTESIAN_POINT('Ctrl Pts',(1.8475208614068,0.204818665548564,-4.57034355197843E-15));
#377=CARTESIAN_POINT('Ctrl Pts',(1.38564064604983,1.00481866552848,-0.800000000009133));
#378=CARTESIAN_POINT('Ctrl Pts',(0.923760430703398,0.204818665548563,-1.6));
#379=CARTESIAN_POINT('',(-0.923760430703405,0.204818665548564,-1.6));
#380=CARTESIAN_POINT('Ctrl Pts',(0.923760430703398,0.204818665548563,-1.6));
#381=CARTESIAN_POINT('Ctrl Pts',(-1.05460085109144E-11,1.00481866552848,
-1.6));
#382=CARTESIAN_POINT('Ctrl Pts',(-0.923760430703405,0.204818665548564,-1.6));
#383=CARTESIAN_POINT('Ctrl Pts',(-0.923760430703405,0.204818665548564,-1.6));
#384=CARTESIAN_POINT('Ctrl Pts',(-1.38564064606037,1.00481866552848,-0.799999999990867));
#385=CARTESIAN_POINT('Ctrl Pts',(-1.8475208614068,0.204818665548564,3.97887826875173E-15));
#386=CARTESIAN_POINT('Origin',(0.923760430703406,0.,1.6));
#387=CARTESIAN_POINT('',(0.923760430703405,-0.221281292110204,1.6));
#388=CARTESIAN_POINT('',(0.923760430703405,0.,1.6));
#389=CARTESIAN_POINT('',(1.3856406460551,-0.65,0.799999999999997));
#390=CARTESIAN_POINT('Ctrl Pts',(1.3856406460551,-0.65,0.799999999999996));
#391=CARTESIAN_POINT('Ctrl Pts',(1.17128129211019,-0.649999999999948,1.17128129211023));
#392=CARTESIAN_POINT('Ctrl Pts',(0.923760430703405,-0.221281292110204,1.6));
#393=CARTESIAN_POINT('',(1.8475208614068,-0.221281292110204,-4.57034355197843E-15));
#394=CARTESIAN_POINT('Ctrl Pts',(1.8475208614068,-0.221281292110204,-4.57034355197843E-15));
#395=CARTESIAN_POINT('Ctrl Pts',(1.60000000000002,-0.649999999999948,0.428718707889761));
#396=CARTESIAN_POINT('Ctrl Pts',(1.3856406460551,-0.65,0.799999999999996));
#397=CARTESIAN_POINT('',(1.8475208614068,0.,-4.57034355197843E-15));
#398=CARTESIAN_POINT('Origin',(-0.923760430703398,0.,1.6));
#399=CARTESIAN_POINT('',(-0.923760430703397,-0.221281292110204,1.6));
#400=CARTESIAN_POINT('',(-0.923760430703397,0.,1.6));
#401=CARTESIAN_POINT('',(4.09394740330527E-15,-0.65,1.6));
#402=CARTESIAN_POINT('Ctrl Pts',(4.09394740330526E-15,-0.65,1.6));
#403=CARTESIAN_POINT('Ctrl Pts',(-0.428718707889828,-0.649999999999949,
1.6));
#404=CARTESIAN_POINT('Ctrl Pts',(-0.923760430703397,-0.221281292110204,
1.6));
#405=CARTESIAN_POINT('Ctrl Pts',(0.923760430703405,-0.221281292110204,1.6));
#406=CARTESIAN_POINT('Ctrl Pts',(0.428718707889836,-0.649999999999948,1.6));
#407=CARTESIAN_POINT('Ctrl Pts',(4.09394740330526E-15,-0.65,1.6));
#408=CARTESIAN_POINT('Origin',(-1.8475208614068,0.,3.60822483003176E-15));
#409=CARTESIAN_POINT('',(-1.8475208614068,-0.221281292110204,3.97887826875173E-15));
#410=CARTESIAN_POINT('',(-1.8475208614068,0.,3.97887826875173E-15));
#411=CARTESIAN_POINT('',(-1.3856406460551,-0.65,0.800000000000003));
#412=CARTESIAN_POINT('Ctrl Pts',(-1.3856406460551,-0.649999999999999,0.800000000000003));
#413=CARTESIAN_POINT('Ctrl Pts',(-1.60000000000002,-0.649999999999948,0.428718707889769));
#414=CARTESIAN_POINT('Ctrl Pts',(-1.8475208614068,-0.221281292110204,3.97887826875173E-15));
#415=CARTESIAN_POINT('Ctrl Pts',(-0.923760430703397,-0.221281292110204,
1.6));
#416=CARTESIAN_POINT('Ctrl Pts',(-1.17128129211018,-0.649999999999948,1.17128129211024));
#417=CARTESIAN_POINT('Ctrl Pts',(-1.3856406460551,-0.649999999999999,0.800000000000003));
#418=CARTESIAN_POINT('Origin',(-2.77555756156289E-16,0.65,-4.69473312105364E-17));
#419=CARTESIAN_POINT('Origin',(0.,-0.65,0.));
#420=CARTESIAN_POINT('',(1.3856406460551,-0.65,-0.800000000000003));
#421=CARTESIAN_POINT('Origin',(0.,-0.65,0.));
#422=CARTESIAN_POINT('Ctrl Pts',(1.3856406460551,-0.65,-0.800000000000003));
#423=CARTESIAN_POINT('Ctrl Pts',(1.60000000000002,-0.649999999999948,-0.428718707889769));
#424=CARTESIAN_POINT('Ctrl Pts',(1.8475208614068,-0.221281292110204,-4.57034355197843E-15));
#425=CARTESIAN_POINT('Origin',(0.,-0.65,0.));
#426=CARTESIAN_POINT('Origin',(0.,-0.65,0.));
#427=CARTESIAN_POINT('Origin',(0.,-0.65,0.));
#428=CARTESIAN_POINT('Origin',(0.,-0.65,0.));
#429=CARTESIAN_POINT('Origin',(0.,-0.65,0.));
#430=CARTESIAN_POINT('',(-1.3856406460551,-0.65,-0.799999999999997));
#431=CARTESIAN_POINT('Ctrl Pts',(-1.8475208614068,-0.221281292110204,3.97887826875173E-15));
#432=CARTESIAN_POINT('Ctrl Pts',(-1.60000000000002,-0.649999999999948,-0.428718707889762));
#433=CARTESIAN_POINT('Ctrl Pts',(-1.3856406460551,-0.650000000000001,-0.799999999999997));
#434=CARTESIAN_POINT('Origin',(0.,-0.65,0.));
#435=CARTESIAN_POINT('Origin',(0.,-0.65,0.));
#436=CARTESIAN_POINT('',(-0.923760430703405,-0.221281292110204,-1.6));
#437=CARTESIAN_POINT('Ctrl Pts',(-1.3856406460551,-0.650000000000001,-0.799999999999997));
#438=CARTESIAN_POINT('Ctrl Pts',(-1.17128129211019,-0.649999999999949,-1.17128129211023));
#439=CARTESIAN_POINT('Ctrl Pts',(-0.923760430703405,-0.221281292110204,
-1.6));
#440=CARTESIAN_POINT('',(-3.60822483003176E-15,-0.65,-1.6));
#441=CARTESIAN_POINT('Ctrl Pts',(-0.923760430703405,-0.221281292110204,
-1.6));
#442=CARTESIAN_POINT('Ctrl Pts',(-0.428718707889836,-0.649999999999948,
-1.6));
#443=CARTESIAN_POINT('Ctrl Pts',(-3.60822483003176E-15,-0.65,-1.6));
#444=CARTESIAN_POINT('Origin',(0.,-0.65,0.));
#445=CARTESIAN_POINT('Origin',(0.,-0.65,0.));
#446=CARTESIAN_POINT('',(0.923760430703397,-0.221281292110204,-1.6));
#447=CARTESIAN_POINT('Ctrl Pts',(-3.60822483003176E-15,-0.65,-1.6));
#448=CARTESIAN_POINT('Ctrl Pts',(0.428718707889828,-0.649999999999948,-1.6));
#449=CARTESIAN_POINT('Ctrl Pts',(0.923760430703397,-0.221281292110204,-1.6));
#450=CARTESIAN_POINT('Ctrl Pts',(0.923760430703397,-0.221281292110204,-1.6));
#451=CARTESIAN_POINT('Ctrl Pts',(1.17128129211018,-0.649999999999949,-1.17128129211024));
#452=CARTESIAN_POINT('Ctrl Pts',(1.3856406460551,-0.65,-0.800000000000003));
#453=CARTESIAN_POINT('Origin',(0.,-0.65,0.));
#454=CARTESIAN_POINT('Origin',(-2.77555756156289E-16,-0.65,-4.69473312105364E-17));
#455=CARTESIAN_POINT('Origin',(-0.923760430703405,0.,-1.6));
#456=CARTESIAN_POINT('',(-0.923760430703405,0.,-1.6));
#457=CARTESIAN_POINT('Origin',(0.923760430703397,0.,-1.6));
#458=CARTESIAN_POINT('',(0.923760430703398,0.,-1.6));
#459=CARTESIAN_POINT('Origin',(1.8475208614068,0.,-4.44089209850063E-15));
#460=UNCERTAINTY_MEASURE_WITH_UNIT(LENGTH_MEASURE(0.01),#464,
'DISTANCE_ACCURACY_VALUE',
'Maximum model space distance between geometric entities at asserted c
onnectivities');
#461=UNCERTAINTY_MEASURE_WITH_UNIT(LENGTH_MEASURE(0.01),#464,
'DISTANCE_ACCURACY_VALUE',
'Maximum model space distance between geometric entities at asserted c
onnectivities');
#462=(
GEOMETRIC_REPRESENTATION_CONTEXT(3)
GLOBAL_UNCERTAINTY_ASSIGNED_CONTEXT((#460))
GLOBAL_UNIT_ASSIGNED_CONTEXT((#464,#466,#467))
REPRESENTATION_CONTEXT('','3D')
);
#463=(
GEOMETRIC_REPRESENTATION_CONTEXT(3)
GLOBAL_UNCERTAINTY_ASSIGNED_CONTEXT((#461))
GLOBAL_UNIT_ASSIGNED_CONTEXT((#464,#466,#467))
REPRESENTATION_CONTEXT('','3D')
);
#464=(
LENGTH_UNIT()
NAMED_UNIT(*)
SI_UNIT(.MILLI.,.METRE.)
);
#465=(
LENGTH_UNIT()
NAMED_UNIT(*)
SI_UNIT($,.METRE.)
);
#466=(
NAMED_UNIT(*)
PLANE_ANGLE_UNIT()
SI_UNIT($,.RADIAN.)
);
#467=(
NAMED_UNIT(*)
SI_UNIT($,.STERADIAN.)
SOLID_ANGLE_UNIT()
);
#468=SHAPE_DEFINITION_REPRESENTATION(#469,#470);
#469=PRODUCT_DEFINITION_SHAPE('',$,#472);
#470=SHAPE_REPRESENTATION('',(#265),#462);
#471=PRODUCT_DEFINITION_CONTEXT('part definition',#476,'design');
#472=PRODUCT_DEFINITION('Nut M1.6','NUT_M1.6 v1',#473,#471);
#473=PRODUCT_DEFINITION_FORMATION('',$,#478);
#474=PRODUCT_RELATED_PRODUCT_CATEGORY('NUT_M1.6 v1','NUT_M1.6 v1',(#478));
#475=APPLICATION_PROTOCOL_DEFINITION('international standard',
'automotive_design',2009,#476);
#476=APPLICATION_CONTEXT(
'Core Data for Automotive Mechanical Design Process');
#477=PRODUCT_CONTEXT('part definition',#476,'mechanical');
#478=PRODUCT('Nut M1.6','NUT_M1.6 v1',$,(#477));
#479=PRESENTATION_STYLE_ASSIGNMENT((#481));
#480=PRESENTATION_STYLE_ASSIGNMENT((#482));
#481=SURFACE_STYLE_USAGE(.BOTH.,#483);
#482=SURFACE_STYLE_USAGE(.BOTH.,#484);
#483=SURFACE_SIDE_STYLE('',(#485));
#484=SURFACE_SIDE_STYLE('',(#486));
#485=SURFACE_STYLE_FILL_AREA(#487);
#486=SURFACE_STYLE_FILL_AREA(#488);
#487=FILL_AREA_STYLE('Par d\X\E9faut',(#489));
#488=FILL_AREA_STYLE('Acier - Poli',(#490));
#489=FILL_AREA_STYLE_COLOUR('Par d\X\E9faut',#491);
#490=FILL_AREA_STYLE_COLOUR('Acier - Poli',#492);
#491=COLOUR_RGB('Par d\X\E9faut',0.749019607843137,0.749019607843137,0.749019607843137);
#492=COLOUR_RGB('Acier - Poli',0.,0.,0.);
ENDSEC;
END-ISO-10303-21;
