ISO-10303-21;
HEADER;
/* Generated by software containing ST-Developer
 * from STEP Tools, Inc. (www.steptools.com) 
 */

FILE_DESCRIPTION(
/* description */ (''),
/* implementation_level */ '2;1');

FILE_NAME(
/* name */ 'PLATE_HV_BOTTOM.step',
/* time_stamp */ '2026-08-10T14:32:51+02:00',
/* author */ (''),
/* organization */ (''),
/* preprocessor_version */ 'ST-DEVELOPER v20.1',
/* originating_system */ 'Autodesk Translation Framework v15.8.0.0',
/* authorisation */ '');

FILE_SCHEMA (('AUTOMOTIVE_DESIGN { 1 0 10303 214 3 1 1 }'));
ENDSEC;

DATA;
#10=MECHANICAL_DESIGN_GEOMETRIC_PRESENTATION_REPRESENTATION('',(#13),#1345);
#11=SHAPE_REPRESENTATION_RELATIONSHIP('SRR','None',#1352,#12);
#12=ADVANCED_BREP_SHAPE_REPRESENTATION('',(#14),#1344);
#13=STYLED_ITEM('',(#1362),#14);
#14=MANIFOLD_SOLID_BREP('Corps1',#837);
#15=FACE_BOUND('',#126,.T.);
#16=FACE_BOUND('',#127,.T.);
#17=FACE_BOUND('',#128,.T.);
#18=FACE_BOUND('',#129,.T.);
#19=FACE_BOUND('',#130,.T.);
#20=FACE_BOUND('',#131,.T.);
#21=FACE_BOUND('',#132,.T.);
#22=FACE_BOUND('',#134,.T.);
#23=FACE_BOUND('',#135,.T.);
#24=FACE_BOUND('',#136,.T.);
#25=FACE_BOUND('',#137,.T.);
#26=FACE_BOUND('',#138,.T.);
#27=FACE_BOUND('',#139,.T.);
#28=FACE_BOUND('',#140,.T.);
#29=CIRCLE('',#853,5.00000000000003);
#30=CIRCLE('',#854,5.00000000000003);
#31=CIRCLE('',#857,5.00000000000002);
#32=CIRCLE('',#858,5.00000000000002);
#33=CIRCLE('',#861,5.00000000000002);
#34=CIRCLE('',#862,5.00000000000002);
#35=CIRCLE('',#865,5.00000000000002);
#36=CIRCLE('',#866,5.00000000000002);
#37=CIRCLE('',#876,1.8);
#38=CIRCLE('',#877,1.8);
#39=CIRCLE('',#887,1.8);
#40=CIRCLE('',#888,1.8);
#41=CYLINDRICAL_SURFACE('',#852,5.00000000000003);
#42=CYLINDRICAL_SURFACE('',#856,5.00000000000002);
#43=CYLINDRICAL_SURFACE('',#860,5.00000000000002);
#44=CYLINDRICAL_SURFACE('',#864,5.00000000000002);
#45=CYLINDRICAL_SURFACE('',#875,1.8);
#46=CYLINDRICAL_SURFACE('',#886,1.8);
#47=FACE_OUTER_BOUND('',#87,.T.);
#48=FACE_OUTER_BOUND('',#88,.T.);
#49=FACE_OUTER_BOUND('',#89,.T.);
#50=FACE_OUTER_BOUND('',#90,.T.);
#51=FACE_OUTER_BOUND('',#91,.T.);
#52=FACE_OUTER_BOUND('',#92,.T.);
#53=FACE_OUTER_BOUND('',#93,.T.);
#54=FACE_OUTER_BOUND('',#94,.T.);
#55=FACE_OUTER_BOUND('',#95,.T.);
#56=FACE_OUTER_BOUND('',#96,.T.);
#57=FACE_OUTER_BOUND('',#97,.T.);
#58=FACE_OUTER_BOUND('',#98,.T.);
#59=FACE_OUTER_BOUND('',#99,.T.);
#60=FACE_OUTER_BOUND('',#100,.T.);
#61=FACE_OUTER_BOUND('',#101,.T.);
#62=FACE_OUTER_BOUND('',#102,.T.);
#63=FACE_OUTER_BOUND('',#103,.T.);
#64=FACE_OUTER_BOUND('',#104,.T.);
#65=FACE_OUTER_BOUND('',#105,.T.);
#66=FACE_OUTER_BOUND('',#106,.T.);
#67=FACE_OUTER_BOUND('',#107,.T.);
#68=FACE_OUTER_BOUND('',#108,.T.);
#69=FACE_OUTER_BOUND('',#109,.T.);
#70=FACE_OUTER_BOUND('',#110,.T.);
#71=FACE_OUTER_BOUND('',#111,.T.);
#72=FACE_OUTER_BOUND('',#112,.T.);
#73=FACE_OUTER_BOUND('',#113,.T.);
#74=FACE_OUTER_BOUND('',#114,.T.);
#75=FACE_OUTER_BOUND('',#115,.T.);
#76=FACE_OUTER_BOUND('',#116,.T.);
#77=FACE_OUTER_BOUND('',#117,.T.);
#78=FACE_OUTER_BOUND('',#118,.T.);
#79=FACE_OUTER_BOUND('',#119,.T.);
#80=FACE_OUTER_BOUND('',#120,.T.);
#81=FACE_OUTER_BOUND('',#121,.T.);
#82=FACE_OUTER_BOUND('',#122,.T.);
#83=FACE_OUTER_BOUND('',#123,.T.);
#84=FACE_OUTER_BOUND('',#124,.T.);
#85=FACE_OUTER_BOUND('',#125,.T.);
#86=FACE_OUTER_BOUND('',#133,.T.);
#87=EDGE_LOOP('',(#535,#536,#537,#538));
#88=EDGE_LOOP('',(#539,#540,#541,#542));
#89=EDGE_LOOP('',(#543,#544,#545,#546));
#90=EDGE_LOOP('',(#547,#548,#549,#550));
#91=EDGE_LOOP('',(#551,#552,#553,#554));
#92=EDGE_LOOP('',(#555,#556,#557,#558));
#93=EDGE_LOOP('',(#559,#560,#561,#562));
#94=EDGE_LOOP('',(#563,#564,#565,#566));
#95=EDGE_LOOP('',(#567,#568,#569,#570));
#96=EDGE_LOOP('',(#571,#572,#573,#574));
#97=EDGE_LOOP('',(#575,#576,#577,#578));
#98=EDGE_LOOP('',(#579,#580,#581,#582));
#99=EDGE_LOOP('',(#583,#584,#585,#586));
#100=EDGE_LOOP('',(#587,#588,#589,#590));
#101=EDGE_LOOP('',(#591,#592,#593,#594));
#102=EDGE_LOOP('',(#595,#596,#597,#598));
#103=EDGE_LOOP('',(#599,#600,#601,#602));
#104=EDGE_LOOP('',(#603,#604,#605,#606));
#105=EDGE_LOOP('',(#607,#608,#609,#610));
#106=EDGE_LOOP('',(#611,#612,#613,#614));
#107=EDGE_LOOP('',(#615,#616,#617,#618));
#108=EDGE_LOOP('',(#619,#620,#621,#622));
#109=EDGE_LOOP('',(#623,#624,#625,#626));
#110=EDGE_LOOP('',(#627,#628,#629,#630));
#111=EDGE_LOOP('',(#631,#632,#633,#634));
#112=EDGE_LOOP('',(#635,#636,#637,#638));
#113=EDGE_LOOP('',(#639,#640,#641,#642));
#114=EDGE_LOOP('',(#643,#644,#645,#646));
#115=EDGE_LOOP('',(#647,#648,#649,#650));
#116=EDGE_LOOP('',(#651,#652,#653,#654));
#117=EDGE_LOOP('',(#655,#656,#657,#658));
#118=EDGE_LOOP('',(#659,#660,#661,#662));
#119=EDGE_LOOP('',(#663,#664,#665,#666));
#120=EDGE_LOOP('',(#667,#668,#669,#670));
#121=EDGE_LOOP('',(#671,#672,#673,#674));
#122=EDGE_LOOP('',(#675,#676,#677,#678));
#123=EDGE_LOOP('',(#679,#680,#681,#682));
#124=EDGE_LOOP('',(#683,#684,#685,#686));
#125=EDGE_LOOP('',(#687,#688,#689,#690,#691,#692,#693,#694,#695,#696,#697,
#698));
#126=EDGE_LOOP('',(#699,#700,#701,#702,#703,#704,#705,#706));
#127=EDGE_LOOP('',(#707,#708,#709,#710));
#128=EDGE_LOOP('',(#711,#712,#713,#714));
#129=EDGE_LOOP('',(#715));
#130=EDGE_LOOP('',(#716,#717,#718,#719));
#131=EDGE_LOOP('',(#720,#721,#722,#723));
#132=EDGE_LOOP('',(#724));
#133=EDGE_LOOP('',(#725,#726,#727,#728,#729,#730,#731,#732,#733,#734,#735,
#736));
#134=EDGE_LOOP('',(#737,#738,#739,#740,#741,#742,#743,#744));
#135=EDGE_LOOP('',(#745,#746,#747,#748));
#136=EDGE_LOOP('',(#749,#750,#751,#752));
#137=EDGE_LOOP('',(#753));
#138=EDGE_LOOP('',(#754,#755,#756,#757));
#139=EDGE_LOOP('',(#758,#759,#760,#761));
#140=EDGE_LOOP('',(#762));
#141=LINE('',#1115,#243);
#142=LINE('',#1117,#244);
#143=LINE('',#1119,#245);
#144=LINE('',#1120,#246);
#145=LINE('',#1125,#247);
#146=LINE('',#1129,#248);
#147=LINE('',#1131,#249);
#148=LINE('',#1132,#250);
#149=LINE('',#1137,#251);
#150=LINE('',#1141,#252);
#151=LINE('',#1143,#253);
#152=LINE('',#1144,#254);
#153=LINE('',#1149,#255);
#154=LINE('',#1153,#256);
#155=LINE('',#1155,#257);
#156=LINE('',#1156,#258);
#157=LINE('',#1163,#259);
#158=LINE('',#1165,#260);
#159=LINE('',#1167,#261);
#160=LINE('',#1168,#262);
#161=LINE('',#1171,#263);
#162=LINE('',#1173,#264);
#163=LINE('',#1174,#265);
#164=LINE('',#1177,#266);
#165=LINE('',#1179,#267);
#166=LINE('',#1180,#268);
#167=LINE('',#1182,#269);
#168=LINE('',#1183,#270);
#169=LINE('',#1187,#271);
#170=LINE('',#1189,#272);
#171=LINE('',#1191,#273);
#172=LINE('',#1192,#274);
#173=LINE('',#1195,#275);
#174=LINE('',#1197,#276);
#175=LINE('',#1198,#277);
#176=LINE('',#1201,#278);
#177=LINE('',#1203,#279);
#178=LINE('',#1204,#280);
#179=LINE('',#1206,#281);
#180=LINE('',#1207,#282);
#181=LINE('',#1212,#283);
#182=LINE('',#1217,#284);
#183=LINE('',#1219,#285);
#184=LINE('',#1221,#286);
#185=LINE('',#1222,#287);
#186=LINE('',#1225,#288);
#187=LINE('',#1227,#289);
#188=LINE('',#1228,#290);
#189=LINE('',#1231,#291);
#190=LINE('',#1233,#292);
#191=LINE('',#1234,#293);
#192=LINE('',#1236,#294);
#193=LINE('',#1237,#295);
#194=LINE('',#1241,#296);
#195=LINE('',#1243,#297);
#196=LINE('',#1245,#298);
#197=LINE('',#1246,#299);
#198=LINE('',#1249,#300);
#199=LINE('',#1251,#301);
#200=LINE('',#1252,#302);
#201=LINE('',#1255,#303);
#202=LINE('',#1257,#304);
#203=LINE('',#1258,#305);
#204=LINE('',#1260,#306);
#205=LINE('',#1261,#307);
#206=LINE('',#1266,#308);
#207=LINE('',#1271,#309);
#208=LINE('',#1273,#310);
#209=LINE('',#1275,#311);
#210=LINE('',#1276,#312);
#211=LINE('',#1279,#313);
#212=LINE('',#1281,#314);
#213=LINE('',#1282,#315);
#214=LINE('',#1285,#316);
#215=LINE('',#1287,#317);
#216=LINE('',#1288,#318);
#217=LINE('',#1291,#319);
#218=LINE('',#1293,#320);
#219=LINE('',#1294,#321);
#220=LINE('',#1297,#322);
#221=LINE('',#1299,#323);
#222=LINE('',#1300,#324);
#223=LINE('',#1303,#325);
#224=LINE('',#1305,#326);
#225=LINE('',#1306,#327);
#226=LINE('',#1309,#328);
#227=LINE('',#1311,#329);
#228=LINE('',#1312,#330);
#229=LINE('',#1315,#331);
#230=LINE('',#1317,#332);
#231=LINE('',#1318,#333);
#232=LINE('',#1321,#334);
#233=LINE('',#1323,#335);
#234=LINE('',#1324,#336);
#235=LINE('',#1327,#337);
#236=LINE('',#1329,#338);
#237=LINE('',#1330,#339);
#238=LINE('',#1333,#340);
#239=LINE('',#1335,#341);
#240=LINE('',#1336,#342);
#241=LINE('',#1338,#343);
#242=LINE('',#1339,#344);
#243=VECTOR('',#907,10.);
#244=VECTOR('',#908,10.);
#245=VECTOR('',#909,10.);
#246=VECTOR('',#910,10.);
#247=VECTOR('',#915,10.);
#248=VECTOR('',#920,10.);
#249=VECTOR('',#921,10.);
#250=VECTOR('',#922,10.);
#251=VECTOR('',#927,10.);
#252=VECTOR('',#932,10.);
#253=VECTOR('',#933,10.);
#254=VECTOR('',#934,10.);
#255=VECTOR('',#939,10.);
#256=VECTOR('',#944,10.);
#257=VECTOR('',#945,10.);
#258=VECTOR('',#946,10.);
#259=VECTOR('',#955,10.);
#260=VECTOR('',#956,10.);
#261=VECTOR('',#957,10.);
#262=VECTOR('',#958,10.);
#263=VECTOR('',#961,10.);
#264=VECTOR('',#962,10.);
#265=VECTOR('',#963,10.);
#266=VECTOR('',#966,10.);
#267=VECTOR('',#967,10.);
#268=VECTOR('',#968,10.);
#269=VECTOR('',#971,10.);
#270=VECTOR('',#972,10.);
#271=VECTOR('',#975,10.);
#272=VECTOR('',#976,10.);
#273=VECTOR('',#977,10.);
#274=VECTOR('',#978,10.);
#275=VECTOR('',#981,10.);
#276=VECTOR('',#982,10.);
#277=VECTOR('',#983,10.);
#278=VECTOR('',#986,10.);
#279=VECTOR('',#987,10.);
#280=VECTOR('',#988,10.);
#281=VECTOR('',#991,10.);
#282=VECTOR('',#992,10.);
#283=VECTOR('',#997,1.8);
#284=VECTOR('',#1002,10.);
#285=VECTOR('',#1003,10.);
#286=VECTOR('',#1004,10.);
#287=VECTOR('',#1005,10.);
#288=VECTOR('',#1008,10.);
#289=VECTOR('',#1009,10.);
#290=VECTOR('',#1010,10.);
#291=VECTOR('',#1013,10.);
#292=VECTOR('',#1014,10.);
#293=VECTOR('',#1015,10.);
#294=VECTOR('',#1018,10.);
#295=VECTOR('',#1019,10.);
#296=VECTOR('',#1022,10.);
#297=VECTOR('',#1023,10.);
#298=VECTOR('',#1024,10.);
#299=VECTOR('',#1025,10.);
#300=VECTOR('',#1028,10.);
#301=VECTOR('',#1029,10.);
#302=VECTOR('',#1030,10.);
#303=VECTOR('',#1033,10.);
#304=VECTOR('',#1034,10.);
#305=VECTOR('',#1035,10.);
#306=VECTOR('',#1038,10.);
#307=VECTOR('',#1039,10.);
#308=VECTOR('',#1044,1.8);
#309=VECTOR('',#1049,10.);
#310=VECTOR('',#1050,10.);
#311=VECTOR('',#1051,10.);
#312=VECTOR('',#1052,10.);
#313=VECTOR('',#1055,10.);
#314=VECTOR('',#1056,10.);
#315=VECTOR('',#1057,10.);
#316=VECTOR('',#1060,10.);
#317=VECTOR('',#1061,10.);
#318=VECTOR('',#1062,10.);
#319=VECTOR('',#1065,10.);
#320=VECTOR('',#1066,10.);
#321=VECTOR('',#1067,10.);
#322=VECTOR('',#1070,10.);
#323=VECTOR('',#1071,10.);
#324=VECTOR('',#1072,10.);
#325=VECTOR('',#1075,10.);
#326=VECTOR('',#1076,10.);
#327=VECTOR('',#1077,10.);
#328=VECTOR('',#1080,10.);
#329=VECTOR('',#1081,10.);
#330=VECTOR('',#1082,10.);
#331=VECTOR('',#1085,10.);
#332=VECTOR('',#1086,10.);
#333=VECTOR('',#1087,10.);
#334=VECTOR('',#1090,10.);
#335=VECTOR('',#1091,10.);
#336=VECTOR('',#1092,10.);
#337=VECTOR('',#1095,10.);
#338=VECTOR('',#1096,10.);
#339=VECTOR('',#1097,10.);
#340=VECTOR('',#1100,10.);
#341=VECTOR('',#1101,10.);
#342=VECTOR('',#1102,10.);
#343=VECTOR('',#1105,10.);
#344=VECTOR('',#1106,10.);
#345=VERTEX_POINT('',#1113);
#346=VERTEX_POINT('',#1114);
#347=VERTEX_POINT('',#1116);
#348=VERTEX_POINT('',#1118);
#349=VERTEX_POINT('',#1122);
#350=VERTEX_POINT('',#1124);
#351=VERTEX_POINT('',#1128);
#352=VERTEX_POINT('',#1130);
#353=VERTEX_POINT('',#1134);
#354=VERTEX_POINT('',#1136);
#355=VERTEX_POINT('',#1140);
#356=VERTEX_POINT('',#1142);
#357=VERTEX_POINT('',#1146);
#358=VERTEX_POINT('',#1148);
#359=VERTEX_POINT('',#1152);
#360=VERTEX_POINT('',#1154);
#361=VERTEX_POINT('',#1161);
#362=VERTEX_POINT('',#1162);
#363=VERTEX_POINT('',#1164);
#364=VERTEX_POINT('',#1166);
#365=VERTEX_POINT('',#1170);
#366=VERTEX_POINT('',#1172);
#367=VERTEX_POINT('',#1176);
#368=VERTEX_POINT('',#1178);
#369=VERTEX_POINT('',#1185);
#370=VERTEX_POINT('',#1186);
#371=VERTEX_POINT('',#1188);
#372=VERTEX_POINT('',#1190);
#373=VERTEX_POINT('',#1194);
#374=VERTEX_POINT('',#1196);
#375=VERTEX_POINT('',#1200);
#376=VERTEX_POINT('',#1202);
#377=VERTEX_POINT('',#1209);
#378=VERTEX_POINT('',#1211);
#379=VERTEX_POINT('',#1215);
#380=VERTEX_POINT('',#1216);
#381=VERTEX_POINT('',#1218);
#382=VERTEX_POINT('',#1220);
#383=VERTEX_POINT('',#1224);
#384=VERTEX_POINT('',#1226);
#385=VERTEX_POINT('',#1230);
#386=VERTEX_POINT('',#1232);
#387=VERTEX_POINT('',#1239);
#388=VERTEX_POINT('',#1240);
#389=VERTEX_POINT('',#1242);
#390=VERTEX_POINT('',#1244);
#391=VERTEX_POINT('',#1248);
#392=VERTEX_POINT('',#1250);
#393=VERTEX_POINT('',#1254);
#394=VERTEX_POINT('',#1256);
#395=VERTEX_POINT('',#1263);
#396=VERTEX_POINT('',#1265);
#397=VERTEX_POINT('',#1269);
#398=VERTEX_POINT('',#1270);
#399=VERTEX_POINT('',#1272);
#400=VERTEX_POINT('',#1274);
#401=VERTEX_POINT('',#1278);
#402=VERTEX_POINT('',#1280);
#403=VERTEX_POINT('',#1284);
#404=VERTEX_POINT('',#1286);
#405=VERTEX_POINT('',#1290);
#406=VERTEX_POINT('',#1292);
#407=VERTEX_POINT('',#1296);
#408=VERTEX_POINT('',#1298);
#409=VERTEX_POINT('',#1302);
#410=VERTEX_POINT('',#1304);
#411=VERTEX_POINT('',#1308);
#412=VERTEX_POINT('',#1310);
#413=VERTEX_POINT('',#1314);
#414=VERTEX_POINT('',#1316);
#415=VERTEX_POINT('',#1320);
#416=VERTEX_POINT('',#1322);
#417=VERTEX_POINT('',#1326);
#418=VERTEX_POINT('',#1328);
#419=VERTEX_POINT('',#1332);
#420=VERTEX_POINT('',#1334);
#421=EDGE_CURVE('',#345,#346,#141,.T.);
#422=EDGE_CURVE('',#345,#347,#142,.T.);
#423=EDGE_CURVE('',#348,#347,#143,.T.);
#424=EDGE_CURVE('',#346,#348,#144,.T.);
#425=EDGE_CURVE('',#349,#345,#29,.T.);
#426=EDGE_CURVE('',#349,#350,#145,.T.);
#427=EDGE_CURVE('',#347,#350,#30,.T.);
#428=EDGE_CURVE('',#351,#349,#146,.T.);
#429=EDGE_CURVE('',#351,#352,#147,.T.);
#430=EDGE_CURVE('',#350,#352,#148,.T.);
#431=EDGE_CURVE('',#353,#351,#31,.T.);
#432=EDGE_CURVE('',#353,#354,#149,.T.);
#433=EDGE_CURVE('',#352,#354,#32,.T.);
#434=EDGE_CURVE('',#355,#353,#150,.T.);
#435=EDGE_CURVE('',#355,#356,#151,.T.);
#436=EDGE_CURVE('',#354,#356,#152,.T.);
#437=EDGE_CURVE('',#357,#355,#33,.T.);
#438=EDGE_CURVE('',#357,#358,#153,.T.);
#439=EDGE_CURVE('',#356,#358,#34,.T.);
#440=EDGE_CURVE('',#359,#357,#154,.T.);
#441=EDGE_CURVE('',#359,#360,#155,.T.);
#442=EDGE_CURVE('',#358,#360,#156,.T.);
#443=EDGE_CURVE('',#346,#359,#35,.T.);
#444=EDGE_CURVE('',#360,#348,#36,.T.);
#445=EDGE_CURVE('',#361,#362,#157,.T.);
#446=EDGE_CURVE('',#361,#363,#158,.T.);
#447=EDGE_CURVE('',#364,#363,#159,.T.);
#448=EDGE_CURVE('',#362,#364,#160,.T.);
#449=EDGE_CURVE('',#365,#361,#161,.T.);
#450=EDGE_CURVE('',#365,#366,#162,.T.);
#451=EDGE_CURVE('',#363,#366,#163,.T.);
#452=EDGE_CURVE('',#367,#365,#164,.T.);
#453=EDGE_CURVE('',#367,#368,#165,.T.);
#454=EDGE_CURVE('',#366,#368,#166,.T.);
#455=EDGE_CURVE('',#362,#367,#167,.T.);
#456=EDGE_CURVE('',#368,#364,#168,.T.);
#457=EDGE_CURVE('',#369,#370,#169,.T.);
#458=EDGE_CURVE('',#369,#371,#170,.T.);
#459=EDGE_CURVE('',#372,#371,#171,.T.);
#460=EDGE_CURVE('',#370,#372,#172,.T.);
#461=EDGE_CURVE('',#373,#369,#173,.T.);
#462=EDGE_CURVE('',#373,#374,#174,.T.);
#463=EDGE_CURVE('',#371,#374,#175,.T.);
#464=EDGE_CURVE('',#375,#373,#176,.T.);
#465=EDGE_CURVE('',#375,#376,#177,.T.);
#466=EDGE_CURVE('',#374,#376,#178,.T.);
#467=EDGE_CURVE('',#370,#375,#179,.T.);
#468=EDGE_CURVE('',#376,#372,#180,.T.);
#469=EDGE_CURVE('',#377,#377,#37,.T.);
#470=EDGE_CURVE('',#377,#378,#181,.T.);
#471=EDGE_CURVE('',#378,#378,#38,.T.);
#472=EDGE_CURVE('',#379,#380,#182,.T.);
#473=EDGE_CURVE('',#379,#381,#183,.T.);
#474=EDGE_CURVE('',#382,#381,#184,.T.);
#475=EDGE_CURVE('',#380,#382,#185,.T.);
#476=EDGE_CURVE('',#383,#379,#186,.T.);
#477=EDGE_CURVE('',#383,#384,#187,.T.);
#478=EDGE_CURVE('',#381,#384,#188,.T.);
#479=EDGE_CURVE('',#385,#383,#189,.T.);
#480=EDGE_CURVE('',#385,#386,#190,.T.);
#481=EDGE_CURVE('',#384,#386,#191,.T.);
#482=EDGE_CURVE('',#380,#385,#192,.T.);
#483=EDGE_CURVE('',#386,#382,#193,.T.);
#484=EDGE_CURVE('',#387,#388,#194,.T.);
#485=EDGE_CURVE('',#387,#389,#195,.T.);
#486=EDGE_CURVE('',#390,#389,#196,.T.);
#487=EDGE_CURVE('',#388,#390,#197,.T.);
#488=EDGE_CURVE('',#391,#387,#198,.T.);
#489=EDGE_CURVE('',#391,#392,#199,.T.);
#490=EDGE_CURVE('',#389,#392,#200,.T.);
#491=EDGE_CURVE('',#393,#391,#201,.T.);
#492=EDGE_CURVE('',#393,#394,#202,.T.);
#493=EDGE_CURVE('',#392,#394,#203,.T.);
#494=EDGE_CURVE('',#388,#393,#204,.T.);
#495=EDGE_CURVE('',#394,#390,#205,.T.);
#496=EDGE_CURVE('',#395,#395,#39,.T.);
#497=EDGE_CURVE('',#395,#396,#206,.T.);
#498=EDGE_CURVE('',#396,#396,#40,.T.);
#499=EDGE_CURVE('',#397,#398,#207,.T.);
#500=EDGE_CURVE('',#397,#399,#208,.T.);
#501=EDGE_CURVE('',#400,#399,#209,.T.);
#502=EDGE_CURVE('',#398,#400,#210,.T.);
#503=EDGE_CURVE('',#398,#401,#211,.T.);
#504=EDGE_CURVE('',#402,#400,#212,.T.);
#505=EDGE_CURVE('',#401,#402,#213,.T.);
#506=EDGE_CURVE('',#401,#403,#214,.T.);
#507=EDGE_CURVE('',#404,#402,#215,.T.);
#508=EDGE_CURVE('',#403,#404,#216,.T.);
#509=EDGE_CURVE('',#405,#403,#217,.T.);
#510=EDGE_CURVE('',#406,#404,#218,.T.);
#511=EDGE_CURVE('',#405,#406,#219,.T.);
#512=EDGE_CURVE('',#407,#405,#220,.T.);
#513=EDGE_CURVE('',#408,#406,#221,.T.);
#514=EDGE_CURVE('',#407,#408,#222,.T.);
#515=EDGE_CURVE('',#409,#407,#223,.T.);
#516=EDGE_CURVE('',#410,#408,#224,.T.);
#517=EDGE_CURVE('',#409,#410,#225,.T.);
#518=EDGE_CURVE('',#409,#411,#226,.T.);
#519=EDGE_CURVE('',#412,#410,#227,.T.);
#520=EDGE_CURVE('',#411,#412,#228,.T.);
#521=EDGE_CURVE('',#411,#413,#229,.T.);
#522=EDGE_CURVE('',#414,#412,#230,.T.);
#523=EDGE_CURVE('',#413,#414,#231,.T.);
#524=EDGE_CURVE('',#413,#415,#232,.T.);
#525=EDGE_CURVE('',#416,#414,#233,.T.);
#526=EDGE_CURVE('',#415,#416,#234,.T.);
#527=EDGE_CURVE('',#417,#415,#235,.T.);
#528=EDGE_CURVE('',#418,#416,#236,.T.);
#529=EDGE_CURVE('',#417,#418,#237,.T.);
#530=EDGE_CURVE('',#419,#417,#238,.T.);
#531=EDGE_CURVE('',#420,#418,#239,.T.);
#532=EDGE_CURVE('',#419,#420,#240,.T.);
#533=EDGE_CURVE('',#397,#419,#241,.T.);
#534=EDGE_CURVE('',#399,#420,#242,.T.);
#535=ORIENTED_EDGE('',*,*,#421,.F.);
#536=ORIENTED_EDGE('',*,*,#422,.T.);
#537=ORIENTED_EDGE('',*,*,#423,.F.);
#538=ORIENTED_EDGE('',*,*,#424,.F.);
#539=ORIENTED_EDGE('',*,*,#425,.F.);
#540=ORIENTED_EDGE('',*,*,#426,.T.);
#541=ORIENTED_EDGE('',*,*,#427,.F.);
#542=ORIENTED_EDGE('',*,*,#422,.F.);
#543=ORIENTED_EDGE('',*,*,#428,.F.);
#544=ORIENTED_EDGE('',*,*,#429,.T.);
#545=ORIENTED_EDGE('',*,*,#430,.F.);
#546=ORIENTED_EDGE('',*,*,#426,.F.);
#547=ORIENTED_EDGE('',*,*,#431,.F.);
#548=ORIENTED_EDGE('',*,*,#432,.T.);
#549=ORIENTED_EDGE('',*,*,#433,.F.);
#550=ORIENTED_EDGE('',*,*,#429,.F.);
#551=ORIENTED_EDGE('',*,*,#434,.F.);
#552=ORIENTED_EDGE('',*,*,#435,.T.);
#553=ORIENTED_EDGE('',*,*,#436,.F.);
#554=ORIENTED_EDGE('',*,*,#432,.F.);
#555=ORIENTED_EDGE('',*,*,#437,.F.);
#556=ORIENTED_EDGE('',*,*,#438,.T.);
#557=ORIENTED_EDGE('',*,*,#439,.F.);
#558=ORIENTED_EDGE('',*,*,#435,.F.);
#559=ORIENTED_EDGE('',*,*,#440,.F.);
#560=ORIENTED_EDGE('',*,*,#441,.T.);
#561=ORIENTED_EDGE('',*,*,#442,.F.);
#562=ORIENTED_EDGE('',*,*,#438,.F.);
#563=ORIENTED_EDGE('',*,*,#443,.F.);
#564=ORIENTED_EDGE('',*,*,#424,.T.);
#565=ORIENTED_EDGE('',*,*,#444,.F.);
#566=ORIENTED_EDGE('',*,*,#441,.F.);
#567=ORIENTED_EDGE('',*,*,#445,.F.);
#568=ORIENTED_EDGE('',*,*,#446,.T.);
#569=ORIENTED_EDGE('',*,*,#447,.F.);
#570=ORIENTED_EDGE('',*,*,#448,.F.);
#571=ORIENTED_EDGE('',*,*,#449,.F.);
#572=ORIENTED_EDGE('',*,*,#450,.T.);
#573=ORIENTED_EDGE('',*,*,#451,.F.);
#574=ORIENTED_EDGE('',*,*,#446,.F.);
#575=ORIENTED_EDGE('',*,*,#452,.F.);
#576=ORIENTED_EDGE('',*,*,#453,.T.);
#577=ORIENTED_EDGE('',*,*,#454,.F.);
#578=ORIENTED_EDGE('',*,*,#450,.F.);
#579=ORIENTED_EDGE('',*,*,#455,.F.);
#580=ORIENTED_EDGE('',*,*,#448,.T.);
#581=ORIENTED_EDGE('',*,*,#456,.F.);
#582=ORIENTED_EDGE('',*,*,#453,.F.);
#583=ORIENTED_EDGE('',*,*,#457,.F.);
#584=ORIENTED_EDGE('',*,*,#458,.T.);
#585=ORIENTED_EDGE('',*,*,#459,.F.);
#586=ORIENTED_EDGE('',*,*,#460,.F.);
#587=ORIENTED_EDGE('',*,*,#461,.F.);
#588=ORIENTED_EDGE('',*,*,#462,.T.);
#589=ORIENTED_EDGE('',*,*,#463,.F.);
#590=ORIENTED_EDGE('',*,*,#458,.F.);
#591=ORIENTED_EDGE('',*,*,#464,.F.);
#592=ORIENTED_EDGE('',*,*,#465,.T.);
#593=ORIENTED_EDGE('',*,*,#466,.F.);
#594=ORIENTED_EDGE('',*,*,#462,.F.);
#595=ORIENTED_EDGE('',*,*,#467,.F.);
#596=ORIENTED_EDGE('',*,*,#460,.T.);
#597=ORIENTED_EDGE('',*,*,#468,.F.);
#598=ORIENTED_EDGE('',*,*,#465,.F.);
#599=ORIENTED_EDGE('',*,*,#469,.F.);
#600=ORIENTED_EDGE('',*,*,#470,.T.);
#601=ORIENTED_EDGE('',*,*,#471,.F.);
#602=ORIENTED_EDGE('',*,*,#470,.F.);
#603=ORIENTED_EDGE('',*,*,#472,.F.);
#604=ORIENTED_EDGE('',*,*,#473,.T.);
#605=ORIENTED_EDGE('',*,*,#474,.F.);
#606=ORIENTED_EDGE('',*,*,#475,.F.);
#607=ORIENTED_EDGE('',*,*,#476,.F.);
#608=ORIENTED_EDGE('',*,*,#477,.T.);
#609=ORIENTED_EDGE('',*,*,#478,.F.);
#610=ORIENTED_EDGE('',*,*,#473,.F.);
#611=ORIENTED_EDGE('',*,*,#479,.F.);
#612=ORIENTED_EDGE('',*,*,#480,.T.);
#613=ORIENTED_EDGE('',*,*,#481,.F.);
#614=ORIENTED_EDGE('',*,*,#477,.F.);
#615=ORIENTED_EDGE('',*,*,#482,.F.);
#616=ORIENTED_EDGE('',*,*,#475,.T.);
#617=ORIENTED_EDGE('',*,*,#483,.F.);
#618=ORIENTED_EDGE('',*,*,#480,.F.);
#619=ORIENTED_EDGE('',*,*,#484,.F.);
#620=ORIENTED_EDGE('',*,*,#485,.T.);
#621=ORIENTED_EDGE('',*,*,#486,.F.);
#622=ORIENTED_EDGE('',*,*,#487,.F.);
#623=ORIENTED_EDGE('',*,*,#488,.F.);
#624=ORIENTED_EDGE('',*,*,#489,.T.);
#625=ORIENTED_EDGE('',*,*,#490,.F.);
#626=ORIENTED_EDGE('',*,*,#485,.F.);
#627=ORIENTED_EDGE('',*,*,#491,.F.);
#628=ORIENTED_EDGE('',*,*,#492,.T.);
#629=ORIENTED_EDGE('',*,*,#493,.F.);
#630=ORIENTED_EDGE('',*,*,#489,.F.);
#631=ORIENTED_EDGE('',*,*,#494,.F.);
#632=ORIENTED_EDGE('',*,*,#487,.T.);
#633=ORIENTED_EDGE('',*,*,#495,.F.);
#634=ORIENTED_EDGE('',*,*,#492,.F.);
#635=ORIENTED_EDGE('',*,*,#496,.F.);
#636=ORIENTED_EDGE('',*,*,#497,.T.);
#637=ORIENTED_EDGE('',*,*,#498,.F.);
#638=ORIENTED_EDGE('',*,*,#497,.F.);
#639=ORIENTED_EDGE('',*,*,#499,.F.);
#640=ORIENTED_EDGE('',*,*,#500,.T.);
#641=ORIENTED_EDGE('',*,*,#501,.F.);
#642=ORIENTED_EDGE('',*,*,#502,.F.);
#643=ORIENTED_EDGE('',*,*,#503,.F.);
#644=ORIENTED_EDGE('',*,*,#502,.T.);
#645=ORIENTED_EDGE('',*,*,#504,.F.);
#646=ORIENTED_EDGE('',*,*,#505,.F.);
#647=ORIENTED_EDGE('',*,*,#506,.F.);
#648=ORIENTED_EDGE('',*,*,#505,.T.);
#649=ORIENTED_EDGE('',*,*,#507,.F.);
#650=ORIENTED_EDGE('',*,*,#508,.F.);
#651=ORIENTED_EDGE('',*,*,#509,.T.);
#652=ORIENTED_EDGE('',*,*,#508,.T.);
#653=ORIENTED_EDGE('',*,*,#510,.F.);
#654=ORIENTED_EDGE('',*,*,#511,.F.);
#655=ORIENTED_EDGE('',*,*,#512,.T.);
#656=ORIENTED_EDGE('',*,*,#511,.T.);
#657=ORIENTED_EDGE('',*,*,#513,.F.);
#658=ORIENTED_EDGE('',*,*,#514,.F.);
#659=ORIENTED_EDGE('',*,*,#515,.T.);
#660=ORIENTED_EDGE('',*,*,#514,.T.);
#661=ORIENTED_EDGE('',*,*,#516,.F.);
#662=ORIENTED_EDGE('',*,*,#517,.F.);
#663=ORIENTED_EDGE('',*,*,#518,.F.);
#664=ORIENTED_EDGE('',*,*,#517,.T.);
#665=ORIENTED_EDGE('',*,*,#519,.F.);
#666=ORIENTED_EDGE('',*,*,#520,.F.);
#667=ORIENTED_EDGE('',*,*,#521,.F.);
#668=ORIENTED_EDGE('',*,*,#520,.T.);
#669=ORIENTED_EDGE('',*,*,#522,.F.);
#670=ORIENTED_EDGE('',*,*,#523,.F.);
#671=ORIENTED_EDGE('',*,*,#524,.F.);
#672=ORIENTED_EDGE('',*,*,#523,.T.);
#673=ORIENTED_EDGE('',*,*,#525,.F.);
#674=ORIENTED_EDGE('',*,*,#526,.F.);
#675=ORIENTED_EDGE('',*,*,#527,.T.);
#676=ORIENTED_EDGE('',*,*,#526,.T.);
#677=ORIENTED_EDGE('',*,*,#528,.F.);
#678=ORIENTED_EDGE('',*,*,#529,.F.);
#679=ORIENTED_EDGE('',*,*,#530,.T.);
#680=ORIENTED_EDGE('',*,*,#529,.T.);
#681=ORIENTED_EDGE('',*,*,#531,.F.);
#682=ORIENTED_EDGE('',*,*,#532,.F.);
#683=ORIENTED_EDGE('',*,*,#533,.T.);
#684=ORIENTED_EDGE('',*,*,#532,.T.);
#685=ORIENTED_EDGE('',*,*,#534,.F.);
#686=ORIENTED_EDGE('',*,*,#500,.F.);
#687=ORIENTED_EDGE('',*,*,#534,.T.);
#688=ORIENTED_EDGE('',*,*,#531,.T.);
#689=ORIENTED_EDGE('',*,*,#528,.T.);
#690=ORIENTED_EDGE('',*,*,#525,.T.);
#691=ORIENTED_EDGE('',*,*,#522,.T.);
#692=ORIENTED_EDGE('',*,*,#519,.T.);
#693=ORIENTED_EDGE('',*,*,#516,.T.);
#694=ORIENTED_EDGE('',*,*,#513,.T.);
#695=ORIENTED_EDGE('',*,*,#510,.T.);
#696=ORIENTED_EDGE('',*,*,#507,.T.);
#697=ORIENTED_EDGE('',*,*,#504,.T.);
#698=ORIENTED_EDGE('',*,*,#501,.T.);
#699=ORIENTED_EDGE('',*,*,#421,.T.);
#700=ORIENTED_EDGE('',*,*,#443,.T.);
#701=ORIENTED_EDGE('',*,*,#440,.T.);
#702=ORIENTED_EDGE('',*,*,#437,.T.);
#703=ORIENTED_EDGE('',*,*,#434,.T.);
#704=ORIENTED_EDGE('',*,*,#431,.T.);
#705=ORIENTED_EDGE('',*,*,#428,.T.);
#706=ORIENTED_EDGE('',*,*,#425,.T.);
#707=ORIENTED_EDGE('',*,*,#445,.T.);
#708=ORIENTED_EDGE('',*,*,#455,.T.);
#709=ORIENTED_EDGE('',*,*,#452,.T.);
#710=ORIENTED_EDGE('',*,*,#449,.T.);
#711=ORIENTED_EDGE('',*,*,#457,.T.);
#712=ORIENTED_EDGE('',*,*,#467,.T.);
#713=ORIENTED_EDGE('',*,*,#464,.T.);
#714=ORIENTED_EDGE('',*,*,#461,.T.);
#715=ORIENTED_EDGE('',*,*,#469,.T.);
#716=ORIENTED_EDGE('',*,*,#472,.T.);
#717=ORIENTED_EDGE('',*,*,#482,.T.);
#718=ORIENTED_EDGE('',*,*,#479,.T.);
#719=ORIENTED_EDGE('',*,*,#476,.T.);
#720=ORIENTED_EDGE('',*,*,#484,.T.);
#721=ORIENTED_EDGE('',*,*,#494,.T.);
#722=ORIENTED_EDGE('',*,*,#491,.T.);
#723=ORIENTED_EDGE('',*,*,#488,.T.);
#724=ORIENTED_EDGE('',*,*,#496,.T.);
#725=ORIENTED_EDGE('',*,*,#533,.F.);
#726=ORIENTED_EDGE('',*,*,#499,.T.);
#727=ORIENTED_EDGE('',*,*,#503,.T.);
#728=ORIENTED_EDGE('',*,*,#506,.T.);
#729=ORIENTED_EDGE('',*,*,#509,.F.);
#730=ORIENTED_EDGE('',*,*,#512,.F.);
#731=ORIENTED_EDGE('',*,*,#515,.F.);
#732=ORIENTED_EDGE('',*,*,#518,.T.);
#733=ORIENTED_EDGE('',*,*,#521,.T.);
#734=ORIENTED_EDGE('',*,*,#524,.T.);
#735=ORIENTED_EDGE('',*,*,#527,.F.);
#736=ORIENTED_EDGE('',*,*,#530,.F.);
#737=ORIENTED_EDGE('',*,*,#423,.T.);
#738=ORIENTED_EDGE('',*,*,#427,.T.);
#739=ORIENTED_EDGE('',*,*,#430,.T.);
#740=ORIENTED_EDGE('',*,*,#433,.T.);
#741=ORIENTED_EDGE('',*,*,#436,.T.);
#742=ORIENTED_EDGE('',*,*,#439,.T.);
#743=ORIENTED_EDGE('',*,*,#442,.T.);
#744=ORIENTED_EDGE('',*,*,#444,.T.);
#745=ORIENTED_EDGE('',*,*,#447,.T.);
#746=ORIENTED_EDGE('',*,*,#451,.T.);
#747=ORIENTED_EDGE('',*,*,#454,.T.);
#748=ORIENTED_EDGE('',*,*,#456,.T.);
#749=ORIENTED_EDGE('',*,*,#459,.T.);
#750=ORIENTED_EDGE('',*,*,#463,.T.);
#751=ORIENTED_EDGE('',*,*,#466,.T.);
#752=ORIENTED_EDGE('',*,*,#468,.T.);
#753=ORIENTED_EDGE('',*,*,#471,.T.);
#754=ORIENTED_EDGE('',*,*,#474,.T.);
#755=ORIENTED_EDGE('',*,*,#478,.T.);
#756=ORIENTED_EDGE('',*,*,#481,.T.);
#757=ORIENTED_EDGE('',*,*,#483,.T.);
#758=ORIENTED_EDGE('',*,*,#486,.T.);
#759=ORIENTED_EDGE('',*,*,#490,.T.);
#760=ORIENTED_EDGE('',*,*,#493,.T.);
#761=ORIENTED_EDGE('',*,*,#495,.T.);
#762=ORIENTED_EDGE('',*,*,#498,.T.);
#763=PLANE('',#851);
#764=PLANE('',#855);
#765=PLANE('',#859);
#766=PLANE('',#863);
#767=PLANE('',#867);
#768=PLANE('',#868);
#769=PLANE('',#869);
#770=PLANE('',#870);
#771=PLANE('',#871);
#772=PLANE('',#872);
#773=PLANE('',#873);
#774=PLANE('',#874);
#775=PLANE('',#878);
#776=PLANE('',#879);
#777=PLANE('',#880);
#778=PLANE('',#881);
#779=PLANE('',#882);
#780=PLANE('',#883);
#781=PLANE('',#884);
#782=PLANE('',#885);
#783=PLANE('',#889);
#784=PLANE('',#890);
#785=PLANE('',#891);
#786=PLANE('',#892);
#787=PLANE('',#893);
#788=PLANE('',#894);
#789=PLANE('',#895);
#790=PLANE('',#896);
#791=PLANE('',#897);
#792=PLANE('',#898);
#793=PLANE('',#899);
#794=PLANE('',#900);
#795=PLANE('',#901);
#796=PLANE('',#902);
#797=ADVANCED_FACE('',(#47),#763,.F.);
#798=ADVANCED_FACE('',(#48),#41,.F.);
#799=ADVANCED_FACE('',(#49),#764,.F.);
#800=ADVANCED_FACE('',(#50),#42,.F.);
#801=ADVANCED_FACE('',(#51),#765,.F.);
#802=ADVANCED_FACE('',(#52),#43,.F.);
#803=ADVANCED_FACE('',(#53),#766,.F.);
#804=ADVANCED_FACE('',(#54),#44,.F.);
#805=ADVANCED_FACE('',(#55),#767,.F.);
#806=ADVANCED_FACE('',(#56),#768,.F.);
#807=ADVANCED_FACE('',(#57),#769,.F.);
#808=ADVANCED_FACE('',(#58),#770,.F.);
#809=ADVANCED_FACE('',(#59),#771,.F.);
#810=ADVANCED_FACE('',(#60),#772,.F.);
#811=ADVANCED_FACE('',(#61),#773,.F.);
#812=ADVANCED_FACE('',(#62),#774,.F.);
#813=ADVANCED_FACE('',(#63),#45,.F.);
#814=ADVANCED_FACE('',(#64),#775,.F.);
#815=ADVANCED_FACE('',(#65),#776,.F.);
#816=ADVANCED_FACE('',(#66),#777,.F.);
#817=ADVANCED_FACE('',(#67),#778,.F.);
#818=ADVANCED_FACE('',(#68),#779,.F.);
#819=ADVANCED_FACE('',(#69),#780,.F.);
#820=ADVANCED_FACE('',(#70),#781,.F.);
#821=ADVANCED_FACE('',(#71),#782,.F.);
#822=ADVANCED_FACE('',(#72),#46,.F.);
#823=ADVANCED_FACE('',(#73),#783,.T.);
#824=ADVANCED_FACE('',(#74),#784,.T.);
#825=ADVANCED_FACE('',(#75),#785,.T.);
#826=ADVANCED_FACE('',(#76),#786,.T.);
#827=ADVANCED_FACE('',(#77),#787,.T.);
#828=ADVANCED_FACE('',(#78),#788,.T.);
#829=ADVANCED_FACE('',(#79),#789,.T.);
#830=ADVANCED_FACE('',(#80),#790,.T.);
#831=ADVANCED_FACE('',(#81),#791,.T.);
#832=ADVANCED_FACE('',(#82),#792,.T.);
#833=ADVANCED_FACE('',(#83),#793,.T.);
#834=ADVANCED_FACE('',(#84),#794,.T.);
#835=ADVANCED_FACE('',(#85,#15,#16,#17,#18,#19,#20,#21),#795,.T.);
#836=ADVANCED_FACE('',(#86,#22,#23,#24,#25,#26,#27,#28),#796,.F.);
#837=CLOSED_SHELL('',(#797,#798,#799,#800,#801,#802,#803,#804,#805,#806,
#807,#808,#809,#810,#811,#812,#813,#814,#815,#816,#817,#818,#819,#820,#821,
#822,#823,#824,#825,#826,#827,#828,#829,#830,#831,#832,#833,#834,#835,#836));
#838=DERIVED_UNIT_ELEMENT(#840,1.);
#839=DERIVED_UNIT_ELEMENT(#1347,-3.);
#840=(
MASS_UNIT()
NAMED_UNIT(*)
SI_UNIT(.KILO.,.GRAM.)
);
#841=DERIVED_UNIT((#838,#839));
#842=MEASURE_REPRESENTATION_ITEM('density measure',
POSITIVE_RATIO_MEASURE(7850.),#841);
#843=PROPERTY_DEFINITION_REPRESENTATION(#848,#845);
#844=PROPERTY_DEFINITION_REPRESENTATION(#849,#846);
#845=REPRESENTATION('material name',(#847),#1344);
#846=REPRESENTATION('density',(#842),#1344);
#847=DESCRIPTIVE_REPRESENTATION_ITEM('Acier','Acier');
#848=PROPERTY_DEFINITION('material property','material name',#1354);
#849=PROPERTY_DEFINITION('material property','density of part',#1354);
#850=AXIS2_PLACEMENT_3D('',#1111,#903,#904);
#851=AXIS2_PLACEMENT_3D('',#1112,#905,#906);
#852=AXIS2_PLACEMENT_3D('',#1121,#911,#912);
#853=AXIS2_PLACEMENT_3D('',#1123,#913,#914);
#854=AXIS2_PLACEMENT_3D('',#1126,#916,#917);
#855=AXIS2_PLACEMENT_3D('',#1127,#918,#919);
#856=AXIS2_PLACEMENT_3D('',#1133,#923,#924);
#857=AXIS2_PLACEMENT_3D('',#1135,#925,#926);
#858=AXIS2_PLACEMENT_3D('',#1138,#928,#929);
#859=AXIS2_PLACEMENT_3D('',#1139,#930,#931);
#860=AXIS2_PLACEMENT_3D('',#1145,#935,#936);
#861=AXIS2_PLACEMENT_3D('',#1147,#937,#938);
#862=AXIS2_PLACEMENT_3D('',#1150,#940,#941);
#863=AXIS2_PLACEMENT_3D('',#1151,#942,#943);
#864=AXIS2_PLACEMENT_3D('',#1157,#947,#948);
#865=AXIS2_PLACEMENT_3D('',#1158,#949,#950);
#866=AXIS2_PLACEMENT_3D('',#1159,#951,#952);
#867=AXIS2_PLACEMENT_3D('',#1160,#953,#954);
#868=AXIS2_PLACEMENT_3D('',#1169,#959,#960);
#869=AXIS2_PLACEMENT_3D('',#1175,#964,#965);
#870=AXIS2_PLACEMENT_3D('',#1181,#969,#970);
#871=AXIS2_PLACEMENT_3D('',#1184,#973,#974);
#872=AXIS2_PLACEMENT_3D('',#1193,#979,#980);
#873=AXIS2_PLACEMENT_3D('',#1199,#984,#985);
#874=AXIS2_PLACEMENT_3D('',#1205,#989,#990);
#875=AXIS2_PLACEMENT_3D('',#1208,#993,#994);
#876=AXIS2_PLACEMENT_3D('',#1210,#995,#996);
#877=AXIS2_PLACEMENT_3D('',#1213,#998,#999);
#878=AXIS2_PLACEMENT_3D('',#1214,#1000,#1001);
#879=AXIS2_PLACEMENT_3D('',#1223,#1006,#1007);
#880=AXIS2_PLACEMENT_3D('',#1229,#1011,#1012);
#881=AXIS2_PLACEMENT_3D('',#1235,#1016,#1017);
#882=AXIS2_PLACEMENT_3D('',#1238,#1020,#1021);
#883=AXIS2_PLACEMENT_3D('',#1247,#1026,#1027);
#884=AXIS2_PLACEMENT_3D('',#1253,#1031,#1032);
#885=AXIS2_PLACEMENT_3D('',#1259,#1036,#1037);
#886=AXIS2_PLACEMENT_3D('',#1262,#1040,#1041);
#887=AXIS2_PLACEMENT_3D('',#1264,#1042,#1043);
#888=AXIS2_PLACEMENT_3D('',#1267,#1045,#1046);
#889=AXIS2_PLACEMENT_3D('',#1268,#1047,#1048);
#890=AXIS2_PLACEMENT_3D('',#1277,#1053,#1054);
#891=AXIS2_PLACEMENT_3D('',#1283,#1058,#1059);
#892=AXIS2_PLACEMENT_3D('',#1289,#1063,#1064);
#893=AXIS2_PLACEMENT_3D('',#1295,#1068,#1069);
#894=AXIS2_PLACEMENT_3D('',#1301,#1073,#1074);
#895=AXIS2_PLACEMENT_3D('',#1307,#1078,#1079);
#896=AXIS2_PLACEMENT_3D('',#1313,#1083,#1084);
#897=AXIS2_PLACEMENT_3D('',#1319,#1088,#1089);
#898=AXIS2_PLACEMENT_3D('',#1325,#1093,#1094);
#899=AXIS2_PLACEMENT_3D('',#1331,#1098,#1099);
#900=AXIS2_PLACEMENT_3D('',#1337,#1103,#1104);
#901=AXIS2_PLACEMENT_3D('',#1340,#1107,#1108);
#902=AXIS2_PLACEMENT_3D('',#1341,#1109,#1110);
#903=DIRECTION('axis',(0.,0.,1.));
#904=DIRECTION('refdir',(1.,0.,0.));
#905=DIRECTION('center_axis',(-1.,0.,0.));
#906=DIRECTION('ref_axis',(0.,1.,0.));
#907=DIRECTION('',(0.,1.,0.));
#908=DIRECTION('',(0.,0.,-1.));
#909=DIRECTION('',(0.,-1.,0.));
#910=DIRECTION('',(0.,0.,-1.));
#911=DIRECTION('center_axis',(0.,0.,-1.));
#912=DIRECTION('ref_axis',(-1.,-1.33226762955018E-15,0.));
#913=DIRECTION('center_axis',(0.,0.,-1.));
#914=DIRECTION('ref_axis',(-1.,-1.33226762955018E-15,0.));
#915=DIRECTION('',(0.,0.,-1.));
#916=DIRECTION('center_axis',(0.,0.,1.));
#917=DIRECTION('ref_axis',(-1.,-1.33226762955018E-15,0.));
#918=DIRECTION('center_axis',(2.22044604925032E-16,-1.,0.));
#919=DIRECTION('ref_axis',(-1.,-2.22044604925032E-16,0.));
#920=DIRECTION('',(-1.,-2.22044604925032E-16,0.));
#921=DIRECTION('',(0.,0.,-1.));
#922=DIRECTION('',(1.,2.22044604925032E-16,0.));
#923=DIRECTION('center_axis',(0.,0.,-1.));
#924=DIRECTION('ref_axis',(0.,-1.,0.));
#925=DIRECTION('center_axis',(0.,0.,-1.));
#926=DIRECTION('ref_axis',(0.,-1.,0.));
#927=DIRECTION('',(0.,0.,-1.));
#928=DIRECTION('center_axis',(0.,0.,1.));
#929=DIRECTION('ref_axis',(0.,-1.,0.));
#930=DIRECTION('center_axis',(1.,0.,0.));
#931=DIRECTION('ref_axis',(0.,-1.,0.));
#932=DIRECTION('',(0.,-1.,0.));
#933=DIRECTION('',(0.,0.,-1.));
#934=DIRECTION('',(0.,1.,0.));
#935=DIRECTION('center_axis',(0.,0.,-1.));
#936=DIRECTION('ref_axis',(1.,8.88178419700122E-16,0.));
#937=DIRECTION('center_axis',(0.,0.,-1.));
#938=DIRECTION('ref_axis',(1.,8.88178419700122E-16,0.));
#939=DIRECTION('',(0.,0.,-1.));
#940=DIRECTION('center_axis',(0.,0.,1.));
#941=DIRECTION('ref_axis',(1.,8.88178419700122E-16,0.));
#942=DIRECTION('center_axis',(8.88178419700127E-16,1.,0.));
#943=DIRECTION('ref_axis',(1.,-8.88178419700127E-16,0.));
#944=DIRECTION('',(1.,-8.88178419700127E-16,0.));
#945=DIRECTION('',(0.,0.,-1.));
#946=DIRECTION('',(-1.,8.88178419700127E-16,0.));
#947=DIRECTION('center_axis',(0.,0.,-1.));
#948=DIRECTION('ref_axis',(-3.55271367880049E-15,1.,0.));
#949=DIRECTION('center_axis',(0.,0.,-1.));
#950=DIRECTION('ref_axis',(-3.55271367880049E-15,1.,0.));
#951=DIRECTION('center_axis',(0.,0.,1.));
#952=DIRECTION('ref_axis',(-3.55271367880049E-15,1.,0.));
#953=DIRECTION('center_axis',(1.,-1.02695629776949E-13,0.));
#954=DIRECTION('ref_axis',(-1.02695629776949E-13,-1.,0.));
#955=DIRECTION('',(-1.02695629776949E-13,-1.,0.));
#956=DIRECTION('',(0.,0.,-1.));
#957=DIRECTION('',(1.02695629776949E-13,1.,0.));
#958=DIRECTION('',(0.,0.,-1.));
#959=DIRECTION('center_axis',(1.36002320516565E-13,1.,0.));
#960=DIRECTION('ref_axis',(1.,-1.36002320516565E-13,0.));
#961=DIRECTION('',(1.,-1.36002320516565E-13,0.));
#962=DIRECTION('',(0.,0.,-1.));
#963=DIRECTION('',(-1.,1.36002320516565E-13,0.));
#964=DIRECTION('center_axis',(-1.,-5.96744875736119E-13,0.));
#965=DIRECTION('ref_axis',(-5.96744875736119E-13,1.,0.));
#966=DIRECTION('',(-5.96744875736119E-13,1.,0.));
#967=DIRECTION('',(0.,0.,-1.));
#968=DIRECTION('',(5.96744875736119E-13,-1.,0.));
#969=DIRECTION('center_axis',(-3.61988217179089E-12,-1.,0.));
#970=DIRECTION('ref_axis',(-1.,3.61988217179089E-12,0.));
#971=DIRECTION('',(-1.,3.61988217179089E-12,0.));
#972=DIRECTION('',(1.,-3.61988217179089E-12,0.));
#973=DIRECTION('center_axis',(-1.30395694242225E-12,-1.,0.));
#974=DIRECTION('ref_axis',(-1.,1.30395694242225E-12,0.));
#975=DIRECTION('',(-1.,1.30395694242225E-12,0.));
#976=DIRECTION('',(0.,0.,-1.));
#977=DIRECTION('',(1.,-1.30395694242225E-12,0.));
#978=DIRECTION('',(0.,0.,-1.));
#979=DIRECTION('center_axis',(1.,-1.49880108325349E-13,0.));
#980=DIRECTION('ref_axis',(-1.49880108325349E-13,-1.,0.));
#981=DIRECTION('',(-1.49880108325349E-13,-1.,0.));
#982=DIRECTION('',(0.,0.,-1.));
#983=DIRECTION('',(1.49880108325349E-13,1.,0.));
#984=DIRECTION('center_axis',(3.85080856091215E-12,1.,0.));
#985=DIRECTION('ref_axis',(1.,-3.85080856091215E-12,0.));
#986=DIRECTION('',(1.,-3.85080856091215E-12,0.));
#987=DIRECTION('',(0.,0.,-1.));
#988=DIRECTION('',(-1.,3.85080856091215E-12,0.));
#989=DIRECTION('center_axis',(-1.,5.55111512312572E-15,0.));
#990=DIRECTION('ref_axis',(5.55111512312572E-15,1.,0.));
#991=DIRECTION('',(5.55111512312572E-15,1.,0.));
#992=DIRECTION('',(-5.55111512312572E-15,-1.,0.));
#993=DIRECTION('center_axis',(0.,0.,-1.));
#994=DIRECTION('ref_axis',(1.,0.,0.));
#995=DIRECTION('center_axis',(0.,0.,-1.));
#996=DIRECTION('ref_axis',(1.,0.,0.));
#997=DIRECTION('',(0.,0.,-1.));
#998=DIRECTION('center_axis',(0.,0.,1.));
#999=DIRECTION('ref_axis',(1.,0.,0.));
#1000=DIRECTION('center_axis',(-1.,3.03035374571314E-11,0.));
#1001=DIRECTION('ref_axis',(3.03035374571314E-11,1.,0.));
#1002=DIRECTION('',(3.03035374571314E-11,1.,0.));
#1003=DIRECTION('',(0.,0.,-1.));
#1004=DIRECTION('',(-3.03035374571314E-11,-1.,0.));
#1005=DIRECTION('',(0.,0.,-1.));
#1006=DIRECTION('center_axis',(-2.21767049166302E-12,-1.,0.));
#1007=DIRECTION('ref_axis',(-1.,2.21767049166302E-12,0.));
#1008=DIRECTION('',(-1.,2.21767049166302E-12,0.));
#1009=DIRECTION('',(0.,0.,-1.));
#1010=DIRECTION('',(1.,-2.21767049166302E-12,0.));
#1011=DIRECTION('center_axis',(1.,-1.67088565203992E-12,0.));
#1012=DIRECTION('ref_axis',(-1.67088565203992E-12,-1.,0.));
#1013=DIRECTION('',(-1.67088565203992E-12,-1.,0.));
#1014=DIRECTION('',(0.,0.,-1.));
#1015=DIRECTION('',(1.67088565203992E-12,1.,0.));
#1016=DIRECTION('center_axis',(-2.63400412592279E-12,1.,0.));
#1017=DIRECTION('ref_axis',(1.,2.63400412592279E-12,0.));
#1018=DIRECTION('',(1.,2.63400412592279E-12,0.));
#1019=DIRECTION('',(-1.,-2.63400412592279E-12,0.));
#1020=DIRECTION('center_axis',(-1.,1.85962356624713E-13,0.));
#1021=DIRECTION('ref_axis',(1.85962356624713E-13,1.,0.));
#1022=DIRECTION('',(1.85962356624713E-13,1.,0.));
#1023=DIRECTION('',(0.,0.,-1.));
#1024=DIRECTION('',(-1.85962356624713E-13,-1.,0.));
#1025=DIRECTION('',(0.,0.,-1.));
#1026=DIRECTION('center_axis',(-1.97619698383235E-13,-1.,0.));
#1027=DIRECTION('ref_axis',(-1.,1.97619698383235E-13,0.));
#1028=DIRECTION('',(-1.,1.97619698383235E-13,0.));
#1029=DIRECTION('',(0.,0.,-1.));
#1030=DIRECTION('',(1.,-1.97619698383235E-13,0.));
#1031=DIRECTION('center_axis',(1.,3.55271367879563E-13,0.));
#1032=DIRECTION('ref_axis',(3.55271367879563E-13,-1.,0.));
#1033=DIRECTION('',(3.55271367879563E-13,-1.,0.));
#1034=DIRECTION('',(0.,0.,-1.));
#1035=DIRECTION('',(-3.55271367879563E-13,1.,0.));
#1036=DIRECTION('center_axis',(-3.49720252756924E-13,1.,0.));
#1037=DIRECTION('ref_axis',(1.,3.49720252756924E-13,0.));
#1038=DIRECTION('',(1.,3.49720252756924E-13,0.));
#1039=DIRECTION('',(-1.,-3.49720252756924E-13,0.));
#1040=DIRECTION('center_axis',(0.,0.,-1.));
#1041=DIRECTION('ref_axis',(1.,6.16790569236198E-16,0.));
#1042=DIRECTION('center_axis',(0.,0.,-1.));
#1043=DIRECTION('ref_axis',(1.,6.16790569236198E-16,0.));
#1044=DIRECTION('',(0.,0.,-1.));
#1045=DIRECTION('center_axis',(0.,0.,1.));
#1046=DIRECTION('ref_axis',(1.,6.16790569236198E-16,0.));
#1047=DIRECTION('center_axis',(0.,1.,0.));
#1048=DIRECTION('ref_axis',(-1.,0.,0.));
#1049=DIRECTION('',(1.,0.,0.));
#1050=DIRECTION('',(0.,0.,1.));
#1051=DIRECTION('',(-1.,0.,0.));
#1052=DIRECTION('',(0.,0.,1.));
#1053=DIRECTION('center_axis',(1.,-2.368475785867E-16,0.));
#1054=DIRECTION('ref_axis',(2.368475785867E-16,1.,0.));
#1055=DIRECTION('',(-2.368475785867E-16,-1.,0.));
#1056=DIRECTION('',(2.368475785867E-16,1.,0.));
#1057=DIRECTION('',(0.,0.,1.));
#1058=DIRECTION('center_axis',(-4.31154572669964E-17,-1.,0.));
#1059=DIRECTION('ref_axis',(1.,-4.31154572669964E-17,0.));
#1060=DIRECTION('',(-1.,4.31154572669964E-17,0.));
#1061=DIRECTION('',(1.,-4.31154572669964E-17,0.));
#1062=DIRECTION('',(0.,0.,1.));
#1063=DIRECTION('center_axis',(1.,-2.27738056333365E-16,0.));
#1064=DIRECTION('ref_axis',(2.27738056333365E-16,1.,0.));
#1065=DIRECTION('',(2.27738056333365E-16,1.,0.));
#1066=DIRECTION('',(2.27738056333365E-16,1.,0.));
#1067=DIRECTION('',(0.,0.,1.));
#1068=DIRECTION('center_axis',(-4.44089209850063E-17,-1.,0.));
#1069=DIRECTION('ref_axis',(1.,-4.44089209850063E-17,0.));
#1070=DIRECTION('',(1.,-4.44089209850063E-17,0.));
#1071=DIRECTION('',(1.,-4.44089209850063E-17,0.));
#1072=DIRECTION('',(0.,0.,1.));
#1073=DIRECTION('center_axis',(-1.,-1.13869028166683E-16,0.));
#1074=DIRECTION('ref_axis',(1.13869028166683E-16,-1.,0.));
#1075=DIRECTION('',(1.13869028166683E-16,-1.,0.));
#1076=DIRECTION('',(1.13869028166683E-16,-1.,0.));
#1077=DIRECTION('',(0.,0.,1.));
#1078=DIRECTION('center_axis',(-4.31154572669964E-17,-1.,0.));
#1079=DIRECTION('ref_axis',(1.,-4.31154572669964E-17,0.));
#1080=DIRECTION('',(-1.,4.31154572669964E-17,0.));
#1081=DIRECTION('',(1.,-4.31154572669964E-17,0.));
#1082=DIRECTION('',(0.,0.,1.));
#1083=DIRECTION('center_axis',(-1.,-2.368475785867E-16,0.));
#1084=DIRECTION('ref_axis',(2.368475785867E-16,-1.,0.));
#1085=DIRECTION('',(-2.368475785867E-16,1.,0.));
#1086=DIRECTION('',(2.368475785867E-16,-1.,0.));
#1087=DIRECTION('',(0.,0.,1.));
#1088=DIRECTION('center_axis',(0.,1.,0.));
#1089=DIRECTION('ref_axis',(-1.,0.,0.));
#1090=DIRECTION('',(1.,0.,0.));
#1091=DIRECTION('',(-1.,0.,0.));
#1092=DIRECTION('',(0.,0.,1.));
#1093=DIRECTION('center_axis',(-1.,-1.13869028166683E-16,0.));
#1094=DIRECTION('ref_axis',(1.13869028166683E-16,-1.,0.));
#1095=DIRECTION('',(1.13869028166683E-16,-1.,0.));
#1096=DIRECTION('',(1.13869028166683E-16,-1.,0.));
#1097=DIRECTION('',(0.,0.,1.));
#1098=DIRECTION('center_axis',(-1.77635683940025E-16,1.,0.));
#1099=DIRECTION('ref_axis',(-1.,-1.77635683940025E-16,0.));
#1100=DIRECTION('',(-1.,-1.77635683940025E-16,0.));
#1101=DIRECTION('',(-1.,-1.77635683940025E-16,0.));
#1102=DIRECTION('',(0.,0.,1.));
#1103=DIRECTION('center_axis',(1.,-2.27738056333365E-16,0.));
#1104=DIRECTION('ref_axis',(2.27738056333365E-16,1.,0.));
#1105=DIRECTION('',(2.27738056333365E-16,1.,0.));
#1106=DIRECTION('',(2.27738056333365E-16,1.,0.));
#1107=DIRECTION('center_axis',(0.,0.,1.));
#1108=DIRECTION('ref_axis',(1.,0.,0.));
#1109=DIRECTION('center_axis',(0.,0.,1.));
#1110=DIRECTION('ref_axis',(1.,0.,0.));
#1111=CARTESIAN_POINT('',(0.,0.,0.));
#1112=CARTESIAN_POINT('Origin',(-83.,-15.,3.));
#1113=CARTESIAN_POINT('',(-83.,-15.,3.));
#1114=CARTESIAN_POINT('',(-83.,15.,3.));
#1115=CARTESIAN_POINT('',(-83.,-7.49999999999999,3.));
#1116=CARTESIAN_POINT('',(-83.,-15.,0.));
#1117=CARTESIAN_POINT('',(-83.,-15.,3.));
#1118=CARTESIAN_POINT('',(-83.,15.,0.));
#1119=CARTESIAN_POINT('',(-83.,-7.49999999999999,0.));
#1120=CARTESIAN_POINT('',(-83.,15.,3.));
#1121=CARTESIAN_POINT('Origin',(-78.,-15.,3.));
#1122=CARTESIAN_POINT('',(-78.,-20.,3.));
#1123=CARTESIAN_POINT('Origin',(-78.,-15.,3.));
#1124=CARTESIAN_POINT('',(-78.,-20.,0.));
#1125=CARTESIAN_POINT('',(-78.,-20.,3.));
#1126=CARTESIAN_POINT('Origin',(-78.,-15.,0.));
#1127=CARTESIAN_POINT('Origin',(-68.,-20.,3.));
#1128=CARTESIAN_POINT('',(-68.,-20.,3.));
#1129=CARTESIAN_POINT('',(-34.,-20.,3.));
#1130=CARTESIAN_POINT('',(-68.,-20.,0.));
#1131=CARTESIAN_POINT('',(-68.,-20.,3.));
#1132=CARTESIAN_POINT('',(-34.,-20.,0.));
#1133=CARTESIAN_POINT('Origin',(-68.,-15.,3.));
#1134=CARTESIAN_POINT('',(-63.,-15.,3.));
#1135=CARTESIAN_POINT('Origin',(-68.,-15.,3.));
#1136=CARTESIAN_POINT('',(-63.,-15.,0.));
#1137=CARTESIAN_POINT('',(-63.,-15.,3.));
#1138=CARTESIAN_POINT('Origin',(-68.,-15.,0.));
#1139=CARTESIAN_POINT('Origin',(-63.,15.,3.));
#1140=CARTESIAN_POINT('',(-63.,15.,3.));
#1141=CARTESIAN_POINT('',(-63.,7.5,3.));
#1142=CARTESIAN_POINT('',(-63.,15.,0.));
#1143=CARTESIAN_POINT('',(-63.,15.,3.));
#1144=CARTESIAN_POINT('',(-63.,7.5,0.));
#1145=CARTESIAN_POINT('Origin',(-68.,15.,3.));
#1146=CARTESIAN_POINT('',(-68.,20.,3.));
#1147=CARTESIAN_POINT('Origin',(-68.,15.,3.));
#1148=CARTESIAN_POINT('',(-68.,20.,0.));
#1149=CARTESIAN_POINT('',(-68.,20.,3.));
#1150=CARTESIAN_POINT('Origin',(-68.,15.,0.));
#1151=CARTESIAN_POINT('Origin',(-78.,20.,3.));
#1152=CARTESIAN_POINT('',(-78.,20.,3.));
#1153=CARTESIAN_POINT('',(-39.,20.,3.));
#1154=CARTESIAN_POINT('',(-78.,20.,0.));
#1155=CARTESIAN_POINT('',(-78.,20.,3.));
#1156=CARTESIAN_POINT('',(-39.,20.,0.));
#1157=CARTESIAN_POINT('Origin',(-78.,15.,3.));
#1158=CARTESIAN_POINT('Origin',(-78.,15.,3.));
#1159=CARTESIAN_POINT('Origin',(-78.,15.,0.));
#1160=CARTESIAN_POINT('Origin',(-34.3499999999998,19.5000000000137,3.));
#1161=CARTESIAN_POINT('',(-34.3499999999998,19.5000000000137,3.));
#1162=CARTESIAN_POINT('',(-34.35,17.9,3.));
#1163=CARTESIAN_POINT('',(-34.3500000000008,9.75000000000861,3.));
#1164=CARTESIAN_POINT('',(-34.3499999999998,19.5000000000137,0.));
#1165=CARTESIAN_POINT('',(-34.3499999999998,19.5000000000137,3.));
#1166=CARTESIAN_POINT('',(-34.35,17.9,0.));
#1167=CARTESIAN_POINT('',(-34.3500000000008,9.75000000000861,0.));
#1168=CARTESIAN_POINT('',(-34.35,17.9,3.));
#1169=CARTESIAN_POINT('Origin',(-38.3500000000003,19.5000000000142,3.));
#1170=CARTESIAN_POINT('',(-38.3500000000003,19.5000000000142,3.));
#1171=CARTESIAN_POINT('',(-19.1749999999988,19.5000000000116,3.));
#1172=CARTESIAN_POINT('',(-38.3500000000003,19.5000000000142,0.));
#1173=CARTESIAN_POINT('',(-38.3500000000003,19.5000000000142,3.));
#1174=CARTESIAN_POINT('',(-19.1749999999988,19.5000000000116,0.));
#1175=CARTESIAN_POINT('Origin',(-38.3499999999994,17.9000000000145,3.));
#1176=CARTESIAN_POINT('',(-38.3499999999994,17.9000000000145,3.));
#1177=CARTESIAN_POINT('',(-38.349999999994,8.9499999999958,3.));
#1178=CARTESIAN_POINT('',(-38.3499999999994,17.9000000000145,0.));
#1179=CARTESIAN_POINT('',(-38.3499999999994,17.9000000000145,3.));
#1180=CARTESIAN_POINT('',(-38.349999999994,8.9499999999958,0.));
#1181=CARTESIAN_POINT('Origin',(-34.35,17.9,3.));
#1182=CARTESIAN_POINT('',(-17.1749999999676,17.8999999999378,3.));
#1183=CARTESIAN_POINT('',(-17.1749999999676,17.8999999999378,0.));
#1184=CARTESIAN_POINT('Origin',(-49.4499999999391,-19.500000000001,3.));
#1185=CARTESIAN_POINT('',(-49.4499999999391,-19.500000000001,3.));
#1186=CARTESIAN_POINT('',(-53.4499999999391,-19.4999999999958,3.));
#1187=CARTESIAN_POINT('',(-24.7249999999823,-19.5000000000332,3.));
#1188=CARTESIAN_POINT('',(-49.4499999999391,-19.500000000001,0.));
#1189=CARTESIAN_POINT('',(-49.4499999999391,-19.500000000001,3.));
#1190=CARTESIAN_POINT('',(-53.4499999999391,-19.4999999999958,0.));
#1191=CARTESIAN_POINT('',(-24.7249999999823,-19.5000000000332,0.));
#1192=CARTESIAN_POINT('',(-53.4499999999391,-19.4999999999958,3.));
#1193=CARTESIAN_POINT('Origin',(-49.4499999999389,-17.9000000000112,3.));
#1194=CARTESIAN_POINT('',(-49.4499999999389,-17.9000000000112,3.));
#1195=CARTESIAN_POINT('',(-49.4499999999375,-8.95000000000187,3.));
#1196=CARTESIAN_POINT('',(-49.4499999999389,-17.9000000000112,0.));
#1197=CARTESIAN_POINT('',(-49.4499999999389,-17.9000000000112,3.));
#1198=CARTESIAN_POINT('',(-49.4499999999375,-8.95000000000187,0.));
#1199=CARTESIAN_POINT('Origin',(-53.4499999999391,-17.8999999999958,3.));
#1200=CARTESIAN_POINT('',(-53.4499999999391,-17.8999999999958,3.));
#1201=CARTESIAN_POINT('',(-26.725000000004,-17.9000000000987,3.));
#1202=CARTESIAN_POINT('',(-53.4499999999391,-17.8999999999958,0.));
#1203=CARTESIAN_POINT('',(-53.4499999999391,-17.8999999999958,3.));
#1204=CARTESIAN_POINT('',(-26.725000000004,-17.9000000000987,0.));
#1205=CARTESIAN_POINT('Origin',(-53.4499999999391,-19.4999999999958,3.));
#1206=CARTESIAN_POINT('',(-53.4499999999391,-9.74999999999773,3.));
#1207=CARTESIAN_POINT('',(-53.4499999999391,-9.74999999999773,0.));
#1208=CARTESIAN_POINT('Origin',(34.3500000000604,-10.5,3.));
#1209=CARTESIAN_POINT('',(32.5500000000605,-10.5,3.));
#1210=CARTESIAN_POINT('Origin',(34.3500000000604,-10.5,3.));
#1211=CARTESIAN_POINT('',(32.5500000000605,-10.5,-5.55111512312578E-16));
#1212=CARTESIAN_POINT('',(32.5500000000605,-10.5,3.));
#1213=CARTESIAN_POINT('Origin',(34.3500000000604,-10.5,0.));
#1214=CARTESIAN_POINT('Origin',(-53.4500000000496,17.9000000000106,3.));
#1215=CARTESIAN_POINT('',(-53.4500000000496,17.9000000000106,3.));
#1216=CARTESIAN_POINT('',(-53.4500000000012,19.5000000000112,3.));
#1217=CARTESIAN_POINT('',(-53.4500000003209,8.95000000081516,3.));
#1218=CARTESIAN_POINT('',(-53.4500000000496,17.9000000000106,0.));
#1219=CARTESIAN_POINT('',(-53.4500000000496,17.9000000000106,3.));
#1220=CARTESIAN_POINT('',(-53.4500000000012,19.5000000000112,0.));
#1221=CARTESIAN_POINT('',(-53.4500000003209,8.95000000081516,0.));
#1222=CARTESIAN_POINT('',(-53.4500000000012,19.5000000000112,3.));
#1223=CARTESIAN_POINT('Origin',(-49.4500000000032,17.9000000000017,3.));
#1224=CARTESIAN_POINT('',(-49.4500000000032,17.9000000000017,3.));
#1225=CARTESIAN_POINT('',(-24.7249999999818,17.8999999999469,3.));
#1226=CARTESIAN_POINT('',(-49.4500000000032,17.9000000000017,0.));
#1227=CARTESIAN_POINT('',(-49.4500000000032,17.9000000000017,3.));
#1228=CARTESIAN_POINT('',(-24.7249999999818,17.8999999999469,0.));
#1229=CARTESIAN_POINT('Origin',(-49.4500000000006,19.5000000000218,3.));
#1230=CARTESIAN_POINT('',(-49.4500000000006,19.5000000000218,3.));
#1231=CARTESIAN_POINT('',(-49.4500000000168,9.7500000000522,3.));
#1232=CARTESIAN_POINT('',(-49.4500000000006,19.5000000000218,0.));
#1233=CARTESIAN_POINT('',(-49.4500000000006,19.5000000000218,3.));
#1234=CARTESIAN_POINT('',(-49.4500000000168,9.7500000000522,0.));
#1235=CARTESIAN_POINT('Origin',(-53.4500000000012,19.5000000000112,3.));
#1236=CARTESIAN_POINT('',(-26.7250000000263,19.5000000000816,3.));
#1237=CARTESIAN_POINT('',(-26.7250000000263,19.5000000000816,0.));
#1238=CARTESIAN_POINT('Origin',(-38.3499999999399,-19.499999999988,3.));
#1239=CARTESIAN_POINT('',(-38.3499999999399,-19.499999999988,3.));
#1240=CARTESIAN_POINT('',(-38.3499999999396,-17.899999999988,3.));
#1241=CARTESIAN_POINT('',(-38.349999999938,-9.74999999999043,3.));
#1242=CARTESIAN_POINT('',(-38.3499999999399,-19.499999999988,0.));
#1243=CARTESIAN_POINT('',(-38.3499999999399,-19.499999999988,3.));
#1244=CARTESIAN_POINT('',(-38.3499999999396,-17.899999999988,0.));
#1245=CARTESIAN_POINT('',(-38.349999999938,-9.74999999999043,0.));
#1246=CARTESIAN_POINT('',(-38.3499999999396,-17.899999999988,3.));
#1247=CARTESIAN_POINT('Origin',(-34.349999999939,-19.4999999999888,3.));
#1248=CARTESIAN_POINT('',(-34.349999999939,-19.4999999999888,3.));
#1249=CARTESIAN_POINT('',(-17.1749999999714,-19.4999999999922,3.));
#1250=CARTESIAN_POINT('',(-34.349999999939,-19.4999999999888,0.));
#1251=CARTESIAN_POINT('',(-34.349999999939,-19.4999999999888,3.));
#1252=CARTESIAN_POINT('',(-17.1749999999714,-19.4999999999922,0.));
#1253=CARTESIAN_POINT('Origin',(-34.3499999999396,-17.8999999999866,3.));
#1254=CARTESIAN_POINT('',(-34.3499999999396,-17.8999999999866,3.));
#1255=CARTESIAN_POINT('',(-34.3499999999427,-8.9499999999994,3.));
#1256=CARTESIAN_POINT('',(-34.3499999999396,-17.8999999999866,0.));
#1257=CARTESIAN_POINT('',(-34.3499999999396,-17.8999999999866,3.));
#1258=CARTESIAN_POINT('',(-34.3499999999427,-8.9499999999994,0.));
#1259=CARTESIAN_POINT('Origin',(-38.3499999999396,-17.899999999988,3.));
#1260=CARTESIAN_POINT('',(-19.1749999999667,-17.8999999999813,3.));
#1261=CARTESIAN_POINT('',(-19.1749999999667,-17.8999999999813,0.));
#1262=CARTESIAN_POINT('Origin',(34.35,6.2,3.));
#1263=CARTESIAN_POINT('',(32.55,6.2,3.));
#1264=CARTESIAN_POINT('Origin',(34.35,6.2,3.));
#1265=CARTESIAN_POINT('',(32.55,6.2,-5.55111512312578E-16));
#1266=CARTESIAN_POINT('',(32.55,6.2,3.));
#1267=CARTESIAN_POINT('Origin',(34.35,6.2,0.));
#1268=CARTESIAN_POINT('Origin',(103.,75.,0.));
#1269=CARTESIAN_POINT('',(100.,75.,0.));
#1270=CARTESIAN_POINT('',(103.,75.,0.));
#1271=CARTESIAN_POINT('',(-103.,75.,0.));
#1272=CARTESIAN_POINT('',(100.,75.,3.));
#1273=CARTESIAN_POINT('',(100.,75.,0.));
#1274=CARTESIAN_POINT('',(103.,75.,3.));
#1275=CARTESIAN_POINT('',(-103.,75.,3.));
#1276=CARTESIAN_POINT('',(103.,75.,0.));
#1277=CARTESIAN_POINT('Origin',(103.,-75.,0.));
#1278=CARTESIAN_POINT('',(103.,-75.,0.));
#1279=CARTESIAN_POINT('',(103.,75.,0.));
#1280=CARTESIAN_POINT('',(103.,-75.,3.));
#1281=CARTESIAN_POINT('',(103.,75.,3.));
#1282=CARTESIAN_POINT('',(103.,-75.,0.));
#1283=CARTESIAN_POINT('Origin',(100.,-75.,0.));
#1284=CARTESIAN_POINT('',(100.,-75.,0.));
#1285=CARTESIAN_POINT('',(103.,-75.,0.));
#1286=CARTESIAN_POINT('',(100.,-75.,3.));
#1287=CARTESIAN_POINT('',(103.,-75.,3.));
#1288=CARTESIAN_POINT('',(100.,-75.,0.));
#1289=CARTESIAN_POINT('Origin',(100.,-78.,0.));
#1290=CARTESIAN_POINT('',(100.,-78.,0.));
#1291=CARTESIAN_POINT('',(100.,-78.,0.));
#1292=CARTESIAN_POINT('',(100.,-78.,3.));
#1293=CARTESIAN_POINT('',(100.,-78.,3.));
#1294=CARTESIAN_POINT('',(100.,-78.,0.));
#1295=CARTESIAN_POINT('Origin',(-100.,-78.,0.));
#1296=CARTESIAN_POINT('',(-100.,-78.,0.));
#1297=CARTESIAN_POINT('',(-100.,-78.,0.));
#1298=CARTESIAN_POINT('',(-100.,-78.,3.));
#1299=CARTESIAN_POINT('',(-100.,-78.,3.));
#1300=CARTESIAN_POINT('',(-100.,-78.,0.));
#1301=CARTESIAN_POINT('Origin',(-100.,-75.,0.));
#1302=CARTESIAN_POINT('',(-100.,-75.,0.));
#1303=CARTESIAN_POINT('',(-100.,78.,0.));
#1304=CARTESIAN_POINT('',(-100.,-75.,3.));
#1305=CARTESIAN_POINT('',(-100.,78.,3.));
#1306=CARTESIAN_POINT('',(-100.,-75.,0.));
#1307=CARTESIAN_POINT('Origin',(-103.,-75.,0.));
#1308=CARTESIAN_POINT('',(-103.,-75.,0.));
#1309=CARTESIAN_POINT('',(103.,-75.,0.));
#1310=CARTESIAN_POINT('',(-103.,-75.,3.));
#1311=CARTESIAN_POINT('',(103.,-75.,3.));
#1312=CARTESIAN_POINT('',(-103.,-75.,0.));
#1313=CARTESIAN_POINT('Origin',(-103.,75.,0.));
#1314=CARTESIAN_POINT('',(-103.,75.,0.));
#1315=CARTESIAN_POINT('',(-103.,-75.,0.));
#1316=CARTESIAN_POINT('',(-103.,75.,3.));
#1317=CARTESIAN_POINT('',(-103.,-75.,3.));
#1318=CARTESIAN_POINT('',(-103.,75.,0.));
#1319=CARTESIAN_POINT('Origin',(-100.,75.,0.));
#1320=CARTESIAN_POINT('',(-100.,75.,0.));
#1321=CARTESIAN_POINT('',(-103.,75.,0.));
#1322=CARTESIAN_POINT('',(-100.,75.,3.));
#1323=CARTESIAN_POINT('',(-103.,75.,3.));
#1324=CARTESIAN_POINT('',(-100.,75.,0.));
#1325=CARTESIAN_POINT('Origin',(-100.,78.,0.));
#1326=CARTESIAN_POINT('',(-100.,78.,0.));
#1327=CARTESIAN_POINT('',(-100.,78.,0.));
#1328=CARTESIAN_POINT('',(-100.,78.,3.));
#1329=CARTESIAN_POINT('',(-100.,78.,3.));
#1330=CARTESIAN_POINT('',(-100.,78.,0.));
#1331=CARTESIAN_POINT('Origin',(100.,78.,0.));
#1332=CARTESIAN_POINT('',(100.,78.,0.));
#1333=CARTESIAN_POINT('',(100.,78.,0.));
#1334=CARTESIAN_POINT('',(100.,78.,3.));
#1335=CARTESIAN_POINT('',(100.,78.,3.));
#1336=CARTESIAN_POINT('',(100.,78.,0.));
#1337=CARTESIAN_POINT('Origin',(100.,75.,0.));
#1338=CARTESIAN_POINT('',(100.,-78.,0.));
#1339=CARTESIAN_POINT('',(100.,-78.,3.));
#1340=CARTESIAN_POINT('Origin',(0.,8.88178419700125E-15,3.));
#1341=CARTESIAN_POINT('Origin',(0.,8.88178419700125E-15,0.));
#1342=UNCERTAINTY_MEASURE_WITH_UNIT(LENGTH_MEASURE(0.01),#1346,
'DISTANCE_ACCURACY_VALUE',
'Maximum model space distance between geometric entities at asserted c
onnectivities');
#1343=UNCERTAINTY_MEASURE_WITH_UNIT(LENGTH_MEASURE(0.01),#1346,
'DISTANCE_ACCURACY_VALUE',
'Maximum model space distance between geometric entities at asserted c
onnectivities');
#1344=(
GEOMETRIC_REPRESENTATION_CONTEXT(3)
GLOBAL_UNCERTAINTY_ASSIGNED_CONTEXT((#1342))
GLOBAL_UNIT_ASSIGNED_CONTEXT((#1346,#1348,#1349))
REPRESENTATION_CONTEXT('','3D')
);
#1345=(
GEOMETRIC_REPRESENTATION_CONTEXT(3)
GLOBAL_UNCERTAINTY_ASSIGNED_CONTEXT((#1343))
GLOBAL_UNIT_ASSIGNED_CONTEXT((#1346,#1348,#1349))
REPRESENTATION_CONTEXT('','3D')
);
#1346=(
LENGTH_UNIT()
NAMED_UNIT(*)
SI_UNIT(.MILLI.,.METRE.)
);
#1347=(
LENGTH_UNIT()
NAMED_UNIT(*)
SI_UNIT($,.METRE.)
);
#1348=(
NAMED_UNIT(*)
PLANE_ANGLE_UNIT()
SI_UNIT($,.RADIAN.)
);
#1349=(
NAMED_UNIT(*)
SI_UNIT($,.STERADIAN.)
SOLID_ANGLE_UNIT()
);
#1350=SHAPE_DEFINITION_REPRESENTATION(#1351,#1352);
#1351=PRODUCT_DEFINITION_SHAPE('',$,#1354);
#1352=SHAPE_REPRESENTATION('',(#850),#1344);
#1353=PRODUCT_DEFINITION_CONTEXT('part definition',#1358,'design');
#1354=PRODUCT_DEFINITION('PLATE_HV_BOTTOM','PLATE_HV_BOTTOM v7',#1355,#1353);
#1355=PRODUCT_DEFINITION_FORMATION('',$,#1360);
#1356=PRODUCT_RELATED_PRODUCT_CATEGORY('PLATE_HV_BOTTOM v7',
'PLATE_HV_BOTTOM v7',(#1360));
#1357=APPLICATION_PROTOCOL_DEFINITION('international standard',
'automotive_design',2009,#1358);
#1358=APPLICATION_CONTEXT(
'Core Data for Automotive Mechanical Design Process');
#1359=PRODUCT_CONTEXT('part definition',#1358,'mechanical');
#1360=PRODUCT('PLATE_HV_BOTTOM','PLATE_HV_BOTTOM v7',$,(#1359));
#1361=PRESENTATION_STYLE_ASSIGNMENT((#1363));
#1362=PRESENTATION_STYLE_ASSIGNMENT((#1364));
#1363=SURFACE_STYLE_USAGE(.BOTH.,#1365);
#1364=SURFACE_STYLE_USAGE(.BOTH.,#1366);
#1365=SURFACE_SIDE_STYLE('',(#1367));
#1366=SURFACE_SIDE_STYLE('',(#1368));
#1367=SURFACE_STYLE_FILL_AREA(#1369);
#1368=SURFACE_STYLE_FILL_AREA(#1370);
#1369=FILL_AREA_STYLE('Acier - Satin\X\E9',(#1371));
#1370=FILL_AREA_STYLE('Polycarbonate (transparent)',(#1372));
#1371=FILL_AREA_STYLE_COLOUR('Acier - Satin\X\E9',#1373);
#1372=FILL_AREA_STYLE_COLOUR('Polycarbonate (transparent)',#1374);
#1373=COLOUR_RGB('Acier - Satin\X\E9',0.627450980392157,0.627450980392157,
0.627450980392157);
#1374=COLOUR_RGB('Polycarbonate (transparent)',0.964705882352941,0.964705882352941,
0.952941176470588);
ENDSEC;
END-ISO-10303-21;
