ISO-10303-21;
HEADER;
/* Generated by software containing ST-Developer
 * from STEP Tools, Inc. (www.steptools.com) 
 */

FILE_DESCRIPTION(
/* description */ (''),
/* implementation_level */ '2;1');

FILE_NAME(
/* name */ 'PLATE_LV_TOP.step',
/* time_stamp */ '2026-08-10T14:31:29+02:00',
/* author */ (''),
/* organization */ (''),
/* preprocessor_version */ 'ST-DEVELOPER v20.1',
/* originating_system */ 'Autodesk Translation Framework v15.8.0.0',
/* authorisation */ '');

FILE_SCHEMA (('AUTOMOTIVE_DESIGN { 1 0 10303 214 3 1 1 }'));
ENDSEC;

DATA;
#10=MECHANICAL_DESIGN_GEOMETRIC_PRESENTATION_REPRESENTATION('',(#13),#1035);
#11=SHAPE_REPRESENTATION_RELATIONSHIP('SRR','None',#1042,#12);
#12=ADVANCED_BREP_SHAPE_REPRESENTATION('',(#14),#1034);
#13=STYLED_ITEM('',(#1052),#14);
#14=MANIFOLD_SOLID_BREP('Corps1',#623);
#15=FACE_BOUND('',#110,.T.);
#16=FACE_BOUND('',#111,.T.);
#17=FACE_BOUND('',#112,.T.);
#18=FACE_BOUND('',#113,.T.);
#19=FACE_BOUND('',#114,.T.);
#20=FACE_BOUND('',#115,.T.);
#21=FACE_BOUND('',#116,.T.);
#22=FACE_BOUND('',#117,.T.);
#23=FACE_BOUND('',#118,.T.);
#24=FACE_BOUND('',#120,.T.);
#25=FACE_BOUND('',#121,.T.);
#26=FACE_BOUND('',#122,.T.);
#27=FACE_BOUND('',#123,.T.);
#28=FACE_BOUND('',#124,.T.);
#29=FACE_BOUND('',#125,.T.);
#30=FACE_BOUND('',#126,.T.);
#31=FACE_BOUND('',#127,.T.);
#32=FACE_BOUND('',#128,.T.);
#33=PLANE('',#661);
#34=PLANE('',#665);
#35=PLANE('',#669);
#36=PLANE('',#673);
#37=PLANE('',#677);
#38=PLANE('',#678);
#39=PLANE('',#679);
#40=PLANE('',#680);
#41=PLANE('',#681);
#42=PLANE('',#682);
#43=PLANE('',#683);
#44=PLANE('',#684);
#45=PLANE('',#685);
#46=PLANE('',#686);
#47=PLANE('',#687);
#48=PLANE('',#688);
#49=PLANE('',#689);
#50=PLANE('',#690);
#51=FACE_OUTER_BOUND('',#81,.T.);
#52=FACE_OUTER_BOUND('',#82,.T.);
#53=FACE_OUTER_BOUND('',#83,.T.);
#54=FACE_OUTER_BOUND('',#84,.T.);
#55=FACE_OUTER_BOUND('',#85,.T.);
#56=FACE_OUTER_BOUND('',#86,.T.);
#57=FACE_OUTER_BOUND('',#87,.T.);
#58=FACE_OUTER_BOUND('',#88,.T.);
#59=FACE_OUTER_BOUND('',#89,.T.);
#60=FACE_OUTER_BOUND('',#90,.T.);
#61=FACE_OUTER_BOUND('',#91,.T.);
#62=FACE_OUTER_BOUND('',#92,.T.);
#63=FACE_OUTER_BOUND('',#93,.T.);
#64=FACE_OUTER_BOUND('',#94,.T.);
#65=FACE_OUTER_BOUND('',#95,.T.);
#66=FACE_OUTER_BOUND('',#96,.T.);
#67=FACE_OUTER_BOUND('',#97,.T.);
#68=FACE_OUTER_BOUND('',#98,.T.);
#69=FACE_OUTER_BOUND('',#99,.T.);
#70=FACE_OUTER_BOUND('',#100,.T.);
#71=FACE_OUTER_BOUND('',#101,.T.);
#72=FACE_OUTER_BOUND('',#102,.T.);
#73=FACE_OUTER_BOUND('',#103,.T.);
#74=FACE_OUTER_BOUND('',#104,.T.);
#75=FACE_OUTER_BOUND('',#105,.T.);
#76=FACE_OUTER_BOUND('',#106,.T.);
#77=FACE_OUTER_BOUND('',#107,.T.);
#78=FACE_OUTER_BOUND('',#108,.T.);
#79=FACE_OUTER_BOUND('',#109,.T.);
#80=FACE_OUTER_BOUND('',#119,.T.);
#81=EDGE_LOOP('',(#413,#414,#415,#416));
#82=EDGE_LOOP('',(#417,#418,#419,#420));
#83=EDGE_LOOP('',(#421,#422,#423,#424));
#84=EDGE_LOOP('',(#425,#426,#427,#428));
#85=EDGE_LOOP('',(#429,#430,#431,#432));
#86=EDGE_LOOP('',(#433,#434,#435,#436));
#87=EDGE_LOOP('',(#437,#438,#439,#440));
#88=EDGE_LOOP('',(#441,#442,#443,#444));
#89=EDGE_LOOP('',(#445,#446,#447,#448));
#90=EDGE_LOOP('',(#449,#450,#451,#452));
#91=EDGE_LOOP('',(#453,#454,#455,#456));
#92=EDGE_LOOP('',(#457,#458,#459,#460));
#93=EDGE_LOOP('',(#461,#462,#463,#464));
#94=EDGE_LOOP('',(#465,#466,#467,#468));
#95=EDGE_LOOP('',(#469,#470,#471,#472));
#96=EDGE_LOOP('',(#473,#474,#475,#476));
#97=EDGE_LOOP('',(#477,#478,#479,#480));
#98=EDGE_LOOP('',(#481,#482,#483,#484));
#99=EDGE_LOOP('',(#485,#486,#487,#488));
#100=EDGE_LOOP('',(#489,#490,#491,#492));
#101=EDGE_LOOP('',(#493,#494,#495,#496));
#102=EDGE_LOOP('',(#497,#498,#499,#500));
#103=EDGE_LOOP('',(#501,#502,#503,#504));
#104=EDGE_LOOP('',(#505,#506,#507,#508));
#105=EDGE_LOOP('',(#509,#510,#511,#512));
#106=EDGE_LOOP('',(#513,#514,#515,#516));
#107=EDGE_LOOP('',(#517,#518,#519,#520));
#108=EDGE_LOOP('',(#521,#522,#523,#524));
#109=EDGE_LOOP('',(#525,#526,#527,#528,#529,#530,#531,#532,#533,#534,#535,
#536));
#110=EDGE_LOOP('',(#537));
#111=EDGE_LOOP('',(#538));
#112=EDGE_LOOP('',(#539));
#113=EDGE_LOOP('',(#540));
#114=EDGE_LOOP('',(#541));
#115=EDGE_LOOP('',(#542));
#116=EDGE_LOOP('',(#543));
#117=EDGE_LOOP('',(#544));
#118=EDGE_LOOP('',(#545,#546,#547,#548,#549,#550,#551,#552));
#119=EDGE_LOOP('',(#553,#554,#555,#556,#557,#558,#559,#560,#561,#562,#563,
#564));
#120=EDGE_LOOP('',(#565));
#121=EDGE_LOOP('',(#566));
#122=EDGE_LOOP('',(#567));
#123=EDGE_LOOP('',(#568));
#124=EDGE_LOOP('',(#569));
#125=EDGE_LOOP('',(#570));
#126=EDGE_LOOP('',(#571));
#127=EDGE_LOOP('',(#572));
#128=EDGE_LOOP('',(#573,#574,#575,#576,#577,#578,#579,#580));
#129=LINE('',#866,#189);
#130=LINE('',#872,#190);
#131=LINE('',#878,#191);
#132=LINE('',#884,#192);
#133=LINE('',#890,#193);
#134=LINE('',#896,#194);
#135=LINE('',#902,#195);
#136=LINE('',#908,#196);
#137=LINE('',#913,#197);
#138=LINE('',#915,#198);
#139=LINE('',#917,#199);
#140=LINE('',#918,#200);
#141=LINE('',#923,#201);
#142=LINE('',#927,#202);
#143=LINE('',#929,#203);
#144=LINE('',#930,#204);
#145=LINE('',#935,#205);
#146=LINE('',#939,#206);
#147=LINE('',#941,#207);
#148=LINE('',#942,#208);
#149=LINE('',#947,#209);
#150=LINE('',#951,#210);
#151=LINE('',#953,#211);
#152=LINE('',#954,#212);
#153=LINE('',#961,#213);
#154=LINE('',#963,#214);
#155=LINE('',#965,#215);
#156=LINE('',#966,#216);
#157=LINE('',#969,#217);
#158=LINE('',#971,#218);
#159=LINE('',#972,#219);
#160=LINE('',#975,#220);
#161=LINE('',#977,#221);
#162=LINE('',#978,#222);
#163=LINE('',#981,#223);
#164=LINE('',#983,#224);
#165=LINE('',#984,#225);
#166=LINE('',#987,#226);
#167=LINE('',#989,#227);
#168=LINE('',#990,#228);
#169=LINE('',#993,#229);
#170=LINE('',#995,#230);
#171=LINE('',#996,#231);
#172=LINE('',#999,#232);
#173=LINE('',#1001,#233);
#174=LINE('',#1002,#234);
#175=LINE('',#1005,#235);
#176=LINE('',#1007,#236);
#177=LINE('',#1008,#237);
#178=LINE('',#1011,#238);
#179=LINE('',#1013,#239);
#180=LINE('',#1014,#240);
#181=LINE('',#1017,#241);
#182=LINE('',#1019,#242);
#183=LINE('',#1020,#243);
#184=LINE('',#1023,#244);
#185=LINE('',#1025,#245);
#186=LINE('',#1026,#246);
#187=LINE('',#1028,#247);
#188=LINE('',#1029,#248);
#189=VECTOR('',#697,1.7);
#190=VECTOR('',#704,1.6);
#191=VECTOR('',#711,1.6);
#192=VECTOR('',#718,1.7);
#193=VECTOR('',#725,1.7);
#194=VECTOR('',#732,1.6);
#195=VECTOR('',#739,1.6);
#196=VECTOR('',#746,1.7);
#197=VECTOR('',#751,10.);
#198=VECTOR('',#752,10.);
#199=VECTOR('',#753,10.);
#200=VECTOR('',#754,10.);
#201=VECTOR('',#759,10.);
#202=VECTOR('',#764,10.);
#203=VECTOR('',#765,10.);
#204=VECTOR('',#766,10.);
#205=VECTOR('',#771,10.);
#206=VECTOR('',#776,10.);
#207=VECTOR('',#777,10.);
#208=VECTOR('',#778,10.);
#209=VECTOR('',#783,10.);
#210=VECTOR('',#788,10.);
#211=VECTOR('',#789,10.);
#212=VECTOR('',#790,10.);
#213=VECTOR('',#799,10.);
#214=VECTOR('',#800,10.);
#215=VECTOR('',#801,10.);
#216=VECTOR('',#802,10.);
#217=VECTOR('',#805,10.);
#218=VECTOR('',#806,10.);
#219=VECTOR('',#807,10.);
#220=VECTOR('',#810,10.);
#221=VECTOR('',#811,10.);
#222=VECTOR('',#812,10.);
#223=VECTOR('',#815,10.);
#224=VECTOR('',#816,10.);
#225=VECTOR('',#817,10.);
#226=VECTOR('',#820,10.);
#227=VECTOR('',#821,10.);
#228=VECTOR('',#822,10.);
#229=VECTOR('',#825,10.);
#230=VECTOR('',#826,10.);
#231=VECTOR('',#827,10.);
#232=VECTOR('',#830,10.);
#233=VECTOR('',#831,10.);
#234=VECTOR('',#832,10.);
#235=VECTOR('',#835,10.);
#236=VECTOR('',#836,10.);
#237=VECTOR('',#837,10.);
#238=VECTOR('',#840,10.);
#239=VECTOR('',#841,10.);
#240=VECTOR('',#842,10.);
#241=VECTOR('',#845,10.);
#242=VECTOR('',#846,10.);
#243=VECTOR('',#847,10.);
#244=VECTOR('',#850,10.);
#245=VECTOR('',#851,10.);
#246=VECTOR('',#852,10.);
#247=VECTOR('',#855,10.);
#248=VECTOR('',#856,10.);
#249=CIRCLE('',#638,1.7);
#250=CIRCLE('',#639,1.7);
#251=CIRCLE('',#641,1.6);
#252=CIRCLE('',#642,1.6);
#253=CIRCLE('',#644,1.6);
#254=CIRCLE('',#645,1.6);
#255=CIRCLE('',#647,1.7);
#256=CIRCLE('',#648,1.7);
#257=CIRCLE('',#650,1.7);
#258=CIRCLE('',#651,1.7);
#259=CIRCLE('',#653,1.6);
#260=CIRCLE('',#654,1.6);
#261=CIRCLE('',#656,1.6);
#262=CIRCLE('',#657,1.6);
#263=CIRCLE('',#659,1.7);
#264=CIRCLE('',#660,1.7);
#265=CIRCLE('',#663,5.);
#266=CIRCLE('',#664,5.);
#267=CIRCLE('',#667,5.00000000000002);
#268=CIRCLE('',#668,5.00000000000002);
#269=CIRCLE('',#671,5.00000000000003);
#270=CIRCLE('',#672,5.00000000000003);
#271=CIRCLE('',#675,5.00000000000002);
#272=CIRCLE('',#676,5.00000000000002);
#273=VERTEX_POINT('',#863);
#274=VERTEX_POINT('',#865);
#275=VERTEX_POINT('',#869);
#276=VERTEX_POINT('',#871);
#277=VERTEX_POINT('',#875);
#278=VERTEX_POINT('',#877);
#279=VERTEX_POINT('',#881);
#280=VERTEX_POINT('',#883);
#281=VERTEX_POINT('',#887);
#282=VERTEX_POINT('',#889);
#283=VERTEX_POINT('',#893);
#284=VERTEX_POINT('',#895);
#285=VERTEX_POINT('',#899);
#286=VERTEX_POINT('',#901);
#287=VERTEX_POINT('',#905);
#288=VERTEX_POINT('',#907);
#289=VERTEX_POINT('',#911);
#290=VERTEX_POINT('',#912);
#291=VERTEX_POINT('',#914);
#292=VERTEX_POINT('',#916);
#293=VERTEX_POINT('',#920);
#294=VERTEX_POINT('',#922);
#295=VERTEX_POINT('',#926);
#296=VERTEX_POINT('',#928);
#297=VERTEX_POINT('',#932);
#298=VERTEX_POINT('',#934);
#299=VERTEX_POINT('',#938);
#300=VERTEX_POINT('',#940);
#301=VERTEX_POINT('',#944);
#302=VERTEX_POINT('',#946);
#303=VERTEX_POINT('',#950);
#304=VERTEX_POINT('',#952);
#305=VERTEX_POINT('',#959);
#306=VERTEX_POINT('',#960);
#307=VERTEX_POINT('',#962);
#308=VERTEX_POINT('',#964);
#309=VERTEX_POINT('',#968);
#310=VERTEX_POINT('',#970);
#311=VERTEX_POINT('',#974);
#312=VERTEX_POINT('',#976);
#313=VERTEX_POINT('',#980);
#314=VERTEX_POINT('',#982);
#315=VERTEX_POINT('',#986);
#316=VERTEX_POINT('',#988);
#317=VERTEX_POINT('',#992);
#318=VERTEX_POINT('',#994);
#319=VERTEX_POINT('',#998);
#320=VERTEX_POINT('',#1000);
#321=VERTEX_POINT('',#1004);
#322=VERTEX_POINT('',#1006);
#323=VERTEX_POINT('',#1010);
#324=VERTEX_POINT('',#1012);
#325=VERTEX_POINT('',#1016);
#326=VERTEX_POINT('',#1018);
#327=VERTEX_POINT('',#1022);
#328=VERTEX_POINT('',#1024);
#329=EDGE_CURVE('',#273,#273,#249,.T.);
#330=EDGE_CURVE('',#273,#274,#129,.T.);
#331=EDGE_CURVE('',#274,#274,#250,.T.);
#332=EDGE_CURVE('',#275,#275,#251,.T.);
#333=EDGE_CURVE('',#275,#276,#130,.T.);
#334=EDGE_CURVE('',#276,#276,#252,.T.);
#335=EDGE_CURVE('',#277,#277,#253,.T.);
#336=EDGE_CURVE('',#277,#278,#131,.T.);
#337=EDGE_CURVE('',#278,#278,#254,.T.);
#338=EDGE_CURVE('',#279,#279,#255,.T.);
#339=EDGE_CURVE('',#279,#280,#132,.T.);
#340=EDGE_CURVE('',#280,#280,#256,.T.);
#341=EDGE_CURVE('',#281,#281,#257,.T.);
#342=EDGE_CURVE('',#281,#282,#133,.T.);
#343=EDGE_CURVE('',#282,#282,#258,.T.);
#344=EDGE_CURVE('',#283,#283,#259,.T.);
#345=EDGE_CURVE('',#283,#284,#134,.T.);
#346=EDGE_CURVE('',#284,#284,#260,.T.);
#347=EDGE_CURVE('',#285,#285,#261,.T.);
#348=EDGE_CURVE('',#285,#286,#135,.T.);
#349=EDGE_CURVE('',#286,#286,#262,.T.);
#350=EDGE_CURVE('',#287,#287,#263,.T.);
#351=EDGE_CURVE('',#287,#288,#136,.T.);
#352=EDGE_CURVE('',#288,#288,#264,.T.);
#353=EDGE_CURVE('',#289,#290,#137,.T.);
#354=EDGE_CURVE('',#289,#291,#138,.T.);
#355=EDGE_CURVE('',#292,#291,#139,.T.);
#356=EDGE_CURVE('',#290,#292,#140,.T.);
#357=EDGE_CURVE('',#293,#289,#265,.T.);
#358=EDGE_CURVE('',#293,#294,#141,.T.);
#359=EDGE_CURVE('',#291,#294,#266,.T.);
#360=EDGE_CURVE('',#295,#293,#142,.T.);
#361=EDGE_CURVE('',#295,#296,#143,.T.);
#362=EDGE_CURVE('',#294,#296,#144,.T.);
#363=EDGE_CURVE('',#297,#295,#267,.T.);
#364=EDGE_CURVE('',#297,#298,#145,.T.);
#365=EDGE_CURVE('',#296,#298,#268,.T.);
#366=EDGE_CURVE('',#299,#297,#146,.T.);
#367=EDGE_CURVE('',#299,#300,#147,.T.);
#368=EDGE_CURVE('',#298,#300,#148,.T.);
#369=EDGE_CURVE('',#301,#299,#269,.T.);
#370=EDGE_CURVE('',#301,#302,#149,.T.);
#371=EDGE_CURVE('',#300,#302,#270,.T.);
#372=EDGE_CURVE('',#303,#301,#150,.T.);
#373=EDGE_CURVE('',#303,#304,#151,.T.);
#374=EDGE_CURVE('',#302,#304,#152,.T.);
#375=EDGE_CURVE('',#290,#303,#271,.T.);
#376=EDGE_CURVE('',#304,#292,#272,.T.);
#377=EDGE_CURVE('',#305,#306,#153,.T.);
#378=EDGE_CURVE('',#305,#307,#154,.T.);
#379=EDGE_CURVE('',#308,#307,#155,.T.);
#380=EDGE_CURVE('',#306,#308,#156,.T.);
#381=EDGE_CURVE('',#306,#309,#157,.T.);
#382=EDGE_CURVE('',#310,#308,#158,.T.);
#383=EDGE_CURVE('',#309,#310,#159,.T.);
#384=EDGE_CURVE('',#309,#311,#160,.T.);
#385=EDGE_CURVE('',#312,#310,#161,.T.);
#386=EDGE_CURVE('',#311,#312,#162,.T.);
#387=EDGE_CURVE('',#313,#311,#163,.T.);
#388=EDGE_CURVE('',#314,#312,#164,.T.);
#389=EDGE_CURVE('',#313,#314,#165,.T.);
#390=EDGE_CURVE('',#315,#313,#166,.T.);
#391=EDGE_CURVE('',#316,#314,#167,.T.);
#392=EDGE_CURVE('',#315,#316,#168,.T.);
#393=EDGE_CURVE('',#317,#315,#169,.T.);
#394=EDGE_CURVE('',#318,#316,#170,.T.);
#395=EDGE_CURVE('',#317,#318,#171,.T.);
#396=EDGE_CURVE('',#317,#319,#172,.T.);
#397=EDGE_CURVE('',#320,#318,#173,.T.);
#398=EDGE_CURVE('',#319,#320,#174,.T.);
#399=EDGE_CURVE('',#319,#321,#175,.T.);
#400=EDGE_CURVE('',#322,#320,#176,.T.);
#401=EDGE_CURVE('',#321,#322,#177,.T.);
#402=EDGE_CURVE('',#321,#323,#178,.T.);
#403=EDGE_CURVE('',#324,#322,#179,.T.);
#404=EDGE_CURVE('',#323,#324,#180,.T.);
#405=EDGE_CURVE('',#325,#323,#181,.T.);
#406=EDGE_CURVE('',#326,#324,#182,.T.);
#407=EDGE_CURVE('',#325,#326,#183,.T.);
#408=EDGE_CURVE('',#327,#325,#184,.T.);
#409=EDGE_CURVE('',#328,#326,#185,.T.);
#410=EDGE_CURVE('',#327,#328,#186,.T.);
#411=EDGE_CURVE('',#305,#327,#187,.T.);
#412=EDGE_CURVE('',#307,#328,#188,.T.);
#413=ORIENTED_EDGE('',*,*,#329,.F.);
#414=ORIENTED_EDGE('',*,*,#330,.T.);
#415=ORIENTED_EDGE('',*,*,#331,.F.);
#416=ORIENTED_EDGE('',*,*,#330,.F.);
#417=ORIENTED_EDGE('',*,*,#332,.F.);
#418=ORIENTED_EDGE('',*,*,#333,.T.);
#419=ORIENTED_EDGE('',*,*,#334,.F.);
#420=ORIENTED_EDGE('',*,*,#333,.F.);
#421=ORIENTED_EDGE('',*,*,#335,.F.);
#422=ORIENTED_EDGE('',*,*,#336,.T.);
#423=ORIENTED_EDGE('',*,*,#337,.F.);
#424=ORIENTED_EDGE('',*,*,#336,.F.);
#425=ORIENTED_EDGE('',*,*,#338,.F.);
#426=ORIENTED_EDGE('',*,*,#339,.T.);
#427=ORIENTED_EDGE('',*,*,#340,.F.);
#428=ORIENTED_EDGE('',*,*,#339,.F.);
#429=ORIENTED_EDGE('',*,*,#341,.F.);
#430=ORIENTED_EDGE('',*,*,#342,.T.);
#431=ORIENTED_EDGE('',*,*,#343,.F.);
#432=ORIENTED_EDGE('',*,*,#342,.F.);
#433=ORIENTED_EDGE('',*,*,#344,.F.);
#434=ORIENTED_EDGE('',*,*,#345,.T.);
#435=ORIENTED_EDGE('',*,*,#346,.F.);
#436=ORIENTED_EDGE('',*,*,#345,.F.);
#437=ORIENTED_EDGE('',*,*,#347,.F.);
#438=ORIENTED_EDGE('',*,*,#348,.T.);
#439=ORIENTED_EDGE('',*,*,#349,.F.);
#440=ORIENTED_EDGE('',*,*,#348,.F.);
#441=ORIENTED_EDGE('',*,*,#350,.F.);
#442=ORIENTED_EDGE('',*,*,#351,.T.);
#443=ORIENTED_EDGE('',*,*,#352,.F.);
#444=ORIENTED_EDGE('',*,*,#351,.F.);
#445=ORIENTED_EDGE('',*,*,#353,.F.);
#446=ORIENTED_EDGE('',*,*,#354,.T.);
#447=ORIENTED_EDGE('',*,*,#355,.F.);
#448=ORIENTED_EDGE('',*,*,#356,.F.);
#449=ORIENTED_EDGE('',*,*,#357,.F.);
#450=ORIENTED_EDGE('',*,*,#358,.T.);
#451=ORIENTED_EDGE('',*,*,#359,.F.);
#452=ORIENTED_EDGE('',*,*,#354,.F.);
#453=ORIENTED_EDGE('',*,*,#360,.F.);
#454=ORIENTED_EDGE('',*,*,#361,.T.);
#455=ORIENTED_EDGE('',*,*,#362,.F.);
#456=ORIENTED_EDGE('',*,*,#358,.F.);
#457=ORIENTED_EDGE('',*,*,#363,.F.);
#458=ORIENTED_EDGE('',*,*,#364,.T.);
#459=ORIENTED_EDGE('',*,*,#365,.F.);
#460=ORIENTED_EDGE('',*,*,#361,.F.);
#461=ORIENTED_EDGE('',*,*,#366,.F.);
#462=ORIENTED_EDGE('',*,*,#367,.T.);
#463=ORIENTED_EDGE('',*,*,#368,.F.);
#464=ORIENTED_EDGE('',*,*,#364,.F.);
#465=ORIENTED_EDGE('',*,*,#369,.F.);
#466=ORIENTED_EDGE('',*,*,#370,.T.);
#467=ORIENTED_EDGE('',*,*,#371,.F.);
#468=ORIENTED_EDGE('',*,*,#367,.F.);
#469=ORIENTED_EDGE('',*,*,#372,.F.);
#470=ORIENTED_EDGE('',*,*,#373,.T.);
#471=ORIENTED_EDGE('',*,*,#374,.F.);
#472=ORIENTED_EDGE('',*,*,#370,.F.);
#473=ORIENTED_EDGE('',*,*,#375,.F.);
#474=ORIENTED_EDGE('',*,*,#356,.T.);
#475=ORIENTED_EDGE('',*,*,#376,.F.);
#476=ORIENTED_EDGE('',*,*,#373,.F.);
#477=ORIENTED_EDGE('',*,*,#377,.F.);
#478=ORIENTED_EDGE('',*,*,#378,.T.);
#479=ORIENTED_EDGE('',*,*,#379,.F.);
#480=ORIENTED_EDGE('',*,*,#380,.F.);
#481=ORIENTED_EDGE('',*,*,#381,.F.);
#482=ORIENTED_EDGE('',*,*,#380,.T.);
#483=ORIENTED_EDGE('',*,*,#382,.F.);
#484=ORIENTED_EDGE('',*,*,#383,.F.);
#485=ORIENTED_EDGE('',*,*,#384,.F.);
#486=ORIENTED_EDGE('',*,*,#383,.T.);
#487=ORIENTED_EDGE('',*,*,#385,.F.);
#488=ORIENTED_EDGE('',*,*,#386,.F.);
#489=ORIENTED_EDGE('',*,*,#387,.T.);
#490=ORIENTED_EDGE('',*,*,#386,.T.);
#491=ORIENTED_EDGE('',*,*,#388,.F.);
#492=ORIENTED_EDGE('',*,*,#389,.F.);
#493=ORIENTED_EDGE('',*,*,#390,.T.);
#494=ORIENTED_EDGE('',*,*,#389,.T.);
#495=ORIENTED_EDGE('',*,*,#391,.F.);
#496=ORIENTED_EDGE('',*,*,#392,.F.);
#497=ORIENTED_EDGE('',*,*,#393,.T.);
#498=ORIENTED_EDGE('',*,*,#392,.T.);
#499=ORIENTED_EDGE('',*,*,#394,.F.);
#500=ORIENTED_EDGE('',*,*,#395,.F.);
#501=ORIENTED_EDGE('',*,*,#396,.F.);
#502=ORIENTED_EDGE('',*,*,#395,.T.);
#503=ORIENTED_EDGE('',*,*,#397,.F.);
#504=ORIENTED_EDGE('',*,*,#398,.F.);
#505=ORIENTED_EDGE('',*,*,#399,.F.);
#506=ORIENTED_EDGE('',*,*,#398,.T.);
#507=ORIENTED_EDGE('',*,*,#400,.F.);
#508=ORIENTED_EDGE('',*,*,#401,.F.);
#509=ORIENTED_EDGE('',*,*,#402,.F.);
#510=ORIENTED_EDGE('',*,*,#401,.T.);
#511=ORIENTED_EDGE('',*,*,#403,.F.);
#512=ORIENTED_EDGE('',*,*,#404,.F.);
#513=ORIENTED_EDGE('',*,*,#405,.T.);
#514=ORIENTED_EDGE('',*,*,#404,.T.);
#515=ORIENTED_EDGE('',*,*,#406,.F.);
#516=ORIENTED_EDGE('',*,*,#407,.F.);
#517=ORIENTED_EDGE('',*,*,#408,.T.);
#518=ORIENTED_EDGE('',*,*,#407,.T.);
#519=ORIENTED_EDGE('',*,*,#409,.F.);
#520=ORIENTED_EDGE('',*,*,#410,.F.);
#521=ORIENTED_EDGE('',*,*,#411,.T.);
#522=ORIENTED_EDGE('',*,*,#410,.T.);
#523=ORIENTED_EDGE('',*,*,#412,.F.);
#524=ORIENTED_EDGE('',*,*,#378,.F.);
#525=ORIENTED_EDGE('',*,*,#412,.T.);
#526=ORIENTED_EDGE('',*,*,#409,.T.);
#527=ORIENTED_EDGE('',*,*,#406,.T.);
#528=ORIENTED_EDGE('',*,*,#403,.T.);
#529=ORIENTED_EDGE('',*,*,#400,.T.);
#530=ORIENTED_EDGE('',*,*,#397,.T.);
#531=ORIENTED_EDGE('',*,*,#394,.T.);
#532=ORIENTED_EDGE('',*,*,#391,.T.);
#533=ORIENTED_EDGE('',*,*,#388,.T.);
#534=ORIENTED_EDGE('',*,*,#385,.T.);
#535=ORIENTED_EDGE('',*,*,#382,.T.);
#536=ORIENTED_EDGE('',*,*,#379,.T.);
#537=ORIENTED_EDGE('',*,*,#329,.T.);
#538=ORIENTED_EDGE('',*,*,#332,.T.);
#539=ORIENTED_EDGE('',*,*,#335,.T.);
#540=ORIENTED_EDGE('',*,*,#338,.T.);
#541=ORIENTED_EDGE('',*,*,#341,.T.);
#542=ORIENTED_EDGE('',*,*,#344,.T.);
#543=ORIENTED_EDGE('',*,*,#347,.T.);
#544=ORIENTED_EDGE('',*,*,#350,.T.);
#545=ORIENTED_EDGE('',*,*,#353,.T.);
#546=ORIENTED_EDGE('',*,*,#375,.T.);
#547=ORIENTED_EDGE('',*,*,#372,.T.);
#548=ORIENTED_EDGE('',*,*,#369,.T.);
#549=ORIENTED_EDGE('',*,*,#366,.T.);
#550=ORIENTED_EDGE('',*,*,#363,.T.);
#551=ORIENTED_EDGE('',*,*,#360,.T.);
#552=ORIENTED_EDGE('',*,*,#357,.T.);
#553=ORIENTED_EDGE('',*,*,#411,.F.);
#554=ORIENTED_EDGE('',*,*,#377,.T.);
#555=ORIENTED_EDGE('',*,*,#381,.T.);
#556=ORIENTED_EDGE('',*,*,#384,.T.);
#557=ORIENTED_EDGE('',*,*,#387,.F.);
#558=ORIENTED_EDGE('',*,*,#390,.F.);
#559=ORIENTED_EDGE('',*,*,#393,.F.);
#560=ORIENTED_EDGE('',*,*,#396,.T.);
#561=ORIENTED_EDGE('',*,*,#399,.T.);
#562=ORIENTED_EDGE('',*,*,#402,.T.);
#563=ORIENTED_EDGE('',*,*,#405,.F.);
#564=ORIENTED_EDGE('',*,*,#408,.F.);
#565=ORIENTED_EDGE('',*,*,#331,.T.);
#566=ORIENTED_EDGE('',*,*,#334,.T.);
#567=ORIENTED_EDGE('',*,*,#337,.T.);
#568=ORIENTED_EDGE('',*,*,#340,.T.);
#569=ORIENTED_EDGE('',*,*,#343,.T.);
#570=ORIENTED_EDGE('',*,*,#346,.T.);
#571=ORIENTED_EDGE('',*,*,#349,.T.);
#572=ORIENTED_EDGE('',*,*,#352,.T.);
#573=ORIENTED_EDGE('',*,*,#355,.T.);
#574=ORIENTED_EDGE('',*,*,#359,.T.);
#575=ORIENTED_EDGE('',*,*,#362,.T.);
#576=ORIENTED_EDGE('',*,*,#365,.T.);
#577=ORIENTED_EDGE('',*,*,#368,.T.);
#578=ORIENTED_EDGE('',*,*,#371,.T.);
#579=ORIENTED_EDGE('',*,*,#374,.T.);
#580=ORIENTED_EDGE('',*,*,#376,.T.);
#581=CYLINDRICAL_SURFACE('',#637,1.7);
#582=CYLINDRICAL_SURFACE('',#640,1.6);
#583=CYLINDRICAL_SURFACE('',#643,1.6);
#584=CYLINDRICAL_SURFACE('',#646,1.7);
#585=CYLINDRICAL_SURFACE('',#649,1.7);
#586=CYLINDRICAL_SURFACE('',#652,1.6);
#587=CYLINDRICAL_SURFACE('',#655,1.6);
#588=CYLINDRICAL_SURFACE('',#658,1.7);
#589=CYLINDRICAL_SURFACE('',#662,5.);
#590=CYLINDRICAL_SURFACE('',#666,5.00000000000002);
#591=CYLINDRICAL_SURFACE('',#670,5.00000000000003);
#592=CYLINDRICAL_SURFACE('',#674,5.00000000000002);
#593=ADVANCED_FACE('',(#51),#581,.F.);
#594=ADVANCED_FACE('',(#52),#582,.F.);
#595=ADVANCED_FACE('',(#53),#583,.F.);
#596=ADVANCED_FACE('',(#54),#584,.F.);
#597=ADVANCED_FACE('',(#55),#585,.F.);
#598=ADVANCED_FACE('',(#56),#586,.F.);
#599=ADVANCED_FACE('',(#57),#587,.F.);
#600=ADVANCED_FACE('',(#58),#588,.F.);
#601=ADVANCED_FACE('',(#59),#33,.F.);
#602=ADVANCED_FACE('',(#60),#589,.F.);
#603=ADVANCED_FACE('',(#61),#34,.F.);
#604=ADVANCED_FACE('',(#62),#590,.F.);
#605=ADVANCED_FACE('',(#63),#35,.F.);
#606=ADVANCED_FACE('',(#64),#591,.F.);
#607=ADVANCED_FACE('',(#65),#36,.F.);
#608=ADVANCED_FACE('',(#66),#592,.F.);
#609=ADVANCED_FACE('',(#67),#37,.T.);
#610=ADVANCED_FACE('',(#68),#38,.T.);
#611=ADVANCED_FACE('',(#69),#39,.T.);
#612=ADVANCED_FACE('',(#70),#40,.T.);
#613=ADVANCED_FACE('',(#71),#41,.T.);
#614=ADVANCED_FACE('',(#72),#42,.T.);
#615=ADVANCED_FACE('',(#73),#43,.T.);
#616=ADVANCED_FACE('',(#74),#44,.T.);
#617=ADVANCED_FACE('',(#75),#45,.T.);
#618=ADVANCED_FACE('',(#76),#46,.T.);
#619=ADVANCED_FACE('',(#77),#47,.T.);
#620=ADVANCED_FACE('',(#78),#48,.T.);
#621=ADVANCED_FACE('',(#79,#15,#16,#17,#18,#19,#20,#21,#22,#23),#49,.T.);
#622=ADVANCED_FACE('',(#80,#24,#25,#26,#27,#28,#29,#30,#31,#32),#50,.F.);
#623=CLOSED_SHELL('',(#593,#594,#595,#596,#597,#598,#599,#600,#601,#602,
#603,#604,#605,#606,#607,#608,#609,#610,#611,#612,#613,#614,#615,#616,#617,
#618,#619,#620,#621,#622));
#624=DERIVED_UNIT_ELEMENT(#626,1.);
#625=DERIVED_UNIT_ELEMENT(#1037,-3.);
#626=(
MASS_UNIT()
NAMED_UNIT(*)
SI_UNIT(.KILO.,.GRAM.)
);
#627=DERIVED_UNIT((#624,#625));
#628=MEASURE_REPRESENTATION_ITEM('density measure',
POSITIVE_RATIO_MEASURE(7850.),#627);
#629=PROPERTY_DEFINITION_REPRESENTATION(#634,#631);
#630=PROPERTY_DEFINITION_REPRESENTATION(#635,#632);
#631=REPRESENTATION('material name',(#633),#1034);
#632=REPRESENTATION('density',(#628),#1034);
#633=DESCRIPTIVE_REPRESENTATION_ITEM('Acier','Acier');
#634=PROPERTY_DEFINITION('material property','material name',#1044);
#635=PROPERTY_DEFINITION('material property','density of part',#1044);
#636=AXIS2_PLACEMENT_3D('',#861,#691,#692);
#637=AXIS2_PLACEMENT_3D('',#862,#693,#694);
#638=AXIS2_PLACEMENT_3D('',#864,#695,#696);
#639=AXIS2_PLACEMENT_3D('',#867,#698,#699);
#640=AXIS2_PLACEMENT_3D('',#868,#700,#701);
#641=AXIS2_PLACEMENT_3D('',#870,#702,#703);
#642=AXIS2_PLACEMENT_3D('',#873,#705,#706);
#643=AXIS2_PLACEMENT_3D('',#874,#707,#708);
#644=AXIS2_PLACEMENT_3D('',#876,#709,#710);
#645=AXIS2_PLACEMENT_3D('',#879,#712,#713);
#646=AXIS2_PLACEMENT_3D('',#880,#714,#715);
#647=AXIS2_PLACEMENT_3D('',#882,#716,#717);
#648=AXIS2_PLACEMENT_3D('',#885,#719,#720);
#649=AXIS2_PLACEMENT_3D('',#886,#721,#722);
#650=AXIS2_PLACEMENT_3D('',#888,#723,#724);
#651=AXIS2_PLACEMENT_3D('',#891,#726,#727);
#652=AXIS2_PLACEMENT_3D('',#892,#728,#729);
#653=AXIS2_PLACEMENT_3D('',#894,#730,#731);
#654=AXIS2_PLACEMENT_3D('',#897,#733,#734);
#655=AXIS2_PLACEMENT_3D('',#898,#735,#736);
#656=AXIS2_PLACEMENT_3D('',#900,#737,#738);
#657=AXIS2_PLACEMENT_3D('',#903,#740,#741);
#658=AXIS2_PLACEMENT_3D('',#904,#742,#743);
#659=AXIS2_PLACEMENT_3D('',#906,#744,#745);
#660=AXIS2_PLACEMENT_3D('',#909,#747,#748);
#661=AXIS2_PLACEMENT_3D('',#910,#749,#750);
#662=AXIS2_PLACEMENT_3D('',#919,#755,#756);
#663=AXIS2_PLACEMENT_3D('',#921,#757,#758);
#664=AXIS2_PLACEMENT_3D('',#924,#760,#761);
#665=AXIS2_PLACEMENT_3D('',#925,#762,#763);
#666=AXIS2_PLACEMENT_3D('',#931,#767,#768);
#667=AXIS2_PLACEMENT_3D('',#933,#769,#770);
#668=AXIS2_PLACEMENT_3D('',#936,#772,#773);
#669=AXIS2_PLACEMENT_3D('',#937,#774,#775);
#670=AXIS2_PLACEMENT_3D('',#943,#779,#780);
#671=AXIS2_PLACEMENT_3D('',#945,#781,#782);
#672=AXIS2_PLACEMENT_3D('',#948,#784,#785);
#673=AXIS2_PLACEMENT_3D('',#949,#786,#787);
#674=AXIS2_PLACEMENT_3D('',#955,#791,#792);
#675=AXIS2_PLACEMENT_3D('',#956,#793,#794);
#676=AXIS2_PLACEMENT_3D('',#957,#795,#796);
#677=AXIS2_PLACEMENT_3D('',#958,#797,#798);
#678=AXIS2_PLACEMENT_3D('',#967,#803,#804);
#679=AXIS2_PLACEMENT_3D('',#973,#808,#809);
#680=AXIS2_PLACEMENT_3D('',#979,#813,#814);
#681=AXIS2_PLACEMENT_3D('',#985,#818,#819);
#682=AXIS2_PLACEMENT_3D('',#991,#823,#824);
#683=AXIS2_PLACEMENT_3D('',#997,#828,#829);
#684=AXIS2_PLACEMENT_3D('',#1003,#833,#834);
#685=AXIS2_PLACEMENT_3D('',#1009,#838,#839);
#686=AXIS2_PLACEMENT_3D('',#1015,#843,#844);
#687=AXIS2_PLACEMENT_3D('',#1021,#848,#849);
#688=AXIS2_PLACEMENT_3D('',#1027,#853,#854);
#689=AXIS2_PLACEMENT_3D('',#1030,#857,#858);
#690=AXIS2_PLACEMENT_3D('',#1031,#859,#860);
#691=DIRECTION('axis',(0.,0.,1.));
#692=DIRECTION('refdir',(1.,0.,0.));
#693=DIRECTION('center_axis',(0.,0.,-1.));
#694=DIRECTION('ref_axis',(-1.,0.,0.));
#695=DIRECTION('center_axis',(0.,0.,-1.));
#696=DIRECTION('ref_axis',(-1.,0.,0.));
#697=DIRECTION('',(0.,0.,-1.));
#698=DIRECTION('center_axis',(0.,0.,1.));
#699=DIRECTION('ref_axis',(-1.,0.,0.));
#700=DIRECTION('center_axis',(0.,0.,-1.));
#701=DIRECTION('ref_axis',(-1.,0.,0.));
#702=DIRECTION('center_axis',(0.,0.,-1.));
#703=DIRECTION('ref_axis',(-1.,0.,0.));
#704=DIRECTION('',(0.,0.,-1.));
#705=DIRECTION('center_axis',(0.,0.,1.));
#706=DIRECTION('ref_axis',(-1.,0.,0.));
#707=DIRECTION('center_axis',(0.,0.,-1.));
#708=DIRECTION('ref_axis',(-1.,0.,0.));
#709=DIRECTION('center_axis',(0.,0.,-1.));
#710=DIRECTION('ref_axis',(-1.,0.,0.));
#711=DIRECTION('',(0.,0.,-1.));
#712=DIRECTION('center_axis',(0.,0.,1.));
#713=DIRECTION('ref_axis',(-1.,0.,0.));
#714=DIRECTION('center_axis',(0.,0.,-1.));
#715=DIRECTION('ref_axis',(-1.,0.,0.));
#716=DIRECTION('center_axis',(0.,0.,-1.));
#717=DIRECTION('ref_axis',(-1.,0.,0.));
#718=DIRECTION('',(0.,0.,-1.));
#719=DIRECTION('center_axis',(0.,0.,1.));
#720=DIRECTION('ref_axis',(-1.,0.,0.));
#721=DIRECTION('center_axis',(0.,0.,-1.));
#722=DIRECTION('ref_axis',(-1.,0.,0.));
#723=DIRECTION('center_axis',(0.,0.,-1.));
#724=DIRECTION('ref_axis',(-1.,0.,0.));
#725=DIRECTION('',(0.,0.,-1.));
#726=DIRECTION('center_axis',(0.,0.,1.));
#727=DIRECTION('ref_axis',(-1.,0.,0.));
#728=DIRECTION('center_axis',(0.,0.,-1.));
#729=DIRECTION('ref_axis',(-1.,0.,0.));
#730=DIRECTION('center_axis',(0.,0.,-1.));
#731=DIRECTION('ref_axis',(-1.,0.,0.));
#732=DIRECTION('',(0.,0.,-1.));
#733=DIRECTION('center_axis',(0.,0.,1.));
#734=DIRECTION('ref_axis',(-1.,0.,0.));
#735=DIRECTION('center_axis',(0.,0.,-1.));
#736=DIRECTION('ref_axis',(-1.,0.,0.));
#737=DIRECTION('center_axis',(0.,0.,-1.));
#738=DIRECTION('ref_axis',(-1.,0.,0.));
#739=DIRECTION('',(0.,0.,-1.));
#740=DIRECTION('center_axis',(0.,0.,1.));
#741=DIRECTION('ref_axis',(-1.,0.,0.));
#742=DIRECTION('center_axis',(0.,0.,-1.));
#743=DIRECTION('ref_axis',(-1.,0.,0.));
#744=DIRECTION('center_axis',(0.,0.,-1.));
#745=DIRECTION('ref_axis',(-1.,0.,0.));
#746=DIRECTION('',(0.,0.,-1.));
#747=DIRECTION('center_axis',(0.,0.,1.));
#748=DIRECTION('ref_axis',(-1.,0.,0.));
#749=DIRECTION('center_axis',(1.,0.,0.));
#750=DIRECTION('ref_axis',(0.,-1.,0.));
#751=DIRECTION('',(0.,-1.,0.));
#752=DIRECTION('',(0.,0.,-1.));
#753=DIRECTION('',(0.,1.,0.));
#754=DIRECTION('',(0.,0.,-1.));
#755=DIRECTION('center_axis',(0.,0.,-1.));
#756=DIRECTION('ref_axis',(1.,8.88178419700125E-16,0.));
#757=DIRECTION('center_axis',(0.,0.,-1.));
#758=DIRECTION('ref_axis',(1.,8.88178419700125E-16,0.));
#759=DIRECTION('',(0.,0.,-1.));
#760=DIRECTION('center_axis',(0.,0.,1.));
#761=DIRECTION('ref_axis',(1.,8.88178419700125E-16,0.));
#762=DIRECTION('center_axis',(8.88178419700126E-16,1.,0.));
#763=DIRECTION('ref_axis',(1.,-8.88178419700126E-16,0.));
#764=DIRECTION('',(1.,-8.88178419700126E-16,0.));
#765=DIRECTION('',(0.,0.,-1.));
#766=DIRECTION('',(-1.,8.88178419700126E-16,0.));
#767=DIRECTION('center_axis',(0.,0.,-1.));
#768=DIRECTION('ref_axis',(-3.55271367880049E-15,1.,0.));
#769=DIRECTION('center_axis',(0.,0.,-1.));
#770=DIRECTION('ref_axis',(-3.55271367880049E-15,1.,0.));
#771=DIRECTION('',(0.,0.,-1.));
#772=DIRECTION('center_axis',(0.,0.,1.));
#773=DIRECTION('ref_axis',(-3.55271367880049E-15,1.,0.));
#774=DIRECTION('center_axis',(-1.,0.,0.));
#775=DIRECTION('ref_axis',(0.,1.,0.));
#776=DIRECTION('',(0.,1.,0.));
#777=DIRECTION('',(0.,0.,-1.));
#778=DIRECTION('',(0.,-1.,0.));
#779=DIRECTION('center_axis',(0.,0.,-1.));
#780=DIRECTION('ref_axis',(-1.,-1.33226762955018E-15,0.));
#781=DIRECTION('center_axis',(0.,0.,-1.));
#782=DIRECTION('ref_axis',(-1.,-1.33226762955018E-15,0.));
#783=DIRECTION('',(0.,0.,-1.));
#784=DIRECTION('center_axis',(0.,0.,1.));
#785=DIRECTION('ref_axis',(-1.,-1.33226762955018E-15,0.));
#786=DIRECTION('center_axis',(2.22044604925032E-16,-1.,0.));
#787=DIRECTION('ref_axis',(-1.,-2.22044604925032E-16,0.));
#788=DIRECTION('',(-1.,-2.22044604925032E-16,0.));
#789=DIRECTION('',(0.,0.,-1.));
#790=DIRECTION('',(1.,2.22044604925032E-16,0.));
#791=DIRECTION('center_axis',(0.,0.,-1.));
#792=DIRECTION('ref_axis',(0.,-1.,0.));
#793=DIRECTION('center_axis',(0.,0.,-1.));
#794=DIRECTION('ref_axis',(0.,-1.,0.));
#795=DIRECTION('center_axis',(0.,0.,1.));
#796=DIRECTION('ref_axis',(0.,-1.,0.));
#797=DIRECTION('center_axis',(0.,1.,0.));
#798=DIRECTION('ref_axis',(-1.,0.,0.));
#799=DIRECTION('',(1.,0.,0.));
#800=DIRECTION('',(0.,0.,1.));
#801=DIRECTION('',(-1.,0.,0.));
#802=DIRECTION('',(0.,0.,1.));
#803=DIRECTION('center_axis',(1.,-2.368475785867E-16,0.));
#804=DIRECTION('ref_axis',(2.368475785867E-16,1.,0.));
#805=DIRECTION('',(-2.368475785867E-16,-1.,0.));
#806=DIRECTION('',(2.368475785867E-16,1.,0.));
#807=DIRECTION('',(0.,0.,1.));
#808=DIRECTION('center_axis',(-4.31154572669964E-17,-1.,0.));
#809=DIRECTION('ref_axis',(1.,-4.31154572669964E-17,0.));
#810=DIRECTION('',(-1.,4.31154572669964E-17,0.));
#811=DIRECTION('',(1.,-4.31154572669964E-17,0.));
#812=DIRECTION('',(0.,0.,1.));
#813=DIRECTION('center_axis',(1.,-2.27738056333365E-16,0.));
#814=DIRECTION('ref_axis',(2.27738056333365E-16,1.,0.));
#815=DIRECTION('',(2.27738056333365E-16,1.,0.));
#816=DIRECTION('',(2.27738056333365E-16,1.,0.));
#817=DIRECTION('',(0.,0.,1.));
#818=DIRECTION('center_axis',(-4.44089209850063E-17,-1.,0.));
#819=DIRECTION('ref_axis',(1.,-4.44089209850063E-17,0.));
#820=DIRECTION('',(1.,-4.44089209850063E-17,0.));
#821=DIRECTION('',(1.,-4.44089209850063E-17,0.));
#822=DIRECTION('',(0.,0.,1.));
#823=DIRECTION('center_axis',(-1.,0.,0.));
#824=DIRECTION('ref_axis',(0.,-1.,0.));
#825=DIRECTION('',(0.,-1.,0.));
#826=DIRECTION('',(0.,-1.,0.));
#827=DIRECTION('',(0.,0.,1.));
#828=DIRECTION('center_axis',(-4.31154572669964E-17,-1.,0.));
#829=DIRECTION('ref_axis',(1.,-4.31154572669964E-17,0.));
#830=DIRECTION('',(-1.,4.31154572669964E-17,0.));
#831=DIRECTION('',(1.,-4.31154572669964E-17,0.));
#832=DIRECTION('',(0.,0.,1.));
#833=DIRECTION('center_axis',(-1.,-2.368475785867E-16,0.));
#834=DIRECTION('ref_axis',(2.368475785867E-16,-1.,0.));
#835=DIRECTION('',(-2.368475785867E-16,1.,0.));
#836=DIRECTION('',(2.368475785867E-16,-1.,0.));
#837=DIRECTION('',(0.,0.,1.));
#838=DIRECTION('center_axis',(0.,1.,0.));
#839=DIRECTION('ref_axis',(-1.,0.,0.));
#840=DIRECTION('',(1.,0.,0.));
#841=DIRECTION('',(-1.,0.,0.));
#842=DIRECTION('',(0.,0.,1.));
#843=DIRECTION('center_axis',(-1.,0.,0.));
#844=DIRECTION('ref_axis',(0.,-1.,0.));
#845=DIRECTION('',(0.,-1.,0.));
#846=DIRECTION('',(0.,-1.,0.));
#847=DIRECTION('',(0.,0.,1.));
#848=DIRECTION('center_axis',(-2.22044604925031E-16,1.,0.));
#849=DIRECTION('ref_axis',(-1.,-2.22044604925031E-16,0.));
#850=DIRECTION('',(-1.,-2.22044604925031E-16,0.));
#851=DIRECTION('',(-1.,-2.22044604925031E-16,0.));
#852=DIRECTION('',(0.,0.,1.));
#853=DIRECTION('center_axis',(1.,-2.27738056333365E-16,0.));
#854=DIRECTION('ref_axis',(2.27738056333365E-16,1.,0.));
#855=DIRECTION('',(2.27738056333365E-16,1.,0.));
#856=DIRECTION('',(2.27738056333365E-16,1.,0.));
#857=DIRECTION('center_axis',(0.,0.,1.));
#858=DIRECTION('ref_axis',(1.,0.,0.));
#859=DIRECTION('center_axis',(0.,0.,1.));
#860=DIRECTION('ref_axis',(1.,0.,0.));
#861=CARTESIAN_POINT('',(0.,0.,0.));
#862=CARTESIAN_POINT('Origin',(2.49999999999997,-38.,3.));
#863=CARTESIAN_POINT('',(4.19999999999997,-38.,3.));
#864=CARTESIAN_POINT('Origin',(2.49999999999997,-38.,3.));
#865=CARTESIAN_POINT('',(4.19999999999997,-38.,0.));
#866=CARTESIAN_POINT('',(4.19999999999997,-38.,3.));
#867=CARTESIAN_POINT('Origin',(2.49999999999997,-38.,0.));
#868=CARTESIAN_POINT('Origin',(20.5,-48.,3.));
#869=CARTESIAN_POINT('',(22.1,-48.,3.));
#870=CARTESIAN_POINT('Origin',(20.5,-48.,3.));
#871=CARTESIAN_POINT('',(22.1,-48.,0.));
#872=CARTESIAN_POINT('',(22.1,-48.,3.));
#873=CARTESIAN_POINT('Origin',(20.5,-48.,0.));
#874=CARTESIAN_POINT('Origin',(20.5,27.,3.));
#875=CARTESIAN_POINT('',(22.1,27.,3.));
#876=CARTESIAN_POINT('Origin',(20.5,27.,3.));
#877=CARTESIAN_POINT('',(22.1,27.,0.));
#878=CARTESIAN_POINT('',(22.1,27.,3.));
#879=CARTESIAN_POINT('Origin',(20.5,27.,0.));
#880=CARTESIAN_POINT('Origin',(-67.,49.,3.));
#881=CARTESIAN_POINT('',(-65.3,49.,3.));
#882=CARTESIAN_POINT('Origin',(-67.,49.,3.));
#883=CARTESIAN_POINT('',(-65.3,49.,0.));
#884=CARTESIAN_POINT('',(-65.3,49.,3.));
#885=CARTESIAN_POINT('Origin',(-67.,49.,0.));
#886=CARTESIAN_POINT('Origin',(-67.,-49.,3.));
#887=CARTESIAN_POINT('',(-65.3,-49.,3.));
#888=CARTESIAN_POINT('Origin',(-67.,-49.,3.));
#889=CARTESIAN_POINT('',(-65.3,-49.,0.));
#890=CARTESIAN_POINT('',(-65.3,-49.,3.));
#891=CARTESIAN_POINT('Origin',(-67.,-49.,0.));
#892=CARTESIAN_POINT('Origin',(48.,-48.,3.));
#893=CARTESIAN_POINT('',(49.6,-48.,3.));
#894=CARTESIAN_POINT('Origin',(48.,-48.,3.));
#895=CARTESIAN_POINT('',(49.6,-48.,0.));
#896=CARTESIAN_POINT('',(49.6,-48.,3.));
#897=CARTESIAN_POINT('Origin',(48.,-48.,0.));
#898=CARTESIAN_POINT('Origin',(48.,27.,3.));
#899=CARTESIAN_POINT('',(49.6,27.,3.));
#900=CARTESIAN_POINT('Origin',(48.,27.,3.));
#901=CARTESIAN_POINT('',(49.6,27.,0.));
#902=CARTESIAN_POINT('',(49.6,27.,3.));
#903=CARTESIAN_POINT('Origin',(48.,27.,0.));
#904=CARTESIAN_POINT('Origin',(2.49999999999999,49.,3.));
#905=CARTESIAN_POINT('',(4.19999999999999,49.,3.));
#906=CARTESIAN_POINT('Origin',(2.49999999999999,49.,3.));
#907=CARTESIAN_POINT('',(4.19999999999999,49.,0.));
#908=CARTESIAN_POINT('',(4.19999999999999,49.,3.));
#909=CARTESIAN_POINT('Origin',(2.49999999999999,49.,0.));
#910=CARTESIAN_POINT('Origin',(83.,15.,3.));
#911=CARTESIAN_POINT('',(83.,15.,3.));
#912=CARTESIAN_POINT('',(83.,-15.,3.));
#913=CARTESIAN_POINT('',(83.,7.5,3.));
#914=CARTESIAN_POINT('',(83.,15.,0.));
#915=CARTESIAN_POINT('',(83.,15.,3.));
#916=CARTESIAN_POINT('',(83.,-15.,0.));
#917=CARTESIAN_POINT('',(83.,7.5,0.));
#918=CARTESIAN_POINT('',(83.,-15.,3.));
#919=CARTESIAN_POINT('Origin',(78.,15.,3.));
#920=CARTESIAN_POINT('',(78.,20.,3.));
#921=CARTESIAN_POINT('Origin',(78.,15.,3.));
#922=CARTESIAN_POINT('',(78.,20.,0.));
#923=CARTESIAN_POINT('',(78.,20.,3.));
#924=CARTESIAN_POINT('Origin',(78.,15.,0.));
#925=CARTESIAN_POINT('Origin',(68.,20.,3.));
#926=CARTESIAN_POINT('',(68.,20.,3.));
#927=CARTESIAN_POINT('',(34.,20.,3.));
#928=CARTESIAN_POINT('',(68.,20.,0.));
#929=CARTESIAN_POINT('',(68.,20.,3.));
#930=CARTESIAN_POINT('',(34.,20.,0.));
#931=CARTESIAN_POINT('Origin',(68.,15.,3.));
#932=CARTESIAN_POINT('',(63.,15.,3.));
#933=CARTESIAN_POINT('Origin',(68.,15.,3.));
#934=CARTESIAN_POINT('',(63.,15.,0.));
#935=CARTESIAN_POINT('',(63.,15.,3.));
#936=CARTESIAN_POINT('Origin',(68.,15.,0.));
#937=CARTESIAN_POINT('Origin',(63.,-15.,3.));
#938=CARTESIAN_POINT('',(63.,-15.,3.));
#939=CARTESIAN_POINT('',(63.,-7.49999999999998,3.));
#940=CARTESIAN_POINT('',(63.,-15.,0.));
#941=CARTESIAN_POINT('',(63.,-15.,3.));
#942=CARTESIAN_POINT('',(63.,-7.49999999999998,0.));
#943=CARTESIAN_POINT('Origin',(68.,-15.,3.));
#944=CARTESIAN_POINT('',(68.,-20.,3.));
#945=CARTESIAN_POINT('Origin',(68.,-15.,3.));
#946=CARTESIAN_POINT('',(68.,-20.,0.));
#947=CARTESIAN_POINT('',(68.,-20.,3.));
#948=CARTESIAN_POINT('Origin',(68.,-15.,0.));
#949=CARTESIAN_POINT('Origin',(78.,-20.,3.));
#950=CARTESIAN_POINT('',(78.,-20.,3.));
#951=CARTESIAN_POINT('',(39.,-20.,3.));
#952=CARTESIAN_POINT('',(78.,-20.,0.));
#953=CARTESIAN_POINT('',(78.,-20.,3.));
#954=CARTESIAN_POINT('',(39.,-20.,0.));
#955=CARTESIAN_POINT('Origin',(78.,-15.,3.));
#956=CARTESIAN_POINT('Origin',(78.,-15.,3.));
#957=CARTESIAN_POINT('Origin',(78.,-15.,0.));
#958=CARTESIAN_POINT('Origin',(103.,75.,0.));
#959=CARTESIAN_POINT('',(100.,75.,0.));
#960=CARTESIAN_POINT('',(103.,75.,0.));
#961=CARTESIAN_POINT('',(-103.,75.,0.));
#962=CARTESIAN_POINT('',(100.,75.,3.));
#963=CARTESIAN_POINT('',(100.,75.,0.));
#964=CARTESIAN_POINT('',(103.,75.,3.));
#965=CARTESIAN_POINT('',(-103.,75.,3.));
#966=CARTESIAN_POINT('',(103.,75.,0.));
#967=CARTESIAN_POINT('Origin',(103.,-75.,0.));
#968=CARTESIAN_POINT('',(103.,-75.,0.));
#969=CARTESIAN_POINT('',(103.,75.,0.));
#970=CARTESIAN_POINT('',(103.,-75.,3.));
#971=CARTESIAN_POINT('',(103.,75.,3.));
#972=CARTESIAN_POINT('',(103.,-75.,0.));
#973=CARTESIAN_POINT('Origin',(100.,-75.,0.));
#974=CARTESIAN_POINT('',(100.,-75.,0.));
#975=CARTESIAN_POINT('',(103.,-75.,0.));
#976=CARTESIAN_POINT('',(100.,-75.,3.));
#977=CARTESIAN_POINT('',(103.,-75.,3.));
#978=CARTESIAN_POINT('',(100.,-75.,0.));
#979=CARTESIAN_POINT('Origin',(100.,-78.,0.));
#980=CARTESIAN_POINT('',(100.,-78.,0.));
#981=CARTESIAN_POINT('',(100.,-78.,0.));
#982=CARTESIAN_POINT('',(100.,-78.,3.));
#983=CARTESIAN_POINT('',(100.,-78.,3.));
#984=CARTESIAN_POINT('',(100.,-78.,0.));
#985=CARTESIAN_POINT('Origin',(-100.,-78.,0.));
#986=CARTESIAN_POINT('',(-100.,-78.,0.));
#987=CARTESIAN_POINT('',(-100.,-78.,0.));
#988=CARTESIAN_POINT('',(-100.,-78.,3.));
#989=CARTESIAN_POINT('',(-100.,-78.,3.));
#990=CARTESIAN_POINT('',(-100.,-78.,0.));
#991=CARTESIAN_POINT('Origin',(-100.,-75.,0.));
#992=CARTESIAN_POINT('',(-100.,-75.,0.));
#993=CARTESIAN_POINT('',(-100.,78.,0.));
#994=CARTESIAN_POINT('',(-100.,-75.,3.));
#995=CARTESIAN_POINT('',(-100.,78.,3.));
#996=CARTESIAN_POINT('',(-100.,-75.,0.));
#997=CARTESIAN_POINT('Origin',(-103.,-75.,0.));
#998=CARTESIAN_POINT('',(-103.,-75.,0.));
#999=CARTESIAN_POINT('',(103.,-75.,0.));
#1000=CARTESIAN_POINT('',(-103.,-75.,3.));
#1001=CARTESIAN_POINT('',(103.,-75.,3.));
#1002=CARTESIAN_POINT('',(-103.,-75.,0.));
#1003=CARTESIAN_POINT('Origin',(-103.,75.,0.));
#1004=CARTESIAN_POINT('',(-103.,75.,0.));
#1005=CARTESIAN_POINT('',(-103.,-75.,0.));
#1006=CARTESIAN_POINT('',(-103.,75.,3.));
#1007=CARTESIAN_POINT('',(-103.,-75.,3.));
#1008=CARTESIAN_POINT('',(-103.,75.,0.));
#1009=CARTESIAN_POINT('Origin',(-100.,75.,0.));
#1010=CARTESIAN_POINT('',(-100.,75.,0.));
#1011=CARTESIAN_POINT('',(-103.,75.,0.));
#1012=CARTESIAN_POINT('',(-100.,75.,3.));
#1013=CARTESIAN_POINT('',(-103.,75.,3.));
#1014=CARTESIAN_POINT('',(-100.,75.,0.));
#1015=CARTESIAN_POINT('Origin',(-100.,78.,0.));
#1016=CARTESIAN_POINT('',(-100.,78.,0.));
#1017=CARTESIAN_POINT('',(-100.,78.,0.));
#1018=CARTESIAN_POINT('',(-100.,78.,3.));
#1019=CARTESIAN_POINT('',(-100.,78.,3.));
#1020=CARTESIAN_POINT('',(-100.,78.,0.));
#1021=CARTESIAN_POINT('Origin',(100.,78.,0.));
#1022=CARTESIAN_POINT('',(100.,78.,0.));
#1023=CARTESIAN_POINT('',(100.,78.,0.));
#1024=CARTESIAN_POINT('',(100.,78.,3.));
#1025=CARTESIAN_POINT('',(100.,78.,3.));
#1026=CARTESIAN_POINT('',(100.,78.,0.));
#1027=CARTESIAN_POINT('Origin',(100.,75.,0.));
#1028=CARTESIAN_POINT('',(100.,-78.,0.));
#1029=CARTESIAN_POINT('',(100.,-78.,3.));
#1030=CARTESIAN_POINT('Origin',(0.,8.88178419700125E-15,3.));
#1031=CARTESIAN_POINT('Origin',(0.,8.88178419700125E-15,0.));
#1032=UNCERTAINTY_MEASURE_WITH_UNIT(LENGTH_MEASURE(0.01),#1036,
'DISTANCE_ACCURACY_VALUE',
'Maximum model space distance between geometric entities at asserted c
onnectivities');
#1033=UNCERTAINTY_MEASURE_WITH_UNIT(LENGTH_MEASURE(0.01),#1036,
'DISTANCE_ACCURACY_VALUE',
'Maximum model space distance between geometric entities at asserted c
onnectivities');
#1034=(
GEOMETRIC_REPRESENTATION_CONTEXT(3)
GLOBAL_UNCERTAINTY_ASSIGNED_CONTEXT((#1032))
GLOBAL_UNIT_ASSIGNED_CONTEXT((#1036,#1038,#1039))
REPRESENTATION_CONTEXT('','3D')
);
#1035=(
GEOMETRIC_REPRESENTATION_CONTEXT(3)
GLOBAL_UNCERTAINTY_ASSIGNED_CONTEXT((#1033))
GLOBAL_UNIT_ASSIGNED_CONTEXT((#1036,#1038,#1039))
REPRESENTATION_CONTEXT('','3D')
);
#1036=(
LENGTH_UNIT()
NAMED_UNIT(*)
SI_UNIT(.MILLI.,.METRE.)
);
#1037=(
LENGTH_UNIT()
NAMED_UNIT(*)
SI_UNIT($,.METRE.)
);
#1038=(
NAMED_UNIT(*)
PLANE_ANGLE_UNIT()
SI_UNIT($,.RADIAN.)
);
#1039=(
NAMED_UNIT(*)
SI_UNIT($,.STERADIAN.)
SOLID_ANGLE_UNIT()
);
#1040=SHAPE_DEFINITION_REPRESENTATION(#1041,#1042);
#1041=PRODUCT_DEFINITION_SHAPE('',$,#1044);
#1042=SHAPE_REPRESENTATION('',(#636),#1034);
#1043=PRODUCT_DEFINITION_CONTEXT('part definition',#1048,'design');
#1044=PRODUCT_DEFINITION('PLATE_LV_TOP','PLATE_LV_TOP v13',#1045,#1043);
#1045=PRODUCT_DEFINITION_FORMATION('',$,#1050);
#1046=PRODUCT_RELATED_PRODUCT_CATEGORY('PLATE_LV_TOP v13',
'PLATE_LV_TOP v13',(#1050));
#1047=APPLICATION_PROTOCOL_DEFINITION('international standard',
'automotive_design',2009,#1048);
#1048=APPLICATION_CONTEXT(
'Core Data for Automotive Mechanical Design Process');
#1049=PRODUCT_CONTEXT('part definition',#1048,'mechanical');
#1050=PRODUCT('PLATE_LV_TOP','PLATE_LV_TOP v13',$,(#1049));
#1051=PRESENTATION_STYLE_ASSIGNMENT((#1053));
#1052=PRESENTATION_STYLE_ASSIGNMENT((#1054));
#1053=SURFACE_STYLE_USAGE(.BOTH.,#1055);
#1054=SURFACE_STYLE_USAGE(.BOTH.,#1056);
#1055=SURFACE_SIDE_STYLE('',(#1057));
#1056=SURFACE_SIDE_STYLE('',(#1058));
#1057=SURFACE_STYLE_FILL_AREA(#1059);
#1058=SURFACE_STYLE_FILL_AREA(#1060);
#1059=FILL_AREA_STYLE('Acier - Satin\X\E9',(#1061));
#1060=FILL_AREA_STYLE('Polycarbonate (transparent)',(#1062));
#1061=FILL_AREA_STYLE_COLOUR('Acier - Satin\X\E9',#1063);
#1062=FILL_AREA_STYLE_COLOUR('Polycarbonate (transparent)',#1064);
#1063=COLOUR_RGB('Acier - Satin\X\E9',0.627450980392157,0.627450980392157,
0.627450980392157);
#1064=COLOUR_RGB('Polycarbonate (transparent)',0.964705882352941,0.964705882352941,
0.952941176470588);
ENDSEC;
END-ISO-10303-21;
