ISO-10303-21;
HEADER;
/* Generated by software containing ST-Developer
 * from STEP Tools, Inc. (www.steptools.com) 
 */

FILE_DESCRIPTION(
/* description */ (''),
/* implementation_level */ '2;1');

FILE_NAME(
/* name */ 'PLATE_LV_SIDE_CON.step',
/* time_stamp */ '2026-08-10T14:31:27+02:00',
/* author */ (''),
/* organization */ (''),
/* preprocessor_version */ 'ST-DEVELOPER v20.1',
/* originating_system */ 'Autodesk Translation Framework v15.8.0.0',
/* authorisation */ '');

FILE_SCHEMA (('AUTOMOTIVE_DESIGN { 1 0 10303 214 3 1 1 }'));
ENDSEC;

DATA;
#10=MECHANICAL_DESIGN_GEOMETRIC_PRESENTATION_REPRESENTATION('',(#13),#1388);
#11=SHAPE_REPRESENTATION_RELATIONSHIP('SRR','None',#1395,#12);
#12=ADVANCED_BREP_SHAPE_REPRESENTATION('',(#14),#1387);
#13=STYLED_ITEM('',(#1405),#14);
#14=MANIFOLD_SOLID_BREP('Corps1',#864);
#15=FACE_BOUND('',#148,.T.);
#16=FACE_BOUND('',#149,.T.);
#17=FACE_BOUND('',#150,.T.);
#18=FACE_BOUND('',#151,.T.);
#19=FACE_BOUND('',#152,.T.);
#20=FACE_BOUND('',#153,.T.);
#21=FACE_BOUND('',#154,.T.);
#22=FACE_BOUND('',#155,.T.);
#23=FACE_BOUND('',#156,.T.);
#24=FACE_BOUND('',#158,.T.);
#25=FACE_BOUND('',#159,.T.);
#26=FACE_BOUND('',#160,.T.);
#27=FACE_BOUND('',#161,.T.);
#28=FACE_BOUND('',#162,.T.);
#29=FACE_BOUND('',#163,.T.);
#30=FACE_BOUND('',#164,.T.);
#31=FACE_BOUND('',#165,.T.);
#32=FACE_BOUND('',#166,.T.);
#33=PLANE('',#896);
#34=PLANE('',#897);
#35=PLANE('',#898);
#36=PLANE('',#899);
#37=PLANE('',#900);
#38=PLANE('',#901);
#39=PLANE('',#902);
#40=PLANE('',#903);
#41=PLANE('',#907);
#42=PLANE('',#908);
#43=PLANE('',#909);
#44=PLANE('',#910);
#45=PLANE('',#911);
#46=PLANE('',#912);
#47=PLANE('',#913);
#48=PLANE('',#914);
#49=PLANE('',#915);
#50=PLANE('',#916);
#51=PLANE('',#917);
#52=PLANE('',#918);
#53=PLANE('',#919);
#54=PLANE('',#920);
#55=PLANE('',#921);
#56=PLANE('',#922);
#57=PLANE('',#923);
#58=PLANE('',#924);
#59=PLANE('',#925);
#60=PLANE('',#926);
#61=PLANE('',#927);
#62=PLANE('',#928);
#63=PLANE('',#929);
#64=PLANE('',#930);
#65=PLANE('',#931);
#66=PLANE('',#932);
#67=FACE_OUTER_BOUND('',#108,.T.);
#68=FACE_OUTER_BOUND('',#109,.T.);
#69=FACE_OUTER_BOUND('',#110,.T.);
#70=FACE_OUTER_BOUND('',#111,.T.);
#71=FACE_OUTER_BOUND('',#112,.T.);
#72=FACE_OUTER_BOUND('',#113,.T.);
#73=FACE_OUTER_BOUND('',#114,.T.);
#74=FACE_OUTER_BOUND('',#115,.T.);
#75=FACE_OUTER_BOUND('',#116,.T.);
#76=FACE_OUTER_BOUND('',#117,.T.);
#77=FACE_OUTER_BOUND('',#118,.T.);
#78=FACE_OUTER_BOUND('',#119,.T.);
#79=FACE_OUTER_BOUND('',#120,.T.);
#80=FACE_OUTER_BOUND('',#121,.T.);
#81=FACE_OUTER_BOUND('',#122,.T.);
#82=FACE_OUTER_BOUND('',#123,.T.);
#83=FACE_OUTER_BOUND('',#124,.T.);
#84=FACE_OUTER_BOUND('',#125,.T.);
#85=FACE_OUTER_BOUND('',#126,.T.);
#86=FACE_OUTER_BOUND('',#127,.T.);
#87=FACE_OUTER_BOUND('',#128,.T.);
#88=FACE_OUTER_BOUND('',#129,.T.);
#89=FACE_OUTER_BOUND('',#130,.T.);
#90=FACE_OUTER_BOUND('',#131,.T.);
#91=FACE_OUTER_BOUND('',#132,.T.);
#92=FACE_OUTER_BOUND('',#133,.T.);
#93=FACE_OUTER_BOUND('',#134,.T.);
#94=FACE_OUTER_BOUND('',#135,.T.);
#95=FACE_OUTER_BOUND('',#136,.T.);
#96=FACE_OUTER_BOUND('',#137,.T.);
#97=FACE_OUTER_BOUND('',#138,.T.);
#98=FACE_OUTER_BOUND('',#139,.T.);
#99=FACE_OUTER_BOUND('',#140,.T.);
#100=FACE_OUTER_BOUND('',#141,.T.);
#101=FACE_OUTER_BOUND('',#142,.T.);
#102=FACE_OUTER_BOUND('',#143,.T.);
#103=FACE_OUTER_BOUND('',#144,.T.);
#104=FACE_OUTER_BOUND('',#145,.T.);
#105=FACE_OUTER_BOUND('',#146,.T.);
#106=FACE_OUTER_BOUND('',#147,.T.);
#107=FACE_OUTER_BOUND('',#157,.T.);
#108=EDGE_LOOP('',(#582,#583,#584,#585));
#109=EDGE_LOOP('',(#586,#587,#588,#589));
#110=EDGE_LOOP('',(#590,#591,#592,#593));
#111=EDGE_LOOP('',(#594,#595,#596,#597));
#112=EDGE_LOOP('',(#598,#599,#600,#601));
#113=EDGE_LOOP('',(#602,#603,#604,#605));
#114=EDGE_LOOP('',(#606,#607,#608,#609));
#115=EDGE_LOOP('',(#610,#611,#612,#613));
#116=EDGE_LOOP('',(#614,#615,#616,#617));
#117=EDGE_LOOP('',(#618,#619,#620,#621));
#118=EDGE_LOOP('',(#622,#623,#624,#625));
#119=EDGE_LOOP('',(#626,#627,#628,#629));
#120=EDGE_LOOP('',(#630,#631,#632,#633));
#121=EDGE_LOOP('',(#634,#635,#636,#637));
#122=EDGE_LOOP('',(#638,#639,#640,#641));
#123=EDGE_LOOP('',(#642,#643,#644,#645));
#124=EDGE_LOOP('',(#646,#647,#648,#649));
#125=EDGE_LOOP('',(#650,#651,#652,#653));
#126=EDGE_LOOP('',(#654,#655,#656,#657));
#127=EDGE_LOOP('',(#658,#659,#660,#661));
#128=EDGE_LOOP('',(#662,#663,#664,#665));
#129=EDGE_LOOP('',(#666,#667,#668,#669));
#130=EDGE_LOOP('',(#670,#671,#672,#673));
#131=EDGE_LOOP('',(#674,#675,#676,#677));
#132=EDGE_LOOP('',(#678,#679,#680,#681));
#133=EDGE_LOOP('',(#682,#683,#684,#685));
#134=EDGE_LOOP('',(#686,#687,#688,#689));
#135=EDGE_LOOP('',(#690,#691,#692,#693));
#136=EDGE_LOOP('',(#694,#695,#696,#697));
#137=EDGE_LOOP('',(#698,#699,#700,#701));
#138=EDGE_LOOP('',(#702,#703,#704,#705));
#139=EDGE_LOOP('',(#706,#707,#708,#709));
#140=EDGE_LOOP('',(#710,#711,#712,#713));
#141=EDGE_LOOP('',(#714,#715,#716,#717));
#142=EDGE_LOOP('',(#718,#719,#720,#721));
#143=EDGE_LOOP('',(#722,#723,#724,#725));
#144=EDGE_LOOP('',(#726,#727,#728,#729));
#145=EDGE_LOOP('',(#730,#731,#732,#733));
#146=EDGE_LOOP('',(#734,#735,#736,#737));
#147=EDGE_LOOP('',(#738,#739,#740,#741,#742,#743,#744,#745,#746,#747,#748,
#749));
#148=EDGE_LOOP('',(#750));
#149=EDGE_LOOP('',(#751));
#150=EDGE_LOOP('',(#752));
#151=EDGE_LOOP('',(#753));
#152=EDGE_LOOP('',(#754));
#153=EDGE_LOOP('',(#755));
#154=EDGE_LOOP('',(#756,#757,#758,#759,#760,#761,#762,#763));
#155=EDGE_LOOP('',(#764));
#156=EDGE_LOOP('',(#765,#766,#767,#768,#769,#770,#771,#772,#773,#774,#775,
#776));
#157=EDGE_LOOP('',(#777,#778,#779,#780,#781,#782,#783,#784,#785,#786,#787,
#788));
#158=EDGE_LOOP('',(#789));
#159=EDGE_LOOP('',(#790));
#160=EDGE_LOOP('',(#791));
#161=EDGE_LOOP('',(#792));
#162=EDGE_LOOP('',(#793));
#163=EDGE_LOOP('',(#794));
#164=EDGE_LOOP('',(#795,#796,#797,#798,#799,#800,#801,#802));
#165=EDGE_LOOP('',(#803));
#166=EDGE_LOOP('',(#804,#805,#806,#807,#808,#809,#810,#811,#812,#813,#814,
#815));
#167=LINE('',#1153,#270);
#168=LINE('',#1159,#271);
#169=LINE('',#1165,#272);
#170=LINE('',#1171,#273);
#171=LINE('',#1177,#274);
#172=LINE('',#1183,#275);
#173=LINE('',#1188,#276);
#174=LINE('',#1190,#277);
#175=LINE('',#1192,#278);
#176=LINE('',#1193,#279);
#177=LINE('',#1196,#280);
#178=LINE('',#1198,#281);
#179=LINE('',#1199,#282);
#180=LINE('',#1202,#283);
#181=LINE('',#1204,#284);
#182=LINE('',#1205,#285);
#183=LINE('',#1208,#286);
#184=LINE('',#1210,#287);
#185=LINE('',#1211,#288);
#186=LINE('',#1214,#289);
#187=LINE('',#1216,#290);
#188=LINE('',#1217,#291);
#189=LINE('',#1220,#292);
#190=LINE('',#1222,#293);
#191=LINE('',#1223,#294);
#192=LINE('',#1226,#295);
#193=LINE('',#1228,#296);
#194=LINE('',#1229,#297);
#195=LINE('',#1231,#298);
#196=LINE('',#1232,#299);
#197=LINE('',#1237,#300);
#198=LINE('',#1242,#301);
#199=LINE('',#1244,#302);
#200=LINE('',#1246,#303);
#201=LINE('',#1247,#304);
#202=LINE('',#1250,#305);
#203=LINE('',#1252,#306);
#204=LINE('',#1253,#307);
#205=LINE('',#1256,#308);
#206=LINE('',#1258,#309);
#207=LINE('',#1259,#310);
#208=LINE('',#1262,#311);
#209=LINE('',#1264,#312);
#210=LINE('',#1265,#313);
#211=LINE('',#1268,#314);
#212=LINE('',#1270,#315);
#213=LINE('',#1271,#316);
#214=LINE('',#1274,#317);
#215=LINE('',#1276,#318);
#216=LINE('',#1277,#319);
#217=LINE('',#1280,#320);
#218=LINE('',#1282,#321);
#219=LINE('',#1283,#322);
#220=LINE('',#1286,#323);
#221=LINE('',#1288,#324);
#222=LINE('',#1289,#325);
#223=LINE('',#1292,#326);
#224=LINE('',#1294,#327);
#225=LINE('',#1295,#328);
#226=LINE('',#1298,#329);
#227=LINE('',#1300,#330);
#228=LINE('',#1301,#331);
#229=LINE('',#1304,#332);
#230=LINE('',#1306,#333);
#231=LINE('',#1307,#334);
#232=LINE('',#1309,#335);
#233=LINE('',#1310,#336);
#234=LINE('',#1314,#337);
#235=LINE('',#1316,#338);
#236=LINE('',#1318,#339);
#237=LINE('',#1319,#340);
#238=LINE('',#1322,#341);
#239=LINE('',#1324,#342);
#240=LINE('',#1325,#343);
#241=LINE('',#1328,#344);
#242=LINE('',#1330,#345);
#243=LINE('',#1331,#346);
#244=LINE('',#1334,#347);
#245=LINE('',#1336,#348);
#246=LINE('',#1337,#349);
#247=LINE('',#1340,#350);
#248=LINE('',#1342,#351);
#249=LINE('',#1343,#352);
#250=LINE('',#1346,#353);
#251=LINE('',#1348,#354);
#252=LINE('',#1349,#355);
#253=LINE('',#1352,#356);
#254=LINE('',#1354,#357);
#255=LINE('',#1355,#358);
#256=LINE('',#1358,#359);
#257=LINE('',#1360,#360);
#258=LINE('',#1361,#361);
#259=LINE('',#1364,#362);
#260=LINE('',#1366,#363);
#261=LINE('',#1367,#364);
#262=LINE('',#1370,#365);
#263=LINE('',#1372,#366);
#264=LINE('',#1373,#367);
#265=LINE('',#1376,#368);
#266=LINE('',#1378,#369);
#267=LINE('',#1379,#370);
#268=LINE('',#1381,#371);
#269=LINE('',#1382,#372);
#270=VECTOR('',#939,5.125);
#271=VECTOR('',#946,1.5);
#272=VECTOR('',#953,1.5);
#273=VECTOR('',#960,2.5);
#274=VECTOR('',#967,2.5);
#275=VECTOR('',#974,1.5);
#276=VECTOR('',#979,10.);
#277=VECTOR('',#980,10.);
#278=VECTOR('',#981,10.);
#279=VECTOR('',#982,10.);
#280=VECTOR('',#985,10.);
#281=VECTOR('',#986,10.);
#282=VECTOR('',#987,10.);
#283=VECTOR('',#990,10.);
#284=VECTOR('',#991,10.);
#285=VECTOR('',#992,10.);
#286=VECTOR('',#995,10.);
#287=VECTOR('',#996,10.);
#288=VECTOR('',#997,10.);
#289=VECTOR('',#1000,10.);
#290=VECTOR('',#1001,10.);
#291=VECTOR('',#1002,10.);
#292=VECTOR('',#1005,10.);
#293=VECTOR('',#1006,10.);
#294=VECTOR('',#1007,10.);
#295=VECTOR('',#1010,10.);
#296=VECTOR('',#1011,10.);
#297=VECTOR('',#1012,10.);
#298=VECTOR('',#1015,10.);
#299=VECTOR('',#1016,10.);
#300=VECTOR('',#1021,1.5);
#301=VECTOR('',#1026,10.);
#302=VECTOR('',#1027,10.);
#303=VECTOR('',#1028,10.);
#304=VECTOR('',#1029,10.);
#305=VECTOR('',#1032,10.);
#306=VECTOR('',#1033,10.);
#307=VECTOR('',#1034,10.);
#308=VECTOR('',#1037,10.);
#309=VECTOR('',#1038,10.);
#310=VECTOR('',#1039,10.);
#311=VECTOR('',#1042,10.);
#312=VECTOR('',#1043,10.);
#313=VECTOR('',#1044,10.);
#314=VECTOR('',#1047,10.);
#315=VECTOR('',#1048,10.);
#316=VECTOR('',#1049,10.);
#317=VECTOR('',#1052,10.);
#318=VECTOR('',#1053,10.);
#319=VECTOR('',#1054,10.);
#320=VECTOR('',#1057,10.);
#321=VECTOR('',#1058,10.);
#322=VECTOR('',#1059,10.);
#323=VECTOR('',#1062,10.);
#324=VECTOR('',#1063,10.);
#325=VECTOR('',#1064,10.);
#326=VECTOR('',#1067,10.);
#327=VECTOR('',#1068,10.);
#328=VECTOR('',#1069,10.);
#329=VECTOR('',#1072,10.);
#330=VECTOR('',#1073,10.);
#331=VECTOR('',#1074,10.);
#332=VECTOR('',#1077,10.);
#333=VECTOR('',#1078,10.);
#334=VECTOR('',#1079,10.);
#335=VECTOR('',#1082,10.);
#336=VECTOR('',#1083,10.);
#337=VECTOR('',#1086,10.);
#338=VECTOR('',#1087,10.);
#339=VECTOR('',#1088,10.);
#340=VECTOR('',#1089,10.);
#341=VECTOR('',#1092,10.);
#342=VECTOR('',#1093,10.);
#343=VECTOR('',#1094,10.);
#344=VECTOR('',#1097,10.);
#345=VECTOR('',#1098,10.);
#346=VECTOR('',#1099,10.);
#347=VECTOR('',#1102,10.);
#348=VECTOR('',#1103,10.);
#349=VECTOR('',#1104,10.);
#350=VECTOR('',#1107,10.);
#351=VECTOR('',#1108,10.);
#352=VECTOR('',#1109,10.);
#353=VECTOR('',#1112,10.);
#354=VECTOR('',#1113,10.);
#355=VECTOR('',#1114,10.);
#356=VECTOR('',#1117,10.);
#357=VECTOR('',#1118,10.);
#358=VECTOR('',#1119,10.);
#359=VECTOR('',#1122,10.);
#360=VECTOR('',#1123,10.);
#361=VECTOR('',#1124,10.);
#362=VECTOR('',#1127,10.);
#363=VECTOR('',#1128,10.);
#364=VECTOR('',#1129,10.);
#365=VECTOR('',#1132,10.);
#366=VECTOR('',#1133,10.);
#367=VECTOR('',#1134,10.);
#368=VECTOR('',#1137,10.);
#369=VECTOR('',#1138,10.);
#370=VECTOR('',#1139,10.);
#371=VECTOR('',#1142,10.);
#372=VECTOR('',#1143,10.);
#373=CIRCLE('',#879,5.125);
#374=CIRCLE('',#880,5.125);
#375=CIRCLE('',#882,1.5);
#376=CIRCLE('',#883,1.5);
#377=CIRCLE('',#885,1.5);
#378=CIRCLE('',#886,1.5);
#379=CIRCLE('',#888,2.5);
#380=CIRCLE('',#889,2.5);
#381=CIRCLE('',#891,2.5);
#382=CIRCLE('',#892,2.5);
#383=CIRCLE('',#894,1.5);
#384=CIRCLE('',#895,1.5);
#385=CIRCLE('',#905,1.5);
#386=CIRCLE('',#906,1.5);
#387=VERTEX_POINT('',#1150);
#388=VERTEX_POINT('',#1152);
#389=VERTEX_POINT('',#1156);
#390=VERTEX_POINT('',#1158);
#391=VERTEX_POINT('',#1162);
#392=VERTEX_POINT('',#1164);
#393=VERTEX_POINT('',#1168);
#394=VERTEX_POINT('',#1170);
#395=VERTEX_POINT('',#1174);
#396=VERTEX_POINT('',#1176);
#397=VERTEX_POINT('',#1180);
#398=VERTEX_POINT('',#1182);
#399=VERTEX_POINT('',#1186);
#400=VERTEX_POINT('',#1187);
#401=VERTEX_POINT('',#1189);
#402=VERTEX_POINT('',#1191);
#403=VERTEX_POINT('',#1195);
#404=VERTEX_POINT('',#1197);
#405=VERTEX_POINT('',#1201);
#406=VERTEX_POINT('',#1203);
#407=VERTEX_POINT('',#1207);
#408=VERTEX_POINT('',#1209);
#409=VERTEX_POINT('',#1213);
#410=VERTEX_POINT('',#1215);
#411=VERTEX_POINT('',#1219);
#412=VERTEX_POINT('',#1221);
#413=VERTEX_POINT('',#1225);
#414=VERTEX_POINT('',#1227);
#415=VERTEX_POINT('',#1234);
#416=VERTEX_POINT('',#1236);
#417=VERTEX_POINT('',#1240);
#418=VERTEX_POINT('',#1241);
#419=VERTEX_POINT('',#1243);
#420=VERTEX_POINT('',#1245);
#421=VERTEX_POINT('',#1249);
#422=VERTEX_POINT('',#1251);
#423=VERTEX_POINT('',#1255);
#424=VERTEX_POINT('',#1257);
#425=VERTEX_POINT('',#1261);
#426=VERTEX_POINT('',#1263);
#427=VERTEX_POINT('',#1267);
#428=VERTEX_POINT('',#1269);
#429=VERTEX_POINT('',#1273);
#430=VERTEX_POINT('',#1275);
#431=VERTEX_POINT('',#1279);
#432=VERTEX_POINT('',#1281);
#433=VERTEX_POINT('',#1285);
#434=VERTEX_POINT('',#1287);
#435=VERTEX_POINT('',#1291);
#436=VERTEX_POINT('',#1293);
#437=VERTEX_POINT('',#1297);
#438=VERTEX_POINT('',#1299);
#439=VERTEX_POINT('',#1303);
#440=VERTEX_POINT('',#1305);
#441=VERTEX_POINT('',#1312);
#442=VERTEX_POINT('',#1313);
#443=VERTEX_POINT('',#1315);
#444=VERTEX_POINT('',#1317);
#445=VERTEX_POINT('',#1321);
#446=VERTEX_POINT('',#1323);
#447=VERTEX_POINT('',#1327);
#448=VERTEX_POINT('',#1329);
#449=VERTEX_POINT('',#1333);
#450=VERTEX_POINT('',#1335);
#451=VERTEX_POINT('',#1339);
#452=VERTEX_POINT('',#1341);
#453=VERTEX_POINT('',#1345);
#454=VERTEX_POINT('',#1347);
#455=VERTEX_POINT('',#1351);
#456=VERTEX_POINT('',#1353);
#457=VERTEX_POINT('',#1357);
#458=VERTEX_POINT('',#1359);
#459=VERTEX_POINT('',#1363);
#460=VERTEX_POINT('',#1365);
#461=VERTEX_POINT('',#1369);
#462=VERTEX_POINT('',#1371);
#463=VERTEX_POINT('',#1375);
#464=VERTEX_POINT('',#1377);
#465=EDGE_CURVE('',#387,#387,#373,.T.);
#466=EDGE_CURVE('',#387,#388,#167,.T.);
#467=EDGE_CURVE('',#388,#388,#374,.T.);
#468=EDGE_CURVE('',#389,#389,#375,.T.);
#469=EDGE_CURVE('',#389,#390,#168,.T.);
#470=EDGE_CURVE('',#390,#390,#376,.T.);
#471=EDGE_CURVE('',#391,#391,#377,.T.);
#472=EDGE_CURVE('',#391,#392,#169,.T.);
#473=EDGE_CURVE('',#392,#392,#378,.T.);
#474=EDGE_CURVE('',#393,#393,#379,.T.);
#475=EDGE_CURVE('',#393,#394,#170,.T.);
#476=EDGE_CURVE('',#394,#394,#380,.T.);
#477=EDGE_CURVE('',#395,#395,#381,.T.);
#478=EDGE_CURVE('',#395,#396,#171,.T.);
#479=EDGE_CURVE('',#396,#396,#382,.T.);
#480=EDGE_CURVE('',#397,#397,#383,.T.);
#481=EDGE_CURVE('',#397,#398,#172,.T.);
#482=EDGE_CURVE('',#398,#398,#384,.T.);
#483=EDGE_CURVE('',#399,#400,#173,.T.);
#484=EDGE_CURVE('',#399,#401,#174,.T.);
#485=EDGE_CURVE('',#402,#401,#175,.T.);
#486=EDGE_CURVE('',#400,#402,#176,.T.);
#487=EDGE_CURVE('',#403,#399,#177,.T.);
#488=EDGE_CURVE('',#403,#404,#178,.T.);
#489=EDGE_CURVE('',#401,#404,#179,.T.);
#490=EDGE_CURVE('',#405,#403,#180,.T.);
#491=EDGE_CURVE('',#405,#406,#181,.T.);
#492=EDGE_CURVE('',#404,#406,#182,.T.);
#493=EDGE_CURVE('',#407,#405,#183,.T.);
#494=EDGE_CURVE('',#407,#408,#184,.T.);
#495=EDGE_CURVE('',#406,#408,#185,.T.);
#496=EDGE_CURVE('',#409,#407,#186,.T.);
#497=EDGE_CURVE('',#409,#410,#187,.T.);
#498=EDGE_CURVE('',#408,#410,#188,.T.);
#499=EDGE_CURVE('',#411,#409,#189,.T.);
#500=EDGE_CURVE('',#411,#412,#190,.T.);
#501=EDGE_CURVE('',#410,#412,#191,.T.);
#502=EDGE_CURVE('',#413,#411,#192,.T.);
#503=EDGE_CURVE('',#413,#414,#193,.T.);
#504=EDGE_CURVE('',#412,#414,#194,.T.);
#505=EDGE_CURVE('',#400,#413,#195,.T.);
#506=EDGE_CURVE('',#414,#402,#196,.T.);
#507=EDGE_CURVE('',#415,#415,#385,.T.);
#508=EDGE_CURVE('',#415,#416,#197,.T.);
#509=EDGE_CURVE('',#416,#416,#386,.T.);
#510=EDGE_CURVE('',#417,#418,#198,.T.);
#511=EDGE_CURVE('',#417,#419,#199,.T.);
#512=EDGE_CURVE('',#420,#419,#200,.T.);
#513=EDGE_CURVE('',#418,#420,#201,.T.);
#514=EDGE_CURVE('',#421,#417,#202,.T.);
#515=EDGE_CURVE('',#421,#422,#203,.T.);
#516=EDGE_CURVE('',#419,#422,#204,.T.);
#517=EDGE_CURVE('',#423,#421,#205,.T.);
#518=EDGE_CURVE('',#423,#424,#206,.T.);
#519=EDGE_CURVE('',#422,#424,#207,.T.);
#520=EDGE_CURVE('',#425,#423,#208,.T.);
#521=EDGE_CURVE('',#425,#426,#209,.T.);
#522=EDGE_CURVE('',#424,#426,#210,.T.);
#523=EDGE_CURVE('',#427,#425,#211,.T.);
#524=EDGE_CURVE('',#427,#428,#212,.T.);
#525=EDGE_CURVE('',#426,#428,#213,.T.);
#526=EDGE_CURVE('',#429,#427,#214,.T.);
#527=EDGE_CURVE('',#429,#430,#215,.T.);
#528=EDGE_CURVE('',#428,#430,#216,.T.);
#529=EDGE_CURVE('',#431,#429,#217,.T.);
#530=EDGE_CURVE('',#431,#432,#218,.T.);
#531=EDGE_CURVE('',#430,#432,#219,.T.);
#532=EDGE_CURVE('',#433,#431,#220,.T.);
#533=EDGE_CURVE('',#433,#434,#221,.T.);
#534=EDGE_CURVE('',#432,#434,#222,.T.);
#535=EDGE_CURVE('',#435,#433,#223,.T.);
#536=EDGE_CURVE('',#435,#436,#224,.T.);
#537=EDGE_CURVE('',#434,#436,#225,.T.);
#538=EDGE_CURVE('',#437,#435,#226,.T.);
#539=EDGE_CURVE('',#437,#438,#227,.T.);
#540=EDGE_CURVE('',#436,#438,#228,.T.);
#541=EDGE_CURVE('',#439,#437,#229,.T.);
#542=EDGE_CURVE('',#439,#440,#230,.T.);
#543=EDGE_CURVE('',#438,#440,#231,.T.);
#544=EDGE_CURVE('',#418,#439,#232,.T.);
#545=EDGE_CURVE('',#440,#420,#233,.T.);
#546=EDGE_CURVE('',#441,#442,#234,.T.);
#547=EDGE_CURVE('',#441,#443,#235,.T.);
#548=EDGE_CURVE('',#444,#443,#236,.T.);
#549=EDGE_CURVE('',#442,#444,#237,.T.);
#550=EDGE_CURVE('',#442,#445,#238,.T.);
#551=EDGE_CURVE('',#446,#444,#239,.T.);
#552=EDGE_CURVE('',#445,#446,#240,.T.);
#553=EDGE_CURVE('',#445,#447,#241,.T.);
#554=EDGE_CURVE('',#448,#446,#242,.T.);
#555=EDGE_CURVE('',#447,#448,#243,.T.);
#556=EDGE_CURVE('',#449,#447,#244,.T.);
#557=EDGE_CURVE('',#450,#448,#245,.T.);
#558=EDGE_CURVE('',#449,#450,#246,.T.);
#559=EDGE_CURVE('',#451,#449,#247,.T.);
#560=EDGE_CURVE('',#452,#450,#248,.T.);
#561=EDGE_CURVE('',#451,#452,#249,.T.);
#562=EDGE_CURVE('',#453,#451,#250,.T.);
#563=EDGE_CURVE('',#454,#452,#251,.T.);
#564=EDGE_CURVE('',#453,#454,#252,.T.);
#565=EDGE_CURVE('',#453,#455,#253,.T.);
#566=EDGE_CURVE('',#456,#454,#254,.T.);
#567=EDGE_CURVE('',#455,#456,#255,.T.);
#568=EDGE_CURVE('',#455,#457,#256,.T.);
#569=EDGE_CURVE('',#458,#456,#257,.T.);
#570=EDGE_CURVE('',#457,#458,#258,.T.);
#571=EDGE_CURVE('',#457,#459,#259,.T.);
#572=EDGE_CURVE('',#460,#458,#260,.T.);
#573=EDGE_CURVE('',#459,#460,#261,.T.);
#574=EDGE_CURVE('',#461,#459,#262,.T.);
#575=EDGE_CURVE('',#462,#460,#263,.T.);
#576=EDGE_CURVE('',#461,#462,#264,.T.);
#577=EDGE_CURVE('',#463,#461,#265,.T.);
#578=EDGE_CURVE('',#464,#462,#266,.T.);
#579=EDGE_CURVE('',#463,#464,#267,.T.);
#580=EDGE_CURVE('',#441,#463,#268,.T.);
#581=EDGE_CURVE('',#443,#464,#269,.T.);
#582=ORIENTED_EDGE('',*,*,#465,.F.);
#583=ORIENTED_EDGE('',*,*,#466,.T.);
#584=ORIENTED_EDGE('',*,*,#467,.F.);
#585=ORIENTED_EDGE('',*,*,#466,.F.);
#586=ORIENTED_EDGE('',*,*,#468,.F.);
#587=ORIENTED_EDGE('',*,*,#469,.T.);
#588=ORIENTED_EDGE('',*,*,#470,.F.);
#589=ORIENTED_EDGE('',*,*,#469,.F.);
#590=ORIENTED_EDGE('',*,*,#471,.F.);
#591=ORIENTED_EDGE('',*,*,#472,.T.);
#592=ORIENTED_EDGE('',*,*,#473,.F.);
#593=ORIENTED_EDGE('',*,*,#472,.F.);
#594=ORIENTED_EDGE('',*,*,#474,.F.);
#595=ORIENTED_EDGE('',*,*,#475,.T.);
#596=ORIENTED_EDGE('',*,*,#476,.F.);
#597=ORIENTED_EDGE('',*,*,#475,.F.);
#598=ORIENTED_EDGE('',*,*,#477,.F.);
#599=ORIENTED_EDGE('',*,*,#478,.T.);
#600=ORIENTED_EDGE('',*,*,#479,.F.);
#601=ORIENTED_EDGE('',*,*,#478,.F.);
#602=ORIENTED_EDGE('',*,*,#480,.F.);
#603=ORIENTED_EDGE('',*,*,#481,.T.);
#604=ORIENTED_EDGE('',*,*,#482,.F.);
#605=ORIENTED_EDGE('',*,*,#481,.F.);
#606=ORIENTED_EDGE('',*,*,#483,.F.);
#607=ORIENTED_EDGE('',*,*,#484,.T.);
#608=ORIENTED_EDGE('',*,*,#485,.F.);
#609=ORIENTED_EDGE('',*,*,#486,.F.);
#610=ORIENTED_EDGE('',*,*,#487,.F.);
#611=ORIENTED_EDGE('',*,*,#488,.T.);
#612=ORIENTED_EDGE('',*,*,#489,.F.);
#613=ORIENTED_EDGE('',*,*,#484,.F.);
#614=ORIENTED_EDGE('',*,*,#490,.F.);
#615=ORIENTED_EDGE('',*,*,#491,.T.);
#616=ORIENTED_EDGE('',*,*,#492,.F.);
#617=ORIENTED_EDGE('',*,*,#488,.F.);
#618=ORIENTED_EDGE('',*,*,#493,.F.);
#619=ORIENTED_EDGE('',*,*,#494,.T.);
#620=ORIENTED_EDGE('',*,*,#495,.F.);
#621=ORIENTED_EDGE('',*,*,#491,.F.);
#622=ORIENTED_EDGE('',*,*,#496,.F.);
#623=ORIENTED_EDGE('',*,*,#497,.T.);
#624=ORIENTED_EDGE('',*,*,#498,.F.);
#625=ORIENTED_EDGE('',*,*,#494,.F.);
#626=ORIENTED_EDGE('',*,*,#499,.F.);
#627=ORIENTED_EDGE('',*,*,#500,.T.);
#628=ORIENTED_EDGE('',*,*,#501,.F.);
#629=ORIENTED_EDGE('',*,*,#497,.F.);
#630=ORIENTED_EDGE('',*,*,#502,.F.);
#631=ORIENTED_EDGE('',*,*,#503,.T.);
#632=ORIENTED_EDGE('',*,*,#504,.F.);
#633=ORIENTED_EDGE('',*,*,#500,.F.);
#634=ORIENTED_EDGE('',*,*,#505,.F.);
#635=ORIENTED_EDGE('',*,*,#486,.T.);
#636=ORIENTED_EDGE('',*,*,#506,.F.);
#637=ORIENTED_EDGE('',*,*,#503,.F.);
#638=ORIENTED_EDGE('',*,*,#507,.F.);
#639=ORIENTED_EDGE('',*,*,#508,.T.);
#640=ORIENTED_EDGE('',*,*,#509,.F.);
#641=ORIENTED_EDGE('',*,*,#508,.F.);
#642=ORIENTED_EDGE('',*,*,#510,.F.);
#643=ORIENTED_EDGE('',*,*,#511,.T.);
#644=ORIENTED_EDGE('',*,*,#512,.F.);
#645=ORIENTED_EDGE('',*,*,#513,.F.);
#646=ORIENTED_EDGE('',*,*,#514,.F.);
#647=ORIENTED_EDGE('',*,*,#515,.T.);
#648=ORIENTED_EDGE('',*,*,#516,.F.);
#649=ORIENTED_EDGE('',*,*,#511,.F.);
#650=ORIENTED_EDGE('',*,*,#517,.F.);
#651=ORIENTED_EDGE('',*,*,#518,.T.);
#652=ORIENTED_EDGE('',*,*,#519,.F.);
#653=ORIENTED_EDGE('',*,*,#515,.F.);
#654=ORIENTED_EDGE('',*,*,#520,.F.);
#655=ORIENTED_EDGE('',*,*,#521,.T.);
#656=ORIENTED_EDGE('',*,*,#522,.F.);
#657=ORIENTED_EDGE('',*,*,#518,.F.);
#658=ORIENTED_EDGE('',*,*,#523,.F.);
#659=ORIENTED_EDGE('',*,*,#524,.T.);
#660=ORIENTED_EDGE('',*,*,#525,.F.);
#661=ORIENTED_EDGE('',*,*,#521,.F.);
#662=ORIENTED_EDGE('',*,*,#526,.F.);
#663=ORIENTED_EDGE('',*,*,#527,.T.);
#664=ORIENTED_EDGE('',*,*,#528,.F.);
#665=ORIENTED_EDGE('',*,*,#524,.F.);
#666=ORIENTED_EDGE('',*,*,#529,.F.);
#667=ORIENTED_EDGE('',*,*,#530,.T.);
#668=ORIENTED_EDGE('',*,*,#531,.F.);
#669=ORIENTED_EDGE('',*,*,#527,.F.);
#670=ORIENTED_EDGE('',*,*,#532,.F.);
#671=ORIENTED_EDGE('',*,*,#533,.T.);
#672=ORIENTED_EDGE('',*,*,#534,.F.);
#673=ORIENTED_EDGE('',*,*,#530,.F.);
#674=ORIENTED_EDGE('',*,*,#535,.F.);
#675=ORIENTED_EDGE('',*,*,#536,.T.);
#676=ORIENTED_EDGE('',*,*,#537,.F.);
#677=ORIENTED_EDGE('',*,*,#533,.F.);
#678=ORIENTED_EDGE('',*,*,#538,.F.);
#679=ORIENTED_EDGE('',*,*,#539,.T.);
#680=ORIENTED_EDGE('',*,*,#540,.F.);
#681=ORIENTED_EDGE('',*,*,#536,.F.);
#682=ORIENTED_EDGE('',*,*,#541,.F.);
#683=ORIENTED_EDGE('',*,*,#542,.T.);
#684=ORIENTED_EDGE('',*,*,#543,.F.);
#685=ORIENTED_EDGE('',*,*,#539,.F.);
#686=ORIENTED_EDGE('',*,*,#544,.F.);
#687=ORIENTED_EDGE('',*,*,#513,.T.);
#688=ORIENTED_EDGE('',*,*,#545,.F.);
#689=ORIENTED_EDGE('',*,*,#542,.F.);
#690=ORIENTED_EDGE('',*,*,#546,.F.);
#691=ORIENTED_EDGE('',*,*,#547,.T.);
#692=ORIENTED_EDGE('',*,*,#548,.F.);
#693=ORIENTED_EDGE('',*,*,#549,.F.);
#694=ORIENTED_EDGE('',*,*,#550,.F.);
#695=ORIENTED_EDGE('',*,*,#549,.T.);
#696=ORIENTED_EDGE('',*,*,#551,.F.);
#697=ORIENTED_EDGE('',*,*,#552,.F.);
#698=ORIENTED_EDGE('',*,*,#553,.F.);
#699=ORIENTED_EDGE('',*,*,#552,.T.);
#700=ORIENTED_EDGE('',*,*,#554,.F.);
#701=ORIENTED_EDGE('',*,*,#555,.F.);
#702=ORIENTED_EDGE('',*,*,#556,.T.);
#703=ORIENTED_EDGE('',*,*,#555,.T.);
#704=ORIENTED_EDGE('',*,*,#557,.F.);
#705=ORIENTED_EDGE('',*,*,#558,.F.);
#706=ORIENTED_EDGE('',*,*,#559,.T.);
#707=ORIENTED_EDGE('',*,*,#558,.T.);
#708=ORIENTED_EDGE('',*,*,#560,.F.);
#709=ORIENTED_EDGE('',*,*,#561,.F.);
#710=ORIENTED_EDGE('',*,*,#562,.T.);
#711=ORIENTED_EDGE('',*,*,#561,.T.);
#712=ORIENTED_EDGE('',*,*,#563,.F.);
#713=ORIENTED_EDGE('',*,*,#564,.F.);
#714=ORIENTED_EDGE('',*,*,#565,.F.);
#715=ORIENTED_EDGE('',*,*,#564,.T.);
#716=ORIENTED_EDGE('',*,*,#566,.F.);
#717=ORIENTED_EDGE('',*,*,#567,.F.);
#718=ORIENTED_EDGE('',*,*,#568,.F.);
#719=ORIENTED_EDGE('',*,*,#567,.T.);
#720=ORIENTED_EDGE('',*,*,#569,.F.);
#721=ORIENTED_EDGE('',*,*,#570,.F.);
#722=ORIENTED_EDGE('',*,*,#571,.F.);
#723=ORIENTED_EDGE('',*,*,#570,.T.);
#724=ORIENTED_EDGE('',*,*,#572,.F.);
#725=ORIENTED_EDGE('',*,*,#573,.F.);
#726=ORIENTED_EDGE('',*,*,#574,.T.);
#727=ORIENTED_EDGE('',*,*,#573,.T.);
#728=ORIENTED_EDGE('',*,*,#575,.F.);
#729=ORIENTED_EDGE('',*,*,#576,.F.);
#730=ORIENTED_EDGE('',*,*,#577,.T.);
#731=ORIENTED_EDGE('',*,*,#576,.T.);
#732=ORIENTED_EDGE('',*,*,#578,.F.);
#733=ORIENTED_EDGE('',*,*,#579,.F.);
#734=ORIENTED_EDGE('',*,*,#580,.T.);
#735=ORIENTED_EDGE('',*,*,#579,.T.);
#736=ORIENTED_EDGE('',*,*,#581,.F.);
#737=ORIENTED_EDGE('',*,*,#547,.F.);
#738=ORIENTED_EDGE('',*,*,#581,.T.);
#739=ORIENTED_EDGE('',*,*,#578,.T.);
#740=ORIENTED_EDGE('',*,*,#575,.T.);
#741=ORIENTED_EDGE('',*,*,#572,.T.);
#742=ORIENTED_EDGE('',*,*,#569,.T.);
#743=ORIENTED_EDGE('',*,*,#566,.T.);
#744=ORIENTED_EDGE('',*,*,#563,.T.);
#745=ORIENTED_EDGE('',*,*,#560,.T.);
#746=ORIENTED_EDGE('',*,*,#557,.T.);
#747=ORIENTED_EDGE('',*,*,#554,.T.);
#748=ORIENTED_EDGE('',*,*,#551,.T.);
#749=ORIENTED_EDGE('',*,*,#548,.T.);
#750=ORIENTED_EDGE('',*,*,#465,.T.);
#751=ORIENTED_EDGE('',*,*,#468,.T.);
#752=ORIENTED_EDGE('',*,*,#471,.T.);
#753=ORIENTED_EDGE('',*,*,#474,.T.);
#754=ORIENTED_EDGE('',*,*,#477,.T.);
#755=ORIENTED_EDGE('',*,*,#480,.T.);
#756=ORIENTED_EDGE('',*,*,#483,.T.);
#757=ORIENTED_EDGE('',*,*,#505,.T.);
#758=ORIENTED_EDGE('',*,*,#502,.T.);
#759=ORIENTED_EDGE('',*,*,#499,.T.);
#760=ORIENTED_EDGE('',*,*,#496,.T.);
#761=ORIENTED_EDGE('',*,*,#493,.T.);
#762=ORIENTED_EDGE('',*,*,#490,.T.);
#763=ORIENTED_EDGE('',*,*,#487,.T.);
#764=ORIENTED_EDGE('',*,*,#507,.T.);
#765=ORIENTED_EDGE('',*,*,#510,.T.);
#766=ORIENTED_EDGE('',*,*,#544,.T.);
#767=ORIENTED_EDGE('',*,*,#541,.T.);
#768=ORIENTED_EDGE('',*,*,#538,.T.);
#769=ORIENTED_EDGE('',*,*,#535,.T.);
#770=ORIENTED_EDGE('',*,*,#532,.T.);
#771=ORIENTED_EDGE('',*,*,#529,.T.);
#772=ORIENTED_EDGE('',*,*,#526,.T.);
#773=ORIENTED_EDGE('',*,*,#523,.T.);
#774=ORIENTED_EDGE('',*,*,#520,.T.);
#775=ORIENTED_EDGE('',*,*,#517,.T.);
#776=ORIENTED_EDGE('',*,*,#514,.T.);
#777=ORIENTED_EDGE('',*,*,#580,.F.);
#778=ORIENTED_EDGE('',*,*,#546,.T.);
#779=ORIENTED_EDGE('',*,*,#550,.T.);
#780=ORIENTED_EDGE('',*,*,#553,.T.);
#781=ORIENTED_EDGE('',*,*,#556,.F.);
#782=ORIENTED_EDGE('',*,*,#559,.F.);
#783=ORIENTED_EDGE('',*,*,#562,.F.);
#784=ORIENTED_EDGE('',*,*,#565,.T.);
#785=ORIENTED_EDGE('',*,*,#568,.T.);
#786=ORIENTED_EDGE('',*,*,#571,.T.);
#787=ORIENTED_EDGE('',*,*,#574,.F.);
#788=ORIENTED_EDGE('',*,*,#577,.F.);
#789=ORIENTED_EDGE('',*,*,#467,.T.);
#790=ORIENTED_EDGE('',*,*,#470,.T.);
#791=ORIENTED_EDGE('',*,*,#473,.T.);
#792=ORIENTED_EDGE('',*,*,#476,.T.);
#793=ORIENTED_EDGE('',*,*,#479,.T.);
#794=ORIENTED_EDGE('',*,*,#482,.T.);
#795=ORIENTED_EDGE('',*,*,#485,.T.);
#796=ORIENTED_EDGE('',*,*,#489,.T.);
#797=ORIENTED_EDGE('',*,*,#492,.T.);
#798=ORIENTED_EDGE('',*,*,#495,.T.);
#799=ORIENTED_EDGE('',*,*,#498,.T.);
#800=ORIENTED_EDGE('',*,*,#501,.T.);
#801=ORIENTED_EDGE('',*,*,#504,.T.);
#802=ORIENTED_EDGE('',*,*,#506,.T.);
#803=ORIENTED_EDGE('',*,*,#509,.T.);
#804=ORIENTED_EDGE('',*,*,#512,.T.);
#805=ORIENTED_EDGE('',*,*,#516,.T.);
#806=ORIENTED_EDGE('',*,*,#519,.T.);
#807=ORIENTED_EDGE('',*,*,#522,.T.);
#808=ORIENTED_EDGE('',*,*,#525,.T.);
#809=ORIENTED_EDGE('',*,*,#528,.T.);
#810=ORIENTED_EDGE('',*,*,#531,.T.);
#811=ORIENTED_EDGE('',*,*,#534,.T.);
#812=ORIENTED_EDGE('',*,*,#537,.T.);
#813=ORIENTED_EDGE('',*,*,#540,.T.);
#814=ORIENTED_EDGE('',*,*,#543,.T.);
#815=ORIENTED_EDGE('',*,*,#545,.T.);
#816=CYLINDRICAL_SURFACE('',#878,5.125);
#817=CYLINDRICAL_SURFACE('',#881,1.5);
#818=CYLINDRICAL_SURFACE('',#884,1.5);
#819=CYLINDRICAL_SURFACE('',#887,2.5);
#820=CYLINDRICAL_SURFACE('',#890,2.5);
#821=CYLINDRICAL_SURFACE('',#893,1.5);
#822=CYLINDRICAL_SURFACE('',#904,1.5);
#823=ADVANCED_FACE('',(#67),#816,.F.);
#824=ADVANCED_FACE('',(#68),#817,.F.);
#825=ADVANCED_FACE('',(#69),#818,.F.);
#826=ADVANCED_FACE('',(#70),#819,.F.);
#827=ADVANCED_FACE('',(#71),#820,.F.);
#828=ADVANCED_FACE('',(#72),#821,.F.);
#829=ADVANCED_FACE('',(#73),#33,.F.);
#830=ADVANCED_FACE('',(#74),#34,.F.);
#831=ADVANCED_FACE('',(#75),#35,.F.);
#832=ADVANCED_FACE('',(#76),#36,.F.);
#833=ADVANCED_FACE('',(#77),#37,.F.);
#834=ADVANCED_FACE('',(#78),#38,.F.);
#835=ADVANCED_FACE('',(#79),#39,.F.);
#836=ADVANCED_FACE('',(#80),#40,.F.);
#837=ADVANCED_FACE('',(#81),#822,.F.);
#838=ADVANCED_FACE('',(#82),#41,.F.);
#839=ADVANCED_FACE('',(#83),#42,.F.);
#840=ADVANCED_FACE('',(#84),#43,.F.);
#841=ADVANCED_FACE('',(#85),#44,.F.);
#842=ADVANCED_FACE('',(#86),#45,.F.);
#843=ADVANCED_FACE('',(#87),#46,.F.);
#844=ADVANCED_FACE('',(#88),#47,.F.);
#845=ADVANCED_FACE('',(#89),#48,.F.);
#846=ADVANCED_FACE('',(#90),#49,.F.);
#847=ADVANCED_FACE('',(#91),#50,.F.);
#848=ADVANCED_FACE('',(#92),#51,.F.);
#849=ADVANCED_FACE('',(#93),#52,.F.);
#850=ADVANCED_FACE('',(#94),#53,.T.);
#851=ADVANCED_FACE('',(#95),#54,.T.);
#852=ADVANCED_FACE('',(#96),#55,.T.);
#853=ADVANCED_FACE('',(#97),#56,.T.);
#854=ADVANCED_FACE('',(#98),#57,.T.);
#855=ADVANCED_FACE('',(#99),#58,.T.);
#856=ADVANCED_FACE('',(#100),#59,.T.);
#857=ADVANCED_FACE('',(#101),#60,.T.);
#858=ADVANCED_FACE('',(#102),#61,.T.);
#859=ADVANCED_FACE('',(#103),#62,.T.);
#860=ADVANCED_FACE('',(#104),#63,.T.);
#861=ADVANCED_FACE('',(#105),#64,.T.);
#862=ADVANCED_FACE('',(#106,#15,#16,#17,#18,#19,#20,#21,#22,#23),#65,.T.);
#863=ADVANCED_FACE('',(#107,#24,#25,#26,#27,#28,#29,#30,#31,#32),#66,.F.);
#864=CLOSED_SHELL('',(#823,#824,#825,#826,#827,#828,#829,#830,#831,#832,
#833,#834,#835,#836,#837,#838,#839,#840,#841,#842,#843,#844,#845,#846,#847,
#848,#849,#850,#851,#852,#853,#854,#855,#856,#857,#858,#859,#860,#861,#862,
#863));
#865=DERIVED_UNIT_ELEMENT(#867,1.);
#866=DERIVED_UNIT_ELEMENT(#1390,-3.);
#867=(
MASS_UNIT()
NAMED_UNIT(*)
SI_UNIT(.KILO.,.GRAM.)
);
#868=DERIVED_UNIT((#865,#866));
#869=MEASURE_REPRESENTATION_ITEM('density measure',
POSITIVE_RATIO_MEASURE(7850.),#868);
#870=PROPERTY_DEFINITION_REPRESENTATION(#875,#872);
#871=PROPERTY_DEFINITION_REPRESENTATION(#876,#873);
#872=REPRESENTATION('material name',(#874),#1387);
#873=REPRESENTATION('density',(#869),#1387);
#874=DESCRIPTIVE_REPRESENTATION_ITEM('Acier','Acier');
#875=PROPERTY_DEFINITION('material property','material name',#1397);
#876=PROPERTY_DEFINITION('material property','density of part',#1397);
#877=AXIS2_PLACEMENT_3D('',#1148,#933,#934);
#878=AXIS2_PLACEMENT_3D('',#1149,#935,#936);
#879=AXIS2_PLACEMENT_3D('',#1151,#937,#938);
#880=AXIS2_PLACEMENT_3D('',#1154,#940,#941);
#881=AXIS2_PLACEMENT_3D('',#1155,#942,#943);
#882=AXIS2_PLACEMENT_3D('',#1157,#944,#945);
#883=AXIS2_PLACEMENT_3D('',#1160,#947,#948);
#884=AXIS2_PLACEMENT_3D('',#1161,#949,#950);
#885=AXIS2_PLACEMENT_3D('',#1163,#951,#952);
#886=AXIS2_PLACEMENT_3D('',#1166,#954,#955);
#887=AXIS2_PLACEMENT_3D('',#1167,#956,#957);
#888=AXIS2_PLACEMENT_3D('',#1169,#958,#959);
#889=AXIS2_PLACEMENT_3D('',#1172,#961,#962);
#890=AXIS2_PLACEMENT_3D('',#1173,#963,#964);
#891=AXIS2_PLACEMENT_3D('',#1175,#965,#966);
#892=AXIS2_PLACEMENT_3D('',#1178,#968,#969);
#893=AXIS2_PLACEMENT_3D('',#1179,#970,#971);
#894=AXIS2_PLACEMENT_3D('',#1181,#972,#973);
#895=AXIS2_PLACEMENT_3D('',#1184,#975,#976);
#896=AXIS2_PLACEMENT_3D('',#1185,#977,#978);
#897=AXIS2_PLACEMENT_3D('',#1194,#983,#984);
#898=AXIS2_PLACEMENT_3D('',#1200,#988,#989);
#899=AXIS2_PLACEMENT_3D('',#1206,#993,#994);
#900=AXIS2_PLACEMENT_3D('',#1212,#998,#999);
#901=AXIS2_PLACEMENT_3D('',#1218,#1003,#1004);
#902=AXIS2_PLACEMENT_3D('',#1224,#1008,#1009);
#903=AXIS2_PLACEMENT_3D('',#1230,#1013,#1014);
#904=AXIS2_PLACEMENT_3D('',#1233,#1017,#1018);
#905=AXIS2_PLACEMENT_3D('',#1235,#1019,#1020);
#906=AXIS2_PLACEMENT_3D('',#1238,#1022,#1023);
#907=AXIS2_PLACEMENT_3D('',#1239,#1024,#1025);
#908=AXIS2_PLACEMENT_3D('',#1248,#1030,#1031);
#909=AXIS2_PLACEMENT_3D('',#1254,#1035,#1036);
#910=AXIS2_PLACEMENT_3D('',#1260,#1040,#1041);
#911=AXIS2_PLACEMENT_3D('',#1266,#1045,#1046);
#912=AXIS2_PLACEMENT_3D('',#1272,#1050,#1051);
#913=AXIS2_PLACEMENT_3D('',#1278,#1055,#1056);
#914=AXIS2_PLACEMENT_3D('',#1284,#1060,#1061);
#915=AXIS2_PLACEMENT_3D('',#1290,#1065,#1066);
#916=AXIS2_PLACEMENT_3D('',#1296,#1070,#1071);
#917=AXIS2_PLACEMENT_3D('',#1302,#1075,#1076);
#918=AXIS2_PLACEMENT_3D('',#1308,#1080,#1081);
#919=AXIS2_PLACEMENT_3D('',#1311,#1084,#1085);
#920=AXIS2_PLACEMENT_3D('',#1320,#1090,#1091);
#921=AXIS2_PLACEMENT_3D('',#1326,#1095,#1096);
#922=AXIS2_PLACEMENT_3D('',#1332,#1100,#1101);
#923=AXIS2_PLACEMENT_3D('',#1338,#1105,#1106);
#924=AXIS2_PLACEMENT_3D('',#1344,#1110,#1111);
#925=AXIS2_PLACEMENT_3D('',#1350,#1115,#1116);
#926=AXIS2_PLACEMENT_3D('',#1356,#1120,#1121);
#927=AXIS2_PLACEMENT_3D('',#1362,#1125,#1126);
#928=AXIS2_PLACEMENT_3D('',#1368,#1130,#1131);
#929=AXIS2_PLACEMENT_3D('',#1374,#1135,#1136);
#930=AXIS2_PLACEMENT_3D('',#1380,#1140,#1141);
#931=AXIS2_PLACEMENT_3D('',#1383,#1144,#1145);
#932=AXIS2_PLACEMENT_3D('',#1384,#1146,#1147);
#933=DIRECTION('axis',(0.,0.,1.));
#934=DIRECTION('refdir',(1.,0.,0.));
#935=DIRECTION('center_axis',(0.,0.,-1.));
#936=DIRECTION('ref_axis',(-1.,0.,0.));
#937=DIRECTION('center_axis',(0.,0.,-1.));
#938=DIRECTION('ref_axis',(-1.,0.,0.));
#939=DIRECTION('',(0.,0.,-1.));
#940=DIRECTION('center_axis',(0.,0.,1.));
#941=DIRECTION('ref_axis',(-1.,0.,0.));
#942=DIRECTION('center_axis',(0.,0.,-1.));
#943=DIRECTION('ref_axis',(-1.,0.,0.));
#944=DIRECTION('center_axis',(0.,0.,-1.));
#945=DIRECTION('ref_axis',(-1.,0.,0.));
#946=DIRECTION('',(0.,0.,-1.));
#947=DIRECTION('center_axis',(0.,0.,1.));
#948=DIRECTION('ref_axis',(-1.,0.,0.));
#949=DIRECTION('center_axis',(0.,0.,-1.));
#950=DIRECTION('ref_axis',(-1.,0.,0.));
#951=DIRECTION('center_axis',(0.,0.,-1.));
#952=DIRECTION('ref_axis',(-1.,0.,0.));
#953=DIRECTION('',(0.,0.,-1.));
#954=DIRECTION('center_axis',(0.,0.,1.));
#955=DIRECTION('ref_axis',(-1.,0.,0.));
#956=DIRECTION('center_axis',(0.,0.,-1.));
#957=DIRECTION('ref_axis',(-1.,0.,0.));
#958=DIRECTION('center_axis',(0.,0.,-1.));
#959=DIRECTION('ref_axis',(-1.,0.,0.));
#960=DIRECTION('',(0.,0.,-1.));
#961=DIRECTION('center_axis',(0.,0.,1.));
#962=DIRECTION('ref_axis',(-1.,0.,0.));
#963=DIRECTION('center_axis',(0.,0.,-1.));
#964=DIRECTION('ref_axis',(-1.,0.,0.));
#965=DIRECTION('center_axis',(0.,0.,-1.));
#966=DIRECTION('ref_axis',(-1.,0.,0.));
#967=DIRECTION('',(0.,0.,-1.));
#968=DIRECTION('center_axis',(0.,0.,1.));
#969=DIRECTION('ref_axis',(-1.,0.,0.));
#970=DIRECTION('center_axis',(0.,0.,-1.));
#971=DIRECTION('ref_axis',(-1.,0.,0.));
#972=DIRECTION('center_axis',(0.,0.,-1.));
#973=DIRECTION('ref_axis',(-1.,0.,0.));
#974=DIRECTION('',(0.,0.,-1.));
#975=DIRECTION('center_axis',(0.,0.,1.));
#976=DIRECTION('ref_axis',(-1.,0.,0.));
#977=DIRECTION('center_axis',(0.52963385064134,-0.848226375594881,0.));
#978=DIRECTION('ref_axis',(-0.848226375594881,-0.52963385064134,0.));
#979=DIRECTION('',(-0.848226375594881,-0.52963385064134,0.));
#980=DIRECTION('',(0.,0.,-1.));
#981=DIRECTION('',(0.848226375594881,0.52963385064134,0.));
#982=DIRECTION('',(0.,0.,-1.));
#983=DIRECTION('center_axis',(1.,0.,0.));
#984=DIRECTION('ref_axis',(0.,-1.,0.));
#985=DIRECTION('',(0.,-1.,0.));
#986=DIRECTION('',(0.,0.,-1.));
#987=DIRECTION('',(0.,1.,0.));
#988=DIRECTION('center_axis',(0.628496477144351,0.777812431256495,0.));
#989=DIRECTION('ref_axis',(0.777812431256495,-0.628496477144351,0.));
#990=DIRECTION('',(0.777812431256495,-0.628496477144351,0.));
#991=DIRECTION('',(0.,0.,-1.));
#992=DIRECTION('',(-0.777812431256495,0.628496477144351,0.));
#993=DIRECTION('center_axis',(1.,0.,0.));
#994=DIRECTION('ref_axis',(0.,-1.,0.));
#995=DIRECTION('',(0.,-1.,0.));
#996=DIRECTION('',(0.,0.,-1.));
#997=DIRECTION('',(0.,1.,0.));
#998=DIRECTION('center_axis',(-1.26449091642956E-16,1.,0.));
#999=DIRECTION('ref_axis',(1.,1.26449091642956E-16,0.));
#1000=DIRECTION('',(1.,1.26449091642956E-16,0.));
#1001=DIRECTION('',(0.,0.,-1.));
#1002=DIRECTION('',(-1.,-1.26449091642956E-16,0.));
#1003=DIRECTION('center_axis',(-1.,0.,0.));
#1004=DIRECTION('ref_axis',(0.,1.,0.));
#1005=DIRECTION('',(0.,1.,0.));
#1006=DIRECTION('',(0.,0.,-1.));
#1007=DIRECTION('',(0.,-1.,0.));
#1008=DIRECTION('center_axis',(1.01159273314365E-16,-1.,0.));
#1009=DIRECTION('ref_axis',(-1.,-1.01159273314365E-16,0.));
#1010=DIRECTION('',(-1.,-1.01159273314365E-16,0.));
#1011=DIRECTION('',(0.,0.,-1.));
#1012=DIRECTION('',(1.,1.01159273314365E-16,0.));
#1013=DIRECTION('center_axis',(1.,0.,0.));
#1014=DIRECTION('ref_axis',(0.,-1.,0.));
#1015=DIRECTION('',(0.,-1.,0.));
#1016=DIRECTION('',(0.,1.,0.));
#1017=DIRECTION('center_axis',(0.,0.,-1.));
#1018=DIRECTION('ref_axis',(-1.,0.,0.));
#1019=DIRECTION('center_axis',(0.,0.,-1.));
#1020=DIRECTION('ref_axis',(-1.,0.,0.));
#1021=DIRECTION('',(0.,0.,-1.));
#1022=DIRECTION('center_axis',(0.,0.,1.));
#1023=DIRECTION('ref_axis',(-1.,0.,0.));
#1024=DIRECTION('center_axis',(1.,0.,0.));
#1025=DIRECTION('ref_axis',(0.,-1.,0.));
#1026=DIRECTION('',(0.,-1.,0.));
#1027=DIRECTION('',(0.,0.,-1.));
#1028=DIRECTION('',(0.,1.,0.));
#1029=DIRECTION('',(0.,0.,-1.));
#1030=DIRECTION('center_axis',(0.,1.,0.));
#1031=DIRECTION('ref_axis',(1.,0.,0.));
#1032=DIRECTION('',(1.,0.,0.));
#1033=DIRECTION('',(0.,0.,-1.));
#1034=DIRECTION('',(-1.,0.,0.));
#1035=DIRECTION('center_axis',(1.,-5.84327907697451E-17,0.));
#1036=DIRECTION('ref_axis',(-5.84327907697451E-17,-1.,0.));
#1037=DIRECTION('',(-5.84327907697451E-17,-1.,0.));
#1038=DIRECTION('',(0.,0.,-1.));
#1039=DIRECTION('',(5.84327907697451E-17,1.,0.));
#1040=DIRECTION('center_axis',(2.46716227694479E-16,1.,0.));
#1041=DIRECTION('ref_axis',(1.,-2.46716227694479E-16,0.));
#1042=DIRECTION('',(1.,-2.46716227694479E-16,0.));
#1043=DIRECTION('',(0.,0.,-1.));
#1044=DIRECTION('',(-1.,2.46716227694479E-16,0.));
#1045=DIRECTION('center_axis',(-1.,0.,0.));
#1046=DIRECTION('ref_axis',(0.,1.,0.));
#1047=DIRECTION('',(0.,1.,0.));
#1048=DIRECTION('',(0.,0.,-1.));
#1049=DIRECTION('',(0.,-1.,0.));
#1050=DIRECTION('center_axis',(-2.22044604925032E-15,1.,0.));
#1051=DIRECTION('ref_axis',(1.,2.22044604925032E-15,0.));
#1052=DIRECTION('',(1.,2.22044604925032E-15,0.));
#1053=DIRECTION('',(0.,0.,-1.));
#1054=DIRECTION('',(-1.,-2.22044604925032E-15,0.));
#1055=DIRECTION('center_axis',(-1.,-1.48029736616688E-15,0.));
#1056=DIRECTION('ref_axis',(-1.48029736616688E-15,1.,0.));
#1057=DIRECTION('',(-1.48029736616688E-15,1.,0.));
#1058=DIRECTION('',(0.,0.,-1.));
#1059=DIRECTION('',(1.48029736616688E-15,-1.,0.));
#1060=DIRECTION('center_axis',(1.11022302462515E-15,-1.,0.));
#1061=DIRECTION('ref_axis',(-1.,-1.11022302462515E-15,0.));
#1062=DIRECTION('',(-1.,-1.11022302462515E-15,0.));
#1063=DIRECTION('',(0.,0.,-1.));
#1064=DIRECTION('',(1.,1.11022302462515E-15,0.));
#1065=DIRECTION('center_axis',(-1.,0.,0.));
#1066=DIRECTION('ref_axis',(0.,1.,0.));
#1067=DIRECTION('',(0.,1.,0.));
#1068=DIRECTION('',(0.,0.,-1.));
#1069=DIRECTION('',(0.,-1.,0.));
#1070=DIRECTION('center_axis',(0.,-1.,0.));
#1071=DIRECTION('ref_axis',(-1.,0.,0.));
#1072=DIRECTION('',(-1.,0.,0.));
#1073=DIRECTION('',(0.,0.,-1.));
#1074=DIRECTION('',(1.,0.,0.));
#1075=DIRECTION('center_axis',(1.,-5.84327907697451E-17,0.));
#1076=DIRECTION('ref_axis',(-5.84327907697451E-17,-1.,0.));
#1077=DIRECTION('',(-5.84327907697451E-17,-1.,0.));
#1078=DIRECTION('',(0.,0.,-1.));
#1079=DIRECTION('',(5.84327907697451E-17,1.,0.));
#1080=DIRECTION('center_axis',(0.,-1.,0.));
#1081=DIRECTION('ref_axis',(-1.,0.,0.));
#1082=DIRECTION('',(-1.,0.,0.));
#1083=DIRECTION('',(1.,0.,0.));
#1084=DIRECTION('center_axis',(8.62309145339927E-17,1.,0.));
#1085=DIRECTION('ref_axis',(-1.,8.62309145339927E-17,0.));
#1086=DIRECTION('',(1.,-8.62309145339927E-17,0.));
#1087=DIRECTION('',(0.,0.,1.));
#1088=DIRECTION('',(-1.,8.62309145339927E-17,0.));
#1089=DIRECTION('',(0.,0.,1.));
#1090=DIRECTION('center_axis',(1.,1.77635683940025E-16,0.));
#1091=DIRECTION('ref_axis',(-1.77635683940025E-16,1.,0.));
#1092=DIRECTION('',(1.77635683940025E-16,-1.,0.));
#1093=DIRECTION('',(-1.77635683940025E-16,1.,0.));
#1094=DIRECTION('',(0.,0.,1.));
#1095=DIRECTION('center_axis',(-3.01808200868975E-16,-1.,0.));
#1096=DIRECTION('ref_axis',(1.,-3.01808200868975E-16,0.));
#1097=DIRECTION('',(-1.,3.01808200868975E-16,0.));
#1098=DIRECTION('',(1.,-3.01808200868975E-16,0.));
#1099=DIRECTION('',(0.,0.,1.));
#1100=DIRECTION('center_axis',(1.,0.,0.));
#1101=DIRECTION('ref_axis',(0.,1.,0.));
#1102=DIRECTION('',(0.,1.,0.));
#1103=DIRECTION('',(0.,1.,0.));
#1104=DIRECTION('',(0.,0.,1.));
#1105=DIRECTION('center_axis',(0.,-1.,0.));
#1106=DIRECTION('ref_axis',(1.,0.,0.));
#1107=DIRECTION('',(1.,0.,0.));
#1108=DIRECTION('',(1.,0.,0.));
#1109=DIRECTION('',(0.,0.,1.));
#1110=DIRECTION('center_axis',(-1.,0.,0.));
#1111=DIRECTION('ref_axis',(0.,-1.,0.));
#1112=DIRECTION('',(0.,-1.,0.));
#1113=DIRECTION('',(0.,-1.,0.));
#1114=DIRECTION('',(0.,0.,1.));
#1115=DIRECTION('center_axis',(-3.01808200868975E-16,-1.,0.));
#1116=DIRECTION('ref_axis',(1.,-3.01808200868975E-16,0.));
#1117=DIRECTION('',(-1.,3.01808200868975E-16,0.));
#1118=DIRECTION('',(1.,-3.01808200868975E-16,0.));
#1119=DIRECTION('',(0.,0.,1.));
#1120=DIRECTION('center_axis',(-1.,-1.4210854715202E-15,0.));
#1121=DIRECTION('ref_axis',(1.4210854715202E-15,-1.,0.));
#1122=DIRECTION('',(-1.4210854715202E-15,1.,0.));
#1123=DIRECTION('',(1.4210854715202E-15,-1.,0.));
#1124=DIRECTION('',(0.,0.,1.));
#1125=DIRECTION('center_axis',(8.62309145339927E-17,1.,0.));
#1126=DIRECTION('ref_axis',(-1.,8.62309145339927E-17,0.));
#1127=DIRECTION('',(1.,-8.62309145339927E-17,0.));
#1128=DIRECTION('',(-1.,8.62309145339927E-17,0.));
#1129=DIRECTION('',(0.,0.,1.));
#1130=DIRECTION('center_axis',(-1.,0.,0.));
#1131=DIRECTION('ref_axis',(0.,-1.,0.));
#1132=DIRECTION('',(0.,-1.,0.));
#1133=DIRECTION('',(0.,-1.,0.));
#1134=DIRECTION('',(0.,0.,1.));
#1135=DIRECTION('center_axis',(0.,1.,0.));
#1136=DIRECTION('ref_axis',(-1.,0.,0.));
#1137=DIRECTION('',(-1.,0.,0.));
#1138=DIRECTION('',(-1.,0.,0.));
#1139=DIRECTION('',(0.,0.,1.));
#1140=DIRECTION('center_axis',(1.,0.,0.));
#1141=DIRECTION('ref_axis',(0.,1.,0.));
#1142=DIRECTION('',(0.,1.,0.));
#1143=DIRECTION('',(0.,1.,0.));
#1144=DIRECTION('center_axis',(0.,0.,1.));
#1145=DIRECTION('ref_axis',(1.,0.,0.));
#1146=DIRECTION('center_axis',(0.,0.,1.));
#1147=DIRECTION('ref_axis',(1.,0.,0.));
#1148=CARTESIAN_POINT('',(0.,0.,0.));
#1149=CARTESIAN_POINT('Origin',(-23.4999999999998,-16.6666666666667,3.));
#1150=CARTESIAN_POINT('',(-18.3749999999998,-16.6666666666667,3.));
#1151=CARTESIAN_POINT('Origin',(-23.4999999999998,-16.6666666666667,3.));
#1152=CARTESIAN_POINT('',(-18.3749999999998,-16.6666666666667,0.));
#1153=CARTESIAN_POINT('',(-18.3749999999998,-16.6666666666667,3.));
#1154=CARTESIAN_POINT('Origin',(-23.4999999999998,-16.6666666666667,0.));
#1155=CARTESIAN_POINT('Origin',(95.0000000000001,-45.,3.));
#1156=CARTESIAN_POINT('',(96.5000000000001,-45.,3.));
#1157=CARTESIAN_POINT('Origin',(95.0000000000001,-45.,3.));
#1158=CARTESIAN_POINT('',(96.5000000000001,-45.,0.));
#1159=CARTESIAN_POINT('',(96.5000000000001,-45.,3.));
#1160=CARTESIAN_POINT('Origin',(95.0000000000001,-45.,0.));
#1161=CARTESIAN_POINT('Origin',(95.0000000000001,9.99999999999998,3.));
#1162=CARTESIAN_POINT('',(96.5000000000001,9.99999999999998,3.));
#1163=CARTESIAN_POINT('Origin',(95.0000000000001,9.99999999999998,3.));
#1164=CARTESIAN_POINT('',(96.5000000000001,9.99999999999998,0.));
#1165=CARTESIAN_POINT('',(96.5000000000001,9.99999999999998,3.));
#1166=CARTESIAN_POINT('Origin',(95.0000000000001,9.99999999999998,0.));
#1167=CARTESIAN_POINT('Origin',(-31.4999999999998,-28.6666666666667,3.));
#1168=CARTESIAN_POINT('',(-28.9999999999998,-28.6666666666667,3.));
#1169=CARTESIAN_POINT('Origin',(-31.4999999999998,-28.6666666666667,3.));
#1170=CARTESIAN_POINT('',(-28.9999999999998,-28.6666666666667,0.));
#1171=CARTESIAN_POINT('',(-28.9999999999998,-28.6666666666667,3.));
#1172=CARTESIAN_POINT('Origin',(-31.4999999999998,-28.6666666666667,0.));
#1173=CARTESIAN_POINT('Origin',(-15.4999999999998,-28.6666666666667,3.));
#1174=CARTESIAN_POINT('',(-12.9999999999998,-28.6666666666667,3.));
#1175=CARTESIAN_POINT('Origin',(-15.4999999999998,-28.6666666666667,3.));
#1176=CARTESIAN_POINT('',(-12.9999999999998,-28.6666666666667,0.));
#1177=CARTESIAN_POINT('',(-12.9999999999998,-28.6666666666667,3.));
#1178=CARTESIAN_POINT('Origin',(-15.4999999999998,-28.6666666666667,0.));
#1179=CARTESIAN_POINT('Origin',(2.00000000000002,9.99999999999999,3.));
#1180=CARTESIAN_POINT('',(3.50000000000002,9.99999999999999,3.));
#1181=CARTESIAN_POINT('Origin',(2.00000000000002,9.99999999999999,3.));
#1182=CARTESIAN_POINT('',(3.50000000000002,9.99999999999999,0.));
#1183=CARTESIAN_POINT('',(3.50000000000002,9.99999999999999,3.));
#1184=CARTESIAN_POINT('Origin',(2.00000000000002,9.99999999999999,0.));
#1185=CARTESIAN_POINT('Origin',(96.1,-27.8397143218417,3.));
#1186=CARTESIAN_POINT('',(96.1,-27.8397143218417,3.));
#1187=CARTESIAN_POINT('',(92.4000000000001,-30.15,3.));
#1188=CARTESIAN_POINT('',(67.7820898553691,-45.5214608738725,3.));
#1189=CARTESIAN_POINT('',(96.1,-27.8397143218417,0.));
#1190=CARTESIAN_POINT('',(96.1,-27.8397143218417,3.));
#1191=CARTESIAN_POINT('',(92.4000000000001,-30.15,0.));
#1192=CARTESIAN_POINT('',(67.7820898553691,-45.5214608738725,0.));
#1193=CARTESIAN_POINT('',(92.4000000000001,-30.15,3.));
#1194=CARTESIAN_POINT('Origin',(96.1,-7.83971432184173,3.));
#1195=CARTESIAN_POINT('',(96.1,-7.83971432184173,3.));
#1196=CARTESIAN_POINT('',(96.1,-3.91985716092087,3.));
#1197=CARTESIAN_POINT('',(96.1,-7.83971432184173,0.));
#1198=CARTESIAN_POINT('',(96.1,-7.83971432184173,3.));
#1199=CARTESIAN_POINT('',(96.1,-3.91985716092087,0.));
#1200=CARTESIAN_POINT('Origin',(92.4000000000001,-4.84999999999999,3.));
#1201=CARTESIAN_POINT('',(92.4000000000001,-4.84999999999999,3.));
#1202=CARTESIAN_POINT('',(63.263894362028,18.6928735969026,3.));
#1203=CARTESIAN_POINT('',(92.4000000000001,-4.84999999999999,0.));
#1204=CARTESIAN_POINT('',(92.4000000000001,-4.84999999999999,3.));
#1205=CARTESIAN_POINT('',(63.263894362028,18.6928735969026,0.));
#1206=CARTESIAN_POINT('Origin',(92.4000000000001,3.59999999999999,3.));
#1207=CARTESIAN_POINT('',(92.4000000000001,3.59999999999999,3.));
#1208=CARTESIAN_POINT('',(92.4000000000001,1.8,3.));
#1209=CARTESIAN_POINT('',(92.4000000000001,3.59999999999999,0.));
#1210=CARTESIAN_POINT('',(92.4000000000001,3.59999999999999,3.));
#1211=CARTESIAN_POINT('',(92.4000000000001,1.8,0.));
#1212=CARTESIAN_POINT('Origin',(4.60000000000004,3.59999999999998,3.));
#1213=CARTESIAN_POINT('',(4.60000000000004,3.59999999999998,3.));
#1214=CARTESIAN_POINT('',(2.30000000000004,3.59999999999998,3.));
#1215=CARTESIAN_POINT('',(4.60000000000004,3.59999999999998,0.));
#1216=CARTESIAN_POINT('',(4.60000000000004,3.59999999999998,3.));
#1217=CARTESIAN_POINT('',(2.30000000000004,3.59999999999998,0.));
#1218=CARTESIAN_POINT('Origin',(4.60000000000004,-38.6,3.));
#1219=CARTESIAN_POINT('',(4.60000000000004,-38.6,3.));
#1220=CARTESIAN_POINT('',(4.60000000000004,-19.3,3.));
#1221=CARTESIAN_POINT('',(4.60000000000004,-38.6,0.));
#1222=CARTESIAN_POINT('',(4.60000000000004,-38.6,3.));
#1223=CARTESIAN_POINT('',(4.60000000000004,-19.3,0.));
#1224=CARTESIAN_POINT('Origin',(92.4000000000001,-38.6,3.));
#1225=CARTESIAN_POINT('',(92.4000000000001,-38.6,3.));
#1226=CARTESIAN_POINT('',(46.2,-38.6,3.));
#1227=CARTESIAN_POINT('',(92.4000000000001,-38.6,0.));
#1228=CARTESIAN_POINT('',(92.4000000000001,-38.6,3.));
#1229=CARTESIAN_POINT('',(46.2,-38.6,0.));
#1230=CARTESIAN_POINT('Origin',(92.4000000000001,-30.15,3.));
#1231=CARTESIAN_POINT('',(92.4000000000001,-15.075,3.));
#1232=CARTESIAN_POINT('',(92.4000000000001,-15.075,0.));
#1233=CARTESIAN_POINT('Origin',(2.00000000000002,-45.,3.));
#1234=CARTESIAN_POINT('',(3.50000000000003,-45.,3.));
#1235=CARTESIAN_POINT('Origin',(2.00000000000002,-45.,3.));
#1236=CARTESIAN_POINT('',(3.50000000000003,-45.,0.));
#1237=CARTESIAN_POINT('',(3.50000000000003,-45.,3.));
#1238=CARTESIAN_POINT('Origin',(2.00000000000002,-45.,0.));
#1239=CARTESIAN_POINT('Origin',(-11.9999999999999,31.,3.));
#1240=CARTESIAN_POINT('',(-11.9999999999999,31.,3.));
#1241=CARTESIAN_POINT('',(-11.9999999999999,19.,3.));
#1242=CARTESIAN_POINT('',(-11.9999999999999,15.5,3.));
#1243=CARTESIAN_POINT('',(-11.9999999999999,31.,0.));
#1244=CARTESIAN_POINT('',(-11.9999999999999,31.,3.));
#1245=CARTESIAN_POINT('',(-11.9999999999999,19.,0.));
#1246=CARTESIAN_POINT('',(-11.9999999999999,15.5,0.));
#1247=CARTESIAN_POINT('',(-11.9999999999999,19.,3.));
#1248=CARTESIAN_POINT('Origin',(-13.9999999999999,31.,3.));
#1249=CARTESIAN_POINT('',(-13.9999999999999,31.,3.));
#1250=CARTESIAN_POINT('',(-6.99999999999991,31.,3.));
#1251=CARTESIAN_POINT('',(-13.9999999999999,31.,0.));
#1252=CARTESIAN_POINT('',(-13.9999999999999,31.,3.));
#1253=CARTESIAN_POINT('',(-6.99999999999991,31.,0.));
#1254=CARTESIAN_POINT('Origin',(-13.9999999999999,44.,3.));
#1255=CARTESIAN_POINT('',(-13.9999999999999,44.,3.));
#1256=CARTESIAN_POINT('',(-13.9999999999999,22.,3.));
#1257=CARTESIAN_POINT('',(-13.9999999999999,44.,0.));
#1258=CARTESIAN_POINT('',(-13.9999999999999,44.,3.));
#1259=CARTESIAN_POINT('',(-13.9999999999999,22.,0.));
#1260=CARTESIAN_POINT('Origin',(-85.9999999999999,44.,3.));
#1261=CARTESIAN_POINT('',(-85.9999999999999,44.,3.));
#1262=CARTESIAN_POINT('',(-42.9999999999999,44.,3.));
#1263=CARTESIAN_POINT('',(-85.9999999999999,44.,0.));
#1264=CARTESIAN_POINT('',(-85.9999999999999,44.,3.));
#1265=CARTESIAN_POINT('',(-42.9999999999999,44.,0.));
#1266=CARTESIAN_POINT('Origin',(-85.9999999999999,31.,3.));
#1267=CARTESIAN_POINT('',(-85.9999999999999,31.,3.));
#1268=CARTESIAN_POINT('',(-85.9999999999999,15.5,3.));
#1269=CARTESIAN_POINT('',(-85.9999999999999,31.,0.));
#1270=CARTESIAN_POINT('',(-85.9999999999999,31.,3.));
#1271=CARTESIAN_POINT('',(-85.9999999999999,15.5,0.));
#1272=CARTESIAN_POINT('Origin',(-87.9999999999999,31.,3.));
#1273=CARTESIAN_POINT('',(-87.9999999999999,31.,3.));
#1274=CARTESIAN_POINT('',(-44.,31.0000000000001,3.));
#1275=CARTESIAN_POINT('',(-87.9999999999999,31.,0.));
#1276=CARTESIAN_POINT('',(-87.9999999999999,31.,3.));
#1277=CARTESIAN_POINT('',(-44.,31.0000000000001,0.));
#1278=CARTESIAN_POINT('Origin',(-87.9999999999998,19.,3.));
#1279=CARTESIAN_POINT('',(-87.9999999999998,19.,3.));
#1280=CARTESIAN_POINT('',(-87.9999999999998,9.49999999999992,3.));
#1281=CARTESIAN_POINT('',(-87.9999999999998,19.,0.));
#1282=CARTESIAN_POINT('',(-87.9999999999998,19.,3.));
#1283=CARTESIAN_POINT('',(-87.9999999999998,9.49999999999992,0.));
#1284=CARTESIAN_POINT('Origin',(-85.9999999999998,19.,3.));
#1285=CARTESIAN_POINT('',(-85.9999999999998,19.,3.));
#1286=CARTESIAN_POINT('',(-42.9999999999999,19.,3.));
#1287=CARTESIAN_POINT('',(-85.9999999999998,19.,0.));
#1288=CARTESIAN_POINT('',(-85.9999999999998,19.,3.));
#1289=CARTESIAN_POINT('',(-42.9999999999999,19.,0.));
#1290=CARTESIAN_POINT('Origin',(-85.9999999999999,6.00000000000001,3.));
#1291=CARTESIAN_POINT('',(-85.9999999999999,6.00000000000001,3.));
#1292=CARTESIAN_POINT('',(-85.9999999999999,3.00000000000001,3.));
#1293=CARTESIAN_POINT('',(-85.9999999999999,6.00000000000001,0.));
#1294=CARTESIAN_POINT('',(-85.9999999999999,6.00000000000001,3.));
#1295=CARTESIAN_POINT('',(-85.9999999999999,3.00000000000001,0.));
#1296=CARTESIAN_POINT('Origin',(-13.9999999999999,6.00000000000001,3.));
#1297=CARTESIAN_POINT('',(-13.9999999999999,6.00000000000001,3.));
#1298=CARTESIAN_POINT('',(-6.99999999999991,6.00000000000001,3.));
#1299=CARTESIAN_POINT('',(-13.9999999999999,6.00000000000001,0.));
#1300=CARTESIAN_POINT('',(-13.9999999999999,6.00000000000001,3.));
#1301=CARTESIAN_POINT('',(-6.99999999999991,6.00000000000001,0.));
#1302=CARTESIAN_POINT('Origin',(-13.9999999999999,19.,3.));
#1303=CARTESIAN_POINT('',(-13.9999999999999,19.,3.));
#1304=CARTESIAN_POINT('',(-13.9999999999999,9.5,3.));
#1305=CARTESIAN_POINT('',(-13.9999999999999,19.,0.));
#1306=CARTESIAN_POINT('',(-13.9999999999999,19.,3.));
#1307=CARTESIAN_POINT('',(-13.9999999999999,9.5,0.));
#1308=CARTESIAN_POINT('Origin',(-11.9999999999999,19.,3.));
#1309=CARTESIAN_POINT('',(-5.99999999999991,19.,3.));
#1310=CARTESIAN_POINT('',(-5.99999999999991,19.,0.));
#1311=CARTESIAN_POINT('Origin',(103.,50.,0.));
#1312=CARTESIAN_POINT('',(100.,50.,0.));
#1313=CARTESIAN_POINT('',(103.,50.,0.));
#1314=CARTESIAN_POINT('',(-103.,50.,0.));
#1315=CARTESIAN_POINT('',(100.,50.,3.));
#1316=CARTESIAN_POINT('',(100.,50.,0.));
#1317=CARTESIAN_POINT('',(103.,50.,3.));
#1318=CARTESIAN_POINT('',(-103.,50.,3.));
#1319=CARTESIAN_POINT('',(103.,50.,0.));
#1320=CARTESIAN_POINT('Origin',(103.,-50.0000000000001,0.));
#1321=CARTESIAN_POINT('',(103.,-50.0000000000001,0.));
#1322=CARTESIAN_POINT('',(103.,50.,0.));
#1323=CARTESIAN_POINT('',(103.,-50.0000000000001,3.));
#1324=CARTESIAN_POINT('',(103.,50.,3.));
#1325=CARTESIAN_POINT('',(103.,-50.0000000000001,0.));
#1326=CARTESIAN_POINT('Origin',(100.,-50.0000000000001,0.));
#1327=CARTESIAN_POINT('',(100.,-50.0000000000001,0.));
#1328=CARTESIAN_POINT('',(103.,-50.0000000000001,0.));
#1329=CARTESIAN_POINT('',(100.,-50.0000000000001,3.));
#1330=CARTESIAN_POINT('',(103.,-50.0000000000001,3.));
#1331=CARTESIAN_POINT('',(100.,-50.0000000000001,0.));
#1332=CARTESIAN_POINT('Origin',(100.,-53.,0.));
#1333=CARTESIAN_POINT('',(100.,-53.,0.));
#1334=CARTESIAN_POINT('',(100.,-53.,0.));
#1335=CARTESIAN_POINT('',(100.,-53.,3.));
#1336=CARTESIAN_POINT('',(100.,-53.,3.));
#1337=CARTESIAN_POINT('',(100.,-53.,0.));
#1338=CARTESIAN_POINT('Origin',(-100.,-53.,0.));
#1339=CARTESIAN_POINT('',(-100.,-53.,0.));
#1340=CARTESIAN_POINT('',(-100.,-53.,0.));
#1341=CARTESIAN_POINT('',(-100.,-53.,3.));
#1342=CARTESIAN_POINT('',(-100.,-53.,3.));
#1343=CARTESIAN_POINT('',(-100.,-53.,0.));
#1344=CARTESIAN_POINT('Origin',(-100.,-50.,0.));
#1345=CARTESIAN_POINT('',(-100.,-50.,0.));
#1346=CARTESIAN_POINT('',(-100.,53.,0.));
#1347=CARTESIAN_POINT('',(-100.,-50.,3.));
#1348=CARTESIAN_POINT('',(-100.,53.,3.));
#1349=CARTESIAN_POINT('',(-100.,-50.,0.));
#1350=CARTESIAN_POINT('Origin',(-103.,-50.,0.));
#1351=CARTESIAN_POINT('',(-103.,-50.,0.));
#1352=CARTESIAN_POINT('',(103.,-50.0000000000001,0.));
#1353=CARTESIAN_POINT('',(-103.,-50.,3.));
#1354=CARTESIAN_POINT('',(103.,-50.0000000000001,3.));
#1355=CARTESIAN_POINT('',(-103.,-50.,0.));
#1356=CARTESIAN_POINT('Origin',(-103.,50.,0.));
#1357=CARTESIAN_POINT('',(-103.,50.,0.));
#1358=CARTESIAN_POINT('',(-103.,-50.,0.));
#1359=CARTESIAN_POINT('',(-103.,50.,3.));
#1360=CARTESIAN_POINT('',(-103.,-50.,3.));
#1361=CARTESIAN_POINT('',(-103.,50.,0.));
#1362=CARTESIAN_POINT('Origin',(-100.,50.,0.));
#1363=CARTESIAN_POINT('',(-100.,50.,0.));
#1364=CARTESIAN_POINT('',(-103.,50.,0.));
#1365=CARTESIAN_POINT('',(-100.,50.,3.));
#1366=CARTESIAN_POINT('',(-103.,50.,3.));
#1367=CARTESIAN_POINT('',(-100.,50.,0.));
#1368=CARTESIAN_POINT('Origin',(-100.,53.,0.));
#1369=CARTESIAN_POINT('',(-100.,53.,0.));
#1370=CARTESIAN_POINT('',(-100.,53.,0.));
#1371=CARTESIAN_POINT('',(-100.,53.,3.));
#1372=CARTESIAN_POINT('',(-100.,53.,3.));
#1373=CARTESIAN_POINT('',(-100.,53.,0.));
#1374=CARTESIAN_POINT('Origin',(100.,53.,0.));
#1375=CARTESIAN_POINT('',(100.,53.,0.));
#1376=CARTESIAN_POINT('',(100.,53.,0.));
#1377=CARTESIAN_POINT('',(100.,53.,3.));
#1378=CARTESIAN_POINT('',(100.,53.,3.));
#1379=CARTESIAN_POINT('',(100.,53.,0.));
#1380=CARTESIAN_POINT('Origin',(100.,50.,0.));
#1381=CARTESIAN_POINT('',(100.,-53.,0.));
#1382=CARTESIAN_POINT('',(100.,-53.,3.));
#1383=CARTESIAN_POINT('Origin',(3.5527136788005E-14,0.,3.));
#1384=CARTESIAN_POINT('Origin',(3.5527136788005E-14,0.,0.));
#1385=UNCERTAINTY_MEASURE_WITH_UNIT(LENGTH_MEASURE(0.01),#1389,
'DISTANCE_ACCURACY_VALUE',
'Maximum model space distance between geometric entities at asserted c
onnectivities');
#1386=UNCERTAINTY_MEASURE_WITH_UNIT(LENGTH_MEASURE(0.01),#1389,
'DISTANCE_ACCURACY_VALUE',
'Maximum model space distance between geometric entities at asserted c
onnectivities');
#1387=(
GEOMETRIC_REPRESENTATION_CONTEXT(3)
GLOBAL_UNCERTAINTY_ASSIGNED_CONTEXT((#1385))
GLOBAL_UNIT_ASSIGNED_CONTEXT((#1389,#1391,#1392))
REPRESENTATION_CONTEXT('','3D')
);
#1388=(
GEOMETRIC_REPRESENTATION_CONTEXT(3)
GLOBAL_UNCERTAINTY_ASSIGNED_CONTEXT((#1386))
GLOBAL_UNIT_ASSIGNED_CONTEXT((#1389,#1391,#1392))
REPRESENTATION_CONTEXT('','3D')
);
#1389=(
LENGTH_UNIT()
NAMED_UNIT(*)
SI_UNIT(.MILLI.,.METRE.)
);
#1390=(
LENGTH_UNIT()
NAMED_UNIT(*)
SI_UNIT($,.METRE.)
);
#1391=(
NAMED_UNIT(*)
PLANE_ANGLE_UNIT()
SI_UNIT($,.RADIAN.)
);
#1392=(
NAMED_UNIT(*)
SI_UNIT($,.STERADIAN.)
SOLID_ANGLE_UNIT()
);
#1393=SHAPE_DEFINITION_REPRESENTATION(#1394,#1395);
#1394=PRODUCT_DEFINITION_SHAPE('',$,#1397);
#1395=SHAPE_REPRESENTATION('',(#877),#1387);
#1396=PRODUCT_DEFINITION_CONTEXT('part definition',#1401,'design');
#1397=PRODUCT_DEFINITION('PLATE_LV_SIDE_CON','PLATE_LV_SIDE_CON v13',#1398,
#1396);
#1398=PRODUCT_DEFINITION_FORMATION('',$,#1403);
#1399=PRODUCT_RELATED_PRODUCT_CATEGORY('PLATE_LV_SIDE_CON v13',
'PLATE_LV_SIDE_CON v13',(#1403));
#1400=APPLICATION_PROTOCOL_DEFINITION('international standard',
'automotive_design',2009,#1401);
#1401=APPLICATION_CONTEXT(
'Core Data for Automotive Mechanical Design Process');
#1402=PRODUCT_CONTEXT('part definition',#1401,'mechanical');
#1403=PRODUCT('PLATE_LV_SIDE_CON','PLATE_LV_SIDE_CON v13',$,(#1402));
#1404=PRESENTATION_STYLE_ASSIGNMENT((#1406));
#1405=PRESENTATION_STYLE_ASSIGNMENT((#1407));
#1406=SURFACE_STYLE_USAGE(.BOTH.,#1408);
#1407=SURFACE_STYLE_USAGE(.BOTH.,#1409);
#1408=SURFACE_SIDE_STYLE('',(#1410));
#1409=SURFACE_SIDE_STYLE('',(#1411));
#1410=SURFACE_STYLE_FILL_AREA(#1412);
#1411=SURFACE_STYLE_FILL_AREA(#1413);
#1412=FILL_AREA_STYLE('Acier - Satin\X\E9',(#1414));
#1413=FILL_AREA_STYLE('Polycarbonate (transparent)',(#1415));
#1414=FILL_AREA_STYLE_COLOUR('Acier - Satin\X\E9',#1416);
#1415=FILL_AREA_STYLE_COLOUR('Polycarbonate (transparent)',#1417);
#1416=COLOUR_RGB('Acier - Satin\X\E9',0.627450980392157,0.627450980392157,
0.627450980392157);
#1417=COLOUR_RGB('Polycarbonate (transparent)',0.964705882352941,0.964705882352941,
0.952941176470588);
ENDSEC;
END-ISO-10303-21;
