ISO-10303-21;
HEADER;
/* Generated by software containing ST-Developer
 * from STEP Tools, Inc. (www.steptools.com) 
 */

FILE_DESCRIPTION(
/* description */ (''),
/* implementation_level */ '2;1');

FILE_NAME(
/* name */ 'PLATE_LV_BOTTOM.step',
/* time_stamp */ '2026-08-10T14:31:22+02:00',
/* author */ (''),
/* organization */ (''),
/* preprocessor_version */ 'ST-DEVELOPER v20.1',
/* originating_system */ 'Autodesk Translation Framework v15.8.0.0',
/* authorisation */ '');

FILE_SCHEMA (('AUTOMOTIVE_DESIGN { 1 0 10303 214 3 1 1 }'));
ENDSEC;

DATA;
#10=MECHANICAL_DESIGN_GEOMETRIC_PRESENTATION_REPRESENTATION('',(#13),#603);
#11=SHAPE_REPRESENTATION_RELATIONSHIP('SRR','None',#610,#12);
#12=ADVANCED_BREP_SHAPE_REPRESENTATION('',(#14),#602);
#13=STYLED_ITEM('',(#620),#14);
#14=MANIFOLD_SOLID_BREP('Corps1',#367);
#15=FACE_BOUND('',#72,.T.);
#16=FACE_BOUND('',#73,.T.);
#17=FACE_BOUND('',#74,.T.);
#18=FACE_BOUND('',#75,.T.);
#19=FACE_BOUND('',#77,.T.);
#20=FACE_BOUND('',#78,.T.);
#21=FACE_BOUND('',#79,.T.);
#22=FACE_BOUND('',#80,.T.);
#23=PLANE('',#393);
#24=PLANE('',#394);
#25=PLANE('',#395);
#26=PLANE('',#396);
#27=PLANE('',#397);
#28=PLANE('',#398);
#29=PLANE('',#399);
#30=PLANE('',#400);
#31=PLANE('',#401);
#32=PLANE('',#402);
#33=PLANE('',#403);
#34=PLANE('',#404);
#35=PLANE('',#405);
#36=PLANE('',#406);
#37=FACE_OUTER_BOUND('',#55,.T.);
#38=FACE_OUTER_BOUND('',#56,.T.);
#39=FACE_OUTER_BOUND('',#57,.T.);
#40=FACE_OUTER_BOUND('',#58,.T.);
#41=FACE_OUTER_BOUND('',#59,.T.);
#42=FACE_OUTER_BOUND('',#60,.T.);
#43=FACE_OUTER_BOUND('',#61,.T.);
#44=FACE_OUTER_BOUND('',#62,.T.);
#45=FACE_OUTER_BOUND('',#63,.T.);
#46=FACE_OUTER_BOUND('',#64,.T.);
#47=FACE_OUTER_BOUND('',#65,.T.);
#48=FACE_OUTER_BOUND('',#66,.T.);
#49=FACE_OUTER_BOUND('',#67,.T.);
#50=FACE_OUTER_BOUND('',#68,.T.);
#51=FACE_OUTER_BOUND('',#69,.T.);
#52=FACE_OUTER_BOUND('',#70,.T.);
#53=FACE_OUTER_BOUND('',#71,.T.);
#54=FACE_OUTER_BOUND('',#76,.T.);
#55=EDGE_LOOP('',(#249,#250,#251,#252));
#56=EDGE_LOOP('',(#253,#254,#255,#256));
#57=EDGE_LOOP('',(#257,#258,#259,#260));
#58=EDGE_LOOP('',(#261,#262,#263,#264));
#59=EDGE_LOOP('',(#265,#266,#267,#268));
#60=EDGE_LOOP('',(#269,#270,#271,#272));
#61=EDGE_LOOP('',(#273,#274,#275,#276));
#62=EDGE_LOOP('',(#277,#278,#279,#280));
#63=EDGE_LOOP('',(#281,#282,#283,#284));
#64=EDGE_LOOP('',(#285,#286,#287,#288));
#65=EDGE_LOOP('',(#289,#290,#291,#292));
#66=EDGE_LOOP('',(#293,#294,#295,#296));
#67=EDGE_LOOP('',(#297,#298,#299,#300));
#68=EDGE_LOOP('',(#301,#302,#303,#304));
#69=EDGE_LOOP('',(#305,#306,#307,#308));
#70=EDGE_LOOP('',(#309,#310,#311,#312));
#71=EDGE_LOOP('',(#313,#314,#315,#316,#317,#318,#319,#320,#321,#322,#323,
#324));
#72=EDGE_LOOP('',(#325));
#73=EDGE_LOOP('',(#326));
#74=EDGE_LOOP('',(#327));
#75=EDGE_LOOP('',(#328));
#76=EDGE_LOOP('',(#329,#330,#331,#332,#333,#334,#335,#336,#337,#338,#339,
#340));
#77=EDGE_LOOP('',(#341));
#78=EDGE_LOOP('',(#342));
#79=EDGE_LOOP('',(#343));
#80=EDGE_LOOP('',(#344));
#81=LINE('',#506,#121);
#82=LINE('',#512,#122);
#83=LINE('',#518,#123);
#84=LINE('',#524,#124);
#85=LINE('',#529,#125);
#86=LINE('',#531,#126);
#87=LINE('',#533,#127);
#88=LINE('',#534,#128);
#89=LINE('',#537,#129);
#90=LINE('',#539,#130);
#91=LINE('',#540,#131);
#92=LINE('',#543,#132);
#93=LINE('',#545,#133);
#94=LINE('',#546,#134);
#95=LINE('',#549,#135);
#96=LINE('',#551,#136);
#97=LINE('',#552,#137);
#98=LINE('',#555,#138);
#99=LINE('',#557,#139);
#100=LINE('',#558,#140);
#101=LINE('',#561,#141);
#102=LINE('',#563,#142);
#103=LINE('',#564,#143);
#104=LINE('',#567,#144);
#105=LINE('',#569,#145);
#106=LINE('',#570,#146);
#107=LINE('',#573,#147);
#108=LINE('',#575,#148);
#109=LINE('',#576,#149);
#110=LINE('',#579,#150);
#111=LINE('',#581,#151);
#112=LINE('',#582,#152);
#113=LINE('',#585,#153);
#114=LINE('',#587,#154);
#115=LINE('',#588,#155);
#116=LINE('',#591,#156);
#117=LINE('',#593,#157);
#118=LINE('',#594,#158);
#119=LINE('',#596,#159);
#120=LINE('',#597,#160);
#121=VECTOR('',#413,1.6);
#122=VECTOR('',#420,1.6);
#123=VECTOR('',#427,1.6);
#124=VECTOR('',#434,1.6);
#125=VECTOR('',#439,10.);
#126=VECTOR('',#440,10.);
#127=VECTOR('',#441,10.);
#128=VECTOR('',#442,10.);
#129=VECTOR('',#445,10.);
#130=VECTOR('',#446,10.);
#131=VECTOR('',#447,10.);
#132=VECTOR('',#450,10.);
#133=VECTOR('',#451,10.);
#134=VECTOR('',#452,10.);
#135=VECTOR('',#455,10.);
#136=VECTOR('',#456,10.);
#137=VECTOR('',#457,10.);
#138=VECTOR('',#460,10.);
#139=VECTOR('',#461,10.);
#140=VECTOR('',#462,10.);
#141=VECTOR('',#465,10.);
#142=VECTOR('',#466,10.);
#143=VECTOR('',#467,10.);
#144=VECTOR('',#470,10.);
#145=VECTOR('',#471,10.);
#146=VECTOR('',#472,10.);
#147=VECTOR('',#475,10.);
#148=VECTOR('',#476,10.);
#149=VECTOR('',#477,10.);
#150=VECTOR('',#480,10.);
#151=VECTOR('',#481,10.);
#152=VECTOR('',#482,10.);
#153=VECTOR('',#485,10.);
#154=VECTOR('',#486,10.);
#155=VECTOR('',#487,10.);
#156=VECTOR('',#490,10.);
#157=VECTOR('',#491,10.);
#158=VECTOR('',#492,10.);
#159=VECTOR('',#495,10.);
#160=VECTOR('',#496,10.);
#161=CIRCLE('',#382,1.6);
#162=CIRCLE('',#383,1.6);
#163=CIRCLE('',#385,1.6);
#164=CIRCLE('',#386,1.6);
#165=CIRCLE('',#388,1.6);
#166=CIRCLE('',#389,1.6);
#167=CIRCLE('',#391,1.6);
#168=CIRCLE('',#392,1.6);
#169=VERTEX_POINT('',#503);
#170=VERTEX_POINT('',#505);
#171=VERTEX_POINT('',#509);
#172=VERTEX_POINT('',#511);
#173=VERTEX_POINT('',#515);
#174=VERTEX_POINT('',#517);
#175=VERTEX_POINT('',#521);
#176=VERTEX_POINT('',#523);
#177=VERTEX_POINT('',#527);
#178=VERTEX_POINT('',#528);
#179=VERTEX_POINT('',#530);
#180=VERTEX_POINT('',#532);
#181=VERTEX_POINT('',#536);
#182=VERTEX_POINT('',#538);
#183=VERTEX_POINT('',#542);
#184=VERTEX_POINT('',#544);
#185=VERTEX_POINT('',#548);
#186=VERTEX_POINT('',#550);
#187=VERTEX_POINT('',#554);
#188=VERTEX_POINT('',#556);
#189=VERTEX_POINT('',#560);
#190=VERTEX_POINT('',#562);
#191=VERTEX_POINT('',#566);
#192=VERTEX_POINT('',#568);
#193=VERTEX_POINT('',#572);
#194=VERTEX_POINT('',#574);
#195=VERTEX_POINT('',#578);
#196=VERTEX_POINT('',#580);
#197=VERTEX_POINT('',#584);
#198=VERTEX_POINT('',#586);
#199=VERTEX_POINT('',#590);
#200=VERTEX_POINT('',#592);
#201=EDGE_CURVE('',#169,#169,#161,.T.);
#202=EDGE_CURVE('',#169,#170,#81,.T.);
#203=EDGE_CURVE('',#170,#170,#162,.T.);
#204=EDGE_CURVE('',#171,#171,#163,.T.);
#205=EDGE_CURVE('',#171,#172,#82,.T.);
#206=EDGE_CURVE('',#172,#172,#164,.T.);
#207=EDGE_CURVE('',#173,#173,#165,.T.);
#208=EDGE_CURVE('',#173,#174,#83,.T.);
#209=EDGE_CURVE('',#174,#174,#166,.T.);
#210=EDGE_CURVE('',#175,#175,#167,.T.);
#211=EDGE_CURVE('',#175,#176,#84,.T.);
#212=EDGE_CURVE('',#176,#176,#168,.T.);
#213=EDGE_CURVE('',#177,#178,#85,.T.);
#214=EDGE_CURVE('',#177,#179,#86,.T.);
#215=EDGE_CURVE('',#180,#179,#87,.T.);
#216=EDGE_CURVE('',#178,#180,#88,.T.);
#217=EDGE_CURVE('',#178,#181,#89,.T.);
#218=EDGE_CURVE('',#182,#180,#90,.T.);
#219=EDGE_CURVE('',#181,#182,#91,.T.);
#220=EDGE_CURVE('',#181,#183,#92,.T.);
#221=EDGE_CURVE('',#184,#182,#93,.T.);
#222=EDGE_CURVE('',#183,#184,#94,.T.);
#223=EDGE_CURVE('',#185,#183,#95,.T.);
#224=EDGE_CURVE('',#186,#184,#96,.T.);
#225=EDGE_CURVE('',#185,#186,#97,.T.);
#226=EDGE_CURVE('',#187,#185,#98,.T.);
#227=EDGE_CURVE('',#188,#186,#99,.T.);
#228=EDGE_CURVE('',#187,#188,#100,.T.);
#229=EDGE_CURVE('',#189,#187,#101,.T.);
#230=EDGE_CURVE('',#190,#188,#102,.T.);
#231=EDGE_CURVE('',#189,#190,#103,.T.);
#232=EDGE_CURVE('',#189,#191,#104,.T.);
#233=EDGE_CURVE('',#192,#190,#105,.T.);
#234=EDGE_CURVE('',#191,#192,#106,.T.);
#235=EDGE_CURVE('',#191,#193,#107,.T.);
#236=EDGE_CURVE('',#194,#192,#108,.T.);
#237=EDGE_CURVE('',#193,#194,#109,.T.);
#238=EDGE_CURVE('',#193,#195,#110,.T.);
#239=EDGE_CURVE('',#196,#194,#111,.T.);
#240=EDGE_CURVE('',#195,#196,#112,.T.);
#241=EDGE_CURVE('',#197,#195,#113,.T.);
#242=EDGE_CURVE('',#198,#196,#114,.T.);
#243=EDGE_CURVE('',#197,#198,#115,.T.);
#244=EDGE_CURVE('',#199,#197,#116,.T.);
#245=EDGE_CURVE('',#200,#198,#117,.T.);
#246=EDGE_CURVE('',#199,#200,#118,.T.);
#247=EDGE_CURVE('',#177,#199,#119,.T.);
#248=EDGE_CURVE('',#179,#200,#120,.T.);
#249=ORIENTED_EDGE('',*,*,#201,.F.);
#250=ORIENTED_EDGE('',*,*,#202,.T.);
#251=ORIENTED_EDGE('',*,*,#203,.F.);
#252=ORIENTED_EDGE('',*,*,#202,.F.);
#253=ORIENTED_EDGE('',*,*,#204,.F.);
#254=ORIENTED_EDGE('',*,*,#205,.T.);
#255=ORIENTED_EDGE('',*,*,#206,.F.);
#256=ORIENTED_EDGE('',*,*,#205,.F.);
#257=ORIENTED_EDGE('',*,*,#207,.F.);
#258=ORIENTED_EDGE('',*,*,#208,.T.);
#259=ORIENTED_EDGE('',*,*,#209,.F.);
#260=ORIENTED_EDGE('',*,*,#208,.F.);
#261=ORIENTED_EDGE('',*,*,#210,.F.);
#262=ORIENTED_EDGE('',*,*,#211,.T.);
#263=ORIENTED_EDGE('',*,*,#212,.F.);
#264=ORIENTED_EDGE('',*,*,#211,.F.);
#265=ORIENTED_EDGE('',*,*,#213,.F.);
#266=ORIENTED_EDGE('',*,*,#214,.T.);
#267=ORIENTED_EDGE('',*,*,#215,.F.);
#268=ORIENTED_EDGE('',*,*,#216,.F.);
#269=ORIENTED_EDGE('',*,*,#217,.F.);
#270=ORIENTED_EDGE('',*,*,#216,.T.);
#271=ORIENTED_EDGE('',*,*,#218,.F.);
#272=ORIENTED_EDGE('',*,*,#219,.F.);
#273=ORIENTED_EDGE('',*,*,#220,.F.);
#274=ORIENTED_EDGE('',*,*,#219,.T.);
#275=ORIENTED_EDGE('',*,*,#221,.F.);
#276=ORIENTED_EDGE('',*,*,#222,.F.);
#277=ORIENTED_EDGE('',*,*,#223,.T.);
#278=ORIENTED_EDGE('',*,*,#222,.T.);
#279=ORIENTED_EDGE('',*,*,#224,.F.);
#280=ORIENTED_EDGE('',*,*,#225,.F.);
#281=ORIENTED_EDGE('',*,*,#226,.T.);
#282=ORIENTED_EDGE('',*,*,#225,.T.);
#283=ORIENTED_EDGE('',*,*,#227,.F.);
#284=ORIENTED_EDGE('',*,*,#228,.F.);
#285=ORIENTED_EDGE('',*,*,#229,.T.);
#286=ORIENTED_EDGE('',*,*,#228,.T.);
#287=ORIENTED_EDGE('',*,*,#230,.F.);
#288=ORIENTED_EDGE('',*,*,#231,.F.);
#289=ORIENTED_EDGE('',*,*,#232,.F.);
#290=ORIENTED_EDGE('',*,*,#231,.T.);
#291=ORIENTED_EDGE('',*,*,#233,.F.);
#292=ORIENTED_EDGE('',*,*,#234,.F.);
#293=ORIENTED_EDGE('',*,*,#235,.F.);
#294=ORIENTED_EDGE('',*,*,#234,.T.);
#295=ORIENTED_EDGE('',*,*,#236,.F.);
#296=ORIENTED_EDGE('',*,*,#237,.F.);
#297=ORIENTED_EDGE('',*,*,#238,.F.);
#298=ORIENTED_EDGE('',*,*,#237,.T.);
#299=ORIENTED_EDGE('',*,*,#239,.F.);
#300=ORIENTED_EDGE('',*,*,#240,.F.);
#301=ORIENTED_EDGE('',*,*,#241,.T.);
#302=ORIENTED_EDGE('',*,*,#240,.T.);
#303=ORIENTED_EDGE('',*,*,#242,.F.);
#304=ORIENTED_EDGE('',*,*,#243,.F.);
#305=ORIENTED_EDGE('',*,*,#244,.T.);
#306=ORIENTED_EDGE('',*,*,#243,.T.);
#307=ORIENTED_EDGE('',*,*,#245,.F.);
#308=ORIENTED_EDGE('',*,*,#246,.F.);
#309=ORIENTED_EDGE('',*,*,#247,.T.);
#310=ORIENTED_EDGE('',*,*,#246,.T.);
#311=ORIENTED_EDGE('',*,*,#248,.F.);
#312=ORIENTED_EDGE('',*,*,#214,.F.);
#313=ORIENTED_EDGE('',*,*,#248,.T.);
#314=ORIENTED_EDGE('',*,*,#245,.T.);
#315=ORIENTED_EDGE('',*,*,#242,.T.);
#316=ORIENTED_EDGE('',*,*,#239,.T.);
#317=ORIENTED_EDGE('',*,*,#236,.T.);
#318=ORIENTED_EDGE('',*,*,#233,.T.);
#319=ORIENTED_EDGE('',*,*,#230,.T.);
#320=ORIENTED_EDGE('',*,*,#227,.T.);
#321=ORIENTED_EDGE('',*,*,#224,.T.);
#322=ORIENTED_EDGE('',*,*,#221,.T.);
#323=ORIENTED_EDGE('',*,*,#218,.T.);
#324=ORIENTED_EDGE('',*,*,#215,.T.);
#325=ORIENTED_EDGE('',*,*,#201,.T.);
#326=ORIENTED_EDGE('',*,*,#204,.T.);
#327=ORIENTED_EDGE('',*,*,#207,.T.);
#328=ORIENTED_EDGE('',*,*,#210,.T.);
#329=ORIENTED_EDGE('',*,*,#247,.F.);
#330=ORIENTED_EDGE('',*,*,#213,.T.);
#331=ORIENTED_EDGE('',*,*,#217,.T.);
#332=ORIENTED_EDGE('',*,*,#220,.T.);
#333=ORIENTED_EDGE('',*,*,#223,.F.);
#334=ORIENTED_EDGE('',*,*,#226,.F.);
#335=ORIENTED_EDGE('',*,*,#229,.F.);
#336=ORIENTED_EDGE('',*,*,#232,.T.);
#337=ORIENTED_EDGE('',*,*,#235,.T.);
#338=ORIENTED_EDGE('',*,*,#238,.T.);
#339=ORIENTED_EDGE('',*,*,#241,.F.);
#340=ORIENTED_EDGE('',*,*,#244,.F.);
#341=ORIENTED_EDGE('',*,*,#203,.T.);
#342=ORIENTED_EDGE('',*,*,#206,.T.);
#343=ORIENTED_EDGE('',*,*,#209,.T.);
#344=ORIENTED_EDGE('',*,*,#212,.T.);
#345=CYLINDRICAL_SURFACE('',#381,1.6);
#346=CYLINDRICAL_SURFACE('',#384,1.6);
#347=CYLINDRICAL_SURFACE('',#387,1.6);
#348=CYLINDRICAL_SURFACE('',#390,1.6);
#349=ADVANCED_FACE('',(#37),#345,.F.);
#350=ADVANCED_FACE('',(#38),#346,.F.);
#351=ADVANCED_FACE('',(#39),#347,.F.);
#352=ADVANCED_FACE('',(#40),#348,.F.);
#353=ADVANCED_FACE('',(#41),#23,.T.);
#354=ADVANCED_FACE('',(#42),#24,.T.);
#355=ADVANCED_FACE('',(#43),#25,.T.);
#356=ADVANCED_FACE('',(#44),#26,.T.);
#357=ADVANCED_FACE('',(#45),#27,.T.);
#358=ADVANCED_FACE('',(#46),#28,.T.);
#359=ADVANCED_FACE('',(#47),#29,.T.);
#360=ADVANCED_FACE('',(#48),#30,.T.);
#361=ADVANCED_FACE('',(#49),#31,.T.);
#362=ADVANCED_FACE('',(#50),#32,.T.);
#363=ADVANCED_FACE('',(#51),#33,.T.);
#364=ADVANCED_FACE('',(#52),#34,.T.);
#365=ADVANCED_FACE('',(#53,#15,#16,#17,#18),#35,.T.);
#366=ADVANCED_FACE('',(#54,#19,#20,#21,#22),#36,.F.);
#367=CLOSED_SHELL('',(#349,#350,#351,#352,#353,#354,#355,#356,#357,#358,
#359,#360,#361,#362,#363,#364,#365,#366));
#368=DERIVED_UNIT_ELEMENT(#370,1.);
#369=DERIVED_UNIT_ELEMENT(#605,-3.);
#370=(
MASS_UNIT()
NAMED_UNIT(*)
SI_UNIT(.KILO.,.GRAM.)
);
#371=DERIVED_UNIT((#368,#369));
#372=MEASURE_REPRESENTATION_ITEM('density measure',
POSITIVE_RATIO_MEASURE(7850.),#371);
#373=PROPERTY_DEFINITION_REPRESENTATION(#378,#375);
#374=PROPERTY_DEFINITION_REPRESENTATION(#379,#376);
#375=REPRESENTATION('material name',(#377),#602);
#376=REPRESENTATION('density',(#372),#602);
#377=DESCRIPTIVE_REPRESENTATION_ITEM('Acier','Acier');
#378=PROPERTY_DEFINITION('material property','material name',#612);
#379=PROPERTY_DEFINITION('material property','density of part',#612);
#380=AXIS2_PLACEMENT_3D('',#501,#407,#408);
#381=AXIS2_PLACEMENT_3D('',#502,#409,#410);
#382=AXIS2_PLACEMENT_3D('',#504,#411,#412);
#383=AXIS2_PLACEMENT_3D('',#507,#414,#415);
#384=AXIS2_PLACEMENT_3D('',#508,#416,#417);
#385=AXIS2_PLACEMENT_3D('',#510,#418,#419);
#386=AXIS2_PLACEMENT_3D('',#513,#421,#422);
#387=AXIS2_PLACEMENT_3D('',#514,#423,#424);
#388=AXIS2_PLACEMENT_3D('',#516,#425,#426);
#389=AXIS2_PLACEMENT_3D('',#519,#428,#429);
#390=AXIS2_PLACEMENT_3D('',#520,#430,#431);
#391=AXIS2_PLACEMENT_3D('',#522,#432,#433);
#392=AXIS2_PLACEMENT_3D('',#525,#435,#436);
#393=AXIS2_PLACEMENT_3D('',#526,#437,#438);
#394=AXIS2_PLACEMENT_3D('',#535,#443,#444);
#395=AXIS2_PLACEMENT_3D('',#541,#448,#449);
#396=AXIS2_PLACEMENT_3D('',#547,#453,#454);
#397=AXIS2_PLACEMENT_3D('',#553,#458,#459);
#398=AXIS2_PLACEMENT_3D('',#559,#463,#464);
#399=AXIS2_PLACEMENT_3D('',#565,#468,#469);
#400=AXIS2_PLACEMENT_3D('',#571,#473,#474);
#401=AXIS2_PLACEMENT_3D('',#577,#478,#479);
#402=AXIS2_PLACEMENT_3D('',#583,#483,#484);
#403=AXIS2_PLACEMENT_3D('',#589,#488,#489);
#404=AXIS2_PLACEMENT_3D('',#595,#493,#494);
#405=AXIS2_PLACEMENT_3D('',#598,#497,#498);
#406=AXIS2_PLACEMENT_3D('',#599,#499,#500);
#407=DIRECTION('axis',(0.,0.,1.));
#408=DIRECTION('refdir',(1.,0.,0.));
#409=DIRECTION('center_axis',(0.,0.,-1.));
#410=DIRECTION('ref_axis',(-1.,0.,0.));
#411=DIRECTION('center_axis',(0.,0.,-1.));
#412=DIRECTION('ref_axis',(-1.,0.,0.));
#413=DIRECTION('',(0.,0.,-1.));
#414=DIRECTION('center_axis',(0.,0.,1.));
#415=DIRECTION('ref_axis',(-1.,0.,0.));
#416=DIRECTION('center_axis',(0.,0.,-1.));
#417=DIRECTION('ref_axis',(-1.,0.,0.));
#418=DIRECTION('center_axis',(0.,0.,-1.));
#419=DIRECTION('ref_axis',(-1.,0.,0.));
#420=DIRECTION('',(0.,0.,-1.));
#421=DIRECTION('center_axis',(0.,0.,1.));
#422=DIRECTION('ref_axis',(-1.,0.,0.));
#423=DIRECTION('center_axis',(0.,0.,-1.));
#424=DIRECTION('ref_axis',(-1.,0.,0.));
#425=DIRECTION('center_axis',(0.,0.,-1.));
#426=DIRECTION('ref_axis',(-1.,0.,0.));
#427=DIRECTION('',(0.,0.,-1.));
#428=DIRECTION('center_axis',(0.,0.,1.));
#429=DIRECTION('ref_axis',(-1.,0.,0.));
#430=DIRECTION('center_axis',(0.,0.,-1.));
#431=DIRECTION('ref_axis',(-1.,0.,0.));
#432=DIRECTION('center_axis',(0.,0.,-1.));
#433=DIRECTION('ref_axis',(-1.,0.,0.));
#434=DIRECTION('',(0.,0.,-1.));
#435=DIRECTION('center_axis',(0.,0.,1.));
#436=DIRECTION('ref_axis',(-1.,0.,0.));
#437=DIRECTION('center_axis',(0.,1.,0.));
#438=DIRECTION('ref_axis',(-1.,0.,0.));
#439=DIRECTION('',(1.,0.,0.));
#440=DIRECTION('',(0.,0.,1.));
#441=DIRECTION('',(-1.,0.,0.));
#442=DIRECTION('',(0.,0.,1.));
#443=DIRECTION('center_axis',(1.,-2.368475785867E-16,0.));
#444=DIRECTION('ref_axis',(2.368475785867E-16,1.,0.));
#445=DIRECTION('',(-2.368475785867E-16,-1.,0.));
#446=DIRECTION('',(2.368475785867E-16,1.,0.));
#447=DIRECTION('',(0.,0.,1.));
#448=DIRECTION('center_axis',(-4.31154572669964E-17,-1.,0.));
#449=DIRECTION('ref_axis',(1.,-4.31154572669964E-17,0.));
#450=DIRECTION('',(-1.,4.31154572669964E-17,0.));
#451=DIRECTION('',(1.,-4.31154572669964E-17,0.));
#452=DIRECTION('',(0.,0.,1.));
#453=DIRECTION('center_axis',(1.,-2.27738056333365E-16,0.));
#454=DIRECTION('ref_axis',(2.27738056333365E-16,1.,0.));
#455=DIRECTION('',(2.27738056333365E-16,1.,0.));
#456=DIRECTION('',(2.27738056333365E-16,1.,0.));
#457=DIRECTION('',(0.,0.,1.));
#458=DIRECTION('center_axis',(-4.44089209850063E-17,-1.,0.));
#459=DIRECTION('ref_axis',(1.,-4.44089209850063E-17,0.));
#460=DIRECTION('',(1.,-4.44089209850063E-17,0.));
#461=DIRECTION('',(1.,-4.44089209850063E-17,0.));
#462=DIRECTION('',(0.,0.,1.));
#463=DIRECTION('center_axis',(-1.,0.,0.));
#464=DIRECTION('ref_axis',(0.,-1.,0.));
#465=DIRECTION('',(0.,-1.,0.));
#466=DIRECTION('',(0.,-1.,0.));
#467=DIRECTION('',(0.,0.,1.));
#468=DIRECTION('center_axis',(-4.31154572669964E-17,-1.,0.));
#469=DIRECTION('ref_axis',(1.,-4.31154572669964E-17,0.));
#470=DIRECTION('',(-1.,4.31154572669964E-17,0.));
#471=DIRECTION('',(1.,-4.31154572669964E-17,0.));
#472=DIRECTION('',(0.,0.,1.));
#473=DIRECTION('center_axis',(-1.,-2.368475785867E-16,0.));
#474=DIRECTION('ref_axis',(2.368475785867E-16,-1.,0.));
#475=DIRECTION('',(-2.368475785867E-16,1.,0.));
#476=DIRECTION('',(2.368475785867E-16,-1.,0.));
#477=DIRECTION('',(0.,0.,1.));
#478=DIRECTION('center_axis',(0.,1.,0.));
#479=DIRECTION('ref_axis',(-1.,0.,0.));
#480=DIRECTION('',(1.,0.,0.));
#481=DIRECTION('',(-1.,0.,0.));
#482=DIRECTION('',(0.,0.,1.));
#483=DIRECTION('center_axis',(-1.,0.,0.));
#484=DIRECTION('ref_axis',(0.,-1.,0.));
#485=DIRECTION('',(0.,-1.,0.));
#486=DIRECTION('',(0.,-1.,0.));
#487=DIRECTION('',(0.,0.,1.));
#488=DIRECTION('center_axis',(-2.22044604925031E-16,1.,0.));
#489=DIRECTION('ref_axis',(-1.,-2.22044604925031E-16,0.));
#490=DIRECTION('',(-1.,-2.22044604925031E-16,0.));
#491=DIRECTION('',(-1.,-2.22044604925031E-16,0.));
#492=DIRECTION('',(0.,0.,1.));
#493=DIRECTION('center_axis',(1.,-2.27738056333365E-16,0.));
#494=DIRECTION('ref_axis',(2.27738056333365E-16,1.,0.));
#495=DIRECTION('',(2.27738056333365E-16,1.,0.));
#496=DIRECTION('',(2.27738056333365E-16,1.,0.));
#497=DIRECTION('center_axis',(0.,0.,1.));
#498=DIRECTION('ref_axis',(1.,0.,0.));
#499=DIRECTION('center_axis',(0.,0.,1.));
#500=DIRECTION('ref_axis',(1.,0.,0.));
#501=CARTESIAN_POINT('',(0.,0.,0.));
#502=CARTESIAN_POINT('Origin',(-63.5,-31.75,3.));
#503=CARTESIAN_POINT('',(-61.9,-31.75,3.));
#504=CARTESIAN_POINT('Origin',(-63.5,-31.75,3.));
#505=CARTESIAN_POINT('',(-61.9,-31.75,0.));
#506=CARTESIAN_POINT('',(-61.9,-31.75,3.));
#507=CARTESIAN_POINT('Origin',(-63.5,-31.75,0.));
#508=CARTESIAN_POINT('Origin',(63.5,-31.75,3.));
#509=CARTESIAN_POINT('',(65.1,-31.75,3.));
#510=CARTESIAN_POINT('Origin',(63.5,-31.75,3.));
#511=CARTESIAN_POINT('',(65.1,-31.75,0.));
#512=CARTESIAN_POINT('',(65.1,-31.75,3.));
#513=CARTESIAN_POINT('Origin',(63.5,-31.75,0.));
#514=CARTESIAN_POINT('Origin',(-63.5,31.75,3.));
#515=CARTESIAN_POINT('',(-61.9,31.75,3.));
#516=CARTESIAN_POINT('Origin',(-63.5,31.75,3.));
#517=CARTESIAN_POINT('',(-61.9,31.75,0.));
#518=CARTESIAN_POINT('',(-61.9,31.75,3.));
#519=CARTESIAN_POINT('Origin',(-63.5,31.75,0.));
#520=CARTESIAN_POINT('Origin',(63.5,31.75,3.));
#521=CARTESIAN_POINT('',(65.1,31.75,3.));
#522=CARTESIAN_POINT('Origin',(63.5,31.75,3.));
#523=CARTESIAN_POINT('',(65.1,31.75,0.));
#524=CARTESIAN_POINT('',(65.1,31.75,3.));
#525=CARTESIAN_POINT('Origin',(63.5,31.75,0.));
#526=CARTESIAN_POINT('Origin',(103.,75.,0.));
#527=CARTESIAN_POINT('',(100.,75.,0.));
#528=CARTESIAN_POINT('',(103.,75.,0.));
#529=CARTESIAN_POINT('',(-103.,75.,0.));
#530=CARTESIAN_POINT('',(100.,75.,3.));
#531=CARTESIAN_POINT('',(100.,75.,0.));
#532=CARTESIAN_POINT('',(103.,75.,3.));
#533=CARTESIAN_POINT('',(-103.,75.,3.));
#534=CARTESIAN_POINT('',(103.,75.,0.));
#535=CARTESIAN_POINT('Origin',(103.,-75.,0.));
#536=CARTESIAN_POINT('',(103.,-75.,0.));
#537=CARTESIAN_POINT('',(103.,75.,0.));
#538=CARTESIAN_POINT('',(103.,-75.,3.));
#539=CARTESIAN_POINT('',(103.,75.,3.));
#540=CARTESIAN_POINT('',(103.,-75.,0.));
#541=CARTESIAN_POINT('Origin',(100.,-75.,0.));
#542=CARTESIAN_POINT('',(100.,-75.,0.));
#543=CARTESIAN_POINT('',(103.,-75.,0.));
#544=CARTESIAN_POINT('',(100.,-75.,3.));
#545=CARTESIAN_POINT('',(103.,-75.,3.));
#546=CARTESIAN_POINT('',(100.,-75.,0.));
#547=CARTESIAN_POINT('Origin',(100.,-78.,0.));
#548=CARTESIAN_POINT('',(100.,-78.,0.));
#549=CARTESIAN_POINT('',(100.,-78.,0.));
#550=CARTESIAN_POINT('',(100.,-78.,3.));
#551=CARTESIAN_POINT('',(100.,-78.,3.));
#552=CARTESIAN_POINT('',(100.,-78.,0.));
#553=CARTESIAN_POINT('Origin',(-100.,-78.,0.));
#554=CARTESIAN_POINT('',(-100.,-78.,0.));
#555=CARTESIAN_POINT('',(-100.,-78.,0.));
#556=CARTESIAN_POINT('',(-100.,-78.,3.));
#557=CARTESIAN_POINT('',(-100.,-78.,3.));
#558=CARTESIAN_POINT('',(-100.,-78.,0.));
#559=CARTESIAN_POINT('Origin',(-100.,-75.,0.));
#560=CARTESIAN_POINT('',(-100.,-75.,0.));
#561=CARTESIAN_POINT('',(-100.,78.,0.));
#562=CARTESIAN_POINT('',(-100.,-75.,3.));
#563=CARTESIAN_POINT('',(-100.,78.,3.));
#564=CARTESIAN_POINT('',(-100.,-75.,0.));
#565=CARTESIAN_POINT('Origin',(-103.,-75.,0.));
#566=CARTESIAN_POINT('',(-103.,-75.,0.));
#567=CARTESIAN_POINT('',(103.,-75.,0.));
#568=CARTESIAN_POINT('',(-103.,-75.,3.));
#569=CARTESIAN_POINT('',(103.,-75.,3.));
#570=CARTESIAN_POINT('',(-103.,-75.,0.));
#571=CARTESIAN_POINT('Origin',(-103.,75.,0.));
#572=CARTESIAN_POINT('',(-103.,75.,0.));
#573=CARTESIAN_POINT('',(-103.,-75.,0.));
#574=CARTESIAN_POINT('',(-103.,75.,3.));
#575=CARTESIAN_POINT('',(-103.,-75.,3.));
#576=CARTESIAN_POINT('',(-103.,75.,0.));
#577=CARTESIAN_POINT('Origin',(-100.,75.,0.));
#578=CARTESIAN_POINT('',(-100.,75.,0.));
#579=CARTESIAN_POINT('',(-103.,75.,0.));
#580=CARTESIAN_POINT('',(-100.,75.,3.));
#581=CARTESIAN_POINT('',(-103.,75.,3.));
#582=CARTESIAN_POINT('',(-100.,75.,0.));
#583=CARTESIAN_POINT('Origin',(-100.,78.,0.));
#584=CARTESIAN_POINT('',(-100.,78.,0.));
#585=CARTESIAN_POINT('',(-100.,78.,0.));
#586=CARTESIAN_POINT('',(-100.,78.,3.));
#587=CARTESIAN_POINT('',(-100.,78.,3.));
#588=CARTESIAN_POINT('',(-100.,78.,0.));
#589=CARTESIAN_POINT('Origin',(100.,78.,0.));
#590=CARTESIAN_POINT('',(100.,78.,0.));
#591=CARTESIAN_POINT('',(100.,78.,0.));
#592=CARTESIAN_POINT('',(100.,78.,3.));
#593=CARTESIAN_POINT('',(100.,78.,3.));
#594=CARTESIAN_POINT('',(100.,78.,0.));
#595=CARTESIAN_POINT('Origin',(100.,75.,0.));
#596=CARTESIAN_POINT('',(100.,-78.,0.));
#597=CARTESIAN_POINT('',(100.,-78.,3.));
#598=CARTESIAN_POINT('Origin',(0.,8.88178419700125E-15,3.));
#599=CARTESIAN_POINT('Origin',(0.,8.88178419700125E-15,0.));
#600=UNCERTAINTY_MEASURE_WITH_UNIT(LENGTH_MEASURE(0.01),#604,
'DISTANCE_ACCURACY_VALUE',
'Maximum model space distance between geometric entities at asserted c
onnectivities');
#601=UNCERTAINTY_MEASURE_WITH_UNIT(LENGTH_MEASURE(0.01),#604,
'DISTANCE_ACCURACY_VALUE',
'Maximum model space distance between geometric entities at asserted c
onnectivities');
#602=(
GEOMETRIC_REPRESENTATION_CONTEXT(3)
GLOBAL_UNCERTAINTY_ASSIGNED_CONTEXT((#600))
GLOBAL_UNIT_ASSIGNED_CONTEXT((#604,#606,#607))
REPRESENTATION_CONTEXT('','3D')
);
#603=(
GEOMETRIC_REPRESENTATION_CONTEXT(3)
GLOBAL_UNCERTAINTY_ASSIGNED_CONTEXT((#601))
GLOBAL_UNIT_ASSIGNED_CONTEXT((#604,#606,#607))
REPRESENTATION_CONTEXT('','3D')
);
#604=(
LENGTH_UNIT()
NAMED_UNIT(*)
SI_UNIT(.MILLI.,.METRE.)
);
#605=(
LENGTH_UNIT()
NAMED_UNIT(*)
SI_UNIT($,.METRE.)
);
#606=(
NAMED_UNIT(*)
PLANE_ANGLE_UNIT()
SI_UNIT($,.RADIAN.)
);
#607=(
NAMED_UNIT(*)
SI_UNIT($,.STERADIAN.)
SOLID_ANGLE_UNIT()
);
#608=SHAPE_DEFINITION_REPRESENTATION(#609,#610);
#609=PRODUCT_DEFINITION_SHAPE('',$,#612);
#610=SHAPE_REPRESENTATION('',(#380),#602);
#611=PRODUCT_DEFINITION_CONTEXT('part definition',#616,'design');
#612=PRODUCT_DEFINITION('PLATE_LV_BOTTOM','PLATE_LV_BOTTOM v3',#613,#611);
#613=PRODUCT_DEFINITION_FORMATION('',$,#618);
#614=PRODUCT_RELATED_PRODUCT_CATEGORY('PLATE_LV_BOTTOM v3',
'PLATE_LV_BOTTOM v3',(#618));
#615=APPLICATION_PROTOCOL_DEFINITION('international standard',
'automotive_design',2009,#616);
#616=APPLICATION_CONTEXT(
'Core Data for Automotive Mechanical Design Process');
#617=PRODUCT_CONTEXT('part definition',#616,'mechanical');
#618=PRODUCT('PLATE_LV_BOTTOM','PLATE_LV_BOTTOM v3',$,(#617));
#619=PRESENTATION_STYLE_ASSIGNMENT((#621));
#620=PRESENTATION_STYLE_ASSIGNMENT((#622));
#621=SURFACE_STYLE_USAGE(.BOTH.,#623);
#622=SURFACE_STYLE_USAGE(.BOTH.,#624);
#623=SURFACE_SIDE_STYLE('',(#625));
#624=SURFACE_SIDE_STYLE('',(#626));
#625=SURFACE_STYLE_FILL_AREA(#627);
#626=SURFACE_STYLE_FILL_AREA(#628);
#627=FILL_AREA_STYLE('Acier - Satin\X\E9',(#629));
#628=FILL_AREA_STYLE('Polycarbonate (transparent)',(#630));
#629=FILL_AREA_STYLE_COLOUR('Acier - Satin\X\E9',#631);
#630=FILL_AREA_STYLE_COLOUR('Polycarbonate (transparent)',#632);
#631=COLOUR_RGB('Acier - Satin\X\E9',0.627450980392157,0.627450980392157,
0.627450980392157);
#632=COLOUR_RGB('Polycarbonate (transparent)',0.964705882352941,0.964705882352941,
0.952941176470588);
ENDSEC;
END-ISO-10303-21;
