ISO-10303-21;
HEADER;
/* Generated by software containing ST-Developer
 * from STEP Tools, Inc. (www.steptools.com) 
 */

FILE_DESCRIPTION(
/* description */ ('STEP AP214'),
/* implementation_level */ '2;1');

FILE_NAME(
/* name */ 'STANDOFF_M3_5mm.step',
/* time_stamp */ '2026-08-10T14:31:20+02:00',
/* author */ (''),
/* organization */ (''),
/* preprocessor_version */ 'ST-DEVELOPER v20.1',
/* originating_system */ 'Autodesk Translation Framework v15.8.0.0',
/* authorisation */ '');

FILE_SCHEMA (('AUTOMOTIVE_DESIGN { 1 0 10303 214 3 1 1 }'));
ENDSEC;

DATA;
#10=MECHANICAL_DESIGN_GEOMETRIC_PRESENTATION_REPRESENTATION('',(#13),#484);
#11=SHAPE_REPRESENTATION_RELATIONSHIP('SRR','None',#491,#12);
#12=ADVANCED_BREP_SHAPE_REPRESENTATION('',(#14),#483);
#13=STYLED_ITEM('',(#501),#14);
#14=MANIFOLD_SOLID_BREP('Corps1',#267);
#15=FACE_BOUND('',#72,.T.);
#16=FACE_BOUND('',#74,.T.);
#17=PLANE('',#299);
#18=PLANE('',#300);
#19=PLANE('',#301);
#20=PLANE('',#302);
#21=PLANE('',#303);
#22=PLANE('',#304);
#23=PLANE('',#305);
#24=PLANE('',#306);
#25=PLANE('',#307);
#26=PLANE('',#308);
#27=(
BOUNDED_CURVE()
B_SPLINE_CURVE(2,(#408,#409,#410),.UNSPECIFIED.,.F.,.F.)
B_SPLINE_CURVE_WITH_KNOTS((3,3),(0.640799340344346,1.37164495465307),
 .UNSPECIFIED.)
CURVE()
GEOMETRIC_REPRESENTATION_ITEM()
RATIONAL_B_SPLINE_CURVE((2.0372265466644,2.35238659023389,2.0372265466644))
REPRESENTATION_ITEM('')
);
#28=(
BOUNDED_CURVE()
B_SPLINE_CURVE(2,(#412,#413,#414),.UNSPECIFIED.,.F.,.F.)
B_SPLINE_CURVE_WITH_KNOTS((3,3),(0.640753946931925,1.37156664088654),
 .UNSPECIFIED.)
CURVE()
GEOMETRIC_REPRESENTATION_ITEM()
RATIONAL_B_SPLINE_CURVE((2.03714657764994,2.35229424996984,2.03714657764994))
REPRESENTATION_ITEM('')
);
#29=(
BOUNDED_CURVE()
B_SPLINE_CURVE(2,(#416,#417,#418),.UNSPECIFIED.,.F.,.F.)
B_SPLINE_CURVE_WITH_KNOTS((3,3),(0.640799340344346,1.37164495465307),
 .UNSPECIFIED.)
CURVE()
GEOMETRIC_REPRESENTATION_ITEM()
RATIONAL_B_SPLINE_CURVE((2.03722654666441,2.3523865902339,2.03722654666441))
REPRESENTATION_ITEM('')
);
#30=(
BOUNDED_CURVE()
B_SPLINE_CURVE(2,(#423,#424,#425),.UNSPECIFIED.,.F.,.F.)
B_SPLINE_CURVE_WITH_KNOTS((3,3),(-1.37164495465307,-0.640799340344346),
 .UNSPECIFIED.)
CURVE()
GEOMETRIC_REPRESENTATION_ITEM()
RATIONAL_B_SPLINE_CURVE((2.0372265466644,2.35238659023389,2.0372265466644))
REPRESENTATION_ITEM('')
);
#31=(
BOUNDED_CURVE()
B_SPLINE_CURVE(2,(#427,#428,#429),.UNSPECIFIED.,.F.,.F.)
B_SPLINE_CURVE_WITH_KNOTS((3,3),(-1.37156664088654,-0.640753946931924),
 .UNSPECIFIED.)
CURVE()
GEOMETRIC_REPRESENTATION_ITEM()
RATIONAL_B_SPLINE_CURVE((2.03714657764994,2.35229424996984,2.03714657764994))
REPRESENTATION_ITEM('')
);
#32=(
BOUNDED_CURVE()
B_SPLINE_CURVE(2,(#430,#431,#432),.UNSPECIFIED.,.F.,.F.)
B_SPLINE_CURVE_WITH_KNOTS((3,3),(-1.37164495465306,-0.640799340344349),
 .UNSPECIFIED.)
CURVE()
GEOMETRIC_REPRESENTATION_ITEM()
RATIONAL_B_SPLINE_CURVE((2.0372265466644,2.35238659023388,2.0372265466644))
REPRESENTATION_ITEM('')
);
#33=(
BOUNDED_CURVE()
B_SPLINE_CURVE(2,(#436,#437,#438),.UNSPECIFIED.,.F.,.F.)
B_SPLINE_CURVE_WITH_KNOTS((3,3),(0.676008729132784,1.43240304990035),
 .UNSPECIFIED.)
CURVE()
GEOMETRIC_REPRESENTATION_ITEM()
RATIONAL_B_SPLINE_CURVE((2.09930595570208,2.42406971727195,2.09930595570208))
REPRESENTATION_ITEM('')
);
#34=(
BOUNDED_CURVE()
B_SPLINE_CURVE(2,(#440,#441,#442),.UNSPECIFIED.,.F.,.F.)
B_SPLINE_CURVE_WITH_KNOTS((3,3),(0.676008729132781,1.43240304990035),
 .UNSPECIFIED.)
CURVE()
GEOMETRIC_REPRESENTATION_ITEM()
RATIONAL_B_SPLINE_CURVE((2.09930595570208,2.42406971727197,2.09930595570209))
REPRESENTATION_ITEM('')
);
#35=(
BOUNDED_CURVE()
B_SPLINE_CURVE(2,(#444,#445,#446),.UNSPECIFIED.,.F.,.F.)
B_SPLINE_CURVE_WITH_KNOTS((3,3),(0.676008729132781,1.43240304990035),
 .UNSPECIFIED.)
CURVE()
GEOMETRIC_REPRESENTATION_ITEM()
RATIONAL_B_SPLINE_CURVE((2.09930595570208,2.42406971727197,2.09930595570209))
REPRESENTATION_ITEM('')
);
#36=(
BOUNDED_CURVE()
B_SPLINE_CURVE(2,(#451,#452,#453),.UNSPECIFIED.,.F.,.F.)
B_SPLINE_CURVE_WITH_KNOTS((3,3),(-1.43240304990035,-0.676008729132781),
 .UNSPECIFIED.)
CURVE()
GEOMETRIC_REPRESENTATION_ITEM()
RATIONAL_B_SPLINE_CURVE((2.09930595570209,2.42406971727197,2.09930595570209))
REPRESENTATION_ITEM('')
);
#37=(
BOUNDED_CURVE()
B_SPLINE_CURVE(2,(#455,#456,#457),.UNSPECIFIED.,.F.,.F.)
B_SPLINE_CURVE_WITH_KNOTS((3,3),(-1.43240304990036,-0.676008729132781),
 .UNSPECIFIED.)
CURVE()
GEOMETRIC_REPRESENTATION_ITEM()
RATIONAL_B_SPLINE_CURVE((2.09930595570208,2.42406971727197,2.09930595570209))
REPRESENTATION_ITEM('')
);
#38=(
BOUNDED_CURVE()
B_SPLINE_CURVE(2,(#458,#459,#460),.UNSPECIFIED.,.F.,.F.)
B_SPLINE_CURVE_WITH_KNOTS((3,3),(-1.43240304990035,-0.676008729132782),
 .UNSPECIFIED.)
CURVE()
GEOMETRIC_REPRESENTATION_ITEM()
RATIONAL_B_SPLINE_CURVE((2.09930595570208,2.42406971727197,2.09930595570208))
REPRESENTATION_ITEM('')
);
#39=CYLINDRICAL_SURFACE('',#292,1.45);
#40=CYLINDRICAL_SURFACE('',#297,1.24999999999999);
#41=FACE_OUTER_BOUND('',#58,.T.);
#42=FACE_OUTER_BOUND('',#59,.T.);
#43=FACE_OUTER_BOUND('',#60,.T.);
#44=FACE_OUTER_BOUND('',#61,.T.);
#45=FACE_OUTER_BOUND('',#62,.T.);
#46=FACE_OUTER_BOUND('',#63,.T.);
#47=FACE_OUTER_BOUND('',#64,.T.);
#48=FACE_OUTER_BOUND('',#65,.T.);
#49=FACE_OUTER_BOUND('',#66,.T.);
#50=FACE_OUTER_BOUND('',#67,.T.);
#51=FACE_OUTER_BOUND('',#68,.T.);
#52=FACE_OUTER_BOUND('',#69,.T.);
#53=FACE_OUTER_BOUND('',#70,.T.);
#54=FACE_OUTER_BOUND('',#71,.T.);
#55=FACE_OUTER_BOUND('',#73,.T.);
#56=FACE_OUTER_BOUND('',#75,.T.);
#57=FACE_OUTER_BOUND('',#76,.T.);
#58=EDGE_LOOP('',(#173,#174,#175,#176));
#59=EDGE_LOOP('',(#177,#178,#179,#180,#181));
#60=EDGE_LOOP('',(#182,#183,#184,#185,#186));
#61=EDGE_LOOP('',(#187,#188,#189,#190,#191,#192));
#62=EDGE_LOOP('',(#193,#194,#195,#196,#197,#198,#199,#200,#201));
#63=EDGE_LOOP('',(#202,#203,#204,#205,#206,#207,#208,#209,#210));
#64=EDGE_LOOP('',(#211,#212,#213,#214));
#65=EDGE_LOOP('',(#215,#216,#217,#218));
#66=EDGE_LOOP('',(#219,#220,#221,#222));
#67=EDGE_LOOP('',(#223,#224,#225,#226));
#68=EDGE_LOOP('',(#227,#228,#229,#230));
#69=EDGE_LOOP('',(#231,#232,#233,#234));
#70=EDGE_LOOP('',(#235,#236,#237,#238));
#71=EDGE_LOOP('',(#239));
#72=EDGE_LOOP('',(#240));
#73=EDGE_LOOP('',(#241));
#74=EDGE_LOOP('',(#242));
#75=EDGE_LOOP('',(#243));
#76=EDGE_LOOP('',(#244));
#77=LINE('',#385,#90);
#78=LINE('',#391,#91);
#79=LINE('',#401,#92);
#80=LINE('',#404,#93);
#81=LINE('',#420,#94);
#82=LINE('',#448,#95);
#83=LINE('',#464,#96);
#84=LINE('',#466,#97);
#85=LINE('',#467,#98);
#86=LINE('',#469,#99);
#87=LINE('',#471,#100);
#88=LINE('',#473,#101);
#89=LINE('',#475,#102);
#90=VECTOR('',#315,1.24999999999999);
#91=VECTOR('',#322,1.7);
#92=VECTOR('',#333,1.2);
#93=VECTOR('',#338,1.45);
#94=VECTOR('',#341,2.88675134594813);
#95=VECTOR('',#346,2.88675134594813);
#96=VECTOR('',#353,1.24999999999999);
#97=VECTOR('',#356,1000.);
#98=VECTOR('',#357,1000.);
#99=VECTOR('',#360,1000.);
#100=VECTOR('',#363,1000.);
#101=VECTOR('',#366,1000.);
#102=VECTOR('',#369,1000.);
#103=CIRCLE('',#282,1.24999999999999);
#104=CIRCLE('',#283,1.49999999999999);
#105=CIRCLE('',#285,1.7);
#106=CIRCLE('',#286,1.45);
#107=CIRCLE('',#287,1.45);
#108=CIRCLE('',#289,1.45);
#109=CIRCLE('',#290,1.45);
#110=CIRCLE('',#291,1.2);
#111=CIRCLE('',#294,2.48675134594813);
#112=CIRCLE('',#296,2.48675134594813);
#113=CIRCLE('',#298,1.24999999999999);
#114=VERTEX_POINT('',#382);
#115=VERTEX_POINT('',#384);
#116=VERTEX_POINT('',#388);
#117=VERTEX_POINT('',#390);
#118=VERTEX_POINT('',#392);
#119=VERTEX_POINT('',#396);
#120=VERTEX_POINT('',#397);
#121=VERTEX_POINT('',#400);
#122=VERTEX_POINT('',#406);
#123=VERTEX_POINT('',#407);
#124=VERTEX_POINT('',#411);
#125=VERTEX_POINT('',#415);
#126=VERTEX_POINT('',#419);
#127=VERTEX_POINT('',#422);
#128=VERTEX_POINT('',#426);
#129=VERTEX_POINT('',#434);
#130=VERTEX_POINT('',#435);
#131=VERTEX_POINT('',#439);
#132=VERTEX_POINT('',#443);
#133=VERTEX_POINT('',#447);
#134=VERTEX_POINT('',#450);
#135=VERTEX_POINT('',#454);
#136=VERTEX_POINT('',#462);
#137=EDGE_CURVE('',#114,#114,#103,.T.);
#138=EDGE_CURVE('',#114,#115,#77,.T.);
#139=EDGE_CURVE('',#115,#115,#104,.T.);
#140=EDGE_CURVE('',#116,#116,#105,.T.);
#141=EDGE_CURVE('',#116,#117,#78,.T.);
#142=EDGE_CURVE('',#118,#117,#106,.T.);
#143=EDGE_CURVE('',#117,#118,#107,.T.);
#144=EDGE_CURVE('',#119,#120,#108,.T.);
#145=EDGE_CURVE('',#120,#119,#109,.T.);
#146=EDGE_CURVE('',#120,#121,#79,.T.);
#147=EDGE_CURVE('',#121,#121,#110,.T.);
#148=EDGE_CURVE('',#119,#118,#80,.T.);
#149=EDGE_CURVE('',#122,#123,#27,.T.);
#150=EDGE_CURVE('',#123,#124,#28,.T.);
#151=EDGE_CURVE('',#124,#125,#29,.T.);
#152=EDGE_CURVE('',#125,#126,#81,.T.);
#153=EDGE_CURVE('',#126,#126,#111,.T.);
#154=EDGE_CURVE('',#125,#127,#30,.T.);
#155=EDGE_CURVE('',#127,#128,#31,.T.);
#156=EDGE_CURVE('',#128,#122,#32,.T.);
#157=EDGE_CURVE('',#129,#130,#33,.T.);
#158=EDGE_CURVE('',#130,#131,#34,.T.);
#159=EDGE_CURVE('',#131,#132,#35,.T.);
#160=EDGE_CURVE('',#132,#133,#82,.T.);
#161=EDGE_CURVE('',#133,#133,#112,.T.);
#162=EDGE_CURVE('',#132,#134,#36,.T.);
#163=EDGE_CURVE('',#134,#135,#37,.T.);
#164=EDGE_CURVE('',#135,#129,#38,.T.);
#165=EDGE_CURVE('',#136,#136,#113,.T.);
#166=EDGE_CURVE('',#136,#114,#83,.T.);
#167=EDGE_CURVE('',#128,#130,#84,.T.);
#168=EDGE_CURVE('',#122,#129,#85,.T.);
#169=EDGE_CURVE('',#123,#135,#86,.T.);
#170=EDGE_CURVE('',#124,#134,#87,.T.);
#171=EDGE_CURVE('',#125,#132,#88,.T.);
#172=EDGE_CURVE('',#127,#131,#89,.T.);
#173=ORIENTED_EDGE('',*,*,#137,.F.);
#174=ORIENTED_EDGE('',*,*,#138,.T.);
#175=ORIENTED_EDGE('',*,*,#139,.F.);
#176=ORIENTED_EDGE('',*,*,#138,.F.);
#177=ORIENTED_EDGE('',*,*,#140,.F.);
#178=ORIENTED_EDGE('',*,*,#141,.T.);
#179=ORIENTED_EDGE('',*,*,#142,.F.);
#180=ORIENTED_EDGE('',*,*,#143,.F.);
#181=ORIENTED_EDGE('',*,*,#141,.F.);
#182=ORIENTED_EDGE('',*,*,#144,.F.);
#183=ORIENTED_EDGE('',*,*,#145,.F.);
#184=ORIENTED_EDGE('',*,*,#146,.T.);
#185=ORIENTED_EDGE('',*,*,#147,.F.);
#186=ORIENTED_EDGE('',*,*,#146,.F.);
#187=ORIENTED_EDGE('',*,*,#144,.T.);
#188=ORIENTED_EDGE('',*,*,#145,.T.);
#189=ORIENTED_EDGE('',*,*,#148,.T.);
#190=ORIENTED_EDGE('',*,*,#142,.T.);
#191=ORIENTED_EDGE('',*,*,#143,.T.);
#192=ORIENTED_EDGE('',*,*,#148,.F.);
#193=ORIENTED_EDGE('',*,*,#149,.T.);
#194=ORIENTED_EDGE('',*,*,#150,.T.);
#195=ORIENTED_EDGE('',*,*,#151,.T.);
#196=ORIENTED_EDGE('',*,*,#152,.T.);
#197=ORIENTED_EDGE('',*,*,#153,.F.);
#198=ORIENTED_EDGE('',*,*,#152,.F.);
#199=ORIENTED_EDGE('',*,*,#154,.T.);
#200=ORIENTED_EDGE('',*,*,#155,.T.);
#201=ORIENTED_EDGE('',*,*,#156,.T.);
#202=ORIENTED_EDGE('',*,*,#157,.T.);
#203=ORIENTED_EDGE('',*,*,#158,.T.);
#204=ORIENTED_EDGE('',*,*,#159,.T.);
#205=ORIENTED_EDGE('',*,*,#160,.T.);
#206=ORIENTED_EDGE('',*,*,#161,.T.);
#207=ORIENTED_EDGE('',*,*,#160,.F.);
#208=ORIENTED_EDGE('',*,*,#162,.T.);
#209=ORIENTED_EDGE('',*,*,#163,.T.);
#210=ORIENTED_EDGE('',*,*,#164,.T.);
#211=ORIENTED_EDGE('',*,*,#165,.F.);
#212=ORIENTED_EDGE('',*,*,#166,.T.);
#213=ORIENTED_EDGE('',*,*,#137,.T.);
#214=ORIENTED_EDGE('',*,*,#166,.F.);
#215=ORIENTED_EDGE('',*,*,#156,.F.);
#216=ORIENTED_EDGE('',*,*,#167,.T.);
#217=ORIENTED_EDGE('',*,*,#157,.F.);
#218=ORIENTED_EDGE('',*,*,#168,.F.);
#219=ORIENTED_EDGE('',*,*,#149,.F.);
#220=ORIENTED_EDGE('',*,*,#168,.T.);
#221=ORIENTED_EDGE('',*,*,#164,.F.);
#222=ORIENTED_EDGE('',*,*,#169,.F.);
#223=ORIENTED_EDGE('',*,*,#150,.F.);
#224=ORIENTED_EDGE('',*,*,#169,.T.);
#225=ORIENTED_EDGE('',*,*,#163,.F.);
#226=ORIENTED_EDGE('',*,*,#170,.F.);
#227=ORIENTED_EDGE('',*,*,#151,.F.);
#228=ORIENTED_EDGE('',*,*,#170,.T.);
#229=ORIENTED_EDGE('',*,*,#162,.F.);
#230=ORIENTED_EDGE('',*,*,#171,.F.);
#231=ORIENTED_EDGE('',*,*,#154,.F.);
#232=ORIENTED_EDGE('',*,*,#171,.T.);
#233=ORIENTED_EDGE('',*,*,#159,.F.);
#234=ORIENTED_EDGE('',*,*,#172,.F.);
#235=ORIENTED_EDGE('',*,*,#155,.F.);
#236=ORIENTED_EDGE('',*,*,#172,.T.);
#237=ORIENTED_EDGE('',*,*,#158,.F.);
#238=ORIENTED_EDGE('',*,*,#167,.F.);
#239=ORIENTED_EDGE('',*,*,#153,.T.);
#240=ORIENTED_EDGE('',*,*,#139,.T.);
#241=ORIENTED_EDGE('',*,*,#161,.F.);
#242=ORIENTED_EDGE('',*,*,#140,.T.);
#243=ORIENTED_EDGE('',*,*,#165,.T.);
#244=ORIENTED_EDGE('',*,*,#147,.T.);
#245=CONICAL_SURFACE('',#281,1.24999999999999,0.78539816339745);
#246=CONICAL_SURFACE('',#284,1.7,0.785398163397443);
#247=CONICAL_SURFACE('',#288,1.2,0.785398163397448);
#248=CONICAL_SURFACE('',#293,2.88675134594813,0.785398163397445);
#249=CONICAL_SURFACE('',#295,2.88675134594813,0.785398163397445);
#250=ADVANCED_FACE('',(#41),#245,.F.);
#251=ADVANCED_FACE('',(#42),#246,.T.);
#252=ADVANCED_FACE('',(#43),#247,.T.);
#253=ADVANCED_FACE('',(#44),#39,.T.);
#254=ADVANCED_FACE('',(#45),#248,.T.);
#255=ADVANCED_FACE('',(#46),#249,.T.);
#256=ADVANCED_FACE('',(#47),#40,.F.);
#257=ADVANCED_FACE('',(#48),#17,.F.);
#258=ADVANCED_FACE('',(#49),#18,.F.);
#259=ADVANCED_FACE('',(#50),#19,.F.);
#260=ADVANCED_FACE('',(#51),#20,.F.);
#261=ADVANCED_FACE('',(#52),#21,.F.);
#262=ADVANCED_FACE('',(#53),#22,.F.);
#263=ADVANCED_FACE('',(#54,#15),#23,.T.);
#264=ADVANCED_FACE('',(#55,#16),#24,.F.);
#265=ADVANCED_FACE('',(#56),#25,.F.);
#266=ADVANCED_FACE('',(#57),#26,.T.);
#267=CLOSED_SHELL('',(#250,#251,#252,#253,#254,#255,#256,#257,#258,#259,
#260,#261,#262,#263,#264,#265,#266));
#268=DERIVED_UNIT_ELEMENT(#270,1.);
#269=DERIVED_UNIT_ELEMENT(#486,-3.);
#270=(
MASS_UNIT()
NAMED_UNIT(*)
SI_UNIT(.KILO.,.GRAM.)
);
#271=DERIVED_UNIT((#268,#269));
#272=MEASURE_REPRESENTATION_ITEM('density measure',
POSITIVE_RATIO_MEASURE(7850.),#271);
#273=PROPERTY_DEFINITION_REPRESENTATION(#278,#275);
#274=PROPERTY_DEFINITION_REPRESENTATION(#279,#276);
#275=REPRESENTATION('material name',(#277),#483);
#276=REPRESENTATION('density',(#272),#483);
#277=DESCRIPTIVE_REPRESENTATION_ITEM('Acier','Acier');
#278=PROPERTY_DEFINITION('material property','material name',#493);
#279=PROPERTY_DEFINITION('material property','density of part',#493);
#280=AXIS2_PLACEMENT_3D('',#380,#309,#310);
#281=AXIS2_PLACEMENT_3D('',#381,#311,#312);
#282=AXIS2_PLACEMENT_3D('',#383,#313,#314);
#283=AXIS2_PLACEMENT_3D('',#386,#316,#317);
#284=AXIS2_PLACEMENT_3D('',#387,#318,#319);
#285=AXIS2_PLACEMENT_3D('',#389,#320,#321);
#286=AXIS2_PLACEMENT_3D('',#393,#323,#324);
#287=AXIS2_PLACEMENT_3D('',#394,#325,#326);
#288=AXIS2_PLACEMENT_3D('',#395,#327,#328);
#289=AXIS2_PLACEMENT_3D('',#398,#329,#330);
#290=AXIS2_PLACEMENT_3D('',#399,#331,#332);
#291=AXIS2_PLACEMENT_3D('',#402,#334,#335);
#292=AXIS2_PLACEMENT_3D('',#403,#336,#337);
#293=AXIS2_PLACEMENT_3D('',#405,#339,#340);
#294=AXIS2_PLACEMENT_3D('',#421,#342,#343);
#295=AXIS2_PLACEMENT_3D('',#433,#344,#345);
#296=AXIS2_PLACEMENT_3D('',#449,#347,#348);
#297=AXIS2_PLACEMENT_3D('',#461,#349,#350);
#298=AXIS2_PLACEMENT_3D('',#463,#351,#352);
#299=AXIS2_PLACEMENT_3D('',#465,#354,#355);
#300=AXIS2_PLACEMENT_3D('',#468,#358,#359);
#301=AXIS2_PLACEMENT_3D('',#470,#361,#362);
#302=AXIS2_PLACEMENT_3D('',#472,#364,#365);
#303=AXIS2_PLACEMENT_3D('',#474,#367,#368);
#304=AXIS2_PLACEMENT_3D('',#476,#370,#371);
#305=AXIS2_PLACEMENT_3D('',#477,#372,#373);
#306=AXIS2_PLACEMENT_3D('',#478,#374,#375);
#307=AXIS2_PLACEMENT_3D('',#479,#376,#377);
#308=AXIS2_PLACEMENT_3D('',#480,#378,#379);
#309=DIRECTION('axis',(0.,0.,1.));
#310=DIRECTION('refdir',(1.,0.,0.));
#311=DIRECTION('center_axis',(0.,0.,1.));
#312=DIRECTION('ref_axis',(1.,0.,0.));
#313=DIRECTION('center_axis',(0.,0.,1.));
#314=DIRECTION('ref_axis',(1.,0.,0.));
#315=DIRECTION('',(-0.707106781186549,-8.65956056235495E-17,0.707106781186546));
#316=DIRECTION('center_axis',(0.,0.,-1.));
#317=DIRECTION('ref_axis',(1.,0.,0.));
#318=DIRECTION('center_axis',(0.,0.,1.));
#319=DIRECTION('ref_axis',(1.,0.,0.));
#320=DIRECTION('center_axis',(0.,0.,1.));
#321=DIRECTION('ref_axis',(1.,0.,0.));
#322=DIRECTION('',(0.707106781186543,8.65956056235488E-17,-0.707106781186552));
#323=DIRECTION('center_axis',(0.,0.,-1.));
#324=DIRECTION('ref_axis',(1.,0.,0.));
#325=DIRECTION('center_axis',(0.,0.,-1.));
#326=DIRECTION('ref_axis',(1.,0.,0.));
#327=DIRECTION('center_axis',(0.,0.,1.));
#328=DIRECTION('ref_axis',(1.,0.,0.));
#329=DIRECTION('center_axis',(0.,0.,1.));
#330=DIRECTION('ref_axis',(-1.,0.,0.));
#331=DIRECTION('center_axis',(0.,0.,1.));
#332=DIRECTION('ref_axis',(-1.,0.,0.));
#333=DIRECTION('',(0.707106781186547,8.65956056235493E-17,-0.707106781186547));
#334=DIRECTION('center_axis',(0.,0.,-1.));
#335=DIRECTION('ref_axis',(-1.,0.,0.));
#336=DIRECTION('center_axis',(0.,0.,-1.));
#337=DIRECTION('ref_axis',(-1.,0.,0.));
#338=DIRECTION('',(0.,0.,1.));
#339=DIRECTION('center_axis',(0.,0.,-1.));
#340=DIRECTION('ref_axis',(1.,0.,0.));
#341=DIRECTION('',(0.707106781186545,-8.6595605623549E-17,0.70710678118655));
#342=DIRECTION('center_axis',(0.,0.,1.));
#343=DIRECTION('ref_axis',(1.,0.,0.));
#344=DIRECTION('center_axis',(0.,0.,1.));
#345=DIRECTION('ref_axis',(1.,0.,0.));
#346=DIRECTION('',(0.707106781186545,8.6595605623549E-17,-0.70710678118655));
#347=DIRECTION('center_axis',(0.,0.,1.));
#348=DIRECTION('ref_axis',(1.,0.,0.));
#349=DIRECTION('center_axis',(0.,0.,1.));
#350=DIRECTION('ref_axis',(1.,0.,0.));
#351=DIRECTION('center_axis',(0.,0.,1.));
#352=DIRECTION('ref_axis',(-1.,0.,0.));
#353=DIRECTION('',(0.,0.,1.));
#354=DIRECTION('center_axis',(-0.866025403784442,0.499999999999995,0.));
#355=DIRECTION('ref_axis',(-0.499999999999995,-0.866025403784441,0.));
#356=DIRECTION('',(0.,0.,-1.));
#357=DIRECTION('',(0.,0.,-1.));
#358=DIRECTION('center_axis',(-0.866025403784438,-0.500000000000001,0.));
#359=DIRECTION('ref_axis',(0.500000000000001,-0.866025403784438,0.));
#360=DIRECTION('',(0.,0.,-1.));
#361=DIRECTION('center_axis',(3.45532357709546E-15,-1.,0.));
#362=DIRECTION('ref_axis',(1.,3.45532357709546E-15,0.));
#363=DIRECTION('',(0.,0.,-1.));
#364=DIRECTION('center_axis',(0.866025403784442,-0.499999999999995,0.));
#365=DIRECTION('ref_axis',(0.499999999999995,0.866025403784441,0.));
#366=DIRECTION('',(0.,0.,-1.));
#367=DIRECTION('center_axis',(0.866025403784435,0.500000000000007,0.));
#368=DIRECTION('ref_axis',(-0.500000000000007,0.866025403784435,0.));
#369=DIRECTION('',(0.,0.,-1.));
#370=DIRECTION('center_axis',(-1.03659707312864E-14,1.,0.));
#371=DIRECTION('ref_axis',(-1.,-1.03659707312864E-14,0.));
#372=DIRECTION('center_axis',(0.,0.,1.));
#373=DIRECTION('ref_axis',(1.,0.,0.));
#374=DIRECTION('center_axis',(0.,0.,1.));
#375=DIRECTION('ref_axis',(1.,0.,0.));
#376=DIRECTION('center_axis',(0.,0.,-1.));
#377=DIRECTION('ref_axis',(-1.,0.,0.));
#378=DIRECTION('center_axis',(0.,0.,-1.));
#379=DIRECTION('ref_axis',(-1.,0.,0.));
#380=CARTESIAN_POINT('',(0.,0.,0.));
#381=CARTESIAN_POINT('Origin',(0.,0.,2.25000000000001));
#382=CARTESIAN_POINT('',(-1.24999999999999,-1.53080849893418E-16,2.25000000000001));
#383=CARTESIAN_POINT('Origin',(0.,0.,2.25000000000001));
#384=CARTESIAN_POINT('',(-1.49999999999999,-1.83697019872102E-16,2.5));
#385=CARTESIAN_POINT('',(-1.24999999999999,-1.53080849893418E-16,2.25000000000001));
#386=CARTESIAN_POINT('Origin',(0.,0.,2.5));
#387=CARTESIAN_POINT('Origin',(0.,0.,-2.5));
#388=CARTESIAN_POINT('',(-1.7,-2.0818995585505E-16,-2.5));
#389=CARTESIAN_POINT('Origin',(0.,0.,-2.5));
#390=CARTESIAN_POINT('',(-1.45,-1.77573785876366E-16,-2.75));
#391=CARTESIAN_POINT('',(-1.7,-2.0818995585505E-16,-2.5));
#392=CARTESIAN_POINT('',(1.45,1.77573785876366E-16,-2.75));
#393=CARTESIAN_POINT('Origin',(0.,0.,-2.75));
#394=CARTESIAN_POINT('Origin',(0.,0.,-2.75));
#395=CARTESIAN_POINT('Origin',(0.,0.,-8.5));
#396=CARTESIAN_POINT('',(1.45,1.77573785876366E-16,-8.25));
#397=CARTESIAN_POINT('',(-1.45,-1.77573785876366E-16,-8.25));
#398=CARTESIAN_POINT('Origin',(0.,0.,-8.25));
#399=CARTESIAN_POINT('Origin',(0.,0.,-8.25));
#400=CARTESIAN_POINT('',(-1.2,-1.46957615897682E-16,-8.5));
#401=CARTESIAN_POINT('',(-1.2,-1.46957615897682E-16,-8.5));
#402=CARTESIAN_POINT('Origin',(0.,0.,-8.5));
#403=CARTESIAN_POINT('Origin',(0.,0.,-0.5));
#404=CARTESIAN_POINT('',(1.45,-1.77573785876366E-16,-0.5));
#405=CARTESIAN_POINT('Origin',(0.,0.,2.1));
#406=CARTESIAN_POINT('',(2.88675134594813,0.,2.1));
#407=CARTESIAN_POINT('',(1.44337567297406,2.5,2.1));
#408=CARTESIAN_POINT('Ctrl Pts',(2.88675134594813,9.8094217729359E-16,2.1));
#409=CARTESIAN_POINT('Ctrl Pts',(2.1650635094611,1.25,2.82168783648704));
#410=CARTESIAN_POINT('Ctrl Pts',(1.44337567297406,2.50000000000001,2.1));
#411=CARTESIAN_POINT('',(-1.44337567297408,2.49999999999999,2.1));
#412=CARTESIAN_POINT('Ctrl Pts',(1.44337567297406,2.50000000000001,2.1));
#413=CARTESIAN_POINT('Ctrl Pts',(-8.65973959207622E-15,2.5,2.82168783648704));
#414=CARTESIAN_POINT('Ctrl Pts',(-1.44337567297407,2.5,2.1));
#415=CARTESIAN_POINT('',(-2.88675134594813,-2.16840434497101E-14,2.1));
#416=CARTESIAN_POINT('Ctrl Pts',(-1.44337567297408,2.49999999999999,2.1));
#417=CARTESIAN_POINT('Ctrl Pts',(-2.16506350946111,1.24999999999998,2.82168783648704));
#418=CARTESIAN_POINT('Ctrl Pts',(-2.88675134594813,-2.48505351581043E-14,
2.1));
#419=CARTESIAN_POINT('',(-2.48675134594813,3.04539207609075E-16,2.5));
#420=CARTESIAN_POINT('',(-2.88675134594813,3.53525079574969E-16,2.1));
#421=CARTESIAN_POINT('Origin',(0.,0.,2.5));
#422=CARTESIAN_POINT('',(-1.44337567297404,-2.50000000000002,2.1));
#423=CARTESIAN_POINT('Ctrl Pts',(-2.88675134594813,-1.58040684119523E-14,
2.1));
#424=CARTESIAN_POINT('Ctrl Pts',(-2.16506350946109,-1.25000000000002,2.82168783648704));
#425=CARTESIAN_POINT('Ctrl Pts',(-1.44337567297404,-2.50000000000002,2.1));
#426=CARTESIAN_POINT('',(1.44337567297409,-2.49999999999998,2.1));
#427=CARTESIAN_POINT('Ctrl Pts',(-1.44337567297404,-2.50000000000001,2.1));
#428=CARTESIAN_POINT('Ctrl Pts',(2.59792187762287E-14,-2.5,2.82168783648704));
#429=CARTESIAN_POINT('Ctrl Pts',(1.44337567297409,-2.49999999999998,2.1));
#430=CARTESIAN_POINT('Ctrl Pts',(1.44337567297409,-2.49999999999999,2.1));
#431=CARTESIAN_POINT('Ctrl Pts',(2.16506350946111,-1.24999999999999,2.82168783648702));
#432=CARTESIAN_POINT('Ctrl Pts',(2.88675134594813,-7.62955026783904E-16,
2.1));
#433=CARTESIAN_POINT('Origin',(0.,0.,-2.1));
#434=CARTESIAN_POINT('',(2.88675134594813,0.,-2.1));
#435=CARTESIAN_POINT('',(1.44337567297409,-2.49999999999998,-2.1));
#436=CARTESIAN_POINT('Ctrl Pts',(2.88675134594813,-8.4616386409773E-16,
-2.1));
#437=CARTESIAN_POINT('Ctrl Pts',(2.16506350946111,-1.24999999999999,-2.82168783648702));
#438=CARTESIAN_POINT('Ctrl Pts',(1.44337567297409,-2.49999999999999,-2.1));
#439=CARTESIAN_POINT('',(-1.44337567297404,-2.50000000000001,-2.1));
#440=CARTESIAN_POINT('Ctrl Pts',(1.44337567297409,-2.49999999999999,-2.1));
#441=CARTESIAN_POINT('Ctrl Pts',(2.75335310107039E-14,-2.5,-2.82168783648704));
#442=CARTESIAN_POINT('Ctrl Pts',(-1.44337567297404,-2.50000000000002,-2.1));
#443=CARTESIAN_POINT('',(-2.88675134594813,-2.16840434497101E-14,-2.1));
#444=CARTESIAN_POINT('Ctrl Pts',(-1.44337567297404,-2.50000000000002,-2.1));
#445=CARTESIAN_POINT('Ctrl Pts',(-2.16506350946109,-1.25000000000002,-2.82168783648704));
#446=CARTESIAN_POINT('Ctrl Pts',(-2.88675134594813,-2.35868177117242E-14,
-2.1));
#447=CARTESIAN_POINT('',(-2.48675134594813,-3.04539207609075E-16,-2.5));
#448=CARTESIAN_POINT('',(-2.88675134594813,-3.53525079574969E-16,-2.1));
#449=CARTESIAN_POINT('Origin',(0.,0.,-2.5));
#450=CARTESIAN_POINT('',(-1.44337567297408,2.49999999999999,-2.1));
#451=CARTESIAN_POINT('Ctrl Pts',(-2.88675134594813,-1.29039989274903E-14,
-2.1));
#452=CARTESIAN_POINT('Ctrl Pts',(-2.1650635094611,1.24999999999999,-2.82168783648704));
#453=CARTESIAN_POINT('Ctrl Pts',(-1.44337567297408,2.5,-2.1));
#454=CARTESIAN_POINT('',(1.44337567297406,2.5,-2.1));
#455=CARTESIAN_POINT('Ctrl Pts',(-1.44337567297409,2.5,-2.09999999999999));
#456=CARTESIAN_POINT('Ctrl Pts',(-1.36557432028894E-14,2.5,-2.82168783648704));
#457=CARTESIAN_POINT('Ctrl Pts',(1.44337567297406,2.50000000000001,-2.1));
#458=CARTESIAN_POINT('Ctrl Pts',(1.44337567297406,2.5,-2.1));
#459=CARTESIAN_POINT('Ctrl Pts',(2.1650635094611,1.25,-2.82168783648704));
#460=CARTESIAN_POINT('Ctrl Pts',(2.88675134594813,4.54813076952529E-15,
-2.1));
#461=CARTESIAN_POINT('Origin',(0.,0.,2.5));
#462=CARTESIAN_POINT('',(-1.24999999999999,-1.53080849893418E-16,-0.5));
#463=CARTESIAN_POINT('Origin',(0.,0.,-0.5));
#464=CARTESIAN_POINT('',(-1.24999999999999,-1.53080849893418E-16,2.5));
#465=CARTESIAN_POINT('Origin',(1.44337567297409,-2.49999999999998,2.5));
#466=CARTESIAN_POINT('',(1.44337567297409,-2.49999999999998,2.5));
#467=CARTESIAN_POINT('',(2.88675134594813,0.,2.5));
#468=CARTESIAN_POINT('Origin',(2.88675134594813,0.,2.5));
#469=CARTESIAN_POINT('',(1.44337567297406,2.50000000000001,2.5));
#470=CARTESIAN_POINT('Origin',(1.44337567297406,2.50000000000001,2.5));
#471=CARTESIAN_POINT('',(-1.44337567297408,2.5,2.5));
#472=CARTESIAN_POINT('Origin',(-1.44337567297408,2.5,2.5));
#473=CARTESIAN_POINT('',(-2.88675134594813,-2.01580769085164E-14,2.5));
#474=CARTESIAN_POINT('Origin',(-2.88675134594813,-2.01580769085164E-14,
2.5));
#475=CARTESIAN_POINT('',(-1.44337567297404,-2.50000000000002,2.5));
#476=CARTESIAN_POINT('Origin',(-1.44337567297404,-2.50000000000002,2.5));
#477=CARTESIAN_POINT('Origin',(0.,0.,2.5));
#478=CARTESIAN_POINT('Origin',(0.,0.,-2.5));
#479=CARTESIAN_POINT('Origin',(0.,0.,-0.5));
#480=CARTESIAN_POINT('Origin',(0.,0.,-8.5));
#481=UNCERTAINTY_MEASURE_WITH_UNIT(LENGTH_MEASURE(0.01),#485,
'DISTANCE_ACCURACY_VALUE',
'Maximum model space distance between geometric entities at asserted c
onnectivities');
#482=UNCERTAINTY_MEASURE_WITH_UNIT(LENGTH_MEASURE(0.01),#485,
'DISTANCE_ACCURACY_VALUE',
'Maximum model space distance between geometric entities at asserted c
onnectivities');
#483=(
GEOMETRIC_REPRESENTATION_CONTEXT(3)
GLOBAL_UNCERTAINTY_ASSIGNED_CONTEXT((#481))
GLOBAL_UNIT_ASSIGNED_CONTEXT((#485,#487,#488))
REPRESENTATION_CONTEXT('','3D')
);
#484=(
GEOMETRIC_REPRESENTATION_CONTEXT(3)
GLOBAL_UNCERTAINTY_ASSIGNED_CONTEXT((#482))
GLOBAL_UNIT_ASSIGNED_CONTEXT((#485,#487,#488))
REPRESENTATION_CONTEXT('','3D')
);
#485=(
LENGTH_UNIT()
NAMED_UNIT(*)
SI_UNIT(.MILLI.,.METRE.)
);
#486=(
LENGTH_UNIT()
NAMED_UNIT(*)
SI_UNIT($,.METRE.)
);
#487=(
NAMED_UNIT(*)
PLANE_ANGLE_UNIT()
SI_UNIT($,.RADIAN.)
);
#488=(
NAMED_UNIT(*)
SI_UNIT($,.STERADIAN.)
SOLID_ANGLE_UNIT()
);
#489=SHAPE_DEFINITION_REPRESENTATION(#490,#491);
#490=PRODUCT_DEFINITION_SHAPE('',$,#493);
#491=SHAPE_REPRESENTATION('',(#280),#483);
#492=PRODUCT_DEFINITION_CONTEXT('part definition',#497,'design');
#493=PRODUCT_DEFINITION('M3_M_TO_F_5MM_STANDOFF','STANDOFF_M3_5mm v1',#494,
#492);
#494=PRODUCT_DEFINITION_FORMATION('',$,#499);
#495=PRODUCT_RELATED_PRODUCT_CATEGORY('STANDOFF_M3_5mm v1',
'STANDOFF_M3_5mm v1',(#499));
#496=APPLICATION_PROTOCOL_DEFINITION('international standard',
'automotive_design',2009,#497);
#497=APPLICATION_CONTEXT(
'Core Data for Automotive Mechanical Design Process');
#498=PRODUCT_CONTEXT('part definition',#497,'mechanical');
#499=PRODUCT('M3_M_TO_F_5MM_STANDOFF','STANDOFF_M3_5mm v1','STEP AP214',
(#498));
#500=PRESENTATION_STYLE_ASSIGNMENT((#502));
#501=PRESENTATION_STYLE_ASSIGNMENT((#503));
#502=SURFACE_STYLE_USAGE(.BOTH.,#504);
#503=SURFACE_STYLE_USAGE(.BOTH.,#505);
#504=SURFACE_SIDE_STYLE('',(#506));
#505=SURFACE_SIDE_STYLE('',(#507));
#506=SURFACE_STYLE_FILL_AREA(#508);
#507=SURFACE_STYLE_FILL_AREA(#509);
#508=FILL_AREA_STYLE('Acier - Satin\X\E9',(#510));
#509=FILL_AREA_STYLE('Opaque(165,132,0)',(#511));
#510=FILL_AREA_STYLE_COLOUR('Acier - Satin\X\E9',#512);
#511=FILL_AREA_STYLE_COLOUR('Opaque(165,132,0)',#513);
#512=COLOUR_RGB('Acier - Satin\X\E9',0.627450980392157,0.627450980392157,
0.627450980392157);
#513=COLOUR_RGB('Opaque(165,132,0)',0.647058823529412,0.517647058823529,
0.);
ENDSEC;
END-ISO-10303-21;
