ISO-10303-21;
HEADER;
/* Generated by software containing ST-Developer
 * from STEP Tools, Inc. (www.steptools.com) 
 */

FILE_DESCRIPTION(
/* description */ (''),
/* implementation_level */ '2;1');

FILE_NAME(
/* name */ 'SA_MakerBeam_CORNER.step',
/* time_stamp */ '2026-08-10T14:33:43+02:00',
/* author */ (''),
/* organization */ (''),
/* preprocessor_version */ 'ST-DEVELOPER v20.1',
/* originating_system */ 'Autodesk Translation Framework v15.8.0.0',
/* authorisation */ '');

FILE_SCHEMA (('AUTOMOTIVE_DESIGN { 1 0 10303 214 3 1 1 }'));
ENDSEC;

DATA;
#10=MECHANICAL_DESIGN_GEOMETRIC_PRESENTATION_REPRESENTATION('',(#31,#32),
#1228);
#11=ITEM_DEFINED_TRANSFORMATION($,$,#699,#790);
#12=ITEM_DEFINED_TRANSFORMATION($,$,#771,#791);
#13=ITEM_DEFINED_TRANSFORMATION($,$,#771,#792);
#14=ITEM_DEFINED_TRANSFORMATION($,$,#771,#793);
#15=(
REPRESENTATION_RELATIONSHIP($,$,#1244,#1243)
REPRESENTATION_RELATIONSHIP_WITH_TRANSFORMATION(#11)
SHAPE_REPRESENTATION_RELATIONSHIP()
);
#16=(
REPRESENTATION_RELATIONSHIP($,$,#1245,#1243)
REPRESENTATION_RELATIONSHIP_WITH_TRANSFORMATION(#12)
SHAPE_REPRESENTATION_RELATIONSHIP()
);
#17=(
REPRESENTATION_RELATIONSHIP($,$,#1245,#1243)
REPRESENTATION_RELATIONSHIP_WITH_TRANSFORMATION(#13)
SHAPE_REPRESENTATION_RELATIONSHIP()
);
#18=(
REPRESENTATION_RELATIONSHIP($,$,#1245,#1243)
REPRESENTATION_RELATIONSHIP_WITH_TRANSFORMATION(#14)
SHAPE_REPRESENTATION_RELATIONSHIP()
);
#19=CONTEXT_DEPENDENT_SHAPE_REPRESENTATION(#15,#1239);
#20=CONTEXT_DEPENDENT_SHAPE_REPRESENTATION(#16,#1240);
#21=CONTEXT_DEPENDENT_SHAPE_REPRESENTATION(#17,#1241);
#22=CONTEXT_DEPENDENT_SHAPE_REPRESENTATION(#18,#1242);
#23=NEXT_ASSEMBLY_USAGE_OCCURRENCE(
'MakerBeam_CUBE_CORNER_10x10x10mm v1:1',
'MakerBeam_CUBE_CORNER_10x10x10mm v1:1',
'MakerBeam_CUBE_CORNER_10x10x10mm v1:1',#1247,#1248,
'MakerBeam_CUBE_CORNER_10x10x10mm v1:1');
#24=NEXT_ASSEMBLY_USAGE_OCCURRENCE('BOLT_CSK_M3_4mm v1:1',
'BOLT_CSK_M3_4mm v1:1','BOLT_CSK_M3_4mm v1:1',#1247,#1249,
'BOLT_CSK_M3_4mm v1:1');
#25=NEXT_ASSEMBLY_USAGE_OCCURRENCE('BOLT_CSK_M3_4mm v1:2',
'BOLT_CSK_M3_4mm v1:2','BOLT_CSK_M3_4mm v1:2',#1247,#1249,
'BOLT_CSK_M3_4mm v1:2');
#26=NEXT_ASSEMBLY_USAGE_OCCURRENCE('BOLT_CSK_M3_4mm v1:3',
'BOLT_CSK_M3_4mm v1:3','BOLT_CSK_M3_4mm v1:3',#1247,#1249,
'BOLT_CSK_M3_4mm v1:3');
#27=SHAPE_REPRESENTATION_RELATIONSHIP('SRR','None',#1244,#29);
#28=SHAPE_REPRESENTATION_RELATIONSHIP('SRR','None',#1245,#30);
#29=ADVANCED_BREP_SHAPE_REPRESENTATION('',(#33),#1226);
#30=ADVANCED_BREP_SHAPE_REPRESENTATION('',(#34),#1227);
#31=STYLED_ITEM('',(#1263),#33);
#32=STYLED_ITEM('',(#1264),#34);
#33=MANIFOLD_SOLID_BREP('Corps1',#673);
#34=MANIFOLD_SOLID_BREP('Corps1',#674);
#35=FACE_BOUND('',#210,.T.);
#36=FACE_BOUND('',#212,.T.);
#37=FACE_BOUND('',#214,.T.);
#38=FACE_BOUND('',#216,.T.);
#39=FACE_BOUND('',#218,.T.);
#40=FACE_BOUND('',#220,.T.);
#41=FACE_BOUND('',#234,.T.);
#42=PLANE('',#765);
#43=PLANE('',#766);
#44=PLANE('',#767);
#45=PLANE('',#768);
#46=PLANE('',#769);
#47=PLANE('',#770);
#48=PLANE('',#772);
#49=PLANE('',#773);
#50=PLANE('',#774);
#51=PLANE('',#775);
#52=PLANE('',#776);
#53=PLANE('',#782);
#54=PLANE('',#783);
#55=PLANE('',#788);
#56=PLANE('',#789);
#57=CONICAL_SURFACE('',#729,2.25,0.785398163397448);
#58=CONICAL_SURFACE('',#756,2.25,0.785398163397449);
#59=CONICAL_SURFACE('',#764,2.25,0.785398163397448);
#60=CONICAL_SURFACE('',#777,1000.,0.7853981625);
#61=CONICAL_SURFACE('',#784,1000.,0.7853981625);
#62=LINE('',#1059,#105);
#63=LINE('',#1072,#106);
#64=LINE('',#1082,#107);
#65=LINE('',#1101,#108);
#66=LINE('',#1109,#109);
#67=LINE('',#1117,#110);
#68=LINE('',#1120,#111);
#69=LINE('',#1129,#112);
#70=LINE('',#1132,#113);
#71=LINE('',#1136,#114);
#72=LINE('',#1138,#115);
#73=LINE('',#1140,#116);
#74=LINE('',#1141,#117);
#75=LINE('',#1145,#118);
#76=LINE('',#1146,#119);
#77=LINE('',#1147,#120);
#78=LINE('',#1150,#121);
#79=LINE('',#1151,#122);
#80=LINE('',#1154,#123);
#81=LINE('',#1155,#124);
#82=LINE('',#1157,#125);
#83=LINE('',#1163,#126);
#84=LINE('',#1165,#127);
#85=LINE('',#1167,#128);
#86=LINE('',#1168,#129);
#87=LINE('',#1171,#130);
#88=LINE('',#1173,#131);
#89=LINE('',#1175,#132);
#90=LINE('',#1177,#133);
#91=LINE('',#1178,#134);
#92=LINE('',#1181,#135);
#93=LINE('',#1182,#136);
#94=LINE('',#1185,#137);
#95=LINE('',#1186,#138);
#96=LINE('',#1189,#139);
#97=LINE('',#1190,#140);
#98=LINE('',#1195,#141);
#99=LINE('',#1199,#142);
#100=LINE('',#1203,#143);
#101=LINE('',#1204,#144);
#102=LINE('',#1206,#145);
#103=LINE('',#1210,#146);
#104=LINE('',#1213,#147);
#105=VECTOR('',#834,1.5);
#106=VECTOR('',#847,3.);
#107=VECTOR('',#860,2.25);
#108=VECTOR('',#889,3.);
#109=VECTOR('',#902,3.);
#110=VECTOR('',#913,1.5);
#111=VECTOR('',#918,2.25);
#112=VECTOR('',#931,1.5);
#113=VECTOR('',#936,2.25);
#114=VECTOR('',#939,10.);
#115=VECTOR('',#940,10.);
#116=VECTOR('',#941,10.);
#117=VECTOR('',#942,10.);
#118=VECTOR('',#945,10.);
#119=VECTOR('',#946,10.);
#120=VECTOR('',#947,10.);
#121=VECTOR('',#950,10.);
#122=VECTOR('',#951,10.);
#123=VECTOR('',#954,10.);
#124=VECTOR('',#955,10.);
#125=VECTOR('',#958,10.);
#126=VECTOR('',#965,1.154700538379);
#127=VECTOR('',#966,1.2);
#128=VECTOR('',#967,1.154700538379);
#129=VECTOR('',#968,1.2);
#130=VECTOR('',#971,1.154700538379);
#131=VECTOR('',#972,1.154700538379);
#132=VECTOR('',#973,1.154700538379);
#133=VECTOR('',#974,1.154700538379);
#134=VECTOR('',#975,1.154700538379);
#135=VECTOR('',#978,1.2);
#136=VECTOR('',#979,1.154700538379);
#137=VECTOR('',#982,1.154700538379);
#138=VECTOR('',#983,1.2);
#139=VECTOR('',#986,1.154700538379);
#140=VECTOR('',#987,1.2);
#141=VECTOR('',#992,1000.);
#142=VECTOR('',#997,1.5);
#143=VECTOR('',#1002,1.154700538379);
#144=VECTOR('',#1003,1.2);
#145=VECTOR('',#1006,1.154700538379);
#146=VECTOR('',#1011,1000.);
#147=VECTOR('',#1014,3.);
#148=FACE_OUTER_BOUND('',#188,.T.);
#149=FACE_OUTER_BOUND('',#189,.T.);
#150=FACE_OUTER_BOUND('',#190,.T.);
#151=FACE_OUTER_BOUND('',#191,.T.);
#152=FACE_OUTER_BOUND('',#192,.T.);
#153=FACE_OUTER_BOUND('',#193,.T.);
#154=FACE_OUTER_BOUND('',#194,.T.);
#155=FACE_OUTER_BOUND('',#195,.T.);
#156=FACE_OUTER_BOUND('',#196,.T.);
#157=FACE_OUTER_BOUND('',#197,.T.);
#158=FACE_OUTER_BOUND('',#198,.T.);
#159=FACE_OUTER_BOUND('',#199,.T.);
#160=FACE_OUTER_BOUND('',#200,.T.);
#161=FACE_OUTER_BOUND('',#201,.T.);
#162=FACE_OUTER_BOUND('',#202,.T.);
#163=FACE_OUTER_BOUND('',#203,.T.);
#164=FACE_OUTER_BOUND('',#204,.T.);
#165=FACE_OUTER_BOUND('',#205,.T.);
#166=FACE_OUTER_BOUND('',#206,.T.);
#167=FACE_OUTER_BOUND('',#207,.T.);
#168=FACE_OUTER_BOUND('',#208,.T.);
#169=FACE_OUTER_BOUND('',#209,.T.);
#170=FACE_OUTER_BOUND('',#211,.T.);
#171=FACE_OUTER_BOUND('',#213,.T.);
#172=FACE_OUTER_BOUND('',#215,.T.);
#173=FACE_OUTER_BOUND('',#217,.T.);
#174=FACE_OUTER_BOUND('',#219,.T.);
#175=FACE_OUTER_BOUND('',#221,.T.);
#176=FACE_OUTER_BOUND('',#222,.T.);
#177=FACE_OUTER_BOUND('',#223,.T.);
#178=FACE_OUTER_BOUND('',#224,.T.);
#179=FACE_OUTER_BOUND('',#225,.T.);
#180=FACE_OUTER_BOUND('',#226,.T.);
#181=FACE_OUTER_BOUND('',#227,.T.);
#182=FACE_OUTER_BOUND('',#228,.T.);
#183=FACE_OUTER_BOUND('',#229,.T.);
#184=FACE_OUTER_BOUND('',#230,.T.);
#185=FACE_OUTER_BOUND('',#231,.T.);
#186=FACE_OUTER_BOUND('',#232,.T.);
#187=FACE_OUTER_BOUND('',#233,.T.);
#188=EDGE_LOOP('',(#429,#430,#431));
#189=EDGE_LOOP('',(#432,#433,#434));
#190=EDGE_LOOP('',(#435,#436,#437));
#191=EDGE_LOOP('',(#438,#439,#440));
#192=EDGE_LOOP('',(#441,#442,#443,#444));
#193=EDGE_LOOP('',(#445,#446,#447,#448,#449,#450,#451,#452,#453,#454,#455));
#194=EDGE_LOOP('',(#456,#457,#458,#459,#460,#461,#462));
#195=EDGE_LOOP('',(#463,#464,#465));
#196=EDGE_LOOP('',(#466,#467,#468));
#197=EDGE_LOOP('',(#469,#470,#471));
#198=EDGE_LOOP('',(#472,#473,#474));
#199=EDGE_LOOP('',(#475,#476,#477,#478,#479,#480,#481,#482,#483,#484));
#200=EDGE_LOOP('',(#485,#486,#487));
#201=EDGE_LOOP('',(#488,#489,#490,#491,#492,#493,#494,#495,#496,#497));
#202=EDGE_LOOP('',(#498,#499,#500));
#203=EDGE_LOOP('',(#501,#502,#503,#504));
#204=EDGE_LOOP('',(#505,#506,#507,#508,#509,#510,#511));
#205=EDGE_LOOP('',(#512,#513,#514));
#206=EDGE_LOOP('',(#515,#516,#517));
#207=EDGE_LOOP('',(#518,#519,#520,#521));
#208=EDGE_LOOP('',(#522,#523,#524,#525,#526,#527,#528));
#209=EDGE_LOOP('',(#529,#530,#531,#532));
#210=EDGE_LOOP('',(#533));
#211=EDGE_LOOP('',(#534,#535,#536,#537));
#212=EDGE_LOOP('',(#538));
#213=EDGE_LOOP('',(#539,#540,#541,#542));
#214=EDGE_LOOP('',(#543));
#215=EDGE_LOOP('',(#544,#545,#546,#547));
#216=EDGE_LOOP('',(#548));
#217=EDGE_LOOP('',(#549,#550,#551,#552));
#218=EDGE_LOOP('',(#553));
#219=EDGE_LOOP('',(#554,#555,#556,#557));
#220=EDGE_LOOP('',(#558));
#221=EDGE_LOOP('',(#559,#560,#561,#562));
#222=EDGE_LOOP('',(#563,#564,#565,#566,#567,#568));
#223=EDGE_LOOP('',(#569,#570,#571,#572));
#224=EDGE_LOOP('',(#573,#574,#575,#576));
#225=EDGE_LOOP('',(#577,#578,#579,#580));
#226=EDGE_LOOP('',(#581,#582,#583,#584));
#227=EDGE_LOOP('',(#585,#586,#587,#588));
#228=EDGE_LOOP('',(#589,#590,#591,#592));
#229=EDGE_LOOP('',(#593,#594,#595,#596));
#230=EDGE_LOOP('',(#597,#598,#599,#600));
#231=EDGE_LOOP('',(#601,#602,#603,#604));
#232=EDGE_LOOP('',(#605));
#233=EDGE_LOOP('',(#606));
#234=EDGE_LOOP('',(#607,#608,#609,#610,#611,#612));
#235=CIRCLE('',#703,3.);
#236=CIRCLE('',#707,3.);
#237=CIRCLE('',#710,3.);
#238=CIRCLE('',#714,3.);
#239=CIRCLE('',#717,1.5);
#240=CIRCLE('',#718,1.5);
#241=CIRCLE('',#724,3.);
#242=CIRCLE('',#732,3.);
#243=CIRCLE('',#734,3.);
#244=CIRCLE('',#737,3.);
#245=CIRCLE('',#741,3.);
#246=CIRCLE('',#744,3.);
#247=CIRCLE('',#747,3.);
#248=CIRCLE('',#749,3.);
#249=CIRCLE('',#752,3.);
#250=CIRCLE('',#754,1.5);
#251=CIRCLE('',#755,1.5);
#252=CIRCLE('',#758,3.);
#253=CIRCLE('',#760,3.);
#254=CIRCLE('',#762,1.5);
#255=CIRCLE('',#763,1.5);
#256=CIRCLE('',#778,1.5);
#257=CIRCLE('',#779,1.35);
#258=CIRCLE('',#781,1.5);
#259=CIRCLE('',#785,3.);
#260=CIRCLE('',#787,3.);
#261=ELLIPSE('',#701,4.24264068711929,3.);
#262=ELLIPSE('',#702,4.24264068711929,3.);
#263=ELLIPSE('',#705,4.24264068711929,3.);
#264=ELLIPSE('',#706,4.24264068711929,3.);
#265=ELLIPSE('',#709,4.24264068711929,3.);
#266=ELLIPSE('',#711,4.24264068711929,3.);
#267=ELLIPSE('',#713,4.24264068711929,3.);
#268=ELLIPSE('',#715,4.24264068711929,3.);
#269=ELLIPSE('',#720,4.24264068711929,3.);
#270=ELLIPSE('',#721,4.24264068711929,3.);
#271=ELLIPSE('',#722,4.24264068711929,3.);
#272=ELLIPSE('',#723,4.24264068711929,3.);
#273=ELLIPSE('',#725,4.24264068711929,3.);
#274=ELLIPSE('',#726,4.24264068711929,3.);
#275=ELLIPSE('',#727,4.24264068711929,3.);
#276=ELLIPSE('',#728,4.24264068711929,3.);
#277=ELLIPSE('',#731,4.24264068711929,3.);
#278=ELLIPSE('',#735,4.24264068711929,3.);
#279=ELLIPSE('',#738,4.24264068711929,3.);
#280=ELLIPSE('',#740,4.24264068711929,3.);
#281=ELLIPSE('',#743,4.24264068711929,3.);
#282=ELLIPSE('',#745,4.24264068711929,3.);
#283=ELLIPSE('',#751,4.24264068711929,3.);
#284=VERTEX_POINT('',#1032);
#285=VERTEX_POINT('',#1033);
#286=VERTEX_POINT('',#1035);
#287=VERTEX_POINT('',#1039);
#288=VERTEX_POINT('',#1040);
#289=VERTEX_POINT('',#1045);
#290=VERTEX_POINT('',#1047);
#291=VERTEX_POINT('',#1051);
#292=VERTEX_POINT('',#1056);
#293=VERTEX_POINT('',#1058);
#294=VERTEX_POINT('',#1062);
#295=VERTEX_POINT('',#1063);
#296=VERTEX_POINT('',#1065);
#297=VERTEX_POINT('',#1067);
#298=VERTEX_POINT('',#1069);
#299=VERTEX_POINT('',#1071);
#300=VERTEX_POINT('',#1074);
#301=VERTEX_POINT('',#1076);
#302=VERTEX_POINT('',#1078);
#303=VERTEX_POINT('',#1084);
#304=VERTEX_POINT('',#1088);
#305=VERTEX_POINT('',#1092);
#306=VERTEX_POINT('',#1100);
#307=VERTEX_POINT('',#1107);
#308=VERTEX_POINT('',#1114);
#309=VERTEX_POINT('',#1116);
#310=VERTEX_POINT('',#1126);
#311=VERTEX_POINT('',#1128);
#312=VERTEX_POINT('',#1134);
#313=VERTEX_POINT('',#1135);
#314=VERTEX_POINT('',#1137);
#315=VERTEX_POINT('',#1139);
#316=VERTEX_POINT('',#1143);
#317=VERTEX_POINT('',#1144);
#318=VERTEX_POINT('',#1149);
#319=VERTEX_POINT('',#1153);
#320=VERTEX_POINT('',#1161);
#321=VERTEX_POINT('',#1162);
#322=VERTEX_POINT('',#1164);
#323=VERTEX_POINT('',#1166);
#324=VERTEX_POINT('',#1170);
#325=VERTEX_POINT('',#1172);
#326=VERTEX_POINT('',#1174);
#327=VERTEX_POINT('',#1176);
#328=VERTEX_POINT('',#1180);
#329=VERTEX_POINT('',#1184);
#330=VERTEX_POINT('',#1188);
#331=VERTEX_POINT('',#1192);
#332=VERTEX_POINT('',#1194);
#333=VERTEX_POINT('',#1198);
#334=VERTEX_POINT('',#1202);
#335=VERTEX_POINT('',#1208);
#336=VERTEX_POINT('',#1212);
#337=EDGE_CURVE('',#284,#285,#261,.T.);
#338=EDGE_CURVE('',#286,#284,#262,.T.);
#339=EDGE_CURVE('',#285,#286,#235,.T.);
#340=EDGE_CURVE('',#287,#288,#263,.T.);
#341=EDGE_CURVE('',#285,#287,#264,.T.);
#342=EDGE_CURVE('',#288,#285,#236,.T.);
#343=EDGE_CURVE('',#288,#289,#265,.T.);
#344=EDGE_CURVE('',#290,#288,#237,.T.);
#345=EDGE_CURVE('',#289,#290,#266,.T.);
#346=EDGE_CURVE('',#290,#291,#267,.T.);
#347=EDGE_CURVE('',#286,#290,#238,.T.);
#348=EDGE_CURVE('',#291,#286,#268,.T.);
#349=EDGE_CURVE('',#292,#292,#239,.T.);
#350=EDGE_CURVE('',#292,#293,#62,.T.);
#351=EDGE_CURVE('',#293,#293,#240,.T.);
#352=EDGE_CURVE('',#294,#295,#269,.T.);
#353=EDGE_CURVE('',#296,#294,#270,.T.);
#354=EDGE_CURVE('',#297,#296,#271,.T.);
#355=EDGE_CURVE('',#298,#297,#272,.T.);
#356=EDGE_CURVE('',#298,#299,#63,.T.);
#357=EDGE_CURVE('',#299,#299,#241,.T.);
#358=EDGE_CURVE('',#300,#298,#273,.T.);
#359=EDGE_CURVE('',#301,#300,#274,.T.);
#360=EDGE_CURVE('',#302,#301,#275,.T.);
#361=EDGE_CURVE('',#295,#302,#276,.T.);
#362=EDGE_CURVE('',#293,#286,#64,.T.);
#363=EDGE_CURVE('',#303,#289,#277,.T.);
#364=EDGE_CURVE('',#303,#288,#242,.T.);
#365=EDGE_CURVE('',#288,#304,#243,.T.);
#366=EDGE_CURVE('',#287,#304,#278,.T.);
#367=EDGE_CURVE('',#305,#285,#244,.T.);
#368=EDGE_CURVE('',#305,#284,#279,.T.);
#369=EDGE_CURVE('',#300,#305,#280,.T.);
#370=EDGE_CURVE('',#301,#305,#245,.T.);
#371=EDGE_CURVE('',#291,#297,#281,.T.);
#372=EDGE_CURVE('',#296,#306,#65,.T.);
#373=EDGE_CURVE('',#306,#306,#246,.T.);
#374=EDGE_CURVE('',#294,#303,#282,.T.);
#375=EDGE_CURVE('',#295,#303,#247,.T.);
#376=EDGE_CURVE('',#307,#307,#248,.T.);
#377=EDGE_CURVE('',#307,#298,#66,.T.);
#378=EDGE_CURVE('',#304,#302,#283,.T.);
#379=EDGE_CURVE('',#304,#295,#249,.T.);
#380=EDGE_CURVE('',#308,#308,#250,.T.);
#381=EDGE_CURVE('',#308,#309,#67,.T.);
#382=EDGE_CURVE('',#309,#309,#251,.T.);
#383=EDGE_CURVE('',#308,#295,#68,.T.);
#384=EDGE_CURVE('',#285,#304,#252,.T.);
#385=EDGE_CURVE('',#304,#301,#253,.T.);
#386=EDGE_CURVE('',#310,#310,#254,.T.);
#387=EDGE_CURVE('',#310,#311,#69,.T.);
#388=EDGE_CURVE('',#311,#311,#255,.T.);
#389=EDGE_CURVE('',#311,#301,#70,.T.);
#390=EDGE_CURVE('',#312,#313,#71,.T.);
#391=EDGE_CURVE('',#314,#312,#72,.T.);
#392=EDGE_CURVE('',#315,#314,#73,.T.);
#393=EDGE_CURVE('',#313,#315,#74,.T.);
#394=EDGE_CURVE('',#316,#317,#75,.T.);
#395=EDGE_CURVE('',#317,#315,#76,.T.);
#396=EDGE_CURVE('',#316,#314,#77,.T.);
#397=EDGE_CURVE('',#317,#318,#78,.T.);
#398=EDGE_CURVE('',#318,#313,#79,.T.);
#399=EDGE_CURVE('',#318,#319,#80,.T.);
#400=EDGE_CURVE('',#312,#319,#81,.T.);
#401=EDGE_CURVE('',#319,#316,#82,.T.);
#402=EDGE_CURVE('',#320,#321,#83,.T.);
#403=EDGE_CURVE('',#322,#320,#84,.T.);
#404=EDGE_CURVE('',#323,#322,#85,.T.);
#405=EDGE_CURVE('',#323,#321,#86,.T.);
#406=EDGE_CURVE('',#321,#324,#87,.T.);
#407=EDGE_CURVE('',#324,#325,#88,.T.);
#408=EDGE_CURVE('',#325,#326,#89,.T.);
#409=EDGE_CURVE('',#326,#327,#90,.T.);
#410=EDGE_CURVE('',#327,#320,#91,.T.);
#411=EDGE_CURVE('',#328,#327,#92,.T.);
#412=EDGE_CURVE('',#322,#328,#93,.T.);
#413=EDGE_CURVE('',#329,#323,#94,.T.);
#414=EDGE_CURVE('',#329,#324,#95,.T.);
#415=EDGE_CURVE('',#330,#329,#96,.T.);
#416=EDGE_CURVE('',#330,#325,#97,.T.);
#417=EDGE_CURVE('',#331,#331,#256,.T.);
#418=EDGE_CURVE('',#331,#332,#98,.T.);
#419=EDGE_CURVE('',#332,#332,#257,.T.);
#420=EDGE_CURVE('',#331,#333,#99,.T.);
#421=EDGE_CURVE('',#333,#333,#258,.T.);
#422=EDGE_CURVE('',#334,#330,#100,.T.);
#423=EDGE_CURVE('',#334,#326,#101,.T.);
#424=EDGE_CURVE('',#328,#334,#102,.T.);
#425=EDGE_CURVE('',#335,#335,#259,.T.);
#426=EDGE_CURVE('',#335,#333,#103,.T.);
#427=EDGE_CURVE('',#335,#336,#104,.T.);
#428=EDGE_CURVE('',#336,#336,#260,.T.);
#429=ORIENTED_EDGE('',*,*,#337,.F.);
#430=ORIENTED_EDGE('',*,*,#338,.F.);
#431=ORIENTED_EDGE('',*,*,#339,.F.);
#432=ORIENTED_EDGE('',*,*,#340,.F.);
#433=ORIENTED_EDGE('',*,*,#341,.F.);
#434=ORIENTED_EDGE('',*,*,#342,.F.);
#435=ORIENTED_EDGE('',*,*,#343,.F.);
#436=ORIENTED_EDGE('',*,*,#344,.F.);
#437=ORIENTED_EDGE('',*,*,#345,.F.);
#438=ORIENTED_EDGE('',*,*,#346,.F.);
#439=ORIENTED_EDGE('',*,*,#347,.F.);
#440=ORIENTED_EDGE('',*,*,#348,.F.);
#441=ORIENTED_EDGE('',*,*,#349,.F.);
#442=ORIENTED_EDGE('',*,*,#350,.T.);
#443=ORIENTED_EDGE('',*,*,#351,.T.);
#444=ORIENTED_EDGE('',*,*,#350,.F.);
#445=ORIENTED_EDGE('',*,*,#352,.F.);
#446=ORIENTED_EDGE('',*,*,#353,.F.);
#447=ORIENTED_EDGE('',*,*,#354,.F.);
#448=ORIENTED_EDGE('',*,*,#355,.F.);
#449=ORIENTED_EDGE('',*,*,#356,.T.);
#450=ORIENTED_EDGE('',*,*,#357,.F.);
#451=ORIENTED_EDGE('',*,*,#356,.F.);
#452=ORIENTED_EDGE('',*,*,#358,.F.);
#453=ORIENTED_EDGE('',*,*,#359,.F.);
#454=ORIENTED_EDGE('',*,*,#360,.F.);
#455=ORIENTED_EDGE('',*,*,#361,.F.);
#456=ORIENTED_EDGE('',*,*,#351,.F.);
#457=ORIENTED_EDGE('',*,*,#362,.T.);
#458=ORIENTED_EDGE('',*,*,#347,.T.);
#459=ORIENTED_EDGE('',*,*,#344,.T.);
#460=ORIENTED_EDGE('',*,*,#342,.T.);
#461=ORIENTED_EDGE('',*,*,#339,.T.);
#462=ORIENTED_EDGE('',*,*,#362,.F.);
#463=ORIENTED_EDGE('',*,*,#343,.T.);
#464=ORIENTED_EDGE('',*,*,#363,.F.);
#465=ORIENTED_EDGE('',*,*,#364,.T.);
#466=ORIENTED_EDGE('',*,*,#340,.T.);
#467=ORIENTED_EDGE('',*,*,#365,.T.);
#468=ORIENTED_EDGE('',*,*,#366,.F.);
#469=ORIENTED_EDGE('',*,*,#337,.T.);
#470=ORIENTED_EDGE('',*,*,#367,.F.);
#471=ORIENTED_EDGE('',*,*,#368,.T.);
#472=ORIENTED_EDGE('',*,*,#359,.T.);
#473=ORIENTED_EDGE('',*,*,#369,.T.);
#474=ORIENTED_EDGE('',*,*,#370,.F.);
#475=ORIENTED_EDGE('',*,*,#345,.T.);
#476=ORIENTED_EDGE('',*,*,#346,.T.);
#477=ORIENTED_EDGE('',*,*,#371,.T.);
#478=ORIENTED_EDGE('',*,*,#354,.T.);
#479=ORIENTED_EDGE('',*,*,#372,.T.);
#480=ORIENTED_EDGE('',*,*,#373,.F.);
#481=ORIENTED_EDGE('',*,*,#372,.F.);
#482=ORIENTED_EDGE('',*,*,#353,.T.);
#483=ORIENTED_EDGE('',*,*,#374,.T.);
#484=ORIENTED_EDGE('',*,*,#363,.T.);
#485=ORIENTED_EDGE('',*,*,#352,.T.);
#486=ORIENTED_EDGE('',*,*,#375,.T.);
#487=ORIENTED_EDGE('',*,*,#374,.F.);
#488=ORIENTED_EDGE('',*,*,#376,.F.);
#489=ORIENTED_EDGE('',*,*,#377,.T.);
#490=ORIENTED_EDGE('',*,*,#355,.T.);
#491=ORIENTED_EDGE('',*,*,#371,.F.);
#492=ORIENTED_EDGE('',*,*,#348,.T.);
#493=ORIENTED_EDGE('',*,*,#338,.T.);
#494=ORIENTED_EDGE('',*,*,#368,.F.);
#495=ORIENTED_EDGE('',*,*,#369,.F.);
#496=ORIENTED_EDGE('',*,*,#358,.T.);
#497=ORIENTED_EDGE('',*,*,#377,.F.);
#498=ORIENTED_EDGE('',*,*,#361,.T.);
#499=ORIENTED_EDGE('',*,*,#378,.F.);
#500=ORIENTED_EDGE('',*,*,#379,.T.);
#501=ORIENTED_EDGE('',*,*,#380,.F.);
#502=ORIENTED_EDGE('',*,*,#381,.T.);
#503=ORIENTED_EDGE('',*,*,#382,.F.);
#504=ORIENTED_EDGE('',*,*,#381,.F.);
#505=ORIENTED_EDGE('',*,*,#380,.T.);
#506=ORIENTED_EDGE('',*,*,#383,.T.);
#507=ORIENTED_EDGE('',*,*,#379,.F.);
#508=ORIENTED_EDGE('',*,*,#365,.F.);
#509=ORIENTED_EDGE('',*,*,#364,.F.);
#510=ORIENTED_EDGE('',*,*,#375,.F.);
#511=ORIENTED_EDGE('',*,*,#383,.F.);
#512=ORIENTED_EDGE('',*,*,#341,.T.);
#513=ORIENTED_EDGE('',*,*,#366,.T.);
#514=ORIENTED_EDGE('',*,*,#384,.F.);
#515=ORIENTED_EDGE('',*,*,#360,.T.);
#516=ORIENTED_EDGE('',*,*,#385,.F.);
#517=ORIENTED_EDGE('',*,*,#378,.T.);
#518=ORIENTED_EDGE('',*,*,#386,.F.);
#519=ORIENTED_EDGE('',*,*,#387,.T.);
#520=ORIENTED_EDGE('',*,*,#388,.T.);
#521=ORIENTED_EDGE('',*,*,#387,.F.);
#522=ORIENTED_EDGE('',*,*,#388,.F.);
#523=ORIENTED_EDGE('',*,*,#389,.T.);
#524=ORIENTED_EDGE('',*,*,#370,.T.);
#525=ORIENTED_EDGE('',*,*,#367,.T.);
#526=ORIENTED_EDGE('',*,*,#384,.T.);
#527=ORIENTED_EDGE('',*,*,#385,.T.);
#528=ORIENTED_EDGE('',*,*,#389,.F.);
#529=ORIENTED_EDGE('',*,*,#390,.F.);
#530=ORIENTED_EDGE('',*,*,#391,.F.);
#531=ORIENTED_EDGE('',*,*,#392,.F.);
#532=ORIENTED_EDGE('',*,*,#393,.F.);
#533=ORIENTED_EDGE('',*,*,#349,.T.);
#534=ORIENTED_EDGE('',*,*,#394,.T.);
#535=ORIENTED_EDGE('',*,*,#395,.T.);
#536=ORIENTED_EDGE('',*,*,#392,.T.);
#537=ORIENTED_EDGE('',*,*,#396,.F.);
#538=ORIENTED_EDGE('',*,*,#376,.T.);
#539=ORIENTED_EDGE('',*,*,#397,.T.);
#540=ORIENTED_EDGE('',*,*,#398,.T.);
#541=ORIENTED_EDGE('',*,*,#393,.T.);
#542=ORIENTED_EDGE('',*,*,#395,.F.);
#543=ORIENTED_EDGE('',*,*,#386,.T.);
#544=ORIENTED_EDGE('',*,*,#399,.T.);
#545=ORIENTED_EDGE('',*,*,#400,.F.);
#546=ORIENTED_EDGE('',*,*,#390,.T.);
#547=ORIENTED_EDGE('',*,*,#398,.F.);
#548=ORIENTED_EDGE('',*,*,#382,.T.);
#549=ORIENTED_EDGE('',*,*,#401,.T.);
#550=ORIENTED_EDGE('',*,*,#396,.T.);
#551=ORIENTED_EDGE('',*,*,#391,.T.);
#552=ORIENTED_EDGE('',*,*,#400,.T.);
#553=ORIENTED_EDGE('',*,*,#373,.T.);
#554=ORIENTED_EDGE('',*,*,#394,.F.);
#555=ORIENTED_EDGE('',*,*,#401,.F.);
#556=ORIENTED_EDGE('',*,*,#399,.F.);
#557=ORIENTED_EDGE('',*,*,#397,.F.);
#558=ORIENTED_EDGE('',*,*,#357,.T.);
#559=ORIENTED_EDGE('',*,*,#402,.F.);
#560=ORIENTED_EDGE('',*,*,#403,.F.);
#561=ORIENTED_EDGE('',*,*,#404,.F.);
#562=ORIENTED_EDGE('',*,*,#405,.T.);
#563=ORIENTED_EDGE('',*,*,#406,.T.);
#564=ORIENTED_EDGE('',*,*,#407,.T.);
#565=ORIENTED_EDGE('',*,*,#408,.T.);
#566=ORIENTED_EDGE('',*,*,#409,.T.);
#567=ORIENTED_EDGE('',*,*,#410,.T.);
#568=ORIENTED_EDGE('',*,*,#402,.T.);
#569=ORIENTED_EDGE('',*,*,#410,.F.);
#570=ORIENTED_EDGE('',*,*,#411,.F.);
#571=ORIENTED_EDGE('',*,*,#412,.F.);
#572=ORIENTED_EDGE('',*,*,#403,.T.);
#573=ORIENTED_EDGE('',*,*,#406,.F.);
#574=ORIENTED_EDGE('',*,*,#405,.F.);
#575=ORIENTED_EDGE('',*,*,#413,.F.);
#576=ORIENTED_EDGE('',*,*,#414,.T.);
#577=ORIENTED_EDGE('',*,*,#407,.F.);
#578=ORIENTED_EDGE('',*,*,#414,.F.);
#579=ORIENTED_EDGE('',*,*,#415,.F.);
#580=ORIENTED_EDGE('',*,*,#416,.T.);
#581=ORIENTED_EDGE('',*,*,#417,.F.);
#582=ORIENTED_EDGE('',*,*,#418,.T.);
#583=ORIENTED_EDGE('',*,*,#419,.T.);
#584=ORIENTED_EDGE('',*,*,#418,.F.);
#585=ORIENTED_EDGE('',*,*,#417,.T.);
#586=ORIENTED_EDGE('',*,*,#420,.T.);
#587=ORIENTED_EDGE('',*,*,#421,.F.);
#588=ORIENTED_EDGE('',*,*,#420,.F.);
#589=ORIENTED_EDGE('',*,*,#408,.F.);
#590=ORIENTED_EDGE('',*,*,#416,.F.);
#591=ORIENTED_EDGE('',*,*,#422,.F.);
#592=ORIENTED_EDGE('',*,*,#423,.T.);
#593=ORIENTED_EDGE('',*,*,#409,.F.);
#594=ORIENTED_EDGE('',*,*,#423,.F.);
#595=ORIENTED_EDGE('',*,*,#424,.F.);
#596=ORIENTED_EDGE('',*,*,#411,.T.);
#597=ORIENTED_EDGE('',*,*,#425,.F.);
#598=ORIENTED_EDGE('',*,*,#426,.T.);
#599=ORIENTED_EDGE('',*,*,#421,.T.);
#600=ORIENTED_EDGE('',*,*,#426,.F.);
#601=ORIENTED_EDGE('',*,*,#425,.T.);
#602=ORIENTED_EDGE('',*,*,#427,.T.);
#603=ORIENTED_EDGE('',*,*,#428,.F.);
#604=ORIENTED_EDGE('',*,*,#427,.F.);
#605=ORIENTED_EDGE('',*,*,#419,.F.);
#606=ORIENTED_EDGE('',*,*,#428,.T.);
#607=ORIENTED_EDGE('',*,*,#413,.T.);
#608=ORIENTED_EDGE('',*,*,#404,.T.);
#609=ORIENTED_EDGE('',*,*,#412,.T.);
#610=ORIENTED_EDGE('',*,*,#424,.T.);
#611=ORIENTED_EDGE('',*,*,#422,.T.);
#612=ORIENTED_EDGE('',*,*,#415,.T.);
#613=CYLINDRICAL_SURFACE('',#700,3.);
#614=CYLINDRICAL_SURFACE('',#704,3.);
#615=CYLINDRICAL_SURFACE('',#708,3.);
#616=CYLINDRICAL_SURFACE('',#712,3.);
#617=CYLINDRICAL_SURFACE('',#716,1.5);
#618=CYLINDRICAL_SURFACE('',#719,3.);
#619=CYLINDRICAL_SURFACE('',#730,3.);
#620=CYLINDRICAL_SURFACE('',#733,3.);
#621=CYLINDRICAL_SURFACE('',#736,3.);
#622=CYLINDRICAL_SURFACE('',#739,3.);
#623=CYLINDRICAL_SURFACE('',#742,3.);
#624=CYLINDRICAL_SURFACE('',#746,3.);
#625=CYLINDRICAL_SURFACE('',#748,3.);
#626=CYLINDRICAL_SURFACE('',#750,3.);
#627=CYLINDRICAL_SURFACE('',#753,1.5);
#628=CYLINDRICAL_SURFACE('',#757,3.);
#629=CYLINDRICAL_SURFACE('',#759,3.);
#630=CYLINDRICAL_SURFACE('',#761,1.5);
#631=CYLINDRICAL_SURFACE('',#780,1.5);
#632=CYLINDRICAL_SURFACE('',#786,3.);
#633=ADVANCED_FACE('',(#148),#613,.F.);
#634=ADVANCED_FACE('',(#149),#614,.F.);
#635=ADVANCED_FACE('',(#150),#615,.F.);
#636=ADVANCED_FACE('',(#151),#616,.F.);
#637=ADVANCED_FACE('',(#152),#617,.F.);
#638=ADVANCED_FACE('',(#153),#618,.F.);
#639=ADVANCED_FACE('',(#154),#57,.F.);
#640=ADVANCED_FACE('',(#155),#619,.F.);
#641=ADVANCED_FACE('',(#156),#620,.F.);
#642=ADVANCED_FACE('',(#157),#621,.F.);
#643=ADVANCED_FACE('',(#158),#622,.F.);
#644=ADVANCED_FACE('',(#159),#623,.F.);
#645=ADVANCED_FACE('',(#160),#624,.F.);
#646=ADVANCED_FACE('',(#161),#625,.F.);
#647=ADVANCED_FACE('',(#162),#626,.F.);
#648=ADVANCED_FACE('',(#163),#627,.F.);
#649=ADVANCED_FACE('',(#164),#58,.F.);
#650=ADVANCED_FACE('',(#165),#628,.F.);
#651=ADVANCED_FACE('',(#166),#629,.F.);
#652=ADVANCED_FACE('',(#167),#630,.F.);
#653=ADVANCED_FACE('',(#168),#59,.F.);
#654=ADVANCED_FACE('',(#169,#35),#42,.F.);
#655=ADVANCED_FACE('',(#170,#36),#43,.T.);
#656=ADVANCED_FACE('',(#171,#37),#44,.T.);
#657=ADVANCED_FACE('',(#172,#38),#45,.T.);
#658=ADVANCED_FACE('',(#173,#39),#46,.T.);
#659=ADVANCED_FACE('',(#174,#40),#47,.T.);
#660=ADVANCED_FACE('',(#175),#48,.F.);
#661=ADVANCED_FACE('',(#176),#49,.T.);
#662=ADVANCED_FACE('',(#177),#50,.F.);
#663=ADVANCED_FACE('',(#178),#51,.F.);
#664=ADVANCED_FACE('',(#179),#52,.F.);
#665=ADVANCED_FACE('',(#180),#60,.T.);
#666=ADVANCED_FACE('',(#181),#631,.T.);
#667=ADVANCED_FACE('',(#182),#53,.F.);
#668=ADVANCED_FACE('',(#183),#54,.F.);
#669=ADVANCED_FACE('',(#184),#61,.T.);
#670=ADVANCED_FACE('',(#185),#632,.T.);
#671=ADVANCED_FACE('',(#186),#55,.T.);
#672=ADVANCED_FACE('',(#187,#41),#56,.T.);
#673=CLOSED_SHELL('',(#633,#634,#635,#636,#637,#638,#639,#640,#641,#642,
#643,#644,#645,#646,#647,#648,#649,#650,#651,#652,#653,#654,#655,#656,#657,
#658,#659));
#674=CLOSED_SHELL('',(#660,#661,#662,#663,#664,#665,#666,#667,#668,#669,
#670,#671,#672));
#675=DERIVED_UNIT_ELEMENT(#679,1.);
#676=DERIVED_UNIT_ELEMENT(#1230,-3.);
#677=DERIVED_UNIT_ELEMENT(#679,1.);
#678=DERIVED_UNIT_ELEMENT(#1230,-3.);
#679=(
MASS_UNIT()
NAMED_UNIT(*)
SI_UNIT(.KILO.,.GRAM.)
);
#680=DERIVED_UNIT((#675,#676));
#681=DERIVED_UNIT((#677,#678));
#682=MEASURE_REPRESENTATION_ITEM('density measure',
POSITIVE_RATIO_MEASURE(7850.),#680);
#683=MEASURE_REPRESENTATION_ITEM('density measure',
POSITIVE_RATIO_MEASURE(7850.),#681);
#684=PROPERTY_DEFINITION_REPRESENTATION(#694,#688);
#685=PROPERTY_DEFINITION_REPRESENTATION(#695,#689);
#686=PROPERTY_DEFINITION_REPRESENTATION(#696,#690);
#687=PROPERTY_DEFINITION_REPRESENTATION(#697,#691);
#688=REPRESENTATION('material name',(#692),#1226);
#689=REPRESENTATION('density',(#682),#1226);
#690=REPRESENTATION('material name',(#693),#1227);
#691=REPRESENTATION('density',(#683),#1227);
#692=DESCRIPTIVE_REPRESENTATION_ITEM('Acier','Acier');
#693=DESCRIPTIVE_REPRESENTATION_ITEM('Acier','Acier');
#694=PROPERTY_DEFINITION('material property','material name',#1248);
#695=PROPERTY_DEFINITION('material property','density of part',#1248);
#696=PROPERTY_DEFINITION('material property','material name',#1249);
#697=PROPERTY_DEFINITION('material property','density of part',#1249);
#698=AXIS2_PLACEMENT_3D('',#1029,#794,#795);
#699=AXIS2_PLACEMENT_3D('',#1030,#796,#797);
#700=AXIS2_PLACEMENT_3D('',#1031,#798,#799);
#701=AXIS2_PLACEMENT_3D('',#1034,#800,#801);
#702=AXIS2_PLACEMENT_3D('',#1036,#802,#803);
#703=AXIS2_PLACEMENT_3D('',#1037,#804,#805);
#704=AXIS2_PLACEMENT_3D('',#1038,#806,#807);
#705=AXIS2_PLACEMENT_3D('',#1041,#808,#809);
#706=AXIS2_PLACEMENT_3D('',#1042,#810,#811);
#707=AXIS2_PLACEMENT_3D('',#1043,#812,#813);
#708=AXIS2_PLACEMENT_3D('',#1044,#814,#815);
#709=AXIS2_PLACEMENT_3D('',#1046,#816,#817);
#710=AXIS2_PLACEMENT_3D('',#1048,#818,#819);
#711=AXIS2_PLACEMENT_3D('',#1049,#820,#821);
#712=AXIS2_PLACEMENT_3D('',#1050,#822,#823);
#713=AXIS2_PLACEMENT_3D('',#1052,#824,#825);
#714=AXIS2_PLACEMENT_3D('',#1053,#826,#827);
#715=AXIS2_PLACEMENT_3D('',#1054,#828,#829);
#716=AXIS2_PLACEMENT_3D('',#1055,#830,#831);
#717=AXIS2_PLACEMENT_3D('',#1057,#832,#833);
#718=AXIS2_PLACEMENT_3D('',#1060,#835,#836);
#719=AXIS2_PLACEMENT_3D('',#1061,#837,#838);
#720=AXIS2_PLACEMENT_3D('',#1064,#839,#840);
#721=AXIS2_PLACEMENT_3D('',#1066,#841,#842);
#722=AXIS2_PLACEMENT_3D('',#1068,#843,#844);
#723=AXIS2_PLACEMENT_3D('',#1070,#845,#846);
#724=AXIS2_PLACEMENT_3D('',#1073,#848,#849);
#725=AXIS2_PLACEMENT_3D('',#1075,#850,#851);
#726=AXIS2_PLACEMENT_3D('',#1077,#852,#853);
#727=AXIS2_PLACEMENT_3D('',#1079,#854,#855);
#728=AXIS2_PLACEMENT_3D('',#1080,#856,#857);
#729=AXIS2_PLACEMENT_3D('',#1081,#858,#859);
#730=AXIS2_PLACEMENT_3D('',#1083,#861,#862);
#731=AXIS2_PLACEMENT_3D('',#1085,#863,#864);
#732=AXIS2_PLACEMENT_3D('',#1086,#865,#866);
#733=AXIS2_PLACEMENT_3D('',#1087,#867,#868);
#734=AXIS2_PLACEMENT_3D('',#1089,#869,#870);
#735=AXIS2_PLACEMENT_3D('',#1090,#871,#872);
#736=AXIS2_PLACEMENT_3D('',#1091,#873,#874);
#737=AXIS2_PLACEMENT_3D('',#1093,#875,#876);
#738=AXIS2_PLACEMENT_3D('',#1094,#877,#878);
#739=AXIS2_PLACEMENT_3D('',#1095,#879,#880);
#740=AXIS2_PLACEMENT_3D('',#1096,#881,#882);
#741=AXIS2_PLACEMENT_3D('',#1097,#883,#884);
#742=AXIS2_PLACEMENT_3D('',#1098,#885,#886);
#743=AXIS2_PLACEMENT_3D('',#1099,#887,#888);
#744=AXIS2_PLACEMENT_3D('',#1102,#890,#891);
#745=AXIS2_PLACEMENT_3D('',#1103,#892,#893);
#746=AXIS2_PLACEMENT_3D('',#1104,#894,#895);
#747=AXIS2_PLACEMENT_3D('',#1105,#896,#897);
#748=AXIS2_PLACEMENT_3D('',#1106,#898,#899);
#749=AXIS2_PLACEMENT_3D('',#1108,#900,#901);
#750=AXIS2_PLACEMENT_3D('',#1110,#903,#904);
#751=AXIS2_PLACEMENT_3D('',#1111,#905,#906);
#752=AXIS2_PLACEMENT_3D('',#1112,#907,#908);
#753=AXIS2_PLACEMENT_3D('',#1113,#909,#910);
#754=AXIS2_PLACEMENT_3D('',#1115,#911,#912);
#755=AXIS2_PLACEMENT_3D('',#1118,#914,#915);
#756=AXIS2_PLACEMENT_3D('',#1119,#916,#917);
#757=AXIS2_PLACEMENT_3D('',#1121,#919,#920);
#758=AXIS2_PLACEMENT_3D('',#1122,#921,#922);
#759=AXIS2_PLACEMENT_3D('',#1123,#923,#924);
#760=AXIS2_PLACEMENT_3D('',#1124,#925,#926);
#761=AXIS2_PLACEMENT_3D('',#1125,#927,#928);
#762=AXIS2_PLACEMENT_3D('',#1127,#929,#930);
#763=AXIS2_PLACEMENT_3D('',#1130,#932,#933);
#764=AXIS2_PLACEMENT_3D('',#1131,#934,#935);
#765=AXIS2_PLACEMENT_3D('',#1133,#937,#938);
#766=AXIS2_PLACEMENT_3D('',#1142,#943,#944);
#767=AXIS2_PLACEMENT_3D('',#1148,#948,#949);
#768=AXIS2_PLACEMENT_3D('',#1152,#952,#953);
#769=AXIS2_PLACEMENT_3D('',#1156,#956,#957);
#770=AXIS2_PLACEMENT_3D('',#1158,#959,#960);
#771=AXIS2_PLACEMENT_3D('',#1159,#961,#962);
#772=AXIS2_PLACEMENT_3D('',#1160,#963,#964);
#773=AXIS2_PLACEMENT_3D('',#1169,#969,#970);
#774=AXIS2_PLACEMENT_3D('',#1179,#976,#977);
#775=AXIS2_PLACEMENT_3D('',#1183,#980,#981);
#776=AXIS2_PLACEMENT_3D('',#1187,#984,#985);
#777=AXIS2_PLACEMENT_3D('',#1191,#988,#989);
#778=AXIS2_PLACEMENT_3D('',#1193,#990,#991);
#779=AXIS2_PLACEMENT_3D('',#1196,#993,#994);
#780=AXIS2_PLACEMENT_3D('',#1197,#995,#996);
#781=AXIS2_PLACEMENT_3D('',#1200,#998,#999);
#782=AXIS2_PLACEMENT_3D('',#1201,#1000,#1001);
#783=AXIS2_PLACEMENT_3D('',#1205,#1004,#1005);
#784=AXIS2_PLACEMENT_3D('',#1207,#1007,#1008);
#785=AXIS2_PLACEMENT_3D('',#1209,#1009,#1010);
#786=AXIS2_PLACEMENT_3D('',#1211,#1012,#1013);
#787=AXIS2_PLACEMENT_3D('',#1214,#1015,#1016);
#788=AXIS2_PLACEMENT_3D('',#1215,#1017,#1018);
#789=AXIS2_PLACEMENT_3D('',#1216,#1019,#1020);
#790=AXIS2_PLACEMENT_3D('',#1217,#1021,#1022);
#791=AXIS2_PLACEMENT_3D('',#1218,#1023,#1024);
#792=AXIS2_PLACEMENT_3D('',#1219,#1025,#1026);
#793=AXIS2_PLACEMENT_3D('',#1220,#1027,#1028);
#794=DIRECTION('axis',(0.,0.,1.));
#795=DIRECTION('refdir',(1.,0.,0.));
#796=DIRECTION('axis',(0.,0.,1.));
#797=DIRECTION('refdir',(1.,0.,0.));
#798=DIRECTION('center_axis',(1.83697E-16,0.,1.));
#799=DIRECTION('ref_axis',(-1.,0.,1.83697E-16));
#800=DIRECTION('center_axis',(-1.30841E-16,0.707106781186548,-0.707106781186548));
#801=DIRECTION('ref_axis',(-1.298934E-16,-0.707106781186548,-0.707106781186548));
#802=DIRECTION('center_axis',(-0.707106781186548,0.,-0.707106781186548));
#803=DIRECTION('ref_axis',(-0.707106781186548,0.,0.707106781186548));
#804=DIRECTION('center_axis',(0.,0.,1.));
#805=DIRECTION('ref_axis',(-1.,0.,0.));
#806=DIRECTION('center_axis',(1.83697E-16,0.,1.));
#807=DIRECTION('ref_axis',(-1.,0.,1.83697E-16));
#808=DIRECTION('center_axis',(0.707106781186547,0.,-0.707106781186548));
#809=DIRECTION('ref_axis',(-0.707106781186548,0.,-0.707106781186547));
#810=DIRECTION('center_axis',(-1.30841E-16,0.707106781186548,-0.707106781186548));
#811=DIRECTION('ref_axis',(-1.298934E-16,-0.707106781186548,-0.707106781186548));
#812=DIRECTION('center_axis',(0.,0.,1.));
#813=DIRECTION('ref_axis',(-1.,0.,0.));
#814=DIRECTION('center_axis',(1.83697E-16,0.,1.));
#815=DIRECTION('ref_axis',(-1.,0.,1.83697E-16));
#816=DIRECTION('center_axis',(0.707106781186547,0.,-0.707106781186548));
#817=DIRECTION('ref_axis',(-0.707106781186548,0.,-0.707106781186547));
#818=DIRECTION('center_axis',(0.,0.,1.));
#819=DIRECTION('ref_axis',(-1.,0.,0.));
#820=DIRECTION('center_axis',(-1.30841E-16,-0.707106781186547,-0.707106781186548));
#821=DIRECTION('ref_axis',(1.298934E-16,-0.707106781186548,0.707106781186547));
#822=DIRECTION('center_axis',(1.83697E-16,0.,1.));
#823=DIRECTION('ref_axis',(-1.,0.,1.83697E-16));
#824=DIRECTION('center_axis',(-1.30841E-16,-0.707106781186547,-0.707106781186548));
#825=DIRECTION('ref_axis',(1.298934E-16,-0.707106781186548,0.707106781186547));
#826=DIRECTION('center_axis',(0.,0.,1.));
#827=DIRECTION('ref_axis',(-1.,0.,0.));
#828=DIRECTION('center_axis',(-0.707106781186548,0.,-0.707106781186548));
#829=DIRECTION('ref_axis',(-0.707106781186548,0.,0.707106781186548));
#830=DIRECTION('center_axis',(1.83697E-16,0.,1.));
#831=DIRECTION('ref_axis',(-1.,0.,1.83697E-16));
#832=DIRECTION('center_axis',(0.,0.,1.));
#833=DIRECTION('ref_axis',(-1.,0.,0.));
#834=DIRECTION('',(1.83697E-16,0.,1.));
#835=DIRECTION('center_axis',(0.,0.,1.));
#836=DIRECTION('ref_axis',(-1.,0.,0.));
#837=DIRECTION('center_axis',(1.83697E-16,0.,1.));
#838=DIRECTION('ref_axis',(-1.,0.,1.83697E-16));
#839=DIRECTION('center_axis',(0.707106781186548,0.,0.707106781186548));
#840=DIRECTION('ref_axis',(-0.707106781186548,0.,0.707106781186548));
#841=DIRECTION('center_axis',(1.30841E-16,-0.707106781186548,0.707106781186548));
#842=DIRECTION('ref_axis',(-1.298934E-16,-0.707106781186548,-0.707106781186548));
#843=DIRECTION('center_axis',(1.30841E-16,-0.707106781186548,0.707106781186548));
#844=DIRECTION('ref_axis',(-1.298934E-16,-0.707106781186548,-0.707106781186548));
#845=DIRECTION('center_axis',(-0.707106781186547,0.,0.707106781186548));
#846=DIRECTION('ref_axis',(-0.707106781186548,0.,-0.707106781186547));
#847=DIRECTION('',(1.83697E-16,0.,1.));
#848=DIRECTION('center_axis',(0.,0.,-1.));
#849=DIRECTION('ref_axis',(-1.,0.,0.));
#850=DIRECTION('center_axis',(-0.707106781186547,0.,0.707106781186548));
#851=DIRECTION('ref_axis',(-0.707106781186548,0.,-0.707106781186547));
#852=DIRECTION('center_axis',(1.30841E-16,0.707106781186547,0.707106781186548));
#853=DIRECTION('ref_axis',(1.298934E-16,-0.707106781186548,0.707106781186547));
#854=DIRECTION('center_axis',(1.30841E-16,0.707106781186547,0.707106781186548));
#855=DIRECTION('ref_axis',(1.298934E-16,-0.707106781186548,0.707106781186547));
#856=DIRECTION('center_axis',(0.707106781186548,0.,0.707106781186548));
#857=DIRECTION('ref_axis',(-0.707106781186548,0.,0.707106781186548));
#858=DIRECTION('center_axis',(1.83697E-16,0.,1.));
#859=DIRECTION('ref_axis',(-1.,0.,1.83697E-16));
#860=DIRECTION('',(0.707106781186547,8.65956056235493E-17,0.707106781186548));
#861=DIRECTION('center_axis',(-1.,0.,0.));
#862=DIRECTION('ref_axis',(0.,0.,-1.));
#863=DIRECTION('center_axis',(-0.707106781186548,-0.707106781186548,-1.298934E-16));
#864=DIRECTION('ref_axis',(0.707106781186548,-0.707106781186548,0.));
#865=DIRECTION('center_axis',(-1.,0.,0.));
#866=DIRECTION('ref_axis',(0.,0.,-1.));
#867=DIRECTION('center_axis',(-1.,0.,0.));
#868=DIRECTION('ref_axis',(0.,0.,-1.));
#869=DIRECTION('center_axis',(-1.,0.,0.));
#870=DIRECTION('ref_axis',(0.,0.,-1.));
#871=DIRECTION('center_axis',(-0.707106781186548,0.707106781186548,1.298934E-16));
#872=DIRECTION('ref_axis',(-0.707106781186548,-0.707106781186548,0.));
#873=DIRECTION('center_axis',(0.,1.,1.83697E-16));
#874=DIRECTION('ref_axis',(0.,1.83697E-16,-1.));
#875=DIRECTION('center_axis',(0.,1.,0.));
#876=DIRECTION('ref_axis',(0.,0.,-1.));
#877=DIRECTION('center_axis',(0.707106781186548,0.707106781186548,1.298934E-16));
#878=DIRECTION('ref_axis',(0.707106781186548,-0.707106781186548,0.));
#879=DIRECTION('center_axis',(0.,1.,1.83697E-16));
#880=DIRECTION('ref_axis',(0.,1.83697E-16,-1.));
#881=DIRECTION('center_axis',(0.707106781186548,0.707106781186548,1.298934E-16));
#882=DIRECTION('ref_axis',(0.707106781186548,-0.707106781186548,0.));
#883=DIRECTION('center_axis',(0.,1.,0.));
#884=DIRECTION('ref_axis',(0.,0.,-1.));
#885=DIRECTION('center_axis',(0.,1.,1.83697E-16));
#886=DIRECTION('ref_axis',(0.,1.83697E-16,-1.));
#887=DIRECTION('center_axis',(0.707106781186548,-0.707106781186548,-1.298934E-16));
#888=DIRECTION('ref_axis',(-0.707106781186548,-0.707106781186548,0.));
#889=DIRECTION('',(0.,1.,1.83697E-16));
#890=DIRECTION('center_axis',(0.,-1.,0.));
#891=DIRECTION('ref_axis',(0.,0.,-1.));
#892=DIRECTION('center_axis',(-0.707106781186548,-0.707106781186548,-1.298934E-16));
#893=DIRECTION('ref_axis',(0.707106781186548,-0.707106781186548,0.));
#894=DIRECTION('center_axis',(-1.,0.,0.));
#895=DIRECTION('ref_axis',(0.,0.,-1.));
#896=DIRECTION('center_axis',(-1.,0.,0.));
#897=DIRECTION('ref_axis',(0.,0.,-1.));
#898=DIRECTION('center_axis',(-1.,0.,0.));
#899=DIRECTION('ref_axis',(0.,0.,-1.));
#900=DIRECTION('center_axis',(-1.,0.,0.));
#901=DIRECTION('ref_axis',(0.,0.,-1.));
#902=DIRECTION('',(-1.,0.,0.));
#903=DIRECTION('center_axis',(-1.,0.,0.));
#904=DIRECTION('ref_axis',(0.,0.,-1.));
#905=DIRECTION('center_axis',(-0.707106781186548,0.707106781186548,1.298934E-16));
#906=DIRECTION('ref_axis',(-0.707106781186548,-0.707106781186548,0.));
#907=DIRECTION('center_axis',(-1.,0.,0.));
#908=DIRECTION('ref_axis',(0.,0.,-1.));
#909=DIRECTION('center_axis',(-1.,0.,0.));
#910=DIRECTION('ref_axis',(0.,0.,-1.));
#911=DIRECTION('center_axis',(-1.,0.,0.));
#912=DIRECTION('ref_axis',(0.,0.,-1.));
#913=DIRECTION('',(-1.,0.,0.));
#914=DIRECTION('center_axis',(1.,0.,0.));
#915=DIRECTION('ref_axis',(0.,0.,-1.));
#916=DIRECTION('center_axis',(1.,0.,0.));
#917=DIRECTION('ref_axis',(0.,0.,-1.));
#918=DIRECTION('',(0.707106781186547,-8.65956056235494E-17,0.707106781186548));
#919=DIRECTION('center_axis',(0.,1.,1.83697E-16));
#920=DIRECTION('ref_axis',(0.,1.83697E-16,-1.));
#921=DIRECTION('center_axis',(0.,1.,0.));
#922=DIRECTION('ref_axis',(0.,0.,-1.));
#923=DIRECTION('center_axis',(0.,1.,1.83697E-16));
#924=DIRECTION('ref_axis',(0.,1.83697E-16,-1.));
#925=DIRECTION('center_axis',(0.,1.,0.));
#926=DIRECTION('ref_axis',(0.,0.,-1.));
#927=DIRECTION('center_axis',(0.,1.,1.83697E-16));
#928=DIRECTION('ref_axis',(0.,1.83697E-16,-1.));
#929=DIRECTION('center_axis',(0.,1.,0.));
#930=DIRECTION('ref_axis',(0.,0.,-1.));
#931=DIRECTION('',(0.,1.,1.83697E-16));
#932=DIRECTION('center_axis',(0.,1.,0.));
#933=DIRECTION('ref_axis',(0.,0.,-1.));
#934=DIRECTION('center_axis',(0.,1.,1.83697E-16));
#935=DIRECTION('ref_axis',(0.,1.83697E-16,-1.));
#936=DIRECTION('',(8.65956056235493E-17,0.707106781186548,0.707106781186547));
#937=DIRECTION('center_axis',(0.,0.,1.));
#938=DIRECTION('ref_axis',(1.,0.,0.));
#939=DIRECTION('',(0.,-1.,0.));
#940=DIRECTION('',(-1.,0.,0.));
#941=DIRECTION('',(0.,1.,0.));
#942=DIRECTION('',(1.,0.,0.));
#943=DIRECTION('center_axis',(1.,0.,0.));
#944=DIRECTION('ref_axis',(0.,0.,-1.));
#945=DIRECTION('',(0.,-1.,0.));
#946=DIRECTION('',(0.,0.,-1.));
#947=DIRECTION('',(0.,0.,-1.));
#948=DIRECTION('center_axis',(0.,-1.,0.));
#949=DIRECTION('ref_axis',(0.,0.,-1.));
#950=DIRECTION('',(-1.,0.,0.));
#951=DIRECTION('',(0.,0.,-1.));
#952=DIRECTION('center_axis',(-1.,0.,0.));
#953=DIRECTION('ref_axis',(0.,0.,1.));
#954=DIRECTION('',(0.,1.,0.));
#955=DIRECTION('',(0.,0.,1.));
#956=DIRECTION('center_axis',(0.,1.,0.));
#957=DIRECTION('ref_axis',(0.,0.,1.));
#958=DIRECTION('',(1.,0.,0.));
#959=DIRECTION('center_axis',(0.,0.,1.));
#960=DIRECTION('ref_axis',(1.,0.,0.));
#961=DIRECTION('axis',(0.,0.,1.));
#962=DIRECTION('refdir',(1.,0.,0.));
#963=DIRECTION('center_axis',(1.,0.,0.));
#964=DIRECTION('ref_axis',(0.,0.,-1.));
#965=DIRECTION('',(0.,0.,-1.));
#966=DIRECTION('',(0.,-1.,0.));
#967=DIRECTION('',(0.,0.,1.));
#968=DIRECTION('',(0.,-1.,0.));
#969=DIRECTION('center_axis',(0.,1.,0.));
#970=DIRECTION('ref_axis',(0.,0.,1.));
#971=DIRECTION('',(-0.866025403782853,0.,-0.500000000002746));
#972=DIRECTION('',(-0.866025403782853,0.,0.500000000002746));
#973=DIRECTION('',(0.,0.,1.));
#974=DIRECTION('',(0.866025403782854,0.,0.500000000002745));
#975=DIRECTION('',(0.866025403782854,0.,-0.500000000002745));
#976=DIRECTION('center_axis',(0.5,-3.505401E-16,0.866025403784439));
#977=DIRECTION('ref_axis',(0.866025403784439,2.46519032881566E-32,-0.5));
#978=DIRECTION('',(0.,-1.,0.));
#979=DIRECTION('',(-0.866025403782854,0.,0.500000000002745));
#980=DIRECTION('center_axis',(0.500000000000001,3.505401E-16,-0.866025403784438));
#981=DIRECTION('ref_axis',(-0.866025403784438,2.46519032881566E-32,-0.500000000000001));
#982=DIRECTION('',(0.866025403782853,0.,0.500000000002746));
#983=DIRECTION('',(0.,-1.,0.));
#984=DIRECTION('center_axis',(-0.500000000000001,3.505401E-16,-0.866025403784438));
#985=DIRECTION('ref_axis',(-0.866025403784438,-2.46519032881566E-32,0.500000000000001));
#986=DIRECTION('',(0.866025403782854,0.,-0.500000000002745));
#987=DIRECTION('',(0.,-1.,0.));
#988=DIRECTION('center_axis',(0.,1.,0.));
#989=DIRECTION('ref_axis',(0.,0.,1.));
#990=DIRECTION('center_axis',(0.,1.,0.));
#991=DIRECTION('ref_axis',(0.,0.,1.));
#992=DIRECTION('',(8.65956055458343E-17,-0.707106781821139,0.707106780551956));
#993=DIRECTION('center_axis',(0.,1.,0.));
#994=DIRECTION('ref_axis',(0.,0.,1.));
#995=DIRECTION('center_axis',(0.,-1.,0.));
#996=DIRECTION('ref_axis',(0.,0.,1.));
#997=DIRECTION('',(0.,1.,0.));
#998=DIRECTION('center_axis',(0.,1.,0.));
#999=DIRECTION('ref_axis',(0.,0.,1.));
#1000=DIRECTION('center_axis',(-1.,0.,0.));
#1001=DIRECTION('ref_axis',(0.,0.,1.));
#1002=DIRECTION('',(0.,0.,-1.));
#1003=DIRECTION('',(0.,-1.,0.));
#1004=DIRECTION('center_axis',(-0.5,-3.505401E-16,0.866025403784439));
#1005=DIRECTION('ref_axis',(0.866025403784439,-2.46519032881566E-32,0.5));
#1006=DIRECTION('',(-0.866025403782854,0.,-0.500000000002745));
#1007=DIRECTION('center_axis',(0.,1.,0.));
#1008=DIRECTION('ref_axis',(0.,0.,1.));
#1009=DIRECTION('center_axis',(0.,1.,0.));
#1010=DIRECTION('ref_axis',(0.,0.,1.));
#1011=DIRECTION('',(8.65956055458343E-17,-0.707106781821139,0.707106780551956));
#1012=DIRECTION('center_axis',(0.,-1.,0.));
#1013=DIRECTION('ref_axis',(0.,0.,1.));
#1014=DIRECTION('',(0.,1.,0.));
#1015=DIRECTION('center_axis',(0.,1.,0.));
#1016=DIRECTION('ref_axis',(0.,0.,1.));
#1017=DIRECTION('center_axis',(0.,-1.,0.));
#1018=DIRECTION('ref_axis',(0.,0.,-1.));
#1019=DIRECTION('center_axis',(0.,1.,0.));
#1020=DIRECTION('ref_axis',(0.,0.,1.));
#1021=DIRECTION('',(0.,0.,1.));
#1022=DIRECTION('',(1.,0.,0.));
#1023=DIRECTION('',(0.,-1.,0.));
#1024=DIRECTION('',(1.,0.,0.));
#1025=DIRECTION('',(0.,0.,1.));
#1026=DIRECTION('',(1.,0.,0.));
#1027=DIRECTION('',(0.,6.12323399573677E-17,1.));
#1028=DIRECTION('',(0.,-1.,6.12323399573677E-17));
#1029=CARTESIAN_POINT('',(0.,0.,0.));
#1030=CARTESIAN_POINT('',(0.,0.,0.));
#1031=CARTESIAN_POINT('Origin',(1.102182E-15,0.,1.));
#1032=CARTESIAN_POINT('',(2.12132034355964,-2.12132034355964,-2.12132034355964));
#1033=CARTESIAN_POINT('',(0.,-3.,-3.));
#1034=CARTESIAN_POINT('Origin',(9.184851E-16,0.,-9.714451E-16));
#1035=CARTESIAN_POINT('',(3.,0.,-3.));
#1036=CARTESIAN_POINT('Origin',(9.184851E-16,0.,0.));
#1037=CARTESIAN_POINT('Origin',(3.67394E-16,0.,-3.));
#1038=CARTESIAN_POINT('Origin',(1.102182E-15,0.,1.));
#1039=CARTESIAN_POINT('',(-2.12132034355964,-2.12132034355964,-2.12132034355964));
#1040=CARTESIAN_POINT('',(-3.,0.,-3.));
#1041=CARTESIAN_POINT('Origin',(9.184851E-16,0.,1.387779E-16));
#1042=CARTESIAN_POINT('Origin',(9.184851E-16,0.,-9.714451E-16));
#1043=CARTESIAN_POINT('Origin',(3.67394E-16,0.,-3.));
#1044=CARTESIAN_POINT('Origin',(1.102182E-15,0.,1.));
#1045=CARTESIAN_POINT('',(-2.12132034355964,2.12132034355964,-2.12132034355964));
#1046=CARTESIAN_POINT('Origin',(9.184851E-16,0.,1.387779E-16));
#1047=CARTESIAN_POINT('',(-6.162976E-32,3.,-3.));
#1048=CARTESIAN_POINT('Origin',(3.67394E-16,0.,-3.));
#1049=CARTESIAN_POINT('Origin',(9.184851E-16,0.,-8.326673E-16));
#1050=CARTESIAN_POINT('Origin',(1.102182E-15,0.,1.));
#1051=CARTESIAN_POINT('',(2.12132034355964,2.12132034355964,-2.12132034355964));
#1052=CARTESIAN_POINT('Origin',(9.184851E-16,0.,-8.326673E-16));
#1053=CARTESIAN_POINT('Origin',(3.67394E-16,0.,-3.));
#1054=CARTESIAN_POINT('Origin',(9.184851E-16,0.,0.));
#1055=CARTESIAN_POINT('Origin',(1.83697E-16,0.,-4.));
#1056=CARTESIAN_POINT('',(1.5,1.83697019872103E-16,-5.));
#1057=CARTESIAN_POINT('Origin',(3.081488E-32,0.,-5.));
#1058=CARTESIAN_POINT('',(1.5,1.83697019872103E-16,-4.5));
#1059=CARTESIAN_POINT('',(1.5,1.83697019872103E-16,-4.));
#1060=CARTESIAN_POINT('Origin',(9.184851E-17,0.,-4.5));
#1061=CARTESIAN_POINT('Origin',(1.102182E-15,0.,1.));
#1062=CARTESIAN_POINT('',(-2.12132034355964,2.12132034355964,2.12132034355964));
#1063=CARTESIAN_POINT('',(-3.,0.,3.));
#1064=CARTESIAN_POINT('Origin',(9.184851E-16,0.,0.));
#1065=CARTESIAN_POINT('',(3.67394039744205E-16,3.,3.));
#1066=CARTESIAN_POINT('Origin',(9.184851E-16,0.,-9.714451E-16));
#1067=CARTESIAN_POINT('',(2.12132034355965,2.12132034355964,2.12132034355964));
#1068=CARTESIAN_POINT('Origin',(9.184851E-16,0.,-9.714451E-16));
#1069=CARTESIAN_POINT('',(3.,3.67394039744206E-16,3.));
#1070=CARTESIAN_POINT('Origin',(9.184851E-16,0.,1.387779E-16));
#1071=CARTESIAN_POINT('',(3.,3.67394039744206E-16,5.));
#1072=CARTESIAN_POINT('',(3.,3.67394039744206E-16,1.));
#1073=CARTESIAN_POINT('Origin',(1.83697E-15,0.,5.));
#1074=CARTESIAN_POINT('',(2.12132034355964,-2.12132034355965,2.12132034355964));
#1075=CARTESIAN_POINT('Origin',(9.184851E-16,0.,1.387779E-16));
#1076=CARTESIAN_POINT('',(1.469576E-15,-3.,3.));
#1077=CARTESIAN_POINT('Origin',(9.184851E-16,0.,-8.326673E-16));
#1078=CARTESIAN_POINT('',(-2.12132034355964,-2.12132034355964,2.12132034355964));
#1079=CARTESIAN_POINT('Origin',(9.184851E-16,0.,-8.326673E-16));
#1080=CARTESIAN_POINT('Origin',(9.184851E-16,0.,0.));
#1081=CARTESIAN_POINT('Origin',(2.296213E-16,0.,-3.75));
#1082=CARTESIAN_POINT('',(2.25,2.75545529808154E-16,-3.75));
#1083=CARTESIAN_POINT('Origin',(1.,0.,0.));
#1084=CARTESIAN_POINT('',(-3.,3.,-3.67394E-16));
#1085=CARTESIAN_POINT('Origin',(1.387779E-16,0.,0.));
#1086=CARTESIAN_POINT('Origin',(-3.,0.,0.));
#1087=CARTESIAN_POINT('Origin',(1.,0.,0.));
#1088=CARTESIAN_POINT('',(-3.,-3.,-1.469576E-15));
#1089=CARTESIAN_POINT('Origin',(-3.,0.,0.));
#1090=CARTESIAN_POINT('Origin',(1.387779E-16,0.,0.));
#1091=CARTESIAN_POINT('Origin',(0.,0.999999999999999,-7.347881E-16));
#1092=CARTESIAN_POINT('',(3.,-3.,-5.554531E-16));
#1093=CARTESIAN_POINT('Origin',(0.,-3.,-1.469576E-15));
#1094=CARTESIAN_POINT('Origin',(1.387779E-16,0.,0.));
#1095=CARTESIAN_POINT('Origin',(0.,0.999999999999999,-7.347881E-16));
#1096=CARTESIAN_POINT('Origin',(1.387779E-16,0.,0.));
#1097=CARTESIAN_POINT('Origin',(0.,-3.,-1.469576E-15));
#1098=CARTESIAN_POINT('Origin',(0.,0.999999999999999,-7.347881E-16));
#1099=CARTESIAN_POINT('Origin',(1.387779E-16,0.,0.));
#1100=CARTESIAN_POINT('',(3.67394039744206E-16,5.,3.));
#1101=CARTESIAN_POINT('',(3.67394039744206E-16,0.999999999999999,3.));
#1102=CARTESIAN_POINT('Origin',(0.,5.,0.));
#1103=CARTESIAN_POINT('Origin',(1.387779E-16,0.,0.));
#1104=CARTESIAN_POINT('Origin',(1.,0.,0.));
#1105=CARTESIAN_POINT('Origin',(-3.,0.,0.));
#1106=CARTESIAN_POINT('Origin',(1.,0.,0.));
#1107=CARTESIAN_POINT('',(5.,3.67394039744206E-16,3.));
#1108=CARTESIAN_POINT('Origin',(5.,0.,0.));
#1109=CARTESIAN_POINT('',(1.,3.67394039744206E-16,3.));
#1110=CARTESIAN_POINT('Origin',(1.,0.,0.));
#1111=CARTESIAN_POINT('Origin',(1.387779E-16,0.,0.));
#1112=CARTESIAN_POINT('Origin',(-3.,0.,0.));
#1113=CARTESIAN_POINT('Origin',(-4.,0.,0.));
#1114=CARTESIAN_POINT('',(-4.5,1.83697019872103E-16,1.5));
#1115=CARTESIAN_POINT('Origin',(-4.5,0.,0.));
#1116=CARTESIAN_POINT('',(-5.,1.83697019872103E-16,1.5));
#1117=CARTESIAN_POINT('',(-4.,1.83697019872103E-16,1.5));
#1118=CARTESIAN_POINT('Origin',(-5.,0.,0.));
#1119=CARTESIAN_POINT('Origin',(-3.75,0.,0.));
#1120=CARTESIAN_POINT('',(-3.75,-2.75545529808155E-16,2.25));
#1121=CARTESIAN_POINT('Origin',(0.,0.999999999999999,-7.347881E-16));
#1122=CARTESIAN_POINT('Origin',(0.,-3.,-1.469576E-15));
#1123=CARTESIAN_POINT('Origin',(0.,0.999999999999999,-7.347881E-16));
#1124=CARTESIAN_POINT('Origin',(0.,-3.,-1.469576E-15));
#1125=CARTESIAN_POINT('Origin',(0.,-4.,-1.653273E-15));
#1126=CARTESIAN_POINT('',(1.83697019872103E-16,-5.,1.5));
#1127=CARTESIAN_POINT('Origin',(0.,-5.,-1.83697E-15));
#1128=CARTESIAN_POINT('',(1.83697019872103E-16,-4.5,1.5));
#1129=CARTESIAN_POINT('',(1.83697019872103E-16,-4.,1.5));
#1130=CARTESIAN_POINT('Origin',(0.,-4.5,-1.745122E-15));
#1131=CARTESIAN_POINT('Origin',(0.,-3.75,-1.607349E-15));
#1132=CARTESIAN_POINT('',(2.75545529808154E-16,-3.75,2.25));
#1133=CARTESIAN_POINT('Origin',(-1.387779E-16,-6.308085E-17,-5.));
#1134=CARTESIAN_POINT('',(-5.,5.,-5.));
#1135=CARTESIAN_POINT('',(-5.,-5.,-5.));
#1136=CARTESIAN_POINT('',(-5.,5.,-5.));
#1137=CARTESIAN_POINT('',(5.,5.,-5.));
#1138=CARTESIAN_POINT('',(5.,5.,-5.));
#1139=CARTESIAN_POINT('',(5.,-5.,-5.));
#1140=CARTESIAN_POINT('',(5.,-5.,-5.));
#1141=CARTESIAN_POINT('',(-5.,-5.,-5.));
#1142=CARTESIAN_POINT('Origin',(5.,5.,0.));
#1143=CARTESIAN_POINT('',(5.,5.,5.));
#1144=CARTESIAN_POINT('',(5.,-5.,5.));
#1145=CARTESIAN_POINT('',(5.,5.,5.));
#1146=CARTESIAN_POINT('',(5.,-5.,5.));
#1147=CARTESIAN_POINT('',(5.,5.,5.));
#1148=CARTESIAN_POINT('Origin',(5.,-5.,0.));
#1149=CARTESIAN_POINT('',(-5.,-5.,5.));
#1150=CARTESIAN_POINT('',(5.,-5.,5.));
#1151=CARTESIAN_POINT('',(-5.,-5.,5.));
#1152=CARTESIAN_POINT('Origin',(-5.,-5.,0.));
#1153=CARTESIAN_POINT('',(-5.,5.,5.));
#1154=CARTESIAN_POINT('',(-5.,-5.,5.));
#1155=CARTESIAN_POINT('',(-5.,5.,-5.));
#1156=CARTESIAN_POINT('Origin',(-5.,5.,0.));
#1157=CARTESIAN_POINT('',(-5.,5.,5.));
#1158=CARTESIAN_POINT('Origin',(0.,-7.569702E-17,5.));
#1159=CARTESIAN_POINT('',(0.,0.,0.));
#1160=CARTESIAN_POINT('Origin',(1.,3.520875E-16,0.57735026919));
#1161=CARTESIAN_POINT('',(1.,-1.2,0.57735026919));
#1162=CARTESIAN_POINT('',(1.,-1.2,-0.57735026919));
#1163=CARTESIAN_POINT('',(1.00000000001,-1.20000000001,0.57735026919));
#1164=CARTESIAN_POINT('',(1.,3.520875E-16,0.57735026919));
#1165=CARTESIAN_POINT('',(1.00000000001,3.520875E-16,0.5773502692));
#1166=CARTESIAN_POINT('',(1.,7.927266E-16,-0.57735026919));
#1167=CARTESIAN_POINT('',(1.00000000001,1.000079E-11,-0.57735026919));
#1168=CARTESIAN_POINT('',(1.00000000001,7.927266E-16,-0.5773502692));
#1169=CARTESIAN_POINT('Origin',(8.500145E-16,-1.2,-8.500145E-16));
#1170=CARTESIAN_POINT('',(1.040834E-15,-1.2,-1.154700538379));
#1171=CARTESIAN_POINT('',(1.000000000007,-1.20000000001,-0.577350269201));
#1172=CARTESIAN_POINT('',(-1.,-1.2,-0.57735026919));
#1173=CARTESIAN_POINT('',(-1.829129E-12,-1.20000000001,-1.154700538382));
#1174=CARTESIAN_POINT('',(-1.,-1.2,0.57735026919));
#1175=CARTESIAN_POINT('',(-1.00000000001,-1.20000000001,-0.57735026919));
#1176=CARTESIAN_POINT('',(1.040834E-15,-1.2,1.154700538379));
#1177=CARTESIAN_POINT('',(-1.000000000007,-1.20000000001,0.577350269201));
#1178=CARTESIAN_POINT('',(6.831168E-12,-1.20000000001,1.154700538391));
#1179=CARTESIAN_POINT('Origin',(1.040834E-15,1.317679E-16,1.154700538379));
#1180=CARTESIAN_POINT('',(1.040834E-15,1.317679E-16,1.154700538379));
#1181=CARTESIAN_POINT('',(1.000104E-11,1.317679E-16,1.154700538389));
#1182=CARTESIAN_POINT('',(1.000000000007,1.000035E-11,0.577350269201));
#1183=CARTESIAN_POINT('Origin',(1.,7.927266E-16,-0.57735026919));
#1184=CARTESIAN_POINT('',(1.040834E-15,1.013046E-15,-1.154700538379));
#1185=CARTESIAN_POINT('',(6.831168E-12,1.000101E-11,-1.154700538391));
#1186=CARTESIAN_POINT('',(1.000104E-11,1.013046E-15,-1.154700538389));
#1187=CARTESIAN_POINT('Origin',(1.040834E-15,1.013046E-15,-1.154700538379));
#1188=CARTESIAN_POINT('',(-1.,7.927266E-16,-0.57735026919));
#1189=CARTESIAN_POINT('',(-1.000000000007,1.000079E-11,-0.577350269201));
#1190=CARTESIAN_POINT('',(-1.00000000001,7.927266E-16,-0.5773502692));
#1191=CARTESIAN_POINT('Origin',(0.,992.650001792339,-2.261008E-15));
#1192=CARTESIAN_POINT('',(-1.83697019863861E-16,-5.84999999993244,-1.4999999999327));
#1193=CARTESIAN_POINT('Origin',(0.,-5.85000000001,-1.000223E-11));
#1194=CARTESIAN_POINT('',(-1.65327317891908E-16,-6.00000000007711,-1.35000000005732));
#1195=CARTESIAN_POINT('',(-1.22464679914735E-13,992.650001792339,-1000.));
#1196=CARTESIAN_POINT('Origin',(0.,-6.00000000001,-1.000229E-11));
#1197=CARTESIAN_POINT('Origin',(0.,-3.775,-1.440558E-15));
#1198=CARTESIAN_POINT('',(1.83697019872103E-16,-1.70000000001,-1.5));
#1199=CARTESIAN_POINT('',(1.83697019872103E-16,-3.775,-1.5));
#1200=CARTESIAN_POINT('Origin',(0.,-1.70000000001,-1.000065E-11));
#1201=CARTESIAN_POINT('Origin',(-1.,7.927266E-16,-0.57735026919));
#1202=CARTESIAN_POINT('',(-1.,3.520875E-16,0.57735026919));
#1203=CARTESIAN_POINT('',(-1.00000000001,1.000035E-11,0.57735026919));
#1204=CARTESIAN_POINT('',(-1.00000000001,3.520875E-16,0.5773502692));
#1205=CARTESIAN_POINT('Origin',(-1.,3.520875E-16,0.57735026919));
#1206=CARTESIAN_POINT('',(-1.829129E-12,1.000013E-11,1.154700538382));
#1207=CARTESIAN_POINT('Origin',(0.,996.800001790858,-3.625245E-16));
#1208=CARTESIAN_POINT('',(-3.67394039661773E-16,-0.199999999326792,-2.99999999932695));
#1209=CARTESIAN_POINT('Origin',(0.,-0.20000000001,-1.000008E-11));
#1210=CARTESIAN_POINT('',(-1.22464679914735E-13,996.800001790858,-1000.));
#1211=CARTESIAN_POINT('Origin',(0.,-0.1,-3.816047E-17));
#1212=CARTESIAN_POINT('',(3.67394039744206E-16,1.000113186711E-11,-3.));
#1213=CARTESIAN_POINT('',(3.67394039744206E-16,-0.1,-3.));
#1214=CARTESIAN_POINT('Origin',(0.,1.000114E-11,1.E-11));
#1215=CARTESIAN_POINT('Origin',(0.,-6.,0.675));
#1216=CARTESIAN_POINT('Origin',(0.,0.,1.5));
#1217=CARTESIAN_POINT('',(0.,0.,0.));
#1218=CARTESIAN_POINT('',(9.184851E-17,-1.00008890058234E-11,-2.79999999999));
#1219=CARTESIAN_POINT('',(0.,-2.79999999999,9.998904878E-12));
#1220=CARTESIAN_POINT('',(-2.79999999999,0.,1.000065E-11));
#1221=UNCERTAINTY_MEASURE_WITH_UNIT(LENGTH_MEASURE(0.01),#1229,
'DISTANCE_ACCURACY_VALUE',
'Maximum model space distance between geometric entities at asserted c
onnectivities');
#1222=UNCERTAINTY_MEASURE_WITH_UNIT(LENGTH_MEASURE(0.01),#1229,
'DISTANCE_ACCURACY_VALUE',
'Maximum model space distance between geometric entities at asserted c
onnectivities');
#1223=UNCERTAINTY_MEASURE_WITH_UNIT(LENGTH_MEASURE(0.01),#1229,
'DISTANCE_ACCURACY_VALUE',
'Maximum model space distance between geometric entities at asserted c
onnectivities');
#1224=UNCERTAINTY_MEASURE_WITH_UNIT(LENGTH_MEASURE(0.01),#1229,
'DISTANCE_ACCURACY_VALUE',
'Maximum model space distance between geometric entities at asserted c
onnectivities');
#1225=(
GEOMETRIC_REPRESENTATION_CONTEXT(3)
GLOBAL_UNCERTAINTY_ASSIGNED_CONTEXT((#1221))
GLOBAL_UNIT_ASSIGNED_CONTEXT((#1229,#1231,#1232))
REPRESENTATION_CONTEXT('','3D')
);
#1226=(
GEOMETRIC_REPRESENTATION_CONTEXT(3)
GLOBAL_UNCERTAINTY_ASSIGNED_CONTEXT((#1222))
GLOBAL_UNIT_ASSIGNED_CONTEXT((#1229,#1231,#1232))
REPRESENTATION_CONTEXT('','3D')
);
#1227=(
GEOMETRIC_REPRESENTATION_CONTEXT(3)
GLOBAL_UNCERTAINTY_ASSIGNED_CONTEXT((#1223))
GLOBAL_UNIT_ASSIGNED_CONTEXT((#1229,#1231,#1232))
REPRESENTATION_CONTEXT('','3D')
);
#1228=(
GEOMETRIC_REPRESENTATION_CONTEXT(3)
GLOBAL_UNCERTAINTY_ASSIGNED_CONTEXT((#1224))
GLOBAL_UNIT_ASSIGNED_CONTEXT((#1229,#1231,#1232))
REPRESENTATION_CONTEXT('','3D')
);
#1229=(
LENGTH_UNIT()
NAMED_UNIT(*)
SI_UNIT(.MILLI.,.METRE.)
);
#1230=(
LENGTH_UNIT()
NAMED_UNIT(*)
SI_UNIT($,.METRE.)
);
#1231=(
NAMED_UNIT(*)
PLANE_ANGLE_UNIT()
SI_UNIT($,.RADIAN.)
);
#1232=(
NAMED_UNIT(*)
SI_UNIT($,.STERADIAN.)
SOLID_ANGLE_UNIT()
);
#1233=SHAPE_DEFINITION_REPRESENTATION(#1236,#1243);
#1234=SHAPE_DEFINITION_REPRESENTATION(#1237,#1244);
#1235=SHAPE_DEFINITION_REPRESENTATION(#1238,#1245);
#1236=PRODUCT_DEFINITION_SHAPE('',$,#1247);
#1237=PRODUCT_DEFINITION_SHAPE('',$,#1248);
#1238=PRODUCT_DEFINITION_SHAPE('',$,#1249);
#1239=PRODUCT_DEFINITION_SHAPE($,$,#23);
#1240=PRODUCT_DEFINITION_SHAPE($,$,#24);
#1241=PRODUCT_DEFINITION_SHAPE($,$,#25);
#1242=PRODUCT_DEFINITION_SHAPE($,$,#26);
#1243=SHAPE_REPRESENTATION('',(#698,#790,#791,#792,#793),#1225);
#1244=SHAPE_REPRESENTATION('',(#699),#1226);
#1245=SHAPE_REPRESENTATION('',(#771),#1227);
#1246=PRODUCT_DEFINITION_CONTEXT('part definition',#1257,'design');
#1247=PRODUCT_DEFINITION('SA_MakerBeam_CORNER','SA_MakerBeam_CORNER v3',
#1250,#1246);
#1248=PRODUCT_DEFINITION('100988','MakerBeam_CUBE_CORNER_10x10x10mm v1',
#1251,#1246);
#1249=PRODUCT_DEFINITION('101619-2 m3x4','BOLT_CSK_M3_4mm v1',#1252,#1246);
#1250=PRODUCT_DEFINITION_FORMATION('',$,#1259);
#1251=PRODUCT_DEFINITION_FORMATION('',$,#1260);
#1252=PRODUCT_DEFINITION_FORMATION('',$,#1261);
#1253=PRODUCT_RELATED_PRODUCT_CATEGORY('SA_MakerBeam_CORNER v3',
'SA_MakerBeam_CORNER v3',(#1259));
#1254=PRODUCT_RELATED_PRODUCT_CATEGORY(
'MakerBeam_CUBE_CORNER_10x10x10mm v1',
'MakerBeam_CUBE_CORNER_10x10x10mm v1',(#1260));
#1255=PRODUCT_RELATED_PRODUCT_CATEGORY('BOLT_CSK_M3_4mm v1',
'BOLT_CSK_M3_4mm v1',(#1261));
#1256=APPLICATION_PROTOCOL_DEFINITION('international standard',
'automotive_design',2009,#1257);
#1257=APPLICATION_CONTEXT(
'Core Data for Automotive Mechanical Design Process');
#1258=PRODUCT_CONTEXT('part definition',#1257,'mechanical');
#1259=PRODUCT('SA_MakerBeam_CORNER','SA_MakerBeam_CORNER v3',$,(#1258));
#1260=PRODUCT('100988','MakerBeam_CUBE_CORNER_10x10x10mm v1',$,(#1258));
#1261=PRODUCT('101619-2 m3x4','BOLT_CSK_M3_4mm v1',$,(#1258));
#1262=PRESENTATION_STYLE_ASSIGNMENT((#1265));
#1263=PRESENTATION_STYLE_ASSIGNMENT((#1266));
#1264=PRESENTATION_STYLE_ASSIGNMENT((#1267));
#1265=SURFACE_STYLE_USAGE(.BOTH.,#1268);
#1266=SURFACE_STYLE_USAGE(.BOTH.,#1269);
#1267=SURFACE_STYLE_USAGE(.BOTH.,#1270);
#1268=SURFACE_SIDE_STYLE('',(#1271));
#1269=SURFACE_SIDE_STYLE('',(#1272));
#1270=SURFACE_SIDE_STYLE('',(#1273));
#1271=SURFACE_STYLE_FILL_AREA(#1274);
#1272=SURFACE_STYLE_FILL_AREA(#1275);
#1273=SURFACE_STYLE_FILL_AREA(#1276);
#1274=FILL_AREA_STYLE('Acier - Satin\X\E9',(#1277));
#1275=FILL_AREA_STYLE('Opaque(63,63,63)',(#1278));
#1276=FILL_AREA_STYLE('Opaque(163,163,175)',(#1279));
#1277=FILL_AREA_STYLE_COLOUR('Acier - Satin\X\E9',#1280);
#1278=FILL_AREA_STYLE_COLOUR('Opaque(63,63,63)',#1281);
#1279=FILL_AREA_STYLE_COLOUR('Opaque(163,163,175)',#1282);
#1280=COLOUR_RGB('Acier - Satin\X\E9',0.627450980392157,0.627450980392157,
0.627450980392157);
#1281=COLOUR_RGB('Opaque(63,63,63)',0.250980392156863,0.250980392156863,
0.250980392156863);
#1282=COLOUR_RGB('Opaque(163,163,175)',0.63921568627451,0.63921568627451,
0.686274509803922);
ENDSEC;
END-ISO-10303-21;
