ISO-10303-21;
HEADER;
/* Generated by software containing ST-Developer
 * from STEP Tools, Inc. (www.steptools.com) 
 */

FILE_DESCRIPTION(
/* description */ (''),
/* implementation_level */ '2;1');

FILE_NAME(
/* name */ 'ROT_ENCODER.step',
/* time_stamp */ '2026-08-10T14:30:37+02:00',
/* author */ (''),
/* organization */ (''),
/* preprocessor_version */ 'ST-DEVELOPER v20.1',
/* originating_system */ 'Autodesk Translation Framework v15.8.0.0',
/* authorisation */ '');

FILE_SCHEMA (('AUTOMOTIVE_DESIGN { 1 0 10303 214 3 1 1 }'));
ENDSEC;

DATA;
#10=MECHANICAL_DESIGN_GEOMETRIC_PRESENTATION_REPRESENTATION('',(#13),#880);
#11=SHAPE_REPRESENTATION_RELATIONSHIP('SRR','None',#887,#12);
#12=ADVANCED_BREP_SHAPE_REPRESENTATION('',(#14),#879);
#13=STYLED_ITEM('',(#896),#14);
#14=MANIFOLD_SOLID_BREP('Corps1',#483);
#15=FACE_BOUND('',#143,.T.);
#16=FACE_BOUND('',#144,.T.);
#17=FACE_BOUND('',#145,.T.);
#18=FACE_BOUND('',#159,.T.);
#19=FACE_BOUND('',#160,.T.);
#20=PLANE('',#503);
#21=PLANE('',#528);
#22=PLANE('',#531);
#23=PLANE('',#534);
#24=PLANE('',#560);
#25=PLANE('',#562);
#26=PLANE('',#563);
#27=LINE('',#748,#54);
#28=LINE('',#764,#55);
#29=LINE('',#765,#56);
#30=LINE('',#776,#57);
#31=LINE('',#777,#58);
#32=LINE('',#788,#59);
#33=LINE('',#789,#60);
#34=LINE('',#797,#61);
#35=LINE('',#798,#62);
#36=LINE('',#801,#63);
#37=LINE('',#803,#64);
#38=LINE('',#804,#65);
#39=LINE('',#807,#66);
#40=LINE('',#811,#67);
#41=LINE('',#812,#68);
#42=LINE('',#815,#69);
#43=LINE('',#826,#70);
#44=LINE('',#829,#71);
#45=LINE('',#840,#72);
#46=LINE('',#841,#73);
#47=LINE('',#850,#74);
#48=LINE('',#858,#75);
#49=LINE('',#862,#76);
#50=LINE('',#864,#77);
#51=LINE('',#866,#78);
#52=LINE('',#874,#79);
#53=LINE('',#876,#80);
#54=VECTOR('',#580,5.);
#55=VECTOR('',#599,10.);
#56=VECTOR('',#600,10.);
#57=VECTOR('',#613,10.);
#58=VECTOR('',#614,10.);
#59=VECTOR('',#627,10.);
#60=VECTOR('',#628,10.);
#61=VECTOR('',#639,10.);
#62=VECTOR('',#640,10.);
#63=VECTOR('',#643,10.);
#64=VECTOR('',#644,10.);
#65=VECTOR('',#645,10.);
#66=VECTOR('',#648,10.);
#67=VECTOR('',#653,10.);
#68=VECTOR('',#654,10.);
#69=VECTOR('',#657,10.);
#70=VECTOR('',#670,10.);
#71=VECTOR('',#673,10.);
#72=VECTOR('',#686,10.);
#73=VECTOR('',#687,10.);
#74=VECTOR('',#700,10.);
#75=VECTOR('',#711,10.);
#76=VECTOR('',#718,10.);
#77=VECTOR('',#721,10.);
#78=VECTOR('',#724,10.);
#79=VECTOR('',#735,2.425);
#80=VECTOR('',#738,2.425);
#81=CYLINDRICAL_SURFACE('',#501,5.);
#82=CYLINDRICAL_SURFACE('',#509,0.5);
#83=CYLINDRICAL_SURFACE('',#515,0.5);
#84=CYLINDRICAL_SURFACE('',#521,0.5);
#85=CYLINDRICAL_SURFACE('',#527,0.5);
#86=CYLINDRICAL_SURFACE('',#529,4.);
#87=CYLINDRICAL_SURFACE('',#532,4.);
#88=CYLINDRICAL_SURFACE('',#537,0.5);
#89=CYLINDRICAL_SURFACE('',#544,0.5);
#90=CYLINDRICAL_SURFACE('',#550,0.5);
#91=CYLINDRICAL_SURFACE('',#555,0.5);
#92=CYLINDRICAL_SURFACE('',#559,4.);
#93=CYLINDRICAL_SURFACE('',#561,4.);
#94=CYLINDRICAL_SURFACE('',#566,2.425);
#95=CYLINDRICAL_SURFACE('',#567,2.425);
#96=FACE_OUTER_BOUND('',#127,.T.);
#97=FACE_OUTER_BOUND('',#128,.T.);
#98=FACE_OUTER_BOUND('',#129,.T.);
#99=FACE_OUTER_BOUND('',#130,.T.);
#100=FACE_OUTER_BOUND('',#131,.T.);
#101=FACE_OUTER_BOUND('',#132,.T.);
#102=FACE_OUTER_BOUND('',#133,.T.);
#103=FACE_OUTER_BOUND('',#134,.T.);
#104=FACE_OUTER_BOUND('',#135,.T.);
#105=FACE_OUTER_BOUND('',#136,.T.);
#106=FACE_OUTER_BOUND('',#137,.T.);
#107=FACE_OUTER_BOUND('',#138,.T.);
#108=FACE_OUTER_BOUND('',#139,.T.);
#109=FACE_OUTER_BOUND('',#140,.T.);
#110=FACE_OUTER_BOUND('',#141,.T.);
#111=FACE_OUTER_BOUND('',#142,.T.);
#112=FACE_OUTER_BOUND('',#146,.T.);
#113=FACE_OUTER_BOUND('',#147,.T.);
#114=FACE_OUTER_BOUND('',#148,.T.);
#115=FACE_OUTER_BOUND('',#149,.T.);
#116=FACE_OUTER_BOUND('',#150,.T.);
#117=FACE_OUTER_BOUND('',#151,.T.);
#118=FACE_OUTER_BOUND('',#152,.T.);
#119=FACE_OUTER_BOUND('',#153,.T.);
#120=FACE_OUTER_BOUND('',#154,.T.);
#121=FACE_OUTER_BOUND('',#155,.T.);
#122=FACE_OUTER_BOUND('',#156,.T.);
#123=FACE_OUTER_BOUND('',#157,.T.);
#124=FACE_OUTER_BOUND('',#158,.T.);
#125=FACE_OUTER_BOUND('',#161,.T.);
#126=FACE_OUTER_BOUND('',#162,.T.);
#127=EDGE_LOOP('',(#309,#310,#311,#312));
#128=EDGE_LOOP('',(#313,#314,#315,#316));
#129=EDGE_LOOP('',(#317));
#130=EDGE_LOOP('',(#318,#319,#320,#321));
#131=EDGE_LOOP('',(#322,#323,#324,#325));
#132=EDGE_LOOP('',(#326,#327,#328,#329));
#133=EDGE_LOOP('',(#330,#331,#332,#333));
#134=EDGE_LOOP('',(#334,#335,#336,#337));
#135=EDGE_LOOP('',(#338,#339,#340,#341));
#136=EDGE_LOOP('',(#342,#343,#344,#345));
#137=EDGE_LOOP('',(#346,#347,#348,#349));
#138=EDGE_LOOP('',(#350,#351,#352,#353));
#139=EDGE_LOOP('',(#354,#355,#356,#357));
#140=EDGE_LOOP('',(#358,#359,#360,#361));
#141=EDGE_LOOP('',(#362,#363,#364,#365));
#142=EDGE_LOOP('',(#366,#367,#368,#369,#370,#371,#372,#373));
#143=EDGE_LOOP('',(#374));
#144=EDGE_LOOP('',(#375));
#145=EDGE_LOOP('',(#376));
#146=EDGE_LOOP('',(#377,#378,#379,#380));
#147=EDGE_LOOP('',(#381,#382,#383,#384));
#148=EDGE_LOOP('',(#385,#386,#387,#388));
#149=EDGE_LOOP('',(#389,#390,#391,#392));
#150=EDGE_LOOP('',(#393,#394,#395,#396));
#151=EDGE_LOOP('',(#397,#398,#399,#400));
#152=EDGE_LOOP('',(#401,#402,#403,#404));
#153=EDGE_LOOP('',(#405,#406,#407,#408));
#154=EDGE_LOOP('',(#409,#410,#411,#412));
#155=EDGE_LOOP('',(#413,#414,#415,#416));
#156=EDGE_LOOP('',(#417,#418,#419,#420));
#157=EDGE_LOOP('',(#421,#422,#423,#424));
#158=EDGE_LOOP('',(#425,#426,#427,#428,#429,#430,#431,#432));
#159=EDGE_LOOP('',(#433));
#160=EDGE_LOOP('',(#434));
#161=EDGE_LOOP('',(#435,#436,#437,#438));
#162=EDGE_LOOP('',(#439,#440,#441,#442));
#163=CIRCLE('',#498,3.5);
#164=CIRCLE('',#499,1.5);
#165=CIRCLE('',#500,5.);
#166=CIRCLE('',#502,5.);
#167=CIRCLE('',#505,0.5);
#168=CIRCLE('',#506,4.);
#169=CIRCLE('',#507,0.5);
#170=CIRCLE('',#508,3.5);
#171=CIRCLE('',#510,0.5);
#172=CIRCLE('',#512,0.499999999999998);
#173=CIRCLE('',#513,3.5);
#174=CIRCLE('',#514,4.);
#175=CIRCLE('',#516,0.5);
#176=CIRCLE('',#518,0.5);
#177=CIRCLE('',#519,3.5);
#178=CIRCLE('',#520,4.);
#179=CIRCLE('',#522,0.499999999999998);
#180=CIRCLE('',#524,0.499999999999998);
#181=CIRCLE('',#525,3.5);
#182=CIRCLE('',#526,4.);
#183=CIRCLE('',#530,4.);
#184=CIRCLE('',#533,4.);
#185=CIRCLE('',#535,2.425);
#186=CIRCLE('',#536,2.425);
#187=CIRCLE('',#538,0.5);
#188=CIRCLE('',#539,0.5);
#189=CIRCLE('',#541,0.5);
#190=CIRCLE('',#542,3.5);
#191=CIRCLE('',#543,4.);
#192=CIRCLE('',#545,0.500000000000003);
#193=CIRCLE('',#547,0.5);
#194=CIRCLE('',#548,3.5);
#195=CIRCLE('',#549,4.);
#196=CIRCLE('',#551,0.499999999999998);
#197=CIRCLE('',#553,0.5);
#198=CIRCLE('',#554,3.5);
#199=CIRCLE('',#556,0.5);
#200=CIRCLE('',#558,3.5);
#201=CIRCLE('',#564,2.425);
#202=CIRCLE('',#565,2.425);
#203=VERTEX_POINT('',#741);
#204=VERTEX_POINT('',#743);
#205=VERTEX_POINT('',#747);
#206=VERTEX_POINT('',#752);
#207=VERTEX_POINT('',#753);
#208=VERTEX_POINT('',#755);
#209=VERTEX_POINT('',#757);
#210=VERTEX_POINT('',#761);
#211=VERTEX_POINT('',#762);
#212=VERTEX_POINT('',#767);
#213=VERTEX_POINT('',#768);
#214=VERTEX_POINT('',#773);
#215=VERTEX_POINT('',#774);
#216=VERTEX_POINT('',#779);
#217=VERTEX_POINT('',#780);
#218=VERTEX_POINT('',#785);
#219=VERTEX_POINT('',#786);
#220=VERTEX_POINT('',#791);
#221=VERTEX_POINT('',#792);
#222=VERTEX_POINT('',#800);
#223=VERTEX_POINT('',#802);
#224=VERTEX_POINT('',#806);
#225=VERTEX_POINT('',#810);
#226=VERTEX_POINT('',#814);
#227=VERTEX_POINT('',#818);
#228=VERTEX_POINT('',#820);
#229=VERTEX_POINT('',#823);
#230=VERTEX_POINT('',#825);
#231=VERTEX_POINT('',#827);
#232=VERTEX_POINT('',#831);
#233=VERTEX_POINT('',#832);
#234=VERTEX_POINT('',#837);
#235=VERTEX_POINT('',#838);
#236=VERTEX_POINT('',#843);
#237=VERTEX_POINT('',#848);
#238=VERTEX_POINT('',#852);
#239=VERTEX_POINT('',#856);
#240=VERTEX_POINT('',#869);
#241=VERTEX_POINT('',#871);
#242=EDGE_CURVE('',#203,#203,#163,.T.);
#243=EDGE_CURVE('',#203,#204,#164,.T.);
#244=EDGE_CURVE('',#204,#204,#165,.T.);
#245=EDGE_CURVE('',#204,#205,#27,.T.);
#246=EDGE_CURVE('',#205,#205,#166,.T.);
#247=EDGE_CURVE('',#206,#207,#167,.T.);
#248=EDGE_CURVE('',#207,#208,#168,.T.);
#249=EDGE_CURVE('',#208,#209,#169,.T.);
#250=EDGE_CURVE('',#209,#206,#170,.T.);
#251=EDGE_CURVE('',#210,#211,#171,.T.);
#252=EDGE_CURVE('',#211,#209,#28,.T.);
#253=EDGE_CURVE('',#208,#210,#29,.T.);
#254=EDGE_CURVE('',#212,#213,#172,.T.);
#255=EDGE_CURVE('',#213,#211,#173,.T.);
#256=EDGE_CURVE('',#210,#212,#174,.T.);
#257=EDGE_CURVE('',#214,#215,#175,.T.);
#258=EDGE_CURVE('',#215,#213,#30,.T.);
#259=EDGE_CURVE('',#212,#214,#31,.T.);
#260=EDGE_CURVE('',#216,#217,#176,.T.);
#261=EDGE_CURVE('',#217,#215,#177,.T.);
#262=EDGE_CURVE('',#214,#216,#178,.T.);
#263=EDGE_CURVE('',#218,#219,#179,.T.);
#264=EDGE_CURVE('',#219,#217,#32,.T.);
#265=EDGE_CURVE('',#216,#218,#33,.T.);
#266=EDGE_CURVE('',#220,#221,#180,.T.);
#267=EDGE_CURVE('',#221,#219,#181,.T.);
#268=EDGE_CURVE('',#218,#220,#182,.T.);
#269=EDGE_CURVE('',#220,#207,#34,.T.);
#270=EDGE_CURVE('',#206,#221,#35,.T.);
#271=EDGE_CURVE('',#212,#222,#36,.T.);
#272=EDGE_CURVE('',#223,#222,#37,.T.);
#273=EDGE_CURVE('',#214,#223,#38,.T.);
#274=EDGE_CURVE('',#210,#224,#39,.T.);
#275=EDGE_CURVE('',#222,#224,#183,.T.);
#276=EDGE_CURVE('',#208,#225,#40,.T.);
#277=EDGE_CURVE('',#224,#225,#41,.T.);
#278=EDGE_CURVE('',#207,#226,#42,.T.);
#279=EDGE_CURVE('',#225,#226,#184,.T.);
#280=EDGE_CURVE('',#227,#227,#185,.T.);
#281=EDGE_CURVE('',#228,#228,#186,.T.);
#282=EDGE_CURVE('',#229,#226,#187,.T.);
#283=EDGE_CURVE('',#226,#230,#43,.T.);
#284=EDGE_CURVE('',#230,#231,#188,.T.);
#285=EDGE_CURVE('',#231,#229,#44,.T.);
#286=EDGE_CURVE('',#232,#233,#189,.T.);
#287=EDGE_CURVE('',#233,#231,#190,.T.);
#288=EDGE_CURVE('',#230,#232,#191,.T.);
#289=EDGE_CURVE('',#234,#235,#192,.T.);
#290=EDGE_CURVE('',#235,#233,#45,.T.);
#291=EDGE_CURVE('',#232,#234,#46,.T.);
#292=EDGE_CURVE('',#223,#236,#193,.T.);
#293=EDGE_CURVE('',#236,#235,#194,.T.);
#294=EDGE_CURVE('',#234,#223,#195,.T.);
#295=EDGE_CURVE('',#222,#237,#196,.T.);
#296=EDGE_CURVE('',#237,#236,#47,.T.);
#297=EDGE_CURVE('',#224,#238,#197,.T.);
#298=EDGE_CURVE('',#238,#237,#198,.T.);
#299=EDGE_CURVE('',#225,#239,#199,.T.);
#300=EDGE_CURVE('',#239,#238,#48,.T.);
#301=EDGE_CURVE('',#229,#239,#200,.T.);
#302=EDGE_CURVE('',#216,#234,#49,.T.);
#303=EDGE_CURVE('',#218,#232,#50,.T.);
#304=EDGE_CURVE('',#220,#230,#51,.T.);
#305=EDGE_CURVE('',#240,#240,#201,.T.);
#306=EDGE_CURVE('',#241,#241,#202,.T.);
#307=EDGE_CURVE('',#240,#227,#52,.T.);
#308=EDGE_CURVE('',#241,#228,#53,.T.);
#309=ORIENTED_EDGE('',*,*,#242,.T.);
#310=ORIENTED_EDGE('',*,*,#243,.T.);
#311=ORIENTED_EDGE('',*,*,#244,.T.);
#312=ORIENTED_EDGE('',*,*,#243,.F.);
#313=ORIENTED_EDGE('',*,*,#244,.F.);
#314=ORIENTED_EDGE('',*,*,#245,.T.);
#315=ORIENTED_EDGE('',*,*,#246,.F.);
#316=ORIENTED_EDGE('',*,*,#245,.F.);
#317=ORIENTED_EDGE('',*,*,#242,.F.);
#318=ORIENTED_EDGE('',*,*,#247,.T.);
#319=ORIENTED_EDGE('',*,*,#248,.T.);
#320=ORIENTED_EDGE('',*,*,#249,.T.);
#321=ORIENTED_EDGE('',*,*,#250,.T.);
#322=ORIENTED_EDGE('',*,*,#251,.T.);
#323=ORIENTED_EDGE('',*,*,#252,.T.);
#324=ORIENTED_EDGE('',*,*,#249,.F.);
#325=ORIENTED_EDGE('',*,*,#253,.T.);
#326=ORIENTED_EDGE('',*,*,#254,.T.);
#327=ORIENTED_EDGE('',*,*,#255,.T.);
#328=ORIENTED_EDGE('',*,*,#251,.F.);
#329=ORIENTED_EDGE('',*,*,#256,.T.);
#330=ORIENTED_EDGE('',*,*,#257,.T.);
#331=ORIENTED_EDGE('',*,*,#258,.T.);
#332=ORIENTED_EDGE('',*,*,#254,.F.);
#333=ORIENTED_EDGE('',*,*,#259,.T.);
#334=ORIENTED_EDGE('',*,*,#260,.T.);
#335=ORIENTED_EDGE('',*,*,#261,.T.);
#336=ORIENTED_EDGE('',*,*,#257,.F.);
#337=ORIENTED_EDGE('',*,*,#262,.T.);
#338=ORIENTED_EDGE('',*,*,#263,.T.);
#339=ORIENTED_EDGE('',*,*,#264,.T.);
#340=ORIENTED_EDGE('',*,*,#260,.F.);
#341=ORIENTED_EDGE('',*,*,#265,.T.);
#342=ORIENTED_EDGE('',*,*,#266,.T.);
#343=ORIENTED_EDGE('',*,*,#267,.T.);
#344=ORIENTED_EDGE('',*,*,#263,.F.);
#345=ORIENTED_EDGE('',*,*,#268,.T.);
#346=ORIENTED_EDGE('',*,*,#266,.F.);
#347=ORIENTED_EDGE('',*,*,#269,.T.);
#348=ORIENTED_EDGE('',*,*,#247,.F.);
#349=ORIENTED_EDGE('',*,*,#270,.T.);
#350=ORIENTED_EDGE('',*,*,#259,.F.);
#351=ORIENTED_EDGE('',*,*,#271,.T.);
#352=ORIENTED_EDGE('',*,*,#272,.F.);
#353=ORIENTED_EDGE('',*,*,#273,.F.);
#354=ORIENTED_EDGE('',*,*,#256,.F.);
#355=ORIENTED_EDGE('',*,*,#274,.T.);
#356=ORIENTED_EDGE('',*,*,#275,.F.);
#357=ORIENTED_EDGE('',*,*,#271,.F.);
#358=ORIENTED_EDGE('',*,*,#253,.F.);
#359=ORIENTED_EDGE('',*,*,#276,.T.);
#360=ORIENTED_EDGE('',*,*,#277,.F.);
#361=ORIENTED_EDGE('',*,*,#274,.F.);
#362=ORIENTED_EDGE('',*,*,#248,.F.);
#363=ORIENTED_EDGE('',*,*,#278,.T.);
#364=ORIENTED_EDGE('',*,*,#279,.F.);
#365=ORIENTED_EDGE('',*,*,#276,.F.);
#366=ORIENTED_EDGE('',*,*,#250,.F.);
#367=ORIENTED_EDGE('',*,*,#252,.F.);
#368=ORIENTED_EDGE('',*,*,#255,.F.);
#369=ORIENTED_EDGE('',*,*,#258,.F.);
#370=ORIENTED_EDGE('',*,*,#261,.F.);
#371=ORIENTED_EDGE('',*,*,#264,.F.);
#372=ORIENTED_EDGE('',*,*,#267,.F.);
#373=ORIENTED_EDGE('',*,*,#270,.F.);
#374=ORIENTED_EDGE('',*,*,#280,.T.);
#375=ORIENTED_EDGE('',*,*,#281,.T.);
#376=ORIENTED_EDGE('',*,*,#246,.T.);
#377=ORIENTED_EDGE('',*,*,#282,.T.);
#378=ORIENTED_EDGE('',*,*,#283,.T.);
#379=ORIENTED_EDGE('',*,*,#284,.T.);
#380=ORIENTED_EDGE('',*,*,#285,.T.);
#381=ORIENTED_EDGE('',*,*,#286,.T.);
#382=ORIENTED_EDGE('',*,*,#287,.T.);
#383=ORIENTED_EDGE('',*,*,#284,.F.);
#384=ORIENTED_EDGE('',*,*,#288,.T.);
#385=ORIENTED_EDGE('',*,*,#289,.T.);
#386=ORIENTED_EDGE('',*,*,#290,.T.);
#387=ORIENTED_EDGE('',*,*,#286,.F.);
#388=ORIENTED_EDGE('',*,*,#291,.T.);
#389=ORIENTED_EDGE('',*,*,#292,.T.);
#390=ORIENTED_EDGE('',*,*,#293,.T.);
#391=ORIENTED_EDGE('',*,*,#289,.F.);
#392=ORIENTED_EDGE('',*,*,#294,.T.);
#393=ORIENTED_EDGE('',*,*,#295,.T.);
#394=ORIENTED_EDGE('',*,*,#296,.T.);
#395=ORIENTED_EDGE('',*,*,#292,.F.);
#396=ORIENTED_EDGE('',*,*,#272,.T.);
#397=ORIENTED_EDGE('',*,*,#297,.T.);
#398=ORIENTED_EDGE('',*,*,#298,.T.);
#399=ORIENTED_EDGE('',*,*,#295,.F.);
#400=ORIENTED_EDGE('',*,*,#275,.T.);
#401=ORIENTED_EDGE('',*,*,#299,.T.);
#402=ORIENTED_EDGE('',*,*,#300,.T.);
#403=ORIENTED_EDGE('',*,*,#297,.F.);
#404=ORIENTED_EDGE('',*,*,#277,.T.);
#405=ORIENTED_EDGE('',*,*,#282,.F.);
#406=ORIENTED_EDGE('',*,*,#301,.T.);
#407=ORIENTED_EDGE('',*,*,#299,.F.);
#408=ORIENTED_EDGE('',*,*,#279,.T.);
#409=ORIENTED_EDGE('',*,*,#262,.F.);
#410=ORIENTED_EDGE('',*,*,#273,.T.);
#411=ORIENTED_EDGE('',*,*,#294,.F.);
#412=ORIENTED_EDGE('',*,*,#302,.F.);
#413=ORIENTED_EDGE('',*,*,#265,.F.);
#414=ORIENTED_EDGE('',*,*,#302,.T.);
#415=ORIENTED_EDGE('',*,*,#291,.F.);
#416=ORIENTED_EDGE('',*,*,#303,.F.);
#417=ORIENTED_EDGE('',*,*,#268,.F.);
#418=ORIENTED_EDGE('',*,*,#303,.T.);
#419=ORIENTED_EDGE('',*,*,#288,.F.);
#420=ORIENTED_EDGE('',*,*,#304,.F.);
#421=ORIENTED_EDGE('',*,*,#269,.F.);
#422=ORIENTED_EDGE('',*,*,#304,.T.);
#423=ORIENTED_EDGE('',*,*,#283,.F.);
#424=ORIENTED_EDGE('',*,*,#278,.F.);
#425=ORIENTED_EDGE('',*,*,#285,.F.);
#426=ORIENTED_EDGE('',*,*,#287,.F.);
#427=ORIENTED_EDGE('',*,*,#290,.F.);
#428=ORIENTED_EDGE('',*,*,#293,.F.);
#429=ORIENTED_EDGE('',*,*,#296,.F.);
#430=ORIENTED_EDGE('',*,*,#298,.F.);
#431=ORIENTED_EDGE('',*,*,#300,.F.);
#432=ORIENTED_EDGE('',*,*,#301,.F.);
#433=ORIENTED_EDGE('',*,*,#305,.T.);
#434=ORIENTED_EDGE('',*,*,#306,.T.);
#435=ORIENTED_EDGE('',*,*,#305,.F.);
#436=ORIENTED_EDGE('',*,*,#307,.T.);
#437=ORIENTED_EDGE('',*,*,#280,.F.);
#438=ORIENTED_EDGE('',*,*,#307,.F.);
#439=ORIENTED_EDGE('',*,*,#306,.F.);
#440=ORIENTED_EDGE('',*,*,#308,.T.);
#441=ORIENTED_EDGE('',*,*,#281,.F.);
#442=ORIENTED_EDGE('',*,*,#308,.F.);
#443=TOROIDAL_SURFACE('',#497,3.5,1.5);
#444=TOROIDAL_SURFACE('',#504,3.5,0.5);
#445=TOROIDAL_SURFACE('',#511,3.5,0.5);
#446=TOROIDAL_SURFACE('',#517,3.5,0.5);
#447=TOROIDAL_SURFACE('',#523,3.5,0.5);
#448=TOROIDAL_SURFACE('',#540,3.5,0.5);
#449=TOROIDAL_SURFACE('',#546,3.5,0.5);
#450=TOROIDAL_SURFACE('',#552,3.5,0.5);
#451=TOROIDAL_SURFACE('',#557,3.5,0.5);
#452=ADVANCED_FACE('',(#96),#443,.T.);
#453=ADVANCED_FACE('',(#97),#81,.T.);
#454=ADVANCED_FACE('',(#98),#20,.T.);
#455=ADVANCED_FACE('',(#99),#444,.T.);
#456=ADVANCED_FACE('',(#100),#82,.T.);
#457=ADVANCED_FACE('',(#101),#445,.T.);
#458=ADVANCED_FACE('',(#102),#83,.T.);
#459=ADVANCED_FACE('',(#103),#446,.T.);
#460=ADVANCED_FACE('',(#104),#84,.T.);
#461=ADVANCED_FACE('',(#105),#447,.T.);
#462=ADVANCED_FACE('',(#106),#85,.T.);
#463=ADVANCED_FACE('',(#107),#21,.T.);
#464=ADVANCED_FACE('',(#108),#86,.T.);
#465=ADVANCED_FACE('',(#109),#22,.T.);
#466=ADVANCED_FACE('',(#110),#87,.T.);
#467=ADVANCED_FACE('',(#111,#15,#16,#17),#23,.T.);
#468=ADVANCED_FACE('',(#112),#88,.T.);
#469=ADVANCED_FACE('',(#113),#448,.T.);
#470=ADVANCED_FACE('',(#114),#89,.T.);
#471=ADVANCED_FACE('',(#115),#449,.T.);
#472=ADVANCED_FACE('',(#116),#90,.T.);
#473=ADVANCED_FACE('',(#117),#450,.T.);
#474=ADVANCED_FACE('',(#118),#91,.T.);
#475=ADVANCED_FACE('',(#119),#451,.T.);
#476=ADVANCED_FACE('',(#120),#92,.T.);
#477=ADVANCED_FACE('',(#121),#24,.T.);
#478=ADVANCED_FACE('',(#122),#93,.T.);
#479=ADVANCED_FACE('',(#123),#25,.T.);
#480=ADVANCED_FACE('',(#124,#18,#19),#26,.F.);
#481=ADVANCED_FACE('',(#125),#94,.F.);
#482=ADVANCED_FACE('',(#126),#95,.F.);
#483=CLOSED_SHELL('',(#452,#453,#454,#455,#456,#457,#458,#459,#460,#461,
#462,#463,#464,#465,#466,#467,#468,#469,#470,#471,#472,#473,#474,#475,#476,
#477,#478,#479,#480,#481,#482));
#484=DERIVED_UNIT_ELEMENT(#486,1.);
#485=DERIVED_UNIT_ELEMENT(#882,-3.);
#486=(
MASS_UNIT()
NAMED_UNIT(*)
SI_UNIT(.KILO.,.GRAM.)
);
#487=DERIVED_UNIT((#484,#485));
#488=MEASURE_REPRESENTATION_ITEM('density measure',
POSITIVE_RATIO_MEASURE(7850.),#487);
#489=PROPERTY_DEFINITION_REPRESENTATION(#494,#491);
#490=PROPERTY_DEFINITION_REPRESENTATION(#495,#492);
#491=REPRESENTATION('material name',(#493),#879);
#492=REPRESENTATION('density',(#488),#879);
#493=DESCRIPTIVE_REPRESENTATION_ITEM('Acier','Acier');
#494=PROPERTY_DEFINITION('material property','material name',#889);
#495=PROPERTY_DEFINITION('material property','density of part',#889);
#496=AXIS2_PLACEMENT_3D('',#739,#568,#569);
#497=AXIS2_PLACEMENT_3D('',#740,#570,#571);
#498=AXIS2_PLACEMENT_3D('',#742,#572,#573);
#499=AXIS2_PLACEMENT_3D('',#744,#574,#575);
#500=AXIS2_PLACEMENT_3D('',#745,#576,#577);
#501=AXIS2_PLACEMENT_3D('',#746,#578,#579);
#502=AXIS2_PLACEMENT_3D('',#749,#581,#582);
#503=AXIS2_PLACEMENT_3D('',#750,#583,#584);
#504=AXIS2_PLACEMENT_3D('',#751,#585,#586);
#505=AXIS2_PLACEMENT_3D('',#754,#587,#588);
#506=AXIS2_PLACEMENT_3D('',#756,#589,#590);
#507=AXIS2_PLACEMENT_3D('',#758,#591,#592);
#508=AXIS2_PLACEMENT_3D('',#759,#593,#594);
#509=AXIS2_PLACEMENT_3D('',#760,#595,#596);
#510=AXIS2_PLACEMENT_3D('',#763,#597,#598);
#511=AXIS2_PLACEMENT_3D('',#766,#601,#602);
#512=AXIS2_PLACEMENT_3D('',#769,#603,#604);
#513=AXIS2_PLACEMENT_3D('',#770,#605,#606);
#514=AXIS2_PLACEMENT_3D('',#771,#607,#608);
#515=AXIS2_PLACEMENT_3D('',#772,#609,#610);
#516=AXIS2_PLACEMENT_3D('',#775,#611,#612);
#517=AXIS2_PLACEMENT_3D('',#778,#615,#616);
#518=AXIS2_PLACEMENT_3D('',#781,#617,#618);
#519=AXIS2_PLACEMENT_3D('',#782,#619,#620);
#520=AXIS2_PLACEMENT_3D('',#783,#621,#622);
#521=AXIS2_PLACEMENT_3D('',#784,#623,#624);
#522=AXIS2_PLACEMENT_3D('',#787,#625,#626);
#523=AXIS2_PLACEMENT_3D('',#790,#629,#630);
#524=AXIS2_PLACEMENT_3D('',#793,#631,#632);
#525=AXIS2_PLACEMENT_3D('',#794,#633,#634);
#526=AXIS2_PLACEMENT_3D('',#795,#635,#636);
#527=AXIS2_PLACEMENT_3D('',#796,#637,#638);
#528=AXIS2_PLACEMENT_3D('',#799,#641,#642);
#529=AXIS2_PLACEMENT_3D('',#805,#646,#647);
#530=AXIS2_PLACEMENT_3D('',#808,#649,#650);
#531=AXIS2_PLACEMENT_3D('',#809,#651,#652);
#532=AXIS2_PLACEMENT_3D('',#813,#655,#656);
#533=AXIS2_PLACEMENT_3D('',#816,#658,#659);
#534=AXIS2_PLACEMENT_3D('',#817,#660,#661);
#535=AXIS2_PLACEMENT_3D('',#819,#662,#663);
#536=AXIS2_PLACEMENT_3D('',#821,#664,#665);
#537=AXIS2_PLACEMENT_3D('',#822,#666,#667);
#538=AXIS2_PLACEMENT_3D('',#824,#668,#669);
#539=AXIS2_PLACEMENT_3D('',#828,#671,#672);
#540=AXIS2_PLACEMENT_3D('',#830,#674,#675);
#541=AXIS2_PLACEMENT_3D('',#833,#676,#677);
#542=AXIS2_PLACEMENT_3D('',#834,#678,#679);
#543=AXIS2_PLACEMENT_3D('',#835,#680,#681);
#544=AXIS2_PLACEMENT_3D('',#836,#682,#683);
#545=AXIS2_PLACEMENT_3D('',#839,#684,#685);
#546=AXIS2_PLACEMENT_3D('',#842,#688,#689);
#547=AXIS2_PLACEMENT_3D('',#844,#690,#691);
#548=AXIS2_PLACEMENT_3D('',#845,#692,#693);
#549=AXIS2_PLACEMENT_3D('',#846,#694,#695);
#550=AXIS2_PLACEMENT_3D('',#847,#696,#697);
#551=AXIS2_PLACEMENT_3D('',#849,#698,#699);
#552=AXIS2_PLACEMENT_3D('',#851,#701,#702);
#553=AXIS2_PLACEMENT_3D('',#853,#703,#704);
#554=AXIS2_PLACEMENT_3D('',#854,#705,#706);
#555=AXIS2_PLACEMENT_3D('',#855,#707,#708);
#556=AXIS2_PLACEMENT_3D('',#857,#709,#710);
#557=AXIS2_PLACEMENT_3D('',#859,#712,#713);
#558=AXIS2_PLACEMENT_3D('',#860,#714,#715);
#559=AXIS2_PLACEMENT_3D('',#861,#716,#717);
#560=AXIS2_PLACEMENT_3D('',#863,#719,#720);
#561=AXIS2_PLACEMENT_3D('',#865,#722,#723);
#562=AXIS2_PLACEMENT_3D('',#867,#725,#726);
#563=AXIS2_PLACEMENT_3D('',#868,#727,#728);
#564=AXIS2_PLACEMENT_3D('',#870,#729,#730);
#565=AXIS2_PLACEMENT_3D('',#872,#731,#732);
#566=AXIS2_PLACEMENT_3D('',#873,#733,#734);
#567=AXIS2_PLACEMENT_3D('',#875,#736,#737);
#568=DIRECTION('axis',(0.,0.,1.));
#569=DIRECTION('refdir',(1.,0.,0.));
#570=DIRECTION('center_axis',(0.,0.,1.));
#571=DIRECTION('ref_axis',(1.,0.,0.));
#572=DIRECTION('center_axis',(0.,0.,-1.));
#573=DIRECTION('ref_axis',(1.,0.,0.));
#574=DIRECTION('center_axis',(2.22044604925031E-16,-1.,0.));
#575=DIRECTION('ref_axis',(-1.,-2.22044604925031E-16,0.));
#576=DIRECTION('center_axis',(0.,0.,1.));
#577=DIRECTION('ref_axis',(1.,0.,0.));
#578=DIRECTION('center_axis',(0.,0.,1.));
#579=DIRECTION('ref_axis',(1.,0.,0.));
#580=DIRECTION('',(0.,0.,-1.));
#581=DIRECTION('center_axis',(0.,0.,-1.));
#582=DIRECTION('ref_axis',(1.,0.,0.));
#583=DIRECTION('center_axis',(0.,0.,1.));
#584=DIRECTION('ref_axis',(1.,0.,0.));
#585=DIRECTION('center_axis',(0.,0.,1.));
#586=DIRECTION('ref_axis',(1.,0.,0.));
#587=DIRECTION('center_axis',(1.,0.,0.));
#588=DIRECTION('ref_axis',(0.,0.,1.));
#589=DIRECTION('center_axis',(0.,0.,1.));
#590=DIRECTION('ref_axis',(0.707106781186548,-0.707106781186547,0.));
#591=DIRECTION('center_axis',(0.,-1.,0.));
#592=DIRECTION('ref_axis',(1.,0.,0.));
#593=DIRECTION('center_axis',(0.,0.,-1.));
#594=DIRECTION('ref_axis',(0.707106781186548,-0.707106781186547,0.));
#595=DIRECTION('center_axis',(0.,-1.,0.));
#596=DIRECTION('ref_axis',(0.707106781186549,0.,0.707106781186546));
#597=DIRECTION('center_axis',(0.,-1.,0.));
#598=DIRECTION('ref_axis',(1.,0.,0.));
#599=DIRECTION('',(0.,-1.,0.));
#600=DIRECTION('',(0.,1.,0.));
#601=DIRECTION('center_axis',(0.,0.,1.));
#602=DIRECTION('ref_axis',(1.,0.,0.));
#603=DIRECTION('center_axis',(1.,0.,0.));
#604=DIRECTION('ref_axis',(0.,1.,0.));
#605=DIRECTION('center_axis',(0.,0.,-1.));
#606=DIRECTION('ref_axis',(0.707106781186547,0.707106781186548,0.));
#607=DIRECTION('center_axis',(0.,0.,1.));
#608=DIRECTION('ref_axis',(0.707106781186547,0.707106781186548,0.));
#609=DIRECTION('center_axis',(1.,1.38777878078145E-16,0.));
#610=DIRECTION('ref_axis',(0.,0.707106781186549,0.707106781186546));
#611=DIRECTION('center_axis',(1.,0.,0.));
#612=DIRECTION('ref_axis',(0.,1.,0.));
#613=DIRECTION('',(1.,1.38777878078145E-16,0.));
#614=DIRECTION('',(-1.,-1.38777878078145E-16,0.));
#615=DIRECTION('center_axis',(0.,0.,1.));
#616=DIRECTION('ref_axis',(1.,0.,0.));
#617=DIRECTION('center_axis',(0.,1.,0.));
#618=DIRECTION('ref_axis',(-1.,0.,0.));
#619=DIRECTION('center_axis',(0.,0.,-1.));
#620=DIRECTION('ref_axis',(-0.707106781186547,0.707106781186548,0.));
#621=DIRECTION('center_axis',(0.,0.,1.));
#622=DIRECTION('ref_axis',(-0.707106781186547,0.707106781186548,0.));
#623=DIRECTION('center_axis',(1.85037170770859E-16,1.,0.));
#624=DIRECTION('ref_axis',(-0.707106781186546,0.,0.707106781186549));
#625=DIRECTION('center_axis',(0.,1.,0.));
#626=DIRECTION('ref_axis',(-1.,0.,0.));
#627=DIRECTION('',(1.85037170770859E-16,1.,0.));
#628=DIRECTION('',(-1.85037170770859E-16,-1.,0.));
#629=DIRECTION('center_axis',(0.,0.,1.));
#630=DIRECTION('ref_axis',(1.,0.,0.));
#631=DIRECTION('center_axis',(-1.,0.,0.));
#632=DIRECTION('ref_axis',(0.,-1.,0.));
#633=DIRECTION('center_axis',(0.,0.,-1.));
#634=DIRECTION('ref_axis',(-0.707106781186547,-0.707106781186548,0.));
#635=DIRECTION('center_axis',(0.,0.,1.));
#636=DIRECTION('ref_axis',(-0.707106781186547,-0.707106781186548,0.));
#637=DIRECTION('center_axis',(-1.,0.,0.));
#638=DIRECTION('ref_axis',(0.,-0.707106781186549,0.707106781186546));
#639=DIRECTION('',(1.,0.,0.));
#640=DIRECTION('',(-1.,0.,0.));
#641=DIRECTION('center_axis',(-1.38777878078145E-16,1.,0.));
#642=DIRECTION('ref_axis',(1.,1.38777878078145E-16,0.));
#643=DIRECTION('',(0.,0.,-1.));
#644=DIRECTION('',(1.,1.38777878078145E-16,0.));
#645=DIRECTION('',(0.,0.,-1.));
#646=DIRECTION('center_axis',(0.,0.,-1.));
#647=DIRECTION('ref_axis',(1.,0.,0.));
#648=DIRECTION('',(0.,0.,-1.));
#649=DIRECTION('center_axis',(0.,0.,-1.));
#650=DIRECTION('ref_axis',(0.707106781186547,0.707106781186548,0.));
#651=DIRECTION('center_axis',(1.,0.,0.));
#652=DIRECTION('ref_axis',(0.,-1.,0.));
#653=DIRECTION('',(0.,0.,-1.));
#654=DIRECTION('',(0.,-1.,0.));
#655=DIRECTION('center_axis',(0.,0.,-1.));
#656=DIRECTION('ref_axis',(0.,-1.,0.));
#657=DIRECTION('',(0.,0.,-1.));
#658=DIRECTION('center_axis',(0.,0.,-1.));
#659=DIRECTION('ref_axis',(0.707106781186548,-0.707106781186547,0.));
#660=DIRECTION('center_axis',(0.,0.,1.));
#661=DIRECTION('ref_axis',(1.,0.,0.));
#662=DIRECTION('center_axis',(0.,0.,-1.));
#663=DIRECTION('ref_axis',(1.,0.,0.));
#664=DIRECTION('center_axis',(0.,0.,-1.));
#665=DIRECTION('ref_axis',(1.,0.,0.));
#666=DIRECTION('center_axis',(-1.,0.,0.));
#667=DIRECTION('ref_axis',(0.,-0.707106781186549,-0.707106781186546));
#668=DIRECTION('center_axis',(-1.,0.,0.));
#669=DIRECTION('ref_axis',(0.,0.,-1.));
#670=DIRECTION('',(-1.,0.,0.));
#671=DIRECTION('center_axis',(1.,2.22044604925031E-15,0.));
#672=DIRECTION('ref_axis',(2.22044604925031E-15,-1.,0.));
#673=DIRECTION('',(1.,0.,0.));
#674=DIRECTION('center_axis',(0.,0.,-1.));
#675=DIRECTION('ref_axis',(-1.,0.,0.));
#676=DIRECTION('center_axis',(0.,-1.,0.));
#677=DIRECTION('ref_axis',(-1.,0.,0.));
#678=DIRECTION('center_axis',(0.,0.,1.));
#679=DIRECTION('ref_axis',(-0.707106781186547,-0.707106781186548,0.));
#680=DIRECTION('center_axis',(0.,0.,-1.));
#681=DIRECTION('ref_axis',(-0.707106781186547,-0.707106781186548,0.));
#682=DIRECTION('center_axis',(1.85037170770859E-16,1.,0.));
#683=DIRECTION('ref_axis',(-0.707106781186546,0.,-0.707106781186549));
#684=DIRECTION('center_axis',(0.,-1.,0.));
#685=DIRECTION('ref_axis',(-1.,0.,0.));
#686=DIRECTION('',(-1.85037170770859E-16,-1.,0.));
#687=DIRECTION('',(1.85037170770859E-16,1.,0.));
#688=DIRECTION('center_axis',(0.,0.,-1.));
#689=DIRECTION('ref_axis',(-1.,0.,0.));
#690=DIRECTION('center_axis',(-1.,0.,0.));
#691=DIRECTION('ref_axis',(0.,1.,0.));
#692=DIRECTION('center_axis',(0.,0.,1.));
#693=DIRECTION('ref_axis',(-0.707106781186547,0.707106781186548,0.));
#694=DIRECTION('center_axis',(0.,0.,-1.));
#695=DIRECTION('ref_axis',(-0.707106781186547,0.707106781186548,0.));
#696=DIRECTION('center_axis',(1.,1.38777878078145E-16,0.));
#697=DIRECTION('ref_axis',(0.,0.707106781186549,-0.707106781186546));
#698=DIRECTION('center_axis',(-1.,-2.22044604925032E-15,0.));
#699=DIRECTION('ref_axis',(-2.22044604925032E-15,1.,0.));
#700=DIRECTION('',(-1.,-1.38777878078145E-16,0.));
#701=DIRECTION('center_axis',(0.,0.,-1.));
#702=DIRECTION('ref_axis',(-1.,0.,0.));
#703=DIRECTION('center_axis',(0.,1.,0.));
#704=DIRECTION('ref_axis',(1.,0.,0.));
#705=DIRECTION('center_axis',(0.,0.,1.));
#706=DIRECTION('ref_axis',(0.707106781186547,0.707106781186548,0.));
#707=DIRECTION('center_axis',(0.,-1.,0.));
#708=DIRECTION('ref_axis',(0.707106781186549,0.,-0.707106781186546));
#709=DIRECTION('center_axis',(0.,1.,0.));
#710=DIRECTION('ref_axis',(1.,0.,0.));
#711=DIRECTION('',(0.,1.,0.));
#712=DIRECTION('center_axis',(0.,0.,-1.));
#713=DIRECTION('ref_axis',(-1.,0.,0.));
#714=DIRECTION('center_axis',(0.,0.,1.));
#715=DIRECTION('ref_axis',(0.707106781186548,-0.707106781186547,0.));
#716=DIRECTION('center_axis',(0.,0.,-1.));
#717=DIRECTION('ref_axis',(5.55111512312578E-16,1.,0.));
#718=DIRECTION('',(0.,0.,-1.));
#719=DIRECTION('center_axis',(-1.,1.85037170770859E-16,0.));
#720=DIRECTION('ref_axis',(1.85037170770859E-16,1.,0.));
#721=DIRECTION('',(0.,0.,-1.));
#722=DIRECTION('center_axis',(0.,0.,-1.));
#723=DIRECTION('ref_axis',(-1.,0.,0.));
#724=DIRECTION('',(0.,0.,-1.));
#725=DIRECTION('center_axis',(0.,-1.,0.));
#726=DIRECTION('ref_axis',(-1.,0.,0.));
#727=DIRECTION('center_axis',(0.,0.,1.));
#728=DIRECTION('ref_axis',(1.,0.,0.));
#729=DIRECTION('center_axis',(0.,0.,1.));
#730=DIRECTION('ref_axis',(1.,0.,0.));
#731=DIRECTION('center_axis',(0.,0.,1.));
#732=DIRECTION('ref_axis',(1.,0.,0.));
#733=DIRECTION('center_axis',(0.,0.,-1.));
#734=DIRECTION('ref_axis',(1.,0.,0.));
#735=DIRECTION('',(0.,0.,1.));
#736=DIRECTION('center_axis',(0.,0.,-1.));
#737=DIRECTION('ref_axis',(1.,0.,0.));
#738=DIRECTION('',(0.,0.,1.));
#739=CARTESIAN_POINT('',(0.,0.,0.));
#740=CARTESIAN_POINT('Origin',(0.,8.00000000000001,23.9));
#741=CARTESIAN_POINT('',(-3.5,8.00000000000001,25.4));
#742=CARTESIAN_POINT('Origin',(0.,8.00000000000001,25.4));
#743=CARTESIAN_POINT('',(-5.,8.00000000000001,23.9));
#744=CARTESIAN_POINT('Origin',(-3.5,8.00000000000001,23.9));
#745=CARTESIAN_POINT('Origin',(0.,8.00000000000001,23.9));
#746=CARTESIAN_POINT('Origin',(0.,8.00000000000001,0.));
#747=CARTESIAN_POINT('',(-5.,8.00000000000001,0.));
#748=CARTESIAN_POINT('',(-5.,8.00000000000001,0.));
#749=CARTESIAN_POINT('Origin',(0.,8.00000000000001,0.));
#750=CARTESIAN_POINT('Origin',(0.,8.00000000000001,25.4));
#751=CARTESIAN_POINT('Origin',(8.00000000000001,-12.,-0.5));
#752=CARTESIAN_POINT('',(8.00000000000001,-15.5,0.));
#753=CARTESIAN_POINT('',(8.00000000000001,-16.,-0.5));
#754=CARTESIAN_POINT('Origin',(8.00000000000001,-15.5,-0.5));
#755=CARTESIAN_POINT('',(12.,-12.,-0.5));
#756=CARTESIAN_POINT('Origin',(8.00000000000001,-12.,-0.5));
#757=CARTESIAN_POINT('',(11.5,-12.,0.));
#758=CARTESIAN_POINT('Origin',(11.5,-12.,-0.5));
#759=CARTESIAN_POINT('Origin',(8.00000000000001,-12.,0.));
#760=CARTESIAN_POINT('Origin',(11.5,6.00000000000001,-0.5));
#761=CARTESIAN_POINT('',(12.,12.,-0.5));
#762=CARTESIAN_POINT('',(11.5,12.,0.));
#763=CARTESIAN_POINT('Origin',(11.5,12.,-0.5));
#764=CARTESIAN_POINT('',(11.5,6.00000000000001,0.));
#765=CARTESIAN_POINT('',(12.,6.00000000000001,-0.5));
#766=CARTESIAN_POINT('Origin',(8.00000000000001,12.,-0.5));
#767=CARTESIAN_POINT('',(8.00000000000001,16.,-0.5));
#768=CARTESIAN_POINT('',(8.00000000000001,15.5,0.));
#769=CARTESIAN_POINT('Origin',(8.00000000000001,15.5,-0.5));
#770=CARTESIAN_POINT('Origin',(8.00000000000001,12.,0.));
#771=CARTESIAN_POINT('Origin',(8.00000000000001,12.,-0.5));
#772=CARTESIAN_POINT('Origin',(-3.99999999999999,15.5,-0.5));
#773=CARTESIAN_POINT('',(-7.99999999999999,16.,-0.5));
#774=CARTESIAN_POINT('',(-7.99999999999999,15.5,0.));
#775=CARTESIAN_POINT('Origin',(-7.99999999999999,15.5,-0.5));
#776=CARTESIAN_POINT('',(-3.99999999999999,15.5,0.));
#777=CARTESIAN_POINT('',(-3.99999999999999,16.,-0.5));
#778=CARTESIAN_POINT('Origin',(-7.99999999999999,12.,-0.5));
#779=CARTESIAN_POINT('',(-12.,12.,-0.5));
#780=CARTESIAN_POINT('',(-11.5,12.,0.));
#781=CARTESIAN_POINT('Origin',(-11.5,12.,-0.5));
#782=CARTESIAN_POINT('Origin',(-7.99999999999999,12.,0.));
#783=CARTESIAN_POINT('Origin',(-7.99999999999999,12.,-0.5));
#784=CARTESIAN_POINT('Origin',(-11.5,-5.99999999999999,-0.5));
#785=CARTESIAN_POINT('',(-12.,-12.,-0.5));
#786=CARTESIAN_POINT('',(-11.5,-12.,0.));
#787=CARTESIAN_POINT('Origin',(-11.5,-12.,-0.5));
#788=CARTESIAN_POINT('',(-11.5,-5.99999999999999,0.));
#789=CARTESIAN_POINT('',(-12.,-5.99999999999999,-0.5));
#790=CARTESIAN_POINT('Origin',(-7.99999999999999,-12.,-0.5));
#791=CARTESIAN_POINT('',(-7.99999999999999,-16.,-0.5));
#792=CARTESIAN_POINT('',(-7.99999999999999,-15.5,0.));
#793=CARTESIAN_POINT('Origin',(-7.99999999999999,-15.5,-0.5));
#794=CARTESIAN_POINT('Origin',(-7.99999999999999,-12.,0.));
#795=CARTESIAN_POINT('Origin',(-7.99999999999999,-12.,-0.5));
#796=CARTESIAN_POINT('Origin',(4.00000000000001,-15.5,-0.5));
#797=CARTESIAN_POINT('',(4.00000000000001,-16.,-0.5));
#798=CARTESIAN_POINT('',(4.00000000000001,-15.5,0.));
#799=CARTESIAN_POINT('Origin',(-7.99999999999999,16.,0.));
#800=CARTESIAN_POINT('',(8.00000000000001,16.,-7.5));
#801=CARTESIAN_POINT('',(8.00000000000001,16.,0.));
#802=CARTESIAN_POINT('',(-7.99999999999999,16.,-7.5));
#803=CARTESIAN_POINT('',(-3.99999999999999,16.,-7.5));
#804=CARTESIAN_POINT('',(-7.99999999999999,16.,0.));
#805=CARTESIAN_POINT('Origin',(8.00000000000001,12.,0.));
#806=CARTESIAN_POINT('',(12.,12.,-7.5));
#807=CARTESIAN_POINT('',(12.,12.,0.));
#808=CARTESIAN_POINT('Origin',(8.00000000000001,12.,-7.5));
#809=CARTESIAN_POINT('Origin',(12.,12.,0.));
#810=CARTESIAN_POINT('',(12.,-12.,-7.5));
#811=CARTESIAN_POINT('',(12.,-12.,0.));
#812=CARTESIAN_POINT('',(12.,6.00000000000001,-7.5));
#813=CARTESIAN_POINT('Origin',(8.00000000000001,-12.,0.));
#814=CARTESIAN_POINT('',(8.00000000000001,-16.,-7.5));
#815=CARTESIAN_POINT('',(8.00000000000001,-16.,0.));
#816=CARTESIAN_POINT('Origin',(8.00000000000001,-12.,-7.5));
#817=CARTESIAN_POINT('Origin',(1.11022302462516E-14,8.88178419700125E-15,
0.));
#818=CARTESIAN_POINT('',(5.57500011920929,-3.99999999999999,0.));
#819=CARTESIAN_POINT('Origin',(8.00000011920929,-3.99999999999999,0.));
#820=CARTESIAN_POINT('',(-10.4250001192093,-3.99999999999999,0.));
#821=CARTESIAN_POINT('Origin',(-8.00000011920929,-3.99999999999999,0.));
#822=CARTESIAN_POINT('Origin',(4.00000000000001,-15.5,-7.5));
#823=CARTESIAN_POINT('',(8.00000000000001,-15.5,-8.));
#824=CARTESIAN_POINT('Origin',(8.00000000000001,-15.5,-7.5));
#825=CARTESIAN_POINT('',(-7.99999999999999,-16.,-7.5));
#826=CARTESIAN_POINT('',(4.00000000000001,-16.,-7.5));
#827=CARTESIAN_POINT('',(-8.,-15.5,-8.));
#828=CARTESIAN_POINT('Origin',(-8.,-15.5,-7.5));
#829=CARTESIAN_POINT('',(4.00000000000001,-15.5,-8.));
#830=CARTESIAN_POINT('Origin',(-7.99999999999999,-12.,-7.5));
#831=CARTESIAN_POINT('',(-12.,-12.,-7.5));
#832=CARTESIAN_POINT('',(-11.5,-12.,-8.));
#833=CARTESIAN_POINT('Origin',(-11.5,-12.,-7.5));
#834=CARTESIAN_POINT('Origin',(-7.99999999999999,-12.,-8.));
#835=CARTESIAN_POINT('Origin',(-7.99999999999999,-12.,-7.5));
#836=CARTESIAN_POINT('Origin',(-11.5,-5.99999999999999,-7.5));
#837=CARTESIAN_POINT('',(-12.,12.,-7.5));
#838=CARTESIAN_POINT('',(-11.5,12.,-8.));
#839=CARTESIAN_POINT('Origin',(-11.5,12.,-7.5));
#840=CARTESIAN_POINT('',(-11.5,-5.99999999999999,-8.));
#841=CARTESIAN_POINT('',(-12.,-5.99999999999999,-7.5));
#842=CARTESIAN_POINT('Origin',(-7.99999999999999,12.,-7.5));
#843=CARTESIAN_POINT('',(-7.99999999999999,15.5,-8.));
#844=CARTESIAN_POINT('Origin',(-7.99999999999999,15.5,-7.5));
#845=CARTESIAN_POINT('Origin',(-7.99999999999999,12.,-8.));
#846=CARTESIAN_POINT('Origin',(-7.99999999999999,12.,-7.5));
#847=CARTESIAN_POINT('Origin',(-3.99999999999999,15.5,-7.5));
#848=CARTESIAN_POINT('',(8.00000000000002,15.5,-8.));
#849=CARTESIAN_POINT('Origin',(8.00000000000002,15.5,-7.5));
#850=CARTESIAN_POINT('',(-3.99999999999999,15.5,-8.));
#851=CARTESIAN_POINT('Origin',(8.00000000000001,12.,-7.5));
#852=CARTESIAN_POINT('',(11.5,12.,-8.));
#853=CARTESIAN_POINT('Origin',(11.5,12.,-7.5));
#854=CARTESIAN_POINT('Origin',(8.00000000000001,12.,-8.));
#855=CARTESIAN_POINT('Origin',(11.5,6.00000000000001,-7.5));
#856=CARTESIAN_POINT('',(11.5,-12.,-8.));
#857=CARTESIAN_POINT('Origin',(11.5,-12.,-7.5));
#858=CARTESIAN_POINT('',(11.5,6.00000000000001,-8.));
#859=CARTESIAN_POINT('Origin',(8.00000000000001,-12.,-7.5));
#860=CARTESIAN_POINT('Origin',(8.00000000000001,-12.,-8.));
#861=CARTESIAN_POINT('Origin',(-7.99999999999999,12.,0.));
#862=CARTESIAN_POINT('',(-12.,12.,0.));
#863=CARTESIAN_POINT('Origin',(-12.,-12.,0.));
#864=CARTESIAN_POINT('',(-12.,-12.,0.));
#865=CARTESIAN_POINT('Origin',(-7.99999999999999,-12.,0.));
#866=CARTESIAN_POINT('',(-7.99999999999999,-16.,0.));
#867=CARTESIAN_POINT('Origin',(8.00000000000001,-16.,0.));
#868=CARTESIAN_POINT('Origin',(1.11022302462516E-14,8.88178419700125E-15,
-8.));
#869=CARTESIAN_POINT('',(5.57500011920929,-3.99999999999999,-8.));
#870=CARTESIAN_POINT('Origin',(8.00000011920929,-3.99999999999999,-8.));
#871=CARTESIAN_POINT('',(-10.4250001192093,-3.99999999999999,-8.));
#872=CARTESIAN_POINT('Origin',(-8.00000011920929,-3.99999999999999,-8.));
#873=CARTESIAN_POINT('Origin',(8.00000011920929,-3.99999999999999,0.));
#874=CARTESIAN_POINT('',(5.57500011920929,-3.99999999999999,0.));
#875=CARTESIAN_POINT('Origin',(-8.00000011920929,-3.99999999999999,0.));
#876=CARTESIAN_POINT('',(-10.4250001192093,-3.99999999999999,0.));
#877=UNCERTAINTY_MEASURE_WITH_UNIT(LENGTH_MEASURE(0.01),#881,
'DISTANCE_ACCURACY_VALUE',
'Maximum model space distance between geometric entities at asserted c
onnectivities');
#878=UNCERTAINTY_MEASURE_WITH_UNIT(LENGTH_MEASURE(0.01),#881,
'DISTANCE_ACCURACY_VALUE',
'Maximum model space distance between geometric entities at asserted c
onnectivities');
#879=(
GEOMETRIC_REPRESENTATION_CONTEXT(3)
GLOBAL_UNCERTAINTY_ASSIGNED_CONTEXT((#877))
GLOBAL_UNIT_ASSIGNED_CONTEXT((#881,#883,#884))
REPRESENTATION_CONTEXT('','3D')
);
#880=(
GEOMETRIC_REPRESENTATION_CONTEXT(3)
GLOBAL_UNCERTAINTY_ASSIGNED_CONTEXT((#878))
GLOBAL_UNIT_ASSIGNED_CONTEXT((#881,#883,#884))
REPRESENTATION_CONTEXT('','3D')
);
#881=(
LENGTH_UNIT()
NAMED_UNIT(*)
SI_UNIT(.MILLI.,.METRE.)
);
#882=(
LENGTH_UNIT()
NAMED_UNIT(*)
SI_UNIT($,.METRE.)
);
#883=(
NAMED_UNIT(*)
PLANE_ANGLE_UNIT()
SI_UNIT($,.RADIAN.)
);
#884=(
NAMED_UNIT(*)
SI_UNIT($,.STERADIAN.)
SOLID_ANGLE_UNIT()
);
#885=SHAPE_DEFINITION_REPRESENTATION(#886,#887);
#886=PRODUCT_DEFINITION_SHAPE('',$,#889);
#887=SHAPE_REPRESENTATION('',(#496),#879);
#888=PRODUCT_DEFINITION_CONTEXT('part definition',#893,'design');
#889=PRODUCT_DEFINITION('ROT_ENCODER','ROT_ENCODER v3',#890,#888);
#890=PRODUCT_DEFINITION_FORMATION('',$,#895);
#891=PRODUCT_RELATED_PRODUCT_CATEGORY('ROT_ENCODER v3','ROT_ENCODER v3',
(#895));
#892=APPLICATION_PROTOCOL_DEFINITION('international standard',
'automotive_design',2009,#893);
#893=APPLICATION_CONTEXT(
'Core Data for Automotive Mechanical Design Process');
#894=PRODUCT_CONTEXT('part definition',#893,'mechanical');
#895=PRODUCT('ROT_ENCODER','ROT_ENCODER v3',$,(#894));
#896=PRESENTATION_STYLE_ASSIGNMENT((#897));
#897=SURFACE_STYLE_USAGE(.BOTH.,#898);
#898=SURFACE_SIDE_STYLE('',(#899));
#899=SURFACE_STYLE_FILL_AREA(#900);
#900=FILL_AREA_STYLE('Acier - Satin\X\E9',(#901));
#901=FILL_AREA_STYLE_COLOUR('Acier - Satin\X\E9',#902);
#902=COLOUR_RGB('Acier - Satin\X\E9',0.627450980392157,0.627450980392157,
0.627450980392157);
ENDSEC;
END-ISO-10303-21;
