ISO-10303-21;
HEADER;
/* Generated by software containing ST-Developer
 * from STEP Tools, Inc. (www.steptools.com) 
 */

FILE_DESCRIPTION(
/* description */ (''),
/* implementation_level */ '2;1');

FILE_NAME(
/* name */ 'TRANSFO.step',
/* time_stamp */ '2026-08-10T14:31:14+02:00',
/* author */ (''),
/* organization */ (''),
/* preprocessor_version */ 'ST-DEVELOPER v20.1',
/* originating_system */ 'Autodesk Translation Framework v15.8.0.0',
/* authorisation */ '');

FILE_SCHEMA (('AUTOMOTIVE_DESIGN { 1 0 10303 214 3 1 1 }'));
ENDSEC;

DATA;
#10=MECHANICAL_DESIGN_GEOMETRIC_PRESENTATION_REPRESENTATION('',(#20,#21,
#22,#23,#24,#25,#26,#27),#1590);
#11=SHAPE_REPRESENTATION_RELATIONSHIP('SRR','None',#1597,#12);
#12=ADVANCED_BREP_SHAPE_REPRESENTATION('',(#13),#1589);
#13=MANIFOLD_SOLID_BREP('Corps1',#986);
#14=CYLINDRICAL_SURFACE('',#1041,17.);
#15=CYLINDRICAL_SURFACE('',#1043,4.05);
#16=CYLINDRICAL_SURFACE('',#1046,4.05);
#17=CYLINDRICAL_SURFACE('',#1049,1.8);
#18=CYLINDRICAL_SURFACE('',#1052,1.8);
#19=CYLINDRICAL_SURFACE('',#1060,17.);
#20=STYLED_ITEM('',(#1608),#961);
#21=STYLED_ITEM('',(#1608),#963);
#22=STYLED_ITEM('',(#1608),#964);
#23=STYLED_ITEM('',(#1608),#965);
#24=STYLED_ITEM('',(#1608),#968);
#25=STYLED_ITEM('',(#1608),#969);
#26=STYLED_ITEM('',(#1608),#970);
#27=STYLED_ITEM('',(#1607),#13);
#28=FACE_BOUND('',#107,.T.);
#29=FACE_BOUND('',#108,.T.);
#30=FACE_BOUND('',#132,.T.);
#31=FACE_BOUND('',#133,.T.);
#32=FACE_BOUND('',#134,.T.);
#33=FACE_BOUND('',#135,.T.);
#34=FACE_BOUND('',#154,.T.);
#35=FACE_BOUND('',#155,.T.);
#36=FACE_BOUND('',#158,.T.);
#37=FACE_BOUND('',#159,.T.);
#38=CIRCLE('',#1005,4.05);
#39=CIRCLE('',#1006,4.05);
#40=CIRCLE('',#1008,17.);
#41=CIRCLE('',#1009,17.);
#42=CIRCLE('',#1042,17.);
#43=CIRCLE('',#1044,4.05);
#44=CIRCLE('',#1047,4.05);
#45=CIRCLE('',#1050,1.8);
#46=CIRCLE('',#1051,1.8);
#47=CIRCLE('',#1053,1.8);
#48=CIRCLE('',#1054,1.8);
#49=CIRCLE('',#1061,17.);
#50=FACE_OUTER_BOUND('',#102,.T.);
#51=FACE_OUTER_BOUND('',#103,.T.);
#52=FACE_OUTER_BOUND('',#104,.T.);
#53=FACE_OUTER_BOUND('',#105,.T.);
#54=FACE_OUTER_BOUND('',#106,.T.);
#55=FACE_OUTER_BOUND('',#109,.T.);
#56=FACE_OUTER_BOUND('',#110,.T.);
#57=FACE_OUTER_BOUND('',#111,.T.);
#58=FACE_OUTER_BOUND('',#112,.T.);
#59=FACE_OUTER_BOUND('',#113,.T.);
#60=FACE_OUTER_BOUND('',#114,.T.);
#61=FACE_OUTER_BOUND('',#115,.T.);
#62=FACE_OUTER_BOUND('',#116,.T.);
#63=FACE_OUTER_BOUND('',#117,.T.);
#64=FACE_OUTER_BOUND('',#118,.T.);
#65=FACE_OUTER_BOUND('',#119,.T.);
#66=FACE_OUTER_BOUND('',#120,.T.);
#67=FACE_OUTER_BOUND('',#121,.T.);
#68=FACE_OUTER_BOUND('',#122,.T.);
#69=FACE_OUTER_BOUND('',#123,.T.);
#70=FACE_OUTER_BOUND('',#124,.T.);
#71=FACE_OUTER_BOUND('',#125,.T.);
#72=FACE_OUTER_BOUND('',#126,.T.);
#73=FACE_OUTER_BOUND('',#127,.T.);
#74=FACE_OUTER_BOUND('',#128,.T.);
#75=FACE_OUTER_BOUND('',#129,.T.);
#76=FACE_OUTER_BOUND('',#130,.T.);
#77=FACE_OUTER_BOUND('',#131,.T.);
#78=FACE_OUTER_BOUND('',#136,.T.);
#79=FACE_OUTER_BOUND('',#137,.T.);
#80=FACE_OUTER_BOUND('',#138,.T.);
#81=FACE_OUTER_BOUND('',#139,.T.);
#82=FACE_OUTER_BOUND('',#140,.T.);
#83=FACE_OUTER_BOUND('',#141,.T.);
#84=FACE_OUTER_BOUND('',#142,.T.);
#85=FACE_OUTER_BOUND('',#143,.T.);
#86=FACE_OUTER_BOUND('',#144,.T.);
#87=FACE_OUTER_BOUND('',#145,.T.);
#88=FACE_OUTER_BOUND('',#146,.T.);
#89=FACE_OUTER_BOUND('',#147,.T.);
#90=FACE_OUTER_BOUND('',#148,.T.);
#91=FACE_OUTER_BOUND('',#149,.T.);
#92=FACE_OUTER_BOUND('',#150,.T.);
#93=FACE_OUTER_BOUND('',#151,.T.);
#94=FACE_OUTER_BOUND('',#152,.T.);
#95=FACE_OUTER_BOUND('',#153,.T.);
#96=FACE_OUTER_BOUND('',#156,.T.);
#97=FACE_OUTER_BOUND('',#157,.T.);
#98=FACE_OUTER_BOUND('',#160,.T.);
#99=FACE_OUTER_BOUND('',#161,.T.);
#100=FACE_OUTER_BOUND('',#162,.T.);
#101=FACE_OUTER_BOUND('',#163,.T.);
#102=EDGE_LOOP('',(#624,#625,#626,#627));
#103=EDGE_LOOP('',(#628,#629,#630,#631));
#104=EDGE_LOOP('',(#632,#633,#634,#635));
#105=EDGE_LOOP('',(#636,#637,#638,#639));
#106=EDGE_LOOP('',(#640,#641,#642,#643,#644,#645,#646,#647));
#107=EDGE_LOOP('',(#648));
#108=EDGE_LOOP('',(#649));
#109=EDGE_LOOP('',(#650,#651,#652,#653,#654,#655,#656,#657,#658,#659,#660,
#661));
#110=EDGE_LOOP('',(#662,#663,#664,#665));
#111=EDGE_LOOP('',(#666,#667,#668,#669));
#112=EDGE_LOOP('',(#670,#671,#672,#673));
#113=EDGE_LOOP('',(#674,#675,#676,#677));
#114=EDGE_LOOP('',(#678,#679,#680,#681));
#115=EDGE_LOOP('',(#682,#683,#684,#685));
#116=EDGE_LOOP('',(#686,#687,#688,#689));
#117=EDGE_LOOP('',(#690,#691,#692,#693));
#118=EDGE_LOOP('',(#694,#695,#696,#697));
#119=EDGE_LOOP('',(#698,#699,#700,#701));
#120=EDGE_LOOP('',(#702,#703,#704,#705));
#121=EDGE_LOOP('',(#706,#707,#708,#709));
#122=EDGE_LOOP('',(#710,#711,#712,#713));
#123=EDGE_LOOP('',(#714,#715,#716,#717));
#124=EDGE_LOOP('',(#718,#719,#720,#721));
#125=EDGE_LOOP('',(#722,#723,#724,#725));
#126=EDGE_LOOP('',(#726,#727,#728,#729));
#127=EDGE_LOOP('',(#730,#731,#732,#733));
#128=EDGE_LOOP('',(#734,#735,#736,#737));
#129=EDGE_LOOP('',(#738,#739,#740,#741));
#130=EDGE_LOOP('',(#742,#743,#744,#745));
#131=EDGE_LOOP('',(#746,#747,#748,#749));
#132=EDGE_LOOP('',(#750,#751,#752,#753));
#133=EDGE_LOOP('',(#754,#755,#756,#757));
#134=EDGE_LOOP('',(#758,#759,#760,#761));
#135=EDGE_LOOP('',(#762,#763,#764,#765));
#136=EDGE_LOOP('',(#766,#767,#768,#769));
#137=EDGE_LOOP('',(#770,#771,#772,#773));
#138=EDGE_LOOP('',(#774,#775,#776,#777,#778,#779,#780,#781));
#139=EDGE_LOOP('',(#782,#783,#784,#785,#786,#787,#788,#789));
#140=EDGE_LOOP('',(#790,#791,#792,#793));
#141=EDGE_LOOP('',(#794,#795,#796,#797));
#142=EDGE_LOOP('',(#798,#799,#800,#801,#802,#803,#804,#805));
#143=EDGE_LOOP('',(#806,#807,#808,#809,#810,#811,#812,#813));
#144=EDGE_LOOP('',(#814,#815,#816,#817));
#145=EDGE_LOOP('',(#818,#819,#820,#821));
#146=EDGE_LOOP('',(#822,#823,#824,#825));
#147=EDGE_LOOP('',(#826));
#148=EDGE_LOOP('',(#827,#828,#829,#830));
#149=EDGE_LOOP('',(#831));
#150=EDGE_LOOP('',(#832,#833,#834,#835));
#151=EDGE_LOOP('',(#836,#837,#838,#839));
#152=EDGE_LOOP('',(#840,#841,#842,#843));
#153=EDGE_LOOP('',(#844,#845,#846,#847,#848,#849,#850,#851));
#154=EDGE_LOOP('',(#852));
#155=EDGE_LOOP('',(#853));
#156=EDGE_LOOP('',(#854,#855,#856,#857));
#157=EDGE_LOOP('',(#858,#859,#860,#861));
#158=EDGE_LOOP('',(#862));
#159=EDGE_LOOP('',(#863));
#160=EDGE_LOOP('',(#864,#865,#866,#867));
#161=EDGE_LOOP('',(#868,#869,#870,#871));
#162=EDGE_LOOP('',(#872,#873,#874,#875,#876,#877,#878,#879,#880,#881,#882,
#883));
#163=EDGE_LOOP('',(#884,#885,#886,#887));
#164=LINE('',#1318,#284);
#165=LINE('',#1320,#285);
#166=LINE('',#1322,#286);
#167=LINE('',#1323,#287);
#168=LINE('',#1326,#288);
#169=LINE('',#1328,#289);
#170=LINE('',#1329,#290);
#171=LINE('',#1333,#291);
#172=LINE('',#1335,#292);
#173=LINE('',#1337,#293);
#174=LINE('',#1338,#294);
#175=LINE('',#1341,#295);
#176=LINE('',#1343,#296);
#177=LINE('',#1344,#297);
#178=LINE('',#1347,#298);
#179=LINE('',#1349,#299);
#180=LINE('',#1351,#300);
#181=LINE('',#1353,#301);
#182=LINE('',#1355,#302);
#183=LINE('',#1357,#303);
#184=LINE('',#1358,#304);
#185=LINE('',#1365,#305);
#186=LINE('',#1369,#306);
#187=LINE('',#1371,#307);
#188=LINE('',#1373,#308);
#189=LINE('',#1375,#309);
#190=LINE('',#1379,#310);
#191=LINE('',#1381,#311);
#192=LINE('',#1383,#312);
#193=LINE('',#1384,#313);
#194=LINE('',#1387,#314);
#195=LINE('',#1389,#315);
#196=LINE('',#1390,#316);
#197=LINE('',#1393,#317);
#198=LINE('',#1395,#318);
#199=LINE('',#1396,#319);
#200=LINE('',#1398,#320);
#201=LINE('',#1399,#321);
#202=LINE('',#1404,#322);
#203=LINE('',#1406,#323);
#204=LINE('',#1408,#324);
#205=LINE('',#1409,#325);
#206=LINE('',#1412,#326);
#207=LINE('',#1414,#327);
#208=LINE('',#1415,#328);
#209=LINE('',#1418,#329);
#210=LINE('',#1420,#330);
#211=LINE('',#1421,#331);
#212=LINE('',#1423,#332);
#213=LINE('',#1424,#333);
#214=LINE('',#1429,#334);
#215=LINE('',#1431,#335);
#216=LINE('',#1433,#336);
#217=LINE('',#1434,#337);
#218=LINE('',#1437,#338);
#219=LINE('',#1439,#339);
#220=LINE('',#1440,#340);
#221=LINE('',#1443,#341);
#222=LINE('',#1445,#342);
#223=LINE('',#1446,#343);
#224=LINE('',#1448,#344);
#225=LINE('',#1449,#345);
#226=LINE('',#1454,#346);
#227=LINE('',#1456,#347);
#228=LINE('',#1458,#348);
#229=LINE('',#1459,#349);
#230=LINE('',#1462,#350);
#231=LINE('',#1464,#351);
#232=LINE('',#1465,#352);
#233=LINE('',#1468,#353);
#234=LINE('',#1470,#354);
#235=LINE('',#1471,#355);
#236=LINE('',#1473,#356);
#237=LINE('',#1474,#357);
#238=LINE('',#1479,#358);
#239=LINE('',#1481,#359);
#240=LINE('',#1483,#360);
#241=LINE('',#1484,#361);
#242=LINE('',#1488,#362);
#243=LINE('',#1490,#363);
#244=LINE('',#1492,#364);
#245=LINE('',#1493,#365);
#246=LINE('',#1497,#366);
#247=LINE('',#1498,#367);
#248=LINE('',#1499,#368);
#249=LINE('',#1503,#369);
#250=LINE('',#1504,#370);
#251=LINE('',#1505,#371);
#252=LINE('',#1508,#372);
#253=LINE('',#1510,#373);
#254=LINE('',#1512,#374);
#255=LINE('',#1513,#375);
#256=LINE('',#1515,#376);
#257=LINE('',#1516,#377);
#258=LINE('',#1519,#378);
#259=LINE('',#1520,#379);
#260=LINE('',#1521,#380);
#261=LINE('',#1524,#381);
#262=LINE('',#1525,#382);
#263=LINE('',#1528,#383);
#264=LINE('',#1529,#384);
#265=LINE('',#1531,#385);
#266=LINE('',#1532,#386);
#267=LINE('',#1535,#387);
#268=LINE('',#1536,#388);
#269=LINE('',#1540,#389);
#270=LINE('',#1545,#390);
#271=LINE('',#1550,#391);
#272=LINE('',#1556,#392);
#273=LINE('',#1562,#393);
#274=LINE('',#1566,#394);
#275=LINE('',#1568,#395);
#276=LINE('',#1569,#396);
#277=LINE('',#1572,#397);
#278=LINE('',#1573,#398);
#279=LINE('',#1574,#399);
#280=LINE('',#1577,#400);
#281=LINE('',#1578,#401);
#282=LINE('',#1580,#402);
#283=LINE('',#1585,#403);
#284=VECTOR('',#1068,10.);
#285=VECTOR('',#1069,10.);
#286=VECTOR('',#1070,10.);
#287=VECTOR('',#1071,10.);
#288=VECTOR('',#1074,10.);
#289=VECTOR('',#1075,10.);
#290=VECTOR('',#1076,10.);
#291=VECTOR('',#1079,10.);
#292=VECTOR('',#1080,10.);
#293=VECTOR('',#1081,10.);
#294=VECTOR('',#1082,10.);
#295=VECTOR('',#1085,10.);
#296=VECTOR('',#1086,10.);
#297=VECTOR('',#1087,10.);
#298=VECTOR('',#1090,10.);
#299=VECTOR('',#1091,10.);
#300=VECTOR('',#1092,10.);
#301=VECTOR('',#1093,10.);
#302=VECTOR('',#1094,10.);
#303=VECTOR('',#1095,10.);
#304=VECTOR('',#1096,10.);
#305=VECTOR('',#1103,10.);
#306=VECTOR('',#1106,10.);
#307=VECTOR('',#1107,10.);
#308=VECTOR('',#1108,10.);
#309=VECTOR('',#1111,10.);
#310=VECTOR('',#1114,10.);
#311=VECTOR('',#1115,10.);
#312=VECTOR('',#1116,10.);
#313=VECTOR('',#1117,10.);
#314=VECTOR('',#1120,10.);
#315=VECTOR('',#1121,10.);
#316=VECTOR('',#1122,10.);
#317=VECTOR('',#1125,10.);
#318=VECTOR('',#1126,10.);
#319=VECTOR('',#1127,10.);
#320=VECTOR('',#1130,10.);
#321=VECTOR('',#1131,10.);
#322=VECTOR('',#1136,10.);
#323=VECTOR('',#1137,10.);
#324=VECTOR('',#1138,10.);
#325=VECTOR('',#1139,10.);
#326=VECTOR('',#1142,10.);
#327=VECTOR('',#1143,10.);
#328=VECTOR('',#1144,10.);
#329=VECTOR('',#1147,10.);
#330=VECTOR('',#1148,10.);
#331=VECTOR('',#1149,10.);
#332=VECTOR('',#1152,10.);
#333=VECTOR('',#1153,10.);
#334=VECTOR('',#1158,10.);
#335=VECTOR('',#1159,10.);
#336=VECTOR('',#1160,10.);
#337=VECTOR('',#1161,10.);
#338=VECTOR('',#1164,10.);
#339=VECTOR('',#1165,10.);
#340=VECTOR('',#1166,10.);
#341=VECTOR('',#1169,10.);
#342=VECTOR('',#1170,10.);
#343=VECTOR('',#1171,10.);
#344=VECTOR('',#1174,10.);
#345=VECTOR('',#1175,10.);
#346=VECTOR('',#1180,10.);
#347=VECTOR('',#1181,10.);
#348=VECTOR('',#1182,10.);
#349=VECTOR('',#1183,10.);
#350=VECTOR('',#1186,10.);
#351=VECTOR('',#1187,10.);
#352=VECTOR('',#1188,10.);
#353=VECTOR('',#1191,10.);
#354=VECTOR('',#1192,10.);
#355=VECTOR('',#1193,10.);
#356=VECTOR('',#1196,10.);
#357=VECTOR('',#1197,10.);
#358=VECTOR('',#1202,10.);
#359=VECTOR('',#1203,10.);
#360=VECTOR('',#1204,10.);
#361=VECTOR('',#1205,10.);
#362=VECTOR('',#1208,10.);
#363=VECTOR('',#1209,10.);
#364=VECTOR('',#1210,10.);
#365=VECTOR('',#1211,10.);
#366=VECTOR('',#1214,10.);
#367=VECTOR('',#1215,10.);
#368=VECTOR('',#1216,10.);
#369=VECTOR('',#1219,10.);
#370=VECTOR('',#1220,10.);
#371=VECTOR('',#1221,10.);
#372=VECTOR('',#1224,10.);
#373=VECTOR('',#1225,10.);
#374=VECTOR('',#1226,10.);
#375=VECTOR('',#1227,10.);
#376=VECTOR('',#1228,10.);
#377=VECTOR('',#1229,10.);
#378=VECTOR('',#1232,10.);
#379=VECTOR('',#1233,10.);
#380=VECTOR('',#1234,10.);
#381=VECTOR('',#1237,10.);
#382=VECTOR('',#1238,10.);
#383=VECTOR('',#1241,10.);
#384=VECTOR('',#1242,10.);
#385=VECTOR('',#1245,10.);
#386=VECTOR('',#1246,10.);
#387=VECTOR('',#1249,10.);
#388=VECTOR('',#1250,10.);
#389=VECTOR('',#1255,10.);
#390=VECTOR('',#1262,4.05);
#391=VECTOR('',#1269,4.05);
#392=VECTOR('',#1276,1.8);
#393=VECTOR('',#1283,1.8);
#394=VECTOR('',#1288,10.);
#395=VECTOR('',#1289,10.);
#396=VECTOR('',#1290,10.);
#397=VECTOR('',#1293,10.);
#398=VECTOR('',#1294,10.);
#399=VECTOR('',#1295,10.);
#400=VECTOR('',#1298,10.);
#401=VECTOR('',#1299,10.);
#402=VECTOR('',#1302,10.);
#403=VECTOR('',#1311,10.);
#404=VERTEX_POINT('',#1316);
#405=VERTEX_POINT('',#1317);
#406=VERTEX_POINT('',#1319);
#407=VERTEX_POINT('',#1321);
#408=VERTEX_POINT('',#1325);
#409=VERTEX_POINT('',#1327);
#410=VERTEX_POINT('',#1331);
#411=VERTEX_POINT('',#1332);
#412=VERTEX_POINT('',#1334);
#413=VERTEX_POINT('',#1336);
#414=VERTEX_POINT('',#1340);
#415=VERTEX_POINT('',#1342);
#416=VERTEX_POINT('',#1346);
#417=VERTEX_POINT('',#1348);
#418=VERTEX_POINT('',#1350);
#419=VERTEX_POINT('',#1352);
#420=VERTEX_POINT('',#1354);
#421=VERTEX_POINT('',#1356);
#422=VERTEX_POINT('',#1359);
#423=VERTEX_POINT('',#1361);
#424=VERTEX_POINT('',#1364);
#425=VERTEX_POINT('',#1366);
#426=VERTEX_POINT('',#1368);
#427=VERTEX_POINT('',#1370);
#428=VERTEX_POINT('',#1372);
#429=VERTEX_POINT('',#1377);
#430=VERTEX_POINT('',#1378);
#431=VERTEX_POINT('',#1380);
#432=VERTEX_POINT('',#1382);
#433=VERTEX_POINT('',#1386);
#434=VERTEX_POINT('',#1388);
#435=VERTEX_POINT('',#1392);
#436=VERTEX_POINT('',#1394);
#437=VERTEX_POINT('',#1402);
#438=VERTEX_POINT('',#1403);
#439=VERTEX_POINT('',#1405);
#440=VERTEX_POINT('',#1407);
#441=VERTEX_POINT('',#1411);
#442=VERTEX_POINT('',#1413);
#443=VERTEX_POINT('',#1417);
#444=VERTEX_POINT('',#1419);
#445=VERTEX_POINT('',#1427);
#446=VERTEX_POINT('',#1428);
#447=VERTEX_POINT('',#1430);
#448=VERTEX_POINT('',#1432);
#449=VERTEX_POINT('',#1436);
#450=VERTEX_POINT('',#1438);
#451=VERTEX_POINT('',#1442);
#452=VERTEX_POINT('',#1444);
#453=VERTEX_POINT('',#1452);
#454=VERTEX_POINT('',#1453);
#455=VERTEX_POINT('',#1455);
#456=VERTEX_POINT('',#1457);
#457=VERTEX_POINT('',#1461);
#458=VERTEX_POINT('',#1463);
#459=VERTEX_POINT('',#1467);
#460=VERTEX_POINT('',#1469);
#461=VERTEX_POINT('',#1477);
#462=VERTEX_POINT('',#1478);
#463=VERTEX_POINT('',#1480);
#464=VERTEX_POINT('',#1482);
#465=VERTEX_POINT('',#1486);
#466=VERTEX_POINT('',#1487);
#467=VERTEX_POINT('',#1489);
#468=VERTEX_POINT('',#1491);
#469=VERTEX_POINT('',#1495);
#470=VERTEX_POINT('',#1496);
#471=VERTEX_POINT('',#1501);
#472=VERTEX_POINT('',#1502);
#473=VERTEX_POINT('',#1507);
#474=VERTEX_POINT('',#1509);
#475=VERTEX_POINT('',#1511);
#476=VERTEX_POINT('',#1514);
#477=VERTEX_POINT('',#1518);
#478=VERTEX_POINT('',#1523);
#479=VERTEX_POINT('',#1527);
#480=VERTEX_POINT('',#1534);
#481=VERTEX_POINT('',#1539);
#482=VERTEX_POINT('',#1543);
#483=VERTEX_POINT('',#1548);
#484=VERTEX_POINT('',#1553);
#485=VERTEX_POINT('',#1555);
#486=VERTEX_POINT('',#1559);
#487=VERTEX_POINT('',#1561);
#488=VERTEX_POINT('',#1565);
#489=VERTEX_POINT('',#1567);
#490=VERTEX_POINT('',#1571);
#491=VERTEX_POINT('',#1576);
#492=EDGE_CURVE('',#404,#405,#164,.T.);
#493=EDGE_CURVE('',#406,#404,#165,.T.);
#494=EDGE_CURVE('',#406,#407,#166,.T.);
#495=EDGE_CURVE('',#405,#407,#167,.T.);
#496=EDGE_CURVE('',#408,#406,#168,.T.);
#497=EDGE_CURVE('',#409,#408,#169,.T.);
#498=EDGE_CURVE('',#407,#409,#170,.T.);
#499=EDGE_CURVE('',#410,#411,#171,.T.);
#500=EDGE_CURVE('',#412,#410,#172,.T.);
#501=EDGE_CURVE('',#413,#412,#173,.T.);
#502=EDGE_CURVE('',#411,#413,#174,.T.);
#503=EDGE_CURVE('',#410,#414,#175,.T.);
#504=EDGE_CURVE('',#415,#414,#176,.T.);
#505=EDGE_CURVE('',#415,#412,#177,.T.);
#506=EDGE_CURVE('',#416,#405,#178,.T.);
#507=EDGE_CURVE('',#416,#417,#179,.T.);
#508=EDGE_CURVE('',#417,#418,#180,.T.);
#509=EDGE_CURVE('',#418,#419,#181,.T.);
#510=EDGE_CURVE('',#419,#420,#182,.T.);
#511=EDGE_CURVE('',#420,#421,#183,.T.);
#512=EDGE_CURVE('',#421,#404,#184,.T.);
#513=EDGE_CURVE('',#422,#422,#38,.T.);
#514=EDGE_CURVE('',#423,#423,#39,.T.);
#515=EDGE_CURVE('',#409,#424,#185,.T.);
#516=EDGE_CURVE('',#425,#424,#40,.T.);
#517=EDGE_CURVE('',#425,#426,#186,.T.);
#518=EDGE_CURVE('',#426,#427,#187,.T.);
#519=EDGE_CURVE('',#427,#428,#188,.T.);
#520=EDGE_CURVE('',#414,#428,#41,.T.);
#521=EDGE_CURVE('',#411,#416,#189,.T.);
#522=EDGE_CURVE('',#429,#430,#190,.T.);
#523=EDGE_CURVE('',#429,#431,#191,.T.);
#524=EDGE_CURVE('',#432,#431,#192,.T.);
#525=EDGE_CURVE('',#430,#432,#193,.T.);
#526=EDGE_CURVE('',#430,#433,#194,.T.);
#527=EDGE_CURVE('',#434,#432,#195,.T.);
#528=EDGE_CURVE('',#433,#434,#196,.T.);
#529=EDGE_CURVE('',#433,#435,#197,.T.);
#530=EDGE_CURVE('',#436,#434,#198,.T.);
#531=EDGE_CURVE('',#435,#436,#199,.T.);
#532=EDGE_CURVE('',#435,#429,#200,.T.);
#533=EDGE_CURVE('',#431,#436,#201,.T.);
#534=EDGE_CURVE('',#437,#438,#202,.T.);
#535=EDGE_CURVE('',#437,#439,#203,.T.);
#536=EDGE_CURVE('',#440,#439,#204,.T.);
#537=EDGE_CURVE('',#438,#440,#205,.T.);
#538=EDGE_CURVE('',#438,#441,#206,.T.);
#539=EDGE_CURVE('',#442,#440,#207,.T.);
#540=EDGE_CURVE('',#441,#442,#208,.T.);
#541=EDGE_CURVE('',#441,#443,#209,.T.);
#542=EDGE_CURVE('',#444,#442,#210,.T.);
#543=EDGE_CURVE('',#443,#444,#211,.T.);
#544=EDGE_CURVE('',#443,#437,#212,.T.);
#545=EDGE_CURVE('',#439,#444,#213,.T.);
#546=EDGE_CURVE('',#445,#446,#214,.T.);
#547=EDGE_CURVE('',#445,#447,#215,.T.);
#548=EDGE_CURVE('',#448,#447,#216,.T.);
#549=EDGE_CURVE('',#446,#448,#217,.T.);
#550=EDGE_CURVE('',#446,#449,#218,.T.);
#551=EDGE_CURVE('',#450,#448,#219,.T.);
#552=EDGE_CURVE('',#449,#450,#220,.T.);
#553=EDGE_CURVE('',#449,#451,#221,.T.);
#554=EDGE_CURVE('',#452,#450,#222,.T.);
#555=EDGE_CURVE('',#451,#452,#223,.T.);
#556=EDGE_CURVE('',#451,#445,#224,.T.);
#557=EDGE_CURVE('',#447,#452,#225,.T.);
#558=EDGE_CURVE('',#453,#454,#226,.T.);
#559=EDGE_CURVE('',#453,#455,#227,.T.);
#560=EDGE_CURVE('',#456,#455,#228,.T.);
#561=EDGE_CURVE('',#454,#456,#229,.T.);
#562=EDGE_CURVE('',#454,#457,#230,.T.);
#563=EDGE_CURVE('',#458,#456,#231,.T.);
#564=EDGE_CURVE('',#457,#458,#232,.T.);
#565=EDGE_CURVE('',#457,#459,#233,.T.);
#566=EDGE_CURVE('',#460,#458,#234,.T.);
#567=EDGE_CURVE('',#459,#460,#235,.T.);
#568=EDGE_CURVE('',#459,#453,#236,.T.);
#569=EDGE_CURVE('',#455,#460,#237,.T.);
#570=EDGE_CURVE('',#461,#462,#238,.T.);
#571=EDGE_CURVE('',#461,#463,#239,.T.);
#572=EDGE_CURVE('',#464,#463,#240,.T.);
#573=EDGE_CURVE('',#462,#464,#241,.T.);
#574=EDGE_CURVE('',#465,#466,#242,.T.);
#575=EDGE_CURVE('',#466,#467,#243,.T.);
#576=EDGE_CURVE('',#467,#468,#244,.T.);
#577=EDGE_CURVE('',#468,#465,#245,.T.);
#578=EDGE_CURVE('',#469,#470,#246,.T.);
#579=EDGE_CURVE('',#468,#469,#247,.T.);
#580=EDGE_CURVE('',#467,#470,#248,.T.);
#581=EDGE_CURVE('',#471,#472,#249,.T.);
#582=EDGE_CURVE('',#472,#464,#250,.T.);
#583=EDGE_CURVE('',#463,#471,#251,.T.);
#584=EDGE_CURVE('',#473,#470,#252,.T.);
#585=EDGE_CURVE('',#473,#474,#253,.T.);
#586=EDGE_CURVE('',#475,#474,#254,.T.);
#587=EDGE_CURVE('',#428,#475,#255,.T.);
#588=EDGE_CURVE('',#427,#476,#256,.T.);
#589=EDGE_CURVE('',#469,#476,#257,.T.);
#590=EDGE_CURVE('',#461,#477,#258,.T.);
#591=EDGE_CURVE('',#477,#473,#259,.T.);
#592=EDGE_CURVE('',#471,#466,#260,.T.);
#593=EDGE_CURVE('',#478,#426,#261,.T.);
#594=EDGE_CURVE('',#476,#478,#262,.T.);
#595=EDGE_CURVE('',#474,#479,#263,.T.);
#596=EDGE_CURVE('',#479,#477,#264,.T.);
#597=EDGE_CURVE('',#478,#462,#265,.T.);
#598=EDGE_CURVE('',#465,#472,#266,.T.);
#599=EDGE_CURVE('',#480,#425,#267,.T.);
#600=EDGE_CURVE('',#479,#480,#268,.T.);
#601=EDGE_CURVE('',#424,#481,#269,.T.);
#602=EDGE_CURVE('',#481,#480,#42,.T.);
#603=EDGE_CURVE('',#482,#482,#43,.T.);
#604=EDGE_CURVE('',#482,#423,#270,.T.);
#605=EDGE_CURVE('',#483,#483,#44,.T.);
#606=EDGE_CURVE('',#483,#422,#271,.T.);
#607=EDGE_CURVE('',#484,#484,#45,.T.);
#608=EDGE_CURVE('',#484,#485,#272,.T.);
#609=EDGE_CURVE('',#485,#485,#46,.T.);
#610=EDGE_CURVE('',#486,#486,#47,.T.);
#611=EDGE_CURVE('',#486,#487,#273,.T.);
#612=EDGE_CURVE('',#487,#487,#48,.T.);
#613=EDGE_CURVE('',#419,#488,#274,.T.);
#614=EDGE_CURVE('',#489,#488,#275,.T.);
#615=EDGE_CURVE('',#420,#489,#276,.T.);
#616=EDGE_CURVE('',#490,#489,#277,.T.);
#617=EDGE_CURVE('',#417,#490,#278,.T.);
#618=EDGE_CURVE('',#421,#413,#279,.T.);
#619=EDGE_CURVE('',#491,#490,#280,.T.);
#620=EDGE_CURVE('',#418,#491,#281,.T.);
#621=EDGE_CURVE('',#488,#491,#282,.T.);
#622=EDGE_CURVE('',#475,#415,#49,.T.);
#623=EDGE_CURVE('',#408,#481,#283,.T.);
#624=ORIENTED_EDGE('',*,*,#492,.F.);
#625=ORIENTED_EDGE('',*,*,#493,.F.);
#626=ORIENTED_EDGE('',*,*,#494,.T.);
#627=ORIENTED_EDGE('',*,*,#495,.F.);
#628=ORIENTED_EDGE('',*,*,#494,.F.);
#629=ORIENTED_EDGE('',*,*,#496,.F.);
#630=ORIENTED_EDGE('',*,*,#497,.F.);
#631=ORIENTED_EDGE('',*,*,#498,.F.);
#632=ORIENTED_EDGE('',*,*,#499,.F.);
#633=ORIENTED_EDGE('',*,*,#500,.F.);
#634=ORIENTED_EDGE('',*,*,#501,.F.);
#635=ORIENTED_EDGE('',*,*,#502,.F.);
#636=ORIENTED_EDGE('',*,*,#500,.T.);
#637=ORIENTED_EDGE('',*,*,#503,.T.);
#638=ORIENTED_EDGE('',*,*,#504,.F.);
#639=ORIENTED_EDGE('',*,*,#505,.T.);
#640=ORIENTED_EDGE('',*,*,#492,.T.);
#641=ORIENTED_EDGE('',*,*,#506,.F.);
#642=ORIENTED_EDGE('',*,*,#507,.T.);
#643=ORIENTED_EDGE('',*,*,#508,.T.);
#644=ORIENTED_EDGE('',*,*,#509,.T.);
#645=ORIENTED_EDGE('',*,*,#510,.T.);
#646=ORIENTED_EDGE('',*,*,#511,.T.);
#647=ORIENTED_EDGE('',*,*,#512,.T.);
#648=ORIENTED_EDGE('',*,*,#513,.T.);
#649=ORIENTED_EDGE('',*,*,#514,.T.);
#650=ORIENTED_EDGE('',*,*,#495,.T.);
#651=ORIENTED_EDGE('',*,*,#498,.T.);
#652=ORIENTED_EDGE('',*,*,#515,.T.);
#653=ORIENTED_EDGE('',*,*,#516,.F.);
#654=ORIENTED_EDGE('',*,*,#517,.T.);
#655=ORIENTED_EDGE('',*,*,#518,.T.);
#656=ORIENTED_EDGE('',*,*,#519,.T.);
#657=ORIENTED_EDGE('',*,*,#520,.F.);
#658=ORIENTED_EDGE('',*,*,#503,.F.);
#659=ORIENTED_EDGE('',*,*,#499,.T.);
#660=ORIENTED_EDGE('',*,*,#521,.T.);
#661=ORIENTED_EDGE('',*,*,#506,.T.);
#662=ORIENTED_EDGE('',*,*,#522,.F.);
#663=ORIENTED_EDGE('',*,*,#523,.T.);
#664=ORIENTED_EDGE('',*,*,#524,.F.);
#665=ORIENTED_EDGE('',*,*,#525,.F.);
#666=ORIENTED_EDGE('',*,*,#526,.F.);
#667=ORIENTED_EDGE('',*,*,#525,.T.);
#668=ORIENTED_EDGE('',*,*,#527,.F.);
#669=ORIENTED_EDGE('',*,*,#528,.F.);
#670=ORIENTED_EDGE('',*,*,#529,.F.);
#671=ORIENTED_EDGE('',*,*,#528,.T.);
#672=ORIENTED_EDGE('',*,*,#530,.F.);
#673=ORIENTED_EDGE('',*,*,#531,.F.);
#674=ORIENTED_EDGE('',*,*,#532,.F.);
#675=ORIENTED_EDGE('',*,*,#531,.T.);
#676=ORIENTED_EDGE('',*,*,#533,.F.);
#677=ORIENTED_EDGE('',*,*,#523,.F.);
#678=ORIENTED_EDGE('',*,*,#533,.T.);
#679=ORIENTED_EDGE('',*,*,#530,.T.);
#680=ORIENTED_EDGE('',*,*,#527,.T.);
#681=ORIENTED_EDGE('',*,*,#524,.T.);
#682=ORIENTED_EDGE('',*,*,#534,.F.);
#683=ORIENTED_EDGE('',*,*,#535,.T.);
#684=ORIENTED_EDGE('',*,*,#536,.F.);
#685=ORIENTED_EDGE('',*,*,#537,.F.);
#686=ORIENTED_EDGE('',*,*,#538,.F.);
#687=ORIENTED_EDGE('',*,*,#537,.T.);
#688=ORIENTED_EDGE('',*,*,#539,.F.);
#689=ORIENTED_EDGE('',*,*,#540,.F.);
#690=ORIENTED_EDGE('',*,*,#541,.F.);
#691=ORIENTED_EDGE('',*,*,#540,.T.);
#692=ORIENTED_EDGE('',*,*,#542,.F.);
#693=ORIENTED_EDGE('',*,*,#543,.F.);
#694=ORIENTED_EDGE('',*,*,#544,.F.);
#695=ORIENTED_EDGE('',*,*,#543,.T.);
#696=ORIENTED_EDGE('',*,*,#545,.F.);
#697=ORIENTED_EDGE('',*,*,#535,.F.);
#698=ORIENTED_EDGE('',*,*,#545,.T.);
#699=ORIENTED_EDGE('',*,*,#542,.T.);
#700=ORIENTED_EDGE('',*,*,#539,.T.);
#701=ORIENTED_EDGE('',*,*,#536,.T.);
#702=ORIENTED_EDGE('',*,*,#546,.F.);
#703=ORIENTED_EDGE('',*,*,#547,.T.);
#704=ORIENTED_EDGE('',*,*,#548,.F.);
#705=ORIENTED_EDGE('',*,*,#549,.F.);
#706=ORIENTED_EDGE('',*,*,#550,.F.);
#707=ORIENTED_EDGE('',*,*,#549,.T.);
#708=ORIENTED_EDGE('',*,*,#551,.F.);
#709=ORIENTED_EDGE('',*,*,#552,.F.);
#710=ORIENTED_EDGE('',*,*,#553,.F.);
#711=ORIENTED_EDGE('',*,*,#552,.T.);
#712=ORIENTED_EDGE('',*,*,#554,.F.);
#713=ORIENTED_EDGE('',*,*,#555,.F.);
#714=ORIENTED_EDGE('',*,*,#556,.F.);
#715=ORIENTED_EDGE('',*,*,#555,.T.);
#716=ORIENTED_EDGE('',*,*,#557,.F.);
#717=ORIENTED_EDGE('',*,*,#547,.F.);
#718=ORIENTED_EDGE('',*,*,#557,.T.);
#719=ORIENTED_EDGE('',*,*,#554,.T.);
#720=ORIENTED_EDGE('',*,*,#551,.T.);
#721=ORIENTED_EDGE('',*,*,#548,.T.);
#722=ORIENTED_EDGE('',*,*,#558,.F.);
#723=ORIENTED_EDGE('',*,*,#559,.T.);
#724=ORIENTED_EDGE('',*,*,#560,.F.);
#725=ORIENTED_EDGE('',*,*,#561,.F.);
#726=ORIENTED_EDGE('',*,*,#562,.F.);
#727=ORIENTED_EDGE('',*,*,#561,.T.);
#728=ORIENTED_EDGE('',*,*,#563,.F.);
#729=ORIENTED_EDGE('',*,*,#564,.F.);
#730=ORIENTED_EDGE('',*,*,#565,.F.);
#731=ORIENTED_EDGE('',*,*,#564,.T.);
#732=ORIENTED_EDGE('',*,*,#566,.F.);
#733=ORIENTED_EDGE('',*,*,#567,.F.);
#734=ORIENTED_EDGE('',*,*,#568,.F.);
#735=ORIENTED_EDGE('',*,*,#567,.T.);
#736=ORIENTED_EDGE('',*,*,#569,.F.);
#737=ORIENTED_EDGE('',*,*,#559,.F.);
#738=ORIENTED_EDGE('',*,*,#569,.T.);
#739=ORIENTED_EDGE('',*,*,#566,.T.);
#740=ORIENTED_EDGE('',*,*,#563,.T.);
#741=ORIENTED_EDGE('',*,*,#560,.T.);
#742=ORIENTED_EDGE('',*,*,#570,.F.);
#743=ORIENTED_EDGE('',*,*,#571,.T.);
#744=ORIENTED_EDGE('',*,*,#572,.F.);
#745=ORIENTED_EDGE('',*,*,#573,.F.);
#746=ORIENTED_EDGE('',*,*,#574,.T.);
#747=ORIENTED_EDGE('',*,*,#575,.T.);
#748=ORIENTED_EDGE('',*,*,#576,.T.);
#749=ORIENTED_EDGE('',*,*,#577,.T.);
#750=ORIENTED_EDGE('',*,*,#522,.T.);
#751=ORIENTED_EDGE('',*,*,#526,.T.);
#752=ORIENTED_EDGE('',*,*,#529,.T.);
#753=ORIENTED_EDGE('',*,*,#532,.T.);
#754=ORIENTED_EDGE('',*,*,#534,.T.);
#755=ORIENTED_EDGE('',*,*,#538,.T.);
#756=ORIENTED_EDGE('',*,*,#541,.T.);
#757=ORIENTED_EDGE('',*,*,#544,.T.);
#758=ORIENTED_EDGE('',*,*,#546,.T.);
#759=ORIENTED_EDGE('',*,*,#550,.T.);
#760=ORIENTED_EDGE('',*,*,#553,.T.);
#761=ORIENTED_EDGE('',*,*,#556,.T.);
#762=ORIENTED_EDGE('',*,*,#558,.T.);
#763=ORIENTED_EDGE('',*,*,#562,.T.);
#764=ORIENTED_EDGE('',*,*,#565,.T.);
#765=ORIENTED_EDGE('',*,*,#568,.T.);
#766=ORIENTED_EDGE('',*,*,#578,.F.);
#767=ORIENTED_EDGE('',*,*,#579,.F.);
#768=ORIENTED_EDGE('',*,*,#576,.F.);
#769=ORIENTED_EDGE('',*,*,#580,.T.);
#770=ORIENTED_EDGE('',*,*,#581,.T.);
#771=ORIENTED_EDGE('',*,*,#582,.T.);
#772=ORIENTED_EDGE('',*,*,#572,.T.);
#773=ORIENTED_EDGE('',*,*,#583,.T.);
#774=ORIENTED_EDGE('',*,*,#578,.T.);
#775=ORIENTED_EDGE('',*,*,#584,.F.);
#776=ORIENTED_EDGE('',*,*,#585,.T.);
#777=ORIENTED_EDGE('',*,*,#586,.F.);
#778=ORIENTED_EDGE('',*,*,#587,.F.);
#779=ORIENTED_EDGE('',*,*,#519,.F.);
#780=ORIENTED_EDGE('',*,*,#588,.T.);
#781=ORIENTED_EDGE('',*,*,#589,.F.);
#782=ORIENTED_EDGE('',*,*,#590,.T.);
#783=ORIENTED_EDGE('',*,*,#591,.T.);
#784=ORIENTED_EDGE('',*,*,#584,.T.);
#785=ORIENTED_EDGE('',*,*,#580,.F.);
#786=ORIENTED_EDGE('',*,*,#575,.F.);
#787=ORIENTED_EDGE('',*,*,#592,.F.);
#788=ORIENTED_EDGE('',*,*,#583,.F.);
#789=ORIENTED_EDGE('',*,*,#571,.F.);
#790=ORIENTED_EDGE('',*,*,#518,.F.);
#791=ORIENTED_EDGE('',*,*,#593,.F.);
#792=ORIENTED_EDGE('',*,*,#594,.F.);
#793=ORIENTED_EDGE('',*,*,#588,.F.);
#794=ORIENTED_EDGE('',*,*,#595,.F.);
#795=ORIENTED_EDGE('',*,*,#585,.F.);
#796=ORIENTED_EDGE('',*,*,#591,.F.);
#797=ORIENTED_EDGE('',*,*,#596,.F.);
#798=ORIENTED_EDGE('',*,*,#589,.T.);
#799=ORIENTED_EDGE('',*,*,#594,.T.);
#800=ORIENTED_EDGE('',*,*,#597,.T.);
#801=ORIENTED_EDGE('',*,*,#573,.T.);
#802=ORIENTED_EDGE('',*,*,#582,.F.);
#803=ORIENTED_EDGE('',*,*,#598,.F.);
#804=ORIENTED_EDGE('',*,*,#577,.F.);
#805=ORIENTED_EDGE('',*,*,#579,.T.);
#806=ORIENTED_EDGE('',*,*,#570,.T.);
#807=ORIENTED_EDGE('',*,*,#597,.F.);
#808=ORIENTED_EDGE('',*,*,#593,.T.);
#809=ORIENTED_EDGE('',*,*,#517,.F.);
#810=ORIENTED_EDGE('',*,*,#599,.F.);
#811=ORIENTED_EDGE('',*,*,#600,.F.);
#812=ORIENTED_EDGE('',*,*,#596,.T.);
#813=ORIENTED_EDGE('',*,*,#590,.F.);
#814=ORIENTED_EDGE('',*,*,#592,.T.);
#815=ORIENTED_EDGE('',*,*,#574,.F.);
#816=ORIENTED_EDGE('',*,*,#598,.T.);
#817=ORIENTED_EDGE('',*,*,#581,.F.);
#818=ORIENTED_EDGE('',*,*,#599,.T.);
#819=ORIENTED_EDGE('',*,*,#516,.T.);
#820=ORIENTED_EDGE('',*,*,#601,.T.);
#821=ORIENTED_EDGE('',*,*,#602,.T.);
#822=ORIENTED_EDGE('',*,*,#603,.F.);
#823=ORIENTED_EDGE('',*,*,#604,.T.);
#824=ORIENTED_EDGE('',*,*,#514,.F.);
#825=ORIENTED_EDGE('',*,*,#604,.F.);
#826=ORIENTED_EDGE('',*,*,#603,.T.);
#827=ORIENTED_EDGE('',*,*,#605,.F.);
#828=ORIENTED_EDGE('',*,*,#606,.T.);
#829=ORIENTED_EDGE('',*,*,#513,.F.);
#830=ORIENTED_EDGE('',*,*,#606,.F.);
#831=ORIENTED_EDGE('',*,*,#605,.T.);
#832=ORIENTED_EDGE('',*,*,#607,.F.);
#833=ORIENTED_EDGE('',*,*,#608,.T.);
#834=ORIENTED_EDGE('',*,*,#609,.F.);
#835=ORIENTED_EDGE('',*,*,#608,.F.);
#836=ORIENTED_EDGE('',*,*,#610,.F.);
#837=ORIENTED_EDGE('',*,*,#611,.T.);
#838=ORIENTED_EDGE('',*,*,#612,.F.);
#839=ORIENTED_EDGE('',*,*,#611,.F.);
#840=ORIENTED_EDGE('',*,*,#510,.F.);
#841=ORIENTED_EDGE('',*,*,#613,.T.);
#842=ORIENTED_EDGE('',*,*,#614,.F.);
#843=ORIENTED_EDGE('',*,*,#615,.F.);
#844=ORIENTED_EDGE('',*,*,#615,.T.);
#845=ORIENTED_EDGE('',*,*,#616,.F.);
#846=ORIENTED_EDGE('',*,*,#617,.F.);
#847=ORIENTED_EDGE('',*,*,#507,.F.);
#848=ORIENTED_EDGE('',*,*,#521,.F.);
#849=ORIENTED_EDGE('',*,*,#502,.T.);
#850=ORIENTED_EDGE('',*,*,#618,.F.);
#851=ORIENTED_EDGE('',*,*,#511,.F.);
#852=ORIENTED_EDGE('',*,*,#609,.T.);
#853=ORIENTED_EDGE('',*,*,#612,.T.);
#854=ORIENTED_EDGE('',*,*,#508,.F.);
#855=ORIENTED_EDGE('',*,*,#617,.T.);
#856=ORIENTED_EDGE('',*,*,#619,.F.);
#857=ORIENTED_EDGE('',*,*,#620,.F.);
#858=ORIENTED_EDGE('',*,*,#509,.F.);
#859=ORIENTED_EDGE('',*,*,#620,.T.);
#860=ORIENTED_EDGE('',*,*,#621,.F.);
#861=ORIENTED_EDGE('',*,*,#613,.F.);
#862=ORIENTED_EDGE('',*,*,#607,.T.);
#863=ORIENTED_EDGE('',*,*,#610,.T.);
#864=ORIENTED_EDGE('',*,*,#621,.T.);
#865=ORIENTED_EDGE('',*,*,#619,.T.);
#866=ORIENTED_EDGE('',*,*,#616,.T.);
#867=ORIENTED_EDGE('',*,*,#614,.T.);
#868=ORIENTED_EDGE('',*,*,#587,.T.);
#869=ORIENTED_EDGE('',*,*,#622,.T.);
#870=ORIENTED_EDGE('',*,*,#504,.T.);
#871=ORIENTED_EDGE('',*,*,#520,.T.);
#872=ORIENTED_EDGE('',*,*,#493,.T.);
#873=ORIENTED_EDGE('',*,*,#512,.F.);
#874=ORIENTED_EDGE('',*,*,#618,.T.);
#875=ORIENTED_EDGE('',*,*,#501,.T.);
#876=ORIENTED_EDGE('',*,*,#505,.F.);
#877=ORIENTED_EDGE('',*,*,#622,.F.);
#878=ORIENTED_EDGE('',*,*,#586,.T.);
#879=ORIENTED_EDGE('',*,*,#595,.T.);
#880=ORIENTED_EDGE('',*,*,#600,.T.);
#881=ORIENTED_EDGE('',*,*,#602,.F.);
#882=ORIENTED_EDGE('',*,*,#623,.F.);
#883=ORIENTED_EDGE('',*,*,#496,.T.);
#884=ORIENTED_EDGE('',*,*,#497,.T.);
#885=ORIENTED_EDGE('',*,*,#623,.T.);
#886=ORIENTED_EDGE('',*,*,#601,.F.);
#887=ORIENTED_EDGE('',*,*,#515,.F.);
#888=PLANE('',#1000);
#889=PLANE('',#1001);
#890=PLANE('',#1002);
#891=PLANE('',#1003);
#892=PLANE('',#1004);
#893=PLANE('',#1007);
#894=PLANE('',#1010);
#895=PLANE('',#1011);
#896=PLANE('',#1012);
#897=PLANE('',#1013);
#898=PLANE('',#1014);
#899=PLANE('',#1015);
#900=PLANE('',#1016);
#901=PLANE('',#1017);
#902=PLANE('',#1018);
#903=PLANE('',#1019);
#904=PLANE('',#1020);
#905=PLANE('',#1021);
#906=PLANE('',#1022);
#907=PLANE('',#1023);
#908=PLANE('',#1024);
#909=PLANE('',#1025);
#910=PLANE('',#1026);
#911=PLANE('',#1027);
#912=PLANE('',#1028);
#913=PLANE('',#1029);
#914=PLANE('',#1030);
#915=PLANE('',#1031);
#916=PLANE('',#1032);
#917=PLANE('',#1033);
#918=PLANE('',#1034);
#919=PLANE('',#1035);
#920=PLANE('',#1036);
#921=PLANE('',#1037);
#922=PLANE('',#1038);
#923=PLANE('',#1039);
#924=PLANE('',#1040);
#925=PLANE('',#1045);
#926=PLANE('',#1048);
#927=PLANE('',#1055);
#928=PLANE('',#1056);
#929=PLANE('',#1057);
#930=PLANE('',#1058);
#931=PLANE('',#1059);
#932=PLANE('',#1062);
#933=PLANE('',#1063);
#934=ADVANCED_FACE('',(#50),#888,.F.);
#935=ADVANCED_FACE('',(#51),#889,.F.);
#936=ADVANCED_FACE('',(#52),#890,.F.);
#937=ADVANCED_FACE('',(#53),#891,.F.);
#938=ADVANCED_FACE('',(#54,#28,#29),#892,.T.);
#939=ADVANCED_FACE('',(#55),#893,.T.);
#940=ADVANCED_FACE('',(#56),#894,.T.);
#941=ADVANCED_FACE('',(#57),#895,.T.);
#942=ADVANCED_FACE('',(#58),#896,.T.);
#943=ADVANCED_FACE('',(#59),#897,.T.);
#944=ADVANCED_FACE('',(#60),#898,.T.);
#945=ADVANCED_FACE('',(#61),#899,.T.);
#946=ADVANCED_FACE('',(#62),#900,.T.);
#947=ADVANCED_FACE('',(#63),#901,.T.);
#948=ADVANCED_FACE('',(#64),#902,.T.);
#949=ADVANCED_FACE('',(#65),#903,.T.);
#950=ADVANCED_FACE('',(#66),#904,.T.);
#951=ADVANCED_FACE('',(#67),#905,.T.);
#952=ADVANCED_FACE('',(#68),#906,.T.);
#953=ADVANCED_FACE('',(#69),#907,.T.);
#954=ADVANCED_FACE('',(#70),#908,.T.);
#955=ADVANCED_FACE('',(#71),#909,.T.);
#956=ADVANCED_FACE('',(#72),#910,.T.);
#957=ADVANCED_FACE('',(#73),#911,.T.);
#958=ADVANCED_FACE('',(#74),#912,.T.);
#959=ADVANCED_FACE('',(#75),#913,.T.);
#960=ADVANCED_FACE('',(#76),#914,.T.);
#961=ADVANCED_FACE('',(#77,#30,#31,#32,#33),#915,.T.);
#962=ADVANCED_FACE('',(#78),#916,.T.);
#963=ADVANCED_FACE('',(#79),#917,.T.);
#964=ADVANCED_FACE('',(#80),#918,.T.);
#965=ADVANCED_FACE('',(#81),#919,.T.);
#966=ADVANCED_FACE('',(#82),#920,.T.);
#967=ADVANCED_FACE('',(#83),#921,.T.);
#968=ADVANCED_FACE('',(#84),#922,.T.);
#969=ADVANCED_FACE('',(#85),#923,.T.);
#970=ADVANCED_FACE('',(#86),#924,.T.);
#971=ADVANCED_FACE('',(#87),#14,.T.);
#972=ADVANCED_FACE('',(#88),#15,.T.);
#973=ADVANCED_FACE('',(#89),#925,.T.);
#974=ADVANCED_FACE('',(#90),#16,.T.);
#975=ADVANCED_FACE('',(#91),#926,.T.);
#976=ADVANCED_FACE('',(#92),#17,.F.);
#977=ADVANCED_FACE('',(#93),#18,.F.);
#978=ADVANCED_FACE('',(#94),#927,.T.);
#979=ADVANCED_FACE('',(#95,#34,#35),#928,.T.);
#980=ADVANCED_FACE('',(#96),#929,.T.);
#981=ADVANCED_FACE('',(#97,#36,#37),#930,.T.);
#982=ADVANCED_FACE('',(#98),#931,.T.);
#983=ADVANCED_FACE('',(#99),#19,.T.);
#984=ADVANCED_FACE('',(#100),#932,.T.);
#985=ADVANCED_FACE('',(#101),#933,.T.);
#986=CLOSED_SHELL('',(#934,#935,#936,#937,#938,#939,#940,#941,#942,#943,
#944,#945,#946,#947,#948,#949,#950,#951,#952,#953,#954,#955,#956,#957,#958,
#959,#960,#961,#962,#963,#964,#965,#966,#967,#968,#969,#970,#971,#972,#973,
#974,#975,#976,#977,#978,#979,#980,#981,#982,#983,#984,#985));
#987=DERIVED_UNIT_ELEMENT(#989,1.);
#988=DERIVED_UNIT_ELEMENT(#1592,-3.);
#989=(
MASS_UNIT()
NAMED_UNIT(*)
SI_UNIT(.KILO.,.GRAM.)
);
#990=DERIVED_UNIT((#987,#988));
#991=MEASURE_REPRESENTATION_ITEM('density measure',
POSITIVE_RATIO_MEASURE(7850.),#990);
#992=PROPERTY_DEFINITION_REPRESENTATION(#997,#994);
#993=PROPERTY_DEFINITION_REPRESENTATION(#998,#995);
#994=REPRESENTATION('material name',(#996),#1589);
#995=REPRESENTATION('density',(#991),#1589);
#996=DESCRIPTIVE_REPRESENTATION_ITEM('Acier','Acier');
#997=PROPERTY_DEFINITION('material property','material name',#1599);
#998=PROPERTY_DEFINITION('material property','density of part',#1599);
#999=AXIS2_PLACEMENT_3D('',#1314,#1064,#1065);
#1000=AXIS2_PLACEMENT_3D('',#1315,#1066,#1067);
#1001=AXIS2_PLACEMENT_3D('',#1324,#1072,#1073);
#1002=AXIS2_PLACEMENT_3D('',#1330,#1077,#1078);
#1003=AXIS2_PLACEMENT_3D('',#1339,#1083,#1084);
#1004=AXIS2_PLACEMENT_3D('',#1345,#1088,#1089);
#1005=AXIS2_PLACEMENT_3D('',#1360,#1097,#1098);
#1006=AXIS2_PLACEMENT_3D('',#1362,#1099,#1100);
#1007=AXIS2_PLACEMENT_3D('',#1363,#1101,#1102);
#1008=AXIS2_PLACEMENT_3D('',#1367,#1104,#1105);
#1009=AXIS2_PLACEMENT_3D('',#1374,#1109,#1110);
#1010=AXIS2_PLACEMENT_3D('',#1376,#1112,#1113);
#1011=AXIS2_PLACEMENT_3D('',#1385,#1118,#1119);
#1012=AXIS2_PLACEMENT_3D('',#1391,#1123,#1124);
#1013=AXIS2_PLACEMENT_3D('',#1397,#1128,#1129);
#1014=AXIS2_PLACEMENT_3D('',#1400,#1132,#1133);
#1015=AXIS2_PLACEMENT_3D('',#1401,#1134,#1135);
#1016=AXIS2_PLACEMENT_3D('',#1410,#1140,#1141);
#1017=AXIS2_PLACEMENT_3D('',#1416,#1145,#1146);
#1018=AXIS2_PLACEMENT_3D('',#1422,#1150,#1151);
#1019=AXIS2_PLACEMENT_3D('',#1425,#1154,#1155);
#1020=AXIS2_PLACEMENT_3D('',#1426,#1156,#1157);
#1021=AXIS2_PLACEMENT_3D('',#1435,#1162,#1163);
#1022=AXIS2_PLACEMENT_3D('',#1441,#1167,#1168);
#1023=AXIS2_PLACEMENT_3D('',#1447,#1172,#1173);
#1024=AXIS2_PLACEMENT_3D('',#1450,#1176,#1177);
#1025=AXIS2_PLACEMENT_3D('',#1451,#1178,#1179);
#1026=AXIS2_PLACEMENT_3D('',#1460,#1184,#1185);
#1027=AXIS2_PLACEMENT_3D('',#1466,#1189,#1190);
#1028=AXIS2_PLACEMENT_3D('',#1472,#1194,#1195);
#1029=AXIS2_PLACEMENT_3D('',#1475,#1198,#1199);
#1030=AXIS2_PLACEMENT_3D('',#1476,#1200,#1201);
#1031=AXIS2_PLACEMENT_3D('',#1485,#1206,#1207);
#1032=AXIS2_PLACEMENT_3D('',#1494,#1212,#1213);
#1033=AXIS2_PLACEMENT_3D('',#1500,#1217,#1218);
#1034=AXIS2_PLACEMENT_3D('',#1506,#1222,#1223);
#1035=AXIS2_PLACEMENT_3D('',#1517,#1230,#1231);
#1036=AXIS2_PLACEMENT_3D('',#1522,#1235,#1236);
#1037=AXIS2_PLACEMENT_3D('',#1526,#1239,#1240);
#1038=AXIS2_PLACEMENT_3D('',#1530,#1243,#1244);
#1039=AXIS2_PLACEMENT_3D('',#1533,#1247,#1248);
#1040=AXIS2_PLACEMENT_3D('',#1537,#1251,#1252);
#1041=AXIS2_PLACEMENT_3D('',#1538,#1253,#1254);
#1042=AXIS2_PLACEMENT_3D('',#1541,#1256,#1257);
#1043=AXIS2_PLACEMENT_3D('',#1542,#1258,#1259);
#1044=AXIS2_PLACEMENT_3D('',#1544,#1260,#1261);
#1045=AXIS2_PLACEMENT_3D('',#1546,#1263,#1264);
#1046=AXIS2_PLACEMENT_3D('',#1547,#1265,#1266);
#1047=AXIS2_PLACEMENT_3D('',#1549,#1267,#1268);
#1048=AXIS2_PLACEMENT_3D('',#1551,#1270,#1271);
#1049=AXIS2_PLACEMENT_3D('',#1552,#1272,#1273);
#1050=AXIS2_PLACEMENT_3D('',#1554,#1274,#1275);
#1051=AXIS2_PLACEMENT_3D('',#1557,#1277,#1278);
#1052=AXIS2_PLACEMENT_3D('',#1558,#1279,#1280);
#1053=AXIS2_PLACEMENT_3D('',#1560,#1281,#1282);
#1054=AXIS2_PLACEMENT_3D('',#1563,#1284,#1285);
#1055=AXIS2_PLACEMENT_3D('',#1564,#1286,#1287);
#1056=AXIS2_PLACEMENT_3D('',#1570,#1291,#1292);
#1057=AXIS2_PLACEMENT_3D('',#1575,#1296,#1297);
#1058=AXIS2_PLACEMENT_3D('',#1579,#1300,#1301);
#1059=AXIS2_PLACEMENT_3D('',#1581,#1303,#1304);
#1060=AXIS2_PLACEMENT_3D('',#1582,#1305,#1306);
#1061=AXIS2_PLACEMENT_3D('',#1583,#1307,#1308);
#1062=AXIS2_PLACEMENT_3D('',#1584,#1309,#1310);
#1063=AXIS2_PLACEMENT_3D('',#1586,#1312,#1313);
#1064=DIRECTION('axis',(0.,0.,1.));
#1065=DIRECTION('refdir',(1.,0.,0.));
#1066=DIRECTION('center_axis',(0.,0.,-1.));
#1067=DIRECTION('ref_axis',(0.,-1.,0.));
#1068=DIRECTION('',(-4.11956595408221E-17,-1.,0.));
#1069=DIRECTION('',(1.,0.,0.));
#1070=DIRECTION('',(0.,-1.,0.));
#1071=DIRECTION('',(-1.,-1.50538715203411E-16,0.));
#1072=DIRECTION('center_axis',(-1.,0.,0.));
#1073=DIRECTION('ref_axis',(0.,0.,1.));
#1074=DIRECTION('',(0.,0.,-1.));
#1075=DIRECTION('',(0.,1.,0.));
#1076=DIRECTION('',(0.,0.,1.));
#1077=DIRECTION('center_axis',(-1.,0.,0.));
#1078=DIRECTION('ref_axis',(0.,0.,1.));
#1079=DIRECTION('',(0.,0.,1.));
#1080=DIRECTION('',(0.,-1.,0.));
#1081=DIRECTION('',(0.,0.,-1.));
#1082=DIRECTION('',(0.,1.,0.));
#1083=DIRECTION('center_axis',(0.,0.,1.));
#1084=DIRECTION('ref_axis',(1.,0.,0.));
#1085=DIRECTION('',(-1.,0.,0.));
#1086=DIRECTION('',(0.,-1.,0.));
#1087=DIRECTION('',(1.,0.,0.));
#1088=DIRECTION('center_axis',(1.,-4.11956595408221E-17,0.));
#1089=DIRECTION('ref_axis',(4.11956595408221E-17,1.,0.));
#1090=DIRECTION('',(0.,0.,1.));
#1091=DIRECTION('',(4.11956595408221E-17,1.,0.));
#1092=DIRECTION('',(0.,0.,1.));
#1093=DIRECTION('',(4.11956595408221E-17,1.,4.22138032176866E-17));
#1094=DIRECTION('',(0.,0.,-1.));
#1095=DIRECTION('',(4.11956595408221E-17,1.,0.));
#1096=DIRECTION('',(0.,0.,1.));
#1097=DIRECTION('center_axis',(-1.,4.11956595408221E-17,0.));
#1098=DIRECTION('ref_axis',(0.,1.,0.));
#1099=DIRECTION('center_axis',(-1.,4.11956595408221E-17,0.));
#1100=DIRECTION('ref_axis',(0.,1.,0.));
#1101=DIRECTION('center_axis',(1.50538715203411E-16,-1.,0.));
#1102=DIRECTION('ref_axis',(1.,1.50538715203411E-16,0.));
#1103=DIRECTION('',(-1.,0.,0.));
#1104=DIRECTION('center_axis',(-1.50538715203411E-16,1.,0.));
#1105=DIRECTION('ref_axis',(-0.707106781186548,0.,0.707106781186548));
#1106=DIRECTION('',(1.,1.50538715203411E-16,0.));
#1107=DIRECTION('',(0.,0.,-1.));
#1108=DIRECTION('',(-1.,-1.50538715203411E-16,0.));
#1109=DIRECTION('center_axis',(-1.50538715203411E-16,1.,0.));
#1110=DIRECTION('ref_axis',(-0.707106781186548,0.,-0.707106781186548));
#1111=DIRECTION('',(1.,1.50538715203411E-16,0.));
#1112=DIRECTION('center_axis',(1.,0.,0.));
#1113=DIRECTION('ref_axis',(0.,-1.,0.));
#1114=DIRECTION('',(0.,1.,0.));
#1115=DIRECTION('',(0.,0.,-1.));
#1116=DIRECTION('',(0.,-1.,0.));
#1117=DIRECTION('',(0.,0.,-1.));
#1118=DIRECTION('center_axis',(0.,1.,0.));
#1119=DIRECTION('ref_axis',(1.,0.,0.));
#1120=DIRECTION('',(-1.,0.,0.));
#1121=DIRECTION('',(1.,0.,0.));
#1122=DIRECTION('',(0.,0.,-1.));
#1123=DIRECTION('center_axis',(-1.,0.,0.));
#1124=DIRECTION('ref_axis',(0.,1.,0.));
#1125=DIRECTION('',(0.,-1.,0.));
#1126=DIRECTION('',(0.,1.,0.));
#1127=DIRECTION('',(0.,0.,-1.));
#1128=DIRECTION('center_axis',(0.,-1.,0.));
#1129=DIRECTION('ref_axis',(-1.,0.,0.));
#1130=DIRECTION('',(1.,0.,0.));
#1131=DIRECTION('',(-1.,0.,0.));
#1132=DIRECTION('center_axis',(0.,0.,-1.));
#1133=DIRECTION('ref_axis',(-1.,0.,0.));
#1134=DIRECTION('center_axis',(-1.,0.,0.));
#1135=DIRECTION('ref_axis',(0.,1.,0.));
#1136=DIRECTION('',(0.,-1.,0.));
#1137=DIRECTION('',(0.,0.,-1.));
#1138=DIRECTION('',(0.,1.,0.));
#1139=DIRECTION('',(0.,0.,-1.));
#1140=DIRECTION('center_axis',(0.,-1.,0.));
#1141=DIRECTION('ref_axis',(-1.,0.,0.));
#1142=DIRECTION('',(1.,0.,0.));
#1143=DIRECTION('',(-1.,0.,0.));
#1144=DIRECTION('',(0.,0.,-1.));
#1145=DIRECTION('center_axis',(1.,0.,0.));
#1146=DIRECTION('ref_axis',(0.,-1.,0.));
#1147=DIRECTION('',(0.,1.,0.));
#1148=DIRECTION('',(0.,-1.,0.));
#1149=DIRECTION('',(0.,0.,-1.));
#1150=DIRECTION('center_axis',(0.,1.,0.));
#1151=DIRECTION('ref_axis',(1.,0.,0.));
#1152=DIRECTION('',(-1.,0.,0.));
#1153=DIRECTION('',(1.,0.,0.));
#1154=DIRECTION('center_axis',(0.,0.,-1.));
#1155=DIRECTION('ref_axis',(-1.,0.,0.));
#1156=DIRECTION('center_axis',(0.,-1.,0.));
#1157=DIRECTION('ref_axis',(-1.,0.,0.));
#1158=DIRECTION('',(1.,0.,0.));
#1159=DIRECTION('',(0.,0.,-1.));
#1160=DIRECTION('',(-1.,0.,0.));
#1161=DIRECTION('',(0.,0.,-1.));
#1162=DIRECTION('center_axis',(1.,0.,0.));
#1163=DIRECTION('ref_axis',(0.,-1.,0.));
#1164=DIRECTION('',(0.,1.,0.));
#1165=DIRECTION('',(0.,-1.,0.));
#1166=DIRECTION('',(0.,0.,-1.));
#1167=DIRECTION('center_axis',(0.,1.,0.));
#1168=DIRECTION('ref_axis',(1.,0.,0.));
#1169=DIRECTION('',(-1.,0.,0.));
#1170=DIRECTION('',(1.,0.,0.));
#1171=DIRECTION('',(0.,0.,-1.));
#1172=DIRECTION('center_axis',(-1.,0.,0.));
#1173=DIRECTION('ref_axis',(0.,1.,0.));
#1174=DIRECTION('',(0.,-1.,0.));
#1175=DIRECTION('',(0.,1.,0.));
#1176=DIRECTION('center_axis',(0.,0.,-1.));
#1177=DIRECTION('ref_axis',(-1.,0.,0.));
#1178=DIRECTION('center_axis',(0.,1.,0.));
#1179=DIRECTION('ref_axis',(1.,0.,0.));
#1180=DIRECTION('',(-1.,0.,0.));
#1181=DIRECTION('',(0.,0.,-1.));
#1182=DIRECTION('',(1.,0.,0.));
#1183=DIRECTION('',(0.,0.,-1.));
#1184=DIRECTION('center_axis',(-1.,0.,0.));
#1185=DIRECTION('ref_axis',(0.,1.,0.));
#1186=DIRECTION('',(0.,-1.,0.));
#1187=DIRECTION('',(0.,1.,0.));
#1188=DIRECTION('',(0.,0.,-1.));
#1189=DIRECTION('center_axis',(0.,-1.,0.));
#1190=DIRECTION('ref_axis',(-1.,0.,0.));
#1191=DIRECTION('',(1.,0.,0.));
#1192=DIRECTION('',(-1.,0.,0.));
#1193=DIRECTION('',(0.,0.,-1.));
#1194=DIRECTION('center_axis',(1.,0.,0.));
#1195=DIRECTION('ref_axis',(0.,-1.,0.));
#1196=DIRECTION('',(0.,1.,0.));
#1197=DIRECTION('',(0.,-1.,0.));
#1198=DIRECTION('center_axis',(0.,0.,-1.));
#1199=DIRECTION('ref_axis',(-1.,0.,0.));
#1200=DIRECTION('center_axis',(1.,0.,0.));
#1201=DIRECTION('ref_axis',(0.,1.,0.));
#1202=DIRECTION('',(0.,-1.,0.));
#1203=DIRECTION('',(0.,0.,1.));
#1204=DIRECTION('',(0.,1.,0.));
#1205=DIRECTION('',(0.,0.,1.));
#1206=DIRECTION('center_axis',(0.,0.,-1.));
#1207=DIRECTION('ref_axis',(-1.,0.,0.));
#1208=DIRECTION('',(0.,1.,0.));
#1209=DIRECTION('',(1.,0.,0.));
#1210=DIRECTION('',(0.,-1.,0.));
#1211=DIRECTION('',(-1.,0.,0.));
#1212=DIRECTION('center_axis',(1.,0.,0.));
#1213=DIRECTION('ref_axis',(0.,1.,0.));
#1214=DIRECTION('',(0.,1.,0.));
#1215=DIRECTION('',(0.,0.,1.));
#1216=DIRECTION('',(0.,0.,1.));
#1217=DIRECTION('center_axis',(0.,0.,1.));
#1218=DIRECTION('ref_axis',(1.,0.,0.));
#1219=DIRECTION('',(0.,-1.,0.));
#1220=DIRECTION('',(1.,0.,0.));
#1221=DIRECTION('',(-1.,0.,0.));
#1222=DIRECTION('center_axis',(0.,0.,-1.));
#1223=DIRECTION('ref_axis',(-1.,0.,0.));
#1224=DIRECTION('',(-1.,0.,0.));
#1225=DIRECTION('',(0.,-1.,0.));
#1226=DIRECTION('',(1.,0.,0.));
#1227=DIRECTION('',(0.,1.,0.));
#1228=DIRECTION('',(0.,-1.,0.));
#1229=DIRECTION('',(1.,0.,0.));
#1230=DIRECTION('center_axis',(0.,1.,0.));
#1231=DIRECTION('ref_axis',(0.,0.,1.));
#1232=DIRECTION('',(1.,0.,0.));
#1233=DIRECTION('',(0.,0.,-1.));
#1234=DIRECTION('',(0.,0.,-1.));
#1235=DIRECTION('center_axis',(1.,0.,0.));
#1236=DIRECTION('ref_axis',(0.,0.,-1.));
#1237=DIRECTION('',(0.,1.,0.));
#1238=DIRECTION('',(0.,0.,1.));
#1239=DIRECTION('center_axis',(1.,0.,0.));
#1240=DIRECTION('ref_axis',(0.,0.,-1.));
#1241=DIRECTION('',(0.,0.,1.));
#1242=DIRECTION('',(0.,1.,0.));
#1243=DIRECTION('center_axis',(0.,-1.,0.));
#1244=DIRECTION('ref_axis',(0.,0.,-1.));
#1245=DIRECTION('',(-1.,0.,0.));
#1246=DIRECTION('',(0.,0.,1.));
#1247=DIRECTION('center_axis',(0.,0.,1.));
#1248=DIRECTION('ref_axis',(1.,0.,0.));
#1249=DIRECTION('',(0.,-1.,0.));
#1250=DIRECTION('',(-1.,0.,0.));
#1251=DIRECTION('center_axis',(-1.,0.,0.));
#1252=DIRECTION('ref_axis',(0.,0.,1.));
#1253=DIRECTION('center_axis',(0.,1.,0.));
#1254=DIRECTION('ref_axis',(-0.707106781186548,0.,0.707106781186548));
#1255=DIRECTION('',(0.,1.,0.));
#1256=DIRECTION('center_axis',(0.,-1.,0.));
#1257=DIRECTION('ref_axis',(-0.707106781186548,0.,0.707106781186548));
#1258=DIRECTION('center_axis',(1.,0.,0.));
#1259=DIRECTION('ref_axis',(0.,1.,0.));
#1260=DIRECTION('center_axis',(1.,0.,0.));
#1261=DIRECTION('ref_axis',(0.,1.,0.));
#1262=DIRECTION('',(-1.,0.,0.));
#1263=DIRECTION('center_axis',(1.,0.,0.));
#1264=DIRECTION('ref_axis',(0.,1.,0.));
#1265=DIRECTION('center_axis',(1.,0.,0.));
#1266=DIRECTION('ref_axis',(0.,1.,0.));
#1267=DIRECTION('center_axis',(1.,0.,0.));
#1268=DIRECTION('ref_axis',(0.,1.,0.));
#1269=DIRECTION('',(-1.,0.,0.));
#1270=DIRECTION('center_axis',(1.,0.,0.));
#1271=DIRECTION('ref_axis',(0.,1.,0.));
#1272=DIRECTION('center_axis',(0.,0.,-1.));
#1273=DIRECTION('ref_axis',(1.,0.,0.));
#1274=DIRECTION('center_axis',(0.,4.22138032176866E-17,-1.));
#1275=DIRECTION('ref_axis',(1.,0.,0.));
#1276=DIRECTION('',(0.,0.,-1.));
#1277=DIRECTION('center_axis',(0.,-2.11069016088433E-17,1.));
#1278=DIRECTION('ref_axis',(1.,0.,0.));
#1279=DIRECTION('center_axis',(0.,0.,-1.));
#1280=DIRECTION('ref_axis',(1.,0.,0.));
#1281=DIRECTION('center_axis',(0.,4.22138032176866E-17,-1.));
#1282=DIRECTION('ref_axis',(1.,0.,0.));
#1283=DIRECTION('',(0.,0.,-1.));
#1284=DIRECTION('center_axis',(0.,-2.11069016088433E-17,1.));
#1285=DIRECTION('ref_axis',(1.,0.,0.));
#1286=DIRECTION('center_axis',(0.,1.,0.));
#1287=DIRECTION('ref_axis',(0.,0.,1.));
#1288=DIRECTION('',(1.,0.,0.));
#1289=DIRECTION('',(0.,0.,1.));
#1290=DIRECTION('',(1.,0.,0.));
#1291=DIRECTION('center_axis',(0.,2.11069016088433E-17,-1.));
#1292=DIRECTION('ref_axis',(0.,1.,2.11069016088433E-17));
#1293=DIRECTION('',(0.,1.,2.11069016088433E-17));
#1294=DIRECTION('',(1.,0.,0.));
#1295=DIRECTION('',(-1.,0.,0.));
#1296=DIRECTION('center_axis',(0.,-1.,0.));
#1297=DIRECTION('ref_axis',(0.,0.,-1.));
#1298=DIRECTION('',(0.,0.,-1.));
#1299=DIRECTION('',(1.,0.,0.));
#1300=DIRECTION('center_axis',(0.,-4.22138032176866E-17,1.));
#1301=DIRECTION('ref_axis',(0.,-1.,-4.22138032176866E-17));
#1302=DIRECTION('',(0.,-1.,-4.22138032176866E-17));
#1303=DIRECTION('center_axis',(1.,0.,0.));
#1304=DIRECTION('ref_axis',(0.,0.,-1.));
#1305=DIRECTION('center_axis',(0.,-1.,0.));
#1306=DIRECTION('ref_axis',(-0.707106781186548,0.,-0.707106781186548));
#1307=DIRECTION('center_axis',(0.,-1.,0.));
#1308=DIRECTION('ref_axis',(-0.707106781186548,0.,-0.707106781186548));
#1309=DIRECTION('center_axis',(0.,1.,0.));
#1310=DIRECTION('ref_axis',(-1.,0.,0.));
#1311=DIRECTION('',(-1.,0.,0.));
#1312=DIRECTION('center_axis',(0.,0.,1.));
#1313=DIRECTION('ref_axis',(1.,0.,0.));
#1314=CARTESIAN_POINT('',(0.,0.,0.));
#1315=CARTESIAN_POINT('Origin',(14.7500000000007,26.9500000000005,32.05));
#1316=CARTESIAN_POINT('',(14.7500000000007,26.9500000000005,32.05));
#1317=CARTESIAN_POINT('',(14.7500000000007,-26.9499999999995,32.05));
#1318=CARTESIAN_POINT('',(14.7500000000007,-4.77395900588817E-13,32.05));
#1319=CARTESIAN_POINT('',(0.750000000000692,26.9500000000005,32.05));
#1320=CARTESIAN_POINT('',(14.7500000000007,26.9499999999985,32.05));
#1321=CARTESIAN_POINT('',(0.750000000000692,-26.9499999999995,32.05));
#1322=CARTESIAN_POINT('',(0.750000000000692,26.9500000000005,32.05));
#1323=CARTESIAN_POINT('',(7.0127707783933E-13,-26.9500000000015,32.05));
#1324=CARTESIAN_POINT('Origin',(0.750000000000692,5.41788836017076E-13,
33.1));
#1325=CARTESIAN_POINT('',(0.750000000000692,26.9500000000005,34.15));
#1326=CARTESIAN_POINT('',(0.750000000000692,26.9499999999985,16.55));
#1327=CARTESIAN_POINT('',(0.750000000000692,-26.9499999999995,34.15));
#1328=CARTESIAN_POINT('',(0.750000000000692,-4.77395900588817E-13,34.15));
#1329=CARTESIAN_POINT('',(0.750000000000692,-26.9500000000015,16.55));
#1330=CARTESIAN_POINT('Origin',(0.750000000000692,5.41788836017076E-13,
1.42823949582533));
#1331=CARTESIAN_POINT('',(0.750000000000692,-26.9499999999995,0.));
#1332=CARTESIAN_POINT('',(0.750000000000692,-26.9499999999995,2.85647899165066));
#1333=CARTESIAN_POINT('',(0.750000000000692,-26.9500000000015,0.714119747912664));
#1334=CARTESIAN_POINT('',(0.750000000000692,26.9500000000005,0.));
#1335=CARTESIAN_POINT('',(0.750000000000692,-4.77395900588817E-13,0.));
#1336=CARTESIAN_POINT('',(0.750000000000692,26.9500000000005,2.85647899165066));
#1337=CARTESIAN_POINT('',(0.750000000000692,26.9499999999985,0.714119747912664));
#1338=CARTESIAN_POINT('',(0.750000000000692,26.9500000000005,2.85647899165066));
#1339=CARTESIAN_POINT('Origin',(6.92779167366098E-13,-1.49658063719471E-12,
0.));
#1340=CARTESIAN_POINT('',(-23.2499999999993,-26.9499999999995,0.));
#1341=CARTESIAN_POINT('',(-14.7499999999993,-26.9499999999995,0.));
#1342=CARTESIAN_POINT('',(-23.2499999999993,26.9499999999985,0.));
#1343=CARTESIAN_POINT('',(-23.2499999999993,-4.77395900588817E-13,0.));
#1344=CARTESIAN_POINT('',(-14.7499999999993,26.9499999999985,0.));
#1345=CARTESIAN_POINT('Origin',(14.7500000000007,-26.9500000000015,0.));
#1346=CARTESIAN_POINT('',(14.7500000000007,-26.9499999999995,2.85647899165066));
#1347=CARTESIAN_POINT('',(14.7500000000007,-26.9500000000015,0.));
#1348=CARTESIAN_POINT('',(14.7500000000007,-16.15,2.85647899165065));
#1349=CARTESIAN_POINT('',(14.7500000000007,-26.9500000000005,2.85647899165066));
#1350=CARTESIAN_POINT('',(14.7500000000007,-16.15,8.15647899165065));
#1351=CARTESIAN_POINT('',(14.7500000000007,-16.15,4.07823949582533));
#1352=CARTESIAN_POINT('',(14.7500000000007,10.15,8.15647899165066));
#1353=CARTESIAN_POINT('',(14.7500000000007,-8.40000000000075,8.15647899165065));
#1354=CARTESIAN_POINT('',(14.7500000000007,10.15,2.85647899165066));
#1355=CARTESIAN_POINT('',(14.7500000000007,10.15,1.42823949582533));
#1356=CARTESIAN_POINT('',(14.7500000000007,26.9500000000005,2.85647899165066));
#1357=CARTESIAN_POINT('',(14.7500000000007,-26.9500000000005,2.85647899165066));
#1358=CARTESIAN_POINT('',(14.7500000000007,26.9499999999985,0.));
#1359=CARTESIAN_POINT('',(14.7500000000007,-21.4999999999995,25.4));
#1360=CARTESIAN_POINT('Origin',(14.7500000000007,-17.4499999999995,25.4));
#1361=CARTESIAN_POINT('',(14.7500000000007,15.2500000000005,26.));
#1362=CARTESIAN_POINT('Origin',(14.7500000000007,19.3000000000005,26.));
#1363=CARTESIAN_POINT('Origin',(-14.7499999999993,-26.9500000000015,0.));
#1364=CARTESIAN_POINT('',(-23.2499999999993,-26.9499999999995,34.15));
#1365=CARTESIAN_POINT('',(-14.7499999999993,-26.9499999999995,34.15));
#1366=CARTESIAN_POINT('',(-38.7532053137401,-26.9500000000015,24.125));
#1367=CARTESIAN_POINT('Origin',(-23.2499999999993,-26.9500000000015,17.15));
#1368=CARTESIAN_POINT('',(-18.5999999999996,-26.9500000000015,24.125));
#1369=CARTESIAN_POINT('',(-42.4749999999994,-26.9500000000015,24.125));
#1370=CARTESIAN_POINT('',(-18.5999999999996,-26.9500000000015,10.025));
#1371=CARTESIAN_POINT('',(-18.5999999999996,-26.9500000000015,12.0625));
#1372=CARTESIAN_POINT('',(-38.7532053137401,-26.9500000000015,10.025));
#1373=CARTESIAN_POINT('',(-16.6749999999994,-26.9500000000015,10.025));
#1374=CARTESIAN_POINT('Origin',(-23.2499999999993,-26.9500000000015,17.));
#1375=CARTESIAN_POINT('',(6.97220059464598E-13,-26.9500000000015,2.85647899165066));
#1376=CARTESIAN_POINT('Origin',(-49.4500008791685,18.6500000000005,2.22500000000001));
#1377=CARTESIAN_POINT('',(-49.4500008791685,17.0500000000005,2.22500000000001));
#1378=CARTESIAN_POINT('',(-49.4500008791685,18.6500000000005,2.22500000000001));
#1379=CARTESIAN_POINT('',(-49.4500008791685,8.90000000000055,2.22500000000001));
#1380=CARTESIAN_POINT('',(-49.4500008791685,17.0500000000005,-3.775));
#1381=CARTESIAN_POINT('',(-49.4500008791685,17.0500000000005,2.22500000000001));
#1382=CARTESIAN_POINT('',(-49.4500008791685,18.6500000000005,-3.775));
#1383=CARTESIAN_POINT('',(-49.4500008791685,17.0500000000005,-3.775));
#1384=CARTESIAN_POINT('',(-49.4500008791685,18.6500000000005,2.22500000000001));
#1385=CARTESIAN_POINT('Origin',(-53.4500008791685,18.6500000000005,2.22500000000001));
#1386=CARTESIAN_POINT('',(-53.4500008791685,18.6500000000005,2.22500000000001));
#1387=CARTESIAN_POINT('',(-55.350000439584,18.6500000000005,2.22500000000001));
#1388=CARTESIAN_POINT('',(-53.4500008791685,18.6500000000005,-3.775));
#1389=CARTESIAN_POINT('',(-49.4500008791685,18.6500000000005,-3.775));
#1390=CARTESIAN_POINT('',(-53.4500008791685,18.6500000000005,2.22500000000001));
#1391=CARTESIAN_POINT('Origin',(-53.4500008791685,17.0500000000005,2.22500000000001));
#1392=CARTESIAN_POINT('',(-53.4500008791685,17.0500000000005,2.22500000000001));
#1393=CARTESIAN_POINT('',(-53.4500008791685,8.10000000000054,2.22500000000001));
#1394=CARTESIAN_POINT('',(-53.4500008791685,17.0500000000005,-3.775));
#1395=CARTESIAN_POINT('',(-53.4500008791685,18.6500000000005,-3.775));
#1396=CARTESIAN_POINT('',(-53.4500008791685,17.0500000000005,2.22500000000001));
#1397=CARTESIAN_POINT('Origin',(-49.4500008791685,17.0500000000005,2.22500000000001));
#1398=CARTESIAN_POINT('',(-53.350000439584,17.0500000000005,2.22500000000001));
#1399=CARTESIAN_POINT('',(-53.4500008791685,17.0500000000005,-3.775));
#1400=CARTESIAN_POINT('Origin',(-51.4500008791685,17.8500000000005,-3.775));
#1401=CARTESIAN_POINT('Origin',(-68.5500008791685,-20.3499999999995,2.22500000000001));
#1402=CARTESIAN_POINT('',(-68.5500008791685,-18.7499999999995,2.22500000000001));
#1403=CARTESIAN_POINT('',(-68.5500008791685,-20.3499999999995,2.22500000000001));
#1404=CARTESIAN_POINT('',(-68.5500008791685,-10.5999999999995,2.22500000000001));
#1405=CARTESIAN_POINT('',(-68.5500008791685,-18.7499999999995,-3.775));
#1406=CARTESIAN_POINT('',(-68.5500008791685,-18.7499999999995,2.22500000000001));
#1407=CARTESIAN_POINT('',(-68.5500008791685,-20.3499999999995,-3.775));
#1408=CARTESIAN_POINT('',(-68.5500008791685,-18.7499999999995,-3.775));
#1409=CARTESIAN_POINT('',(-68.5500008791685,-20.3499999999995,2.22500000000001));
#1410=CARTESIAN_POINT('Origin',(-64.5500008791685,-20.3499999999995,2.22500000000001));
#1411=CARTESIAN_POINT('',(-64.5500008791685,-20.3499999999995,2.22500000000001));
#1412=CARTESIAN_POINT('',(-60.900000439584,-20.3499999999995,2.22500000000001));
#1413=CARTESIAN_POINT('',(-64.5500008791685,-20.3499999999995,-3.775));
#1414=CARTESIAN_POINT('',(-68.5500008791685,-20.3499999999995,-3.775));
#1415=CARTESIAN_POINT('',(-64.5500008791685,-20.3499999999995,2.22500000000001));
#1416=CARTESIAN_POINT('Origin',(-64.5500008791685,-18.7499999999995,2.22500000000001));
#1417=CARTESIAN_POINT('',(-64.5500008791685,-18.7499999999995,2.22500000000001));
#1418=CARTESIAN_POINT('',(-64.5500008791685,-9.79999999999946,2.22500000000001));
#1419=CARTESIAN_POINT('',(-64.5500008791685,-18.7499999999995,-3.775));
#1420=CARTESIAN_POINT('',(-64.5500008791685,-20.3499999999995,-3.775));
#1421=CARTESIAN_POINT('',(-64.5500008791685,-18.7499999999995,2.22500000000001));
#1422=CARTESIAN_POINT('Origin',(-68.5500008791685,-18.7499999999995,2.22500000000001));
#1423=CARTESIAN_POINT('',(-62.900000439584,-18.7499999999995,2.22500000000001));
#1424=CARTESIAN_POINT('',(-64.5500008791685,-18.7499999999995,-3.775));
#1425=CARTESIAN_POINT('Origin',(-66.5500008791685,-19.5499999999995,-3.775));
#1426=CARTESIAN_POINT('Origin',(-64.5500008791685,17.0500000000005,2.22500000000001));
#1427=CARTESIAN_POINT('',(-68.5500008791685,17.0500000000005,2.22500000000001));
#1428=CARTESIAN_POINT('',(-64.5500008791685,17.0500000000005,2.22500000000001));
#1429=CARTESIAN_POINT('',(-60.900000439584,17.0500000000005,2.22500000000001));
#1430=CARTESIAN_POINT('',(-68.5500008791685,17.0500000000005,-3.775));
#1431=CARTESIAN_POINT('',(-68.5500008791685,17.0500000000005,2.22500000000001));
#1432=CARTESIAN_POINT('',(-64.5500008791685,17.0500000000005,-3.775));
#1433=CARTESIAN_POINT('',(-64.5500008791685,17.0500000000005,-3.775));
#1434=CARTESIAN_POINT('',(-64.5500008791685,17.0500000000005,2.22500000000001));
#1435=CARTESIAN_POINT('Origin',(-64.5500008791685,18.6500000000005,2.22500000000001));
#1436=CARTESIAN_POINT('',(-64.5500008791685,18.6500000000005,2.22500000000001));
#1437=CARTESIAN_POINT('',(-64.5500008791685,8.90000000000055,2.22500000000001));
#1438=CARTESIAN_POINT('',(-64.5500008791685,18.6500000000005,-3.775));
#1439=CARTESIAN_POINT('',(-64.5500008791685,18.6500000000005,-3.775));
#1440=CARTESIAN_POINT('',(-64.5500008791685,18.6500000000005,2.22500000000001));
#1441=CARTESIAN_POINT('Origin',(-68.5500008791685,18.6500000000005,2.22500000000001));
#1442=CARTESIAN_POINT('',(-68.5500008791685,18.6500000000005,2.22500000000001));
#1443=CARTESIAN_POINT('',(-62.900000439584,18.6500000000005,2.22500000000001));
#1444=CARTESIAN_POINT('',(-68.5500008791685,18.6500000000005,-3.775));
#1445=CARTESIAN_POINT('',(-68.5500008791685,18.6500000000005,-3.775));
#1446=CARTESIAN_POINT('',(-68.5500008791685,18.6500000000005,2.22500000000001));
#1447=CARTESIAN_POINT('Origin',(-68.5500008791685,17.0500000000005,2.22500000000001));
#1448=CARTESIAN_POINT('',(-68.5500008791685,8.10000000000054,2.22500000000001));
#1449=CARTESIAN_POINT('',(-68.5500008791685,17.0500000000005,-3.775));
#1450=CARTESIAN_POINT('Origin',(-66.5500008791685,17.8500000000005,-3.775));
#1451=CARTESIAN_POINT('Origin',(-53.4500008791685,-18.7499999999995,2.22500000000001));
#1452=CARTESIAN_POINT('',(-49.4500008791685,-18.7499999999995,2.22500000000001));
#1453=CARTESIAN_POINT('',(-53.4500008791685,-18.7499999999995,2.22500000000001));
#1454=CARTESIAN_POINT('',(-55.350000439584,-18.7499999999995,2.22500000000001));
#1455=CARTESIAN_POINT('',(-49.4500008791685,-18.7499999999995,-3.775));
#1456=CARTESIAN_POINT('',(-49.4500008791685,-18.7499999999995,2.22500000000001));
#1457=CARTESIAN_POINT('',(-53.4500008791685,-18.7499999999995,-3.775));
#1458=CARTESIAN_POINT('',(-53.4500008791685,-18.7499999999995,-3.775));
#1459=CARTESIAN_POINT('',(-53.4500008791685,-18.7499999999995,2.22500000000001));
#1460=CARTESIAN_POINT('Origin',(-53.4500008791685,-20.3499999999995,2.22500000000001));
#1461=CARTESIAN_POINT('',(-53.4500008791685,-20.3499999999995,2.22500000000001));
#1462=CARTESIAN_POINT('',(-53.4500008791685,-10.5999999999995,2.22500000000001));
#1463=CARTESIAN_POINT('',(-53.4500008791685,-20.3499999999995,-3.775));
#1464=CARTESIAN_POINT('',(-53.4500008791685,-20.3499999999995,-3.775));
#1465=CARTESIAN_POINT('',(-53.4500008791685,-20.3499999999995,2.22500000000001));
#1466=CARTESIAN_POINT('Origin',(-49.4500008791685,-20.3499999999995,2.22500000000001));
#1467=CARTESIAN_POINT('',(-49.4500008791685,-20.3499999999995,2.22500000000001));
#1468=CARTESIAN_POINT('',(-53.350000439584,-20.3499999999995,2.22500000000001));
#1469=CARTESIAN_POINT('',(-49.4500008791685,-20.3499999999995,-3.775));
#1470=CARTESIAN_POINT('',(-49.4500008791685,-20.3499999999995,-3.775));
#1471=CARTESIAN_POINT('',(-49.4500008791685,-20.3499999999995,2.22500000000001));
#1472=CARTESIAN_POINT('Origin',(-49.4500008791685,-18.7499999999995,2.22500000000001));
#1473=CARTESIAN_POINT('',(-49.4500008791685,-9.79999999999946,2.22500000000001));
#1474=CARTESIAN_POINT('',(-49.4500008791685,-18.7499999999995,-3.775));
#1475=CARTESIAN_POINT('Origin',(-51.4500008791685,-19.5499999999995,-3.775));
#1476=CARTESIAN_POINT('Origin',(-44.2999999999996,-36.1499999999995,24.125));
#1477=CARTESIAN_POINT('',(-44.2999999999996,34.4500000000005,24.125));
#1478=CARTESIAN_POINT('',(-44.2999999999996,-36.1499999999995,24.125));
#1479=CARTESIAN_POINT('',(-44.2999999999996,-4.59999999999946,24.125));
#1480=CARTESIAN_POINT('',(-44.2999999999996,34.4500000000005,32.125));
#1481=CARTESIAN_POINT('',(-44.2999999999996,34.4500000000005,24.125));
#1482=CARTESIAN_POINT('',(-44.2999999999996,-36.1499999999995,32.125));
#1483=CARTESIAN_POINT('',(-44.2999999999996,-36.1499999999995,32.125));
#1484=CARTESIAN_POINT('',(-44.2999999999996,-36.1499999999995,24.125));
#1485=CARTESIAN_POINT('Origin',(-57.2499999999996,-0.849999999999458,2.22500000000001));
#1486=CARTESIAN_POINT('',(-70.1999999999996,-36.1499999999995,2.22500000000001));
#1487=CARTESIAN_POINT('',(-70.1999999999996,34.4500000000005,2.22500000000001));
#1488=CARTESIAN_POINT('',(-70.1999999999996,34.4500000000005,2.22500000000001));
#1489=CARTESIAN_POINT('',(-44.2999999999996,34.4500000000005,2.22500000000001));
#1490=CARTESIAN_POINT('',(-44.2999999999996,34.4500000000005,2.22500000000001));
#1491=CARTESIAN_POINT('',(-44.2999999999996,-36.1499999999995,2.22500000000001));
#1492=CARTESIAN_POINT('',(-44.2999999999996,-36.1499999999995,2.22500000000001));
#1493=CARTESIAN_POINT('',(-70.1999999999996,-36.1499999999995,2.22500000000001));
#1494=CARTESIAN_POINT('Origin',(-44.2999999999996,-36.1499999999995,24.125));
#1495=CARTESIAN_POINT('',(-44.2999999999996,-36.1499999999995,10.025));
#1496=CARTESIAN_POINT('',(-44.2999999999996,34.4500000000005,10.025));
#1497=CARTESIAN_POINT('',(-44.2999999999996,-4.59999999999946,10.025));
#1498=CARTESIAN_POINT('',(-44.2999999999996,-36.1499999999995,24.125));
#1499=CARTESIAN_POINT('',(-44.2999999999996,34.4500000000005,24.125));
#1500=CARTESIAN_POINT('Origin',(-57.2499999999996,-0.849999999999458,32.125));
#1501=CARTESIAN_POINT('',(-70.1999999999996,34.4500000000005,32.125));
#1502=CARTESIAN_POINT('',(-70.1999999999996,-36.1499999999995,32.125));
#1503=CARTESIAN_POINT('',(-70.1999999999996,34.4500000000005,32.125));
#1504=CARTESIAN_POINT('',(-70.1999999999996,-36.1499999999995,32.125));
#1505=CARTESIAN_POINT('',(-44.2999999999996,34.4500000000005,32.125));
#1506=CARTESIAN_POINT('Origin',(-18.5999999999996,26.9500000000005,10.025));
#1507=CARTESIAN_POINT('',(-18.5999999999996,34.4500000000005,10.025));
#1508=CARTESIAN_POINT('',(-70.1999999999996,34.4500000000005,10.025));
#1509=CARTESIAN_POINT('',(-18.5999999999996,26.9499999999985,10.025));
#1510=CARTESIAN_POINT('',(-18.5999999999996,26.9500000000005,10.025));
#1511=CARTESIAN_POINT('',(-38.7532053137401,26.9499999999985,10.025));
#1512=CARTESIAN_POINT('',(-1.92499999999943,26.9499999999985,10.025));
#1513=CARTESIAN_POINT('',(-38.7532053137401,-4.79616346638068E-13,10.025));
#1514=CARTESIAN_POINT('',(-18.5999999999996,-36.1499999999995,10.025));
#1515=CARTESIAN_POINT('',(-18.5999999999996,26.9500000000005,10.025));
#1516=CARTESIAN_POINT('',(-70.1999999999996,-36.1499999999995,10.025));
#1517=CARTESIAN_POINT('Origin',(-44.3999999999996,34.4500000000005,17.075));
#1518=CARTESIAN_POINT('',(-18.5999999999996,34.4500000000005,24.125));
#1519=CARTESIAN_POINT('',(-18.5999999999996,34.4500000000005,24.125));
#1520=CARTESIAN_POINT('',(-18.5999999999996,34.4500000000005,10.025));
#1521=CARTESIAN_POINT('',(-70.1999999999996,34.4500000000005,24.125));
#1522=CARTESIAN_POINT('Origin',(-18.5999999999996,26.9500000000005,24.125));
#1523=CARTESIAN_POINT('',(-18.5999999999996,-36.1499999999995,24.125));
#1524=CARTESIAN_POINT('',(-18.5999999999996,26.9500000000005,24.125));
#1525=CARTESIAN_POINT('',(-18.5999999999996,-36.1499999999995,10.025));
#1526=CARTESIAN_POINT('Origin',(-18.5999999999996,26.9500000000005,24.125));
#1527=CARTESIAN_POINT('',(-18.5999999999996,26.9499999999985,24.125));
#1528=CARTESIAN_POINT('',(-18.5999999999996,26.9499999999985,12.0625));
#1529=CARTESIAN_POINT('',(-18.5999999999996,26.9500000000005,24.125));
#1530=CARTESIAN_POINT('Origin',(-44.3999999999996,-36.1499999999995,17.075));
#1531=CARTESIAN_POINT('',(-18.5999999999996,-36.1499999999995,24.125));
#1532=CARTESIAN_POINT('',(-70.1999999999996,-36.1499999999995,24.125));
#1533=CARTESIAN_POINT('Origin',(-70.1999999999996,26.9500000000005,24.125));
#1534=CARTESIAN_POINT('',(-38.7532053137401,26.9499999999985,24.125));
#1535=CARTESIAN_POINT('',(-38.7532053137401,-4.79616346638068E-13,24.125));
#1536=CARTESIAN_POINT('',(-27.7249999999994,26.9499999999985,24.125));
#1537=CARTESIAN_POINT('Origin',(-70.1999999999996,26.9500000000005,10.025));
#1538=CARTESIAN_POINT('Origin',(-23.2499999999993,-4.77395900588817E-13,
17.15));
#1539=CARTESIAN_POINT('',(-23.2499999999993,26.9499999999985,34.15));
#1540=CARTESIAN_POINT('',(-23.2499999999993,-4.77395900588817E-13,34.15));
#1541=CARTESIAN_POINT('Origin',(-23.2499999999993,26.9499999999985,17.15));
#1542=CARTESIAN_POINT('Origin',(14.7500000000007,19.3000000000005,26.));
#1543=CARTESIAN_POINT('',(29.7500000000007,15.2500000000005,26.));
#1544=CARTESIAN_POINT('Origin',(29.7500000000007,19.3000000000005,26.));
#1545=CARTESIAN_POINT('',(14.7500000000007,15.2500000000005,26.));
#1546=CARTESIAN_POINT('Origin',(29.7500000000007,19.3000000000005,26.));
#1547=CARTESIAN_POINT('Origin',(14.7500000000007,-17.4499999999995,25.4));
#1548=CARTESIAN_POINT('',(29.7500000000007,-21.4999999999995,25.4));
#1549=CARTESIAN_POINT('Origin',(29.7500000000007,-17.4499999999995,25.4));
#1550=CARTESIAN_POINT('',(14.7500000000007,-21.4999999999995,25.4));
#1551=CARTESIAN_POINT('Origin',(29.7500000000007,-17.4499999999995,25.4));
#1552=CARTESIAN_POINT('Origin',(19.2500000000007,-11.35,3.67041554624279));
#1553=CARTESIAN_POINT('',(17.4500000000007,-11.35,8.15647899165066));
#1554=CARTESIAN_POINT('Origin',(19.2500000000007,-11.35,8.15647899165066));
#1555=CARTESIAN_POINT('',(17.4500000000007,-11.35,2.85647899165065));
#1556=CARTESIAN_POINT('',(17.4500000000007,-11.35,3.67041554624279));
#1557=CARTESIAN_POINT('Origin',(19.2500000000007,-11.35,2.85647899165065));
#1558=CARTESIAN_POINT('Origin',(19.2500000000007,5.35,3.67041554624279));
#1559=CARTESIAN_POINT('',(17.4500000000007,5.35,8.15647899165066));
#1560=CARTESIAN_POINT('Origin',(19.2500000000007,5.35,8.15647899165066));
#1561=CARTESIAN_POINT('',(17.4500000000007,5.35,2.85647899165065));
#1562=CARTESIAN_POINT('',(17.4500000000007,5.35,3.67041554624279));
#1563=CARTESIAN_POINT('Origin',(19.2500000000007,5.35,2.85647899165065));
#1564=CARTESIAN_POINT('Origin',(14.7500000000007,10.15,2.85647899165066));
#1565=CARTESIAN_POINT('',(23.7500000000007,10.15,8.15647899165066));
#1566=CARTESIAN_POINT('',(14.7500000000007,10.15,8.15647899165066));
#1567=CARTESIAN_POINT('',(23.7500000000007,10.15,2.85647899165066));
#1568=CARTESIAN_POINT('',(23.7500000000007,10.15,8.15647899165066));
#1569=CARTESIAN_POINT('',(14.7500000000007,10.15,2.85647899165066));
#1570=CARTESIAN_POINT('Origin',(14.7500000000007,-16.15,2.85647899165065));
#1571=CARTESIAN_POINT('',(23.7500000000007,-16.15,2.85647899165065));
#1572=CARTESIAN_POINT('',(23.7500000000007,10.15,2.85647899165066));
#1573=CARTESIAN_POINT('',(14.7500000000007,-16.15,2.85647899165065));
#1574=CARTESIAN_POINT('',(14.7500000000007,26.9499999999985,2.85647899165066));
#1575=CARTESIAN_POINT('Origin',(14.7500000000007,-16.15,8.15647899165065));
#1576=CARTESIAN_POINT('',(23.7500000000007,-16.15,8.15647899165065));
#1577=CARTESIAN_POINT('',(23.7500000000007,-16.15,2.85647899165065));
#1578=CARTESIAN_POINT('',(14.7500000000007,-16.15,8.15647899165065));
#1579=CARTESIAN_POINT('Origin',(14.7500000000007,10.15,8.15647899165066));
#1580=CARTESIAN_POINT('',(23.7500000000007,-16.15,8.15647899165065));
#1581=CARTESIAN_POINT('Origin',(23.7500000000007,-3.,5.50647899165066));
#1582=CARTESIAN_POINT('Origin',(-23.2499999999993,-4.77395900588817E-13,
17.));
#1583=CARTESIAN_POINT('Origin',(-23.2499999999993,26.9499999999985,17.));
#1584=CARTESIAN_POINT('Origin',(14.7500000000007,26.9499999999985,0.));
#1585=CARTESIAN_POINT('',(-14.7499999999993,26.9499999999985,34.15));
#1586=CARTESIAN_POINT('Origin',(6.92779167366098E-13,-1.49658063719471E-12,
34.15));
#1587=UNCERTAINTY_MEASURE_WITH_UNIT(LENGTH_MEASURE(0.01),#1591,
'DISTANCE_ACCURACY_VALUE',
'Maximum model space distance between geometric entities at asserted c
onnectivities');
#1588=UNCERTAINTY_MEASURE_WITH_UNIT(LENGTH_MEASURE(0.01),#1591,
'DISTANCE_ACCURACY_VALUE',
'Maximum model space distance between geometric entities at asserted c
onnectivities');
#1589=(
GEOMETRIC_REPRESENTATION_CONTEXT(3)
GLOBAL_UNCERTAINTY_ASSIGNED_CONTEXT((#1587))
GLOBAL_UNIT_ASSIGNED_CONTEXT((#1591,#1593,#1594))
REPRESENTATION_CONTEXT('','3D')
);
#1590=(
GEOMETRIC_REPRESENTATION_CONTEXT(3)
GLOBAL_UNCERTAINTY_ASSIGNED_CONTEXT((#1588))
GLOBAL_UNIT_ASSIGNED_CONTEXT((#1591,#1593,#1594))
REPRESENTATION_CONTEXT('','3D')
);
#1591=(
LENGTH_UNIT()
NAMED_UNIT(*)
SI_UNIT(.MILLI.,.METRE.)
);
#1592=(
LENGTH_UNIT()
NAMED_UNIT(*)
SI_UNIT($,.METRE.)
);
#1593=(
NAMED_UNIT(*)
PLANE_ANGLE_UNIT()
SI_UNIT($,.RADIAN.)
);
#1594=(
NAMED_UNIT(*)
SI_UNIT($,.STERADIAN.)
SOLID_ANGLE_UNIT()
);
#1595=SHAPE_DEFINITION_REPRESENTATION(#1596,#1597);
#1596=PRODUCT_DEFINITION_SHAPE('',$,#1599);
#1597=SHAPE_REPRESENTATION('',(#999),#1589);
#1598=PRODUCT_DEFINITION_CONTEXT('part definition',#1603,'design');
#1599=PRODUCT_DEFINITION('TRANSFO','TRANSFO v5',#1600,#1598);
#1600=PRODUCT_DEFINITION_FORMATION('',$,#1605);
#1601=PRODUCT_RELATED_PRODUCT_CATEGORY('TRANSFO v5','TRANSFO v5',(#1605));
#1602=APPLICATION_PROTOCOL_DEFINITION('international standard',
'automotive_design',2009,#1603);
#1603=APPLICATION_CONTEXT(
'Core Data for Automotive Mechanical Design Process');
#1604=PRODUCT_CONTEXT('part definition',#1603,'mechanical');
#1605=PRODUCT('TRANSFO','TRANSFO v5',$,(#1604));
#1606=PRESENTATION_STYLE_ASSIGNMENT((#1609));
#1607=PRESENTATION_STYLE_ASSIGNMENT((#1610));
#1608=PRESENTATION_STYLE_ASSIGNMENT((#1611));
#1609=SURFACE_STYLE_USAGE(.BOTH.,#1612);
#1610=SURFACE_STYLE_USAGE(.BOTH.,#1613);
#1611=SURFACE_STYLE_USAGE(.BOTH.,#1614);
#1612=SURFACE_SIDE_STYLE('',(#1615));
#1613=SURFACE_SIDE_STYLE('',(#1616));
#1614=SURFACE_SIDE_STYLE('',(#1617));
#1615=SURFACE_STYLE_FILL_AREA(#1618);
#1616=SURFACE_STYLE_FILL_AREA(#1619);
#1617=SURFACE_STYLE_FILL_AREA(#1620);
#1618=FILL_AREA_STYLE('Acier - Satin\X\E9',(#1621));
#1619=FILL_AREA_STYLE(
'Tough 2000 (avec les imprimantes 3D SLA de Formlabs)',(#1622));
#1620=FILL_AREA_STYLE('ABS (blanc)',(#1623));
#1621=FILL_AREA_STYLE_COLOUR('Acier - Satin\X\E9',#1624);
#1622=FILL_AREA_STYLE_COLOUR(
'Tough 2000 (avec les imprimantes 3D SLA de Formlabs)',#1625);
#1623=FILL_AREA_STYLE_COLOUR('ABS (blanc)',#1626);
#1624=COLOUR_RGB('Acier - Satin\X\E9',0.627450980392157,0.627450980392157,
0.627450980392157);
#1625=COLOUR_RGB('Tough 2000 (avec les imprimantes 3D SLA de Formlabs)',
0.247058823529412,0.247058823529412,0.247058823529412);
#1626=COLOUR_RGB('ABS (blanc)',0.964705882352941,0.964705882352941,0.952941176470588);
ENDSEC;
END-ISO-10303-21;
